<?xml version='1.0' encoding='UTF-8' standalone='no'?>
<svg height="186.12" version="1.2" width="421.22000000000003" xmlns="http://www.w3.org/2000/svg" xmlns:atv="http://webmi.atvise.com/2007/svgext" xmlns:xlink="http://www.w3.org/1999/xlink">
 <defs>
  <linearGradient gradientUnits="objectBoundingBox" id="id_33_fill_gradient" spreadMethod="reflect" x1="0.0675676" x2="0.581081" y1="1" y2="1">
   <stop offset="0" stop-color="#999999"/>
   <stop offset="1" stop-color="#e5e5e5"/>
  </linearGradient>
  <linearGradient gradientUnits="objectBoundingBox" id="id_34_fill_gradient" spreadMethod="reflect" x1="-0.135135" x2="0.405405" y1="0.986486" y2="0.972973">
   <stop offset="0" stop-color="#999999"/>
   <stop offset="1" stop-color="#e5e5e5"/>
  </linearGradient>
  <linearGradient gradientUnits="objectBoundingBox" id="id_41_fill_gradient" spreadMethod="reflect" x1="-0.135135" x2="0.405405" y1="1" y2="0.972973">
   <stop offset="0" stop-color="#999999"/>
   <stop offset="1" stop-color="#e5e5e5"/>
  </linearGradient>
  <linearGradient gradientUnits="objectBoundingBox" id="id_42_fill_gradient" spreadMethod="reflect" x1="-0.135135" x2="0.405405" y1="0.986486" y2="0.972973">
   <stop offset="0" stop-color="#999999"/>
   <stop offset="1" stop-color="#e5e5e5"/>
  </linearGradient>
  <radialGradient cx="0.5" cy="0.5" fx="0.5" fy="0.5" gradientUnits="objectBoundingBox" id="id_42_stroke_gradient" r="1">
   <stop offset="0" stop-color="#000000"/>
   <stop offset="1" stop-color="#ffffff"/>
  </radialGradient>
  <linearGradient gradientUnits="objectBoundingBox" id="id_43_fill_gradient" spreadMethod="reflect" x1="-0.135135" x2="0.405405" y1="1" y2="0.972973">
   <stop offset="0" stop-color="#999999"/>
   <stop offset="1" stop-color="#e5e5e5"/>
  </linearGradient>
  <radialGradient cx="0.5" cy="0.5" fx="0.5" fy="0.5" gradientUnits="objectBoundingBox" id="id_44_fill_gradient" r="0.514579">
   <stop offset="0.6088709677419355" stop-color="#e4e4e4"/>
   <stop offset="1" stop-color="#9a9a9a"/>
  </radialGradient>
  <radialGradient cx="0.5" cy="0.5" fx="0.5" fy="0.5" gradientUnits="objectBoundingBox" id="id_7_fill_gradient" r="0.514579">
   <stop offset="0.6088709677419355" stop-color="#e4e4e4"/>
   <stop offset="1" stop-color="#9a9a9a"/>
  </radialGradient>
  <linearGradient gradientUnits="objectBoundingBox" id="linear_0" x1="0" x2="1" y1="0" y2="1">
   <stop offset="0" stop-color="#000000"/>
   <stop offset="1" stop-color="#000000" stop-opacity="0"/>
  </linearGradient>
  <linearGradient gradientUnits="objectBoundingBox" id="SVGID_10_" x1="-0.000148525" x2="0.99982" y1="0.499965" y2="0.499965">
   <stop offset="0.17" stop-color="#4D4D4D"/>
   <stop offset="0.23" stop-color="#5A5A5A"/>
   <stop offset="0.34" stop-color="#7D7D7D"/>
   <stop offset="0.48" stop-color="#B2B2B2"/>
   <stop offset="0.57" stop-color="#A8A8A8"/>
   <stop offset="0.73" stop-color="#8B8B8B"/>
   <stop offset="0.94" stop-color="#5C5C5C"/>
   <stop offset="1" stop-color="#4D4D4D"/>
  </linearGradient>
  <linearGradient gradientUnits="objectBoundingBox" id="SVGID_11_" x1="0" x2="0.999992" y1="0.499686" y2="0.499686">
   <stop offset="0.17" stop-color="#4D4D4D"/>
   <stop offset="0.23" stop-color="#5A5A5A"/>
   <stop offset="0.34" stop-color="#7D7D7D"/>
   <stop offset="0.48" stop-color="#B2B2B2"/>
   <stop offset="0.57" stop-color="#A8A8A8"/>
   <stop offset="0.73" stop-color="#8B8B8B"/>
   <stop offset="0.94" stop-color="#5C5C5C"/>
   <stop offset="1" stop-color="#4D4D4D"/>
  </linearGradient>
  <linearGradient gradientUnits="objectBoundingBox" id="SVGID_12_" x1="-0.000159151" x2="0.999873" y1="0.499976" y2="0.499976">
   <stop offset="0.17" stop-color="#4D4D4D"/>
   <stop offset="0.23" stop-color="#5A5A5A"/>
   <stop offset="0.34" stop-color="#7D7D7D"/>
   <stop offset="0.48" stop-color="#B2B2B2"/>
   <stop offset="0.57" stop-color="#A8A8A8"/>
   <stop offset="0.73" stop-color="#8B8B8B"/>
   <stop offset="0.94" stop-color="#5C5C5C"/>
   <stop offset="1" stop-color="#4D4D4D"/>
  </linearGradient>
  <linearGradient gradientUnits="objectBoundingBox" id="SVGID_13_" x1="-3.95757e-05" x2="0.999984" y1="0.500503" y2="0.500503">
   <stop offset="0.17" stop-color="#4D4D4D"/>
   <stop offset="0.23" stop-color="#5A5A5A"/>
   <stop offset="0.34" stop-color="#7D7D7D"/>
   <stop offset="0.48" stop-color="#B2B2B2"/>
   <stop offset="0.57" stop-color="#A8A8A8"/>
   <stop offset="0.73" stop-color="#8B8B8B"/>
   <stop offset="0.94" stop-color="#5C5C5C"/>
   <stop offset="1" stop-color="#4D4D4D"/>
  </linearGradient>
  <linearGradient gradientUnits="objectBoundingBox" id="SVGID_1_" x1="2.80483e-06" x2="1" y1="0.5" y2="0.5">
   <stop offset="0" stop-color="#383838"/>
   <stop offset="0.5" stop-color="#ECECEC"/>
   <stop offset="0.57" stop-color="#D9D9D9"/>
   <stop offset="0.71" stop-color="#A8A8A8"/>
   <stop offset="0.92" stop-color="#5A5A5A"/>
   <stop offset="1" stop-color="#383838"/>
  </linearGradient>
  <linearGradient gradientUnits="objectBoundingBox" id="SVGID_2_" x1="-5.34852e-06" x2="0.999996" y1="0.500015" y2="0.500015">
   <stop offset="0.06" stop-color="#808080"/>
   <stop offset="0.13" stop-color="#8D8D8D"/>
   <stop offset="0.28" stop-color="#B0B0B0"/>
   <stop offset="0.48" stop-color="#E8E8E8"/>
   <stop offset="0.48" stop-color="#EBEBEB"/>
   <stop offset="0.57" stop-color="#E0E0E0"/>
   <stop offset="0.72" stop-color="#C3C3C3"/>
   <stop offset="0.92" stop-color="#949494"/>
   <stop offset="1" stop-color="#808080"/>
  </linearGradient>
  <linearGradient gradientUnits="objectBoundingBox" id="SVGID_3_" x1="0.0132289" x2="0.961723" y1="1.43718" y2="-0.523291">
   <stop offset="0.29" stop-color="#F7F7F7"/>
   <stop offset="0.38" stop-color="#ECECEC"/>
   <stop offset="0.52" stop-color="#CFCFCF"/>
   <stop offset="0.71" stop-color="#A0A0A0"/>
   <stop offset="0.94" stop-color="#5F5F5F"/>
   <stop offset="1" stop-color="#4D4D4D"/>
  </linearGradient>
  <linearGradient gradientUnits="objectBoundingBox" id="SVGID_4_" x1="0.984938" x2="0.0397305" y1="1.44782" y2="-0.461717">
   <stop offset="0.29" stop-color="#F7F7F7"/>
   <stop offset="0.38" stop-color="#ECECEC"/>
   <stop offset="0.52" stop-color="#CFCFCF"/>
   <stop offset="0.71" stop-color="#A0A0A0"/>
   <stop offset="0.94" stop-color="#5F5F5F"/>
   <stop offset="1" stop-color="#4D4D4D"/>
  </linearGradient>
  <linearGradient gradientUnits="objectBoundingBox" id="SVGID_5_" x1="0.499998" x2="0.499998" y1="2.24065e-05" y2="1">
   <stop offset="0" stop-color="#C8C8C8"/>
   <stop offset="0.29" stop-color="#B1B1B1"/>
   <stop offset="0.91" stop-color="#757575"/>
   <stop offset="1" stop-color="#6C6C6C"/>
  </linearGradient>
  <linearGradient gradientUnits="objectBoundingBox" id="SVGID_6_" x1="-9.45716e-06" x2="1.00002" y1="0.5" y2="0.5">
   <stop offset="0" stop-color="#383838"/>
   <stop offset="0.45" stop-color="#ECECEC"/>
   <stop offset="0.55" stop-color="#D9D9D9"/>
   <stop offset="0.76" stop-color="#A8A8A8"/>
   <stop offset="0.77" stop-color="#A6A6A6"/>
   <stop offset="1" stop-color="#383838"/>
  </linearGradient>
  <linearGradient gradientUnits="objectBoundingBox" id="SVGID_7_" x1="7.05467e-06" x2="0.999993" y1="0.499944" y2="0.499944">
   <stop offset="0" stop-color="#383838"/>
   <stop offset="0.45" stop-color="#ECECEC"/>
   <stop offset="0.55" stop-color="#D9D9D9"/>
   <stop offset="0.76" stop-color="#A8A8A8"/>
   <stop offset="0.77" stop-color="#A6A6A6"/>
   <stop offset="1" stop-color="#383838"/>
  </linearGradient>
  <linearGradient gradientUnits="objectBoundingBox" id="SVGID_8_" x1="1.89143e-05" x2="1.00004" y1="0.5" y2="0.5">
   <stop offset="0" stop-color="#383838"/>
   <stop offset="0.45" stop-color="#ECECEC"/>
   <stop offset="0.55" stop-color="#D9D9D9"/>
   <stop offset="0.76" stop-color="#A8A8A8"/>
   <stop offset="0.77" stop-color="#A6A6A6"/>
   <stop offset="1" stop-color="#383838"/>
  </linearGradient>
  <linearGradient gradientUnits="objectBoundingBox" id="SVGID_9_" x1="2.82187e-05" x2="1.00001" y1="0.499944" y2="0.499944">
   <stop offset="0" stop-color="#383838"/>
   <stop offset="0.45" stop-color="#ECECEC"/>
   <stop offset="0.55" stop-color="#D9D9D9"/>
   <stop offset="0.76" stop-color="#A8A8A8"/>
   <stop offset="0.77" stop-color="#A6A6A6"/>
   <stop offset="1" stop-color="#383838"/>
  </linearGradient>
  <radialGradient cx="0.499789" cy="0.500127" fx="0.499789" fy="0.500127" gradientUnits="objectBoundingBox" id="radial_1" r="0.500063">
   <stop offset="0" stop-color="#E0E0E0"/>
   <stop offset="0.5" stop-color="#E0E0E0"/>
   <stop offset="1" stop-color="#595959"/>
  </radialGradient>
  <radialGradient cx="0.500042" cy="0.499911" fx="0.500042" fy="0.499911" gradientUnits="objectBoundingBox" id="radial_2" r="0.500043">
   <stop offset="0" stop-color="#E0E0E0"/>
   <stop offset="0.5" stop-color="#E0E0E0"/>
   <stop offset="1" stop-color="#595959"/>
  </radialGradient>
  <radialGradient cx="0.499848" cy="0.499978" fx="0.499848" fy="0.499978" gradientUnits="objectBoundingBox" id="radial_3" r="0.499968">
   <stop offset="0" stop-color="#E0E0E0"/>
   <stop offset="0.5" stop-color="#E0E0E0"/>
   <stop offset="1" stop-color="#595959"/>
  </radialGradient>
  <linearGradient gradientUnits="objectBoundingBox" id="linear_4" x1="0.563112" x2="0.436914" y1="1.13692" y2="-0.13513">
   <stop offset="0" stop-color="#808080"/>
   <stop offset="0.5" stop-color="#B2B2B2"/>
   <stop offset="0.6" stop-color="#D1D1D1"/>
   <stop offset="1" stop-color="#E5E5E5"/>
  </linearGradient>
  <radialGradient cx="0.5" cy="0.5" fx="0.5" fy="0.5" gradientUnits="objectBoundingBox" id="radial_5" r="0.500064">
   <stop offset="0" stop-color="#E0E0E0"/>
   <stop offset="0.5" stop-color="#BFD3F2"/>
   <stop offset="1" stop-color="#BFD3F2"/>
  </radialGradient>
  <radialGradient cx="0.499978" cy="0.5" fx="0.499978" fy="0.5" gradientUnits="objectBoundingBox" id="radial_6" r="0.500022">
   <stop offset="0" stop-color="#E0E0E0"/>
   <stop offset="0.5" stop-color="#BFD3F2"/>
   <stop offset="1" stop-color="#BFD3F2"/>
  </radialGradient>
  <radialGradient cx="0.499935" cy="0.499913" fx="0.499935" fy="0.499913" gradientUnits="objectBoundingBox" id="radial_7" r="0.500022">
   <stop offset="0" stop-color="#E0E0E0"/>
   <stop offset="0.5" stop-color="#BFD3F2"/>
   <stop offset="1" stop-color="#BFD3F2"/>
  </radialGradient>
  <radialGradient cx="0.500042" cy="0.500065" fx="0.500042" fy="0.500065" gradientUnits="objectBoundingBox" id="radial_8" r="0.500075">
   <stop offset="0" stop-color="#E0E0E0"/>
   <stop offset="0.5" stop-color="#BFD3F2"/>
   <stop offset="1" stop-color="#BFD3F2"/>
  </radialGradient>
  <radialGradient cx="0.499848" cy="0.500044" fx="0.499848" fy="0.500044" gradientUnits="objectBoundingBox" id="radial_9" r="0.528715">
   <stop offset="0" stop-color="#E0E0E0"/>
   <stop offset="0.5" stop-color="#BFD3F2"/>
   <stop offset="1" stop-color="#BFD3F2"/>
  </radialGradient>
  <radialGradient cx="0.500022" cy="0.500065" fx="0.500022" fy="0.500065" gradientUnits="objectBoundingBox" id="radial_10" r="0.499968">
   <stop offset="0" stop-color="#E0E0E0"/>
   <stop offset="0.5" stop-color="#E0E0E0"/>
   <stop offset="1" stop-color="#595959"/>
  </radialGradient>
  <radialGradient cx="0.500022" cy="0.500087" fx="0.500022" fy="0.500087" gradientUnits="objectBoundingBox" id="radial_11" r="0.500022">
   <stop offset="0" stop-color="#E0E0E0"/>
   <stop offset="0.5" stop-color="#E0E0E0"/>
   <stop offset="1" stop-color="#595959"/>
  </radialGradient>
  <radialGradient cx="0.5" cy="0.500022" fx="0.5" fy="0.500022" gradientUnits="objectBoundingBox" id="radial_12" r="0.500075">
   <stop offset="0" stop-color="#E0E0E0"/>
   <stop offset="0.5" stop-color="#E0E0E0"/>
   <stop offset="1" stop-color="#595959"/>
  </radialGradient>
  <linearGradient gradientUnits="objectBoundingBox" id="linear_13" x1="-0.000148525" x2="0.99982" y1="0.499965" y2="0.499965">
   <stop offset="0.17" stop-color="#4D4D4D"/>
   <stop offset="0.23" stop-color="#5A5A5A"/>
   <stop offset="0.34" stop-color="#7D7D7D"/>
   <stop offset="0.48" stop-color="#B2B2B2"/>
   <stop offset="0.57" stop-color="#A8A8A8"/>
   <stop offset="0.73" stop-color="#8B8B8B"/>
   <stop offset="0.94" stop-color="#5C5C5C"/>
   <stop offset="1" stop-color="#4D4D4D"/>
  </linearGradient>
  <linearGradient gradientUnits="objectBoundingBox" id="linear_14" x1="0" x2="0.999992" y1="0.499686" y2="0.499686">
   <stop offset="0.17" stop-color="#4D4D4D"/>
   <stop offset="0.23" stop-color="#5A5A5A"/>
   <stop offset="0.34" stop-color="#7D7D7D"/>
   <stop offset="0.48" stop-color="#B2B2B2"/>
   <stop offset="0.57" stop-color="#A8A8A8"/>
   <stop offset="0.73" stop-color="#8B8B8B"/>
   <stop offset="0.94" stop-color="#5C5C5C"/>
   <stop offset="1" stop-color="#4D4D4D"/>
  </linearGradient>
  <linearGradient gradientUnits="objectBoundingBox" id="linear_15" x1="-0.000159151" x2="0.999873" y1="0.499976" y2="0.499976">
   <stop offset="0.17" stop-color="#4D4D4D"/>
   <stop offset="0.23" stop-color="#5A5A5A"/>
   <stop offset="0.34" stop-color="#7D7D7D"/>
   <stop offset="0.48" stop-color="#B2B2B2"/>
   <stop offset="0.57" stop-color="#A8A8A8"/>
   <stop offset="0.73" stop-color="#8B8B8B"/>
   <stop offset="0.94" stop-color="#5C5C5C"/>
   <stop offset="1" stop-color="#4D4D4D"/>
  </linearGradient>
  <linearGradient gradientUnits="objectBoundingBox" id="linear_16" x1="-3.95757e-05" x2="0.999984" y1="0.500503" y2="0.500503">
   <stop offset="0.17" stop-color="#4D4D4D"/>
   <stop offset="0.23" stop-color="#5A5A5A"/>
   <stop offset="0.34" stop-color="#7D7D7D"/>
   <stop offset="0.48" stop-color="#B2B2B2"/>
   <stop offset="0.57" stop-color="#A8A8A8"/>
   <stop offset="0.73" stop-color="#8B8B8B"/>
   <stop offset="0.94" stop-color="#5C5C5C"/>
   <stop offset="1" stop-color="#4D4D4D"/>
  </linearGradient>
  <linearGradient gradientUnits="objectBoundingBox" id="linear_17" x1="2.80483e-06" x2="1" y1="0.5" y2="0.5">
   <stop offset="0" stop-color="#383838"/>
   <stop offset="0.5" stop-color="#ECECEC"/>
   <stop offset="0.57" stop-color="#D9D9D9"/>
   <stop offset="0.71" stop-color="#A8A8A8"/>
   <stop offset="0.92" stop-color="#5A5A5A"/>
   <stop offset="1" stop-color="#383838"/>
  </linearGradient>
  <linearGradient gradientUnits="objectBoundingBox" id="linear_18" x1="-5.34852e-06" x2="0.999996" y1="0.500015" y2="0.500015">
   <stop offset="0.06" stop-color="#808080"/>
   <stop offset="0.13" stop-color="#8D8D8D"/>
   <stop offset="0.28" stop-color="#B0B0B0"/>
   <stop offset="0.48" stop-color="#E8E8E8"/>
   <stop offset="0.48" stop-color="#EBEBEB"/>
   <stop offset="0.57" stop-color="#E0E0E0"/>
   <stop offset="0.72" stop-color="#C3C3C3"/>
   <stop offset="0.92" stop-color="#949494"/>
   <stop offset="1" stop-color="#808080"/>
  </linearGradient>
  <linearGradient gradientUnits="objectBoundingBox" id="linear_19" x1="0.0132289" x2="0.961723" y1="1.43718" y2="-0.523291">
   <stop offset="0.29" stop-color="#F7F7F7"/>
   <stop offset="0.38" stop-color="#ECECEC"/>
   <stop offset="0.52" stop-color="#CFCFCF"/>
   <stop offset="0.71" stop-color="#A0A0A0"/>
   <stop offset="0.94" stop-color="#5F5F5F"/>
   <stop offset="1" stop-color="#4D4D4D"/>
  </linearGradient>
  <linearGradient gradientUnits="objectBoundingBox" id="linear_20" x1="0.984938" x2="0.0397305" y1="1.44782" y2="-0.461717">
   <stop offset="0.29" stop-color="#F7F7F7"/>
   <stop offset="0.38" stop-color="#ECECEC"/>
   <stop offset="0.52" stop-color="#CFCFCF"/>
   <stop offset="0.71" stop-color="#A0A0A0"/>
   <stop offset="0.94" stop-color="#5F5F5F"/>
   <stop offset="1" stop-color="#4D4D4D"/>
  </linearGradient>
  <linearGradient gradientUnits="objectBoundingBox" id="linear_21" x1="0.499998" x2="0.499998" y1="2.24065e-05" y2="1">
   <stop offset="0" stop-color="#C8C8C8"/>
   <stop offset="0.29" stop-color="#B1B1B1"/>
   <stop offset="0.91" stop-color="#757575"/>
   <stop offset="1" stop-color="#6C6C6C"/>
  </linearGradient>
  <linearGradient gradientUnits="objectBoundingBox" id="linear_22" x1="-9.45716e-06" x2="1.00002" y1="0.5" y2="0.5">
   <stop offset="0" stop-color="#383838"/>
   <stop offset="0.45" stop-color="#ECECEC"/>
   <stop offset="0.55" stop-color="#D9D9D9"/>
   <stop offset="0.76" stop-color="#A8A8A8"/>
   <stop offset="0.77" stop-color="#A6A6A6"/>
   <stop offset="1" stop-color="#383838"/>
  </linearGradient>
  <linearGradient gradientUnits="objectBoundingBox" id="linear_23" x1="7.05467e-06" x2="0.999993" y1="0.499944" y2="0.499944">
   <stop offset="0" stop-color="#383838"/>
   <stop offset="0.45" stop-color="#ECECEC"/>
   <stop offset="0.55" stop-color="#D9D9D9"/>
   <stop offset="0.76" stop-color="#A8A8A8"/>
   <stop offset="0.77" stop-color="#A6A6A6"/>
   <stop offset="1" stop-color="#383838"/>
  </linearGradient>
  <linearGradient gradientUnits="objectBoundingBox" id="linear_24" x1="1.89143e-05" x2="1.00004" y1="0.5" y2="0.5">
   <stop offset="0" stop-color="#383838"/>
   <stop offset="0.45" stop-color="#ECECEC"/>
   <stop offset="0.55" stop-color="#D9D9D9"/>
   <stop offset="0.76" stop-color="#A8A8A8"/>
   <stop offset="0.77" stop-color="#A6A6A6"/>
   <stop offset="1" stop-color="#383838"/>
  </linearGradient>
  <linearGradient gradientUnits="objectBoundingBox" id="linear_25" x1="2.82187e-05" x2="1.00001" y1="0.499944" y2="0.499944">
   <stop offset="0" stop-color="#383838"/>
   <stop offset="0.45" stop-color="#ECECEC"/>
   <stop offset="0.55" stop-color="#D9D9D9"/>
   <stop offset="0.76" stop-color="#A8A8A8"/>
   <stop offset="0.77" stop-color="#A6A6A6"/>
   <stop offset="1" stop-color="#383838"/>
  </linearGradient>
 </defs>
 <metadata>
  <atv:parameter behavior="optional" defaultvalue="SYSTEM.GLOBALS.atvise_Advanced_Objects_Maintenance_List.General_Manufacturing.Maintenance_Conveyor" desc="Global_Maintenance" group="Maintenance" name="Global_Maintenance" valuetype="global"/>
  <atv:parameter behavior="optional" defaultvalue="SYSTEM.GLOBALS.atvise_Advanced_Objects_Maintenance_List.General_Manufacturing.Maintenance_Conveyor" desc="Global Maintenance Address" group="Maintenance" name="Global_Maintenance_Address" valuetype="string"/>
  <atv:parameter behavior="optional" defaultvalue="true" desc="Maintenance_Active" group="Maintenance" name="Maintenance" valuetype="bool"/>
  <atv:parameter behavior="optional" defaultvalue="true" desc="Icon Indicator Active" group="Alarming" name="Icon_Indicator" valuetype="bool"/>
  <atv:parameter behavior="optional" defaultvalue="" desc="Alert_Range" group="Alarming" name="Alert_Range" valuetype="number"/>
  <atv:parameter behavior="optional" defaultvalue="" desc="Notification List" group="Alarming" name="Notification_List" valuetype="global"/>
  <atv:parameter behavior="optional" defaultvalue="false" desc="Email Notification Active" group="Alarming" name="Email_Notification" valuetype="bool"/>
  <atv:parameter behavior="optional" defaultvalue="false" desc="Alertzy_Notification" group="Alarming" name="Alertzy_Notification" valuetype="bool"/>
  <atv:parameter behavior="optional" defaultvalue="SYSTEM.GLOBALS.Color_Global_1" desc="Color" group="Appereance" name="Color" substitute="$Color$" valuetype="global"/>
  <atv:parameter behavior="optional" defaultvalue="14" desc="Title Font Size" group="Appereance" name="Title_Font_Size" substitute="$FontSize$" valuetype="number"/>
  <atv:gridconfig enabled="true" gridstyle="lines" height="20" width="20"/>
  <atv:snapconfig enabled="true" height="5" width="5"/>
 </metadata>
 <text atv:refpx="265.738" atv:refpy="11.5" fill="$Color$" font-family="Arial" font-size="$FontSize$" font-weight="bold" id="Title" text-anchor="middle" x="263.5" y="17">Name</text>
 <script atv:desc="" atv:href="SYSTEM.LIBRARY.PROJECT.DISPLAYSCRIPTS.atvise_Advanced_Objects_Display_Scripts.AAA_Principal_Display_Script" atv:name="" atv:type="text/ecmascript"/>
 <script atv:desc="" atv:name="" type="text/ecmascript"/>
 <g atv:refpx="250.608" atv:refpy="141.952" id="Image_1" transform="matrix(0.3412,0,0,0.3512,80,120.3512)">
  <path atv:refpx="416" atv:refpy="103.5" d="M811,124L827,119L832,103L827,88L811,83L20,83L5,88L0,103L5,119L20,124Z" fill="#4c4c4c" id="id_0" stroke="#4c4c4c" stroke-width="2"/>
  <path atv:refpx="20.5" atv:refpy="103.5" d="M5,118L0,104L5,89L21,83L35,89L41,104L35,118L21,124Z" fill="#f2f2f2" id="id_1" stroke="#4c4c4c" stroke-width="2"/>
  <path atv:refpx="62" atv:refpy="103.5" d="M47,118L41,104L47,89L62,83L77,89L83,104L77,118L62,124Z" fill="#f2f2f2" id="id_2" stroke="#4c4c4c" stroke-width="2"/>
  <path atv:refpx="103.5" atv:refpy="103.5" d="M89,118L83,104L89,89L104,83L118,89L124,104L118,118L104,124Z" fill="#f2f2f2" id="id_3" stroke="#4c4c4c" stroke-width="2"/>
  <path atv:refpx="145" atv:refpy="103.5" d="M130,118L124,104L130,89L145,83L160,89L166,104L160,118L145,124Z" fill="#f2f2f2" id="id_4" stroke="#4c4c4c" stroke-width="2"/>
  <path atv:refpx="187" atv:refpy="103.5" d="M172,118L166,104L172,89L187,83L202,89L208,104L202,118L187,124Z" fill="#f2f2f2" id="id_5" stroke="#4c4c4c" stroke-width="2"/>
  <path atv:refpx="228.5" atv:refpy="103.5" d="M214,118L208,104L214,89L229,83L243,89L249,104L243,118L229,124Z" fill="#f2f2f2" id="id_7" stroke="#4c4c4c" stroke-width="2"/>
  <path atv:refpx="270" atv:refpy="103.5" d="M255,118L249,104L255,89L270,83L285,89L291,104L285,118L270,124Z" fill="#f2f2f2" id="id_8" stroke="#4c4c4c" stroke-width="2"/>
  <path atv:refpx="312" atv:refpy="103.5" d="M297,118L291,104L297,89L312,83L327,89L333,104L327,118L312,124Z" fill="#f2f2f2" id="id_9" stroke="#4c4c4c" stroke-width="2"/>
  <path atv:refpx="353.5" atv:refpy="103.5" d="M338,118L333,104L338,89L353,83L368,89L374,104L368,118L353,124Z" fill="#f2f2f2" id="id_10" stroke="#4c4c4c" stroke-width="2"/>
  <path atv:refpx="395" atv:refpy="103.5" d="M380,118L374,104L380,89L395,83L410,89L416,104L410,118L395,124Z" fill="#f2f2f2" id="id_11" stroke="#4c4c4c" stroke-width="2"/>
  <path atv:refpx="436.5" atv:refpy="103.5" d="M422,118L416,104L422,89L437,83L451,89L457,104L451,118L437,124Z" fill="#f2f2f2" id="id_12" stroke="#4c4c4c" stroke-width="2"/>
  <path atv:refpx="478" atv:refpy="103.5" d="M463,118L457,104L463,89L478,83L493,89L499,104L493,118L478,124Z" fill="#f2f2f2" id="id_13" stroke="#4c4c4c" stroke-width="2"/>
  <path atv:refpx="520" atv:refpy="103.5" d="M505,118L499,104L505,89L520,83L535,89L541,104L535,118L520,124Z" fill="#f2f2f2" id="id_14" stroke="#4c4c4c" stroke-width="2"/>
  <path atv:refpx="561.5" atv:refpy="103.5" d="M547,118L541,104L547,89L562,83L576,89L582,104L576,118L562,124Z" fill="#f2f2f2" id="id_15" stroke="#4c4c4c" stroke-width="2"/>
  <path atv:refpx="603" atv:refpy="103.5" d="M588,118L582,104L588,89L603,83L618,89L624,104L618,118L603,124Z" fill="#f2f2f2" id="id_17" stroke="#4c4c4c" stroke-width="2"/>
  <path atv:refpx="645" atv:refpy="103.5" d="M630,118L624,104L630,89L645,83L660,89L666,104L660,118L645,124Z" fill="#f2f2f2" id="id_18" stroke="#4c4c4c" stroke-width="2"/>
  <path atv:refpx="686.5" atv:refpy="103.5" d="M671,118L666,104L671,89L686,83L701,89L707,104L701,118L686,124Z" fill="#f2f2f2" id="id_19" stroke="#4c4c4c" stroke-width="2"/>
  <path atv:refpx="728" atv:refpy="103.5" d="M713,118L707,104L713,89L728,83L743,89L749,104L743,118L728,124Z" fill="#f2f2f2" id="id_20" stroke="#4c4c4c" stroke-width="2"/>
  <path atv:refpx="769.5" atv:refpy="103.5" d="M755,118L749,104L755,89L770,83L784,89L790,104L784,118L770,124Z" fill="#f2f2f2" id="id_21" stroke="#4c4c4c" stroke-width="2"/>
  <path atv:refpx="811" atv:refpy="103.5" d="M796,118L790,104L796,89L811,83L826,89L832,103L826,118L811,124Z" fill="#f2f2f2" id="id_22" stroke="#4c4c4c" stroke-width="2"/>
  <path atv:refpx="20.5" atv:refpy="103.5" d="M13,111L10,104L13,96L20,93L28,96L31,104L28,111L20,114Z" fill="#4c4c4c" id="id_23"/>
  <path atv:refpx="61.5" atv:refpy="103.5" d="M54,111L51,104L54,96L62,93L69,96L72,104L69,111L62,114Z" fill="#4c4c4c" id="id_24"/>
  <path atv:refpx="103.5" atv:refpy="103.5" d="M96,111L93,104L96,96L104,93L111,96L114,104L111,111L104,114Z" fill="#4c4c4c" id="id_25"/>
  <path atv:refpx="145.5" atv:refpy="103.5" d="M138,111L135,104L138,96L145,93L153,96L156,104L153,111L145,114Z" fill="#4c4c4c" id="id_26"/>
  <path atv:refpx="186.5" atv:refpy="103.5" d="M179,111L176,104L179,96L187,93L194,96L197,104L194,111L187,114Z" fill="#4c4c4c" id="id_27"/>
  <path atv:refpx="228.5" atv:refpy="103.5" d="M221,111L218,104L221,96L229,93L236,96L239,104L236,111L229,114Z" fill="#4c4c4c" id="id_28"/>
  <path atv:refpx="270.5" atv:refpy="103.5" d="M263,111L260,104L263,96L270,93L278,96L281,104L278,111L270,114Z" fill="#4c4c4c" id="id_29"/>
  <path atv:refpx="311.5" atv:refpy="103.5" d="M304,111L301,104L304,96L312,93L319,96L322,104L319,111L312,114Z" fill="#4c4c4c" id="id_30"/>
  <path atv:refpx="353.5" atv:refpy="103.5" d="M346,111L343,104L346,96L353,93L361,96L364,104L361,111L353,114Z" fill="#4c4c4c" id="id_31"/>
  <path atv:refpx="394.5" atv:refpy="103.5" d="M387,111L384,104L387,96L395,93L402,96L405,104L402,111L395,114Z" fill="#4c4c4c" id="id_32"/>
  <path atv:refpx="436.5" atv:refpy="103.5" d="M429,111L426,104L429,96L437,93L444,96L447,104L444,111L437,114Z" fill="#4c4c4c" id="id_33"/>
  <path atv:refpx="478.5" atv:refpy="103.5" d="M471,111L468,104L471,96L478,93L486,96L489,104L486,111L478,114Z" fill="#4c4c4c" id="id_34"/>
  <path atv:refpx="519.5" atv:refpy="103.5" d="M512,111L509,104L512,96L520,93L527,96L530,104L527,111L520,114Z" fill="#4c4c4c" id="id_35"/>
  <path atv:refpx="561.5" atv:refpy="103.5" d="M554,111L551,104L554,96L562,93L569,96L572,104L569,111L562,114Z" fill="#4c4c4c" id="id_36"/>
  <path atv:refpx="603.5" atv:refpy="103.5" d="M596,111L593,104L596,96L603,93L611,96L614,104L611,111L603,114Z" fill="#4c4c4c" id="id_37"/>
  <path atv:refpx="644.5" atv:refpy="103.5" d="M637,111L634,104L637,96L645,93L652,96L655,104L652,111L645,114Z" fill="#4c4c4c" id="id_38"/>
  <path atv:refpx="686.5" atv:refpy="103.5" d="M679,111L676,104L679,96L686,93L694,96L697,104L694,111L686,114Z" fill="#4c4c4c" id="id_39"/>
  <path atv:refpx="727.5" atv:refpy="103.5" d="M720,111L717,104L720,96L728,93L735,96L738,104L735,111L728,114Z" fill="#4c4c4c" id="id_40"/>
  <path atv:refpx="769.5" atv:refpy="103.5" d="M762,111L759,104L762,96L770,93L777,96L780,104L777,111L770,114Z" fill="#4c4c4c" id="id_41"/>
  <path atv:refpx="811.5" atv:refpy="103.5" d="M804,111L801,104L804,96L811,93L819,96L822,104L819,111L811,114Z" fill="#4c4c4c" id="id_42"/>
  <path atv:refpx="506.5" atv:refpy="44" d="M20,83L187,0L978,0L993,5L827,88L811,83Z" fill="#b2b2b2" id="id_43"/>
  <path atv:refpx="913" atv:refpy="69.5" d="M832,103L827,119L993,36L999,20Z" fill="#666" id="id_44"/>
  <path atv:refpx="913" atv:refpy="54" d="M832,103L827,88L993,5L999,20Z" fill="#8c8c8c" id="id_45"/>
  <path atv:refpx="96" atv:refpy="44" d="M20,83L5,88L171,5L187,0Z" fill="#999" id="id_46"/>
  <path atv:refpx="691.5" atv:refpy="41.5" d="M567,83L733,0L816,0L650,83Z" fill="#a6a6a6" id="id_47" stroke="#7f7f7f" stroke-width="2"/>
  <path atv:refpx="322" atv:refpy="41.5" d="M197,83L364,0L447,0L281,83Z" fill="#a6a6a6" id="id_48" stroke="#7f7f7f" stroke-width="2"/>
  <path atv:refpx="502" atv:refpy="59.5" d="M827,119L832,103L827,88L811,83L20,83L5,88L171,5L187,0L978,0L993,5L999,20L993,36Z" fill="none" id="id_49" stroke="#4c4c4c" stroke-width="2"/>
 </g>
 <svg atv:refpx="39" atv:refpy="61.36" height="122.72" id="id_6" width="78" x="0" xlink:href="SYSTEM.LIBRARY.PROJECT.OBJECTDISPLAYS.atvise_Advanced_Objects_Complementary_Elements.Alarm_Alert_Advanced_Indicator" y="0">
  <atv:argument name="base" prefix="base"/>
 </svg>
 <svg atv:refpx="48.06" atv:refpy="168.06" height="36.12" id="id_16" width="36.12" x="30" xlink:href="SYSTEM.LIBRARY.PROJECT.OBJECTDISPLAYS.atvise_Advanced_Objects_Complementary_Elements.Maintenance_Advanced_Indicator" y="150">
  <atv:argument name="base" prefix="base"/>
 </svg>
 <svg atv:refpx="280" atv:refpy="72.5" height="310" id="id_50" transform="matrix(0.6364,0,0,0.3065,0,0)" width="440" x="220" xlink:href="SYSTEM.LIBRARY.PROJECT.OBJECTDISPLAYS.atvise_Advanced_Objects_Complementary_Elements.Trend_Complementary_Element" y="81.579">
  <atv:argument name="Input" prefix="base" value=".Variables.Material_Flow"/>
  <atv:argument name="Alert_Range" prefix="base" value=".Parameters.Alert_Range"/>
  <atv:argument name="Object_Conditions" prefix="base" value=".Parameters.Object_Conditions"/>
  <atv:argument name="Color_Linea" value="SYSTEM.GLOBALS.atvFillColor2"/>
  <atv:argument name="Color_Banda" value="SYSTEM.GLOBALS.atvFillColor"/>
  <atv:argument name="Display_PopUp" value="SYSTEM.LIBRARY.PROJECT.OBJECTDISPLAYS.atvise_Advanced_Objects_Displays.General_Configuration_Object_Display"/>
 </svg>
 <rect atv:refpx="250" atv:refpy="82.5" fill="#000000" fill-opacity="0" height="165" id="click_area" stroke="#0000ff" stroke-width="0" width="340" x="80" y="0"/>
</svg>
