<?xml version='1.0' encoding='UTF-8' standalone='no'?>
<svg height="285" version="1.2" width="510" xmlns="http://www.w3.org/2000/svg" xmlns:atv="http://webmi.atvise.com/2007/svgext" xmlns:xlink="http://www.w3.org/1999/xlink">
 <defs>
  <linearGradient gradientUnits="objectBoundingBox" id="id_33_fill_gradient" spreadMethod="reflect" x1="0.0675676" x2="0.581081" y1="1" y2="1">
   <stop offset="0" stop-color="#999999"/>
   <stop offset="1" stop-color="#e5e5e5"/>
  </linearGradient>
  <linearGradient gradientUnits="objectBoundingBox" id="id_34_fill_gradient" spreadMethod="reflect" x1="-0.135135" x2="0.405405" y1="0.986486" y2="0.972973">
   <stop offset="0" stop-color="#999999"/>
   <stop offset="1" stop-color="#e5e5e5"/>
  </linearGradient>
  <linearGradient gradientUnits="objectBoundingBox" id="id_41_fill_gradient" spreadMethod="reflect" x1="-0.135135" x2="0.405405" y1="1" y2="0.972973">
   <stop offset="0" stop-color="#999999"/>
   <stop offset="1" stop-color="#e5e5e5"/>
  </linearGradient>
  <linearGradient gradientUnits="objectBoundingBox" id="id_42_fill_gradient" spreadMethod="reflect" x1="-0.135135" x2="0.405405" y1="0.986486" y2="0.972973">
   <stop offset="0" stop-color="#999999"/>
   <stop offset="1" stop-color="#e5e5e5"/>
  </linearGradient>
  <radialGradient cx="0.5" cy="0.5" fx="0.5" fy="0.5" gradientUnits="objectBoundingBox" id="id_42_stroke_gradient" r="1">
   <stop offset="0" stop-color="#000000"/>
   <stop offset="1" stop-color="#ffffff"/>
  </radialGradient>
  <linearGradient gradientUnits="objectBoundingBox" id="id_43_fill_gradient" spreadMethod="reflect" x1="-0.135135" x2="0.405405" y1="1" y2="0.972973">
   <stop offset="0" stop-color="#999999"/>
   <stop offset="1" stop-color="#e5e5e5"/>
  </linearGradient>
  <radialGradient cx="0.5" cy="0.5" fx="0.5" fy="0.5" gradientUnits="objectBoundingBox" id="id_44_fill_gradient" r="0.514579">
   <stop offset="0.6088709677419355" stop-color="#e4e4e4"/>
   <stop offset="1" stop-color="#9a9a9a"/>
  </radialGradient>
  <radialGradient cx="0.5" cy="0.5" fx="0.5" fy="0.5" gradientUnits="objectBoundingBox" id="id_7_fill_gradient" r="0.514579">
   <stop offset="0.6088709677419355" stop-color="#e4e4e4"/>
   <stop offset="1" stop-color="#9a9a9a"/>
  </radialGradient>
  <linearGradient gradientUnits="objectBoundingBox" id="linear_0" x1="0" x2="1" y1="0" y2="1">
   <stop offset="0" stop-color="#000000"/>
   <stop offset="1" stop-color="#000000" stop-opacity="0"/>
  </linearGradient>
  <linearGradient gradientUnits="objectBoundingBox" id="SVGID_10_" x1="-0.000148525" x2="0.99982" y1="0.499965" y2="0.499965">
   <stop offset="0.17" stop-color="#4D4D4D"/>
   <stop offset="0.23" stop-color="#5A5A5A"/>
   <stop offset="0.34" stop-color="#7D7D7D"/>
   <stop offset="0.48" stop-color="#B2B2B2"/>
   <stop offset="0.57" stop-color="#A8A8A8"/>
   <stop offset="0.73" stop-color="#8B8B8B"/>
   <stop offset="0.94" stop-color="#5C5C5C"/>
   <stop offset="1" stop-color="#4D4D4D"/>
  </linearGradient>
  <linearGradient gradientUnits="objectBoundingBox" id="SVGID_11_" x1="0" x2="0.999992" y1="0.499686" y2="0.499686">
   <stop offset="0.17" stop-color="#4D4D4D"/>
   <stop offset="0.23" stop-color="#5A5A5A"/>
   <stop offset="0.34" stop-color="#7D7D7D"/>
   <stop offset="0.48" stop-color="#B2B2B2"/>
   <stop offset="0.57" stop-color="#A8A8A8"/>
   <stop offset="0.73" stop-color="#8B8B8B"/>
   <stop offset="0.94" stop-color="#5C5C5C"/>
   <stop offset="1" stop-color="#4D4D4D"/>
  </linearGradient>
  <linearGradient gradientUnits="objectBoundingBox" id="SVGID_12_" x1="-0.000159151" x2="0.999873" y1="0.499976" y2="0.499976">
   <stop offset="0.17" stop-color="#4D4D4D"/>
   <stop offset="0.23" stop-color="#5A5A5A"/>
   <stop offset="0.34" stop-color="#7D7D7D"/>
   <stop offset="0.48" stop-color="#B2B2B2"/>
   <stop offset="0.57" stop-color="#A8A8A8"/>
   <stop offset="0.73" stop-color="#8B8B8B"/>
   <stop offset="0.94" stop-color="#5C5C5C"/>
   <stop offset="1" stop-color="#4D4D4D"/>
  </linearGradient>
  <linearGradient gradientUnits="objectBoundingBox" id="SVGID_13_" x1="-3.95757e-05" x2="0.999984" y1="0.500503" y2="0.500503">
   <stop offset="0.17" stop-color="#4D4D4D"/>
   <stop offset="0.23" stop-color="#5A5A5A"/>
   <stop offset="0.34" stop-color="#7D7D7D"/>
   <stop offset="0.48" stop-color="#B2B2B2"/>
   <stop offset="0.57" stop-color="#A8A8A8"/>
   <stop offset="0.73" stop-color="#8B8B8B"/>
   <stop offset="0.94" stop-color="#5C5C5C"/>
   <stop offset="1" stop-color="#4D4D4D"/>
  </linearGradient>
  <linearGradient gradientUnits="objectBoundingBox" id="SVGID_1_" x1="2.80483e-06" x2="1" y1="0.5" y2="0.5">
   <stop offset="0" stop-color="#383838"/>
   <stop offset="0.5" stop-color="#ECECEC"/>
   <stop offset="0.57" stop-color="#D9D9D9"/>
   <stop offset="0.71" stop-color="#A8A8A8"/>
   <stop offset="0.92" stop-color="#5A5A5A"/>
   <stop offset="1" stop-color="#383838"/>
  </linearGradient>
  <linearGradient gradientUnits="objectBoundingBox" id="SVGID_2_" x1="-5.34852e-06" x2="0.999996" y1="0.500015" y2="0.500015">
   <stop offset="0.06" stop-color="#808080"/>
   <stop offset="0.13" stop-color="#8D8D8D"/>
   <stop offset="0.28" stop-color="#B0B0B0"/>
   <stop offset="0.48" stop-color="#E8E8E8"/>
   <stop offset="0.48" stop-color="#EBEBEB"/>
   <stop offset="0.57" stop-color="#E0E0E0"/>
   <stop offset="0.72" stop-color="#C3C3C3"/>
   <stop offset="0.92" stop-color="#949494"/>
   <stop offset="1" stop-color="#808080"/>
  </linearGradient>
  <linearGradient gradientUnits="objectBoundingBox" id="SVGID_3_" x1="0.0132289" x2="0.961723" y1="1.43718" y2="-0.523291">
   <stop offset="0.29" stop-color="#F7F7F7"/>
   <stop offset="0.38" stop-color="#ECECEC"/>
   <stop offset="0.52" stop-color="#CFCFCF"/>
   <stop offset="0.71" stop-color="#A0A0A0"/>
   <stop offset="0.94" stop-color="#5F5F5F"/>
   <stop offset="1" stop-color="#4D4D4D"/>
  </linearGradient>
  <linearGradient gradientUnits="objectBoundingBox" id="SVGID_4_" x1="0.984938" x2="0.0397305" y1="1.44782" y2="-0.461717">
   <stop offset="0.29" stop-color="#F7F7F7"/>
   <stop offset="0.38" stop-color="#ECECEC"/>
   <stop offset="0.52" stop-color="#CFCFCF"/>
   <stop offset="0.71" stop-color="#A0A0A0"/>
   <stop offset="0.94" stop-color="#5F5F5F"/>
   <stop offset="1" stop-color="#4D4D4D"/>
  </linearGradient>
  <linearGradient gradientUnits="objectBoundingBox" id="SVGID_5_" x1="0.499998" x2="0.499998" y1="2.24065e-05" y2="1">
   <stop offset="0" stop-color="#C8C8C8"/>
   <stop offset="0.29" stop-color="#B1B1B1"/>
   <stop offset="0.91" stop-color="#757575"/>
   <stop offset="1" stop-color="#6C6C6C"/>
  </linearGradient>
  <linearGradient gradientUnits="objectBoundingBox" id="SVGID_6_" x1="-9.45716e-06" x2="1.00002" y1="0.5" y2="0.5">
   <stop offset="0" stop-color="#383838"/>
   <stop offset="0.45" stop-color="#ECECEC"/>
   <stop offset="0.55" stop-color="#D9D9D9"/>
   <stop offset="0.76" stop-color="#A8A8A8"/>
   <stop offset="0.77" stop-color="#A6A6A6"/>
   <stop offset="1" stop-color="#383838"/>
  </linearGradient>
  <linearGradient gradientUnits="objectBoundingBox" id="SVGID_7_" x1="7.05467e-06" x2="0.999993" y1="0.499944" y2="0.499944">
   <stop offset="0" stop-color="#383838"/>
   <stop offset="0.45" stop-color="#ECECEC"/>
   <stop offset="0.55" stop-color="#D9D9D9"/>
   <stop offset="0.76" stop-color="#A8A8A8"/>
   <stop offset="0.77" stop-color="#A6A6A6"/>
   <stop offset="1" stop-color="#383838"/>
  </linearGradient>
  <linearGradient gradientUnits="objectBoundingBox" id="SVGID_8_" x1="1.89143e-05" x2="1.00004" y1="0.5" y2="0.5">
   <stop offset="0" stop-color="#383838"/>
   <stop offset="0.45" stop-color="#ECECEC"/>
   <stop offset="0.55" stop-color="#D9D9D9"/>
   <stop offset="0.76" stop-color="#A8A8A8"/>
   <stop offset="0.77" stop-color="#A6A6A6"/>
   <stop offset="1" stop-color="#383838"/>
  </linearGradient>
  <linearGradient gradientUnits="objectBoundingBox" id="SVGID_9_" x1="2.82187e-05" x2="1.00001" y1="0.499944" y2="0.499944">
   <stop offset="0" stop-color="#383838"/>
   <stop offset="0.45" stop-color="#ECECEC"/>
   <stop offset="0.55" stop-color="#D9D9D9"/>
   <stop offset="0.76" stop-color="#A8A8A8"/>
   <stop offset="0.77" stop-color="#A6A6A6"/>
   <stop offset="1" stop-color="#383838"/>
  </linearGradient>
  <radialGradient cx="0.499789" cy="0.500127" fx="0.499789" fy="0.500127" gradientUnits="objectBoundingBox" id="radial_1" r="0.500063">
   <stop offset="0" stop-color="#E0E0E0"/>
   <stop offset="0.5" stop-color="#E0E0E0"/>
   <stop offset="1" stop-color="#595959"/>
  </radialGradient>
  <radialGradient cx="0.500042" cy="0.499911" fx="0.500042" fy="0.499911" gradientUnits="objectBoundingBox" id="radial_2" r="0.500043">
   <stop offset="0" stop-color="#E0E0E0"/>
   <stop offset="0.5" stop-color="#E0E0E0"/>
   <stop offset="1" stop-color="#595959"/>
  </radialGradient>
  <radialGradient cx="0.499848" cy="0.499978" fx="0.499848" fy="0.499978" gradientUnits="objectBoundingBox" id="radial_3" r="0.499968">
   <stop offset="0" stop-color="#E0E0E0"/>
   <stop offset="0.5" stop-color="#E0E0E0"/>
   <stop offset="1" stop-color="#595959"/>
  </radialGradient>
  <linearGradient gradientUnits="objectBoundingBox" id="linear_4" x1="0.563112" x2="0.436914" y1="1.13692" y2="-0.13513">
   <stop offset="0" stop-color="#808080"/>
   <stop offset="0.5" stop-color="#B2B2B2"/>
   <stop offset="0.6" stop-color="#D1D1D1"/>
   <stop offset="1" stop-color="#E5E5E5"/>
  </linearGradient>
  <radialGradient cx="0.5" cy="0.5" fx="0.5" fy="0.5" gradientUnits="objectBoundingBox" id="radial_5" r="0.500064">
   <stop offset="0" stop-color="#E0E0E0"/>
   <stop offset="0.5" stop-color="#BFD3F2"/>
   <stop offset="1" stop-color="#BFD3F2"/>
  </radialGradient>
  <radialGradient cx="0.499978" cy="0.5" fx="0.499978" fy="0.5" gradientUnits="objectBoundingBox" id="radial_6" r="0.500022">
   <stop offset="0" stop-color="#E0E0E0"/>
   <stop offset="0.5" stop-color="#BFD3F2"/>
   <stop offset="1" stop-color="#BFD3F2"/>
  </radialGradient>
  <radialGradient cx="0.499935" cy="0.499913" fx="0.499935" fy="0.499913" gradientUnits="objectBoundingBox" id="radial_7" r="0.500022">
   <stop offset="0" stop-color="#E0E0E0"/>
   <stop offset="0.5" stop-color="#BFD3F2"/>
   <stop offset="1" stop-color="#BFD3F2"/>
  </radialGradient>
  <radialGradient cx="0.500042" cy="0.500065" fx="0.500042" fy="0.500065" gradientUnits="objectBoundingBox" id="radial_8" r="0.500075">
   <stop offset="0" stop-color="#E0E0E0"/>
   <stop offset="0.5" stop-color="#BFD3F2"/>
   <stop offset="1" stop-color="#BFD3F2"/>
  </radialGradient>
  <radialGradient cx="0.499848" cy="0.500044" fx="0.499848" fy="0.500044" gradientUnits="objectBoundingBox" id="radial_9" r="0.528715">
   <stop offset="0" stop-color="#E0E0E0"/>
   <stop offset="0.5" stop-color="#BFD3F2"/>
   <stop offset="1" stop-color="#BFD3F2"/>
  </radialGradient>
  <radialGradient cx="0.500022" cy="0.500065" fx="0.500022" fy="0.500065" gradientUnits="objectBoundingBox" id="radial_10" r="0.499968">
   <stop offset="0" stop-color="#E0E0E0"/>
   <stop offset="0.5" stop-color="#E0E0E0"/>
   <stop offset="1" stop-color="#595959"/>
  </radialGradient>
  <radialGradient cx="0.500022" cy="0.500087" fx="0.500022" fy="0.500087" gradientUnits="objectBoundingBox" id="radial_11" r="0.500022">
   <stop offset="0" stop-color="#E0E0E0"/>
   <stop offset="0.5" stop-color="#E0E0E0"/>
   <stop offset="1" stop-color="#595959"/>
  </radialGradient>
  <radialGradient cx="0.5" cy="0.500022" fx="0.5" fy="0.500022" gradientUnits="objectBoundingBox" id="radial_12" r="0.500075">
   <stop offset="0" stop-color="#E0E0E0"/>
   <stop offset="0.5" stop-color="#E0E0E0"/>
   <stop offset="1" stop-color="#595959"/>
  </radialGradient>
 </defs>
 <metadata>
  <atv:parameter behavior="optional" defaultvalue="SYSTEM.GLOBALS.atvise_Advanced_Objects_Maintenance_List.Mining_Industry.Maintenance_Sizer" desc="Global_Maintenance" group="Maintenance" name="Global_Maintenance" valuetype="global"/>
  <atv:parameter behavior="optional" defaultvalue="SYSTEM.GLOBALS.atvise_Advanced_Objects_Maintenance_List.Mining_Industry.Maintenance_Sizer" desc="Global Maintenance Address" group="Maintenance" name="Global_Maintenance_Address" valuetype="string"/>
  <atv:parameter behavior="optional" defaultvalue="true" desc="Maintenance_Active" group="Maintenance" name="Maintenance" valuetype="bool"/>
  <atv:parameter behavior="optional" defaultvalue="true" desc="Icon Indicator Active" group="Alarming" name="Icon_Indicator" valuetype="bool"/>
  <atv:parameter behavior="optional" defaultvalue="" desc="Alert_Range" group="Alarming" name="Alert_Range" valuetype="number"/>
  <atv:parameter behavior="optional" defaultvalue="" desc="Notification List" group="Alarming" name="Notification_List" valuetype="global"/>
  <atv:parameter behavior="optional" defaultvalue="false" desc="Email Notification Active" group="Alarming" name="Email_Notification" valuetype="bool"/>
  <atv:parameter behavior="optional" defaultvalue="false" desc="Alertzy_Notification" group="Alarming" name="Alertzy_Notification" valuetype="bool"/>
  <atv:parameter behavior="optional" defaultvalue="SYSTEM.GLOBALS.Color_Global_1" desc="Color" group="Appereance" name="Color" substitute="$Color$" valuetype="global"/>
  <atv:parameter behavior="optional" defaultvalue="14" desc="Title Font Size" group="Appereance" name="Title_Font_Size" substitute="$FontSize$" valuetype="number"/>
  <atv:gridconfig enabled="true" gridstyle="lines" height="20" width="20"/>
  <atv:snapconfig enabled="true" height="5" width="5"/>
 </metadata>
 <script atv:desc="" atv:href="SYSTEM.LIBRARY.PROJECT.DISPLAYSCRIPTS.atvise_Advanced_Objects_Display_Scripts.AAA_Principal_Display_Script" atv:name="" atv:type="text/ecmascript"/>
 <script atv:desc="" atv:name="" type="text/ecmascript"/>
 <svg atv:refpx="39" atv:refpy="61.36" height="122.72" id="id_6" width="78" x="0" xlink:href="SYSTEM.LIBRARY.PROJECT.OBJECTDISPLAYS.atvise_Advanced_Objects_Complementary_Elements.Alarm_Alert_Advanced_Indicator" y="0">
  <atv:argument name="base" prefix="base"/>
 </svg>
 <svg atv:refpx="48.06" atv:refpy="258.06" height="36.12" id="id_16" width="36.12" x="30" xlink:href="SYSTEM.LIBRARY.PROJECT.OBJECTDISPLAYS.atvise_Advanced_Objects_Complementary_Elements.Maintenance_Advanced_Indicator" y="240">
  <atv:argument name="base" prefix="base"/>
 </svg>
 <path atv:refpx="188.441" atv:refpy="32.167" d="M179.338,53.295L179.338,29.02L180.184,24.525L181.878,19.13L183.571,15.534L184.842,12.837L187.382,11.039L189.922,11.039L192.039,12.837L193.733,15.534L195.426,19.13L196.696,24.525L197.543,29.02L197.543,53.295Z" fill="#6699FF" id="id_0" stroke="#4C4C4C" stroke-width="2"/>
 <path atv:refpx="299.792" atv:refpy="32.167" d="M308.471,53.295L308.471,29.02L307.625,24.525L306.778,19.13L305.084,15.534L302.967,12.837L300.427,11.039L298.733,11.039L296.616,12.837L294.076,15.534L292.383,19.13L291.536,24.525L291.112,29.02L291.112,53.295Z" fill="#6699FF" id="id_1" stroke="#4C4C4C" stroke-width="2"/>
 <path atv:refpx="297.252" atv:refpy="32.167" d="M305.084,53.295L305.084,29.02L304.237,24.525L303.814,19.13L302.121,15.534L300.427,12.837L297.887,11.039L295.77,11.039L294.076,12.837L292.383,15.534L291.112,19.13L289.419,24.525L289.419,29.02L289.419,53.295Z" fill="#3366CC" id="id_2" stroke="#4C4C4C" stroke-width="2"/>
 <path atv:refpx="191.405" atv:refpy="32.167" d="M183.571,53.295L183.571,29.02L184.418,24.525L184.842,19.13L186.535,15.534L188.229,12.837L190.346,11.039L192.039,11.039L194.58,12.837L196.273,15.534L197.543,19.13L198.39,24.525L199.237,29.02L199.237,53.295Z" fill="#3366CC" id="id_3" stroke="#4C4C4C" stroke-width="2"/>
 <path atv:refpx="400.136" atv:refpy="157.588" d="M391.456,71.277L408.815,71.277L408.815,243.899L391.456,243.899Z" fill="#3366CC" id="id_4" stroke="#4C4C4C" stroke-width="2"/>
 <path atv:refpx="430.408" atv:refpy="153.542" d="M408.815,63.185L452,63.185L452,243.899L408.815,243.899Z" fill="#4C7FE5" id="id_5" stroke="#4C4C4C" stroke-width="2"/>
 <path atv:refpx="472.959" atv:refpy="153.542" d="M452,78.469L479.944,63.185L486.718,63.185L493.916,78.469L493.916,228.614L486.718,243.899L479.944,243.899L452,228.614Z" fill="#3366CC" id="id_7"/>
 <path atv:refpx="472.959" atv:refpy="153.542" d="M452,88.359L479.944,76.671L486.718,76.671L493.916,88.359L493.916,218.725L486.718,230.413L479.944,230.413L452,218.725Z" fill="#4573D1" id="id_8"/>
 <path atv:refpx="472.959" atv:refpy="153.542" d="M452,98.249L479.944,88.359L486.718,88.359L493.916,98.249L493.916,207.037L486.718,218.725L479.944,218.725L452,207.037Z" fill="#5480D4" id="id_9"/>
 <path atv:refpx="472.959" atv:refpy="152.643" d="M452,110.836L479.944,100.047L486.718,100.047L493.916,110.836L493.916,197.147L486.718,205.239L479.944,205.239L452,197.147Z" fill="#668CD9" id="id_10"/>
 <path atv:refpx="472.959" atv:refpy="153.542" d="M452,120.726L479.944,113.533L486.718,113.533L493.916,120.726L493.916,186.358L486.718,193.551L479.944,193.551L452,186.358Z" fill="#7899DE" id="id_11"/>
 <path atv:refpx="472.959" atv:refpy="153.992" d="M452,130.615L479.944,126.12L486.718,126.12L493.916,130.615L493.916,176.468L486.718,181.863L479.944,181.863L452,176.468Z" fill="#87A5E0" id="id_12"/>
 <path atv:refpx="472.959" atv:refpy="153.992" d="M452,141.404L479.944,139.606L486.718,139.606L493.916,141.404L493.916,166.578L486.718,168.377L479.944,168.377L452,166.578Z" fill="#98B2E5" id="id_13"/>
 <path atv:refpx="472.959" atv:refpy="153.542" d="M452,78.469L479.944,63.185L486.718,63.185L493.916,78.469L493.916,228.614L486.718,243.899L479.944,243.899L452,228.614Z" fill="none" id="id_14" stroke="#4C4C4C" stroke-width="2"/>
 <path atv:refpx="467.455" atv:refpy="96.002" d="M454.964,120.726L454.964,86.561L479.944,71.277L479.944,115.331Z" fill="#3366CC" id="id_15" stroke="#003399" stroke-width="2"/>
 <path atv:refpx="467.455" atv:refpy="153.542" d="M454.964,172.872L454.964,134.212L479.944,130.615L479.944,176.468Z" fill="#3366CC" id="id_17" stroke="#003399" stroke-width="2"/>
 <path atv:refpx="467.455" atv:refpy="211.083" d="M454.964,186.358L454.964,222.321L479.944,235.807L479.944,191.752Z" fill="#3366CC" id="id_18" stroke="#003399" stroke-width="2"/>
 <path atv:refpx="486.931" atv:refpy="153.542" d="M486.718,243.899L486.718,63.185" fill="none" id="id_19" stroke="#003399" stroke-width="2"/>
 <path atv:refpx="430.196" atv:refpy="153.542" d="M407.121,142.303L453.271,142.303L453.271,164.78L407.121,164.78Z" fill="#6699FF" id="id_20" stroke="#4C4C4C" stroke-width="2"/>
 <path atv:refpx="430.196" atv:refpy="155.341" d="M407.121,154.89L453.271,154.89" fill="none" id="id_21" stroke="#4C4C4C" stroke-width="2"/>
 <path atv:refpx="430.408" atv:refpy="106.791" d="M428.714,71.277L432.101,71.277L432.101,142.303L428.714,142.303Z" fill="#6699FF" id="id_22" stroke="#4C4C4C" stroke-width="2"/>
 <path atv:refpx="430.408" atv:refpy="200.294" d="M428.714,164.78L432.101,164.78L432.101,235.807L428.714,235.807Z" fill="#3366CC" id="id_23" stroke="#4C4C4C" stroke-width="2"/>
 <path atv:refpx="243.27" atv:refpy="153.542" d="M95.083,63.185L391.456,63.185L391.456,243.899L95.083,243.899Z" fill="#4C7FE5" id="id_24" stroke="#4C4C4C" stroke-width="2"/>
 <path atv:refpx="360.549" atv:refpy="198.496" d="M334.722,164.78L386.375,164.78L386.375,232.211L334.722,232.211Z" fill="#3366CC" id="id_25"/>
 <path atv:refpx="360.549" atv:refpy="112.185" d="M334.722,78.469L386.375,78.469L386.375,145.9L334.722,145.9Z" fill="#3366CC" id="id_26"/>
 <path atv:refpx="302.121" atv:refpy="198.496" d="M276.717,164.78L327.524,164.78L327.524,232.211L276.717,232.211Z" fill="#3366CC" id="id_27"/>
 <path atv:refpx="302.121" atv:refpy="112.185" d="M276.717,78.469L327.524,78.469L327.524,145.9L276.717,145.9Z" fill="#3366CC" id="id_28"/>
 <path atv:refpx="243.905" atv:refpy="198.496" d="M218.289,164.78L269.52,164.78L269.52,232.211L218.289,232.211Z" fill="#3366CC" id="id_29"/>
 <path atv:refpx="243.905" atv:refpy="112.185" d="M218.289,78.469L269.52,78.469L269.52,145.9L218.289,145.9Z" fill="#3366CC" id="id_30"/>
 <path atv:refpx="185.689" atv:refpy="198.496" d="M160.285,164.78L211.092,164.78L211.092,232.211L160.285,232.211Z" fill="#3366CC" id="id_31"/>
 <path atv:refpx="185.689" atv:refpy="112.185" d="M160.285,78.469L211.092,78.469L211.092,145.9L160.285,145.9Z" fill="#3366CC" id="id_32"/>
 <path atv:refpx="127.684" atv:refpy="198.496" d="M102.281,164.78L153.087,164.78L153.087,232.211L102.281,232.211Z" fill="#3366CC" id="id_33"/>
 <path atv:refpx="127.684" atv:refpy="112.185" d="M102.281,78.469L153.087,78.469L153.087,145.9L102.281,145.9Z" fill="#3366CC" id="id_34"/>
 <path atv:refpx="360.549" atv:refpy="86.112" d="M334.722,78.469L386.375,78.469L386.375,93.753L334.722,93.753Z" fill="#194CB2" id="id_35"/>
 <path atv:refpx="302.121" atv:refpy="86.112" d="M276.717,78.469L327.524,78.469L327.524,93.753L276.717,93.753Z" fill="#194CB2" id="id_36"/>
 <path atv:refpx="243.905" atv:refpy="86.112" d="M218.289,78.469L269.52,78.469L269.52,93.753L218.289,93.753Z" fill="#194CB2" id="id_37"/>
 <path atv:refpx="185.689" atv:refpy="86.112" d="M160.285,78.469L211.092,78.469L211.092,93.753L160.285,93.753Z" fill="#194CB2" id="id_38"/>
 <path atv:refpx="127.684" atv:refpy="86.112" d="M102.281,78.469L153.087,78.469L153.087,93.753L102.281,93.753Z" fill="#194CB2" id="id_39"/>
 <path atv:refpx="127.684" atv:refpy="172.423" d="M102.281,164.78L153.087,164.78L153.087,180.065L102.281,180.065Z" fill="#194CB2" id="id_40"/>
 <path atv:refpx="185.689" atv:refpy="172.423" d="M160.285,164.78L211.092,164.78L211.092,180.065L160.285,180.065Z" fill="#194CB2" id="id_41"/>
 <path atv:refpx="243.905" atv:refpy="172.423" d="M218.289,164.78L269.52,164.78L269.52,180.065L218.289,180.065Z" fill="#194CB2" id="id_42"/>
 <path atv:refpx="302.121" atv:refpy="172.423" d="M276.717,164.78L327.524,164.78L327.524,180.065L276.717,180.065Z" fill="#194CB2" id="id_43"/>
 <path atv:refpx="360.549" atv:refpy="172.423" d="M334.722,164.78L386.375,164.78L386.375,180.065L334.722,180.065Z" fill="#194CB2" id="id_44"/>
 <path atv:refpx="127.684" atv:refpy="198.496" d="M102.281,232.211L153.087,232.211L153.087,164.78" fill="none" id="id_45" stroke="#98B2E5" stroke-width="2"/>
 <path atv:refpx="185.689" atv:refpy="198.496" d="M160.285,232.211L211.092,232.211L211.092,164.78" fill="none" id="id_46" stroke="#98B2E5" stroke-width="2"/>
 <path atv:refpx="243.905" atv:refpy="198.496" d="M218.289,232.211L269.52,232.211L269.52,164.78" fill="none" id="id_47" stroke="#98B2E5" stroke-width="2"/>
 <path atv:refpx="302.121" atv:refpy="198.496" d="M276.717,232.211L327.524,232.211L327.524,164.78" fill="none" id="id_48" stroke="#98B2E5" stroke-width="2"/>
 <path atv:refpx="360.549" atv:refpy="198.496" d="M334.722,232.211L386.375,232.211L386.375,164.78" fill="none" id="id_49" stroke="#98B2E5" stroke-width="2"/>
 <path atv:refpx="360.549" atv:refpy="112.185" d="M334.722,145.9L386.375,145.9L386.375,78.469" fill="none" id="id_50" stroke="#98B2E5" stroke-width="2"/>
 <path atv:refpx="302.121" atv:refpy="112.185" d="M276.717,145.9L327.524,145.9L327.524,78.469" fill="none" id="id_51" stroke="#98B2E5" stroke-width="2"/>
 <path atv:refpx="243.905" atv:refpy="112.185" d="M218.289,145.9L269.52,145.9L269.52,78.469" fill="none" id="id_52" stroke="#98B2E5" stroke-width="2"/>
 <path atv:refpx="185.689" atv:refpy="112.185" d="M160.285,145.9L211.092,145.9L211.092,78.469" fill="none" id="id_53" stroke="#98B2E5" stroke-width="2"/>
 <path atv:refpx="127.684" atv:refpy="112.185" d="M102.281,145.9L153.087,145.9L153.087,78.469" fill="none" id="id_54" stroke="#98B2E5" stroke-width="2"/>
 <path atv:refpx="334.934" atv:refpy="112.185" d="M334.722,78.469L334.722,145.9" fill="none" id="id_55" stroke="#003399" stroke-width="2"/>
 <path atv:refpx="334.934" atv:refpy="198.496" d="M334.722,164.78L334.722,232.211" fill="none" id="id_56" stroke="#003399" stroke-width="2"/>
 <path atv:refpx="102.493" atv:refpy="112.185" d="M102.281,78.469L102.281,145.9" fill="none" id="id_57" stroke="#003399" stroke-width="2"/>
 <path atv:refpx="102.493" atv:refpy="198.496" d="M102.281,164.78L102.281,232.211" fill="none" id="id_58" stroke="#003399" stroke-width="2"/>
 <path atv:refpx="160.497" atv:refpy="112.185" d="M160.285,78.469L160.285,145.9" fill="none" id="id_59" stroke="#003399" stroke-width="2"/>
 <path atv:refpx="160.497" atv:refpy="198.496" d="M160.285,164.78L160.285,232.211" fill="none" id="id_60" stroke="#003399" stroke-width="2"/>
 <path atv:refpx="218.502" atv:refpy="112.185" d="M218.289,78.469L218.289,145.9" fill="none" id="id_61" stroke="#003399" stroke-width="2"/>
 <path atv:refpx="218.502" atv:refpy="198.496" d="M218.289,164.78L218.289,232.211" fill="none" id="id_62" stroke="#003399" stroke-width="2"/>
 <path atv:refpx="276.929" atv:refpy="112.185" d="M276.717,78.469L276.717,145.9" fill="none" id="id_63" stroke="#003399" stroke-width="2"/>
 <path atv:refpx="276.929" atv:refpy="198.496" d="M276.717,164.78L276.717,232.211" fill="none" id="id_64" stroke="#003399" stroke-width="2"/>
 <path atv:refpx="189.923" atv:refpy="58.241" d="M175.95,53.295L203.894,53.295L203.894,63.185L175.95,63.185Z" fill="#6699FF" id="id_65" stroke="#4C4C4C" stroke-width="2"/>
 <path atv:refpx="297.675" atv:refpy="58.241" d="M283.915,53.295L311.435,53.295L311.435,63.185L283.915,63.185Z" fill="#6699FF" id="id_66" stroke="#4C4C4C" stroke-width="2"/>
 <path atv:refpx="359.702" atv:refpy="60.039" d="M331.334,56.891L388.069,56.891L388.069,63.185L331.334,63.185Z" fill="#6699FF" id="id_67" stroke="#4C4C4C" stroke-width="2"/>
 <path atv:refpx="360.549" atv:refpy="124.322" d="M333.028,109.038L388.069,109.038L388.069,139.606L333.028,139.606Z" fill="#98B2E5" id="id_68" stroke="#003399" stroke-width="2"/>
 <path atv:refpx="302.544" atv:refpy="124.322" d="M275.024,109.038L330.064,109.038L330.064,139.606L275.024,139.606Z" fill="#98B2E5" id="id_69" stroke="#003399" stroke-width="2"/>
 <path atv:refpx="244.328" atv:refpy="124.322" d="M217.019,109.038L271.636,109.038L271.636,139.606L217.019,139.606Z" fill="#98B2E5" id="id_70" stroke="#003399" stroke-width="2"/>
 <path atv:refpx="186.112" atv:refpy="124.322" d="M158.591,109.038L213.632,109.038L213.632,139.606L158.591,139.606Z" fill="#98B2E5" id="id_71" stroke="#003399" stroke-width="2"/>
 <path atv:refpx="127.684" atv:refpy="124.322" d="M100.587,109.038L154.781,109.038L154.781,139.606L100.587,139.606Z" fill="#98B2E5" id="id_72" stroke="#003399" stroke-width="2"/>
 <path atv:refpx="339.591" atv:refpy="193.551" d="M337.262,139.606L341.919,139.606L341.919,247.495L337.262,247.495Z" fill="#6699FF" id="id_73" stroke="#003399" stroke-width="2"/>
 <path atv:refpx="382.142" atv:refpy="193.551" d="M379.177,139.606L385.105,139.606L385.105,247.495L379.177,247.495Z" fill="#6699FF" id="id_74" stroke="#003399" stroke-width="2"/>
 <path atv:refpx="280.952" atv:refpy="193.551" d="M277.987,139.606L283.915,139.606L283.915,247.495L277.987,247.495Z" fill="#6699FF" id="id_75" stroke="#003399" stroke-width="2"/>
 <path atv:refpx="323.502" atv:refpy="193.551" d="M321.173,139.606L325.83,139.606L325.83,247.495L321.173,247.495Z" fill="#6699FF" id="id_76" stroke="#003399" stroke-width="2"/>
 <path atv:refpx="222.735" atv:refpy="193.551" d="M219.983,139.606L225.487,139.606L225.487,247.495L219.983,247.495Z" fill="#6699FF" id="id_77" stroke="#003399" stroke-width="2"/>
 <path atv:refpx="265.074" atv:refpy="193.551" d="M262.322,139.606L267.826,139.606L267.826,247.495L262.322,247.495Z" fill="#6699FF" id="id_78" stroke="#003399" stroke-width="2"/>
 <path atv:refpx="164.731" atv:refpy="193.551" d="M161.979,139.606L167.483,139.606L167.483,247.495L161.979,247.495Z" fill="#6699FF" id="id_79" stroke="#003399" stroke-width="2"/>
 <path atv:refpx="206.858" atv:refpy="193.551" d="M203.894,139.606L209.822,139.606L209.822,247.495L203.894,247.495Z" fill="#6699FF" id="id_80" stroke="#003399" stroke-width="2"/>
 <path atv:refpx="106.303" atv:refpy="193.551" d="M103.551,139.606L109.055,139.606L109.055,247.495L103.551,247.495Z" fill="#6699FF" id="id_81" stroke="#003399" stroke-width="2"/>
 <path atv:refpx="148.642" atv:refpy="193.551" d="M145.89,139.606L151.394,139.606L151.394,247.495L145.89,247.495Z" fill="#6699FF" id="id_82" stroke="#003399" stroke-width="2"/>
 <rect atv:refpx="296.849" atv:refpy="142.5" fill="#000000" fill-opacity="0" height="285" id="click_area" stroke="#0000ff" stroke-width="0" width="430" x="80" y="0"/>
</svg>
