<svg xml:space="preserve" xmlns:atv="http://webmi.atvise.com/2007/svgext" version="1.1" height="97.522999999999996" enable-background="new 0 0 112.5 97.523" xmlns="http://www.w3.org/2000/svg" xmlns:xlink="http://www.w3.org/1999/xlink" width="112.5">
 <defs>
  <linearGradient gradientUnits="objectBoundingBox" id="SVGID_1_" x1="0.530112" x2="0.4699" y1="0.530112" y2="0.4699">
   <stop offset="0" stop-color="#4D4D4D"/>
   <stop offset="0.5" stop-color="#8C8C8C"/>
   <stop offset="1" stop-color="#4D4D4D"/>
  </linearGradient>
  <linearGradient gradientUnits="objectBoundingBox" id="SVGID_2_" x1="0.542144" x2="0.454343" y1="0.542159" y2="0.454356">
   <stop offset="0" stop-color="#A6A6A6"/>
   <stop offset="0.5" stop-color="#F7F7F7"/>
   <stop offset="1" stop-color="#A6A6A6"/>
  </linearGradient>
  <linearGradient gradientUnits="objectBoundingBox" id="SVGID_3_" x1="0.669678" x2="0.330232" y1="0.666632" y2="0.333296">
   <stop offset="0" stop-color="#4D4D4D"/>
   <stop offset="0.5" stop-color="#8C8C8C"/>
   <stop offset="1" stop-color="#4D4D4D"/>
  </linearGradient>
 </defs>
 <metadata>
  <atv:gridconfig enabled="false" gridstyle="lines" height="20" width="20"/>
  <atv:snapconfig enabled="false" height="10" width="10"/>
 </metadata>
 <g atv:refpx="56.25" atv:refpy="48.762" id="Image_1">
  <g atv:refpx="69.144" atv:refpy="46.96" id="Group_Infuser">
   <path atv:refpx="38.908" atv:refpy="74.945" d="M37.951,55.969L39.865,55.969L39.865,93.92L37.951,93.92Z" fill="#666666" id="id_0" stroke="#4C4C4C" stroke-width="0.25"/>
   <path atv:refpx="59.459" atv:refpy="52.928" d="M89.076,19.257L93.131,23.312L29.842,86.6L25.787,82.545Z" fill="url(#SVGID_1_)" id="id_1"/>
   <path atv:refpx="63.683" atv:refpy="48.706" d="M83.334,24.663L87.725,28.717L43.694,72.748L39.64,68.694Z" fill="url(#SVGID_2_)" id="id_2"/>
   <path atv:refpx="93.693" atv:refpy="17.174" d="M86.148,16.555L94.482,8.334L101.238,15.203L101.238,26.014L95.834,26.014Z" fill="#999999" id="id_3" stroke="#4C4C4C" stroke-width="0.25"/>
   <path atv:refpx="103.323" atv:refpy="8.954" d="M97.185,11.15L101.239,15.204L109.46,6.983L105.406,2.704Z" fill="url(#SVGID_3_)" id="id_4" stroke="#4C4C4C" stroke-width="0.25"/>
   <path atv:refpx="108.278" atv:refpy="4.168" d="M105.405,0.001L112.5,6.982L110.811,8.334L104.055,1.351Z" fill="#333333" id="id_5"/>
   <path atv:refpx="92.455" atv:refpy="19.933" d="M89.076,16.555L95.833,23.311" fill="none" id="id_6" stroke="#4C4C4C" stroke-width="0.25"/>
   <path atv:refpx="91.779" atv:refpy="13.852" d="M94.482,11.15L89.076,16.555" fill="none" id="id_7" stroke="#FFFFFF" stroke-width="0.25"/>
   <path atv:refpx="98.537" atv:refpy="27.084" d="M95.271,26.014L101.802,26.014L101.802,28.154L95.271,28.154Z" fill="#CCCCCC" id="id_8" stroke="#4C4C4C" stroke-width="0.25"/>
  </g>
  <g atv:refpx="29.335" atv:refpy="78.998" id="Group_L">
   <path atv:refpx="27.211" atv:refpy="77.26" d="M28.581,71.397L32.688,75.662L25.841,83.123L21.734,78.623Z" fill="#666666" id="id_9"/>
   <path atv:refpx="29.335" atv:refpy="78.999" d="M28.491,71.397L36.937,79.505L29.842,86.6L21.734,78.267Z" fill="none" id="id_10" stroke="#4C4C4C" stroke-width="0.25"/>
  </g>
  <g atv:refpx="21.735" atv:refpy="75.79" id="Group_Stool">
   <path atv:refpx="4.448" atv:refpy="74.945" d="M3.491,55.969L5.405,55.969L5.405,93.92L3.491,93.92Z" fill="#666666" id="id_11" stroke="#4C4C4C" stroke-width="0.25"/>
   <path atv:refpx="21.678" atv:refpy="69.539" d="M25.225,83.109L18.131,83.109L1.802,59.46L1.802,55.969L41.554,55.969L41.554,59.46Z" fill="#999999" id="id_12" stroke="#4C4C4C" stroke-width="0.25"/>
   <path atv:refpx="21.734" atv:refpy="55.012" d="M0,54.055L43.468,54.055L43.468,55.969L0,55.969Z" fill="#CCCCCC" id="id_13" stroke="#4C4C4C" stroke-width="0.25"/>
   <path atv:refpx="21.678" atv:refpy="59.96" d="M1.802,59.46L41.554,59.46" fill="none" id="id_14" stroke="#4C4C4C" stroke-width="0.25"/>
   <path atv:refpx="38.007" atv:refpy="61.375" d="M34.459,55.969L43.468,64.865L43.468,66.78L32.545,55.969Z" fill="#B2B2B2" id="id_15" stroke="#4C4C4C" stroke-width="0.25"/>
   <path atv:refpx="5.405" atv:refpy="61.375" d="M0,64.864L8.896,55.968L10.811,55.968L0,66.781Z" fill="#B2B2B2" id="id_16" stroke="#4C4C4C" stroke-width="0.25"/>
   <path atv:refpx="1.351" atv:refpy="76.746" d="M0,55.969L2.703,55.969L2.703,97.524L0,97.524Z" fill="#B2B2B2" id="id_17" stroke="#4C4C4C" stroke-width="0.25"/>
   <path atv:refpx="42.117" atv:refpy="76.746" d="M40.766,55.969L43.469,55.969L43.469,97.524L40.766,97.524Z" fill="#B2B2B2" id="id_18" stroke="#4C4C4C" stroke-width="0.25"/>
   <path atv:refpx="21.678" atv:refpy="82.94" d="M17.117,81.983L26.239,81.983L26.239,83.897L17.117,83.897Z" fill="#7F7F7F" id="id_19" stroke="#4C4C4C" stroke-width="0.25"/>
  </g>
 </g>
</svg>
