<!DOCTYPE svg PUBLIC '-//W3C//DTD SVG 1.1//EN' 'http://www.w3.org/Graphics/SVG/1.1/DTD/svg11.dtd'>
<svg enable-background="new 0 0 112.5 59.572" height="59.572000000000003" version="1.1" width="112.5" xml:space="preserve" xmlns="http://www.w3.org/2000/svg" xmlns:atv="http://webmi.atvise.com/2007/svgext" xmlns:xlink="http://www.w3.org/1999/xlink">
 <defs>
  <linearGradient gradientUnits="objectBoundingBox" id="SVGID_1_" x1="0.499987" x2="0.499987" y1="0.999936" y2="-3.20924e-05">
   <stop offset="0" stop-color="#383838"/>
   <stop offset="0.52" stop-color="#ECECEC"/>
   <stop offset="0.58" stop-color="#D9D9D9"/>
   <stop offset="0.72" stop-color="#A8A8A8"/>
   <stop offset="0.92" stop-color="#5A5A5A"/>
   <stop offset="1" stop-color="#383838"/>
  </linearGradient>
  <linearGradient gradientUnits="objectBoundingBox" id="SVGID_2_" x1="0.500048" x2="0.500048" y1="1.00003" y2="2.9976e-05">
   <stop offset="0" stop-color="#006600"/>
   <stop offset="0.52" stop-color="#87C879"/>
   <stop offset="0.61" stop-color="#74BA68"/>
   <stop offset="0.79" stop-color="#43973C"/>
   <stop offset="1" stop-color="#006600"/>
  </linearGradient>
  <linearGradient gradientUnits="objectBoundingBox" id="SVGID_3_" x1="0.500006" x2="0.500006" y1="1.00001" y2="0">
   <stop offset="0" stop-color="#006600"/>
   <stop offset="0.52" stop-color="#7BB66F"/>
   <stop offset="0.62" stop-color="#68AA5E"/>
   <stop offset="0.81" stop-color="#378A32"/>
   <stop offset="1" stop-color="#006600"/>
  </linearGradient>
  <linearGradient gradientUnits="objectBoundingBox" id="SVGID_4_" x1="0.500064" x2="0.500064" y1="1" y2="2.70913e-05">
   <stop offset="0" stop-color="#006600"/>
   <stop offset="0.52" stop-color="#87C879"/>
   <stop offset="0.61" stop-color="#74BA68"/>
   <stop offset="0.79" stop-color="#43973C"/>
   <stop offset="1" stop-color="#006600"/>
  </linearGradient>
  <linearGradient gradientUnits="objectBoundingBox" id="SVGID_5_" x1="0.499962" x2="0.499962" y1="0.999992" y2="0">
   <stop offset="0" stop-color="#006600"/>
   <stop offset="0.52" stop-color="#87C879"/>
   <stop offset="0.61" stop-color="#74BA68"/>
   <stop offset="0.79" stop-color="#43973C"/>
   <stop offset="1" stop-color="#006600"/>
  </linearGradient>
  <linearGradient gradientUnits="objectBoundingBox" id="SVGID_6_" x1="0.500042" x2="0.500042" y1="0.999995" y2="1.64826e-05">
   <stop offset="0" stop-color="#006600"/>
   <stop offset="0.52" stop-color="#87C879"/>
   <stop offset="0.61" stop-color="#74BA68"/>
   <stop offset="0.79" stop-color="#43973C"/>
   <stop offset="1" stop-color="#006600"/>
  </linearGradient>
  <linearGradient gradientUnits="objectBoundingBox" id="SVGID_7_" x1="0.499994" x2="0.499994" y1="0.999991" y2="1.99296e-05">
   <stop offset="0" stop-color="#006600"/>
   <stop offset="0.52" stop-color="#87C879"/>
   <stop offset="0.61" stop-color="#74BA68"/>
   <stop offset="0.79" stop-color="#43973C"/>
   <stop offset="1" stop-color="#006600"/>
  </linearGradient>
  <linearGradient gradientUnits="objectBoundingBox" id="SVGID_8_" x1="0.499806" x2="0.499806" y1="1.00001" y2="1.3034e-05">
   <stop offset="0" stop-color="#006600"/>
   <stop offset="0.52" stop-color="#87C879"/>
   <stop offset="0.61" stop-color="#74BA68"/>
   <stop offset="0.79" stop-color="#43973C"/>
   <stop offset="1" stop-color="#006600"/>
  </linearGradient>
 </defs>
 <metadata>
  <atv:gridconfig enabled="false" gridstyle="lines" height="20" width="20"/>
  <atv:snapconfig enabled="false" height="10" width="10"/>
 </metadata>
 <g atv:refpx="56.25" atv:refpy="29.787" id="Image_1">
  <g atv:refpx="104.927" atv:refpy="21.904" id="Group_Shaft">
   <path atv:refpx="104.927" atv:refpy="21.904" d="M97.354,17.23L112.5,17.23L112.5,26.578L97.354,26.578Z" fill="url(#SVGID_1_)" id="id_0"/>
  </g>
  <g atv:refpx="93.31" atv:refpy="22.466" id="Group_ShaftFacePlate">
   <path atv:refpx="93.31" atv:refpy="22.466" d="M98.536,10.473L96.172,9.122L88.084,22.241L96.172,35.81L98.536,34.234Z" fill="url(#SVGID_2_)" id="id_1"/>
  </g>
  <g atv:refpx="75.338" atv:refpy="57.883" id="Group_Base">
   <path atv:refpx="75.338" atv:refpy="57.883" d="M55.518,56.194L95.158,56.194L95.158,59.573L55.518,59.573Z" fill="#43A143" id="id_2"/>
  </g>
  <g atv:refpx="48.086" atv:refpy="28.097" id="Group_MotorBody">
   <polygon atv:refpx="40.196" atv:refpy="22.973" fill="url(#SVGID_3_)" id="id_3" points="14.625,1.24 14.625,44.707 65.766,44.483 65.766,1.24  "/>
   <path atv:refpx="94.615" atv:refpy="22.353" d="M93.058,5.743L96.172,5.743L96.172,38.964L93.058,38.964Z" fill="url(#SVGID_4_)" id="id_4"/>
   <path atv:refpx="86.421" atv:refpy="30.237" d="M94.257,4.28L78.584,4.28L78.584,56.194L94.257,56.194Z" fill="url(#SVGID_5_)" id="id_5"/>
   <path atv:refpx="70.564" atv:refpy="22.218" d="M76.501,0L64.626,0L64.626,44.436L76.5,44.436Z" fill="url(#SVGID_6_)" id="id_6"/>
   <path atv:refpx="8.108" atv:refpy="23.029" d="M1.689,0.45C1.689,0.45 0,4.616 0,23.193C0,43.7 1.689,45.609 1.689,45.609L16.216,45.609L16.216,0.45Z" fill="url(#SVGID_7_)" id="id_7"/>
   <path atv:refpx="77.365" atv:refpy="28.096" d="M75.563,0L79.167,0L79.167,56.193L75.563,56.193Z" fill="url(#SVGID_8_)" id="id_8"/>
  </g>
  <g atv:refpx="88.231" atv:refpy="20.721" id="Group_Bolt">
   <path atv:refpx="80.124" atv:refpy="3.829" d="M79.166,3.379L81.081,3.379L81.081,4.279L79.166,4.279Z" fill="#7F7F7F" id="id_9"/>
   <path atv:refpx="80.124" atv:refpy="39.921" d="M79.166,39.415L81.081,39.415L81.081,40.428L79.166,40.428Z" fill="#7F7F7F" id="id_10"/>
   <path atv:refpx="80.124" atv:refpy="22.242" d="M79.166,21.735L81.081,21.735L81.081,22.749L79.166,22.749Z" fill="#7F7F7F" id="id_11"/>
   <path atv:refpx="80.124" atv:refpy="2.534" d="M79.166,3.379L81.081,3.379L81.081,1.69L79.166,1.69Z" fill="#B2B2B2" id="id_12"/>
   <path atv:refpx="80.124" atv:refpy="38.57" d="M79.166,39.415L81.081,39.415L81.081,37.726L79.166,37.726Z" fill="#B2B2B2" id="id_13"/>
   <path atv:refpx="80.124" atv:refpy="20.89" d="M79.166,21.735L81.081,21.735L81.081,20.046L79.166,20.046Z" fill="#B2B2B2" id="id_14"/>
   <path atv:refpx="80.124" atv:refpy="19.595" d="M79.166,19.145L81.081,19.145L81.081,20.044L79.166,20.044Z" fill="#F0F0F0" id="id_15"/>
   <path atv:refpx="80.124" atv:refpy="37.388" d="M79.166,37.05L81.081,37.05L81.081,37.726L79.166,37.726Z" fill="#F0F0F0" id="id_16"/>
   <path atv:refpx="80.124" atv:refpy="1.352" d="M79.166,1.014L81.081,1.014L81.081,1.69L79.166,1.69Z" fill="#F0F0F0" id="id_17"/>
   <path atv:refpx="96.618" atv:refpy="8.108" d="M95.938,7.883L97.297,7.883L97.297,8.333L95.938,8.333Z" fill="#7F7F7F" id="id_18"/>
   <path atv:refpx="96.618" atv:refpy="7.433" d="M95.938,7.883L97.297,7.883L97.297,6.983L95.938,6.983Z" fill="#B2B2B2" id="id_19"/>
   <path atv:refpx="96.618" atv:refpy="6.7" d="M95.938,6.419L97.297,6.419L97.297,6.981L95.938,6.981Z" fill="#F0F0F0" id="id_20"/>
   <path atv:refpx="96.618" atv:refpy="19.595" d="M95.938,20.045L97.297,20.045L97.297,19.145L95.938,19.145Z" fill="#B2B2B2" id="id_21"/>
   <path atv:refpx="96.618" atv:refpy="20.439" d="M95.938,20.045L97.297,20.045L97.297,20.833L95.938,20.833Z" fill="#7F7F7F" id="id_22"/>
   <path atv:refpx="96.596" atv:refpy="33.221" d="M95.896,32.996L97.296,32.996L97.296,33.446L95.896,33.446Z" fill="#7F7F7F" id="id_23"/>
   <path atv:refpx="96.596" atv:refpy="32.546" d="M95.896,32.996L97.296,32.996L97.296,32.095L95.896,32.095Z" fill="#B2B2B2" id="id_24"/>
   <path atv:refpx="96.596" atv:refpy="31.813" d="M95.896,31.531L97.296,31.531L97.296,32.094L95.896,32.094Z" fill="#F0F0F0" id="id_25"/>
   <path atv:refpx="96.618" atv:refpy="18.919" d="M95.938,18.694L97.297,18.694L97.297,19.145L95.938,19.145Z" fill="#F0F0F0" id="id_26"/>
  </g>
  <g atv:refpx="40.422" atv:refpy="22.832" id="Group_HeatSink">
   <rect atv:refpx="40.422" atv:refpy="5.744" fill="#006600" height="1.352" id="id_27" width="48.411" x="16.216" y="5.068"/>
   <rect atv:refpx="40.422" atv:refpy="10.135" fill="#006600" height="1.352" id="id_28" width="48.411" x="16.216" y="9.459"/>
   <rect atv:refpx="40.422" atv:refpy="14.866" fill="#006600" height="1.352" id="id_29" width="48.411" x="16.216" y="14.19"/>
   <rect atv:refpx="40.422" atv:refpy="20.045" fill="#006600" height="1.352" id="id_30" width="48.411" x="16.216" y="19.369"/>
   <rect atv:refpx="40.422" atv:refpy="25.113" fill="#006600" height="1.352" id="id_31" width="48.411" x="16.216" y="24.437"/>
   <rect atv:refpx="40.422" atv:refpy="30.237" fill="#006600" height="1.352" id="id_32" width="48.411" x="16.216" y="29.561"/>
   <rect atv:refpx="40.422" atv:refpy="35.361" fill="#006600" height="1.352" id="id_33" width="48.411" x="16.216" y="34.685"/>
   <rect atv:refpx="40.422" atv:refpy="39.921" fill="#006600" height="1.352" id="id_34" width="48.411" x="16.216" y="39.245"/>
  </g>
  <g atv:refpx="31.476" atv:refpy="34.066" id="Group_WiringBox">
   <path atv:refpx="31.476" atv:refpy="34.066" d="M24.437,22.523L38.514,22.523L39.978,23.198L40.654,24.887L40.654,43.242L39.978,44.931L38.514,45.608L24.437,45.608L22.748,44.931L22.298,43.242L22.298,24.888L22.748,23.199Z" fill="#43A143" id="id_35"/>
  </g>
 </g>
</svg>
