<!DOCTYPE svg PUBLIC "-//W3C//DTD SVG 20000303 Stylable//EN" "http://www.w3.org/TR/2000/03/WD-SVG-20000303/DTD/svg-20000303-stylable.dtd"[]><svg xmlns="http://www.w3.org/2000/svg" width="64px" height="64px" viewBox="0 0 749 999"><path style="fill:#b2b2b2;stroke:#4c4c4c;stroke-width:2" d="M103,519 l458,0 0,460 -458,0 0,-460z" /><path style="fill:#ccc;stroke:#4c4c4c;stroke-width:2" d="M561,499 l10,0 0,500 -10,0 0,-500z" /><path style="fill:#ccc;stroke:#4c4c4c;stroke-width:2" d="M93,499 l10,0 0,500 -10,0 0,-500z" /><path style="fill:#ccc;stroke:#4c4c4c;stroke-width:2" d="M321,751 l0,164 36,0 0,-164 -36,0z" /><path style="fill:#ccc;stroke:#4c4c4c;stroke-width:2" d="M339,135 l-12,-102 374,0 -20,102 0,138 0,204 -1,18 -1,17 -2,17 -3,17 -4,16 -4,16 -6,16 -6,15 -7,16 -7,14 -9,14 -9,14 -9,13 -10,13 -11,12 -11,12 -12,11 -13,11 -13,10 -13,10 -14,8 -14,9 -15,7 -15,7 -16,6 -16,5 -16,5 -16,4 -17,3 -17,2 -17,1 -18,1 -17,-1 -17,-1 -17,-2 -17,-3 -16,-4 -16,-5 -16,-5 -15,-6 -15,-7 -15,-7 -14,-9 -14,-8 -13,-10 -13,-10 -13,-11 -11,-11 -12,-12 -10,-12 -11,-13 -9,-13 -9,-14 -8,-14 -8,-14 -7,-16 -6,-15 -5,-16 -5,-16 -4,-16 -3,-17 -2,-17 -1,-17 0,-18 0,-9 0,-9 0,-8 1,-9 1,-8 1,-9 2,-8 1,-9 2,-8 2,-8 2,-8 3,-9 2,-8 3,-7 3,-8 3,-8 3,-8 4,-7 4,-7 3,-8 4,-7 5,-7 4,-7 5,-7 4,-7 5,-6 5,-7 5,-6 6,-7 5,-6 6,-6 5,-6 6,-5 6,-6 6,-5 7,-5 6,-5 7,-5 6,-5 7,-5 7,-4 7,-4 7,-5 7,-4 8,-4 7,-3 7,-4 8,-3 8,-3 8,-3 7,-3 8,-3 8,-2 8,-3 9,-2 8,-1 8,-2 8,-2 9,-1 8,-1 9,-1 8,0 9,-1 8,0z" /><path style="fill:#b2b2b2" d="M749,33 l-478,0 0,-33 478,0 0,33z" /><path style="fill:#999;stroke:#4c4c4c;stroke-width:2" d="M61,979 l542,0 0,20 -542,0 0,-20z" /><path style="fill:#ccc" d="M689,33 l-356,0 0,-33 356,0 0,33z" /><path style="fill:#e5e5e5" d="M625,33 l-230,0 0,-33 230,0 0,33z" /><path style="fill:#fff" d="M541,33 l-62,0 0,-33 62,0 0,33z" /><path style="fill:none;stroke:#4c4c4c;stroke-width:2" d="M749,33 l-478,0 0,-33 478,0 0,33" /><path style="fill:#e5e5e5" d="M633,477 l2,-430 -240,0 0,140 -3,0 -3,0 -3,-1 -4,0 -3,0 -3,-1 -4,0 -3,0 -4,-1 -4,0 -3,0 -4,0 -4,0 -4,-1 -3,0 -4,0 -15,1 -14,1 -15,2 -14,2 -14,4 -14,4 -14,4 -13,5 -13,6 -12,7 -13,7 -11,8 -12,8 -11,9 -10,9 -11,10 -9,10 -10,10 -8,12 -8,11 -8,12 -7,12 -7,13 -6,13 -5,13 -4,14 -4,14 -4,14 -2,14 -2,15 -1,15 -1,15 1,15 1,15 2,15 2,14 4,14 4,14 4,14 5,13 6,13 7,13 7,12 8,12 8,11 8,11 10,10 9,10 11,10 10,9 11,9 12,8 11,8 13,7 12,6 13,6 13,5 14,5 14,4 14,3 14,2 15,2 14,1 15,1 15,-1 15,-1 15,-2 14,-2 14,-3 14,-4 14,-5 13,-5 13,-6 13,-6 12,-7 12,-8 12,-8 11,-9 11,-9 10,-10 9,-10 10,-10 8,-11 9,-11 7,-12 7,-12 7,-13 6,-13 5,-13 5,-14 4,-14 3,-14 3,-14 1,-15 2,-15 0,-15z" /><path style="fill:none;stroke:#7f7f7f;stroke-width:2" d="M547,269 l10,11 9,11 9,11 8,12 8,12 7,12 6,13 6,13 5,13 5,14 4,14 3,14 3,14 2,15 1,14 0,15 0,15 -2,15 -1,15 -3,14 -3,14 -4,14 -5,14 -5,13 -6,13 -7,13 -7,12 -7,12 -9,11 -8,11 -10,10 -9,10 -10,10 -11,9 -11,9 -12,8 -12,8 -12,7 -13,6 -13,6 -13,5 -14,5 -14,4 -14,3 -14,2 -15,2 -15,1 -15,1 -14,-1 -14,-1 -14,-2 -14,-2 -14,-3 -14,-4 -14,-5 -13,-5 -13,-6 -13,-6 -12,-7 -12,-7 -12,-8 -11,-9 -11,-9 -11,-9" /><path style="fill:#ccc;stroke:#4c4c4c;stroke-width:2" d="M321,751 l0,-550 36,0 0,550 -36,0z" /><path style="fill:#ccc;stroke:#4c4c4c;stroke-width:2" d="M63,457 l550,0 0,38 -550,0 0,-38z" /><circle style="fill:#a6a6a6;stroke:#4c4c4c;stroke-width:2" cx="340" cy="476" r="205" /><circle style="fill:#666;stroke:#4c4c4c;stroke-width:2" cx="340" cy="476" r="131" /><path style="fill:#999" d="M303,591 l62,-232 18,6 -62,232 -18,-6z" /><path style="fill:#999" d="M263,387 l170,170 -12,12 -170,-170 12,-12z" /><path style="fill:#999" d="M223,501 l234,-62 4,18 -232,62 -6,-18z" /><circle style="fill:#666;stroke:#4c4c4c;stroke-width:2" cx="340" cy="476" r="31" /><path style="fill:none;stroke:#7f7f7f;stroke-width:2" d="M63,309 l16,10 -10,16 -16,-10 10,-16" /><path style="fill:none;stroke:#7f7f7f;stroke-width:2" d="M183,195 l10,16 -16,10 -10,-18 16,-8" /><path style="fill:none;stroke:#7f7f7f;stroke-width:2" d="M345,155 l0,20 -18,0 0,-20 18,0" /><path style="fill:none;stroke:#7f7f7f;stroke-width:2" d="M349,73 l0,-22 20,0 0,22 -20,0" /><path style="fill:none;stroke:#7f7f7f;stroke-width:2" d="M169,753 l10,-16 16,10 -10,16 -16,-10" /><path style="fill:none;stroke:#7f7f7f;stroke-width:2" d="M53,633 l18,-10 8,16 -16,10 -10,-16" /><path style="fill:none;stroke:#7f7f7f;stroke-width:2" d="M15,469 l18,0 0,20 -18,0 0,-20" /><path style="fill:none;stroke:#7f7f7f;stroke-width:2" d="M329,801 l0,-18 18,0 0,18 -18,0" /><path style="fill:none;stroke:#7f7f7f;stroke-width:2" d="M491,761 l-8,-16 16,-8 8,16 -16,8" /><path style="fill:none;stroke:#7f7f7f;stroke-width:2" d="M613,647 l-16,-10 8,-16 18,10 -10,16" /><path style="fill:none;stroke:#7f7f7f;stroke-width:2" d="M661,487 l-20,0 0,-20 20,0 0,20" /><path style="fill:none;stroke:#7f7f7f;stroke-width:2" d="M655,51 l20,0 0,20 -20,0 0,-20" /><path style="fill:none;stroke:#7f7f7f;stroke-width:2" d="M645,177 l20,0 0,20 -20,0 0,-20" /><path style="fill:none;stroke:#7f7f7f;stroke-width:2" d="M645,311 l20,0 0,22 -20,0 0,-22" /><path style="fill:none;stroke:#fff;stroke-width:2" d="M133,683 l-10,-11 -9,-10 -9,-12 -8,-11 -8,-12 -7,-13 -6,-13 -6,-13 -5,-13 -5,-14 -4,-13 -3,-14 -2,-14 -2,-15 -1,-14 -1,-14 1,-15 1,-15 2,-15 2,-14 4,-14 4,-14 4,-14 5,-13 6,-13 7,-13 7,-12 8,-12 8,-11 8,-12 10,-10 9,-10 11,-10 10,-9 11,-9 12,-8 11,-8 13,-7 12,-7 13,-6 13,-5 14,-4 14,-4 14,-4 14,-2 15,-2 14,-1 15,-1 15,1 14,1 15,2 14,2 14,3 14,4 14,5 13,5 13,6 13,6 13,7 12,8 11,8 12,9 11,9 10,10" /><path style="fill:#4c4c4c" d="M489,832 l-8,-3 -3,-7 3,-8 8,-3 7,3 3,8 -3,7 -7,3z" /><path style="fill:#4c4c4c" d="M489,915 l-7,-3 -3,-7 3,-7 7,-3 7,3 3,7 -3,7 -7,3z" /></svg>