<svg version="1.1" xmlns="http://www.w3.org/2000/svg" xmlns:xlink="http://www.w3.org/1999/xlink" xmlns:atv="http://webmi.atvise.com/2007/svgext" height="112.5" enable-background="new 0 0 73.311 112.5" width="73.311000000000007" xml:space="preserve">
 <defs>
  <linearGradient gradientUnits="objectBoundingBox" id="SVGID_1_" x1="1.20375e-05" x2="1" y1="0.499997" y2="0.499997">
   <stop offset="0" stop-color="#E5CB98"/>
   <stop offset="0.01" stop-color="#E5CB98"/>
   <stop offset="0.5" stop-color="#FFF5E0"/>
   <stop offset="1" stop-color="#E5CB98"/>
  </linearGradient>
  <linearGradient gradientUnits="objectBoundingBox" id="SVGID_2_" x1="1.37489e-06" x2="0.999993" y1="0.5" y2="0.5">
   <stop offset="0" stop-color="#E5CB98"/>
   <stop offset="0.01" stop-color="#E5CB98"/>
   <stop offset="0.5" stop-color="#FFF5E0"/>
   <stop offset="1" stop-color="#E5CB98"/>
  </linearGradient>
  <linearGradient gradientUnits="objectBoundingBox" id="SVGID_3_" x1="-0.000547398" x2="0.99931" y1="0.506444" y2="0.506444">
   <stop offset="0" stop-color="#CC9735"/>
   <stop offset="0.01" stop-color="#CC9735"/>
   <stop offset="0.5" stop-color="#E5CB98"/>
   <stop offset="1" stop-color="#CC9735"/>
  </linearGradient>
 </defs>
 <metadata>
  <atv:gridconfig enabled="false" gridstyle="lines" height="20" width="20"/>
  <atv:snapconfig enabled="false" height="10" width="10"/>
 </metadata>
 <g atv:refpx="36.829" atv:refpy="56.153" id="Image_1">
  <g atv:refpx="36.829" atv:refpy="4.178" id="Group_RailsBack">
   <line atv:refpx="57.838" atv:refpy="4.402" fill="none" id="id_0" stroke="#FFCC00" stroke-width="0.495" x1="57.338" x2="57.338" y1="0.5" y2="8.303"/>
   <line atv:refpx="16.365" atv:refpy="4.402" fill="none" id="id_1" stroke="#FFCC00" stroke-width="0.495" x1="15.865" x2="15.865" y1="0.5" y2="8.303"/>
   <line atv:refpx="37.102" atv:refpy="3.9" fill="none" id="id_2" stroke="#FFCC00" stroke-width="0.495" x1="36.602" x2="36.602" y1="0.054" y2="7.746"/>
   <line atv:refpx="0.98" atv:refpy="5.46" fill="none" id="id_3" stroke="#FFCC00" stroke-width="0.495" x1="0.48" x2="0.48" y1="2.952" y2="7.969"/>
   <path atv:refpx="36.83" atv:refpy="6.174" d="M0.368,7.6C0.368,6.024 16.694,4.747 36.831,4.747C56.966,4.747 73.291,6.024 73.291,7.6" fill="none" id="id_4" stroke="#FFCC00" stroke-width="0.495"/>
   <path atv:refpx="36.829" atv:refpy="3.865" d="M0.368,5.291C0.368,3.716 16.694,2.438 36.831,2.438C56.967,2.438 73.29,3.715 73.29,5.291" fill="none" id="id_5" stroke="#FFCC00" stroke-width="0.495"/>
   <path atv:refpx="36.829" atv:refpy="1.48" d="M0.368,2.906C0.368,1.33 16.694,0.052 36.831,0.052C56.967,0.052 73.29,1.329 73.29,2.906" fill="none" id="id_6" stroke="#FFCC00" stroke-width="0.495"/>
   <line atv:refpx="73.445" atv:refpy="5.46" fill="none" id="id_7" stroke="#FFCC00" stroke-width="0.495" x1="72.945" x2="72.945" y1="2.952" y2="7.969"/>
  </g>
  <g atv:refpx="36.829" atv:refpy="6.67" id="Group_RailsFront">
   <line atv:refpx="55.385" atv:refpy="7.467" fill="none" id="id_8" stroke="#CC9900" stroke-width="0.495" x1="54.885" x2="54.885" y1="4.848" y2="10.087"/>
   <line atv:refpx="19.041" atv:refpy="7.467" fill="none" id="id_9" stroke="#CC9900" stroke-width="0.495" x1="18.541" x2="18.541" y1="4.848" y2="10.087"/>
   <path atv:refpx="36.829" atv:refpy="4.195" d="M73.29,2.769C73.29,4.343 56.965,5.621 36.827,5.621C16.692,5.621 0.368,4.344 0.368,2.769" fill="none" id="id_10" stroke="#CC9900" stroke-width="0.495"/>
   <path atv:refpx="36.83" atv:refpy="6.835" d="M73.291,5.409C73.291,6.981 56.965,8.261 36.827,8.261C16.692,8.261 0.368,6.982 0.368,5.408" fill="none" id="id_11" stroke="#CC9900" stroke-width="0.495"/>
   <path atv:refpx="36.829" atv:refpy="9.145" d="M73.291,7.719C73.291,9.294 56.965,10.571 36.827,10.571C16.691,10.571 0.367,9.295 0.367,7.718" fill="none" id="id_12" stroke="#CC9900" stroke-width="0.495"/>
  </g>
  <g atv:refpx="36.478" atv:refpy="80.469" id="Group_TankSupport">
   <path atv:refpx="36.478" atv:refpy="80.469" d="M15.709,48.438L15.709,110.211L15.767,110.211C15.767,110.478 15.767,110.744 15.767,111.011C19.59,111.895 27.552,112.5 36.762,112.5C45.583,112.5 53.254,111.943 57.246,111.12C57.246,110.831 57.246,110.519 57.246,110.211C57.246,109.983 57.246,109.768 57.246,109.539C57.246,109.199 57.246,108.856 57.246,108.539L57.246,49.438L57.246,48.438Z" fill="url(#SVGID_1_)" id="id_13" stroke="#996600" stroke-width="0.25"/>
  </g>
  <g atv:refpx="36.739" atv:refpy="34.921" id="Group_ElivatedTank">
   <path atv:refpx="36.655" atv:refpy="28.584" d="M72.996,10.084C66.003,8.494 52.553,7.417 37.099,7.417C20.962,7.417 7.009,8.592 0.313,10.298C0.313,11.822 0.288,45.345 0.288,46.87C6.988,48.577 20.951,49.751 37.099,49.751C52.563,49.751 66.023,48.675 73.021,47.084C73.021,45.493 72.996,11.675 72.996,10.084" fill="url(#SVGID_2_)" id="id_14" stroke="#996600" stroke-width="0.25"/>
   <polygon atv:refpx="36.739" atv:refpy="54.596" fill="url(#SVGID_3_)" id="id_15" points="57.129,49.018 57.105,62.425 15.796,51.721 15.827,48.875 7.452,48.117 2.624,47.344    0.166,46.766 73.311,46.922 70.679,47.441 65.702,48.188  "/>
   <line atv:refpx="36.599" atv:refpy="50.162" fill="none" id="id_16" stroke="#996600" stroke-width="0.25" x1="15.653" x2="57.545" y1="49.662" y2="49.662"/>
  </g>
 </g>
</svg>
