<?xml version='1.0' encoding='UTF-8' standalone='no'?>
<svg height="197" version="1.2" width="300" xmlns="http://www.w3.org/2000/svg" xmlns:atv="http://webmi.atvise.com/2007/svgext" xmlns:xlink="http://www.w3.org/1999/xlink">
 <defs>
  <linearGradient gradientUnits="objectBoundingBox" id="id_33_fill_gradient" spreadMethod="reflect" x1="0.0675676" x2="0.581081" y1="1" y2="1">
   <stop offset="0" stop-color="#999999"/>
   <stop offset="1" stop-color="#e5e5e5"/>
  </linearGradient>
  <linearGradient gradientUnits="objectBoundingBox" id="id_34_fill_gradient" spreadMethod="reflect" x1="-0.135135" x2="0.405405" y1="0.986486" y2="0.972973">
   <stop offset="0" stop-color="#999999"/>
   <stop offset="1" stop-color="#e5e5e5"/>
  </linearGradient>
  <linearGradient gradientUnits="objectBoundingBox" id="id_41_fill_gradient" spreadMethod="reflect" x1="-0.135135" x2="0.405405" y1="1" y2="0.972973">
   <stop offset="0" stop-color="#999999"/>
   <stop offset="1" stop-color="#e5e5e5"/>
  </linearGradient>
  <linearGradient gradientUnits="objectBoundingBox" id="id_42_fill_gradient" spreadMethod="reflect" x1="-0.135135" x2="0.405405" y1="0.986486" y2="0.972973">
   <stop offset="0" stop-color="#999999"/>
   <stop offset="1" stop-color="#e5e5e5"/>
  </linearGradient>
  <radialGradient cx="0.5" cy="0.5" fx="0.5" fy="0.5" gradientUnits="objectBoundingBox" id="id_42_stroke_gradient" r="1">
   <stop offset="0" stop-color="#000000"/>
   <stop offset="1" stop-color="#ffffff"/>
  </radialGradient>
  <linearGradient gradientUnits="objectBoundingBox" id="id_43_fill_gradient" spreadMethod="reflect" x1="-0.135135" x2="0.405405" y1="1" y2="0.972973">
   <stop offset="0" stop-color="#999999"/>
   <stop offset="1" stop-color="#e5e5e5"/>
  </linearGradient>
  <radialGradient cx="0.5" cy="0.5" fx="0.5" fy="0.5" gradientUnits="objectBoundingBox" id="id_44_fill_gradient" r="0.514579">
   <stop offset="0.6088709677419355" stop-color="#e4e4e4"/>
   <stop offset="1" stop-color="#9a9a9a"/>
  </radialGradient>
  <radialGradient cx="0.5" cy="0.5" fx="0.5" fy="0.5" gradientUnits="objectBoundingBox" id="id_7_fill_gradient" r="0.514579">
   <stop offset="0.6088709677419355" stop-color="#e4e4e4"/>
   <stop offset="1" stop-color="#9a9a9a"/>
  </radialGradient>
  <linearGradient gradientUnits="objectBoundingBox" id="linear_0" x1="0" x2="1" y1="0" y2="1">
   <stop offset="0" stop-color="#000000"/>
   <stop offset="1" stop-color="#000000" stop-opacity="0"/>
  </linearGradient>
  <linearGradient gradientUnits="objectBoundingBox" id="SVGID_10_" x1="-1.47761e-06" x2="0.999994" y1="0.499972" y2="0.499972">
   <stop offset="0.01" stop-color="#4D4D4D"/>
   <stop offset="0.51" stop-color="#F5F5F5"/>
   <stop offset="1" stop-color="#4D4D4D"/>
  </linearGradient>
  <linearGradient gradientUnits="objectBoundingBox" id="SVGID_11_" x1="-2.61171e-17" x2="0.999994" y1="0.500028" y2="0.500028">
   <stop offset="0.01" stop-color="#4D4D4D"/>
   <stop offset="0.51" stop-color="#F5F5F5"/>
   <stop offset="1" stop-color="#4D4D4D"/>
  </linearGradient>
  <linearGradient gradientUnits="objectBoundingBox" id="SVGID_12_" x1="-1.46544e-06" x2="1.00001" y1="0.499829" y2="0.499829">
   <stop offset="0.01" stop-color="#4D4D4D"/>
   <stop offset="0.51" stop-color="#F5F5F5"/>
   <stop offset="1" stop-color="#4D4D4D"/>
  </linearGradient>
  <linearGradient gradientUnits="objectBoundingBox" id="SVGID_13_" x1="0" x2="0.999993" y1="0.499718" y2="0.499718">
   <stop offset="0.01" stop-color="#4D4D4D"/>
   <stop offset="0.51" stop-color="#F5F5F5"/>
   <stop offset="1" stop-color="#4D4D4D"/>
  </linearGradient>
  <linearGradient gradientUnits="objectBoundingBox" id="SVGID_14_" x1="-1.46542e-06" x2="0.999994" y1="0.499934" y2="0.499934">
   <stop offset="0.01" stop-color="#4D4D4D"/>
   <stop offset="0.51" stop-color="#F5F5F5"/>
   <stop offset="1" stop-color="#4D4D4D"/>
  </linearGradient>
  <linearGradient gradientUnits="objectBoundingBox" id="SVGID_15_" x1="0" x2="1" y1="0.500026" y2="0.500026">
   <stop offset="0.01" stop-color="#4D4D4D"/>
   <stop offset="0.51" stop-color="#F5F5F5"/>
   <stop offset="1" stop-color="#4D4D4D"/>
  </linearGradient>
  <linearGradient gradientUnits="objectBoundingBox" id="SVGID_16_" x1="-1.47763e-06" x2="1.00001" y1="0.50014" y2="0.50014">
   <stop offset="0.01" stop-color="#4D4D4D"/>
   <stop offset="0.51" stop-color="#F5F5F5"/>
   <stop offset="1" stop-color="#4D4D4D"/>
  </linearGradient>
  <linearGradient gradientUnits="objectBoundingBox" id="SVGID_1_" x1="0.500152" x2="0.500152" y1="1.00001" y2="-1.2596e-05">
   <stop offset="0.01" stop-color="#474747"/>
   <stop offset="0.51" stop-color="#F5F5F5"/>
   <stop offset="1" stop-color="#474747"/>
  </linearGradient>
  <linearGradient gradientUnits="objectBoundingBox" id="SVGID_2_" x1="0.499992" x2="0.499992" y1="0.999965" y2="-2.30654e-05">
   <stop offset="0.01" stop-color="#4D4D4D"/>
   <stop offset="0.51" stop-color="#F5F5F5"/>
   <stop offset="1" stop-color="#4D4D4D"/>
  </linearGradient>
  <linearGradient gradientUnits="objectBoundingBox" id="SVGID_3_" x1="0" x2="1.00002" y1="0.5" y2="0.5">
   <stop offset="0.01" stop-color="#4D4D4D"/>
   <stop offset="0.51" stop-color="#F5F5F5"/>
   <stop offset="1" stop-color="#4D4D4D"/>
  </linearGradient>
  <radialGradient cx="0.500016" cy="0.500087" fx="0.500016" fy="0.500087" gradientUnits="objectBoundingBox" id="SVGID_4_" r="0.500573">
   <stop offset="0.28" stop-color="#F5F5F5"/>
   <stop offset="1" stop-color="#575757"/>
  </radialGradient>
  <linearGradient gradientUnits="objectBoundingBox" id="SVGID_5_" x1="0.5" x2="0.499999" y1="1" y2="-8.91615e-06">
   <stop offset="0.01" stop-color="#3D3D3D"/>
   <stop offset="0.51" stop-color="#F5F5F5"/>
   <stop offset="1" stop-color="#575757"/>
  </linearGradient>
  <linearGradient gradientUnits="objectBoundingBox" id="SVGID_6_" x1="0.5" x2="0.5" y1="1.00002" y2="-1.61173e-06">
   <stop offset="0.01" stop-color="#4D4D4D"/>
   <stop offset="0.51" stop-color="#F5F5F5"/>
   <stop offset="1" stop-color="#4D4D4D"/>
  </linearGradient>
  <linearGradient gradientUnits="objectBoundingBox" id="SVGID_7_" x1="-2.97009e-06" x2="1.00001" y1="0.500021" y2="0.500021">
   <stop offset="0.01" stop-color="#4D4D4D"/>
   <stop offset="0.51" stop-color="#F5F5F5"/>
   <stop offset="1" stop-color="#4D4D4D"/>
  </linearGradient>
  <linearGradient gradientUnits="objectBoundingBox" id="SVGID_8_" x1="-1.49e-06" x2="0.999994" y1="0.500039" y2="0.500039">
   <stop offset="0.01" stop-color="#4D4D4D"/>
   <stop offset="0.51" stop-color="#F5F5F5"/>
   <stop offset="1" stop-color="#4D4D4D"/>
  </linearGradient>
  <linearGradient gradientUnits="objectBoundingBox" id="SVGID_9_" x1="-2.97005e-06" x2="0.999994" y1="0.500062" y2="0.500062">
   <stop offset="0.01" stop-color="#4D4D4D"/>
   <stop offset="0.51" stop-color="#F5F5F5"/>
   <stop offset="1" stop-color="#4D4D4D"/>
  </linearGradient>
  <linearGradient gradientUnits="objectBoundingBox" id="linear_1" x1="0.499987" x2="0.499987" y1="0.999936" y2="-3.20924e-05">
   <stop offset="0" stop-color="#383838"/>
   <stop offset="0.52" stop-color="#ECECEC"/>
   <stop offset="0.58" stop-color="#D9D9D9"/>
   <stop offset="0.72" stop-color="#A8A8A8"/>
   <stop offset="0.92" stop-color="#5A5A5A"/>
   <stop offset="1" stop-color="#383838"/>
  </linearGradient>
  <linearGradient gradientUnits="objectBoundingBox" id="linear_2" x1="0.500048" x2="0.500048" y1="1.00003" y2="2.9976e-05">
   <stop offset="0" stop-color="#006600"/>
   <stop offset="0.52" stop-color="#87C879"/>
   <stop offset="0.61" stop-color="#74BA68"/>
   <stop offset="0.79" stop-color="#43973C"/>
   <stop offset="1" stop-color="#006600"/>
  </linearGradient>
  <linearGradient gradientUnits="objectBoundingBox" id="linear_3" x1="0.500006" x2="0.500006" y1="1.00001" y2="0">
   <stop offset="0" stop-color="#006600"/>
   <stop offset="0.52" stop-color="#7BB66F"/>
   <stop offset="0.62" stop-color="#68AA5E"/>
   <stop offset="0.81" stop-color="#378A32"/>
   <stop offset="1" stop-color="#006600"/>
  </linearGradient>
  <linearGradient gradientUnits="objectBoundingBox" id="linear_4" x1="0.500064" x2="0.500064" y1="1" y2="2.70913e-05">
   <stop offset="0" stop-color="#006600"/>
   <stop offset="0.52" stop-color="#87C879"/>
   <stop offset="0.61" stop-color="#74BA68"/>
   <stop offset="0.79" stop-color="#43973C"/>
   <stop offset="1" stop-color="#006600"/>
  </linearGradient>
  <linearGradient gradientUnits="objectBoundingBox" id="linear_5" x1="0.499962" x2="0.499962" y1="0.999992" y2="0">
   <stop offset="0" stop-color="#006600"/>
   <stop offset="0.52" stop-color="#87C879"/>
   <stop offset="0.61" stop-color="#74BA68"/>
   <stop offset="0.79" stop-color="#43973C"/>
   <stop offset="1" stop-color="#006600"/>
  </linearGradient>
  <linearGradient gradientUnits="objectBoundingBox" id="linear_6" x1="0.500042" x2="0.500042" y1="0.999995" y2="1.64826e-05">
   <stop offset="0" stop-color="#006600"/>
   <stop offset="0.52" stop-color="#87C879"/>
   <stop offset="0.61" stop-color="#74BA68"/>
   <stop offset="0.79" stop-color="#43973C"/>
   <stop offset="1" stop-color="#006600"/>
  </linearGradient>
  <linearGradient gradientUnits="objectBoundingBox" id="linear_7" x1="0.499994" x2="0.499994" y1="0.999991" y2="1.99296e-05">
   <stop offset="0" stop-color="#006600"/>
   <stop offset="0.52" stop-color="#87C879"/>
   <stop offset="0.61" stop-color="#74BA68"/>
   <stop offset="0.79" stop-color="#43973C"/>
   <stop offset="1" stop-color="#006600"/>
  </linearGradient>
  <linearGradient gradientUnits="objectBoundingBox" id="linear_8" x1="0.499806" x2="0.499806" y1="1.00001" y2="1.3034e-05">
   <stop offset="0" stop-color="#006600"/>
   <stop offset="0.52" stop-color="#87C879"/>
   <stop offset="0.61" stop-color="#74BA68"/>
   <stop offset="0.79" stop-color="#43973C"/>
   <stop offset="1" stop-color="#006600"/>
  </linearGradient>
 </defs>
 <metadata>
  <atv:parameter behavior="optional" defaultvalue="SYSTEM.GLOBALS.Color_Global_1" desc="Color" name="Color" substitute="$Color$" valuetype="global"/>
  <atv:parameter behavior="optional" defaultvalue="SYSTEM.GLOBALS.Maintenance_Electric_Motor" desc="Global Maintenance" name="Global_Maintenance" valuetype="global"/>
  <atv:gridconfig enabled="true" gridstyle="lines" height="20" width="20"/>
  <atv:snapconfig enabled="true" height="1" width="1"/>
 </metadata>
 <text atv:refpx="121.738" atv:refpy="27.984" fill="$Color$" font-family="Arial" font-size="14" font-weight="bold" id="Title" x="100.5" y="33.484">Name</text>
 <svg atv:refpx="107" atv:refpy="186.998" height="30" id="id_2" transform="matrix(1,0,0,0.6667,0,0)" width="80" x="67" xlink:href="SYSTEM.LIBRARY.ATVISE.OBJECTDISPLAYS.Advanced.button_switch" y="265.487">
  <atv:argument name="base" prefix="base" value=".Variables.OnOff"/>
  <atv:argument name="labelOn" value="T{Stop}"/>
  <atv:argument name="labelOff" value="T{Start}"/>
  <atv:overwrite height="18.001" id="id_6" transform="matrix(1,0,0,1.4999,0,0)"/>
  <atv:overwrite id="button_label" transform="matrix(1,0,0,1.4999,0,0)" y="14.5"/>
  <atv:overwrite id="button_symbol_off" transform="matrix(1,0,0,1.4999,0,0)" y="0"/>
  <atv:overwrite id="button_symbol_on" transform="matrix(1,0,0,1.4999,0,0)" y="0"/>
  <atv:overwrite height="16.001" id="blinking_frame" transform="matrix(1,0,0,1.4999,0,0)"/>
  <atv:overwrite height="16.001" id="button_stroke" transform="matrix(1,0,0,1.4999,0,0)"/>
  <atv:overwrite height="18.001" id="button_bg" transform="matrix(1,0,0,1.4999,0,0)"/>
  <atv:overwrite height="20.001" id="outer_frame" transform="matrix(1,0,0,1.4999,0,0)"/>
 </svg>
 <text atv:refpx="89.156" atv:refpy="166.5" fill="#195c88" font-family="Arial" font-size="12" font-weight="bold" id="id_49" x="72" y="171">On/Off</text>
 <polygon atv:refpx="63.671" atv:refpy="38.519" fill="#fdf90a" id="alert_increasing" points="51.67,50.518 75.67,50.518 63.003,26.518" stroke="#000000" stroke-width="1"/>
 <g atv:refpx="24.062" atv:refpy="168.546" id="maintenance" transform="matrix(1,0,0,1,-0.5819,13.9015)">
  <rect atv:refpx="46.171" atv:refpy="204.643" fill="#2b9de8" height="24.544" id="id_39" stroke="#000000" stroke-width="1" transform="matrix(0.7071,-0.7071,0.7071,0.7071,0,0)" width="24.544" x="-104.196" y="114.505"/>
  <text atv:refpx="28" atv:refpy="149.5" fill="#000000" font-family="Arial" font-size="14" id="id_40" x="18.5" y="160">M</text>
 </g>
 <polygon atv:refpx="11.207" atv:refpy="41.103" fill="#fdbf21" id="alert_decreasing" points="25.872,29.102 1.871,29.102 14.536,53.103" stroke="#000000" stroke-width="1"/>
 <text atv:refpx="64.671" atv:refpy="43.019" fill="#000000" font-family="Arial" font-size="14" font-weight="bold" id="alertC_text" text-anchor="end" x="66.171" y="47.519">1</text>
 <text atv:refpx="14.459" atv:refpy="38.101" fill="#000000" font-family="Arial" font-size="14" font-weight="bold" id="alertD_text" x="10.959" y="42.601">1</text>
 <rect atv:refpx="9.088" atv:refpy="-57.049" fill="#93060a" fill-opacity="0" height="42" id="click_area_alertC" stroke="none" stroke-width="0" width="28" x="50" y="11.484"/>
 <rect atv:refpx="14" atv:refpy="43.484" fill="#93060a" fill-opacity="0" height="42" id="click_area_alertD" stroke="none" stroke-width="0" width="28" x="0" y="24.484"/>
 <polygon atv:refpx="60.419" atv:refpy="82.021" fill="#fdf90a" id="alert_increasing_min" points="75.084,70.018 51.082,70.018 63.748,94.018" stroke="#000000" stroke-width="1"/>
 <text atv:refpx="63.671" atv:refpy="79.019" fill="#000000" font-family="Arial" font-size="14" font-weight="bold" id="alertC_text_min" x="60.171" y="83.519">1</text>
 <polygon atv:refpx="14.459" atv:refpy="81.601" fill="#fdbf21" id="alert_decreasing_min" points="2.458,93.601 26.458,93.601 13.79,69.601" stroke="#000000" stroke-width="1"/>
 <text atv:refpx="15" atv:refpy="85.984" fill="#000000" font-family="Arial" font-size="14" font-weight="bold" id="alertD_text_min" text-anchor="end" x="16.5" y="90.484">1</text>
 <rect atv:refpx="-40.912" atv:refpy="-13.049" fill="#93060a" fill-opacity="0" height="42" id="click_area_alertD_min" stroke="none" stroke-width="0" width="28" x="0" y="55.484"/>
 <g atv:refpx="36.5" atv:refpy="61.484" id="Ind_Bar" transform="matrix(1,0,0,1,-2,-7.516)">
  <rect atv:refpx="38.5" atv:refpy="69" fill="#626262" height="77.366" id="Barra_Ind2" rx="7" ry="7" stroke="#000000" stroke-width="1" width="14" x="31.5" y="30.317"/>
  <path atv:refpx="38.496" atv:refpy="36.976" d="M31.826,43.257L45.178,43.257L45.08,36.1C45.08,36.1 44.046,30.754 38.676,30.694C33.305,30.633 31.876,35.603 31.876,35.603C31.876,35.603 31.777,43.318 31.826,43.257" fill="#b5b5b5" id="id_19" stroke="#000000" stroke-width="0"/>
  <path atv:refpx="38.533" atv:refpy="100.982" d="M45.204,94.701L31.852,94.701L31.95,101.858C31.95,101.858 32.985,107.205 38.355,107.265C43.726,107.324 45.154,102.356 45.154,102.356C45.154,102.356 45.252,94.641 45.204,94.701" fill="#b5b5b5" id="id_20" stroke="#000000" stroke-width="0"/>
 </g>
 <rect atv:refpx="49.396" atv:refpy="14.695" fill="#bd070d" height="23" id="alarm_square" rx="1.855" ry="1.987" stroke="#000000" stroke-width="1" text-anchor="middle" width="23" x="37.446" y="2.569"/>
 <text atv:refpx="-20.554" atv:refpy="-10.716" fill="#000000" font-family="Arial" font-size="14" font-weight="bold" id="alarm_text" text-anchor="middle" x="48.946" y="19.07">1</text>
 <rect atv:refpx="-3.405" atv:refpy="-49.206" fill="#93060a" fill-opacity="0" height="28" id="click_area_alarm" stroke="none" stroke-width="0" width="28" x="34.879" y="0"/>
 <rect atv:refpx="49.102" atv:refpy="109.129" fill="#bd070d" height="23" id="alarm_square_min" rx="1.855" ry="1.987" stroke="#000000" stroke-width="1" text-anchor="middle" width="23" x="37.152" y="97.003"/>
 <text atv:refpx="-20.848" atv:refpy="83.718" fill="#000000" font-family="Arial" font-size="14" font-weight="bold" id="alarm_text_min" text-anchor="middle" x="48.652" y="113.504">1</text>
 <rect atv:refpx="-3.983" atv:refpy="45.512" fill="#93060a" fill-opacity="0" height="28" id="click_area_alarm_min" stroke="none" stroke-width="0" width="28" x="34.301" y="94.718"/>
 <rect atv:refpx="63" atv:refpy="84.484" fill="#93060a" fill-opacity="0" height="42" id="click_area_alertC_min" stroke="none" stroke-width="0" width="28" x="49" y="65.484"/>
 <g atv:refpx="192.162" atv:refpy="101.217" id="Image1">
  <g atv:refpx="284.031" atv:refpy="86.34" id="Group_Shaft" transform="matrix(1.8873,0,0,1.8873,86,45)">
   <path atv:refpx="104.927" atv:refpy="21.904" d="M97.354,17.23L112.5,17.23L112.5,26.578L97.354,26.578Z" fill="url(#linear_1)" id="id_0"/>
  </g>
  <g atv:refpx="262.106" atv:refpy="87.401" id="Group_ShaftFacePlate" transform="matrix(1.8873,0,0,1.8873,86,45)">
   <path atv:refpx="93.31" atv:refpy="22.466" d="M98.536,10.473L96.172,9.122L88.084,22.241L96.172,35.81L98.536,34.234Z" fill="url(#linear_2)" id="id_1"/>
  </g>
  <g atv:refpx="228.187" atv:refpy="154.244" id="Group_Base" transform="matrix(1.8873,0,0,1.8873,86,45)">
   <path atv:refpx="75.338" atv:refpy="57.883" d="M55.518,56.194L95.158,56.194L95.158,59.573L55.518,59.573Z" fill="#43A143" id="id_3"/>
  </g>
  <g atv:refpx="176.754" atv:refpy="98.028" id="Group_MotorBody" transform="matrix(1.8873,0,0,1.8873,86,45)">
   <polygon atv:refpx="40.196" atv:refpy="22.973" fill="url(#linear_3)" id="id_4" points="14.625,1.24 14.625,44.707 65.766,44.483 65.766,1.24  "/>
   <path atv:refpx="94.615" atv:refpy="22.353" d="M93.058,5.743L96.172,5.743L96.172,38.964L93.058,38.964Z" fill="url(#linear_4)" id="id_5"/>
   <path atv:refpx="86.421" atv:refpy="30.237" d="M94.257,4.28L78.584,4.28L78.584,56.194L94.257,56.194Z" fill="url(#linear_5)" id="id_7"/>
   <path atv:refpx="70.564" atv:refpy="22.218" d="M76.501,0L64.626,0L64.626,44.436L76.5,44.436Z" fill="url(#linear_6)" id="id_8"/>
   <path atv:refpx="8.108" atv:refpy="23.029" d="M1.689,0.45C1.689,0.45 0,4.616 0,23.193C0,43.7 1.689,45.609 1.689,45.609L16.216,45.609L16.216,0.45Z" fill="url(#linear_7)" id="id_9"/>
   <path atv:refpx="77.365" atv:refpy="28.096" d="M75.563,0L79.167,0L79.167,56.193L75.563,56.193Z" fill="url(#linear_8)" id="id_10"/>
  </g>
  <g atv:refpx="252.52" atv:refpy="84.107" id="Group_Bolt" transform="matrix(1.8873,0,0,1.8873,86,45)">
   <path atv:refpx="80.124" atv:refpy="3.829" d="M79.166,3.379L81.081,3.379L81.081,4.279L79.166,4.279Z" fill="#7F7F7F" id="id_11"/>
   <path atv:refpx="80.124" atv:refpy="39.921" d="M79.166,39.415L81.081,39.415L81.081,40.428L79.166,40.428Z" fill="#7F7F7F" id="id_12"/>
   <path atv:refpx="80.124" atv:refpy="22.242" d="M79.166,21.735L81.081,21.735L81.081,22.749L79.166,22.749Z" fill="#7F7F7F" id="id_13"/>
   <path atv:refpx="80.124" atv:refpy="2.534" d="M79.166,3.379L81.081,3.379L81.081,1.69L79.166,1.69Z" fill="#B2B2B2" id="id_14"/>
   <path atv:refpx="80.124" atv:refpy="38.57" d="M79.166,39.415L81.081,39.415L81.081,37.726L79.166,37.726Z" fill="#B2B2B2" id="id_15"/>
   <path atv:refpx="80.124" atv:refpy="20.89" d="M79.166,21.735L81.081,21.735L81.081,20.046L79.166,20.046Z" fill="#B2B2B2" id="id_16"/>
   <path atv:refpx="80.124" atv:refpy="19.595" d="M79.166,19.145L81.081,19.145L81.081,20.044L79.166,20.044Z" fill="#F0F0F0" id="id_17"/>
   <path atv:refpx="80.124" atv:refpy="37.388" d="M79.166,37.05L81.081,37.05L81.081,37.726L79.166,37.726Z" fill="#F0F0F0" id="id_18"/>
   <path atv:refpx="80.124" atv:refpy="1.352" d="M79.166,1.014L81.081,1.014L81.081,1.69L79.166,1.69Z" fill="#F0F0F0" id="id_21"/>
   <path atv:refpx="96.618" atv:refpy="8.108" d="M95.938,7.883L97.297,7.883L97.297,8.333L95.938,8.333Z" fill="#7F7F7F" id="id_22"/>
   <path atv:refpx="96.618" atv:refpy="7.433" d="M95.938,7.883L97.297,7.883L97.297,6.983L95.938,6.983Z" fill="#B2B2B2" id="id_23"/>
   <path atv:refpx="96.618" atv:refpy="6.7" d="M95.938,6.419L97.297,6.419L97.297,6.981L95.938,6.981Z" fill="#F0F0F0" id="id_24"/>
   <path atv:refpx="96.618" atv:refpy="19.595" d="M95.938,20.045L97.297,20.045L97.297,19.145L95.938,19.145Z" fill="#B2B2B2" id="id_25"/>
   <path atv:refpx="96.618" atv:refpy="20.439" d="M95.938,20.045L97.297,20.045L97.297,20.833L95.938,20.833Z" fill="#7F7F7F" id="id_26"/>
   <path atv:refpx="96.596" atv:refpy="33.221" d="M95.896,32.996L97.296,32.996L97.296,33.446L95.896,33.446Z" fill="#7F7F7F" id="id_27"/>
   <path atv:refpx="96.596" atv:refpy="32.546" d="M95.896,32.996L97.296,32.996L97.296,32.095L95.896,32.095Z" fill="#B2B2B2" id="id_28"/>
   <path atv:refpx="96.596" atv:refpy="31.813" d="M95.896,31.531L97.296,31.531L97.296,32.094L95.896,32.094Z" fill="#F0F0F0" id="id_29"/>
   <path atv:refpx="96.618" atv:refpy="18.919" d="M95.938,18.694L97.297,18.694L97.297,19.145L95.938,19.145Z" fill="#F0F0F0" id="id_30"/>
  </g>
  <g atv:refpx="162.289" atv:refpy="88.091" id="Group_HeatSink" transform="matrix(1.8873,0,0,1.8873,86,45)">
   <rect atv:refpx="40.422" atv:refpy="5.744" fill="#006600" height="1.352" id="id_31" width="48.411" x="16.216" y="5.068"/>
   <rect atv:refpx="40.422" atv:refpy="10.135" fill="#006600" height="1.352" id="id_32" width="48.411" x="16.216" y="9.459"/>
   <rect atv:refpx="40.422" atv:refpy="14.866" fill="#006600" height="1.352" id="id_33" width="48.411" x="16.216" y="14.19"/>
   <rect atv:refpx="40.422" atv:refpy="20.045" fill="#006600" height="1.352" id="id_34" width="48.411" x="16.216" y="19.369"/>
   <rect atv:refpx="40.422" atv:refpy="25.113" fill="#006600" height="1.352" id="id_35" width="48.411" x="16.216" y="24.437"/>
   <rect atv:refpx="40.422" atv:refpy="30.237" fill="#006600" height="1.352" id="id_36" width="48.411" x="16.216" y="29.561"/>
   <rect atv:refpx="40.422" atv:refpy="35.361" fill="#006600" height="1.352" id="id_37" width="48.411" x="16.216" y="34.685"/>
   <rect atv:refpx="40.422" atv:refpy="39.921" fill="#006600" height="1.352" id="id_38" width="48.411" x="16.216" y="39.245"/>
  </g>
  <g atv:refpx="145.405" atv:refpy="109.293" id="Group_WiringBox" transform="matrix(1.8873,0,0,1.8873,86,45)">
   <path atv:refpx="31.476" atv:refpy="34.066" d="M24.437,22.523L38.514,22.523L39.978,23.198L40.654,24.887L40.654,43.242L39.978,44.931L38.514,45.608L24.437,45.608L22.748,44.931L22.298,43.242L22.298,24.888L22.748,23.199Z" fill="#43A143" id="id_41"/>
  </g>
 </g>
 <script atv:desc="" atv:href="SYSTEM.LIBRARY.PROJECT.DISPLAYSCRIPTS.atvise_Advanced_Objects_Display_Scripts.AAA_Principal_Display_Script" atv:name="" atv:type="text/ecmascript"/>
 <script atv:desc="" atv:name="" type="text/ecmascript"><![CDATA[












]]></script>
 <rect atv:refpx="192.5" atv:refpy="87.5" fill="#000000" fill-opacity="0" height="141" id="click_area" stroke="#0000ff" stroke-width="0" width="213" x="86" y="17"/>
</svg>
