<?xml version='1.0' encoding='UTF-8' standalone='no'?>
<svg height="650" version="1.2" width="603" xmlns="http://www.w3.org/2000/svg" xmlns:atv="http://webmi.atvise.com/2007/svgext" xmlns:xlink="http://www.w3.org/1999/xlink">
 <defs/>
 <metadata>
  <atv:parameter behavior="optional" defaultvalue="SYSTEM.GLOBALS.Color_Global_1" desc="Color" name="Color" substitute="$Color$" valuetype="global"/>
  <atv:gridconfig enabled="true" gridstyle="lines" height="20" width="20"/>
  <atv:snapconfig enabled="true" height="10" width="10"/>
 </metadata>
 <text atv:refpx="49.476" atv:refpy="21" fill="$Color$" font-family="Arial" font-size="24" id="id_info" x="14.5" y="25.5">Conditions of</text>
 <script atv:desc="" atv:href="SYSTEM.LIBRARY.PROJECT.DISPLAYSCRIPTS.atvise_Advanced_Objects_Display_Scripts.Conditions_Display_Script" atv:name="" atv:type="text/ecmascript"/>
 <svg atv:refpx="535" atv:refpy="625" height="30" id="id_11" transform="matrix(0.5625,0,0,1,0,0)" width="160" x="871.111" xlink:href="SYSTEM.LIBRARY.ATVISE.OBJECTDISPLAYS.Advanced.in_out_value" y="610">
  <atv:argument name="base" prefix="base" value=".Time"/>
  <atv:argument name="unit" value="T{s}"/>
  <atv:argument name="fontSize" value="14"/>
  <atv:overwrite id="input_label" transform="matrix(1.7778,0,0,1,0,0)" x="82.055"/>
  <atv:overwrite id="blinking_frame" transform="matrix(1.7778,0,0,1,0,0)" width="82"/>
  <atv:overwrite id="focus_frame" transform="matrix(1.7778,0,0,1,0,0)" width="86"/>
  <atv:overwrite id="input_bg" transform="matrix(1.7778,0,0,1,0,0)" width="82"/>
  <atv:overwrite id="id_1" transform="matrix(1.7778,0,0,1,0,0)" width="88"/>
  <atv:overwrite id="id_0" transform="matrix(1.7778,0,0,1,0,0)" width="90"/>
 </svg>
 <text atv:refpx="348.105" atv:refpy="981.404" fill="#000000" font-family="Arial" font-size="12" font-weight="bold" id="id_12" x="494.5" y="596">Operating Time</text>
 <script atv:desc="" atv:name="" type="text/ecmascript"/>
 <svg atv:refpx="283.777" atv:refpy="107.455" height="106" id="id_2" transform="matrix(0.8954,0,0,0.8954,0,0)" width="544.5" x="44.684" xlink:href="ObjectTypes.PROJECT.Separator_1.Indicator_Slider" y="67.01">
  <atv:argument name="Label" value="Conveyor Speed"/>
  <atv:argument name="Input" prefix="base" value=".Variables.Conveyor_Speed"/>
  <atv:argument name="Object_Conditions" prefix="base" value=".Parameters.Object_Conditions"/>
  <atv:argument name="Alert_Range" prefix="base" value=".Parameters.Alert_Range"/>
  <atv:argument name="Unit" value="m/min"/>
  <atv:argument name="Color" prefix="Color" value=""/>
 </svg>
 <svg atv:refpx="283.768" atv:refpy="204.953" height="106" id="id_3" transform="matrix(0.8954,0,0,0.8954,0,0)" width="544.5" x="44.673" xlink:href="ObjectTypes.PROJECT.Separator_1.Indicator_Slider" y="175.897">
  <atv:argument name="Label" value="Temperature"/>
  <atv:argument name="Input" prefix="base" value=".Variables.Ambient_Temperature"/>
  <atv:argument name="Object_Conditions" prefix="base" value=".Parameters.Object_Conditions"/>
  <atv:argument name="Alert_Range" prefix="base" value=".Parameters.Alert_Range"/>
  <atv:argument name="Unit" value="m/min"/>
  <atv:argument name="Color" prefix="Color" value=""/>
 </svg>
 <svg atv:refpx="283.768" atv:refpy="302.454" height="106" id="id_4" transform="matrix(0.8954,0,0,0.8954,0,0)" width="544.5" x="44.673" xlink:href="ObjectTypes.PROJECT.Separator_1.Indicator_Slider" y="284.788">
  <atv:argument name="Label" value="Hooper Level"/>
  <atv:argument name="Input" prefix="base" value=".Variables.Hooper_Level"/>
  <atv:argument name="Object_Conditions" prefix="base" value=".Parameters.Object_Conditions"/>
  <atv:argument name="Alert_Range" prefix="base" value=".Parameters.Alert_Range"/>
  <atv:argument name="Unit" value="m/min"/>
  <atv:argument name="Color" prefix="Color" value=""/>
 </svg>
 <svg atv:refpx="283.768" atv:refpy="399.954" height="106" id="id_5" transform="matrix(0.8954,0,0,0.8954,0,0)" width="544.5" x="44.673" xlink:href="ObjectTypes.PROJECT.Separator_1.Indicator_Slider" y="393.678">
  <atv:argument name="Label" value="Motor_Current"/>
  <atv:argument name="Input" prefix="base" value=".Variables.Motor_Current"/>
  <atv:argument name="Object_Conditions" prefix="base" value=".Parameters.Object_Conditions"/>
  <atv:argument name="Alert_Range" prefix="base" value=".Parameters.Alert_Range"/>
  <atv:argument name="Unit" value="m/min"/>
  <atv:argument name="Color" prefix="Color" value=""/>
 </svg>
 <svg atv:refpx="283.768" atv:refpy="497.455" height="106" id="id_6" transform="matrix(0.8954,0,0,0.8954,0,0)" width="544.5" x="44.673" xlink:href="ObjectTypes.PROJECT.Separator_1.Indicator_Slider" y="502.569">
  <atv:argument name="Label" value="Vibration Level"/>
  <atv:argument name="Input" prefix="base" value=".Variables.Vibration_Level"/>
  <atv:argument name="Object_Conditions" prefix="base" value=".Parameters.Object_Conditions"/>
  <atv:argument name="Alert_Range" prefix="base" value=".Parameters.Alert_Range"/>
  <atv:argument name="Unit" value="m/min"/>
  <atv:argument name="Color" prefix="Color" value=""/>
 </svg>
 <svg atv:refpx="145" atv:refpy="625" height="30" id="id_7" transform="matrix(0.5625,0,0,1,0,0)" width="160" x="177.778" xlink:href="SYSTEM.LIBRARY.ATVISE.OBJECTDISPLAYS.Advanced.in_out_value" y="610">
  <atv:argument name="base" prefix="base" value=".Variables.Particle_Size"/>
  <atv:argument name="unit" value="T{s}"/>
  <atv:argument name="fontSize" value="14"/>
  <atv:overwrite id="input_label" transform="matrix(1.7778,0,0,1,0,0)" x="82.055"/>
  <atv:overwrite id="blinking_frame" transform="matrix(1.7778,0,0,1,0,0)" width="82"/>
  <atv:overwrite id="focus_frame" transform="matrix(1.7778,0,0,1,0,0)" width="86"/>
  <atv:overwrite id="input_bg" transform="matrix(1.7778,0,0,1,0,0)" width="82"/>
  <atv:overwrite id="id_1" transform="matrix(1.7778,0,0,1,0,0)" width="88"/>
  <atv:overwrite id="id_0" transform="matrix(1.7778,0,0,1,0,0)" width="90"/>
 </svg>
 <text atv:refpx="-41.895" atv:refpy="981.404" fill="#000000" font-family="Arial" font-size="12" font-weight="bold" id="id_8" x="104.5" y="596">Operating Time</text>
</svg>
