<!DOCTYPE svg PUBLIC '-//W3C//DTD SVG 20000303 Stylable//EN' 'http://www.w3.org/TR/2000/03/WD-SVG-20000303/DTD/svg-20000303-stylable.dtd'>
<svg height="999" width="323" xmlns="http://www.w3.org/2000/svg" xmlns:atv="http://webmi.atvise.com/2007/svgext" xmlns:xlink="http://www.w3.org/1999/xlink">
 <defs/>
 <metadata>
  <atv:gridconfig enabled="false" gridstyle="lines" height="20" width="20"/>
  <atv:snapconfig enabled="false" height="10" width="10"/>
 </metadata>
 <g atv:refpx="161.5" atv:refpy="499.5" id="Image_1">
  <path atv:refpx="64.5" atv:refpy="182" d="M16,60L74,51L113,305L53,313Z" fill="#9cc" id="id_0" stroke="#4c4c4c" stroke-width="2"/>
  <path atv:refpx="258" atv:refpy="182" d="M247,51L307,60L269,313L209,305Z" fill="#9cc" id="id_1" stroke="#4c4c4c" stroke-width="2"/>
  <path atv:refpx="277.5" atv:refpy="63.5" d="M233,50L323,63L321,77L232,63Z" fill="#9cc" id="id_2" stroke="#4c4c4c" stroke-width="2"/>
  <path atv:refpx="273" atv:refpy="87.5" d="M229,73L319,87L317,102L227,89Z" fill="#9cc" id="id_3" stroke="#4c4c4c" stroke-width="2"/>
  <path atv:refpx="269" atv:refpy="113" d="M225,99L315,111L313,127L223,113Z" fill="#9cc" id="id_4" stroke="#4c4c4c" stroke-width="2"/>
  <path atv:refpx="265" atv:refpy="137" d="M221,123L311,137L309,151L219,137Z" fill="#9cc" id="id_5" stroke="#4c4c4c" stroke-width="2"/>
  <path atv:refpx="261" atv:refpy="162" d="M217,147L307,161L305,177L215,163Z" fill="#9cc" id="id_6" stroke="#4c4c4c" stroke-width="2"/>
  <path atv:refpx="257" atv:refpy="187" d="M214,173L303,187L301,201L211,187Z" fill="#9cc" id="id_7" stroke="#4c4c4c" stroke-width="2"/>
  <path atv:refpx="245" atv:refpy="266" d="M201,251L291,265L289,281L199,267Z" fill="#9cc" id="id_8" stroke="#4c4c4c" stroke-width="2"/>
  <path atv:refpx="237" atv:refpy="316" d="M196,301L283,315L281,331L191,317Z" fill="#9cc" id="id_9" stroke="#4c4c4c" stroke-width="2"/>
  <path atv:refpx="278.5" atv:refpy="51" d="M258,53L297,60L299,47L259,42Z" fill="#9cc" id="id_10" stroke="#4c4c4c" stroke-width="2"/>
  <path atv:refpx="285" atv:refpy="13.5" d="M273,25L293,27L297,1L277,0Z" fill="#9cc" id="id_11" stroke="#4c4c4c" stroke-width="2"/>
  <path atv:refpx="281" atv:refpy="35" d="M275,45L285,45L287,27L277,25Z" fill="#9cc" id="id_12" stroke="#4c4c4c" stroke-width="2"/>
  <path atv:refpx="46" atv:refpy="63.5" d="M0,63L90,50L92,63L2,77Z" fill="#9cc" id="id_13" stroke="#4c4c4c" stroke-width="2"/>
  <path atv:refpx="49.5" atv:refpy="87.5" d="M4,87L94,73L95,89L6,102Z" fill="#9cc" id="id_14" stroke="#4c4c4c" stroke-width="2"/>
  <path atv:refpx="54" atv:refpy="113" d="M8,111L97,99L100,113L10,127Z" fill="#9cc" id="id_15" stroke="#4c4c4c" stroke-width="2"/>
  <path atv:refpx="57.5" atv:refpy="137" d="M12,137L102,123L103,137L14,151Z" fill="#9cc" id="id_16" stroke="#4c4c4c" stroke-width="2"/>
  <path atv:refpx="62" atv:refpy="162" d="M16,161L105,147L108,163L17,177Z" fill="#9cc" id="id_17" stroke="#4c4c4c" stroke-width="2"/>
  <path atv:refpx="65.5" atv:refpy="187" d="M20,187L108,173L111,187L22,201Z" fill="#9cc" id="id_18" stroke="#4c4c4c" stroke-width="2"/>
  <path atv:refpx="77.5" atv:refpy="266" d="M32,265L121,251L123,267L34,281Z" fill="#9cc" id="id_19" stroke="#4c4c4c" stroke-width="2"/>
  <path atv:refpx="83.5" atv:refpy="316" d="M38,315L128,301L129,317L42,331Z" fill="#9cc" id="id_20" stroke="#4c4c4c" stroke-width="2"/>
  <path atv:refpx="45" atv:refpy="51" d="M25,60L66,53L64,42L24,47Z" fill="#9cc" id="id_21" stroke="#4c4c4c" stroke-width="2"/>
  <path atv:refpx="37.5" atv:refpy="13.5" d="M30,27L50,25L46,0L25,1Z" fill="#9cc" id="id_22" stroke="#4c4c4c" stroke-width="2"/>
  <path atv:refpx="41.5" atv:refpy="35" d="M38,45L48,45L46,25L35,27Z" fill="#9cc" id="id_23" stroke="#4c4c4c" stroke-width="2"/>
  <path atv:refpx="161.5" atv:refpy="657" d="M281,335L281,999L42,999L42,667L42,335L42,333L50,327L66,323L87,319L115,317L146,315L178,315L207,317L235,319L258,323L273,327L281,333Z" fill="#9cc" id="id_24" stroke="#4c4c4c" stroke-width="2"/>
  <path atv:refpx="160.5" atv:refpy="408" d="M10,401L311,401L311,415L10,415Z" fill="#9cc" id="id_25" stroke="#4c4c4c" stroke-width="2"/>
 </g>
</svg>
