<?xml version='1.0' encoding='UTF-8' standalone='no'?>
<svg height="285" version="1.2" width="510" xmlns="http://www.w3.org/2000/svg" xmlns:atv="http://webmi.atvise.com/2007/svgext" xmlns:xlink="http://www.w3.org/1999/xlink">
 <defs>
  <linearGradient gradientUnits="objectBoundingBox" id="id_33_fill_gradient" spreadMethod="reflect" x1="0.0675676" x2="0.581081" y1="1" y2="1">
   <stop offset="0" stop-color="#999999"/>
   <stop offset="1" stop-color="#e5e5e5"/>
  </linearGradient>
  <linearGradient gradientUnits="objectBoundingBox" id="id_34_fill_gradient" spreadMethod="reflect" x1="-0.135135" x2="0.405405" y1="0.986486" y2="0.972973">
   <stop offset="0" stop-color="#999999"/>
   <stop offset="1" stop-color="#e5e5e5"/>
  </linearGradient>
  <linearGradient gradientUnits="objectBoundingBox" id="id_41_fill_gradient" spreadMethod="reflect" x1="-0.135135" x2="0.405405" y1="1" y2="0.972973">
   <stop offset="0" stop-color="#999999"/>
   <stop offset="1" stop-color="#e5e5e5"/>
  </linearGradient>
  <linearGradient gradientUnits="objectBoundingBox" id="id_42_fill_gradient" spreadMethod="reflect" x1="-0.135135" x2="0.405405" y1="0.986486" y2="0.972973">
   <stop offset="0" stop-color="#999999"/>
   <stop offset="1" stop-color="#e5e5e5"/>
  </linearGradient>
  <radialGradient cx="0.5" cy="0.5" fx="0.5" fy="0.5" gradientUnits="objectBoundingBox" id="id_42_stroke_gradient" r="1">
   <stop offset="0" stop-color="#000000"/>
   <stop offset="1" stop-color="#ffffff"/>
  </radialGradient>
  <linearGradient gradientUnits="objectBoundingBox" id="id_43_fill_gradient" spreadMethod="reflect" x1="-0.135135" x2="0.405405" y1="1" y2="0.972973">
   <stop offset="0" stop-color="#999999"/>
   <stop offset="1" stop-color="#e5e5e5"/>
  </linearGradient>
  <radialGradient cx="0.5" cy="0.5" fx="0.5" fy="0.5" gradientUnits="objectBoundingBox" id="id_44_fill_gradient" r="0.514579">
   <stop offset="0.6088709677419355" stop-color="#e4e4e4"/>
   <stop offset="1" stop-color="#9a9a9a"/>
  </radialGradient>
  <radialGradient cx="0.5" cy="0.5" fx="0.5" fy="0.5" gradientUnits="objectBoundingBox" id="id_7_fill_gradient" r="0.514579">
   <stop offset="0.6088709677419355" stop-color="#e4e4e4"/>
   <stop offset="1" stop-color="#9a9a9a"/>
  </radialGradient>
  <linearGradient gradientUnits="objectBoundingBox" id="linear_0" x1="0" x2="1" y1="0" y2="1">
   <stop offset="0" stop-color="#000000"/>
   <stop offset="1" stop-color="#000000" stop-opacity="0"/>
  </linearGradient>
  <linearGradient gradientUnits="objectBoundingBox" id="SVGID_10_" x1="-0.000148525" x2="0.99982" y1="0.499965" y2="0.499965">
   <stop offset="0.17" stop-color="#4D4D4D"/>
   <stop offset="0.23" stop-color="#5A5A5A"/>
   <stop offset="0.34" stop-color="#7D7D7D"/>
   <stop offset="0.48" stop-color="#B2B2B2"/>
   <stop offset="0.57" stop-color="#A8A8A8"/>
   <stop offset="0.73" stop-color="#8B8B8B"/>
   <stop offset="0.94" stop-color="#5C5C5C"/>
   <stop offset="1" stop-color="#4D4D4D"/>
  </linearGradient>
  <linearGradient gradientUnits="objectBoundingBox" id="SVGID_11_" x1="0" x2="0.999992" y1="0.499686" y2="0.499686">
   <stop offset="0.17" stop-color="#4D4D4D"/>
   <stop offset="0.23" stop-color="#5A5A5A"/>
   <stop offset="0.34" stop-color="#7D7D7D"/>
   <stop offset="0.48" stop-color="#B2B2B2"/>
   <stop offset="0.57" stop-color="#A8A8A8"/>
   <stop offset="0.73" stop-color="#8B8B8B"/>
   <stop offset="0.94" stop-color="#5C5C5C"/>
   <stop offset="1" stop-color="#4D4D4D"/>
  </linearGradient>
  <linearGradient gradientUnits="objectBoundingBox" id="SVGID_12_" x1="-0.000159151" x2="0.999873" y1="0.499976" y2="0.499976">
   <stop offset="0.17" stop-color="#4D4D4D"/>
   <stop offset="0.23" stop-color="#5A5A5A"/>
   <stop offset="0.34" stop-color="#7D7D7D"/>
   <stop offset="0.48" stop-color="#B2B2B2"/>
   <stop offset="0.57" stop-color="#A8A8A8"/>
   <stop offset="0.73" stop-color="#8B8B8B"/>
   <stop offset="0.94" stop-color="#5C5C5C"/>
   <stop offset="1" stop-color="#4D4D4D"/>
  </linearGradient>
  <linearGradient gradientUnits="objectBoundingBox" id="SVGID_13_" x1="-3.95757e-05" x2="0.999984" y1="0.500503" y2="0.500503">
   <stop offset="0.17" stop-color="#4D4D4D"/>
   <stop offset="0.23" stop-color="#5A5A5A"/>
   <stop offset="0.34" stop-color="#7D7D7D"/>
   <stop offset="0.48" stop-color="#B2B2B2"/>
   <stop offset="0.57" stop-color="#A8A8A8"/>
   <stop offset="0.73" stop-color="#8B8B8B"/>
   <stop offset="0.94" stop-color="#5C5C5C"/>
   <stop offset="1" stop-color="#4D4D4D"/>
  </linearGradient>
  <linearGradient gradientUnits="objectBoundingBox" id="SVGID_1_" x1="2.80483e-06" x2="1" y1="0.5" y2="0.5">
   <stop offset="0" stop-color="#383838"/>
   <stop offset="0.5" stop-color="#ECECEC"/>
   <stop offset="0.57" stop-color="#D9D9D9"/>
   <stop offset="0.71" stop-color="#A8A8A8"/>
   <stop offset="0.92" stop-color="#5A5A5A"/>
   <stop offset="1" stop-color="#383838"/>
  </linearGradient>
  <linearGradient gradientUnits="objectBoundingBox" id="SVGID_2_" x1="-5.34852e-06" x2="0.999996" y1="0.500015" y2="0.500015">
   <stop offset="0.06" stop-color="#808080"/>
   <stop offset="0.13" stop-color="#8D8D8D"/>
   <stop offset="0.28" stop-color="#B0B0B0"/>
   <stop offset="0.48" stop-color="#E8E8E8"/>
   <stop offset="0.48" stop-color="#EBEBEB"/>
   <stop offset="0.57" stop-color="#E0E0E0"/>
   <stop offset="0.72" stop-color="#C3C3C3"/>
   <stop offset="0.92" stop-color="#949494"/>
   <stop offset="1" stop-color="#808080"/>
  </linearGradient>
  <linearGradient gradientUnits="objectBoundingBox" id="SVGID_3_" x1="0.0132289" x2="0.961723" y1="1.43718" y2="-0.523291">
   <stop offset="0.29" stop-color="#F7F7F7"/>
   <stop offset="0.38" stop-color="#ECECEC"/>
   <stop offset="0.52" stop-color="#CFCFCF"/>
   <stop offset="0.71" stop-color="#A0A0A0"/>
   <stop offset="0.94" stop-color="#5F5F5F"/>
   <stop offset="1" stop-color="#4D4D4D"/>
  </linearGradient>
  <linearGradient gradientUnits="objectBoundingBox" id="SVGID_4_" x1="0.984938" x2="0.0397305" y1="1.44782" y2="-0.461717">
   <stop offset="0.29" stop-color="#F7F7F7"/>
   <stop offset="0.38" stop-color="#ECECEC"/>
   <stop offset="0.52" stop-color="#CFCFCF"/>
   <stop offset="0.71" stop-color="#A0A0A0"/>
   <stop offset="0.94" stop-color="#5F5F5F"/>
   <stop offset="1" stop-color="#4D4D4D"/>
  </linearGradient>
  <linearGradient gradientUnits="objectBoundingBox" id="SVGID_5_" x1="0.499998" x2="0.499998" y1="2.24065e-05" y2="1">
   <stop offset="0" stop-color="#C8C8C8"/>
   <stop offset="0.29" stop-color="#B1B1B1"/>
   <stop offset="0.91" stop-color="#757575"/>
   <stop offset="1" stop-color="#6C6C6C"/>
  </linearGradient>
  <linearGradient gradientUnits="objectBoundingBox" id="SVGID_6_" x1="-9.45716e-06" x2="1.00002" y1="0.5" y2="0.5">
   <stop offset="0" stop-color="#383838"/>
   <stop offset="0.45" stop-color="#ECECEC"/>
   <stop offset="0.55" stop-color="#D9D9D9"/>
   <stop offset="0.76" stop-color="#A8A8A8"/>
   <stop offset="0.77" stop-color="#A6A6A6"/>
   <stop offset="1" stop-color="#383838"/>
  </linearGradient>
  <linearGradient gradientUnits="objectBoundingBox" id="SVGID_7_" x1="7.05467e-06" x2="0.999993" y1="0.499944" y2="0.499944">
   <stop offset="0" stop-color="#383838"/>
   <stop offset="0.45" stop-color="#ECECEC"/>
   <stop offset="0.55" stop-color="#D9D9D9"/>
   <stop offset="0.76" stop-color="#A8A8A8"/>
   <stop offset="0.77" stop-color="#A6A6A6"/>
   <stop offset="1" stop-color="#383838"/>
  </linearGradient>
  <linearGradient gradientUnits="objectBoundingBox" id="SVGID_8_" x1="1.89143e-05" x2="1.00004" y1="0.5" y2="0.5">
   <stop offset="0" stop-color="#383838"/>
   <stop offset="0.45" stop-color="#ECECEC"/>
   <stop offset="0.55" stop-color="#D9D9D9"/>
   <stop offset="0.76" stop-color="#A8A8A8"/>
   <stop offset="0.77" stop-color="#A6A6A6"/>
   <stop offset="1" stop-color="#383838"/>
  </linearGradient>
  <linearGradient gradientUnits="objectBoundingBox" id="SVGID_9_" x1="2.82187e-05" x2="1.00001" y1="0.499944" y2="0.499944">
   <stop offset="0" stop-color="#383838"/>
   <stop offset="0.45" stop-color="#ECECEC"/>
   <stop offset="0.55" stop-color="#D9D9D9"/>
   <stop offset="0.76" stop-color="#A8A8A8"/>
   <stop offset="0.77" stop-color="#A6A6A6"/>
   <stop offset="1" stop-color="#383838"/>
  </linearGradient>
  <radialGradient cx="0.499789" cy="0.500127" fx="0.499789" fy="0.500127" gradientUnits="objectBoundingBox" id="radial_1" r="0.500063">
   <stop offset="0" stop-color="#E0E0E0"/>
   <stop offset="0.5" stop-color="#E0E0E0"/>
   <stop offset="1" stop-color="#595959"/>
  </radialGradient>
  <radialGradient cx="0.500042" cy="0.499911" fx="0.500042" fy="0.499911" gradientUnits="objectBoundingBox" id="radial_2" r="0.500043">
   <stop offset="0" stop-color="#E0E0E0"/>
   <stop offset="0.5" stop-color="#E0E0E0"/>
   <stop offset="1" stop-color="#595959"/>
  </radialGradient>
  <radialGradient cx="0.499848" cy="0.499978" fx="0.499848" fy="0.499978" gradientUnits="objectBoundingBox" id="radial_3" r="0.499968">
   <stop offset="0" stop-color="#E0E0E0"/>
   <stop offset="0.5" stop-color="#E0E0E0"/>
   <stop offset="1" stop-color="#595959"/>
  </radialGradient>
  <linearGradient gradientUnits="objectBoundingBox" id="linear_4" x1="0.563112" x2="0.436914" y1="1.13692" y2="-0.13513">
   <stop offset="0" stop-color="#808080"/>
   <stop offset="0.5" stop-color="#B2B2B2"/>
   <stop offset="0.6" stop-color="#D1D1D1"/>
   <stop offset="1" stop-color="#E5E5E5"/>
  </linearGradient>
  <radialGradient cx="0.5" cy="0.5" fx="0.5" fy="0.5" gradientUnits="objectBoundingBox" id="radial_5" r="0.500064">
   <stop offset="0" stop-color="#E0E0E0"/>
   <stop offset="0.5" stop-color="#BFD3F2"/>
   <stop offset="1" stop-color="#BFD3F2"/>
  </radialGradient>
  <radialGradient cx="0.499978" cy="0.5" fx="0.499978" fy="0.5" gradientUnits="objectBoundingBox" id="radial_6" r="0.500022">
   <stop offset="0" stop-color="#E0E0E0"/>
   <stop offset="0.5" stop-color="#BFD3F2"/>
   <stop offset="1" stop-color="#BFD3F2"/>
  </radialGradient>
  <radialGradient cx="0.499935" cy="0.499913" fx="0.499935" fy="0.499913" gradientUnits="objectBoundingBox" id="radial_7" r="0.500022">
   <stop offset="0" stop-color="#E0E0E0"/>
   <stop offset="0.5" stop-color="#BFD3F2"/>
   <stop offset="1" stop-color="#BFD3F2"/>
  </radialGradient>
  <radialGradient cx="0.500042" cy="0.500065" fx="0.500042" fy="0.500065" gradientUnits="objectBoundingBox" id="radial_8" r="0.500075">
   <stop offset="0" stop-color="#E0E0E0"/>
   <stop offset="0.5" stop-color="#BFD3F2"/>
   <stop offset="1" stop-color="#BFD3F2"/>
  </radialGradient>
  <radialGradient cx="0.499848" cy="0.500044" fx="0.499848" fy="0.500044" gradientUnits="objectBoundingBox" id="radial_9" r="0.528715">
   <stop offset="0" stop-color="#E0E0E0"/>
   <stop offset="0.5" stop-color="#BFD3F2"/>
   <stop offset="1" stop-color="#BFD3F2"/>
  </radialGradient>
  <radialGradient cx="0.500022" cy="0.500065" fx="0.500022" fy="0.500065" gradientUnits="objectBoundingBox" id="radial_10" r="0.499968">
   <stop offset="0" stop-color="#E0E0E0"/>
   <stop offset="0.5" stop-color="#E0E0E0"/>
   <stop offset="1" stop-color="#595959"/>
  </radialGradient>
  <radialGradient cx="0.500022" cy="0.500087" fx="0.500022" fy="0.500087" gradientUnits="objectBoundingBox" id="radial_11" r="0.500022">
   <stop offset="0" stop-color="#E0E0E0"/>
   <stop offset="0.5" stop-color="#E0E0E0"/>
   <stop offset="1" stop-color="#595959"/>
  </radialGradient>
  <radialGradient cx="0.5" cy="0.500022" fx="0.5" fy="0.500022" gradientUnits="objectBoundingBox" id="radial_12" r="0.500075">
   <stop offset="0" stop-color="#E0E0E0"/>
   <stop offset="0.5" stop-color="#E0E0E0"/>
   <stop offset="1" stop-color="#595959"/>
  </radialGradient>
 </defs>
 <metadata>
  <atv:parameter behavior="optional" defaultvalue="SYSTEM.GLOBALS.atvise_Advanced_Objects_Maintenance_List.Mining_Industry.Maintenance_Mill" desc="Global_Maintenance" group="Maintenance" name="Global_Maintenance" valuetype="global"/>
  <atv:parameter behavior="optional" defaultvalue="SYSTEM.GLOBALS.atvise_Advanced_Objects_Maintenance_List.Mining_Industry.Maintenance_Mill" desc="Global Maintenance Address" group="Maintenance" name="Global_Maintenance_Address" valuetype="string"/>
  <atv:parameter behavior="optional" defaultvalue="true" desc="Maintenance_Active" group="Maintenance" name="Maintenance" valuetype="bool"/>
  <atv:parameter behavior="optional" defaultvalue="true" desc="Icon Indicator Active" group="Alarming" name="Icon_Indicator" valuetype="bool"/>
  <atv:parameter behavior="optional" defaultvalue="" desc="Alert_Range" group="Alarming" name="Alert_Range" valuetype="number"/>
  <atv:parameter behavior="optional" defaultvalue="" desc="Notification List" group="Alarming" name="Notification_List" valuetype="global"/>
  <atv:parameter behavior="optional" defaultvalue="false" desc="Email Notification Active" group="Alarming" name="Email_Notification" valuetype="bool"/>
  <atv:parameter behavior="optional" defaultvalue="false" desc="Alertzy_Notification" group="Alarming" name="Alertzy_Notification" valuetype="bool"/>
  <atv:parameter behavior="optional" defaultvalue="SYSTEM.GLOBALS.Color_Global_1" desc="Color" group="Appereance" name="Color" substitute="$Color$" valuetype="global"/>
  <atv:parameter behavior="optional" defaultvalue="14" desc="Title Font Size" group="Appereance" name="Title_Font_Size" substitute="$FontSize$" valuetype="number"/>
  <atv:gridconfig enabled="true" gridstyle="lines" height="20" width="20"/>
  <atv:snapconfig enabled="true" height="5" width="5"/>
 </metadata>
 <text atv:refpx="298.707" atv:refpy="11.5" fill="$Color$" font-family="Arial" font-size="$FontSize$" font-weight="bold" id="Title" text-anchor="middle" x="296.469" y="17">Name</text>
 <script atv:desc="" atv:href="SYSTEM.LIBRARY.PROJECT.DISPLAYSCRIPTS.atvise_Advanced_Objects_Display_Scripts.AAA_Principal_Display_Script" atv:name="" atv:type="text/ecmascript"/>
 <script atv:desc="" atv:name="" type="text/ecmascript"/>
 <svg atv:refpx="39" atv:refpy="61.36" height="122.72" id="id_6" width="78" x="0" xlink:href="SYSTEM.LIBRARY.PROJECT.OBJECTDISPLAYS.atvise_Advanced_Objects_Complementary_Elements.Alarm_Alert_Advanced_Indicator" y="0">
  <atv:argument name="base" prefix="base"/>
 </svg>
 <svg atv:refpx="48.06" atv:refpy="258.06" height="36.12" id="id_16" width="36.12" x="30" xlink:href="SYSTEM.LIBRARY.PROJECT.OBJECTDISPLAYS.atvise_Advanced_Objects_Complementary_Elements.Maintenance_Advanced_Indicator" y="240">
  <atv:argument name="base" prefix="base"/>
 </svg>
 <path atv:refpx="467.068" atv:refpy="171.859" d="M439.471,89.742L494.663,181.812L494.663,253.975L439.471,253.975Z" fill="#999999" id="id_0"/>
 <path atv:refpx="331.331" atv:refpy="147.597" d="M199.408,41.219L463.253,41.219L463.253,89.742L439.471,89.742L439.471,205.452L463.253,205.452L463.253,253.975L199.408,253.975Z" fill="#B2B2B2" id="id_1" stroke="#4C4C4C" stroke-width="2"/>
 <path atv:refpx="216.684" atv:refpy="156.929" d="M181.46,59.881L251.908,59.881L251.908,253.975L181.46,253.975Z" fill="#999999" id="id_2"/>
 <path atv:refpx="216.684" atv:refpy="155.685" d="M181.46,63.614L251.908,63.614L251.908,247.754L181.46,247.754Z" fill="#B2B2B2" id="id_3"/>
 <path atv:refpx="216.684" atv:refpy="153.196" d="M181.46,71.079L251.908,71.079L251.908,235.313L181.46,235.313Z" fill="#CCCCCC" id="id_4"/>
 <path atv:refpx="216.684" atv:refpy="156.929" d="M181.46,59.881L251.908,59.881L251.908,253.975L181.46,253.975Z" fill="none" id="id_5" stroke="#4C4C4C" stroke-width="2"/>
 <path atv:refpx="467.965" atv:refpy="143.865" d="M441.266,197.987L463.253,197.987L463.253,181.812L494.663,181.812L494.663,166.882L461.458,102.184L461.458,89.742L441.266,89.742Z" fill="#CCCCCC" id="id_7" stroke="#4C4C4C" stroke-width="2"/>
 <path atv:refpx="482.324" atv:refpy="219.761" d="M465.945,185.545L498.702,185.545L498.702,253.975L465.945,253.975Z" fill="#CCCCCC" id="id_8" stroke="#4C4C4C" stroke-width="2"/>
 <path atv:refpx="415.241" atv:refpy="150.086" d="M428.702,224.115L428.702,76.056L423.766,76.056L423.766,94.719L401.779,94.719L401.779,205.452L423.766,205.452L423.766,224.115Z" fill="#999999" id="id_9"/>
 <path atv:refpx="412.773" atv:refpy="143.865" d="M401.779,94.719L423.766,94.719L423.766,193.01L401.779,193.01Z" fill="#CCCCCC" id="id_10"/>
 <path atv:refpx="402.004" atv:refpy="54.905" d="M388.766,52.416L415.241,52.416L415.241,57.393L388.766,57.393Z" fill="#7F7F7F" id="id_11"/>
 <path atv:refpx="208.159" atv:refpy="79.789" d="M194.921,76.056L221.395,76.056L221.395,83.521L194.921,83.521Z" fill="#7F7F7F" id="id_12"/>
 <path atv:refpx="322.806" atv:refpy="155.685" d="M256.844,63.614L388.766,63.614L388.766,247.754L256.844,247.754Z" fill="#7F7F7F" id="id_13" stroke="#4C4C4C" stroke-width="2"/>
 <path atv:refpx="322.581" atv:refpy="162.528" d="M373.061,247.754L364.536,253.975L356.01,253.975L311.139,247.754L252.805,235.313L251.908,89.742L311.139,78.544L356.01,71.079L364.536,71.079L373.061,76.056L380.241,89.742L386.523,105.917L390.561,127.068L393.254,150.707L393.254,174.347L390.561,197.987L386.523,219.138L380.241,235.313Z" fill="#CCCCCC" id="id_14" stroke="#4C4C4C" stroke-width="2"/>
 <path atv:refpx="203.672" atv:refpy="216.65" d="M189.985,227.847L189.985,205.452L217.357,205.452" fill="none" id="id_15" stroke="#FFFFFF" stroke-width="2"/>
 <path atv:refpx="305.633" atv:refpy="159.33" d="M300.023,192.301L298.677,186.08L296.882,178.615L295.087,168.661L295.087,159.952L296.882,149.998L298.677,141.289L300.023,136.312L303.613,131.335L306.754,126.359L310.344,126.359L313.485,131.335L316.177,136.312" fill="none" id="id_17" stroke="#FFFFFF" stroke-width="2"/>
 <path atv:refpx="354.216" atv:refpy="158.173" d="M346.587,202.964L343.895,193.01L341.651,181.812L339.856,169.37L339.856,155.684L341.651,144.487L343.895,132.045L346.587,123.335L350.626,118.358L355.113,113.382L360.049,113.382L364.536,118.358L368.574,123.335" fill="none" id="id_18" stroke="#FFFFFF" stroke-width="2"/>
 <path atv:refpx="476.715" atv:refpy="232.203" d="M469.984,247.754L483.445,216.65" fill="none" id="id_19" stroke="#FFFFFF" stroke-width="2"/>
 <path atv:refpx="426.235" atv:refpy="150.086" d="M428.702,76.056L428.702,224.115L423.766,224.115" fill="none" id="id_20" stroke="#FFFFFF" stroke-width="2"/>
 <path atv:refpx="412.773" atv:refpy="206.075" d="M423.766,205.452L401.779,205.452" fill="none" id="id_21" stroke="#FFFFFF" stroke-width="2"/>
 <path atv:refpx="483.67" atv:refpy="232.203" d="M483.445,247.754L483.445,216.65" fill="none" id="id_22" stroke="#7F7F7F" stroke-width="2"/>
 <path atv:refpx="423.991" atv:refpy="214.784" d="M423.766,224.115L423.766,205.452" fill="none" id="id_23" stroke="#7F7F7F" stroke-width="2"/>
 <path atv:refpx="412.773" atv:refpy="134.533" d="M423.766,76.056L423.766,193.01L401.779,193.01" fill="none" id="id_24" stroke="#7F7F7F" stroke-width="2"/>
 <path atv:refpx="412.773" atv:refpy="150.086" d="M401.779,205.452L401.779,94.719L423.766,94.719" fill="none" id="id_25" stroke="#7F7F7F" stroke-width="2"/>
 <path atv:refpx="430.273" atv:refpy="151.952" d="M463.253,227.847L397.292,227.847L397.292,76.056" fill="none" id="id_26" stroke="#7F7F7F" stroke-width="2"/>
 <path atv:refpx="360.946" atv:refpy="167.505" d="M368.574,123.335L372.164,132.045L374.407,144.487L375.305,155.684L375.305,169.37L374.407,181.812L372.164,193.01L368.574,202.964L364.536,207.94L360.049,211.673L355.113,211.673L350.626,207.94L346.587,202.964" fill="none" id="id_27" stroke="#7F7F7F" stroke-width="2"/>
 <path atv:refpx="311.363" atv:refpy="166.26" d="M316.972,134.533L319.664,139.51L321.01,148.219L321.908,158.173L321.908,166.882L321.01,176.836L319.664,184.301L316.972,190.522L314.28,195.498L311.139,197.987L307.549,197.987L304.408,195.498L300.818,190.522" fill="none" id="id_28" stroke="#7F7F7F" stroke-width="2"/>
 <path atv:refpx="203.672" atv:refpy="216.65" d="M189.985,227.847L217.357,227.847L217.357,205.452" fill="none" id="id_29" stroke="#7F7F7F" stroke-width="2"/>
 <path atv:refpx="143.095" atv:refpy="162.528" d="M104.729,253.975L104.729,71.079L172.934,71.079L181.46,76.056L181.46,247.754L172.934,253.975Z" fill="#B2B2B2" id="id_30"/>
 <path atv:refpx="143.095" atv:refpy="161.906" d="M104.729,247.754L104.729,76.056L172.934,76.056L181.46,83.521L181.46,242.778L172.934,247.754Z" fill="#BFBFBF" id="id_31"/>
 <path atv:refpx="143.095" atv:refpy="162.528" d="M104.729,235.313L104.729,89.742L172.934,89.742L181.46,94.719L181.46,230.336L172.934,235.313Z" fill="#CCCCCC" id="id_32"/>
 <path atv:refpx="143.095" atv:refpy="161.284" d="M104.729,216.65L104.729,105.917L172.934,105.917L181.46,110.893L181.46,214.161L172.934,216.65Z" fill="#D9D9D9" id="id_33"/>
 <path atv:refpx="143.095" atv:refpy="162.528" d="M104.729,193.01L104.729,132.045L172.934,132.045L181.46,134.533L181.46,190.522L172.934,193.01Z" fill="#E5E5E5" id="id_34"/>
 <path atv:refpx="143.095" atv:refpy="162.528" d="M104.729,253.975L104.729,71.079L172.934,71.079L181.46,76.056L181.46,247.754L172.934,253.975Z" fill="none" id="id_35" stroke="#4C4C4C" stroke-width="2"/>
 <path atv:refpx="90.371" atv:refpy="162.528" d="M104.729,71.079L76.011,76.056L76.011,247.754L104.729,253.975Z" fill="#999999" id="id_36"/>
 <path atv:refpx="90.371" atv:refpy="161.906" d="M104.729,76.056L76.011,83.521L76.011,242.778L104.729,247.754Z" fill="#B2B2B2" id="id_37"/>
 <path atv:refpx="90.371" atv:refpy="162.528" d="M104.729,89.742L76.011,94.719L76.011,230.336L104.729,235.313Z" fill="#CCCCCC" id="id_38"/>
 <path atv:refpx="134.345" atv:refpy="178.08" d="M104.729,113.382L163.96,113.382L163.96,242.778L104.729,242.778Z" fill="#666666" id="id_39"/>
 <path atv:refpx="78.031" atv:refpy="212.295" d="M76.011,181.812L80.05,181.812L80.05,242.778L76.011,242.778Z" fill="#666666" id="id_40"/>
 <path atv:refpx="78.031" atv:refpy="143.865" d="M76.011,113.382L80.05,113.382L80.05,174.347L76.011,174.347Z" fill="#666666" id="id_41"/>
 <path atv:refpx="135.467" atv:refpy="125.202" d="M104.729,124.579L166.203,124.579" fill="none" id="id_42" stroke="#4C4C4C" stroke-width="2"/>
 <path atv:refpx="135.467" atv:refpy="137.644" d="M104.729,137.021L166.203,137.021" fill="none" id="id_43" stroke="#4C4C4C" stroke-width="2"/>
 <path atv:refpx="135.467" atv:refpy="151.33" d="M104.729,150.707L166.203,150.707" fill="none" id="id_44" stroke="#4C4C4C" stroke-width="2"/>
 <path atv:refpx="135.467" atv:refpy="163.772" d="M104.729,163.149L166.203,163.149" fill="none" id="id_45" stroke="#4C4C4C" stroke-width="2"/>
 <path atv:refpx="135.467" atv:refpy="174.97" d="M104.729,174.347L166.203,174.347" fill="none" id="id_46" stroke="#4C4C4C" stroke-width="2"/>
 <path atv:refpx="135.467" atv:refpy="186.167" d="M104.729,185.545L166.203,185.545" fill="none" id="id_47" stroke="#4C4C4C" stroke-width="2"/>
 <path atv:refpx="135.467" atv:refpy="198.609" d="M104.729,197.987L166.203,197.987" fill="none" id="id_48" stroke="#4C4C4C" stroke-width="2"/>
 <path atv:refpx="135.467" atv:refpy="209.807" d="M104.729,209.185L166.203,209.185" fill="none" id="id_49" stroke="#4C4C4C" stroke-width="2"/>
 <path atv:refpx="135.467" atv:refpy="222.249" d="M104.729,221.626L166.203,221.626" fill="none" id="id_50" stroke="#4C4C4C" stroke-width="2"/>
 <path atv:refpx="135.467" atv:refpy="235.935" d="M104.729,235.313L166.203,235.313" fill="none" id="id_51" stroke="#4C4C4C" stroke-width="2"/>
 <path atv:refpx="135.467" atv:refpy="121.469" d="M104.729,120.847L166.203,120.847" fill="none" id="id_52" stroke="#4C4C4C" stroke-width="2"/>
 <path atv:refpx="135.467" atv:refpy="132.667" d="M104.729,132.045L166.203,132.045" fill="none" id="id_53" stroke="#4C4C4C" stroke-width="2"/>
 <path atv:refpx="135.467" atv:refpy="145.109" d="M104.729,144.487L166.203,144.487" fill="none" id="id_54" stroke="#4C4C4C" stroke-width="2"/>
 <path atv:refpx="135.467" atv:refpy="156.307" d="M104.729,155.684L166.203,155.684" fill="none" id="id_55" stroke="#4C4C4C" stroke-width="2"/>
 <path atv:refpx="135.467" atv:refpy="167.505" d="M104.729,166.882L166.203,166.882" fill="none" id="id_56" stroke="#4C4C4C" stroke-width="2"/>
 <path atv:refpx="135.467" atv:refpy="179.946" d="M104.729,179.324L166.203,179.324" fill="none" id="id_57" stroke="#4C4C4C" stroke-width="2"/>
 <path atv:refpx="135.467" atv:refpy="191.144" d="M104.729,190.522L166.203,190.522" fill="none" id="id_58" stroke="#4C4C4C" stroke-width="2"/>
 <path atv:refpx="135.467" atv:refpy="206.075" d="M104.729,205.452L166.203,205.452" fill="none" id="id_59" stroke="#4C4C4C" stroke-width="2"/>
 <path atv:refpx="135.467" atv:refpy="217.272" d="M104.729,216.65L166.203,216.65" fill="none" id="id_60" stroke="#4C4C4C" stroke-width="2"/>
 <path atv:refpx="135.737" atv:refpy="230.622" d="M105,230L166.474,230" fill="none" id="id_61" stroke="#4C4C4C" stroke-width="2"/>
 <path atv:refpx="90.371" atv:refpy="162.528" d="M104.729,71.079L76.011,76.056L76.011,247.754L104.729,253.975Z" fill="none" id="id_62" stroke="#4C4C4C" stroke-width="2"/>
 <rect atv:refpx="296.849" atv:refpy="142.5" fill="#000000" fill-opacity="0" height="285" id="click_area" stroke="#0000ff" stroke-width="0" width="430" x="80" y="0"/>
</svg>
