<?xml version='1.0' encoding='UTF-8' standalone='no'?>
<svg height="650" version="1.2" width="603" xmlns="http://www.w3.org/2000/svg" xmlns:atv="http://webmi.atvise.com/2007/svgext" xmlns:xlink="http://www.w3.org/1999/xlink">
 <defs/>
 <metadata>
  <atv:parameter behavior="optional" defaultvalue="SYSTEM.GLOBALS.Color_Global_1" desc="Color" name="Color" substitute="$Color$" valuetype="global"/>
  <atv:gridconfig enabled="true" gridstyle="lines" height="20" width="20"/>
  <atv:snapconfig enabled="true" height="10" width="10"/>
 </metadata>
 <text atv:refpx="49.476" atv:refpy="21" fill="$Color$" font-family="Arial" font-size="24" id="id_info" x="14.5" y="25.5">Conditions of</text>
 <script atv:desc="" atv:name="" type="text/ecmascript"><![CDATA[/*******Initialize Variables*******/


/*******Initial Conditions*******/
webMI.addOnload(function() {

	//Define Initial Text
    webMI.gfx.setText("id_info", "Conditions of: "+(webMI.query["base"]).split('.').pop());
});


]]></script>
 <svg atv:refpx="395" atv:refpy="555" height="30" id="id_11" transform="matrix(0.5625,0,0,1,0,0)" width="160" x="622.222" xlink:href="SYSTEM.LIBRARY.ATVISE.OBJECTDISPLAYS.Advanced.in_out_value" y="540">
  <atv:argument name="base" prefix="base" value=".Times.Time"/>
  <atv:argument name="unit" value="T{s}"/>
  <atv:argument name="fontSize" value="14"/>
  <atv:overwrite id="input_label" transform="matrix(1.7778,0,0,1,0,0)" x="82.055"/>
  <atv:overwrite id="blinking_frame" transform="matrix(1.7778,0,0,1,0,0)" width="82"/>
  <atv:overwrite id="focus_frame" transform="matrix(1.7778,0,0,1,0,0)" width="86"/>
  <atv:overwrite id="input_bg" transform="matrix(1.7778,0,0,1,0,0)" width="82"/>
  <atv:overwrite id="id_1" transform="matrix(1.7778,0,0,1,0,0)" width="88"/>
  <atv:overwrite id="id_0" transform="matrix(1.7778,0,0,1,0,0)" width="90"/>
 </svg>
 <text atv:refpx="208.105" atv:refpy="911.404" fill="#000000" font-family="Arial" font-size="12" font-weight="bold" id="id_12" x="354.5" y="526">Operating Time</text>
 <svg atv:refpx="297.002" atv:refpy="124.001" height="106" id="id_2" transform="matrix(0.8338,0,0,0.8302,0,0)" width="544.5" x="83.953" xlink:href="SYSTEM.LIBRARY.PROJECT.OBJECTDISPLAYS.atvise_Advanced_Objects_Complementary_Elements.Indicator_Slider_Complementary_Element" y="96.362">
  <atv:argument name="Label" value="Gas Production Rate"/>
  <atv:argument name="Input" prefix="base" value=".Variables.Gas_Production_Rate"/>
  <atv:argument name="Object_Conditions" prefix="base" value=".Parameters.Object_Conditions"/>
  <atv:argument name="Alert_Range" prefix="base" value=".Parameters.Alert_Range"/>
  <atv:argument name="Unit" value="m3/h"/>
  <atv:argument name="Color" prefix="Color" value=""/>
 </svg>
 <svg atv:refpx="297.002" atv:refpy="317.334" height="106" id="id_4" transform="matrix(0.8338,0,0,0.8302,0,0)" width="544.5" x="83.953" xlink:href="SYSTEM.LIBRARY.PROJECT.OBJECTDISPLAYS.atvise_Advanced_Objects_Complementary_Elements.Indicator_Slider_Complementary_Element" y="329.238">
  <atv:argument name="Label" value="Temperature"/>
  <atv:argument name="Input" prefix="base" value=".Variables.Temperature"/>
  <atv:argument name="Object_Conditions" prefix="base" value=".Parameters.Object_Conditions"/>
  <atv:argument name="Alert_Range" prefix="base" value=".Parameters.Alert_Range"/>
  <atv:argument name="Unit" value="ºC"/>
  <atv:argument name="Color" prefix="Color" value=""/>
 </svg>
 <svg atv:refpx="297.002" atv:refpy="414.001" height="106" id="id_13" transform="matrix(0.8338,0,0,0.8302,0,0)" width="544.5" x="83.953" xlink:href="SYSTEM.LIBRARY.PROJECT.OBJECTDISPLAYS.atvise_Advanced_Objects_Complementary_Elements.Indicator_Slider_Complementary_Element" y="445.675">
  <atv:argument name="Label" value="Pressure"/>
  <atv:argument name="Input" prefix="base" value=".Variables.Pressure"/>
  <atv:argument name="Object_Conditions" prefix="base" value=".Parameters.Object_Conditions"/>
  <atv:argument name="Alert_Range" prefix="base" value=".Parameters.Alert_Range"/>
  <atv:argument name="Unit" value="Pa"/>
  <atv:argument name="Color" prefix="Color" value=""/>
 </svg>
 <svg atv:refpx="297.002" atv:refpy="220.668" height="106" id="id_5" transform="matrix(0.8338,0,0,0.8302,0,0)" width="544.5" x="83.953" xlink:href="SYSTEM.LIBRARY.PROJECT.OBJECTDISPLAYS.atvise_Advanced_Objects_Complementary_Elements.Indicator_Slider_Complementary_Element" y="212.8">
  <atv:argument name="Label" value="pH"/>
  <atv:argument name="Input" prefix="base" value=".Variables.pH"/>
  <atv:argument name="Object_Conditions" prefix="base" value=".Parameters.Object_Conditions"/>
  <atv:argument name="Alert_Range" prefix="base" value=".Parameters.Alert_Range"/>
  <atv:argument name="Unit" value="pH"/>
  <atv:argument name="Color" prefix="Color" value=""/>
 </svg>
 <svg atv:refpx="275" atv:refpy="555" height="30" id="id_6" transform="matrix(0.5625,0,0,1,0,0)" width="160" x="408.889" xlink:href="SYSTEM.LIBRARY.ATVISE.OBJECTDISPLAYS.Advanced.in_out_value" y="540">
  <atv:argument name="base" prefix="base" value=".Variables.Methane_Concentration"/>
  <atv:argument name="unit" value="T{%}"/>
  <atv:argument name="fontSize" value="14"/>
  <atv:overwrite id="input_label" transform="matrix(1.7778,0,0,1,0,0)" x="82.055"/>
  <atv:overwrite id="blinking_frame" transform="matrix(1.7778,0,0,1,0,0)" width="82"/>
  <atv:overwrite id="focus_frame" transform="matrix(1.7778,0,0,1,0,0)" width="86"/>
  <atv:overwrite id="input_bg" transform="matrix(1.7778,0,0,1,0,0)" width="82"/>
  <atv:overwrite id="id_1" transform="matrix(1.7778,0,0,1,0,0)" width="88"/>
  <atv:overwrite id="id_0" transform="matrix(1.7778,0,0,1,0,0)" width="90"/>
 </svg>
 <text atv:refpx="144.863" atv:refpy="911.404" fill="#000000" font-family="Arial" font-size="12" font-weight="bold" id="id_7" x="234.5" y="526">Methane</text>
</svg>
