<!DOCTYPE svg PUBLIC '-//W3C//DTD SVG 1.1//EN' 'http://www.w3.org/Graphics/SVG/1.1/DTD/svg11.dtd'>
<svg enable-background="new 0 0 112.5 47.182" height="47.182000000000002" version="1.1" width="112.5" xml:space="preserve" xmlns="http://www.w3.org/2000/svg" xmlns:atv="http://webmi.atvise.com/2007/svgext" xmlns:xlink="http://www.w3.org/1999/xlink">
 <defs>
  <linearGradient gradientUnits="objectBoundingBox" id="SVGID_1_" x1="0.499898" x2="0.499898" y1="1.00002" y2="1.62054e-05">
   <stop offset="0" stop-color="#383838"/>
   <stop offset="0.45" stop-color="#ECECEC"/>
   <stop offset="0.55" stop-color="#D9D9D9"/>
   <stop offset="0.76" stop-color="#A8A8A8"/>
   <stop offset="0.77" stop-color="#A6A6A6"/>
   <stop offset="1" stop-color="#383838"/>
  </linearGradient>
  <linearGradient gradientUnits="objectBoundingBox" id="SVGID_2_" x1="0.499898" x2="0.499898" y1="1" y2="1.192e-05">
   <stop offset="0" stop-color="#383838"/>
   <stop offset="0.45" stop-color="#ECECEC"/>
   <stop offset="0.55" stop-color="#D9D9D9"/>
   <stop offset="0.76" stop-color="#A8A8A8"/>
   <stop offset="0.77" stop-color="#A6A6A6"/>
   <stop offset="1" stop-color="#383838"/>
  </linearGradient>
  <linearGradient gradientUnits="objectBoundingBox" id="SVGID_3_" x1="0.500012" x2="0.500012" y1="1.00002" y2="1.20012e-05">
   <stop offset="0" stop-color="#383838"/>
   <stop offset="0.45" stop-color="#ECECEC"/>
   <stop offset="0.55" stop-color="#D9D9D9"/>
   <stop offset="0.76" stop-color="#A8A8A8"/>
   <stop offset="0.77" stop-color="#A6A6A6"/>
   <stop offset="1" stop-color="#383838"/>
  </linearGradient>
  <linearGradient gradientUnits="objectBoundingBox" id="SVGID_5_" x1="0.500048" x2="0.500048" y1="0.999992" y2="8.00032e-06">
   <stop offset="0" stop-color="#383838"/>
   <stop offset="0.45" stop-color="#ECECEC"/>
   <stop offset="0.55" stop-color="#D9D9D9"/>
   <stop offset="0.76" stop-color="#A8A8A8"/>
   <stop offset="0.77" stop-color="#A6A6A6"/>
   <stop offset="1" stop-color="#383838"/>
  </linearGradient>
  <linearGradient gradientUnits="objectBoundingBox" id="SVGID_6_" x1="-2.91184e-05" x2="0.999993" y1="0.499986" y2="0.499986">
   <stop offset="0" stop-color="#383838"/>
   <stop offset="0.45" stop-color="#ECECEC"/>
   <stop offset="0.55" stop-color="#D9D9D9"/>
   <stop offset="0.76" stop-color="#A8A8A8"/>
   <stop offset="0.77" stop-color="#A6A6A6"/>
   <stop offset="1" stop-color="#383838"/>
  </linearGradient>
  <linearGradient gradientUnits="objectBoundingBox" id="SVGID_7_" x1="1.49e-05" x2="1" y1="0.499961" y2="0.499961">
   <stop offset="0" stop-color="#383838"/>
   <stop offset="0.45" stop-color="#ECECEC"/>
   <stop offset="0.55" stop-color="#D9D9D9"/>
   <stop offset="0.76" stop-color="#A8A8A8"/>
   <stop offset="0.77" stop-color="#A6A6A6"/>
   <stop offset="1" stop-color="#383838"/>
  </linearGradient>
  <linearGradient gradientUnits="objectBoundingBox" id="SVGID_8_" x1="0.500068" x2="0.500068" y1="0.999992" y2="8.00032e-06">
   <stop offset="0" stop-color="#383838"/>
   <stop offset="0.45" stop-color="#ECECEC"/>
   <stop offset="0.55" stop-color="#D9D9D9"/>
   <stop offset="0.76" stop-color="#A8A8A8"/>
   <stop offset="0.77" stop-color="#A6A6A6"/>
   <stop offset="1" stop-color="#383838"/>
  </linearGradient>
  <linearGradient gradientUnits="objectBoundingBox" id="SVGID_9_" x1="0.499982" x2="0.499982" y1="0.999992" y2="8.00032e-06">
   <stop offset="0" stop-color="#383838"/>
   <stop offset="0.45" stop-color="#ECECEC"/>
   <stop offset="0.55" stop-color="#D9D9D9"/>
   <stop offset="0.76" stop-color="#A8A8A8"/>
   <stop offset="0.77" stop-color="#A6A6A6"/>
   <stop offset="1" stop-color="#383838"/>
  </linearGradient>
  <linearGradient gradientUnits="objectBoundingBox" id="SVGID_10_" x1="0.500036" x2="0.500036" y1="0.999989" y2="1.34927e-05">
   <stop offset="0" stop-color="#383838"/>
   <stop offset="0.45" stop-color="#ECECEC"/>
   <stop offset="0.55" stop-color="#D9D9D9"/>
   <stop offset="0.76" stop-color="#A8A8A8"/>
   <stop offset="0.77" stop-color="#A6A6A6"/>
   <stop offset="1" stop-color="#383838"/>
  </linearGradient>
  <linearGradient gradientUnits="objectBoundingBox" id="SVGID_11_" x1="0.499968" x2="0.499968" y1="1.00003" y2="4.59348e-05">
   <stop offset="0" stop-color="#383838"/>
   <stop offset="0.45" stop-color="#ECECEC"/>
   <stop offset="0.55" stop-color="#D9D9D9"/>
   <stop offset="0.76" stop-color="#A8A8A8"/>
   <stop offset="0.77" stop-color="#A6A6A6"/>
   <stop offset="1" stop-color="#383838"/>
  </linearGradient>
  <radialGradient cx="0.253238" cy="0.479411" fx="0.253238" fy="0.479411" gradientUnits="objectBoundingBox" id="SVGID_4_" r="0.754583">
   <stop offset="0" stop-color="#ECECEC"/>
   <stop offset="0.14" stop-color="#DDDDDD"/>
   <stop offset="0.4" stop-color="#B8B8B8"/>
   <stop offset="0.75" stop-color="#7C7C7C"/>
   <stop offset="1" stop-color="#4D4D4D"/>
  </radialGradient>
 </defs>
 <metadata>
  <atv:gridconfig enabled="false" gridstyle="lines" height="20" width="20"/>
  <atv:snapconfig enabled="false" height="10" width="10"/>
 </metadata>
 <g atv:refpx="56.247" atv:refpy="23.591" id="id_28">
  <g atv:refpx="109.681" atv:refpy="29.052" id="Group_SuctionFlange">
   <path atv:refpx="109.681" atv:refpy="29.052" d="M108.217,13.625L111.145,13.625L111.145,44.479L108.217,44.479Z" fill="url(#SVGID_1_)" id="id_0"/>
  </g>
  <g atv:refpx="44.424" atv:refpy="29.723" id="Group_PumpBody">
   <path atv:refpx="87.386" atv:refpy="29.053" d="M85.922,12.274L88.85,12.274L88.85,45.831L85.922,45.831Z" fill="url(#SVGID_2_)" id="id_1"/>
   <path atv:refpx="44.257" atv:refpy="28.939" d="M10.926,45.604L66.551,45.604L77.588,42.902L77.588,14.977L66.551,12.274L10.926,12.274Z" fill="url(#SVGID_3_)" id="id_2"/>
   <path atv:refpx="38.739" atv:refpy="46.393" d="M10.926,45.612L66.551,45.612L66.551,47.174L10.926,47.174Z" fill="#333333" id="id_3"/>
   <path atv:refpx="5.462" atv:refpy="28.939" d="M10.926,45.604C1.666,43.789 -0.002,40.384 -0.002,28.766C-0.002,17.191 2.166,14.19 10.926,12.273" fill="url(#SVGID_4_)" id="id_4"/>
   <path atv:refpx="81.755" atv:refpy="29.053" d="M77.589,16.553L85.922,16.553L85.922,41.552L77.589,41.552Z" fill="url(#SVGID_5_)" id="id_5"/>
  </g>
  <g atv:refpx="54.055" atv:refpy="26.913" id="Group_Heat_Sink_Shade">
   <path atv:refpx="43.02" atv:refpy="26.237" d="M22.187,12.274L63.852,12.274L63.852,40.2L22.187,40.2Z" fill="#333333" id="id_6"/>
   <path atv:refpx="81.755" atv:refpy="40.2" d="M77.589,38.849L85.922,38.849L85.922,41.552L77.589,41.552Z" fill="#333333" id="id_7"/>
   <path atv:refpx="81.755" atv:refpy="32.993" d="M77.589,30.966L85.922,30.966L85.922,35.021L77.589,35.021Z" fill="#333333" id="id_8"/>
   <path atv:refpx="81.755" atv:refpy="25.111" d="M77.589,23.084L85.922,23.084L85.922,27.137L77.589,27.137Z" fill="#333333" id="id_9"/>
   <path atv:refpx="81.755" atv:refpy="17.904" d="M77.589,16.553L85.922,16.553L85.922,19.256L77.589,19.256Z" fill="#333333" id="id_10"/>
  </g>
  <g atv:refpx="40.767" atv:refpy="24.886" id="Group_HeatSink">
   <path atv:refpx="40.767" atv:refpy="31.868" d="M16.557,30.517L64.977,30.517L64.977,33.219L16.557,33.219Z" fill="#B2B2B2" id="id_11"/>
   <path atv:refpx="40.767" atv:refpy="37.385" d="M16.557,35.921L64.977,35.921L64.977,38.849L16.557,38.849Z" fill="#B2B2B2" id="id_12"/>
   <path atv:refpx="40.767" atv:refpy="20.719" d="M16.557,19.255L64.977,19.255L64.977,22.183L16.557,22.183Z" fill="#CCCCCC" id="id_13"/>
   <path atv:refpx="40.767" atv:refpy="26.237" d="M16.557,24.886L64.977,24.886L64.977,27.589L16.557,27.589Z" fill="#CCCCCC" id="id_14"/>
   <path atv:refpx="40.767" atv:refpy="15.089" d="M16.557,13.625L64.977,13.625L64.977,16.553L16.557,16.553Z" fill="#E5E5E5" id="id_15"/>
   <path atv:refpx="40.767" atv:refpy="11.599" d="M16.557,10.923L64.977,10.923L64.977,12.274L16.557,12.274Z" fill="#E5E5E5" id="id_16"/>
  </g>
  <g atv:refpx="95.718" atv:refpy="9.572" id="Group_DischargePipe">
   <path atv:refpx="95.718" atv:refpy="9.572" d="M91.552,16.553L88.85,2.59L102.586,2.59L99.884,16.552Z" fill="url(#SVGID_6_)" id="id_17"/>
  </g>
  <g atv:refpx="95.718" atv:refpy="1.295" id="Group_DischargeFlange">
   <path atv:refpx="95.718" atv:refpy="1.295" d="M78.939,2.59L78.939,0L112.496,0L112.496,2.59Z" fill="url(#SVGID_7_)" id="id_18"/>
  </g>
  <g atv:refpx="98.534" atv:refpy="28.654" id="Group_Suction">
   <path atv:refpx="90.326" atv:refpy="29.053" d="M88.85,16.553L91.801,16.553L91.801,41.552L88.85,41.552Z" fill="url(#SVGID_8_)" id="id_19"/>
   <polygon atv:refpx="102.586" atv:refpy="29.053" fill="url(#SVGID_9_)" id="id_20" points="99.771,16.553 99.771,41.552 105.401,38.849 105.401,19.255  "/>
   <path atv:refpx="106.015" atv:refpy="29.052" d="M105.515,38.849L105.515,19.255" fill="none" id="id_21" stroke="#4C4C4C" stroke-width="0.25"/>
   <path atv:refpx="95.719" atv:refpy="28.654" d="M91.552,10.125L99.885,10.125L99.885,47.182L91.552,47.182Z" fill="url(#SVGID_10_)" id="id_22"/>
   <rect atv:refpx="106.651" atv:refpy="29.051" fill="url(#SVGID_11_)" height="19.593" id="id_23" width="3.133" x="105.084" y="19.255"/>
  </g>
  <g atv:refpx="31.082" atv:refpy="36.709" id="Group_Box">
   <path atv:refpx="30.407" atv:refpy="36.709" d="M19.259,26.237L41.555,26.237L41.555,47.181L19.259,47.181Z" fill="#666666" id="id_24"/>
   <path atv:refpx="29.844" atv:refpy="36.822" d="M22.187,44.479L22.187,29.165L37.501,29.165" fill="none" id="id_25" stroke="#FFFFFF" stroke-width="0.25"/>
   <path atv:refpx="42.23" atv:refpy="35.924" d="M41.555,26.237L42.906,26.237L42.906,45.611L41.555,45.611Z" fill="#333333" id="id_26"/>
  </g>
  <g atv:refpx="31.758" atv:refpy="36.034" id="Group_WireBox_Sticker">
   <circle atv:refpx="31.758" atv:refpy="36.034" cx="31.758" cy="36.034" fill="#4C7F7F" id="id_27" r="4.167"/>
  </g>
 </g>
</svg>
