<?xml version='1.0' encoding='UTF-8' standalone='no'?>
<svg height="186.61000000000001" version="1.2" width="255.37" xmlns="http://www.w3.org/2000/svg" xmlns:atv="http://webmi.atvise.com/2007/svgext" xmlns:xlink="http://www.w3.org/1999/xlink">
 <defs>
  <linearGradient gradientUnits="objectBoundingBox" id="id_33_fill_gradient" spreadMethod="reflect" x1="0.0675676" x2="0.581081" y1="1" y2="1">
   <stop offset="0" stop-color="#999999"/>
   <stop offset="1" stop-color="#e5e5e5"/>
  </linearGradient>
  <linearGradient gradientUnits="objectBoundingBox" id="id_34_fill_gradient" spreadMethod="reflect" x1="-0.135135" x2="0.405405" y1="0.986486" y2="0.972973">
   <stop offset="0" stop-color="#999999"/>
   <stop offset="1" stop-color="#e5e5e5"/>
  </linearGradient>
  <linearGradient gradientUnits="objectBoundingBox" id="id_41_fill_gradient" spreadMethod="reflect" x1="-0.135135" x2="0.405405" y1="1" y2="0.972973">
   <stop offset="0" stop-color="#999999"/>
   <stop offset="1" stop-color="#e5e5e5"/>
  </linearGradient>
  <linearGradient gradientUnits="objectBoundingBox" id="id_42_fill_gradient" spreadMethod="reflect" x1="-0.135135" x2="0.405405" y1="0.986486" y2="0.972973">
   <stop offset="0" stop-color="#999999"/>
   <stop offset="1" stop-color="#e5e5e5"/>
  </linearGradient>
  <radialGradient cx="0.5" cy="0.5" fx="0.5" fy="0.5" gradientUnits="objectBoundingBox" id="id_42_stroke_gradient" r="1">
   <stop offset="0" stop-color="#000000"/>
   <stop offset="1" stop-color="#ffffff"/>
  </radialGradient>
  <linearGradient gradientUnits="objectBoundingBox" id="id_43_fill_gradient" spreadMethod="reflect" x1="-0.135135" x2="0.405405" y1="1" y2="0.972973">
   <stop offset="0" stop-color="#999999"/>
   <stop offset="1" stop-color="#e5e5e5"/>
  </linearGradient>
  <radialGradient cx="0.5" cy="0.5" fx="0.5" fy="0.5" gradientUnits="objectBoundingBox" id="id_44_fill_gradient" r="0.514579">
   <stop offset="0.6088709677419355" stop-color="#e4e4e4"/>
   <stop offset="1" stop-color="#9a9a9a"/>
  </radialGradient>
  <radialGradient cx="0.5" cy="0.5" fx="0.5" fy="0.5" gradientUnits="objectBoundingBox" id="id_7_fill_gradient" r="0.514579">
   <stop offset="0.6088709677419355" stop-color="#e4e4e4"/>
   <stop offset="1" stop-color="#9a9a9a"/>
  </radialGradient>
  <linearGradient gradientUnits="objectBoundingBox" id="linear_0" x1="0" x2="1" y1="0" y2="1">
   <stop offset="0" stop-color="#000000"/>
   <stop offset="1" stop-color="#000000" stop-opacity="0"/>
  </linearGradient>
  <linearGradient gradientUnits="objectBoundingBox" id="SVGID_10_" x1="-1.47761e-06" x2="0.999994" y1="0.499972" y2="0.499972">
   <stop offset="0.01" stop-color="#4D4D4D"/>
   <stop offset="0.51" stop-color="#F5F5F5"/>
   <stop offset="1" stop-color="#4D4D4D"/>
  </linearGradient>
  <linearGradient gradientUnits="objectBoundingBox" id="SVGID_11_" x1="-2.61171e-17" x2="0.999994" y1="0.500028" y2="0.500028">
   <stop offset="0.01" stop-color="#4D4D4D"/>
   <stop offset="0.51" stop-color="#F5F5F5"/>
   <stop offset="1" stop-color="#4D4D4D"/>
  </linearGradient>
  <linearGradient gradientUnits="objectBoundingBox" id="SVGID_12_" x1="-1.46544e-06" x2="1.00001" y1="0.499829" y2="0.499829">
   <stop offset="0.01" stop-color="#4D4D4D"/>
   <stop offset="0.51" stop-color="#F5F5F5"/>
   <stop offset="1" stop-color="#4D4D4D"/>
  </linearGradient>
  <linearGradient gradientUnits="objectBoundingBox" id="SVGID_13_" x1="0" x2="0.999993" y1="0.499718" y2="0.499718">
   <stop offset="0.01" stop-color="#4D4D4D"/>
   <stop offset="0.51" stop-color="#F5F5F5"/>
   <stop offset="1" stop-color="#4D4D4D"/>
  </linearGradient>
  <linearGradient gradientUnits="objectBoundingBox" id="SVGID_14_" x1="-1.46542e-06" x2="0.999994" y1="0.499934" y2="0.499934">
   <stop offset="0.01" stop-color="#4D4D4D"/>
   <stop offset="0.51" stop-color="#F5F5F5"/>
   <stop offset="1" stop-color="#4D4D4D"/>
  </linearGradient>
  <linearGradient gradientUnits="objectBoundingBox" id="SVGID_15_" x1="0" x2="1" y1="0.500026" y2="0.500026">
   <stop offset="0.01" stop-color="#4D4D4D"/>
   <stop offset="0.51" stop-color="#F5F5F5"/>
   <stop offset="1" stop-color="#4D4D4D"/>
  </linearGradient>
  <linearGradient gradientUnits="objectBoundingBox" id="SVGID_16_" x1="-1.47763e-06" x2="1.00001" y1="0.50014" y2="0.50014">
   <stop offset="0.01" stop-color="#4D4D4D"/>
   <stop offset="0.51" stop-color="#F5F5F5"/>
   <stop offset="1" stop-color="#4D4D4D"/>
  </linearGradient>
  <linearGradient gradientUnits="objectBoundingBox" id="SVGID_1_" x1="0.500152" x2="0.500152" y1="1.00001" y2="-1.2596e-05">
   <stop offset="0.01" stop-color="#474747"/>
   <stop offset="0.51" stop-color="#F5F5F5"/>
   <stop offset="1" stop-color="#474747"/>
  </linearGradient>
  <linearGradient gradientUnits="objectBoundingBox" id="SVGID_2_" x1="0.499992" x2="0.499992" y1="0.999965" y2="-2.30654e-05">
   <stop offset="0.01" stop-color="#4D4D4D"/>
   <stop offset="0.51" stop-color="#F5F5F5"/>
   <stop offset="1" stop-color="#4D4D4D"/>
  </linearGradient>
  <linearGradient gradientUnits="objectBoundingBox" id="SVGID_3_" x1="0" x2="1.00002" y1="0.5" y2="0.5">
   <stop offset="0.01" stop-color="#4D4D4D"/>
   <stop offset="0.51" stop-color="#F5F5F5"/>
   <stop offset="1" stop-color="#4D4D4D"/>
  </linearGradient>
  <radialGradient cx="0.500016" cy="0.500087" fx="0.500016" fy="0.500087" gradientUnits="objectBoundingBox" id="SVGID_4_" r="0.500573">
   <stop offset="0.28" stop-color="#F5F5F5"/>
   <stop offset="1" stop-color="#575757"/>
  </radialGradient>
  <linearGradient gradientUnits="objectBoundingBox" id="SVGID_5_" x1="0.5" x2="0.499999" y1="1" y2="-8.91615e-06">
   <stop offset="0.01" stop-color="#3D3D3D"/>
   <stop offset="0.51" stop-color="#F5F5F5"/>
   <stop offset="1" stop-color="#575757"/>
  </linearGradient>
  <linearGradient gradientUnits="objectBoundingBox" id="SVGID_6_" x1="0.5" x2="0.5" y1="1.00002" y2="-1.61173e-06">
   <stop offset="0.01" stop-color="#4D4D4D"/>
   <stop offset="0.51" stop-color="#F5F5F5"/>
   <stop offset="1" stop-color="#4D4D4D"/>
  </linearGradient>
  <linearGradient gradientUnits="objectBoundingBox" id="SVGID_7_" x1="-2.97009e-06" x2="1.00001" y1="0.500021" y2="0.500021">
   <stop offset="0.01" stop-color="#4D4D4D"/>
   <stop offset="0.51" stop-color="#F5F5F5"/>
   <stop offset="1" stop-color="#4D4D4D"/>
  </linearGradient>
  <linearGradient gradientUnits="objectBoundingBox" id="SVGID_8_" x1="-1.49e-06" x2="0.999994" y1="0.500039" y2="0.500039">
   <stop offset="0.01" stop-color="#4D4D4D"/>
   <stop offset="0.51" stop-color="#F5F5F5"/>
   <stop offset="1" stop-color="#4D4D4D"/>
  </linearGradient>
  <linearGradient gradientUnits="objectBoundingBox" id="SVGID_9_" x1="-2.97005e-06" x2="0.999994" y1="0.500062" y2="0.500062">
   <stop offset="0.01" stop-color="#4D4D4D"/>
   <stop offset="0.51" stop-color="#F5F5F5"/>
   <stop offset="1" stop-color="#4D4D4D"/>
  </linearGradient>
  <linearGradient gradientUnits="objectBoundingBox" id="linear_1" x1="0.499997" x2="0.499997" y1="1" y2="-1.61132e-05">
   <stop offset="0.01" stop-color="#474747"/>
   <stop offset="0.16" stop-color="#494949"/>
   <stop offset="0.24" stop-color="#515151"/>
   <stop offset="0.3" stop-color="#5E5E5E"/>
   <stop offset="0.35" stop-color="#707070"/>
   <stop offset="0.39" stop-color="#898989"/>
   <stop offset="0.43" stop-color="#A6A6A6"/>
   <stop offset="0.47" stop-color="#C9C9C9"/>
   <stop offset="0.5" stop-color="#F1F1F1"/>
   <stop offset="0.51" stop-color="#F5F5F5"/>
   <stop offset="1" stop-color="#474747"/>
  </linearGradient>
  <linearGradient gradientUnits="objectBoundingBox" id="linear_2" x1="0.499996" x2="0.499996" y1="1" y2="-8.4093e-06">
   <stop offset="0.01" stop-color="#474747"/>
   <stop offset="0.16" stop-color="#494949"/>
   <stop offset="0.24" stop-color="#515151"/>
   <stop offset="0.3" stop-color="#5E5E5E"/>
   <stop offset="0.35" stop-color="#707070"/>
   <stop offset="0.39" stop-color="#898989"/>
   <stop offset="0.43" stop-color="#A6A6A6"/>
   <stop offset="0.47" stop-color="#C9C9C9"/>
   <stop offset="0.5" stop-color="#F1F1F1"/>
   <stop offset="0.51" stop-color="#F5F5F5"/>
   <stop offset="1" stop-color="#474747"/>
  </linearGradient>
  <linearGradient gradientUnits="objectBoundingBox" id="linear_3" x1="0.499994" x2="0.499994" y1="1.00001" y2="5.56746e-06">
   <stop offset="0.01" stop-color="#4D4D4D"/>
   <stop offset="0.27" stop-color="#F5F5F5"/>
   <stop offset="1" stop-color="#4D4D4D"/>
  </linearGradient>
  <linearGradient gradientUnits="objectBoundingBox" id="linear_4" x1="0.500081" x2="0.500081" y1="0.999972" y2="-3.33e-05">
   <stop offset="0.01" stop-color="#4D4D4D"/>
   <stop offset="0.51" stop-color="#F5F5F5"/>
   <stop offset="1" stop-color="#4D4D4D"/>
  </linearGradient>
  <linearGradient gradientUnits="objectBoundingBox" id="linear_5" x1="0.500055" x2="0.500055" y1="0.999959" y2="-8.22233e-06">
   <stop offset="0.01" stop-color="#4D4D4D"/>
   <stop offset="0.51" stop-color="#F5F5F5"/>
   <stop offset="1" stop-color="#4D4D4D"/>
  </linearGradient>
  <linearGradient gradientUnits="objectBoundingBox" id="linear_6" x1="0.499995" x2="0.499995" y1="1.00003" y2="-4.55373e-05">
   <stop offset="0.01" stop-color="#575757"/>
   <stop offset="0.51" stop-color="#F5F5F5"/>
   <stop offset="1" stop-color="#575757"/>
  </linearGradient>
  <linearGradient gradientUnits="objectBoundingBox" id="linear_7" x1="0" x2="0.999986" y1="0.5" y2="0.5">
   <stop offset="0.01" stop-color="#4D4D4D"/>
   <stop offset="0.51" stop-color="#F5F5F5"/>
   <stop offset="1" stop-color="#4D4D4D"/>
  </linearGradient>
 </defs>
 <metadata>
  <atv:parameter behavior="optional" defaultvalue="SYSTEM.GLOBALS.Color_Global_1" desc="Color" name="Color" substitute="$Color$" valuetype="global"/>
  <atv:parameter behavior="optional" defaultvalue="SYSTEM.GLOBALS.Maintenance_Electric_Motor" desc="Global Maintenance" name="Global_Maintenance" valuetype="global"/>
  <atv:gridconfig enabled="true" gridstyle="lines" height="20" width="20"/>
  <atv:snapconfig enabled="true" height="1" width="1"/>
 </metadata>
 <text atv:refpx="121.738" atv:refpy="27.984" fill="$Color$" font-family="Arial" font-size="14" font-weight="bold" id="Title" x="100.5" y="33.484">Name</text>
 <svg atv:refpx="108" atv:refpy="174.486" height="30" id="id_2" transform="matrix(1,0,0,0.6667,0,0)" width="80" x="68" xlink:href="SYSTEM.LIBRARY.ATVISE.OBJECTDISPLAYS.Advanced.button_switch" y="246.72">
  <atv:argument name="base" prefix="base" value=".Variables.OnOff"/>
  <atv:argument name="labelOn" value="T{Stop}"/>
  <atv:argument name="labelOff" value="T{Start}"/>
  <atv:overwrite height="18.001" id="id_6" transform="matrix(1,0,0,1.4999,0,0)"/>
  <atv:overwrite id="button_label" transform="matrix(1,0,0,1.4999,0,0)" y="14.5"/>
  <atv:overwrite id="button_symbol_off" transform="matrix(1,0,0,1.4999,0,0)" y="0"/>
  <atv:overwrite id="button_symbol_on" transform="matrix(1,0,0,1.4999,0,0)" y="0"/>
  <atv:overwrite height="16.001" id="blinking_frame" transform="matrix(1,0,0,1.4999,0,0)"/>
  <atv:overwrite height="16.001" id="button_stroke" transform="matrix(1,0,0,1.4999,0,0)"/>
  <atv:overwrite height="18.001" id="button_bg" transform="matrix(1,0,0,1.4999,0,0)"/>
  <atv:overwrite height="20.001" id="outer_frame" transform="matrix(1,0,0,1.4999,0,0)"/>
 </svg>
 <text atv:refpx="90.123" atv:refpy="153.984" fill="#195c88" font-family="Arial" font-size="12" font-weight="bold" id="id_49" x="72.967" y="158.484">On/Off</text>
 <polygon atv:refpx="63.671" atv:refpy="38.519" fill="#fdf90a" id="alert_increasing" points="51.67,50.518 75.67,50.518 63.003,26.518" stroke="#000000" stroke-width="1"/>
 <g atv:refpx="24.062" atv:refpy="168.546" id="maintenance" transform="matrix(1,0,0,1,-0.5819,13.9015)">
  <rect atv:refpx="46.171" atv:refpy="204.643" fill="#2b9de8" height="24.544" id="id_39" stroke="#000000" stroke-width="1" transform="matrix(0.7071,-0.7071,0.7071,0.7071,0,0)" width="24.544" x="-104.196" y="114.505"/>
  <text atv:refpx="28" atv:refpy="149.5" fill="#000000" font-family="Arial" font-size="14" id="id_40" x="18.5" y="160">M</text>
 </g>
 <polygon atv:refpx="11.207" atv:refpy="41.103" fill="#fdbf21" id="alert_decreasing" points="25.872,29.102 1.87,29.102 14.536,53.103" stroke="#000000" stroke-width="1"/>
 <text atv:refpx="64.671" atv:refpy="43.019" fill="#000000" font-family="Arial" font-size="14" font-weight="bold" id="alertC_text" text-anchor="end" x="66.171" y="47.519">1</text>
 <text atv:refpx="14.459" atv:refpy="38.101" fill="#000000" font-family="Arial" font-size="14" font-weight="bold" id="alertD_text" x="10.959" y="42.601">1</text>
 <rect atv:refpx="9.088" atv:refpy="-57.049" fill="#93060a" fill-opacity="0" height="42" id="click_area_alertC" stroke="none" stroke-width="0" width="28" x="50" y="11.484"/>
 <rect atv:refpx="14" atv:refpy="43.484" fill="#93060a" fill-opacity="0" height="42" id="click_area_alertD" stroke="none" stroke-width="0" width="28" x="0" y="24.484"/>
 <polygon atv:refpx="60.419" atv:refpy="82.021" fill="#fdf90a" id="alert_increasing_min" points="75.084,70.018 51.081,70.018 63.747,94.018" stroke="#000000" stroke-width="1"/>
 <text atv:refpx="63.671" atv:refpy="79.019" fill="#000000" font-family="Arial" font-size="14" font-weight="bold" id="alertC_text_min" x="60.171" y="83.519">1</text>
 <polygon atv:refpx="14.459" atv:refpy="81.601" fill="#fdbf21" id="alert_decreasing_min" points="2.457,93.601 26.458,93.601 13.789,69.601" stroke="#000000" stroke-width="1"/>
 <text atv:refpx="15" atv:refpy="85.984" fill="#000000" font-family="Arial" font-size="14" font-weight="bold" id="alertD_text_min" text-anchor="end" x="16.5" y="90.484">1</text>
 <rect atv:refpx="-40.912" atv:refpy="-13.049" fill="#93060a" fill-opacity="0" height="42" id="click_area_alertD_min" stroke="none" stroke-width="0" width="28" x="0" y="55.484"/>
 <g atv:refpx="36.5" atv:refpy="61.484" id="Ind_Bar" transform="matrix(1,0,0,1,-2,-7.516)">
  <rect atv:refpx="38.5" atv:refpy="69" fill="#626262" height="77.366" id="Barra_Ind2" rx="7" ry="7" stroke="#000000" stroke-width="1" width="14" x="31.5" y="30.317"/>
  <path atv:refpx="38.496" atv:refpy="36.976" d="M31.826,43.257L45.178,43.257L45.08,36.1C45.08,36.1 44.046,30.754 38.676,30.694C33.305,30.633 31.876,35.603 31.876,35.603C31.876,35.603 31.777,43.318 31.826,43.257" fill="#b5b5b5" id="id_19" stroke="#000000" stroke-width="0"/>
  <path atv:refpx="38.533" atv:refpy="100.982" d="M45.204,94.701L31.852,94.701L31.95,101.858C31.95,101.858 32.985,107.205 38.355,107.265C43.726,107.324 45.154,102.356 45.154,102.356C45.154,102.356 45.252,94.641 45.204,94.701" fill="#b5b5b5" id="id_20" stroke="#000000" stroke-width="0"/>
 </g>
 <rect atv:refpx="49.396" atv:refpy="14.695" fill="#bd070d" height="23" id="alarm_square" rx="1.855" ry="1.987" stroke="#000000" stroke-width="1" text-anchor="middle" width="23" x="37.446" y="2.569"/>
 <text atv:refpx="-20.554" atv:refpy="-10.716" fill="#000000" font-family="Arial" font-size="14" font-weight="bold" id="alarm_text" text-anchor="middle" x="48.946" y="19.07">1</text>
 <rect atv:refpx="-3.405" atv:refpy="-49.206" fill="#93060a" fill-opacity="0" height="28" id="click_area_alarm" stroke="none" stroke-width="0" width="28" x="34.879" y="0"/>
 <rect atv:refpx="49.102" atv:refpy="109.129" fill="#bd070d" height="23" id="alarm_square_min" rx="1.855" ry="1.987" stroke="#000000" stroke-width="1" text-anchor="middle" width="23" x="37.152" y="97.003"/>
 <text atv:refpx="-20.848" atv:refpy="83.718" fill="#000000" font-family="Arial" font-size="14" font-weight="bold" id="alarm_text_min" text-anchor="middle" x="48.652" y="113.504">1</text>
 <rect atv:refpx="-3.983" atv:refpy="45.512" fill="#93060a" fill-opacity="0" height="28" id="click_area_alarm_min" stroke="none" stroke-width="0" width="28" x="34.301" y="94.718"/>
 <rect atv:refpx="63" atv:refpy="84.484" fill="#93060a" fill-opacity="0" height="42" id="click_area_alertC_min" stroke="none" stroke-width="0" width="28" x="49" y="65.484"/>
 <g atv:refpx="171.183" atv:refpy="90.242" id="Image1">
  <g atv:refpx="172.883" atv:refpy="92.52" id="Group_Motor_Body" transform="matrix(1.5071,0,0,1.5071,86.4921,45)">
   <path atv:refpx="57.322" atv:refpy="31.53" d="M26.689,38.851L86.598,38.851L86.372,29.955L86.598,19.933L86.825,11.374L87.05,5.854L87.5,3.603L88.176,5.855L88.401,11.375L88.627,19.933L88.854,29.955L88.625,40.202L88.4,48.761L88.174,54.279L87.5,56.306L69.594,56.306L69.594,56.754L78.039,56.754L78.039,59.458L59.572,59.458L59.572,56.754L60.698,56.754L60.698,56.306L45.045,56.306L45.045,56.754L46.171,56.754L46.171,59.458L27.815,59.458L27.815,56.754L36.148,56.754L36.148,56.306L25.788,56.306" fill="url(#linear_1)" id="id_0" stroke="#4C4C4C" stroke-width="0.25"/>
  </g>
  <g atv:refpx="107.028" atv:refpy="90.242" id="Group_Motor_Bodyrear" transform="matrix(1.5071,0,0,1.5071,86.4921,45)">
   <path atv:refpx="14.527" atv:refpy="29.729" d="M25.788,56.306L25.563,59.458L2.14,59.458L2.366,52.476L2.816,42.23L2.816,17.229L2.366,7.207L2.14,0.226L2.14,0L25.563,0L26.689,14.752L26.914,29.73L26.689,38.851" fill="url(#linear_2)" id="id_1" stroke="#4C4C4C" stroke-width="0.25"/>
   <ellipse atv:refpx="1.554" atv:refpy="30.263" cx="1.554" cy="30.263" fill="#7F7F7F" id="id_3" rx="1.217" ry="29.773"/>
  </g>
  <g atv:refpx="172.202" atv:refpy="76.992" id="Group_Motor_Top" transform="matrix(1.5071,0,0,1.5071,86.4921,45)">
   <path atv:refpx="56.87" atv:refpy="21.227" d="M88.176,39.188L25.563,39.188L25.563,3.265L77.139,3.265L87.5,3.265L87.95,16.666Z" fill="url(#linear_3)" id="id_4" stroke="#4C4C4C" stroke-width="0.25"/>
  </g>
  <g atv:refpx="171.693" atv:refpy="87.429" id="Group_Fins" transform="matrix(1.5071,0,0,1.5071,86.4921,45)">
   <path atv:refpx="56.531" atv:refpy="4.729" d="M25.563,6.193L87.5,6.193L87.5,3.265L77.139,3.265L25.563,3.265Z" fill="#7F7F7F" id="id_5"/>
   <path atv:refpx="52.027" atv:refpy="36.317" d="M78.04,35.022L26.014,35.022L26.014,37.611L78.04,37.611Z" fill="#CCCCCC" id="id_7"/>
   <path atv:refpx="82.883" atv:refpy="36.317" d="M79.166,35.022L86.6,35.022L86.6,37.611L79.166,37.611Z" fill="#CCCCCC" id="id_8"/>
   <path atv:refpx="52.027" atv:refpy="41.442" d="M78.04,40.09L26.014,40.09L26.014,42.793L78.04,42.793Z" fill="#CCCCCC" id="id_9"/>
   <path atv:refpx="82.883" atv:refpy="41.442" d="M79.166,40.09L86.6,40.09L86.6,42.793L79.166,42.793Z" fill="#CCCCCC" id="id_10"/>
   <path atv:refpx="52.027" atv:refpy="51.689" d="M78.04,50.338L26.014,50.338L26.014,53.04L78.04,53.04Z" fill="#B2B2B2" id="id_11"/>
   <path atv:refpx="82.883" atv:refpy="51.689" d="M79.166,50.338L86.6,50.338L86.6,53.04L79.166,53.04Z" fill="#B2B2B2" id="id_12"/>
   <path atv:refpx="82.883" atv:refpy="46.396" d="M79.166,45.045L86.6,45.045L86.6,47.747L79.166,47.747Z" fill="#CCCCCC" id="id_13"/>
   <path atv:refpx="52.027" atv:refpy="46.396" d="M78.04,45.045L26.014,45.045L26.014,47.747L78.04,47.747Z" fill="#CCCCCC" id="id_14"/>
  </g>
  <g atv:refpx="237.715" atv:refpy="90.486" id="Group_Shaft" transform="matrix(1.5071,0,0,1.5071,86.4921,45)">
   <path atv:refpx="89.244" atv:refpy="30.18" d="M89.863,21.171L88.625,21.171L88.625,39.189L89.863,39.189Z" fill="url(#linear_4)" id="id_15" stroke="#4C4C4C" stroke-width="0.25"/>
   <path atv:refpx="90.764" atv:refpy="30.067" d="M89.863,23.986L89.863,36.148L90.99,36.148L91.44,35.472L91.665,34.573L91.665,25.789L91.44,24.437L90.99,23.987L89.863,23.987Z" fill="url(#linear_5)" id="id_16" stroke="#4C4C4C" stroke-width="0.25"/>
   <path atv:refpx="101.858" atv:refpy="30.18" d="M112.049,25.788L91.666,25.788L91.666,34.572L112.048,34.572Z" fill="url(#linear_6)" id="id_17" stroke="#4C4C4C" stroke-width="0.25"/>
  </g>
  <g atv:refpx="162.953" atv:refpy="87.26" id="Group_Boxback" transform="matrix(1.5071,0,0,1.5071,86.4921,45)">
   <path atv:refpx="50.394" atv:refpy="27.814" d="M65.09,14.189L35.698,14.189L35.698,41.44L65.09,41.44Z" fill="#2E2E2E" id="id_18" stroke="#4C4C4C" stroke-width="0.25"/>
   <path atv:refpx="51.07" atv:refpy="28.378" d="M65.766,14.865L36.374,14.865L36.374,41.891L65.766,41.891Z" fill="url(#linear_7)" id="id_21" stroke="#4C4C4C" stroke-width="0.25"/>
  </g>
  <g atv:refpx="163.547" atv:refpy="87.94" id="Group_Box" transform="matrix(1.5071,0,0,1.5071,86.4921,45)">
   <path atv:refpx="52.026" atv:refpy="29.278" d="M63.738,19.819L40.315,19.819L40.991,38.736L62.5,38.736Z" fill="#CCCCCC" id="id_22" stroke="#4C4C4C" stroke-width="0.25"/>
   <path atv:refpx="40.09" atv:refpy="28.715" d="M39.189,18.693L40.315,19.819L40.991,38.737L40.54,38.737Z" fill="#666666" id="id_23"/>
   <path atv:refpx="51.463" atv:refpy="19.143" d="M63.738,19.819L40.315,19.819L39.189,18.468L62.725,18.468Z" fill="#CCCCCC" id="id_24" stroke="#4C4C4C" stroke-width="0.25"/>
   <path atv:refpx="63.682" atv:refpy="40.316" d="M64.188,41.216L63.061,41.216L62.498,40.316L63.061,39.416L64.188,39.416L64.864,40.316Z" fill="#E5E5E5" id="id_25" stroke="#4C4C4C" stroke-width="0.25"/>
   <path atv:refpx="63.682" atv:refpy="16.666" d="M64.188,17.567L63.061,17.567L62.498,16.667L63.061,15.766L64.188,15.766L64.864,16.667Z" fill="#E5E5E5" id="id_26" stroke="#4C4C4C" stroke-width="0.25"/>
   <path atv:refpx="38.626" atv:refpy="16.666" d="M39.189,17.567L37.837,17.567L37.387,16.667L37.837,15.766L39.189,15.766L39.865,16.667Z" fill="#E5E5E5" id="id_27" stroke="#4C4C4C" stroke-width="0.25"/>
   <path atv:refpx="38.626" atv:refpy="40.316" d="M39.189,41.216L37.837,41.216L37.387,40.316L37.837,39.416L39.189,39.416L39.865,40.316Z" fill="#E5E5E5" id="id_28" stroke="#4C4C4C" stroke-width="0.25"/>
  </g>
 </g>
 <script atv:desc="" atv:href="SYSTEM.LIBRARY.PROJECT.DISPLAYSCRIPTS.atvise_Advanced_Objects_Display_Scripts.AAA_Principal_Display_Script" atv:name="" atv:type="text/ecmascript"/>
 <script atv:desc="" atv:name="" type="text/ecmascript"><![CDATA[












]]></script>
 <rect atv:refpx="171.5" atv:refpy="81" fill="#000000" fill-opacity="0" height="130" id="click_area" stroke="#0000ff" stroke-width="0" width="167" x="88" y="16"/>
</svg>
