<?xml version='1.0' encoding='UTF-8' standalone='no'?>
<svg height="216.12" version="1.2" width="165" xmlns="http://www.w3.org/2000/svg" xmlns:atv="http://webmi.atvise.com/2007/svgext" xmlns:xlink="http://www.w3.org/1999/xlink">
 <defs>
  <linearGradient gradientUnits="objectBoundingBox" id="id_33_fill_gradient" spreadMethod="reflect" x1="0.0675676" x2="0.581081" y1="1" y2="1">
   <stop offset="0" stop-color="#999999"/>
   <stop offset="1" stop-color="#e5e5e5"/>
  </linearGradient>
  <linearGradient gradientUnits="objectBoundingBox" id="id_34_fill_gradient" spreadMethod="reflect" x1="-0.135135" x2="0.405405" y1="0.986486" y2="0.972973">
   <stop offset="0" stop-color="#999999"/>
   <stop offset="1" stop-color="#e5e5e5"/>
  </linearGradient>
  <linearGradient gradientUnits="objectBoundingBox" id="id_41_fill_gradient" spreadMethod="reflect" x1="-0.135135" x2="0.405405" y1="1" y2="0.972973">
   <stop offset="0" stop-color="#999999"/>
   <stop offset="1" stop-color="#e5e5e5"/>
  </linearGradient>
  <linearGradient gradientUnits="objectBoundingBox" id="id_42_fill_gradient" spreadMethod="reflect" x1="-0.135135" x2="0.405405" y1="0.986486" y2="0.972973">
   <stop offset="0" stop-color="#999999"/>
   <stop offset="1" stop-color="#e5e5e5"/>
  </linearGradient>
  <radialGradient cx="0.5" cy="0.5" fx="0.5" fy="0.5" gradientUnits="objectBoundingBox" id="id_42_stroke_gradient" r="1">
   <stop offset="0" stop-color="#000000"/>
   <stop offset="1" stop-color="#ffffff"/>
  </radialGradient>
  <linearGradient gradientUnits="objectBoundingBox" id="id_43_fill_gradient" spreadMethod="reflect" x1="-0.135135" x2="0.405405" y1="1" y2="0.972973">
   <stop offset="0" stop-color="#999999"/>
   <stop offset="1" stop-color="#e5e5e5"/>
  </linearGradient>
  <radialGradient cx="0.5" cy="0.5" fx="0.5" fy="0.5" gradientUnits="objectBoundingBox" id="id_44_fill_gradient" r="0.514579">
   <stop offset="0.6088709677419355" stop-color="#e4e4e4"/>
   <stop offset="1" stop-color="#9a9a9a"/>
  </radialGradient>
  <radialGradient cx="0.5" cy="0.5" fx="0.5" fy="0.5" gradientUnits="objectBoundingBox" id="id_7_fill_gradient" r="0.514579">
   <stop offset="0.6088709677419355" stop-color="#e4e4e4"/>
   <stop offset="1" stop-color="#9a9a9a"/>
  </radialGradient>
  <linearGradient gradientUnits="objectBoundingBox" id="linear_0" x1="0" x2="1" y1="0" y2="1">
   <stop offset="0" stop-color="#000000"/>
   <stop offset="1" stop-color="#000000" stop-opacity="0"/>
  </linearGradient>
  <linearGradient gradientUnits="objectBoundingBox" id="SVGID_10_" x1="-0.000148525" x2="0.99982" y1="0.499965" y2="0.499965">
   <stop offset="0.17" stop-color="#4D4D4D"/>
   <stop offset="0.23" stop-color="#5A5A5A"/>
   <stop offset="0.34" stop-color="#7D7D7D"/>
   <stop offset="0.48" stop-color="#B2B2B2"/>
   <stop offset="0.57" stop-color="#A8A8A8"/>
   <stop offset="0.73" stop-color="#8B8B8B"/>
   <stop offset="0.94" stop-color="#5C5C5C"/>
   <stop offset="1" stop-color="#4D4D4D"/>
  </linearGradient>
  <linearGradient gradientUnits="objectBoundingBox" id="SVGID_11_" x1="0" x2="0.999992" y1="0.499686" y2="0.499686">
   <stop offset="0.17" stop-color="#4D4D4D"/>
   <stop offset="0.23" stop-color="#5A5A5A"/>
   <stop offset="0.34" stop-color="#7D7D7D"/>
   <stop offset="0.48" stop-color="#B2B2B2"/>
   <stop offset="0.57" stop-color="#A8A8A8"/>
   <stop offset="0.73" stop-color="#8B8B8B"/>
   <stop offset="0.94" stop-color="#5C5C5C"/>
   <stop offset="1" stop-color="#4D4D4D"/>
  </linearGradient>
  <linearGradient gradientUnits="objectBoundingBox" id="SVGID_12_" x1="-0.000159151" x2="0.999873" y1="0.499976" y2="0.499976">
   <stop offset="0.17" stop-color="#4D4D4D"/>
   <stop offset="0.23" stop-color="#5A5A5A"/>
   <stop offset="0.34" stop-color="#7D7D7D"/>
   <stop offset="0.48" stop-color="#B2B2B2"/>
   <stop offset="0.57" stop-color="#A8A8A8"/>
   <stop offset="0.73" stop-color="#8B8B8B"/>
   <stop offset="0.94" stop-color="#5C5C5C"/>
   <stop offset="1" stop-color="#4D4D4D"/>
  </linearGradient>
  <linearGradient gradientUnits="objectBoundingBox" id="SVGID_13_" x1="-3.95757e-05" x2="0.999984" y1="0.500503" y2="0.500503">
   <stop offset="0.17" stop-color="#4D4D4D"/>
   <stop offset="0.23" stop-color="#5A5A5A"/>
   <stop offset="0.34" stop-color="#7D7D7D"/>
   <stop offset="0.48" stop-color="#B2B2B2"/>
   <stop offset="0.57" stop-color="#A8A8A8"/>
   <stop offset="0.73" stop-color="#8B8B8B"/>
   <stop offset="0.94" stop-color="#5C5C5C"/>
   <stop offset="1" stop-color="#4D4D4D"/>
  </linearGradient>
  <linearGradient gradientUnits="objectBoundingBox" id="SVGID_1_" x1="2.80483e-06" x2="1" y1="0.5" y2="0.5">
   <stop offset="0" stop-color="#383838"/>
   <stop offset="0.5" stop-color="#ECECEC"/>
   <stop offset="0.57" stop-color="#D9D9D9"/>
   <stop offset="0.71" stop-color="#A8A8A8"/>
   <stop offset="0.92" stop-color="#5A5A5A"/>
   <stop offset="1" stop-color="#383838"/>
  </linearGradient>
  <linearGradient gradientUnits="objectBoundingBox" id="SVGID_2_" x1="-5.34852e-06" x2="0.999996" y1="0.500015" y2="0.500015">
   <stop offset="0.06" stop-color="#808080"/>
   <stop offset="0.13" stop-color="#8D8D8D"/>
   <stop offset="0.28" stop-color="#B0B0B0"/>
   <stop offset="0.48" stop-color="#E8E8E8"/>
   <stop offset="0.48" stop-color="#EBEBEB"/>
   <stop offset="0.57" stop-color="#E0E0E0"/>
   <stop offset="0.72" stop-color="#C3C3C3"/>
   <stop offset="0.92" stop-color="#949494"/>
   <stop offset="1" stop-color="#808080"/>
  </linearGradient>
  <linearGradient gradientUnits="objectBoundingBox" id="SVGID_3_" x1="0.0132289" x2="0.961723" y1="1.43718" y2="-0.523291">
   <stop offset="0.29" stop-color="#F7F7F7"/>
   <stop offset="0.38" stop-color="#ECECEC"/>
   <stop offset="0.52" stop-color="#CFCFCF"/>
   <stop offset="0.71" stop-color="#A0A0A0"/>
   <stop offset="0.94" stop-color="#5F5F5F"/>
   <stop offset="1" stop-color="#4D4D4D"/>
  </linearGradient>
  <linearGradient gradientUnits="objectBoundingBox" id="SVGID_4_" x1="0.984938" x2="0.0397305" y1="1.44782" y2="-0.461717">
   <stop offset="0.29" stop-color="#F7F7F7"/>
   <stop offset="0.38" stop-color="#ECECEC"/>
   <stop offset="0.52" stop-color="#CFCFCF"/>
   <stop offset="0.71" stop-color="#A0A0A0"/>
   <stop offset="0.94" stop-color="#5F5F5F"/>
   <stop offset="1" stop-color="#4D4D4D"/>
  </linearGradient>
  <linearGradient gradientUnits="objectBoundingBox" id="SVGID_5_" x1="0.499998" x2="0.499998" y1="2.24065e-05" y2="1">
   <stop offset="0" stop-color="#C8C8C8"/>
   <stop offset="0.29" stop-color="#B1B1B1"/>
   <stop offset="0.91" stop-color="#757575"/>
   <stop offset="1" stop-color="#6C6C6C"/>
  </linearGradient>
  <linearGradient gradientUnits="objectBoundingBox" id="SVGID_6_" x1="-9.45716e-06" x2="1.00002" y1="0.5" y2="0.5">
   <stop offset="0" stop-color="#383838"/>
   <stop offset="0.45" stop-color="#ECECEC"/>
   <stop offset="0.55" stop-color="#D9D9D9"/>
   <stop offset="0.76" stop-color="#A8A8A8"/>
   <stop offset="0.77" stop-color="#A6A6A6"/>
   <stop offset="1" stop-color="#383838"/>
  </linearGradient>
  <linearGradient gradientUnits="objectBoundingBox" id="SVGID_7_" x1="7.05467e-06" x2="0.999993" y1="0.499944" y2="0.499944">
   <stop offset="0" stop-color="#383838"/>
   <stop offset="0.45" stop-color="#ECECEC"/>
   <stop offset="0.55" stop-color="#D9D9D9"/>
   <stop offset="0.76" stop-color="#A8A8A8"/>
   <stop offset="0.77" stop-color="#A6A6A6"/>
   <stop offset="1" stop-color="#383838"/>
  </linearGradient>
  <linearGradient gradientUnits="objectBoundingBox" id="SVGID_8_" x1="1.89143e-05" x2="1.00004" y1="0.5" y2="0.5">
   <stop offset="0" stop-color="#383838"/>
   <stop offset="0.45" stop-color="#ECECEC"/>
   <stop offset="0.55" stop-color="#D9D9D9"/>
   <stop offset="0.76" stop-color="#A8A8A8"/>
   <stop offset="0.77" stop-color="#A6A6A6"/>
   <stop offset="1" stop-color="#383838"/>
  </linearGradient>
  <linearGradient gradientUnits="objectBoundingBox" id="SVGID_9_" x1="2.82187e-05" x2="1.00001" y1="0.499944" y2="0.499944">
   <stop offset="0" stop-color="#383838"/>
   <stop offset="0.45" stop-color="#ECECEC"/>
   <stop offset="0.55" stop-color="#D9D9D9"/>
   <stop offset="0.76" stop-color="#A8A8A8"/>
   <stop offset="0.77" stop-color="#A6A6A6"/>
   <stop offset="1" stop-color="#383838"/>
  </linearGradient>
  <radialGradient cx="0.499789" cy="0.500127" fx="0.499789" fy="0.500127" gradientUnits="objectBoundingBox" id="radial_1" r="0.500063">
   <stop offset="0" stop-color="#E0E0E0"/>
   <stop offset="0.5" stop-color="#E0E0E0"/>
   <stop offset="1" stop-color="#595959"/>
  </radialGradient>
  <radialGradient cx="0.500042" cy="0.499911" fx="0.500042" fy="0.499911" gradientUnits="objectBoundingBox" id="radial_2" r="0.500043">
   <stop offset="0" stop-color="#E0E0E0"/>
   <stop offset="0.5" stop-color="#E0E0E0"/>
   <stop offset="1" stop-color="#595959"/>
  </radialGradient>
  <radialGradient cx="0.499848" cy="0.499978" fx="0.499848" fy="0.499978" gradientUnits="objectBoundingBox" id="radial_3" r="0.499968">
   <stop offset="0" stop-color="#E0E0E0"/>
   <stop offset="0.5" stop-color="#E0E0E0"/>
   <stop offset="1" stop-color="#595959"/>
  </radialGradient>
  <linearGradient gradientUnits="objectBoundingBox" id="linear_4" x1="0.563112" x2="0.436914" y1="1.13692" y2="-0.13513">
   <stop offset="0" stop-color="#808080"/>
   <stop offset="0.5" stop-color="#B2B2B2"/>
   <stop offset="0.6" stop-color="#D1D1D1"/>
   <stop offset="1" stop-color="#E5E5E5"/>
  </linearGradient>
  <radialGradient cx="0.5" cy="0.5" fx="0.5" fy="0.5" gradientUnits="objectBoundingBox" id="radial_5" r="0.500064">
   <stop offset="0" stop-color="#E0E0E0"/>
   <stop offset="0.5" stop-color="#BFD3F2"/>
   <stop offset="1" stop-color="#BFD3F2"/>
  </radialGradient>
  <radialGradient cx="0.499978" cy="0.5" fx="0.499978" fy="0.5" gradientUnits="objectBoundingBox" id="radial_6" r="0.500022">
   <stop offset="0" stop-color="#E0E0E0"/>
   <stop offset="0.5" stop-color="#BFD3F2"/>
   <stop offset="1" stop-color="#BFD3F2"/>
  </radialGradient>
  <radialGradient cx="0.499935" cy="0.499913" fx="0.499935" fy="0.499913" gradientUnits="objectBoundingBox" id="radial_7" r="0.500022">
   <stop offset="0" stop-color="#E0E0E0"/>
   <stop offset="0.5" stop-color="#BFD3F2"/>
   <stop offset="1" stop-color="#BFD3F2"/>
  </radialGradient>
  <radialGradient cx="0.500042" cy="0.500065" fx="0.500042" fy="0.500065" gradientUnits="objectBoundingBox" id="radial_8" r="0.500075">
   <stop offset="0" stop-color="#E0E0E0"/>
   <stop offset="0.5" stop-color="#BFD3F2"/>
   <stop offset="1" stop-color="#BFD3F2"/>
  </radialGradient>
  <radialGradient cx="0.499848" cy="0.500044" fx="0.499848" fy="0.500044" gradientUnits="objectBoundingBox" id="radial_9" r="0.528715">
   <stop offset="0" stop-color="#E0E0E0"/>
   <stop offset="0.5" stop-color="#BFD3F2"/>
   <stop offset="1" stop-color="#BFD3F2"/>
  </radialGradient>
  <radialGradient cx="0.500022" cy="0.500065" fx="0.500022" fy="0.500065" gradientUnits="objectBoundingBox" id="radial_10" r="0.499968">
   <stop offset="0" stop-color="#E0E0E0"/>
   <stop offset="0.5" stop-color="#E0E0E0"/>
   <stop offset="1" stop-color="#595959"/>
  </radialGradient>
  <radialGradient cx="0.500022" cy="0.500087" fx="0.500022" fy="0.500087" gradientUnits="objectBoundingBox" id="radial_11" r="0.500022">
   <stop offset="0" stop-color="#E0E0E0"/>
   <stop offset="0.5" stop-color="#E0E0E0"/>
   <stop offset="1" stop-color="#595959"/>
  </radialGradient>
  <radialGradient cx="0.5" cy="0.500022" fx="0.5" fy="0.500022" gradientUnits="objectBoundingBox" id="radial_12" r="0.500075">
   <stop offset="0" stop-color="#E0E0E0"/>
   <stop offset="0.5" stop-color="#E0E0E0"/>
   <stop offset="1" stop-color="#595959"/>
  </radialGradient>
  <radialGradient cx="0.500001" cy="0.499998" fx="0.500001" fy="0.499998" gradientUnits="objectBoundingBox" id="radial_13" r="0.500001">
   <stop offset="0.01" stop-color="#4D4D4D"/>
   <stop offset="0.92" stop-color="#F5F5F5"/>
   <stop offset="1" stop-color="#7A7A7A"/>
  </radialGradient>
  <linearGradient gradientUnits="objectBoundingBox" id="linear_14" x1="0.962748" x2="0.0389691" y1="0.96104" y2="0.0372706">
   <stop offset="0" stop-color="#737373"/>
   <stop offset="1" stop-color="#CCCCCC"/>
  </linearGradient>
 </defs>
 <metadata>
  <atv:parameter behavior="optional" defaultvalue="SYSTEM.GLOBALS.atvise_Advanced_Objects_Maintenance_List.Complementary_Components.Maintenance_Flow_Meter" desc="Global_Maintenance" group="Maintenance" name="Global_Maintenance" valuetype="global"/>
  <atv:parameter behavior="optional" defaultvalue="SYSTEM.GLOBALS.atvise_Advanced_Objects_Maintenance_List.Complementary_Components.Maintenance_Flow_Meter" desc="Global Maintenance Address" group="Maintenance" name="Global_Maintenance_Address" valuetype="string"/>
  <atv:parameter behavior="optional" defaultvalue="true" desc="Maintenance_Active" group="Maintenance" name="Maintenance" valuetype="bool"/>
  <atv:parameter behavior="optional" defaultvalue="true" desc="Icon Indicator Active" group="Alarming" name="Icon_Indicator" valuetype="bool"/>
  <atv:parameter behavior="optional" defaultvalue="" desc="Alert_Range" group="Alarming" name="Alert_Range" valuetype="number"/>
  <atv:parameter behavior="optional" defaultvalue="" desc="Notification List" group="Alarming" name="Notification_List" valuetype="global"/>
  <atv:parameter behavior="optional" defaultvalue="false" desc="Email Notification Active" group="Alarming" name="Email_Notification" valuetype="bool"/>
  <atv:parameter behavior="optional" defaultvalue="false" desc="Alertzy_Notification" group="Alarming" name="Alertzy_Notification" valuetype="bool"/>
  <atv:parameter behavior="optional" defaultvalue="SYSTEM.GLOBALS.Color_Global_1" desc="Color" group="Appereance" name="Color" substitute="$Color$" valuetype="global"/>
  <atv:parameter behavior="optional" defaultvalue="14" desc="Title Font Size" group="Appereance" name="Title_Font_Size" substitute="$FontSize$" valuetype="number"/>
  <atv:gridconfig enabled="true" gridstyle="lines" height="20" width="20"/>
  <atv:snapconfig enabled="true" height="5" width="5"/>
 </metadata>
 <text atv:refpx="115.738" atv:refpy="16.5" fill="$Color$" font-family="Arial" font-size="$FontSize$" font-weight="bold" id="Title" text-anchor="middle" x="113.5" y="22">Name</text>
 <script atv:desc="" atv:href="SYSTEM.LIBRARY.PROJECT.DISPLAYSCRIPTS.atvise_Advanced_Objects_Display_Scripts.AAA_Principal_Display_Script" atv:name="" atv:type="text/ecmascript"/>
 <script atv:desc="" atv:name="" type="text/ecmascript"/>
 <svg atv:refpx="39" atv:refpy="61.36" height="122.72" id="id_6" width="78" x="0" xlink:href="SYSTEM.LIBRARY.PROJECT.OBJECTDISPLAYS.atvise_Advanced_Objects_Complementary_Elements.Alarm_Alert_Advanced_Indicator" y="0">
  <atv:argument name="base" prefix="base"/>
 </svg>
 <svg atv:refpx="38.06" atv:refpy="198.06" height="36.12" id="id_16" width="36.12" x="20" xlink:href="SYSTEM.LIBRARY.PROJECT.OBJECTDISPLAYS.atvise_Advanced_Objects_Complementary_Elements.Maintenance_Advanced_Indicator" y="180">
  <atv:argument name="base" prefix="base"/>
 </svg>
 <g atv:refpx="119.91" atv:refpy="112.298" id="Image_1" transform="matrix(0.1546,0,0,0.1546,75,35.1546)">
  <path atv:refpx="532" atv:refpy="805" d="M581,611L581,999L483,999L483,611Z" fill="#b2b2b2" id="id_0" stroke="#4c4c4c" stroke-width="2"/>
  <path atv:refpx="289" atv:refpy="806" d="M95,709L483,709L483,903L95,903Z" fill="#b2b2b2" id="id_1" stroke="#4c4c4c" stroke-width="2"/>
  <path atv:refpx="47.5" atv:refpy="805" d="M95,611L95,999L0,999L0,611Z" fill="#b2b2b2" id="id_2" stroke="#4c4c4c" stroke-width="2"/>
  <path atv:refpx="532" atv:refpy="805" d="M581,653L581,957L483,957L483,653Z" fill="#ccc" id="id_3"/>
  <path atv:refpx="289" atv:refpy="805" d="M95,739L483,739L483,871L95,871Z" fill="#ccc" id="id_4"/>
  <path atv:refpx="47.5" atv:refpy="805" d="M95,653L95,957L0,957L0,653Z" fill="#ccc" id="id_5"/>
  <path atv:refpx="532" atv:refpy="805" d="M581,719L581,891L483,891L483,719Z" fill="#e5e5e5" id="id_7"/>
  <path atv:refpx="289" atv:refpy="805" d="M95,775L483,775L483,835L95,835Z" fill="#e5e5e5" id="id_8"/>
  <path atv:refpx="47.5" atv:refpy="805" d="M95,719L95,891L0,891L0,719Z" fill="#e5e5e5" id="id_9"/>
  <path atv:refpx="532" atv:refpy="805" d="M581,783L581,827L483,827L483,783Z" fill="#fff" id="id_10"/>
  <path atv:refpx="289" atv:refpy="805" d="M95,799L483,799L483,811L95,811Z" fill="#fff" id="id_11"/>
  <path atv:refpx="47.5" atv:refpy="805" d="M95,783L95,827L0,827L0,783Z" fill="#fff" id="id_12"/>
  <path atv:refpx="132" atv:refpy="78.5" d="M169,157L95,145L95,11L169,0Z" fill="#e50000" id="id_13" stroke="#4c4c4c" stroke-width="2"/>
  <path atv:refpx="447" atv:refpy="78.5" d="M411,0L483,11L483,145L411,157Z" fill="#e50000" id="id_14" stroke="#4c4c4c" stroke-width="2"/>
  <path atv:refpx="446" atv:refpy="41" d="M411,53L481,53L481,35L411,29Z" fill="#e5e5e5" id="id_15"/>
  <path atv:refpx="134" atv:refpy="41" d="M169,53L99,53L99,35L169,29Z" fill="#e5e5e5" id="id_17"/>
  <path atv:refpx="290" atv:refpy="208.5" d="M169,0L411,0L411,417L169,417Z" fill="#f00" id="id_18" stroke="#4c4c4c" stroke-width="2"/>
  <circle atv:refpx="290" atv:refpy="193" cx="290" cy="193" fill="#f00" id="id_19" r="193" stroke="#4c4c4c" stroke-width="2"/>
  <circle atv:refpx="290" atv:refpy="193" cx="290" cy="193" fill="#4c4c4c" id="id_20" r="133" stroke="#4c4c4c" stroke-width="2"/>
  <path atv:refpx="290" atv:refpy="572" d="M327,715L326,717L324,719L321,721L317,723L311,724L305,726L298,726L291,727L283,726L276,726L270,724L264,723L260,721L256,719L254,717L253,715L253,417L327,417Z" fill="#4c4c4c" id="id_21" stroke="#4c4c4c" stroke-width="2"/>
  <path atv:refpx="399" atv:refpy="301" d="M315,385L332,383L347,379L362,374L377,367L391,360L404,351L416,341L427,330L438,319L448,306L457,293L464,279L471,264L476,249L480,234L483,217L451,217L449,230L445,243L441,255L435,267L429,278L422,289L414,299L405,309L396,318L386,326L376,333L364,339L353,345L341,349L328,353L315,355Z" fill="#e50000" id="id_22" stroke="#4c4c4c" stroke-width="2"/>
  <path atv:refpx="398" atv:refpy="85" d="M483,169L480,153L476,137L471,122L464,107L457,93L448,80L438,68L427,56L416,45L404,36L391,27L377,19L362,13L347,8L332,4L315,1L313,31L326,34L339,37L352,42L364,47L375,54L386,61L396,69L405,78L414,87L422,98L429,108L435,120L441,131L445,144L449,157L451,169Z" fill="#e50000" id="id_23" stroke="#4c4c4c" stroke-width="2"/>
  <path atv:refpx="181" atv:refpy="85" d="M265,1L249,4L233,8L218,13L204,19L190,27L177,36L164,45L153,56L142,68L133,80L124,93L116,107L110,122L105,137L100,153L97,169L129,169L132,157L135,144L140,131L145,120L151,108L158,98L166,87L175,78L184,69L194,61L205,54L216,47L228,42L240,37L252,34L265,31Z" fill="#e50000" id="id_24" stroke="#4c4c4c" stroke-width="2"/>
  <path atv:refpx="181" atv:refpy="301" d="M97,217L100,234L104,249L109,264L115,279L123,293L132,306L141,319L152,330L164,341L176,351L189,360L203,367L218,374L233,379L249,383L265,385L265,355L252,353L240,349L228,345L216,339L205,333L194,326L184,318L175,309L166,299L158,289L151,278L145,267L140,255L135,243L132,230L129,217Z" fill="#e50000" id="id_25" stroke="#4c4c4c" stroke-width="2"/>
  <path atv:refpx="289" atv:refpy="193" d="M201,153L377,153L377,233L201,233Z" fill="#333" id="id_26" stroke="#4c4c4c" stroke-width="2"/>
  <path atv:refpx="290" atv:refpy="193" d="M211,163L369,163L369,223L211,223Z" fill="#b2b2b2" id="id_27" stroke="#4c4c4c" stroke-width="2"/>
  <circle atv:refpx="289" atv:refpy="369" cx="289" cy="369" fill="#b2b2b2" id="id_28" r="10" stroke="#4c4c4c" stroke-width="2"/>
  <circle atv:refpx="466" atv:refpy="192" cx="466" cy="192" fill="#b2b2b2" id="id_29" r="9" stroke="#4c4c4c" stroke-width="2"/>
  <circle atv:refpx="288" atv:refpy="14" cx="288" cy="14" fill="#b2b2b2" id="id_30" r="9" stroke="#4c4c4c" stroke-width="2"/>
  <circle atv:refpx="111" atv:refpy="192" cx="111" cy="192" fill="#b2b2b2" id="id_31" r="10" stroke="#4c4c4c" stroke-width="2"/>
  <path atv:refpx="290" atv:refpy="502" d="M235,441L345,441L345,563L235,563Z" fill="#999" id="id_32" stroke="#4c4c4c" stroke-width="2"/>
  <path atv:refpx="290" atv:refpy="629" d="M235,611L345,611L345,647L235,647Z" fill="#999" id="id_33" stroke="#4c4c4c" stroke-width="2"/>
  <path atv:refpx="299" atv:refpy="502" d="M271,441L327,441L327,563L271,563Z" fill="#ccc" id="id_34" stroke="#4c4c4c" stroke-width="2"/>
  <path atv:refpx="299" atv:refpy="629" d="M271,611L327,611L327,647L271,647Z" fill="#ccc" id="id_35" stroke="#4c4c4c" stroke-width="2"/>
  <path atv:refpx="290" atv:refpy="438" d="M241,441L339,441L339,435L241,435Z" fill="#666" id="id_36" stroke="#4c4c4c" stroke-width="2"/>
  <path atv:refpx="290" atv:refpy="590" d="M235,581L345,581L345,599L235,599Z" fill="#b2b2b2" id="id_37"/>
  <path atv:refpx="290" atv:refpy="668" d="M235,659L345,659L345,677L235,677Z" fill="#b2b2b2" id="id_38"/>
  <path atv:refpx="290" atv:refpy="590" d="M247,581L333,581L333,599L247,599Z" fill="#ccc" id="id_39"/>
  <path atv:refpx="290" atv:refpy="668" d="M247,659L333,659L333,677L247,677Z" fill="#ccc" id="id_40"/>
  <path atv:refpx="290" atv:refpy="590" d="M265,581L315,581L315,599L265,599Z" fill="#e5e5e5" id="id_41"/>
  <path atv:refpx="290" atv:refpy="668" d="M265,659L315,659L315,677L265,677Z" fill="#e5e5e5" id="id_42"/>
  <path atv:refpx="289" atv:refpy="668" d="M283,659L295,659L295,677L283,677Z" fill="#fff" id="id_43"/>
  <path atv:refpx="289" atv:refpy="590" d="M283,581L295,581L295,599L283,599Z" fill="#fff" id="id_44"/>
  <path atv:refpx="290" atv:refpy="841" d="M193,883L187,799L393,799L387,883Z" fill="#b2b2b2" id="id_45" stroke="#4c4c4c" stroke-width="2"/>
  <path atv:refpx="290" atv:refpy="668" d="M235,659L345,659L345,677L235,677Z" fill="none" id="id_47" stroke="#4c4c4c" stroke-width="2"/>
  <path atv:refpx="290" atv:refpy="590" d="M235,581L345,581L345,599L235,599Z" fill="none" id="id_48" stroke="#4c4c4c" stroke-width="2"/>
 </g>
 <rect atv:refpx="120" atv:refpy="105" fill="#000000" fill-opacity="0" height="190" id="click_area" stroke="#0000ff" stroke-width="0" width="90" x="75" y="10"/>
</svg>
