<?xml version='1.0' encoding='UTF-8' standalone='no'?>
<svg height="285" version="1.2" width="510" xmlns="http://www.w3.org/2000/svg" xmlns:atv="http://webmi.atvise.com/2007/svgext" xmlns:xlink="http://www.w3.org/1999/xlink">
 <defs>
  <linearGradient gradientUnits="objectBoundingBox" id="id_33_fill_gradient" spreadMethod="reflect" x1="0.0675676" x2="0.581081" y1="1" y2="1">
   <stop offset="0" stop-color="#999999"/>
   <stop offset="1" stop-color="#e5e5e5"/>
  </linearGradient>
  <linearGradient gradientUnits="objectBoundingBox" id="id_34_fill_gradient" spreadMethod="reflect" x1="-0.135135" x2="0.405405" y1="0.986486" y2="0.972973">
   <stop offset="0" stop-color="#999999"/>
   <stop offset="1" stop-color="#e5e5e5"/>
  </linearGradient>
  <linearGradient gradientUnits="objectBoundingBox" id="id_41_fill_gradient" spreadMethod="reflect" x1="-0.135135" x2="0.405405" y1="1" y2="0.972973">
   <stop offset="0" stop-color="#999999"/>
   <stop offset="1" stop-color="#e5e5e5"/>
  </linearGradient>
  <linearGradient gradientUnits="objectBoundingBox" id="id_42_fill_gradient" spreadMethod="reflect" x1="-0.135135" x2="0.405405" y1="0.986486" y2="0.972973">
   <stop offset="0" stop-color="#999999"/>
   <stop offset="1" stop-color="#e5e5e5"/>
  </linearGradient>
  <radialGradient cx="0.5" cy="0.5" fx="0.5" fy="0.5" gradientUnits="objectBoundingBox" id="id_42_stroke_gradient" r="1">
   <stop offset="0" stop-color="#000000"/>
   <stop offset="1" stop-color="#ffffff"/>
  </radialGradient>
  <linearGradient gradientUnits="objectBoundingBox" id="id_43_fill_gradient" spreadMethod="reflect" x1="-0.135135" x2="0.405405" y1="1" y2="0.972973">
   <stop offset="0" stop-color="#999999"/>
   <stop offset="1" stop-color="#e5e5e5"/>
  </linearGradient>
  <radialGradient cx="0.5" cy="0.5" fx="0.5" fy="0.5" gradientUnits="objectBoundingBox" id="id_44_fill_gradient" r="0.514579">
   <stop offset="0.6088709677419355" stop-color="#e4e4e4"/>
   <stop offset="1" stop-color="#9a9a9a"/>
  </radialGradient>
  <radialGradient cx="0.5" cy="0.5" fx="0.5" fy="0.5" gradientUnits="objectBoundingBox" id="id_7_fill_gradient" r="0.514579">
   <stop offset="0.6088709677419355" stop-color="#e4e4e4"/>
   <stop offset="1" stop-color="#9a9a9a"/>
  </radialGradient>
  <linearGradient gradientUnits="objectBoundingBox" id="linear_0" x1="0" x2="1" y1="0" y2="1">
   <stop offset="0" stop-color="#000000"/>
   <stop offset="1" stop-color="#000000" stop-opacity="0"/>
  </linearGradient>
  <linearGradient gradientUnits="objectBoundingBox" id="SVGID_10_" x1="-0.000148525" x2="0.99982" y1="0.499965" y2="0.499965">
   <stop offset="0.17" stop-color="#4D4D4D"/>
   <stop offset="0.23" stop-color="#5A5A5A"/>
   <stop offset="0.34" stop-color="#7D7D7D"/>
   <stop offset="0.48" stop-color="#B2B2B2"/>
   <stop offset="0.57" stop-color="#A8A8A8"/>
   <stop offset="0.73" stop-color="#8B8B8B"/>
   <stop offset="0.94" stop-color="#5C5C5C"/>
   <stop offset="1" stop-color="#4D4D4D"/>
  </linearGradient>
  <linearGradient gradientUnits="objectBoundingBox" id="SVGID_11_" x1="0" x2="0.999992" y1="0.499686" y2="0.499686">
   <stop offset="0.17" stop-color="#4D4D4D"/>
   <stop offset="0.23" stop-color="#5A5A5A"/>
   <stop offset="0.34" stop-color="#7D7D7D"/>
   <stop offset="0.48" stop-color="#B2B2B2"/>
   <stop offset="0.57" stop-color="#A8A8A8"/>
   <stop offset="0.73" stop-color="#8B8B8B"/>
   <stop offset="0.94" stop-color="#5C5C5C"/>
   <stop offset="1" stop-color="#4D4D4D"/>
  </linearGradient>
  <linearGradient gradientUnits="objectBoundingBox" id="SVGID_12_" x1="-0.000159151" x2="0.999873" y1="0.499976" y2="0.499976">
   <stop offset="0.17" stop-color="#4D4D4D"/>
   <stop offset="0.23" stop-color="#5A5A5A"/>
   <stop offset="0.34" stop-color="#7D7D7D"/>
   <stop offset="0.48" stop-color="#B2B2B2"/>
   <stop offset="0.57" stop-color="#A8A8A8"/>
   <stop offset="0.73" stop-color="#8B8B8B"/>
   <stop offset="0.94" stop-color="#5C5C5C"/>
   <stop offset="1" stop-color="#4D4D4D"/>
  </linearGradient>
  <linearGradient gradientUnits="objectBoundingBox" id="SVGID_13_" x1="-3.95757e-05" x2="0.999984" y1="0.500503" y2="0.500503">
   <stop offset="0.17" stop-color="#4D4D4D"/>
   <stop offset="0.23" stop-color="#5A5A5A"/>
   <stop offset="0.34" stop-color="#7D7D7D"/>
   <stop offset="0.48" stop-color="#B2B2B2"/>
   <stop offset="0.57" stop-color="#A8A8A8"/>
   <stop offset="0.73" stop-color="#8B8B8B"/>
   <stop offset="0.94" stop-color="#5C5C5C"/>
   <stop offset="1" stop-color="#4D4D4D"/>
  </linearGradient>
  <linearGradient gradientUnits="objectBoundingBox" id="SVGID_1_" x1="2.80483e-06" x2="1" y1="0.5" y2="0.5">
   <stop offset="0" stop-color="#383838"/>
   <stop offset="0.5" stop-color="#ECECEC"/>
   <stop offset="0.57" stop-color="#D9D9D9"/>
   <stop offset="0.71" stop-color="#A8A8A8"/>
   <stop offset="0.92" stop-color="#5A5A5A"/>
   <stop offset="1" stop-color="#383838"/>
  </linearGradient>
  <linearGradient gradientUnits="objectBoundingBox" id="SVGID_2_" x1="-5.34852e-06" x2="0.999996" y1="0.500015" y2="0.500015">
   <stop offset="0.06" stop-color="#808080"/>
   <stop offset="0.13" stop-color="#8D8D8D"/>
   <stop offset="0.28" stop-color="#B0B0B0"/>
   <stop offset="0.48" stop-color="#E8E8E8"/>
   <stop offset="0.48" stop-color="#EBEBEB"/>
   <stop offset="0.57" stop-color="#E0E0E0"/>
   <stop offset="0.72" stop-color="#C3C3C3"/>
   <stop offset="0.92" stop-color="#949494"/>
   <stop offset="1" stop-color="#808080"/>
  </linearGradient>
  <linearGradient gradientUnits="objectBoundingBox" id="SVGID_3_" x1="0.0132289" x2="0.961723" y1="1.43718" y2="-0.523291">
   <stop offset="0.29" stop-color="#F7F7F7"/>
   <stop offset="0.38" stop-color="#ECECEC"/>
   <stop offset="0.52" stop-color="#CFCFCF"/>
   <stop offset="0.71" stop-color="#A0A0A0"/>
   <stop offset="0.94" stop-color="#5F5F5F"/>
   <stop offset="1" stop-color="#4D4D4D"/>
  </linearGradient>
  <linearGradient gradientUnits="objectBoundingBox" id="SVGID_4_" x1="0.984938" x2="0.0397305" y1="1.44782" y2="-0.461717">
   <stop offset="0.29" stop-color="#F7F7F7"/>
   <stop offset="0.38" stop-color="#ECECEC"/>
   <stop offset="0.52" stop-color="#CFCFCF"/>
   <stop offset="0.71" stop-color="#A0A0A0"/>
   <stop offset="0.94" stop-color="#5F5F5F"/>
   <stop offset="1" stop-color="#4D4D4D"/>
  </linearGradient>
  <linearGradient gradientUnits="objectBoundingBox" id="SVGID_5_" x1="0.499998" x2="0.499998" y1="2.24065e-05" y2="1">
   <stop offset="0" stop-color="#C8C8C8"/>
   <stop offset="0.29" stop-color="#B1B1B1"/>
   <stop offset="0.91" stop-color="#757575"/>
   <stop offset="1" stop-color="#6C6C6C"/>
  </linearGradient>
  <linearGradient gradientUnits="objectBoundingBox" id="SVGID_6_" x1="-9.45716e-06" x2="1.00002" y1="0.5" y2="0.5">
   <stop offset="0" stop-color="#383838"/>
   <stop offset="0.45" stop-color="#ECECEC"/>
   <stop offset="0.55" stop-color="#D9D9D9"/>
   <stop offset="0.76" stop-color="#A8A8A8"/>
   <stop offset="0.77" stop-color="#A6A6A6"/>
   <stop offset="1" stop-color="#383838"/>
  </linearGradient>
  <linearGradient gradientUnits="objectBoundingBox" id="SVGID_7_" x1="7.05467e-06" x2="0.999993" y1="0.499944" y2="0.499944">
   <stop offset="0" stop-color="#383838"/>
   <stop offset="0.45" stop-color="#ECECEC"/>
   <stop offset="0.55" stop-color="#D9D9D9"/>
   <stop offset="0.76" stop-color="#A8A8A8"/>
   <stop offset="0.77" stop-color="#A6A6A6"/>
   <stop offset="1" stop-color="#383838"/>
  </linearGradient>
  <linearGradient gradientUnits="objectBoundingBox" id="SVGID_8_" x1="1.89143e-05" x2="1.00004" y1="0.5" y2="0.5">
   <stop offset="0" stop-color="#383838"/>
   <stop offset="0.45" stop-color="#ECECEC"/>
   <stop offset="0.55" stop-color="#D9D9D9"/>
   <stop offset="0.76" stop-color="#A8A8A8"/>
   <stop offset="0.77" stop-color="#A6A6A6"/>
   <stop offset="1" stop-color="#383838"/>
  </linearGradient>
  <linearGradient gradientUnits="objectBoundingBox" id="SVGID_9_" x1="2.82187e-05" x2="1.00001" y1="0.499944" y2="0.499944">
   <stop offset="0" stop-color="#383838"/>
   <stop offset="0.45" stop-color="#ECECEC"/>
   <stop offset="0.55" stop-color="#D9D9D9"/>
   <stop offset="0.76" stop-color="#A8A8A8"/>
   <stop offset="0.77" stop-color="#A6A6A6"/>
   <stop offset="1" stop-color="#383838"/>
  </linearGradient>
  <radialGradient cx="0.499789" cy="0.500127" fx="0.499789" fy="0.500127" gradientUnits="objectBoundingBox" id="radial_1" r="0.500063">
   <stop offset="0" stop-color="#E0E0E0"/>
   <stop offset="0.5" stop-color="#E0E0E0"/>
   <stop offset="1" stop-color="#595959"/>
  </radialGradient>
  <radialGradient cx="0.500042" cy="0.499911" fx="0.500042" fy="0.499911" gradientUnits="objectBoundingBox" id="radial_2" r="0.500043">
   <stop offset="0" stop-color="#E0E0E0"/>
   <stop offset="0.5" stop-color="#E0E0E0"/>
   <stop offset="1" stop-color="#595959"/>
  </radialGradient>
  <radialGradient cx="0.499848" cy="0.499978" fx="0.499848" fy="0.499978" gradientUnits="objectBoundingBox" id="radial_3" r="0.499968">
   <stop offset="0" stop-color="#E0E0E0"/>
   <stop offset="0.5" stop-color="#E0E0E0"/>
   <stop offset="1" stop-color="#595959"/>
  </radialGradient>
  <linearGradient gradientUnits="objectBoundingBox" id="linear_4" x1="0.563112" x2="0.436914" y1="1.13692" y2="-0.13513">
   <stop offset="0" stop-color="#808080"/>
   <stop offset="0.5" stop-color="#B2B2B2"/>
   <stop offset="0.6" stop-color="#D1D1D1"/>
   <stop offset="1" stop-color="#E5E5E5"/>
  </linearGradient>
  <radialGradient cx="0.5" cy="0.5" fx="0.5" fy="0.5" gradientUnits="objectBoundingBox" id="radial_5" r="0.500064">
   <stop offset="0" stop-color="#E0E0E0"/>
   <stop offset="0.5" stop-color="#BFD3F2"/>
   <stop offset="1" stop-color="#BFD3F2"/>
  </radialGradient>
  <radialGradient cx="0.499978" cy="0.5" fx="0.499978" fy="0.5" gradientUnits="objectBoundingBox" id="radial_6" r="0.500022">
   <stop offset="0" stop-color="#E0E0E0"/>
   <stop offset="0.5" stop-color="#BFD3F2"/>
   <stop offset="1" stop-color="#BFD3F2"/>
  </radialGradient>
  <radialGradient cx="0.499935" cy="0.499913" fx="0.499935" fy="0.499913" gradientUnits="objectBoundingBox" id="radial_7" r="0.500022">
   <stop offset="0" stop-color="#E0E0E0"/>
   <stop offset="0.5" stop-color="#BFD3F2"/>
   <stop offset="1" stop-color="#BFD3F2"/>
  </radialGradient>
  <radialGradient cx="0.500042" cy="0.500065" fx="0.500042" fy="0.500065" gradientUnits="objectBoundingBox" id="radial_8" r="0.500075">
   <stop offset="0" stop-color="#E0E0E0"/>
   <stop offset="0.5" stop-color="#BFD3F2"/>
   <stop offset="1" stop-color="#BFD3F2"/>
  </radialGradient>
  <radialGradient cx="0.499848" cy="0.500044" fx="0.499848" fy="0.500044" gradientUnits="objectBoundingBox" id="radial_9" r="0.528715">
   <stop offset="0" stop-color="#E0E0E0"/>
   <stop offset="0.5" stop-color="#BFD3F2"/>
   <stop offset="1" stop-color="#BFD3F2"/>
  </radialGradient>
  <radialGradient cx="0.500022" cy="0.500065" fx="0.500022" fy="0.500065" gradientUnits="objectBoundingBox" id="radial_10" r="0.499968">
   <stop offset="0" stop-color="#E0E0E0"/>
   <stop offset="0.5" stop-color="#E0E0E0"/>
   <stop offset="1" stop-color="#595959"/>
  </radialGradient>
  <radialGradient cx="0.500022" cy="0.500087" fx="0.500022" fy="0.500087" gradientUnits="objectBoundingBox" id="radial_11" r="0.500022">
   <stop offset="0" stop-color="#E0E0E0"/>
   <stop offset="0.5" stop-color="#E0E0E0"/>
   <stop offset="1" stop-color="#595959"/>
  </radialGradient>
  <radialGradient cx="0.5" cy="0.500022" fx="0.5" fy="0.500022" gradientUnits="objectBoundingBox" id="radial_12" r="0.500075">
   <stop offset="0" stop-color="#E0E0E0"/>
   <stop offset="0.5" stop-color="#E0E0E0"/>
   <stop offset="1" stop-color="#595959"/>
  </radialGradient>
 </defs>
 <metadata>
  <atv:parameter behavior="optional" defaultvalue="SYSTEM.GLOBALS.atvise_Advanced_Objects_Maintenance_List.Mining_Industry.Maintenance_Cyclone" desc="Global_Maintenance" group="Maintenance" name="Global_Maintenance" valuetype="global"/>
  <atv:parameter behavior="optional" defaultvalue="SYSTEM.GLOBALS.atvise_Advanced_Objects_Maintenance_List.Mining_Industry.Maintenance_Cyclone" desc="Global Maintenance Address" group="Maintenance" name="Global_Maintenance_Address" valuetype="string"/>
  <atv:parameter behavior="optional" defaultvalue="true" desc="Maintenance_Active" group="Maintenance" name="Maintenance" valuetype="bool"/>
  <atv:parameter behavior="optional" defaultvalue="true" desc="Icon Indicator Active" group="Alarming" name="Icon_Indicator" valuetype="bool"/>
  <atv:parameter behavior="optional" defaultvalue="" desc="Alert_Range" group="Alarming" name="Alert_Range" valuetype="number"/>
  <atv:parameter behavior="optional" defaultvalue="" desc="Notification List" group="Alarming" name="Notification_List" valuetype="global"/>
  <atv:parameter behavior="optional" defaultvalue="false" desc="Email Notification Active" group="Alarming" name="Email_Notification" valuetype="bool"/>
  <atv:parameter behavior="optional" defaultvalue="false" desc="Alertzy_Notification" group="Alarming" name="Alertzy_Notification" valuetype="bool"/>
  <atv:parameter behavior="optional" defaultvalue="SYSTEM.GLOBALS.Color_Global_1" desc="Color" group="Appereance" name="Color" substitute="$Color$" valuetype="global"/>
  <atv:parameter behavior="optional" defaultvalue="14" desc="Title Font Size" group="Appereance" name="Title_Font_Size" substitute="$FontSize$" valuetype="number"/>
  <atv:gridconfig enabled="true" gridstyle="lines" height="20" width="20"/>
  <atv:snapconfig enabled="true" height="5" width="5"/>
 </metadata>
 <script atv:desc="" atv:href="SYSTEM.LIBRARY.PROJECT.DISPLAYSCRIPTS.atvise_Advanced_Objects_Display_Scripts.AAA_Principal_Display_Script" atv:name="" atv:type="text/ecmascript"/>
 <script atv:desc="" atv:name="" type="text/ecmascript"/>
 <svg atv:refpx="39" atv:refpy="61.36" height="122.72" id="id_6" width="78" x="0" xlink:href="SYSTEM.LIBRARY.PROJECT.OBJECTDISPLAYS.atvise_Advanced_Objects_Complementary_Elements.Alarm_Alert_Advanced_Indicator" y="0">
  <atv:argument name="base" prefix="base"/>
 </svg>
 <svg atv:refpx="48.06" atv:refpy="258.06" height="36.12" id="id_16" width="36.12" x="30" xlink:href="SYSTEM.LIBRARY.PROJECT.OBJECTDISPLAYS.atvise_Advanced_Objects_Complementary_Elements.Maintenance_Advanced_Indicator" y="240">
  <atv:argument name="base" prefix="base"/>
 </svg>
 <path atv:refpx="294.407" atv:refpy="22.97" d="M268.561,25.94L268.561,20L320.251,20L320.251,25.94Z" fill="#999999" id="id_58" stroke="#4C4C4C" stroke-width="2"/>
 <path atv:refpx="258.511" atv:refpy="190.046" d="M254.613,192.521L254.613,187.57L262.408,187.57L262.408,192.521Z" fill="#7F7F7F" id="id_59"/>
 <path atv:refpx="338.712" atv:refpy="185.22" d="M326.404,187.57L326.404,182.868L351.018,182.868L351.018,187.57Z" fill="#7F7F7F" id="id_60"/>
 <path atv:refpx="338.712" atv:refpy="185.096" d="M326.404,186.58L326.404,183.61L351.018,183.61L351.018,186.58Z" fill="#B2B2B2" id="id_61"/>
 <path atv:refpx="258.511" atv:refpy="190.046" d="M254.613,191.778L254.613,188.313L262.408,188.313L262.408,191.778Z" fill="#B2B2B2" id="id_62"/>
 <path atv:refpx="338.712" atv:refpy="185.096" d="M326.404,185.59L326.404,184.6L351.018,184.6L351.018,185.59Z" fill="#E5E5E5" id="id_63"/>
 <path atv:refpx="258.511" atv:refpy="189.799" d="M254.613,190.293L254.613,189.303L262.408,189.303L262.408,190.293Z" fill="#E5E5E5" id="id_64"/>
 <path atv:refpx="294.612" atv:refpy="138.81" d="M310.405,248.213L310.405,228.906L318.61,228.906L318.61,223.956L310.405,223.956L318.61,199.699L326.404,199.699L326.404,165.541L318.61,165.541L333.378,103.909L342.814,102.424L342.814,97.968L335.019,97.968L335.019,58.613L359.223,58.613L342.814,53.91L342.814,34.356L310.405,29.653L310.405,24.455L278.407,24.455L278.407,29.653L245.999,34.356L245.999,53.91L230,58.613L254.613,58.613L254.613,97.968L245.999,97.968L245.999,102.424L255.434,102.424L270.202,165.541L262.408,165.541L262.408,199.699L270.202,199.699L278.407,223.956L270.202,223.956L270.202,228.906L278.407,228.906L278.407,248.213L282.509,251.431L290.304,253.163L298.508,253.163L306.303,251.431Z" fill="#999999" id="id_65"/>
 <path atv:refpx="294.817" atv:refpy="138.81" d="M308.764,248.213L308.764,228.906L315.738,228.906L315.738,223.956L308.764,223.956L315.738,199.699L321.892,199.699L321.892,165.541L315.738,165.541L328.045,103.909L335.84,102.424L335.84,97.226L328.866,97.226L328.866,58.613L349.788,58.613L335.84,53.91L335.84,34.356L308.764,29.158L308.764,24.455L280.868,24.455L280.868,29.158L252.973,34.356L252.973,53.91L239.845,58.613L259.947,58.613L259.947,97.226L252.973,97.226L252.973,102.424L261.587,102.424L273.894,165.541L266.92,165.541L266.92,199.699L273.894,199.699L280.868,223.956L273.894,223.956L273.894,228.906L280.868,228.906L280.868,248.213L284.561,251.431L291.124,253.163L298.508,253.163L305.072,251.431Z" fill="#A6A6A6" id="id_66"/>
 <path atv:refpx="294.817" atv:refpy="138.81" d="M306.303,248.213L306.303,228.906L312.046,228.906L312.046,223.956L306.303,223.956L312.046,199.699L317.379,199.699L317.379,165.541L312.046,165.541L321.892,103.909L328.866,102.424L328.866,97.226L323.533,97.226L323.533,58.613L340.352,58.613L328.866,53.91L328.866,34.356L306.303,29.158L306.303,24.455L283.33,24.455L283.33,29.158L259.947,34.356L259.947,53.91L249.28,58.613L266.1,58.613L266.1,97.226L259.947,97.226L259.947,102.424L266.92,102.424L277.587,165.541L271.433,165.541L271.433,199.699L277.587,199.699L283.33,223.956L277.587,223.956L277.587,228.906L283.33,228.906L283.33,248.213L286.201,251.431L291.534,253.163L298.098,253.163L302.611,251.431Z" fill="#B2B2B2" id="id_67"/>
 <path atv:refpx="294.817" atv:refpy="138.81" d="M303.431,248.213L303.431,228.906L307.944,228.906L307.944,223.956L303.431,223.956L307.944,199.699L312.456,199.699L312.456,165.541L307.944,165.541L316.559,103.909L321.892,102.424L321.892,97.226L317.379,97.226L317.379,58.613L331.327,58.613L321.892,53.91L321.892,34.356L303.431,29.158L303.431,24.455L285.381,24.455L285.381,29.158L267.741,34.356L267.741,53.91L258.306,58.613L271.433,58.613L271.433,97.226L267.741,97.226L267.741,102.424L272.254,102.424L280.868,165.541L276.356,165.541L276.356,199.699L280.868,199.699L285.381,223.956L280.868,223.956L280.868,228.906L285.381,228.906L285.381,248.213L287.842,251.431L292.355,253.163L297.278,253.163L300.97,251.431Z" fill="#BFBFBF" id="id_68"/>
 <path atv:refpx="294.817" atv:refpy="138.81" d="M300.97,248.213L300.97,228.906L305.072,228.906L305.072,223.956L300.97,223.956L305.072,199.699L307.944,199.699L307.944,165.541L305.072,165.541L310.815,103.909L314.918,102.424L314.918,97.226L310.815,97.226L310.815,58.613L321.892,58.613L314.918,53.91L314.918,34.356L300.97,29.158L300.97,24.455L287.842,24.455L287.842,29.158L274.715,34.356L274.715,53.91L267.741,58.613L277.587,58.613L277.587,97.226L274.715,97.226L274.715,102.424L278.407,102.424L284.561,165.541L280.868,165.541L280.868,199.699L284.561,199.699L287.842,223.956L284.561,223.956L284.561,228.906L287.842,228.906L287.842,248.213L289.483,251.431L292.355,253.163L296.457,253.163L299.329,251.431Z" fill="#CCCCCC" id="id_69"/>
 <path atv:refpx="294.612" atv:refpy="138.81" d="M298.508,248.213L298.508,228.906L300.97,228.906L300.97,223.956L298.508,223.956L300.97,199.699L303.431,199.699L303.431,165.541L300.97,165.541L305.072,103.909L307.944,102.424L307.944,97.226L305.482,97.226L305.482,58.613L312.046,58.613L307.944,53.91L307.944,34.356L298.508,29.158L298.508,24.455L290.304,24.455L290.304,29.158L281.689,34.356L281.689,53.91L277.176,58.613L284.15,58.613L284.15,97.226L281.689,97.226L281.689,102.424L284.15,102.424L287.842,165.541L285.381,165.541L285.381,199.699L287.842,199.699L290.304,223.956L287.842,223.956L287.842,228.906L290.304,228.906L290.304,248.213L293.175,253.163L295.637,253.163L298.098,251.431Z" fill="#D9D9D9" id="id_70"/>
 <ellipse atv:refpx="294.406" atv:refpy="138.809" cx="294.406" cy="138.809" fill="#E5E5E5" id="id_71" rx="8.204" ry="114.354"/>
 <path atv:refpx="294.817" atv:refpy="58.737" d="M254.613,58.613L335.019,58.613" fill="none" id="id_72" stroke="#7F7F7F" stroke-width="2"/>
 <path atv:refpx="294.407" atv:refpy="54.034" d="M342.814,53.91L245.999,53.91" fill="none" id="id_73" stroke="#7F7F7F" stroke-width="2"/>
 <path atv:refpx="294.817" atv:refpy="98.093" d="M254.613,97.968L335.019,97.968" fill="none" id="id_74" stroke="#7F7F7F" stroke-width="2"/>
 <path atv:refpx="294.817" atv:refpy="102.548" d="M335.019,102.424L254.613,102.424" fill="none" id="id_75" stroke="#7F7F7F" stroke-width="2"/>
 <path atv:refpx="294.407" atv:refpy="165.665" d="M270.202,165.541L318.61,165.541" fill="none" id="id_76" stroke="#7F7F7F" stroke-width="2"/>
 <path atv:refpx="294.407" atv:refpy="199.823" d="M318.61,199.699L270.202,199.699" fill="none" id="id_77" stroke="#7F7F7F" stroke-width="2"/>
 <path atv:refpx="294.407" atv:refpy="224.08" d="M278.407,223.956L310.405,223.956" fill="none" id="id_78" stroke="#7F7F7F" stroke-width="2"/>
 <path atv:refpx="294.407" atv:refpy="229.031" d="M310.405,228.906L278.407,228.906" fill="none" id="id_79" stroke="#7F7F7F" stroke-width="2"/>
 <path atv:refpx="294.407" atv:refpy="226.803" d="M270.202,226.679L318.61,226.679" fill="none" id="id_80" stroke="#7F7F7F" stroke-width="2"/>
 <path atv:refpx="252.358" atv:refpy="33.242" d="M250.101,32.128L254.613,32.128L254.613,34.356L250.101,34.356Z" fill="#4C4C4C" id="id_81"/>
 <path atv:refpx="252.358" atv:refpy="40.668" d="M250.101,39.554L254.613,39.554L254.613,41.781L250.101,41.781Z" fill="#4C4C4C" id="id_82"/>
 <path atv:refpx="276.151" atv:refpy="33.242" d="M273.894,32.128L278.407,32.128L278.407,34.356L273.894,34.356Z" fill="#4C4C4C" id="id_83"/>
 <path atv:refpx="276.151" atv:refpy="40.668" d="M273.894,39.554L278.407,39.554L278.407,41.781L273.894,41.781Z" fill="#4C4C4C" id="id_84"/>
 <path atv:refpx="336.866" atv:refpy="33.242" d="M335.019,32.128L338.711,32.128L338.711,34.356L335.019,34.356Z" fill="#4C4C4C" id="id_85"/>
 <path atv:refpx="336.866" atv:refpy="40.668" d="M335.019,39.554L338.711,39.554L338.711,41.781L335.019,41.781Z" fill="#4C4C4C" id="id_86"/>
 <path atv:refpx="312.662" atv:refpy="33.242" d="M310.405,32.128L314.918,32.128L314.918,34.356L310.405,34.356Z" fill="#4C4C4C" id="id_87"/>
 <path atv:refpx="312.662" atv:refpy="40.668" d="M310.405,39.554L314.918,39.554L314.918,41.781L310.405,41.781Z" fill="#4C4C4C" id="id_88"/>
 <path atv:refpx="274.305" atv:refpy="22.475" d="M272.254,21.237L276.356,21.237L276.356,23.712L272.254,23.712Z" fill="#4C4C4C" id="id_89"/>
 <path atv:refpx="314.508" atv:refpy="22.475" d="M312.456,21.237L316.559,21.237L316.559,23.712L312.456,23.712Z" fill="#4C4C4C" id="id_90"/>
 <path atv:refpx="252.358" atv:refpy="96.484" d="M250.101,94.998L254.613,94.998L254.613,97.968L250.101,97.968Z" fill="#4C4C4C" id="id_91"/>
 <path atv:refpx="252.358" atv:refpy="103.662" d="M250.101,102.424L254.613,102.424L254.613,104.899L250.101,104.899Z" fill="#4C4C4C" id="id_92"/>
 <path atv:refpx="336.866" atv:refpy="96.484" d="M335.019,94.998L338.711,94.998L338.711,97.968L335.019,97.968Z" fill="#4C4C4C" id="id_93"/>
 <path atv:refpx="336.866" atv:refpy="103.662" d="M335.019,102.424L338.711,102.424L338.711,104.899L335.019,104.899Z" fill="#4C4C4C" id="id_94"/>
 <path atv:refpx="280.459" atv:refpy="96.484" d="M278.407,94.998L282.509,94.998L282.509,97.968L278.407,97.968Z" fill="#4C4C4C" id="id_95"/>
 <path atv:refpx="280.459" atv:refpy="103.662" d="M278.407,102.424L282.509,102.424L282.509,104.899L278.407,104.899Z" fill="#4C4C4C" id="id_96"/>
 <path atv:refpx="308.355" atv:refpy="96.484" d="M306.303,94.998L310.405,94.998L310.405,97.968L306.303,97.968Z" fill="#4C4C4C" id="id_97"/>
 <path atv:refpx="308.355" atv:refpy="103.662" d="M306.303,102.424L310.405,102.424L310.405,104.899L306.303,104.899Z" fill="#4C4C4C" id="id_98"/>
 <path atv:refpx="294.817" atv:refpy="47.227" d="M284.561,50.197L284.561,44.256L305.072,44.256L305.072,50.197Z" fill="#999999" id="id_99"/>
 <path atv:refpx="294.407" atv:refpy="67.276" d="M282.509,68.513L282.509,66.038L306.303,66.038L306.303,68.513Z" fill="#999999" id="id_100"/>
 <path atv:refpx="294.407" atv:refpy="71.484" d="M282.509,74.454L282.509,68.513L306.303,68.513L306.303,74.454Z" fill="#FFFFFF" id="id_101"/>
 <path atv:refpx="294.407" atv:refpy="177.918" d="M286.201,181.382L286.201,174.452L302.611,174.452L302.611,181.382Z" fill="#B2B2B2" id="id_102"/>
 <path atv:refpx="294.612" atv:refpy="138.81" d="M310.405,248.213L310.405,228.906L318.61,228.906L318.61,223.956L310.405,223.956L318.61,199.699L326.404,199.699L326.404,165.541L318.61,165.541L333.378,103.909L342.814,102.424L342.814,97.968L335.019,97.968L335.019,58.613L359.223,58.613L342.814,53.91L342.814,34.356L310.405,29.653L310.405,24.455L278.407,24.455L278.407,29.653L245.999,34.356L245.999,53.91L230,58.613L254.613,58.613L254.613,97.968L245.999,97.968L245.999,102.424L255.434,102.424L270.202,165.541L262.408,165.541L262.408,199.699L270.202,199.699L278.407,223.956L270.202,223.956L270.202,228.906L278.407,228.906L278.407,248.213L282.509,251.431L290.304,253.163L298.508,253.163L306.303,251.431Z" fill="none" id="id_103" stroke="#4C4C4C" stroke-width="2"/>
 <path atv:refpx="294.407" atv:refpy="195.12" d="M262.408,194.996L326.404,194.996" fill="none" id="id_104" stroke="#4C4C4C" stroke-width="2"/>
 <path atv:refpx="338.712" atv:refpy="185.22" d="M326.404,187.57L326.404,182.868L351.018,182.868L351.018,187.57Z" fill="none" id="id_105" stroke="#4C4C4C" stroke-width="2"/>
 <path atv:refpx="335.225" atv:refpy="185.22" d="M335.019,187.57L335.019,182.868" fill="none" id="id_106" stroke="#4C4C4C" stroke-width="2"/>
 <path atv:refpx="258.511" atv:refpy="190.046" d="M254.613,192.521L254.613,187.57L262.408,187.57L262.408,192.521Z" fill="none" id="id_107" stroke="#4C4C4C" stroke-width="2"/>
 <path atv:refpx="294.407" atv:refpy="34.48" d="M245.999,34.356L342.814,34.356" fill="none" id="id_108" stroke="#4C4C4C" stroke-width="2"/>
 <path atv:refpx="294.407" atv:refpy="39.678" d="M342.814,39.554L245.999,39.554" fill="none" id="id_109" stroke="#4C4C4C" stroke-width="2"/>
 <path atv:refpx="282.305" atv:refpy="22.351" d="M280.048,22.227L284.561,22.227" fill="none" id="id_110" stroke="#4C4C4C" stroke-width="2"/>
 <path atv:refpx="290.509" atv:refpy="22.351" d="M288.663,22.227L292.355,22.227" fill="none" id="id_111" stroke="#4C4C4C" stroke-width="2"/>
 <path atv:refpx="298.304" atv:refpy="22.351" d="M296.457,22.227L300.149,22.227" fill="none" id="id_112" stroke="#4C4C4C" stroke-width="2"/>
 <path atv:refpx="306.919" atv:refpy="22.351" d="M305.072,22.227L308.764,22.227" fill="none" id="id_113" stroke="#4C4C4C" stroke-width="2"/>
 <rect atv:refpx="296.849" atv:refpy="142.5" fill="#000000" fill-opacity="0" height="285" id="click_area" stroke="#0000ff" stroke-width="0" width="430" x="80" y="0"/>
</svg>
