<?xml version='1.0' encoding='UTF-8' standalone='no'?>
<svg height="281" version="1.2" width="382" xmlns="http://www.w3.org/2000/svg" xmlns:atv="http://webmi.atvise.com/2007/svgext" xmlns:xlink="http://www.w3.org/1999/xlink">
 <defs>
  <linearGradient gradientUnits="objectBoundingBox" id="id_33_fill_gradient" spreadMethod="reflect" x1="0.0675676" x2="0.581081" y1="1" y2="1">
   <stop offset="0" stop-color="#999999"/>
   <stop offset="1" stop-color="#e5e5e5"/>
  </linearGradient>
  <linearGradient gradientUnits="objectBoundingBox" id="id_34_fill_gradient" spreadMethod="reflect" x1="-0.135135" x2="0.405405" y1="0.986486" y2="0.972973">
   <stop offset="0" stop-color="#999999"/>
   <stop offset="1" stop-color="#e5e5e5"/>
  </linearGradient>
  <linearGradient gradientUnits="objectBoundingBox" id="id_41_fill_gradient" spreadMethod="reflect" x1="-0.135135" x2="0.405405" y1="1" y2="0.972973">
   <stop offset="0" stop-color="#999999"/>
   <stop offset="1" stop-color="#e5e5e5"/>
  </linearGradient>
  <linearGradient gradientUnits="objectBoundingBox" id="id_42_fill_gradient" spreadMethod="reflect" x1="-0.135135" x2="0.405405" y1="0.986486" y2="0.972973">
   <stop offset="0" stop-color="#999999"/>
   <stop offset="1" stop-color="#e5e5e5"/>
  </linearGradient>
  <radialGradient cx="0.5" cy="0.5" fx="0.5" fy="0.5" gradientUnits="objectBoundingBox" id="id_42_stroke_gradient" r="1">
   <stop offset="0" stop-color="#000000"/>
   <stop offset="1" stop-color="#ffffff"/>
  </radialGradient>
  <linearGradient gradientUnits="objectBoundingBox" id="id_43_fill_gradient" spreadMethod="reflect" x1="-0.135135" x2="0.405405" y1="1" y2="0.972973">
   <stop offset="0" stop-color="#999999"/>
   <stop offset="1" stop-color="#e5e5e5"/>
  </linearGradient>
  <radialGradient cx="0.5" cy="0.5" fx="0.5" fy="0.5" gradientUnits="objectBoundingBox" id="id_44_fill_gradient" r="0.514579">
   <stop offset="0.6088709677419355" stop-color="#e4e4e4"/>
   <stop offset="1" stop-color="#9a9a9a"/>
  </radialGradient>
  <radialGradient cx="0.5" cy="0.5" fx="0.5" fy="0.5" gradientUnits="objectBoundingBox" id="id_7_fill_gradient" r="0.514579">
   <stop offset="0.6088709677419355" stop-color="#e4e4e4"/>
   <stop offset="1" stop-color="#9a9a9a"/>
  </radialGradient>
  <linearGradient gradientUnits="objectBoundingBox" id="linear_0" x1="0" x2="1" y1="0" y2="1">
   <stop offset="0" stop-color="#000000"/>
   <stop offset="1" stop-color="#000000" stop-opacity="0"/>
  </linearGradient>
 </defs>
 <metadata>
  <atv:parameter behavior="optional" defaultvalue="SYSTEM.GLOBALS.Color_Global_1" desc="Color" name="Color" substitute="$Color$" valuetype="global"/>
  <atv:parameter behavior="optional" defaultvalue="SYSTEM.GLOBALS.Maintenance_Diesel_Generator" desc="Global Maintenance" name="Global_Maintenance" valuetype="global"/>
  <atv:gridconfig enabled="true" gridstyle="lines" height="20" width="20"/>
  <atv:snapconfig enabled="true" height="1" width="1"/>
 </metadata>
 <text atv:refpx="159.738" atv:refpy="11.5" fill="$Color$" font-family="Arial" font-size="14" font-weight="bold" id="Title" x="138.5" y="17">Name</text>
 <svg atv:refpx="116" atv:refpy="271.002" height="30" id="id_2" transform="matrix(1,0,0,0.6667,0,0)" width="80" x="76" xlink:href="SYSTEM.LIBRARY.ATVISE.OBJECTDISPLAYS.Advanced.button_switch" y="391.486">
  <atv:argument name="base" prefix="base" value=".Apertura"/>
  <atv:argument name="labelOn" value="T{Stop}"/>
  <atv:argument name="labelOff" value="T{Start}"/>
  <atv:overwrite height="18.001" id="id_6" transform="matrix(1,0,0,1.4999,0,0)"/>
  <atv:overwrite id="button_label" transform="matrix(1,0,0,1.4999,0,0)" y="14.5"/>
  <atv:overwrite id="button_symbol_off" transform="matrix(1,0,0,1.4999,0,0)" y="0"/>
  <atv:overwrite id="button_symbol_on" transform="matrix(1,0,0,1.4999,0,0)" y="0"/>
  <atv:overwrite height="16.001" id="blinking_frame" transform="matrix(1,0,0,1.4999,0,0)"/>
  <atv:overwrite height="16.001" id="button_stroke" transform="matrix(1,0,0,1.4999,0,0)"/>
  <atv:overwrite height="18.001" id="button_bg" transform="matrix(1,0,0,1.4999,0,0)"/>
  <atv:overwrite height="20.001" id="outer_frame" transform="matrix(1,0,0,1.4999,0,0)"/>
 </svg>
 <text atv:refpx="98.123" atv:refpy="250.5" fill="#195c88" font-family="Arial" font-size="12" font-weight="bold" id="id_49" x="80.967" y="255">On/Off</text>
 <polygon atv:refpx="63.671" atv:refpy="44.035" fill="#fdf90a" id="alert_increasing" points="51.67,56.034 75.67,56.034 63.003,32.034" stroke="#000000" stroke-width="1"/>
 <g atv:refpx="24.062" atv:refpy="174.062" id="maintenance" transform="matrix(1,0,0,1,-0.5819,19.4175)">
  <rect atv:refpx="46.171" atv:refpy="204.643" fill="#2b9de8" height="24.544" id="id_39" stroke="#000000" stroke-width="1" transform="matrix(0.7071,-0.7071,0.7071,0.7071,0,0)" width="24.544" x="-104.196" y="114.505"/>
  <text atv:refpx="28" atv:refpy="149.5" fill="#000000" font-family="Arial" font-size="14" id="id_40" x="18.5" y="160">M</text>
 </g>
 <polygon atv:refpx="11.207" atv:refpy="46.619" fill="#fdbf21" id="alert_decreasing" points="25.872,34.618 1.871,34.618 14.536,58.619" stroke="#000000" stroke-width="1"/>
 <text atv:refpx="64.671" atv:refpy="48.535" fill="#000000" font-family="Arial" font-size="14" font-weight="bold" id="alertC_text" text-anchor="end" x="66.171" y="53.035">1</text>
 <text atv:refpx="14.459" atv:refpy="43.617" fill="#000000" font-family="Arial" font-size="14" font-weight="bold" id="alertD_text" x="10.959" y="48.117">1</text>
 <rect atv:refpx="9.088" atv:refpy="-51.533" fill="#93060a" fill-opacity="0" height="42" id="click_area_alertC" stroke="none" stroke-width="0" width="28" x="50" y="17"/>
 <rect atv:refpx="14" atv:refpy="49" fill="#93060a" fill-opacity="0" height="42" id="click_area_alertD" stroke="none" stroke-width="0" width="28" x="0" y="30"/>
 <polygon atv:refpx="60.419" atv:refpy="87.537" fill="#fdf90a" id="alert_increasing_min" points="75.084,75.535 51.082,75.535 63.748,99.535" stroke="#000000" stroke-width="1"/>
 <text atv:refpx="63.671" atv:refpy="84.535" fill="#000000" font-family="Arial" font-size="14" font-weight="bold" id="alertC_text_min" x="60.171" y="89.035">1</text>
 <polygon atv:refpx="14.459" atv:refpy="87.117" fill="#fdbf21" id="alert_decreasing_min" points="2.458,99.117 26.458,99.117 13.79,75.117" stroke="#000000" stroke-width="1"/>
 <text atv:refpx="15" atv:refpy="91.5" fill="#000000" font-family="Arial" font-size="14" font-weight="bold" id="alertD_text_min" text-anchor="end" x="16.5" y="96">1</text>
 <rect atv:refpx="-40.912" atv:refpy="-7.533" fill="#93060a" fill-opacity="0" height="42" id="click_area_alertD_min" stroke="none" stroke-width="0" width="28" x="0" y="61"/>
 <g atv:refpx="36.5" atv:refpy="67" id="Ind_Bar" transform="matrix(1,0,0,1,-2,-2)">
  <rect atv:refpx="38.5" atv:refpy="69" fill="#626262" height="77.366" id="Barra_Ind2" rx="7" ry="7" stroke="#000000" stroke-width="1" width="14" x="31.5" y="30.317"/>
  <path atv:refpx="38.496" atv:refpy="36.976" d="M31.826,43.257L45.178,43.257L45.08,36.1C45.08,36.1 44.046,30.754 38.676,30.694C33.305,30.633 31.876,35.603 31.876,35.603C31.876,35.603 31.777,43.318 31.826,43.257" fill="#b5b5b5" id="id_19" stroke="#000000" stroke-width="0"/>
  <path atv:refpx="38.533" atv:refpy="100.982" d="M45.204,94.701L31.852,94.701L31.95,101.858C31.95,101.858 32.985,107.205 38.355,107.265C43.726,107.324 45.154,102.356 45.154,102.356C45.154,102.356 45.252,94.641 45.204,94.701" fill="#b5b5b5" id="id_20" stroke="#000000" stroke-width="0"/>
 </g>
 <rect atv:refpx="49.396" atv:refpy="20.211" fill="#bd070d" height="23" id="alarm_square" rx="1.855" ry="1.987" stroke="#000000" stroke-width="1" text-anchor="middle" width="23" x="37.446" y="8.085"/>
 <text atv:refpx="-20.554" atv:refpy="-5.2" fill="#000000" font-family="Arial" font-size="14" font-weight="bold" id="alarm_text" text-anchor="middle" x="48.946" y="24.586">1</text>
 <rect atv:refpx="-3.405" atv:refpy="-43.69" fill="#93060a" fill-opacity="0" height="28" id="click_area_alarm" stroke="none" stroke-width="0" width="28" x="34.879" y="5.516"/>
 <rect atv:refpx="49.102" atv:refpy="114.645" fill="#bd070d" height="23" id="alarm_square_min" rx="1.855" ry="1.987" stroke="#000000" stroke-width="1" text-anchor="middle" width="23" x="37.152" y="102.519"/>
 <text atv:refpx="-20.848" atv:refpy="89.234" fill="#000000" font-family="Arial" font-size="14" font-weight="bold" id="alarm_text_min" text-anchor="middle" x="48.652" y="119.02">1</text>
 <rect atv:refpx="-3.983" atv:refpy="51.028" fill="#93060a" fill-opacity="0" height="28" id="click_area_alarm_min" stroke="none" stroke-width="0" width="28" x="34.301" y="100.234"/>
 <rect atv:refpx="63" atv:refpy="90" fill="#93060a" fill-opacity="0" height="42" id="click_area_alertC_min" stroke="none" stroke-width="0" width="28" x="49" y="71"/>
 <script atv:desc="" atv:href="SYSTEM.LIBRARY.PROJECT.DISPLAYSCRIPTS.atvise_Advanced_Objects_Display_Scripts.AAA_Principal_Display_Script" atv:name="" atv:type="text/ecmascript"/>
 <script atv:desc="" atv:name="" type="text/ecmascript"><![CDATA[












]]></script>
 <g atv:refpx="241.98" atv:refpy="119.838" id="Image1" transform="matrix(1,0,0,1,-66.75,15)">
  <ellipse atv:refpx="385.418" atv:refpy="39.165" cx="385.418" cy="39.165" fill="#ccc" id="id_0" rx="10.335" ry="26.654" stroke="#4c4c4c" stroke-width="0.5"/>
  <path atv:refpx="388.274" atv:refpy="22.031" d="M393.305,16.59L385.961,16.59L385.689,16.59L385.145,16.862L384.873,16.862L384.873,17.134L384.601,17.406L384.329,17.678L384.057,17.95L384.057,18.222L383.785,18.766L383.785,19.31L383.513,19.582L383.513,20.126L383.513,20.67L383.513,21.214L383.242,21.758L383.242,22.574L383.242,22.846L383.513,23.39L383.513,23.934L383.513,24.206L383.513,24.75L383.785,25.294L383.785,25.566L384.057,25.838L384.057,26.382L384.329,26.654L384.601,26.926L384.873,27.198L385.145,27.47L385.689,27.47L385.961,27.47L393.305,27.47L393.033,27.47L392.761,27.47L392.489,27.198L392.217,27.198L392.217,26.926L391.945,26.654L391.673,26.382L391.401,25.838L391.401,25.566L391.129,25.294L391.129,24.75L391.129,24.206L391.129,23.934L390.857,23.39L390.857,22.846L390.857,22.574L390.857,21.758L390.857,21.214L391.129,20.67L391.129,20.126L391.129,19.582L391.129,19.31L391.401,18.766L391.401,18.222L391.673,17.95L391.945,17.678L392.217,17.406L392.217,17.134L392.489,16.862L392.761,16.862L393.033,16.59Z" fill="#e5e5e5" id="id_1" stroke-width="0.5"/>
  <path atv:refpx="306.271" atv:refpy="39.301" d="M385.961,12.511L236.643,12.511L236.099,12.511L235.555,12.511L235.011,12.783L234.467,13.055L233.923,13.327L233.379,13.599L233.108,14.143L232.564,14.687L232.02,15.23L231.748,15.774L231.204,16.318L230.932,17.134L230.388,17.95L230.116,18.766L229.572,19.582L229.3,20.398L229.028,21.486L228.756,22.574L228.484,23.39L228.212,24.478L227.94,25.566L227.668,26.654L227.396,28.014L227.396,29.102L227.124,30.189L226.852,31.549L226.852,32.637L226.852,33.997L226.58,35.357L226.58,36.717L226.58,38.077L226.58,39.165L226.58,40.525L226.58,41.885L226.58,43.245L226.852,44.605L226.852,45.692L226.852,47.052L227.124,48.412L227.396,49.5L227.396,50.588L227.668,51.948L227.94,53.036L228.212,54.124L228.484,55.212L228.756,56.028L229.028,57.116L229.3,57.932L229.572,59.02L230.116,59.836L230.388,60.651L230.932,61.467L231.204,62.011L231.748,62.827L232.02,63.371L232.564,63.915L233.108,64.459L233.379,65.003L233.923,65.275L234.467,65.547L235.011,65.819L235.555,66.091L236.099,66.091L236.643,66.091L385.961,66.091L385.417,66.091L384.873,66.091L384.329,65.819L383.785,65.547L383.242,65.275L382.698,65.003L382.154,64.459L381.61,63.915L381.338,63.371L380.794,62.827L380.25,62.011L379.978,61.467L379.434,60.651L378.89,59.836L378.618,59.02L378.346,57.932L377.802,57.116L377.53,56.028L377.258,55.212L376.986,54.124L376.714,53.036L376.17,51.948L376.17,50.588L375.898,49.5L375.626,48.412L375.354,47.052L375.354,45.692L375.082,44.605L375.082,43.245L375.082,41.885L375.082,40.525L375.082,39.165L375.082,38.077L375.082,36.717L375.082,35.357L375.082,33.997L375.354,32.637L375.354,31.549L375.626,30.189L375.898,29.102L376.17,28.014L376.17,26.654L376.714,25.566L376.986,24.478L377.258,23.39L377.53,22.574L377.802,21.486L378.346,20.398L378.618,19.582L378.89,18.766L379.434,17.95L379.978,17.134L380.25,16.318L380.794,15.774L381.338,15.23L381.61,14.687L382.154,14.143L382.698,13.599L383.242,13.327L383.785,13.055L384.329,12.783L384.873,12.511L385.417,12.511Z" fill="#e5e5e5" id="id_155" stroke-width="0.5"/>
  <ellipse atv:refpx="388.682" atv:refpy="26.654" cx="388.682" cy="26.654" fill="#7f7f7f" id="id_3" rx="4.352" ry="0.816" stroke-width="0.5"/>
  <path atv:refpx="307.087" atv:refpy="61.876" d="M385.145,66.091L237.459,66.091L236.915,66.091L236.099,66.091L235.555,65.819L235.011,65.547L234.467,65.275L233.923,64.73L233.379,64.459L232.836,63.915L232.564,63.099L232.02,62.555L231.476,62.011L230.932,61.195L230.388,60.379L230.116,59.564L229.572,58.748L229.028,57.66L377.53,57.66L377.802,58.748L378.074,59.564L378.618,60.379L378.89,61.195L379.434,62.011L379.978,62.555L380.522,63.099L381.066,63.915L381.338,64.459L381.882,64.73L382.426,65.275L382.97,65.547L383.513,65.819L384.057,66.091L384.601,66.091Z" fill="#7f7f7f" id="id_4" stroke-width="0.5"/>
  <ellipse atv:refpx="387.322" atv:refpy="18.767" cx="387.322" cy="18.767" fill="#fff" id="id_5" rx="4.08" ry="1.36" stroke-width="0.5"/>
  <path atv:refpx="303.279" atv:refpy="21.215" d="M379.162,16.59L231.476,16.59L231.204,16.862L230.932,17.406L230.66,17.678L230.388,18.222L230.116,18.766L229.844,19.31L229.572,19.854L229.572,20.398L229.3,20.942L229.028,21.486L228.756,22.302L228.484,22.846L228.212,23.662L227.94,24.206L227.668,25.022L227.396,25.838L375.898,25.838L375.898,25.022L376.17,24.206L376.442,23.662L376.442,22.846L376.714,22.302L376.986,21.486L377.258,20.942L377.53,20.398L377.802,19.854L378.074,19.31L378.074,18.766L378.346,18.222L378.618,17.678L378.89,17.406L378.89,16.862Z" fill="#fff" id="id_156" stroke-width="0.5"/>
  <path atv:refpx="302.055" atv:refpy="51.813" d="M377.53,57.66L229.028,57.66L229.028,57.116L228.756,56.572L228.484,56.028L228.212,55.484L228.212,54.668L227.94,54.124L227.668,53.308L227.396,52.492L227.396,51.676L227.124,50.86L226.852,50.044L226.852,49.228L226.58,48.412L226.58,47.596L226.58,46.78L226.58,45.964L375.082,45.964L375.082,46.78L375.082,47.596L375.082,48.412L375.354,49.228L375.354,49.772L375.626,50.588L375.626,51.404L375.898,52.22L376.17,53.036L376.442,53.58L376.442,54.396L376.714,54.94L376.986,55.756L377.258,56.3L377.258,57.116Z" fill="#b2b2b2" id="id_7" stroke-width="0.5"/>
  <ellipse atv:refpx="387.322" atv:refpy="24.478" cx="387.322" cy="24.478" fill="#b2b2b2" id="id_8" rx="4.08" ry="1.088" stroke-width="0.5"/>
  <path atv:refpx="427.439" atv:refpy="135.719" d="M419.415,193.651L435.462,193.651L435.462,77.786L419.415,77.786Z" fill="#ffc" id="id_9" stroke="#4c4c4c" stroke-width="0.5"/>
  <path atv:refpx="304.231" atv:refpy="201.539" d="M173,193.651L435.462,193.651L435.462,209.426L173,209.426Z" fill="#ffc" id="id_10" stroke="#4c4c4c" stroke-width="0.5"/>
  <path atv:refpx="180.887" atv:refpy="135.719" d="M188.774,193.651L188.774,77.786L173,77.786L173,193.651Z" fill="#ffc" id="id_11" stroke-width="0.5"/>
  <path atv:refpx="180.887" atv:refpy="135.719" d="M173,193.651L188.774,193.651L188.774,77.786L173,77.786Z" fill="none" id="id_12" stroke="#4c4c4c" stroke-width="0.5"/>
  <path atv:refpx="304.231" atv:refpy="83.634" d="M173,77.786L173,82.138L180.343,89.482L427.847,89.482L435.462,82.138L435.462,77.786Z" fill="#ffc" id="id_13" stroke="#4c4c4c" stroke-width="0.5"/>
  <path atv:refpx="304.231" atv:refpy="143.606" d="M173,209.426L435.462,209.426L435.462,77.786L173,77.786Z" fill="none" id="id_14" stroke="#4c4c4c" stroke-width="0.5"/>
  <path atv:refpx="304.095" atv:refpy="141.567" d="M188.774,89.482L419.415,89.482L419.415,193.651L188.774,193.651Z" fill="#333" id="id_15" stroke="#4c4c4c" stroke-width="0.5"/>
  <path atv:refpx="427.711" atv:refpy="175.564" d="M421.863,189.299L433.558,189.299L433.558,161.829L421.863,161.829Z" fill="#333" id="id_16" stroke="#4c4c4c" stroke-width="0.5"/>
  <circle atv:refpx="175.72" atv:refpy="196.099" cx="175.72" cy="196.099" fill="#333" id="id_17" r="1.088" stroke="#4c4c4c" stroke-width="0.5"/>
  <circle atv:refpx="185.783" atv:refpy="196.099" cx="185.783" cy="196.099" fill="#333" id="id_18" r="1.088" stroke="#4c4c4c" stroke-width="0.5"/>
  <circle atv:refpx="175.72" atv:refpy="206.162" cx="175.72" cy="206.162" fill="#333" id="id_157" r="1.088" stroke="#4c4c4c" stroke-width="0.5"/>
  <circle atv:refpx="185.783" atv:refpy="206.162" cx="185.783" cy="206.162" fill="#333" id="id_158" r="1.088" stroke="#4c4c4c" stroke-width="0.5"/>
  <circle atv:refpx="175.72" atv:refpy="80.779" cx="175.72" cy="80.779" fill="#333" id="id_21" r="1.088" stroke="#4c4c4c" stroke-width="0.5"/>
  <circle atv:refpx="185.783" atv:refpy="86.49" cx="185.783" cy="86.49" fill="#333" id="id_22" r="1.088" stroke="#4c4c4c" stroke-width="0.5"/>
  <circle atv:refpx="422.679" atv:refpy="86.49" cx="422.679" cy="86.49" fill="#333" id="id_23" r="0.816" stroke="#4c4c4c" stroke-width="0.5"/>
  <ellipse atv:refpx="432.743" atv:refpy="80.779" cx="432.743" cy="80.779" fill="#333" id="id_24" rx="0.816" ry="1.36" stroke="#4c4c4c" stroke-width="0.5"/>
  <circle atv:refpx="422.679" atv:refpy="196.099" cx="422.679" cy="196.099" fill="#333" id="id_25" r="0.816" stroke="#4c4c4c" stroke-width="0.5"/>
  <circle atv:refpx="422.679" atv:refpy="206.162" cx="422.679" cy="206.162" fill="#333" id="id_26" r="0.816" stroke="#4c4c4c" stroke-width="0.5"/>
  <circle atv:refpx="432.743" atv:refpy="196.099" cx="432.743" cy="196.099" fill="#333" id="id_27" r="0.816" stroke="#4c4c4c" stroke-width="0.5"/>
  <circle atv:refpx="432.743" atv:refpy="206.162" cx="432.743" cy="206.162" fill="#333" id="id_28" r="0.816" stroke="#4c4c4c" stroke-width="0.5"/>
  <path atv:refpx="408.128" atv:refpy="184.812" d="M400.104,184.403L416.151,184.403L416.151,185.219L400.104,185.219Z" fill="#7f7f7f" id="id_29" stroke="#4c4c4c" stroke-width="0.5"/>
  <path atv:refpx="390.042" atv:refpy="171.757" d="M397.657,169.172L382.426,169.172L382.426,174.34L397.657,174.34Z" fill="#666" id="id_30" stroke-width="0.5"/>
  <path atv:refpx="408.536" atv:refpy="171.757" d="M416.151,169.172L400.92,169.172L400.92,174.34L416.151,174.34Z" fill="#666" id="id_31" stroke-width="0.5"/>
  <path atv:refpx="371.547" atv:refpy="171.757" d="M380.794,169.172L362.299,169.172L362.299,174.34L380.794,174.34Z" fill="#b2b2b2" id="id_32" stroke-width="0.5"/>
  <ellipse atv:refpx="425.943" atv:refpy="173.253" cx="425.943" cy="173.253" fill="#b2b2b2" id="id_33" rx="2.448" ry="3.264" stroke-width="0.5"/>
  <ellipse atv:refpx="430.567" atv:refpy="173.253" cx="430.567" cy="173.253" fill="#b2b2b2" id="id_34" rx="1.904" ry="3.264" stroke-width="0.5"/>
  <path atv:refpx="423.087" atv:refpy="173.388" d="M422.679,169.988L423.495,169.988L423.495,176.788L422.679,176.788Z" fill="#b2b2b2" id="id_35" stroke-width="0.5"/>
  <path atv:refpx="304.095" atv:refpy="98.865" d="M302.735,93.833L305.455,93.833L305.455,103.897L302.735,103.897Z" fill="#e5e5e5" id="id_36" stroke="#4c4c4c" stroke-width="0.5"/>
  <path atv:refpx="226.172" atv:refpy="98.865" d="M224.948,93.833L227.396,93.833L227.396,103.897L224.948,103.897Z" fill="#e5e5e5" id="id_37" stroke="#4c4c4c" stroke-width="0.5"/>
  <path atv:refpx="382.97" atv:refpy="98.865" d="M381.61,93.833L384.329,93.833L384.329,103.897L381.61,103.897Z" fill="#e5e5e5" id="id_38" stroke="#4c4c4c" stroke-width="0.5"/>
  <path atv:refpx="306.271" atv:refpy="111.785" d="M196.39,109.608L416.151,109.608L416.151,113.96L196.39,113.96Z" fill="#191919" id="id_159" stroke-width="0.5"/>
  <path atv:refpx="306.271" atv:refpy="119.4" d="M196.39,117.224L416.151,117.224L416.151,121.575L196.39,121.575Z" fill="#191919" id="id_160" stroke-width="0.5"/>
  <path atv:refpx="306.271" atv:refpy="127.696" d="M196.39,125.655L416.151,125.655L416.151,129.735L196.39,129.735Z" fill="#191919" id="id_41" stroke-width="0.5"/>
  <path atv:refpx="306.271" atv:refpy="135.311" d="M196.39,133.271L416.151,133.271L416.151,137.35L196.39,137.35Z" fill="#191919" id="id_42" stroke-width="0.5"/>
  <path atv:refpx="306.271" atv:refpy="143.742" d="M196.39,141.702L416.151,141.702L416.151,145.782L196.39,145.782Z" fill="#191919" id="id_43" stroke-width="0.5"/>
  <path atv:refpx="306.271" atv:refpy="151.222" d="M196.39,149.046L416.151,149.046L416.151,153.397L196.39,153.397Z" fill="#191919" id="id_44" stroke-width="0.5"/>
  <path atv:refpx="306.271" atv:refpy="159.653" d="M196.39,157.477L416.151,157.477L416.151,161.829L196.39,161.829Z" fill="#191919" id="id_45" stroke-width="0.5"/>
  <path atv:refpx="306.271" atv:refpy="167.133" d="M196.39,165.093L416.151,165.093L416.151,169.172L196.39,169.172Z" fill="#191919" id="id_46" stroke-width="0.5"/>
  <path atv:refpx="306.271" atv:refpy="175.564" d="M196.39,173.524L416.151,173.524L416.151,177.604L196.39,177.604Z" fill="#191919" id="id_47" stroke-width="0.5"/>
  <path atv:refpx="380.114" atv:refpy="141.567" d="M344.076,189.299L344.076,93.833L416.151,93.833" fill="none" id="id_48" stroke="#666" stroke-width="0.5"/>
  <path atv:refpx="304.095" atv:refpy="141.567" d="M268.465,189.299L268.465,93.833L339.724,93.833" fill="none" id="id_161" stroke="#666" stroke-width="0.5"/>
  <path atv:refpx="228.756" atv:refpy="141.567" d="M193.126,189.299L193.126,93.833L264.385,93.833" fill="none" id="id_50" stroke="#666" stroke-width="0.5"/>
  <path atv:refpx="266.698" atv:refpy="131.231" d="M272.545,130.823L272.545,131.639L260.85,131.639L260.85,130.823Z" fill="#b2b2b2" id="id_51" stroke="#4c4c4c" stroke-width="0.5"/>
  <path atv:refpx="266.698" atv:refpy="163.053" d="M272.545,162.645L272.545,163.461L260.85,163.461L260.85,162.645Z" fill="#b2b2b2" id="id_52" stroke="#4c4c4c" stroke-width="0.5"/>
  <path atv:refpx="427.711" atv:refpy="182.228" d="M421.863,179.236L433.558,179.236L433.558,185.219L421.863,185.219Z" fill="#c93" id="id_53" stroke="#4c4c4c" stroke-width="0.5"/>
  <path atv:refpx="383.786" atv:refpy="179.372" d="M348.156,175.156L419.415,175.156L419.415,183.587L348.156,183.587Z" fill="#c93" id="id_54" stroke="#4c4c4c" stroke-width="0.5"/>
  <path atv:refpx="440.086" atv:refpy="140.343" d="M435.462,209.426L444.709,202.898L444.709,71.259L435.462,77.786Z" fill="#ff9" id="id_55" stroke="#4c4c4c" stroke-width="0.5"/>
  <path atv:refpx="308.855" atv:refpy="74.523" d="M173,77.786L435.462,77.786L444.709,71.259L181.975,71.259Z" fill="#ffc" id="id_56" stroke="#4c4c4c" stroke-width="0.5"/>
  <path atv:refpx="404.729" atv:refpy="13.735" d="M393.305,27.47L393.033,27.47L392.761,27.47L392.489,27.198L392.217,27.198L392.217,26.926L391.945,26.654L391.673,26.382L391.401,25.838L391.401,25.566L391.129,25.294L391.129,24.75L391.129,24.206L391.129,23.934L390.857,23.39L390.857,22.846L390.857,22.574L390.857,21.758L390.857,21.214L391.129,20.67L391.129,20.126L391.129,19.582L391.129,19.31L391.401,18.766L391.401,18.222L391.673,17.95L391.945,17.678L392.217,17.406L392.217,17.134L392.489,16.862L392.761,16.862L393.033,16.59L393.305,16.59L394.937,16.59L396.297,16.318L397.657,16.046L398.744,15.502L400.104,14.959L401.192,14.143L402.28,13.327L403.368,12.239L404.456,11.423L405.272,10.335L405.816,8.975L406.36,7.887L406.904,6.527L407.448,5.167L407.72,3.807L407.72,2.447L407.72,2.175L407.72,1.903L407.992,1.631L407.992,1.359L408.264,1.087L408.536,0.815L409.08,0.543L409.352,0.543L409.624,0.271L410.168,0.271L410.712,0L411.256,0L411.8,0L412.344,0L412.888,0L413.432,0L413.975,0L414.519,0L415.063,0L415.335,0L415.879,0L416.151,0.271L416.695,0.271L416.967,0.543L417.239,0.543L417.511,0.815L418.055,1.087L418.055,1.359L418.327,1.631L418.327,1.903L418.599,2.175L418.599,2.447L418.599,3.807L418.327,4.895L418.327,6.255L418.055,7.615L417.783,8.703L417.511,10.063L416.967,11.151L416.695,12.239L416.151,13.327L415.607,14.415L415.063,15.502L414.519,16.59L413.703,17.678L412.888,18.494L412.072,19.31L411.256,20.398L410.44,21.214L409.624,22.03L408.536,22.574L407.72,23.39L406.632,23.934L405.544,24.478L404.456,25.022L403.368,25.566L402.28,26.11L400.92,26.382L399.832,26.654L398.472,26.926L397.385,27.198L396.025,27.47L394.665,27.47Z" fill="#c63" id="id_57" stroke="#4c4c4c" stroke-width="0.5"/>
  <path atv:refpx="413.16" atv:refpy="3.264" d="M418.599,2.447L418.327,2.719L418.055,2.991L417.511,3.263L417.239,3.535L416.967,3.535L416.695,3.535L416.151,3.807L415.879,3.807L415.335,3.807L415.063,4.078L414.519,4.078L413.975,4.078L413.432,4.078L412.888,4.078L412.344,4.078L411.8,4.078L411.256,3.807L410.712,3.807L410.168,3.807L409.624,3.535L409.352,3.535L409.08,3.535L408.536,3.263L408.264,2.991L407.992,2.991L407.992,2.719L407.72,2.719L407.72,2.447" fill="none" id="id_58" stroke="#4c4c4c" stroke-width="0.5"/>
  <path atv:refpx="404.729" atv:refpy="15.775" d="M392.489,27.47L393.849,27.47L394.937,27.198L396.025,27.198L397.113,26.926L398.472,26.654L399.56,26.11L400.648,25.838L401.736,25.294L402.824,25.022L403.912,24.478L405,23.934L405.816,23.39L406.904,22.574L407.72,22.03L408.808,21.214L409.624,20.398L410.44,19.854L411.256,19.038L412.072,17.95L412.888,17.134L413.703,16.318L414.247,15.23L415.063,14.143L415.607,13.327L416.151,12.239L416.695,11.151L416.967,10.063L417.511,8.975L417.783,7.615L418.055,6.527L418.327,5.167L418.599,4.078L418.327,4.078L418.055,4.351L417.783,4.623L417.511,4.895L416.695,5.167L416.151,5.439L415.335,5.711L415.063,6.799L414.791,7.887L414.519,8.703L414.247,9.519L413.975,10.607L413.432,11.423L412.888,12.239L412.616,13.327L412.072,14.143L411.528,14.959L410.712,15.502L410.168,16.318L409.624,17.134L408.808,17.678L407.992,18.494L407.448,19.038L406.632,19.582L405.816,20.126L405,20.67L404.184,21.214L403.368,21.758L402.28,22.03L401.464,22.574L400.376,22.846L399.56,23.118L398.472,23.39L397.657,23.662L396.569,23.934L395.753,23.934L394.665,24.206L393.577,24.206L392.489,24.206L392.217,24.206L391.945,24.206L391.673,24.206L391.401,24.206L391.129,24.206L390.857,24.206L391.129,24.75L391.401,25.294L391.673,26.11L391.945,26.382L392.217,26.926L392.489,27.198Z" fill="#900" id="id_59" stroke-width="0.5"/>
  <path atv:refpx="365.291" atv:refpy="70.715" d="M359.851,66.091L370.73,66.091L370.73,75.338L359.851,75.338Z" fill="#7f7f7f" id="id_60" stroke="#4c4c4c" stroke-width="0.5"/>
  <path atv:refpx="306.271" atv:refpy="70.307" d="M313.886,72.891L313.614,73.163L313.614,73.435L313.342,73.707L313.07,73.979L312.798,74.251L312.526,74.251L311.982,74.523L311.438,74.795L310.894,74.795L310.35,75.067L309.806,75.067L309.262,75.067L308.446,75.338L307.631,75.338L307.087,75.338L306.271,75.338L305.455,75.338L304.639,75.338L303.823,75.338L303.279,75.067L302.735,75.067L301.919,75.067L301.375,74.795L300.831,74.795L300.287,74.523L300.015,74.251L299.471,74.251L299.199,73.979L298.927,73.707L298.927,73.435L298.655,73.163L298.655,72.891L298.655,65.275L313.886,65.275Z" fill="#7f7f7f" id="id_61" stroke="#4c4c4c" stroke-width="0.5"/>
  <path atv:refpx="249.699" atv:refpy="70.715" d="M244.259,66.091L255.138,66.091L255.138,75.338L244.259,75.338Z" fill="#7f7f7f" id="id_62" stroke="#4c4c4c" stroke-width="0.5"/>
  <path atv:refpx="372.907" atv:refpy="70.715" d="M370.73,75.338L375.082,72.891L375.082,66.091L370.73,66.091Z" fill="#333" id="id_63" stroke="#4c4c4c" stroke-width="0.5"/>
  <path atv:refpx="257.178" atv:refpy="70.715" d="M255.138,75.338L259.218,72.891L259.218,66.091L255.138,66.091Z" fill="#333" id="id_64" stroke="#4c4c4c" stroke-width="0.5"/>
  <path atv:refpx="388.274" atv:refpy="22.031" d="M393.305,16.59L385.961,16.59L385.689,16.59L385.145,16.862L384.873,16.862L384.873,17.134L384.601,17.406L384.329,17.678L384.057,17.95L384.057,18.222L383.785,18.766L383.785,19.31L383.513,19.582L383.513,20.126L383.513,20.67L383.513,21.214L383.242,21.758L383.242,22.574L383.242,22.846L383.513,23.39L383.513,23.934L383.513,24.206L383.513,24.75L383.785,25.294L383.785,25.566L384.057,25.838L384.057,26.382L384.329,26.654L384.601,26.926L384.873,27.198L385.145,27.47L385.689,27.47L385.961,27.47L393.305,27.47L393.033,27.47L392.761,27.47L392.489,27.198L392.217,27.198L392.217,26.926L391.945,26.654L391.673,26.382L391.401,25.838L391.401,25.566L391.129,25.294L391.129,24.75L391.129,24.206L391.129,23.934L390.857,23.39L390.857,22.846L390.857,22.574L390.857,21.758L390.857,21.214L391.129,20.67L391.129,20.126L391.129,19.582L391.129,19.31L391.401,18.766L391.401,18.222L391.673,17.95L391.945,17.678L392.217,17.406L392.217,17.134L392.489,16.862L392.761,16.862L393.033,16.59Z" fill="none" id="id_65" stroke="#4c4c4c" stroke-width="0.5"/>
  <path atv:refpx="306.271" atv:refpy="39.301" d="M385.961,12.511L236.643,12.511L236.099,12.511L235.555,12.511L235.011,12.783L234.467,13.055L233.923,13.327L233.379,13.599L233.108,14.143L232.564,14.687L232.02,15.23L231.748,15.774L231.204,16.318L230.932,17.134L230.388,17.95L230.116,18.766L229.572,19.582L229.3,20.398L229.028,21.486L228.756,22.574L228.484,23.39L228.212,24.478L227.94,25.566L227.668,26.654L227.396,28.014L227.396,29.102L227.124,30.189L226.852,31.549L226.852,32.637L226.852,33.997L226.58,35.357L226.58,36.717L226.58,38.077L226.58,39.165L226.58,40.525L226.58,41.885L226.58,43.245L226.852,44.605L226.852,45.692L226.852,47.052L227.124,48.412L227.396,49.5L227.396,50.588L227.668,51.948L227.94,53.036L228.212,54.124L228.484,55.212L228.756,56.028L229.028,57.116L229.3,57.932L229.572,59.02L230.116,59.836L230.388,60.651L230.932,61.467L231.204,62.011L231.748,62.827L232.02,63.371L232.564,63.915L233.108,64.459L233.379,65.003L233.923,65.275L234.467,65.547L235.011,65.819L235.555,66.091L236.099,66.091L236.643,66.091L385.961,66.091L385.417,66.091L384.873,66.091L384.329,65.819L383.785,65.547L383.242,65.275L382.698,65.003L382.154,64.459L381.61,63.915L381.338,63.371L380.794,62.827L380.25,62.011L379.978,61.467L379.434,60.651L378.89,59.836L378.618,59.02L378.346,57.932L377.802,57.116L377.53,56.028L377.258,55.212L376.986,54.124L376.714,53.036L376.17,51.948L376.17,50.588L375.898,49.5L375.626,48.412L375.354,47.052L375.354,45.692L375.082,44.605L375.082,43.245L375.082,41.885L375.082,40.525L375.082,39.165L375.082,38.077L375.082,36.717L375.082,35.357L375.082,33.997L375.354,32.637L375.354,31.549L375.626,30.189L375.898,29.102L376.17,28.014L376.17,26.654L376.714,25.566L376.986,24.478L377.258,23.39L377.53,22.574L377.802,21.486L378.346,20.398L378.618,19.582L378.89,18.766L379.434,17.95L379.978,17.134L380.25,16.318L380.794,15.774L381.338,15.23L381.61,14.687L382.154,14.143L382.698,13.599L383.242,13.327L383.785,13.055L384.329,12.783L384.873,12.511L385.417,12.511Z" fill="none" id="id_66" stroke="#4c4c4c" stroke-width="0.5"/>
 </g>
 <rect atv:refpx="240.5" atv:refpy="115" fill="#000000" fill-opacity="0" height="230" id="click_area" stroke="#0000ff" stroke-width="0" width="283" x="99" y="0"/>
</svg>
