<?xml version='1.0' encoding='UTF-8' standalone='no'?>
<svg height="650" version="1.2" width="603" xmlns="http://www.w3.org/2000/svg" xmlns:atv="http://webmi.atvise.com/2007/svgext" xmlns:xlink="http://www.w3.org/1999/xlink">
 <defs>
  <linearGradient gradientUnits="objectBoundingBox" id="linear_0" x1="0" x2="1" y1="0" y2="1">
   <stop offset="0" stop-color="#000000"/>
   <stop offset="1" stop-color="#000000" stop-opacity="0"/>
  </linearGradient>
 </defs>
 <metadata>
  <atv:parameter behavior="optional" defaultvalue="SYSTEM.GLOBALS.Color_Global_1" desc="Color" name="Color" substitute="$Color$" valuetype="global"/>
  <atv:parameter behavior="optional" defaultvalue="" desc="Display_Mant" name="Display_Mant" valuetype="display"/>
  <atv:gridconfig enabled="true" gridstyle="lines" height="20" width="20"/>
  <atv:snapconfig enabled="true" height="1" width="1"/>
 </metadata>
 <svg atv:refpx="301.52" atv:refpy="349.986" height="600" id="id_19" transform="matrix(0.7537,0,0,1,0,0)" width="800" x="0" xlink:href="SYSTEM.LIBRARY.ATVISE.OBJECTDISPLAYS.Advanced.hmi.iframe" y="50">
  <atv:argument name="frameName" value="maintframe"/>
  <atv:argument name="display" prefix="Display_Mant"/>
 </svg>
 <rect atv:refpx="550" atv:refpy="30" fill="#000000" height="40" id="background_history" stroke="none" stroke-width="2" width="40" x="530" y="5"/>
 <svg atv:refpx="550" atv:refpy="30" height="20" id="id_21" transform="matrix(2,0,0,2,0,0)" width="20" x="265" xlink:href="SYSTEM.LIBRARY.ATVISE.OBJECTDISPLAYS.Symbols.history" y="2.5">
  <atv:argument name="symbolColor" value="#ffffff"/>
 </svg>
 <rect atv:refpx="550" atv:refpy="30" fill="#000000" fill-opacity="0" height="40" id="click_area_history" stroke="none" stroke-width="2" width="40" x="530" y="5"/>
 <rect atv:refpx="450" atv:refpy="30" fill="#000000" height="40" id="background_set" stroke="none" stroke-width="2" width="40" x="430" y="5"/>
 <g atv:refpx="449.827" atv:refpy="30.319" id="id_28" transform="matrix(1,0,0,1,90,-3)">
  <polyline atv:refpx="352.435" atv:refpy="19.81" fill="#ffffff" id="id_23" points="344.242,14.36 348.325,18.444 350.878,18.444 351.899,17.423 351.899,15.381 347.815,11.297 352.41,11.297 354.961,14.36 354.961,18.444 361.088,24.569 357.478,28.32 351.899,22.528 347.815,22.018 344.242,18.954 343.78,14.148" stroke="#ffffff" stroke-width="1"/>
  <polyline atv:refpx="351.463" atv:refpy="18.612" fill="#ffffff" id="id_24" points="376.961,41.081 372.878,36.998 370.325,36.998 369.304,38.019 369.304,40.06 373.388,44.145 368.793,44.145 366.242,41.081 366.242,36.998 360.116,30.872 363.725,27.122 369.304,32.914 373.388,33.424 376.961,36.487 377.424,41.294" stroke="#ffffff" stroke-width="1"/>
  <path atv:refpx="358.821" atv:refpy="28.853" d="M354.5,30.696L367.773,17.423C367.773,17.423 367.773,15.381 367.773,15.381C367.773,15.381 373.899,12.318 373.899,12.318C373.899,12.318 375.431,13.85 375.431,13.85C375.431,13.85 372.878,19.465 372.878,19.465C372.878,19.465 370.836,19.465 370.836,19.465C370.836,19.465 356.542,33.248 356.542,33.248C356.542,33.248 358.074,34.78 358.074,34.78C358.074,34.78 348.374,44.479 348.374,44.479C348.374,44.479 345.311,46.521 343.27,44.479C341.228,42.437 342.759,40.396 342.759,39.885C342.759,39.375 353.021,29.16 353.021,29.16C353.021,29.16 354.5,31.207 354.5,30.696" fill="#ffffff" id="id_25" stroke="#ffffff" stroke-width="1"/>
 </g>
 <rect atv:refpx="450" atv:refpy="30" fill="#000000" fill-opacity="0" height="40" id="click_area_set" stroke="none" stroke-width="2" width="40" x="430" y="5"/>
 <script atv:desc="" atv:href="SYSTEM.LIBRARY.PROJECT.DISPLAYSCRIPTS.atvise_Advanced_Objects_Display_Scripts.Maintenance_Display_Script" atv:name="" atv:type="text/ecmascript"/>
 <text atv:refpx="64.048" atv:refpy="26" fill="$Color$" font-family="Arial" font-size="24" id="id_1" x="14.5" y="30.5">Maintenance Type</text>
 <rect atv:refpx="500" atv:refpy="30" fill="#000000" height="40" id="background_chart" stroke="none" stroke-width="2" width="40" x="480" y="5"/>
 <svg atv:refpx="500" atv:refpy="30" height="20" id="id_36" transform="matrix(1.75,0,0,1.75,0,0)" width="20" x="275.714" xlink:href="SYSTEM.LIBRARY.ATVISE.OBJECTDISPLAYS.Symbols.20x20.chart" y="4.286">
  <atv:argument name="symbolColor" value="#ffffff"/>
 </svg>
 <rect atv:refpx="500" atv:refpy="30" fill="#000000" fill-opacity="0" height="40" id="click_area_chart" stroke="none" stroke-width="2" width="40" x="480" y="5"/>
 <script atv:desc="" atv:name="" type="text/ecmascript"/>
</svg>
