<?xml version='1.0' encoding='UTF-8' standalone='no'?>
<svg height="285" version="1.2" width="350" xmlns="http://www.w3.org/2000/svg" xmlns:atv="http://webmi.atvise.com/2007/svgext" xmlns:xlink="http://www.w3.org/1999/xlink">
 <defs>
  <linearGradient gradientUnits="objectBoundingBox" id="id_33_fill_gradient" spreadMethod="reflect" x1="0.0675676" x2="0.581081" y1="1" y2="1">
   <stop offset="0" stop-color="#999999"/>
   <stop offset="1" stop-color="#e5e5e5"/>
  </linearGradient>
  <linearGradient gradientUnits="objectBoundingBox" id="id_34_fill_gradient" spreadMethod="reflect" x1="-0.135135" x2="0.405405" y1="0.986486" y2="0.972973">
   <stop offset="0" stop-color="#999999"/>
   <stop offset="1" stop-color="#e5e5e5"/>
  </linearGradient>
  <linearGradient gradientUnits="objectBoundingBox" id="id_41_fill_gradient" spreadMethod="reflect" x1="-0.135135" x2="0.405405" y1="1" y2="0.972973">
   <stop offset="0" stop-color="#999999"/>
   <stop offset="1" stop-color="#e5e5e5"/>
  </linearGradient>
  <linearGradient gradientUnits="objectBoundingBox" id="id_42_fill_gradient" spreadMethod="reflect" x1="-0.135135" x2="0.405405" y1="0.986486" y2="0.972973">
   <stop offset="0" stop-color="#999999"/>
   <stop offset="1" stop-color="#e5e5e5"/>
  </linearGradient>
  <radialGradient cx="0.5" cy="0.5" fx="0.5" fy="0.5" gradientUnits="objectBoundingBox" id="id_42_stroke_gradient" r="1">
   <stop offset="0" stop-color="#000000"/>
   <stop offset="1" stop-color="#ffffff"/>
  </radialGradient>
  <linearGradient gradientUnits="objectBoundingBox" id="id_43_fill_gradient" spreadMethod="reflect" x1="-0.135135" x2="0.405405" y1="1" y2="0.972973">
   <stop offset="0" stop-color="#999999"/>
   <stop offset="1" stop-color="#e5e5e5"/>
  </linearGradient>
  <radialGradient cx="0.5" cy="0.5" fx="0.5" fy="0.5" gradientUnits="objectBoundingBox" id="id_44_fill_gradient" r="0.514579">
   <stop offset="0.6088709677419355" stop-color="#e4e4e4"/>
   <stop offset="1" stop-color="#9a9a9a"/>
  </radialGradient>
  <radialGradient cx="0.5" cy="0.5" fx="0.5" fy="0.5" gradientUnits="objectBoundingBox" id="id_7_fill_gradient" r="0.514579">
   <stop offset="0.6088709677419355" stop-color="#e4e4e4"/>
   <stop offset="1" stop-color="#9a9a9a"/>
  </radialGradient>
  <linearGradient gradientUnits="objectBoundingBox" id="linear_0" x1="0" x2="1" y1="0" y2="1">
   <stop offset="0" stop-color="#000000"/>
   <stop offset="1" stop-color="#000000" stop-opacity="0"/>
  </linearGradient>
  <linearGradient gradientUnits="objectBoundingBox" id="SVGID_10_" x1="-0.000148525" x2="0.99982" y1="0.499965" y2="0.499965">
   <stop offset="0.17" stop-color="#4D4D4D"/>
   <stop offset="0.23" stop-color="#5A5A5A"/>
   <stop offset="0.34" stop-color="#7D7D7D"/>
   <stop offset="0.48" stop-color="#B2B2B2"/>
   <stop offset="0.57" stop-color="#A8A8A8"/>
   <stop offset="0.73" stop-color="#8B8B8B"/>
   <stop offset="0.94" stop-color="#5C5C5C"/>
   <stop offset="1" stop-color="#4D4D4D"/>
  </linearGradient>
  <linearGradient gradientUnits="objectBoundingBox" id="SVGID_11_" x1="0" x2="0.999992" y1="0.499686" y2="0.499686">
   <stop offset="0.17" stop-color="#4D4D4D"/>
   <stop offset="0.23" stop-color="#5A5A5A"/>
   <stop offset="0.34" stop-color="#7D7D7D"/>
   <stop offset="0.48" stop-color="#B2B2B2"/>
   <stop offset="0.57" stop-color="#A8A8A8"/>
   <stop offset="0.73" stop-color="#8B8B8B"/>
   <stop offset="0.94" stop-color="#5C5C5C"/>
   <stop offset="1" stop-color="#4D4D4D"/>
  </linearGradient>
  <linearGradient gradientUnits="objectBoundingBox" id="SVGID_12_" x1="-0.000159151" x2="0.999873" y1="0.499976" y2="0.499976">
   <stop offset="0.17" stop-color="#4D4D4D"/>
   <stop offset="0.23" stop-color="#5A5A5A"/>
   <stop offset="0.34" stop-color="#7D7D7D"/>
   <stop offset="0.48" stop-color="#B2B2B2"/>
   <stop offset="0.57" stop-color="#A8A8A8"/>
   <stop offset="0.73" stop-color="#8B8B8B"/>
   <stop offset="0.94" stop-color="#5C5C5C"/>
   <stop offset="1" stop-color="#4D4D4D"/>
  </linearGradient>
  <linearGradient gradientUnits="objectBoundingBox" id="SVGID_13_" x1="-3.95757e-05" x2="0.999984" y1="0.500503" y2="0.500503">
   <stop offset="0.17" stop-color="#4D4D4D"/>
   <stop offset="0.23" stop-color="#5A5A5A"/>
   <stop offset="0.34" stop-color="#7D7D7D"/>
   <stop offset="0.48" stop-color="#B2B2B2"/>
   <stop offset="0.57" stop-color="#A8A8A8"/>
   <stop offset="0.73" stop-color="#8B8B8B"/>
   <stop offset="0.94" stop-color="#5C5C5C"/>
   <stop offset="1" stop-color="#4D4D4D"/>
  </linearGradient>
  <linearGradient gradientUnits="objectBoundingBox" id="SVGID_1_" x1="2.80483e-06" x2="1" y1="0.5" y2="0.5">
   <stop offset="0" stop-color="#383838"/>
   <stop offset="0.5" stop-color="#ECECEC"/>
   <stop offset="0.57" stop-color="#D9D9D9"/>
   <stop offset="0.71" stop-color="#A8A8A8"/>
   <stop offset="0.92" stop-color="#5A5A5A"/>
   <stop offset="1" stop-color="#383838"/>
  </linearGradient>
  <linearGradient gradientUnits="objectBoundingBox" id="SVGID_2_" x1="-5.34852e-06" x2="0.999996" y1="0.500015" y2="0.500015">
   <stop offset="0.06" stop-color="#808080"/>
   <stop offset="0.13" stop-color="#8D8D8D"/>
   <stop offset="0.28" stop-color="#B0B0B0"/>
   <stop offset="0.48" stop-color="#E8E8E8"/>
   <stop offset="0.48" stop-color="#EBEBEB"/>
   <stop offset="0.57" stop-color="#E0E0E0"/>
   <stop offset="0.72" stop-color="#C3C3C3"/>
   <stop offset="0.92" stop-color="#949494"/>
   <stop offset="1" stop-color="#808080"/>
  </linearGradient>
  <linearGradient gradientUnits="objectBoundingBox" id="SVGID_3_" x1="0.0132289" x2="0.961723" y1="1.43718" y2="-0.523291">
   <stop offset="0.29" stop-color="#F7F7F7"/>
   <stop offset="0.38" stop-color="#ECECEC"/>
   <stop offset="0.52" stop-color="#CFCFCF"/>
   <stop offset="0.71" stop-color="#A0A0A0"/>
   <stop offset="0.94" stop-color="#5F5F5F"/>
   <stop offset="1" stop-color="#4D4D4D"/>
  </linearGradient>
  <linearGradient gradientUnits="objectBoundingBox" id="SVGID_4_" x1="0.984938" x2="0.0397305" y1="1.44782" y2="-0.461717">
   <stop offset="0.29" stop-color="#F7F7F7"/>
   <stop offset="0.38" stop-color="#ECECEC"/>
   <stop offset="0.52" stop-color="#CFCFCF"/>
   <stop offset="0.71" stop-color="#A0A0A0"/>
   <stop offset="0.94" stop-color="#5F5F5F"/>
   <stop offset="1" stop-color="#4D4D4D"/>
  </linearGradient>
  <linearGradient gradientUnits="objectBoundingBox" id="SVGID_5_" x1="0.499998" x2="0.499998" y1="2.24065e-05" y2="1">
   <stop offset="0" stop-color="#C8C8C8"/>
   <stop offset="0.29" stop-color="#B1B1B1"/>
   <stop offset="0.91" stop-color="#757575"/>
   <stop offset="1" stop-color="#6C6C6C"/>
  </linearGradient>
  <linearGradient gradientUnits="objectBoundingBox" id="SVGID_6_" x1="-9.45716e-06" x2="1.00002" y1="0.5" y2="0.5">
   <stop offset="0" stop-color="#383838"/>
   <stop offset="0.45" stop-color="#ECECEC"/>
   <stop offset="0.55" stop-color="#D9D9D9"/>
   <stop offset="0.76" stop-color="#A8A8A8"/>
   <stop offset="0.77" stop-color="#A6A6A6"/>
   <stop offset="1" stop-color="#383838"/>
  </linearGradient>
  <linearGradient gradientUnits="objectBoundingBox" id="SVGID_7_" x1="7.05467e-06" x2="0.999993" y1="0.499944" y2="0.499944">
   <stop offset="0" stop-color="#383838"/>
   <stop offset="0.45" stop-color="#ECECEC"/>
   <stop offset="0.55" stop-color="#D9D9D9"/>
   <stop offset="0.76" stop-color="#A8A8A8"/>
   <stop offset="0.77" stop-color="#A6A6A6"/>
   <stop offset="1" stop-color="#383838"/>
  </linearGradient>
  <linearGradient gradientUnits="objectBoundingBox" id="SVGID_8_" x1="1.89143e-05" x2="1.00004" y1="0.5" y2="0.5">
   <stop offset="0" stop-color="#383838"/>
   <stop offset="0.45" stop-color="#ECECEC"/>
   <stop offset="0.55" stop-color="#D9D9D9"/>
   <stop offset="0.76" stop-color="#A8A8A8"/>
   <stop offset="0.77" stop-color="#A6A6A6"/>
   <stop offset="1" stop-color="#383838"/>
  </linearGradient>
  <linearGradient gradientUnits="objectBoundingBox" id="SVGID_9_" x1="2.82187e-05" x2="1.00001" y1="0.499944" y2="0.499944">
   <stop offset="0" stop-color="#383838"/>
   <stop offset="0.45" stop-color="#ECECEC"/>
   <stop offset="0.55" stop-color="#D9D9D9"/>
   <stop offset="0.76" stop-color="#A8A8A8"/>
   <stop offset="0.77" stop-color="#A6A6A6"/>
   <stop offset="1" stop-color="#383838"/>
  </linearGradient>
  <radialGradient cx="0.499789" cy="0.500127" fx="0.499789" fy="0.500127" gradientUnits="objectBoundingBox" id="radial_1" r="0.500063">
   <stop offset="0" stop-color="#E0E0E0"/>
   <stop offset="0.5" stop-color="#E0E0E0"/>
   <stop offset="1" stop-color="#595959"/>
  </radialGradient>
  <radialGradient cx="0.500042" cy="0.499911" fx="0.500042" fy="0.499911" gradientUnits="objectBoundingBox" id="radial_2" r="0.500043">
   <stop offset="0" stop-color="#E0E0E0"/>
   <stop offset="0.5" stop-color="#E0E0E0"/>
   <stop offset="1" stop-color="#595959"/>
  </radialGradient>
  <radialGradient cx="0.499848" cy="0.499978" fx="0.499848" fy="0.499978" gradientUnits="objectBoundingBox" id="radial_3" r="0.499968">
   <stop offset="0" stop-color="#E0E0E0"/>
   <stop offset="0.5" stop-color="#E0E0E0"/>
   <stop offset="1" stop-color="#595959"/>
  </radialGradient>
  <linearGradient gradientUnits="objectBoundingBox" id="linear_4" x1="0.563112" x2="0.436914" y1="1.13692" y2="-0.13513">
   <stop offset="0" stop-color="#808080"/>
   <stop offset="0.5" stop-color="#B2B2B2"/>
   <stop offset="0.6" stop-color="#D1D1D1"/>
   <stop offset="1" stop-color="#E5E5E5"/>
  </linearGradient>
  <radialGradient cx="0.5" cy="0.5" fx="0.5" fy="0.5" gradientUnits="objectBoundingBox" id="radial_5" r="0.500064">
   <stop offset="0" stop-color="#E0E0E0"/>
   <stop offset="0.5" stop-color="#BFD3F2"/>
   <stop offset="1" stop-color="#BFD3F2"/>
  </radialGradient>
  <radialGradient cx="0.499978" cy="0.5" fx="0.499978" fy="0.5" gradientUnits="objectBoundingBox" id="radial_6" r="0.500022">
   <stop offset="0" stop-color="#E0E0E0"/>
   <stop offset="0.5" stop-color="#BFD3F2"/>
   <stop offset="1" stop-color="#BFD3F2"/>
  </radialGradient>
  <radialGradient cx="0.499935" cy="0.499913" fx="0.499935" fy="0.499913" gradientUnits="objectBoundingBox" id="radial_7" r="0.500022">
   <stop offset="0" stop-color="#E0E0E0"/>
   <stop offset="0.5" stop-color="#BFD3F2"/>
   <stop offset="1" stop-color="#BFD3F2"/>
  </radialGradient>
  <radialGradient cx="0.500042" cy="0.500065" fx="0.500042" fy="0.500065" gradientUnits="objectBoundingBox" id="radial_8" r="0.500075">
   <stop offset="0" stop-color="#E0E0E0"/>
   <stop offset="0.5" stop-color="#BFD3F2"/>
   <stop offset="1" stop-color="#BFD3F2"/>
  </radialGradient>
  <radialGradient cx="0.499848" cy="0.500044" fx="0.499848" fy="0.500044" gradientUnits="objectBoundingBox" id="radial_9" r="0.528715">
   <stop offset="0" stop-color="#E0E0E0"/>
   <stop offset="0.5" stop-color="#BFD3F2"/>
   <stop offset="1" stop-color="#BFD3F2"/>
  </radialGradient>
  <radialGradient cx="0.500022" cy="0.500065" fx="0.500022" fy="0.500065" gradientUnits="objectBoundingBox" id="radial_10" r="0.499968">
   <stop offset="0" stop-color="#E0E0E0"/>
   <stop offset="0.5" stop-color="#E0E0E0"/>
   <stop offset="1" stop-color="#595959"/>
  </radialGradient>
  <radialGradient cx="0.500022" cy="0.500087" fx="0.500022" fy="0.500087" gradientUnits="objectBoundingBox" id="radial_11" r="0.500022">
   <stop offset="0" stop-color="#E0E0E0"/>
   <stop offset="0.5" stop-color="#E0E0E0"/>
   <stop offset="1" stop-color="#595959"/>
  </radialGradient>
  <radialGradient cx="0.5" cy="0.500022" fx="0.5" fy="0.500022" gradientUnits="objectBoundingBox" id="radial_12" r="0.500075">
   <stop offset="0" stop-color="#E0E0E0"/>
   <stop offset="0.5" stop-color="#E0E0E0"/>
   <stop offset="1" stop-color="#595959"/>
  </radialGradient>
 </defs>
 <metadata>
  <atv:parameter behavior="optional" defaultvalue="SYSTEM.GLOBALS.atvise_Advanced_Objects_Maintenance_List.Energy_Industry.Maintenance_Rectifier" desc="Global_Maintenance" group="Maintenance" name="Global_Maintenance" valuetype="global"/>
  <atv:parameter behavior="optional" defaultvalue="SYSTEM.GLOBALS.atvise_Advanced_Objects_Maintenance_List.Energy_Industry.Maintenance_Rectifier" desc="Global Maintenance Address" group="Maintenance" name="Global_Maintenance_Address" valuetype="string"/>
  <atv:parameter behavior="optional" defaultvalue="true" desc="Maintenance_Active" group="Maintenance" name="Maintenance" valuetype="bool"/>
  <atv:parameter behavior="optional" defaultvalue="true" desc="Icon Indicator Active" group="Alarming" name="Icon_Indicator" valuetype="bool"/>
  <atv:parameter behavior="optional" defaultvalue="" desc="Alert_Range" group="Alarming" name="Alert_Range" valuetype="number"/>
  <atv:parameter behavior="optional" defaultvalue="" desc="Notification List" group="Alarming" name="Notification_List" valuetype="global"/>
  <atv:parameter behavior="optional" defaultvalue="false" desc="Email Notification Active" group="Alarming" name="Email_Notification" valuetype="bool"/>
  <atv:parameter behavior="optional" defaultvalue="false" desc="Alertzy_Notification" group="Alarming" name="Alertzy_Notification" valuetype="bool"/>
  <atv:parameter behavior="optional" defaultvalue="SYSTEM.GLOBALS.Color_Global_1" desc="Color" group="Appereance" name="Color" substitute="$Color$" valuetype="global"/>
  <atv:parameter behavior="optional" defaultvalue="14" desc="Title Font Size" group="Appereance" name="Title_Font_Size" substitute="$FontSize$" valuetype="number"/>
  <atv:gridconfig enabled="true" gridstyle="lines" height="20" width="20"/>
  <atv:snapconfig enabled="true" height="5" width="5"/>
 </metadata>
 <g atv:refpx="217.386" atv:refpy="158.409" id="Image_1" transform="matrix(0.2371,0,0,0.2371,110.2371,40)">
  <path atv:refpx="417.5" atv:refpy="453" d="M0,36L835,36L835,870L0,870Z" fill="#f2e5cc" id="id_0"/>
  <path atv:refpx="417.5" atv:refpy="574.5" d="M0,629L835,279L835,870L0,870Z" fill="#ede0c7" id="id_1"/>
  <path atv:refpx="417.5" atv:refpy="591.5" d="M0,663L835,313L835,870L0,870Z" fill="#e8dbc2" id="id_2"/>
  <path atv:refpx="417.5" atv:refpy="617.5" d="M0,715L835,365L835,870L0,870Z" fill="#e3d6bd" id="id_3"/>
  <path atv:refpx="417.5" atv:refpy="453" d="M0,36L835,36L835,870L0,870Z" fill="none" id="id_4" stroke="#4c4c4c" stroke-width="2"/>
  <path atv:refpx="417" atv:refpy="592" d="M115,499L719,499L719,685L115,685Z" fill="#51607f" id="id_5"/>
  <path atv:refpx="186" atv:refpy="606" d="M165,585L207,585L207,627L165,627Z" fill="#d94000" id="id_7"/>
  <path atv:refpx="186" atv:refpy="544" d="M165,523L207,523L207,565L165,565Z" fill="#333" id="id_8"/>
  <path atv:refpx="517" atv:refpy="535" d="M479,523L555,523L555,547L479,547Z" fill="#d94000" id="id_9"/>
  <path atv:refpx="499" atv:refpy="569" d="M487,557L511,557L511,581L487,581Z" fill="#000" id="id_10"/>
  <path atv:refpx="533" atv:refpy="569" d="M521,557L545,557L545,581L521,581Z" fill="#000" id="id_11"/>
  <path atv:refpx="499" atv:refpy="602" d="M487,589L511,589L511,615L487,615Z" fill="#000" id="id_12"/>
  <path atv:refpx="533" atv:refpy="602" d="M521,589L545,589L545,615L521,615Z" fill="#000" id="id_13"/>
  <path atv:refpx="635" atv:refpy="535" d="M597,523L673,523L673,547L597,547Z" fill="#d94000" id="id_14"/>
  <path atv:refpx="618" atv:refpy="569" d="M605,557L631,557L631,581L605,581Z" fill="#000" id="id_15"/>
  <path atv:refpx="652" atv:refpy="569" d="M639,557L665,557L665,581L639,581Z" fill="#000" id="id_17"/>
  <path atv:refpx="618" atv:refpy="602" d="M605,589L631,589L631,615L605,615Z" fill="#000" id="id_18"/>
  <path atv:refpx="652" atv:refpy="602" d="M639,589L665,589L665,615L639,615Z" fill="#000" id="id_19"/>
  <path atv:refpx="244" atv:refpy="569" d="M231,557L257,557L257,581L231,581Z" fill="#000" id="id_20"/>
  <path atv:refpx="244" atv:refpy="602" d="M231,589L257,589L257,615L231,615Z" fill="#000" id="id_21"/>
  <path atv:refpx="516" atv:refpy="511.5" d="M499,511L533,511" fill="none" id="id_22" stroke="#fff" stroke-width="2"/>
  <path atv:refpx="632" atv:refpy="511.5" d="M615,511L649,511" fill="none" id="id_23" stroke="#fff" stroke-width="2"/>
  <path atv:refpx="609" atv:refpy="661.5" d="M533,661L685,661" fill="none" id="id_24" stroke="#fff" stroke-width="2"/>
  <path atv:refpx="417" atv:refpy="324" d="M115,231L719,231L719,417L115,417Z" fill="#51607f" id="id_25"/>
  <path atv:refpx="186" atv:refpy="338" d="M165,317L207,317L207,359L165,359Z" fill="#d94000" id="id_26"/>
  <path atv:refpx="186" atv:refpy="276" d="M165,255L207,255L207,297L165,297Z" fill="#333" id="id_27"/>
  <path atv:refpx="517" atv:refpy="268" d="M479,255L555,255L555,281L479,281Z" fill="#d94000" id="id_28"/>
  <path atv:refpx="499" atv:refpy="302" d="M487,289L511,289L511,315L487,315Z" fill="#000" id="id_29"/>
  <path atv:refpx="533" atv:refpy="302" d="M521,289L545,289L545,315L521,315Z" fill="#000" id="id_30"/>
  <path atv:refpx="499" atv:refpy="335" d="M487,323L511,323L511,347L487,347Z" fill="#000" id="id_31"/>
  <path atv:refpx="533" atv:refpy="335" d="M521,323L545,323L545,347L521,347Z" fill="#000" id="id_32"/>
  <path atv:refpx="635" atv:refpy="268" d="M597,255L673,255L673,281L597,281Z" fill="#d94000" id="id_33"/>
  <path atv:refpx="618" atv:refpy="302" d="M605,289L631,289L631,315L605,315Z" fill="#000" id="id_34"/>
  <path atv:refpx="652" atv:refpy="302" d="M639,289L665,289L665,315L639,315Z" fill="#000" id="id_35"/>
  <path atv:refpx="618" atv:refpy="335" d="M605,323L631,323L631,347L605,347Z" fill="#000" id="id_36"/>
  <path atv:refpx="652" atv:refpy="335" d="M639,323L665,323L665,347L639,347Z" fill="#000" id="id_37"/>
  <path atv:refpx="244" atv:refpy="302" d="M231,289L257,289L257,315L231,315Z" fill="#000" id="id_38"/>
  <path atv:refpx="244" atv:refpy="335" d="M231,323L257,323L257,347L231,347Z" fill="#000" id="id_39"/>
  <path atv:refpx="516" atv:refpy="243.5" d="M499,243L533,243" fill="none" id="id_40" stroke="#fff" stroke-width="2"/>
  <path atv:refpx="632" atv:refpy="243.5" d="M615,243L649,243" fill="none" id="id_41" stroke="#fff" stroke-width="2"/>
  <path atv:refpx="609" atv:refpy="395.5" d="M533,395L685,395" fill="none" id="id_42" stroke="#fff" stroke-width="2"/>
  <path atv:refpx="155" atv:refpy="934.5" d="M109,870L201,870L201,999L109,999Z" fill="#e5cb98" id="id_43" stroke="#4c4c4c" stroke-width="2"/>
  <path atv:refpx="318" atv:refpy="934.5" d="M271,870L365,870L365,999L271,999Z" fill="#e5cb98" id="id_44" stroke="#4c4c4c" stroke-width="2"/>
  <path atv:refpx="551" atv:refpy="934.5" d="M505,870L597,870L597,999L505,999Z" fill="#e5cb98" id="id_45" stroke="#4c4c4c" stroke-width="2"/>
  <path atv:refpx="713" atv:refpy="934.5" d="M667,870L759,870L759,999L667,999Z" fill="#e5cb98" id="id_46" stroke="#4c4c4c" stroke-width="2"/>
  <circle atv:refpx="156" atv:refpy="929" cx="156" cy="929" fill="#333" id="id_47" r="22"/>
  <circle atv:refpx="318" atv:refpy="929" cx="318" cy="929" fill="#333" id="id_48" r="23"/>
  <circle atv:refpx="550" atv:refpy="929" cx="550" cy="929" fill="#333" id="id_49" r="23"/>
  <circle atv:refpx="714" atv:refpy="929" cx="714" cy="929" fill="#333" id="id_50" r="23"/>
  <path atv:refpx="207" atv:refpy="934.5" d="M201,999L213,993L213,870L201,870Z" fill="#bfb299" id="id_51" stroke="#4c4c4c" stroke-width="2"/>
  <path atv:refpx="371" atv:refpy="934.5" d="M365,999L377,993L377,870L365,870Z" fill="#bfb299" id="id_52" stroke="#4c4c4c" stroke-width="2"/>
  <path atv:refpx="603" atv:refpy="934.5" d="M597,999L609,993L609,870L597,870Z" fill="#bfb299" id="id_53" stroke="#4c4c4c" stroke-width="2"/>
  <path atv:refpx="764.5" atv:refpy="934.5" d="M759,999L770,993L770,870L759,870Z" fill="#bfb299" id="id_54" stroke="#4c4c4c" stroke-width="2"/>
  <path atv:refpx="870" atv:refpy="435" d="M905,0L835,36L835,870L905,835Z" fill="#bfb299" id="id_55" stroke="#4c4c4c" stroke-width="2"/>
  <path atv:refpx="452.5" atv:refpy="18" d="M905,0L835,36L0,36L69,0Z" fill="#faf5eb" id="id_56" stroke="#4c4c4c" stroke-width="2"/>
 </g>
 <text atv:refpx="220.738" atv:refpy="11.5" fill="$Color$" font-family="Arial" font-size="$FontSize$" font-weight="bold" id="Title" text-anchor="middle" x="218.5" y="17">Name</text>
 <script atv:desc="" atv:href="SYSTEM.LIBRARY.PROJECT.DISPLAYSCRIPTS.atvise_Advanced_Objects_Display_Scripts.AAA_Principal_Display_Script" atv:name="" atv:type="text/ecmascript"/>
 <script atv:desc="" atv:name="" type="text/ecmascript"/>
 <rect atv:refpx="220" atv:refpy="142.5" fill="#000000" fill-opacity="0" height="285" id="click_area" stroke="#0000ff" stroke-width="0" width="260" x="90" y="0"/>
 <svg atv:refpx="39" atv:refpy="61.36" height="122.72" id="id_6" width="78" x="0" xlink:href="SYSTEM.LIBRARY.PROJECT.OBJECTDISPLAYS.atvise_Advanced_Objects_Complementary_Elements.Alarm_Alert_Advanced_Indicator" y="0">
  <atv:argument name="base" prefix="base"/>
 </svg>
 <svg atv:refpx="48.06" atv:refpy="258.06" height="36.12" id="id_16" width="36.12" x="30" xlink:href="SYSTEM.LIBRARY.PROJECT.OBJECTDISPLAYS.atvise_Advanced_Objects_Complementary_Elements.Maintenance_Advanced_Indicator" y="240">
  <atv:argument name="base" prefix="base"/>
 </svg>
</svg>
