<!DOCTYPE svg PUBLIC '-//W3C//DTD SVG 20000303 Stylable//EN' 'http://www.w3.org/TR/2000/03/WD-SVG-20000303/DTD/svg-20000303-stylable.dtd'>
<svg height="999" width="770" xmlns="http://www.w3.org/2000/svg" xmlns:atv="http://webmi.atvise.com/2007/svgext" xmlns:xlink="http://www.w3.org/1999/xlink">
 <defs/>
 <metadata>
  <atv:gridconfig enabled="false" gridstyle="lines" height="20" width="20"/>
  <atv:snapconfig enabled="false" height="10" width="10"/>
 </metadata>
 <g atv:refpx="384.5" atv:refpy="500" id="Image_1">
  <path atv:refpx="331.5" atv:refpy="551.5" d="M0,104L663,104L663,999L0,999Z" fill="#ccc" id="id_0"/>
  <path atv:refpx="331.5" atv:refpy="682" d="M0,738L663,365L663,999L0,999Z" fill="#c7c7c7" id="id_1"/>
  <path atv:refpx="331.5" atv:refpy="701" d="M0,776L663,403L663,999L0,999Z" fill="#c2c2c2" id="id_2"/>
  <path atv:refpx="331.5" atv:refpy="729" d="M0,833L663,459L663,999L0,999Z" fill="#bdbdbd" id="id_3"/>
  <path atv:refpx="331.5" atv:refpy="551.5" d="M0,104L663,104L663,999L0,999Z" fill="none" id="id_4" stroke="#4c4c4c" stroke-width="2"/>
  <path atv:refpx="385" atv:refpy="52" d="M0,104L663,104L770,0L104,0Z" fill="#b2b2b2" id="id_5" stroke="#4c4c4c" stroke-width="2"/>
  <path atv:refpx="715.5" atv:refpy="498" d="M768,0L663,104L663,996L768,891Z" fill="#7f7f7f" id="id_6" stroke="#4c4c4c" stroke-width="2"/>
  <path atv:refpx="626" atv:refpy="556.5" d="M602,518L650,518L650,595L602,595Z" fill="#b2b2b2" id="id_7" stroke="#4c4c4c" stroke-width="2"/>
  <path atv:refpx="626" atv:refpy="556.5" d="M602,549L650,549L650,564L602,564Z" fill="#f0f0f0" id="id_8" stroke="#4c4c4c" stroke-width="2"/>
  <path atv:refpx="331" atv:refpy="154.5" d="M48,129L614,129L614,180L48,180Z" fill="#f0f0f0" id="id_9" stroke="#4c4c4c" stroke-width="2"/>
  <path atv:refpx="331" atv:refpy="163" d="M48,159L614,159L614,167L48,167Z" fill="#f0f0f0" id="id_10" stroke="#4c4c4c" stroke-width="2"/>
  <path atv:refpx="331" atv:refpy="337" d="M331,403L337,407L362,381L350,371L381,367L362,350L367,344L384,361L400,342L398,337L400,335L384,317L367,333L362,329L381,310L350,306L361,295L335,270L331,272L327,270L302,295L312,306L283,310L302,329L295,333L281,317L262,335L264,337L262,342L281,361L295,344L302,350L283,367L312,371L302,381L325,404ZM342,413L337,419L331,423L323,419L321,413L321,411L295,388L285,398L281,369L264,386L257,381L275,367L256,348L253,348L245,346L243,337L245,331L253,327L257,329L275,312L257,295L264,291L281,310L285,281L295,291L323,266L321,262L323,253L331,251L337,253L342,262L339,264L367,291L377,281L381,310L400,291L404,295L388,312L404,329L409,327L417,331L419,337L417,346L409,348L407,348L388,367L404,381L400,386L381,369L377,398L367,388Z" fill="#000" id="id_11" style="fill-rule:evenodd"/>
  <path atv:refpx="195" atv:refpy="503" d="M195,484L209,489L214,503L209,516L195,522L182,516L176,503L182,489Z" fill="#000" id="id_12" stroke="#4c4c4c" stroke-width="2"/>
  <path atv:refpx="281" atv:refpy="503" d="M281,484L294,489L300,503L294,516L281,522L268,516L262,503L268,489Z" fill="#000" id="id_13" stroke="#4c4c4c" stroke-width="2"/>
  <path atv:refpx="371" atv:refpy="503" d="M371,484L384,489L390,503L384,516L371,522L356,516L352,503L356,489Z" fill="#000" id="id_14" stroke="#4c4c4c" stroke-width="2"/>
  <path atv:refpx="459" atv:refpy="503" d="M459,484L447,489L440,503L447,516L459,522L474,516L478,503L474,489Z" fill="#000" id="id_15" stroke="#4c4c4c" stroke-width="2"/>
  <path atv:refpx="298.5" atv:refpy="700" d="M298,681L285,686L279,700L285,713L298,719L312,713L318,700L312,686Z" fill="#000" id="id_16" stroke="#4c4c4c" stroke-width="2"/>
  <path atv:refpx="362.5" atv:refpy="700" d="M362,681L350,686L344,700L350,713L362,719L377,713L381,700L377,686Z" fill="#000" id="id_17" stroke="#4c4c4c" stroke-width="2"/>
  <path atv:refpx="298.5" atv:refpy="700.5" d="M298,686L289,690L285,700L289,711L298,715L308,711L312,700L308,690Z" fill="#f00" id="id_18"/>
  <path atv:refpx="362.5" atv:refpy="700.5" d="M362,686L352,690L348,700L352,711L362,715L373,711L377,700L373,690Z" fill="#0f0" id="id_19"/>
  <path atv:refpx="194.5" atv:refpy="502.5" d="M201,489L205,490L189,516L184,514Z" fill="#e0e0e0" id="id_20"/>
  <path atv:refpx="280.5" atv:refpy="502.5" d="M287,489L291,490L275,516L270,514Z" fill="#e0e0e0" id="id_21"/>
  <path atv:refpx="371" atv:refpy="502.5" d="M377,489L381,490L365,516L361,514Z" fill="#e0e0e0" id="id_22"/>
  <path atv:refpx="460.5" atv:refpy="502.5" d="M453,489L451,490L465,516L470,514Z" fill="#e0e0e0" id="id_23"/>
  <path atv:refpx="329" atv:refpy="589" d="M285,564L373,564L361,614L302,614Z" fill="#000" id="id_24"/>
  <path atv:refpx="330.5" atv:refpy="583" d="M294,568L367,568L361,598L302,598Z" fill="#fff" id="id_25" stroke="#4c4c4c" stroke-width="2"/>
  <path atv:refpx="333" atv:refpy="587" d="M337,576L329,598" fill="none" id="id_26" stroke="#4c4c4c" stroke-width="2"/>
  <path atv:refpx="298.5" atv:refpy="573" d="M298,570L298,576" fill="none" id="id_27" stroke="#4c4c4c" stroke-width="2"/>
  <path atv:refpx="306.5" atv:refpy="573" d="M306,570L306,576" fill="none" id="id_28" stroke="#4c4c4c" stroke-width="2"/>
  <path atv:refpx="314.5" atv:refpy="573" d="M314,570L314,576" fill="none" id="id_29" stroke="#4c4c4c" stroke-width="2"/>
  <path atv:refpx="323.5" atv:refpy="573" d="M323,570L323,576" fill="none" id="id_30" stroke="#4c4c4c" stroke-width="2"/>
  <path atv:refpx="331.5" atv:refpy="573" d="M331,570L331,576" fill="none" id="id_31" stroke="#4c4c4c" stroke-width="2"/>
  <path atv:refpx="339.5" atv:refpy="573" d="M339,570L339,576" fill="none" id="id_32" stroke="#4c4c4c" stroke-width="2"/>
  <path atv:refpx="348.5" atv:refpy="573" d="M348,570L348,576" fill="none" id="id_33" stroke="#4c4c4c" stroke-width="2"/>
  <path atv:refpx="356.5" atv:refpy="573" d="M356,570L356,576" fill="none" id="id_34" stroke="#4c4c4c" stroke-width="2"/>
  <path atv:refpx="365.5" atv:refpy="573" d="M365,570L365,576" fill="none" id="id_35" stroke="#4c4c4c" stroke-width="2"/>
  <path atv:refpx="671.5" atv:refpy="540.5" d="M680,85L663,102L663,996L680,980Z" fill="#7f7f7f" id="id_36" stroke="#4c4c4c" stroke-width="2"/>
  <path atv:refpx="340" atv:refpy="93.5" d="M0,102L663,102L680,85L16,85Z" fill="#b2b2b2" id="id_37" stroke="#4c4c4c" stroke-width="2"/>
  <path atv:refpx="330" atv:refpy="340.5" d="M174,451L174,230L486,230" fill="none" id="id_38" stroke="#fff" stroke-width="2"/>
  <path atv:refpx="330" atv:refpy="340.5" d="M174,451L486,451L486,230" fill="none" id="id_39" stroke="#999" stroke-width="2"/>
 </g>
</svg>
