<!DOCTYPE svg PUBLIC "-//W3C//DTD SVG 20000303 Stylable//EN" "http://www.w3.org/TR/2000/03/WD-SVG-20000303/DTD/svg-20000303-stylable.dtd"[]><svg xmlns="http://www.w3.org/2000/svg" width="64px" height="64px" viewBox="0 0 999 420"><path style="fill:#4c4c4c;stroke:#4c4c4c;stroke-width:2" d="M232,413 l-17,2 -13,-13 -1,-17 12,-12 749,-365 17,-2 12,12 2,17 -12,13 -749,365z" /><path style="fill:#f2f2f2;stroke:#4c4c4c;stroke-width:2" d="M992,34 l-1,-16 -12,-11 -18,1 -10,13 1,16 12,11 17,0 11,-14z" /><path style="fill:#f2f2f2;stroke:#4c4c4c;stroke-width:2" d="M953,54 l-1,-17 -12,-10 -18,0 -11,13 2,16 12,12 16,-1 12,-13z" /><path style="fill:#f2f2f2;stroke:#4c4c4c;stroke-width:2" d="M913,73 l0,-17 -13,-11 -17,2 -11,12 1,17 12,11 17,-1 11,-13z" /><path style="fill:#f2f2f2;stroke:#4c4c4c;stroke-width:2" d="M874,92 l-1,-16 -13,-11 -17,1 -10,12 1,17 12,11 16,-1 12,-13z" /><path style="fill:#f2f2f2;stroke:#4c4c4c;stroke-width:2" d="M835,111 l-1,-16 -13,-11 -17,1 -11,12 1,17 13,11 16,-1 12,-13z" /><path style="fill:#f2f2f2;stroke:#4c4c4c;stroke-width:2" d="M795,131 l-1,-17 -12,-11 -18,1 -10,13 1,16 12,11 17,-1 11,-12z" /><path style="fill:#f2f2f2;stroke:#4c4c4c;stroke-width:2" d="M756,150 l-1,-17 -13,-11 -17,1 -11,13 1,16 13,12 16,-1 12,-13z" /><path style="fill:#f2f2f2;stroke:#4c4c4c;stroke-width:2" d="M716,169 l-1,-17 -12,-10 -17,1 -11,13 1,16 13,11 16,-1 11,-13z" /><path style="fill:#f2f2f2;stroke:#4c4c4c;stroke-width:2" d="M677,188 l-1,-16 -13,-11 -17,1 -11,13 1,16 13,11 16,-1 12,-13z" /><path style="fill:#f2f2f2;stroke:#4c4c4c;stroke-width:2" d="M637,208 l-1,-17 -12,-11 -17,1 -11,13 1,16 12,11 17,-1 11,-12z" /><path style="fill:#f2f2f2;stroke:#4c4c4c;stroke-width:2" d="M598,227 l-1,-17 -13,-11 -16,2 -12,12 1,17 13,11 17,-1 11,-13z" /><path style="fill:#f2f2f2;stroke:#4c4c4c;stroke-width:2" d="M559,246 l-2,-16 -12,-12 -17,2 -11,12 1,17 13,11 16,-1 12,-13z" /><path style="fill:#f2f2f2;stroke:#4c4c4c;stroke-width:2" d="M519,265 l-1,-16 -13,-11 -16,1 -12,12 1,17 13,11 16,-1 12,-13z" /><path style="fill:#f2f2f2;stroke:#4c4c4c;stroke-width:2" d="M480,285 l-2,-17 -12,-11 -17,1 -11,13 1,16 13,11 16,-1 12,-12z" /><path style="fill:#f2f2f2;stroke:#4c4c4c;stroke-width:2" d="M440,304 l-1,-17 -12,-11 -17,1 -11,13 1,17 12,10 17,0 11,-13z" /><path style="fill:#f2f2f2;stroke:#4c4c4c;stroke-width:2" d="M401,323 l-1,-16 -13,-12 -17,2 -10,12 0,17 13,11 16,-1 12,-13z" /><path style="fill:#f2f2f2;stroke:#4c4c4c;stroke-width:2" d="M361,342 l-1,-16 -12,-11 -17,1 -11,12 1,17 13,11 15,-1 12,-13z" /><path style="fill:#f2f2f2;stroke:#4c4c4c;stroke-width:2" d="M322,362 l-1,-17 -12,-11 -18,1 -10,13 1,16 12,11 17,-1 11,-12z" /><path style="fill:#f2f2f2;stroke:#4c4c4c;stroke-width:2" d="M283,381 l-1,-17 -13,-11 -17,1 -11,13 1,16 13,12 16,-2 12,-12z" /><path style="fill:#f2f2f2;stroke:#4c4c4c;stroke-width:2" d="M243,400 l-1,-17 -12,-11 -17,1 -11,13 0,16 13,12 17,-1 11,-13z" /><path style="fill:#4c4c4c" d="M982,31 l-1,-8 -6,-6 -8,1 -6,6 1,8 6,6 8,-1 6,-6z" /><path style="fill:#4c4c4c" d="M942,50 l0,-8 -6,-6 -9,2 -6,5 1,9 6,5 9,0 5,-7z" /><path style="fill:#4c4c4c" d="M903,70 l-1,-9 -6,-5 -8,1 -6,6 1,8 6,5 8,0 6,-6z" /><path style="fill:#4c4c4c" d="M864,89 l-1,-9 -6,-5 -9,1 -5,6 0,8 7,6 8,-1 6,-6z" /><path style="fill:#4c4c4c" d="M824,108 l0,-8 -7,-6 -8,1 -6,6 1,8 6,6 8,0 6,-7z" /><path style="fill:#4c4c4c" d="M785,127 l-1,-8 -6,-5 -9,0 -5,6 0,9 6,5 9,0 6,-7z" /><path style="fill:#4c4c4c" d="M746,147 l-1,-9 -7,-6 -8,1 -6,7 1,8 6,6 8,-1 7,-6z" /><path style="fill:#4c4c4c" d="M706,166 l-1,-9 -6,-5 -9,0 -5,7 1,8 6,5 8,0 6,-6z" /><path style="fill:#4c4c4c" d="M666,185 l0,-8 -6,-6 -9,1 -6,6 2,8 5,6 9,-1 5,-6z" /><path style="fill:#4c4c4c" d="M627,204 l0,-8 -7,-6 -8,1 -6,6 1,8 6,6 8,-1 6,-6z" /><path style="fill:#4c4c4c" d="M588,223 l-1,-8 -6,-5 -9,0 -5,6 0,9 7,5 8,0 6,-7z" /><path style="fill:#4c4c4c" d="M548,243 l0,-9 -6,-5 -9,0 -6,7 1,8 6,5 8,0 6,-6z" /><path style="fill:#4c4c4c" d="M509,262 l-1,-8 -6,-6 -8,1 -6,6 1,8 6,6 8,-1 6,-6z" /><path style="fill:#4c4c4c" d="M469,281 l0,-8 -6,-6 -9,1 -6,6 1,8 6,6 8,0 6,-7z" /><path style="fill:#4c4c4c" d="M430,300 l-1,-8 -6,-5 -8,0 -6,6 1,9 6,5 8,0 6,-7z" /><path style="fill:#4c4c4c" d="M390,320 l0,-9 -6,-6 -9,1 -5,6 0,9 6,5 9,0 5,-6z" /><path style="fill:#4c4c4c" d="M351,338 l0,-8 -7,-5 -8,0 -6,7 1,8 6,6 8,-1 6,-7z" /><path style="fill:#4c4c4c" d="M312,358 l-1,-8 -6,-6 -9,1 -5,6 0,9 6,5 9,-1 6,-6z" /><path style="fill:#4c4c4c" d="M272,377 l0,-8 -6,-6 -9,1 -6,6 1,8 6,6 9,0 5,-7z" /><path style="fill:#4c4c4c" d="M233,396 l-1,-8 -6,-5 -9,0 -5,6 0,9 7,5 8,0 6,-7z" /><path style="fill:#b2b2b2" d="M962,8 l-196,-1 -749,365 -12,12 196,1 12,-12 749,-365z" /><path style="fill:#666" d="M202,402 l13,13 -196,-1 -12,-13 195,1z" /><path style="fill:#8c8c8c" d="M202,402 l-1,-17 -196,-1 2,17 195,1z" /><path style="fill:#999" d="M962,8 l17,-2 -196,-1 -17,2 196,1z" /><path style="fill:#a6a6a6;stroke:#7f7f7f;stroke-width:2" d="M444,261 l-195,-2 -79,38 196,2 78,-38z" /><path style="fill:#a6a6a6;stroke:#7f7f7f;stroke-width:2" d="M794,90 l-196,-1 -78,38 195,1 79,-38z" /><path style="fill:none;stroke:#4c4c4c;stroke-width:2" d="M215,415 l-13,-13 -1,-17 12,-12 749,-365 17,-2 -196,-1 -17,2 -749,365 -12,12 2,17 12,13 196,1" /></svg>