<?xml version='1.0' encoding='UTF-8' standalone='no'?>
<svg height="285" version="1.2" width="300" xmlns="http://www.w3.org/2000/svg" xmlns:atv="http://webmi.atvise.com/2007/svgext" xmlns:xlink="http://www.w3.org/1999/xlink">
 <defs>
  <linearGradient gradientUnits="objectBoundingBox" id="id_33_fill_gradient" spreadMethod="reflect" x1="0.0675676" x2="0.581081" y1="1" y2="1">
   <stop offset="0" stop-color="#999999"/>
   <stop offset="1" stop-color="#e5e5e5"/>
  </linearGradient>
  <linearGradient gradientUnits="objectBoundingBox" id="id_34_fill_gradient" spreadMethod="reflect" x1="-0.135135" x2="0.405405" y1="0.986486" y2="0.972973">
   <stop offset="0" stop-color="#999999"/>
   <stop offset="1" stop-color="#e5e5e5"/>
  </linearGradient>
  <linearGradient gradientUnits="objectBoundingBox" id="id_41_fill_gradient" spreadMethod="reflect" x1="-0.135135" x2="0.405405" y1="1" y2="0.972973">
   <stop offset="0" stop-color="#999999"/>
   <stop offset="1" stop-color="#e5e5e5"/>
  </linearGradient>
  <linearGradient gradientUnits="objectBoundingBox" id="id_42_fill_gradient" spreadMethod="reflect" x1="-0.135135" x2="0.405405" y1="0.986486" y2="0.972973">
   <stop offset="0" stop-color="#999999"/>
   <stop offset="1" stop-color="#e5e5e5"/>
  </linearGradient>
  <radialGradient cx="0.5" cy="0.5" fx="0.5" fy="0.5" gradientUnits="objectBoundingBox" id="id_42_stroke_gradient" r="1">
   <stop offset="0" stop-color="#000000"/>
   <stop offset="1" stop-color="#ffffff"/>
  </radialGradient>
  <linearGradient gradientUnits="objectBoundingBox" id="id_43_fill_gradient" spreadMethod="reflect" x1="-0.135135" x2="0.405405" y1="1" y2="0.972973">
   <stop offset="0" stop-color="#999999"/>
   <stop offset="1" stop-color="#e5e5e5"/>
  </linearGradient>
  <radialGradient cx="0.5" cy="0.5" fx="0.5" fy="0.5" gradientUnits="objectBoundingBox" id="id_44_fill_gradient" r="0.514579">
   <stop offset="0.6088709677419355" stop-color="#e4e4e4"/>
   <stop offset="1" stop-color="#9a9a9a"/>
  </radialGradient>
  <radialGradient cx="0.5" cy="0.5" fx="0.5" fy="0.5" gradientUnits="objectBoundingBox" id="id_7_fill_gradient" r="0.514579">
   <stop offset="0.6088709677419355" stop-color="#e4e4e4"/>
   <stop offset="1" stop-color="#9a9a9a"/>
  </radialGradient>
  <linearGradient gradientUnits="objectBoundingBox" id="linear_0" x1="0" x2="1" y1="0" y2="1">
   <stop offset="0" stop-color="#000000"/>
   <stop offset="1" stop-color="#000000" stop-opacity="0"/>
  </linearGradient>
  <linearGradient gradientUnits="objectBoundingBox" id="SVGID_10_" x1="-0.000148525" x2="0.99982" y1="0.499965" y2="0.499965">
   <stop offset="0.17" stop-color="#4D4D4D"/>
   <stop offset="0.23" stop-color="#5A5A5A"/>
   <stop offset="0.34" stop-color="#7D7D7D"/>
   <stop offset="0.48" stop-color="#B2B2B2"/>
   <stop offset="0.57" stop-color="#A8A8A8"/>
   <stop offset="0.73" stop-color="#8B8B8B"/>
   <stop offset="0.94" stop-color="#5C5C5C"/>
   <stop offset="1" stop-color="#4D4D4D"/>
  </linearGradient>
  <linearGradient gradientUnits="objectBoundingBox" id="SVGID_11_" x1="0" x2="0.999992" y1="0.499686" y2="0.499686">
   <stop offset="0.17" stop-color="#4D4D4D"/>
   <stop offset="0.23" stop-color="#5A5A5A"/>
   <stop offset="0.34" stop-color="#7D7D7D"/>
   <stop offset="0.48" stop-color="#B2B2B2"/>
   <stop offset="0.57" stop-color="#A8A8A8"/>
   <stop offset="0.73" stop-color="#8B8B8B"/>
   <stop offset="0.94" stop-color="#5C5C5C"/>
   <stop offset="1" stop-color="#4D4D4D"/>
  </linearGradient>
  <linearGradient gradientUnits="objectBoundingBox" id="SVGID_12_" x1="-0.000159151" x2="0.999873" y1="0.499976" y2="0.499976">
   <stop offset="0.17" stop-color="#4D4D4D"/>
   <stop offset="0.23" stop-color="#5A5A5A"/>
   <stop offset="0.34" stop-color="#7D7D7D"/>
   <stop offset="0.48" stop-color="#B2B2B2"/>
   <stop offset="0.57" stop-color="#A8A8A8"/>
   <stop offset="0.73" stop-color="#8B8B8B"/>
   <stop offset="0.94" stop-color="#5C5C5C"/>
   <stop offset="1" stop-color="#4D4D4D"/>
  </linearGradient>
  <linearGradient gradientUnits="objectBoundingBox" id="SVGID_13_" x1="-3.95757e-05" x2="0.999984" y1="0.500503" y2="0.500503">
   <stop offset="0.17" stop-color="#4D4D4D"/>
   <stop offset="0.23" stop-color="#5A5A5A"/>
   <stop offset="0.34" stop-color="#7D7D7D"/>
   <stop offset="0.48" stop-color="#B2B2B2"/>
   <stop offset="0.57" stop-color="#A8A8A8"/>
   <stop offset="0.73" stop-color="#8B8B8B"/>
   <stop offset="0.94" stop-color="#5C5C5C"/>
   <stop offset="1" stop-color="#4D4D4D"/>
  </linearGradient>
  <linearGradient gradientUnits="objectBoundingBox" id="SVGID_1_" x1="2.80483e-06" x2="1" y1="0.5" y2="0.5">
   <stop offset="0" stop-color="#383838"/>
   <stop offset="0.5" stop-color="#ECECEC"/>
   <stop offset="0.57" stop-color="#D9D9D9"/>
   <stop offset="0.71" stop-color="#A8A8A8"/>
   <stop offset="0.92" stop-color="#5A5A5A"/>
   <stop offset="1" stop-color="#383838"/>
  </linearGradient>
  <linearGradient gradientUnits="objectBoundingBox" id="SVGID_2_" x1="-5.34852e-06" x2="0.999996" y1="0.500015" y2="0.500015">
   <stop offset="0.06" stop-color="#808080"/>
   <stop offset="0.13" stop-color="#8D8D8D"/>
   <stop offset="0.28" stop-color="#B0B0B0"/>
   <stop offset="0.48" stop-color="#E8E8E8"/>
   <stop offset="0.48" stop-color="#EBEBEB"/>
   <stop offset="0.57" stop-color="#E0E0E0"/>
   <stop offset="0.72" stop-color="#C3C3C3"/>
   <stop offset="0.92" stop-color="#949494"/>
   <stop offset="1" stop-color="#808080"/>
  </linearGradient>
  <linearGradient gradientUnits="objectBoundingBox" id="SVGID_3_" x1="0.0132289" x2="0.961723" y1="1.43718" y2="-0.523291">
   <stop offset="0.29" stop-color="#F7F7F7"/>
   <stop offset="0.38" stop-color="#ECECEC"/>
   <stop offset="0.52" stop-color="#CFCFCF"/>
   <stop offset="0.71" stop-color="#A0A0A0"/>
   <stop offset="0.94" stop-color="#5F5F5F"/>
   <stop offset="1" stop-color="#4D4D4D"/>
  </linearGradient>
  <linearGradient gradientUnits="objectBoundingBox" id="SVGID_4_" x1="0.984938" x2="0.0397305" y1="1.44782" y2="-0.461717">
   <stop offset="0.29" stop-color="#F7F7F7"/>
   <stop offset="0.38" stop-color="#ECECEC"/>
   <stop offset="0.52" stop-color="#CFCFCF"/>
   <stop offset="0.71" stop-color="#A0A0A0"/>
   <stop offset="0.94" stop-color="#5F5F5F"/>
   <stop offset="1" stop-color="#4D4D4D"/>
  </linearGradient>
  <linearGradient gradientUnits="objectBoundingBox" id="SVGID_5_" x1="0.499998" x2="0.499998" y1="2.24065e-05" y2="1">
   <stop offset="0" stop-color="#C8C8C8"/>
   <stop offset="0.29" stop-color="#B1B1B1"/>
   <stop offset="0.91" stop-color="#757575"/>
   <stop offset="1" stop-color="#6C6C6C"/>
  </linearGradient>
  <linearGradient gradientUnits="objectBoundingBox" id="SVGID_6_" x1="-9.45716e-06" x2="1.00002" y1="0.5" y2="0.5">
   <stop offset="0" stop-color="#383838"/>
   <stop offset="0.45" stop-color="#ECECEC"/>
   <stop offset="0.55" stop-color="#D9D9D9"/>
   <stop offset="0.76" stop-color="#A8A8A8"/>
   <stop offset="0.77" stop-color="#A6A6A6"/>
   <stop offset="1" stop-color="#383838"/>
  </linearGradient>
  <linearGradient gradientUnits="objectBoundingBox" id="SVGID_7_" x1="7.05467e-06" x2="0.999993" y1="0.499944" y2="0.499944">
   <stop offset="0" stop-color="#383838"/>
   <stop offset="0.45" stop-color="#ECECEC"/>
   <stop offset="0.55" stop-color="#D9D9D9"/>
   <stop offset="0.76" stop-color="#A8A8A8"/>
   <stop offset="0.77" stop-color="#A6A6A6"/>
   <stop offset="1" stop-color="#383838"/>
  </linearGradient>
  <linearGradient gradientUnits="objectBoundingBox" id="SVGID_8_" x1="1.89143e-05" x2="1.00004" y1="0.5" y2="0.5">
   <stop offset="0" stop-color="#383838"/>
   <stop offset="0.45" stop-color="#ECECEC"/>
   <stop offset="0.55" stop-color="#D9D9D9"/>
   <stop offset="0.76" stop-color="#A8A8A8"/>
   <stop offset="0.77" stop-color="#A6A6A6"/>
   <stop offset="1" stop-color="#383838"/>
  </linearGradient>
  <linearGradient gradientUnits="objectBoundingBox" id="SVGID_9_" x1="2.82187e-05" x2="1.00001" y1="0.499944" y2="0.499944">
   <stop offset="0" stop-color="#383838"/>
   <stop offset="0.45" stop-color="#ECECEC"/>
   <stop offset="0.55" stop-color="#D9D9D9"/>
   <stop offset="0.76" stop-color="#A8A8A8"/>
   <stop offset="0.77" stop-color="#A6A6A6"/>
   <stop offset="1" stop-color="#383838"/>
  </linearGradient>
  <radialGradient cx="0.499789" cy="0.500127" fx="0.499789" fy="0.500127" gradientUnits="objectBoundingBox" id="radial_1" r="0.500063">
   <stop offset="0" stop-color="#E0E0E0"/>
   <stop offset="0.5" stop-color="#E0E0E0"/>
   <stop offset="1" stop-color="#595959"/>
  </radialGradient>
  <radialGradient cx="0.500042" cy="0.499911" fx="0.500042" fy="0.499911" gradientUnits="objectBoundingBox" id="radial_2" r="0.500043">
   <stop offset="0" stop-color="#E0E0E0"/>
   <stop offset="0.5" stop-color="#E0E0E0"/>
   <stop offset="1" stop-color="#595959"/>
  </radialGradient>
  <radialGradient cx="0.499848" cy="0.499978" fx="0.499848" fy="0.499978" gradientUnits="objectBoundingBox" id="radial_3" r="0.499968">
   <stop offset="0" stop-color="#E0E0E0"/>
   <stop offset="0.5" stop-color="#E0E0E0"/>
   <stop offset="1" stop-color="#595959"/>
  </radialGradient>
  <linearGradient gradientUnits="objectBoundingBox" id="linear_4" x1="0.563112" x2="0.436914" y1="1.13692" y2="-0.13513">
   <stop offset="0" stop-color="#808080"/>
   <stop offset="0.5" stop-color="#B2B2B2"/>
   <stop offset="0.6" stop-color="#D1D1D1"/>
   <stop offset="1" stop-color="#E5E5E5"/>
  </linearGradient>
  <radialGradient cx="0.5" cy="0.5" fx="0.5" fy="0.5" gradientUnits="objectBoundingBox" id="radial_5" r="0.500064">
   <stop offset="0" stop-color="#E0E0E0"/>
   <stop offset="0.5" stop-color="#BFD3F2"/>
   <stop offset="1" stop-color="#BFD3F2"/>
  </radialGradient>
  <radialGradient cx="0.499978" cy="0.5" fx="0.499978" fy="0.5" gradientUnits="objectBoundingBox" id="radial_6" r="0.500022">
   <stop offset="0" stop-color="#E0E0E0"/>
   <stop offset="0.5" stop-color="#BFD3F2"/>
   <stop offset="1" stop-color="#BFD3F2"/>
  </radialGradient>
  <radialGradient cx="0.499935" cy="0.499913" fx="0.499935" fy="0.499913" gradientUnits="objectBoundingBox" id="radial_7" r="0.500022">
   <stop offset="0" stop-color="#E0E0E0"/>
   <stop offset="0.5" stop-color="#BFD3F2"/>
   <stop offset="1" stop-color="#BFD3F2"/>
  </radialGradient>
  <radialGradient cx="0.500042" cy="0.500065" fx="0.500042" fy="0.500065" gradientUnits="objectBoundingBox" id="radial_8" r="0.500075">
   <stop offset="0" stop-color="#E0E0E0"/>
   <stop offset="0.5" stop-color="#BFD3F2"/>
   <stop offset="1" stop-color="#BFD3F2"/>
  </radialGradient>
  <radialGradient cx="0.499848" cy="0.500044" fx="0.499848" fy="0.500044" gradientUnits="objectBoundingBox" id="radial_9" r="0.528715">
   <stop offset="0" stop-color="#E0E0E0"/>
   <stop offset="0.5" stop-color="#BFD3F2"/>
   <stop offset="1" stop-color="#BFD3F2"/>
  </radialGradient>
  <radialGradient cx="0.500022" cy="0.500065" fx="0.500022" fy="0.500065" gradientUnits="objectBoundingBox" id="radial_10" r="0.499968">
   <stop offset="0" stop-color="#E0E0E0"/>
   <stop offset="0.5" stop-color="#E0E0E0"/>
   <stop offset="1" stop-color="#595959"/>
  </radialGradient>
  <radialGradient cx="0.500022" cy="0.500087" fx="0.500022" fy="0.500087" gradientUnits="objectBoundingBox" id="radial_11" r="0.500022">
   <stop offset="0" stop-color="#E0E0E0"/>
   <stop offset="0.5" stop-color="#E0E0E0"/>
   <stop offset="1" stop-color="#595959"/>
  </radialGradient>
  <radialGradient cx="0.5" cy="0.500022" fx="0.5" fy="0.500022" gradientUnits="objectBoundingBox" id="radial_12" r="0.500075">
   <stop offset="0" stop-color="#E0E0E0"/>
   <stop offset="0.5" stop-color="#E0E0E0"/>
   <stop offset="1" stop-color="#595959"/>
  </radialGradient>
 </defs>
 <metadata>
  <atv:parameter behavior="optional" defaultvalue="SYSTEM.GLOBALS.atvise_Advanced_Objects_Maintenance_List.Energy_Industry.Maintenance_Rectifier" desc="Global_Maintenance" group="Maintenance" name="Global_Maintenance" valuetype="global"/>
  <atv:parameter behavior="optional" defaultvalue="SYSTEM.GLOBALS.atvise_Advanced_Objects_Maintenance_List.Energy_Industry.Maintenance_Rectifier" desc="Global Maintenance Address" group="Maintenance" name="Global_Maintenance_Address" valuetype="string"/>
  <atv:parameter behavior="optional" defaultvalue="true" desc="Maintenance_Active" group="Maintenance" name="Maintenance" valuetype="bool"/>
  <atv:parameter behavior="optional" defaultvalue="true" desc="Icon Indicator Active" group="Alarming" name="Icon_Indicator" valuetype="bool"/>
  <atv:parameter behavior="optional" defaultvalue="" desc="Alert_Range" group="Alarming" name="Alert_Range" valuetype="number"/>
  <atv:parameter behavior="optional" defaultvalue="" desc="Notification List" group="Alarming" name="Notification_List" valuetype="global"/>
  <atv:parameter behavior="optional" defaultvalue="false" desc="Email Notification Active" group="Alarming" name="Email_Notification" valuetype="bool"/>
  <atv:parameter behavior="optional" defaultvalue="false" desc="Alertzy_Notification" group="Alarming" name="Alertzy_Notification" valuetype="bool"/>
  <atv:parameter behavior="optional" defaultvalue="SYSTEM.GLOBALS.Color_Global_1" desc="Color" group="Appereance" name="Color" substitute="$Color$" valuetype="global"/>
  <atv:parameter behavior="optional" defaultvalue="14" desc="Title Font Size" group="Appereance" name="Title_Font_Size" substitute="$FontSize$" valuetype="number"/>
  <atv:gridconfig enabled="true" gridstyle="lines" height="20" width="20"/>
  <atv:snapconfig enabled="true" height="5" width="5"/>
 </metadata>
 <g atv:refpx="192.961" atv:refpy="159.087" id="Image_1" transform="matrix(0.2282,0,0,0.2282,105.2282,45)">
  <path atv:refpx="331.5" atv:refpy="551.5" d="M0,104L663,104L663,999L0,999Z" fill="#ccc" id="id_0"/>
  <path atv:refpx="331.5" atv:refpy="682" d="M0,738L663,365L663,999L0,999Z" fill="#c7c7c7" id="id_1"/>
  <path atv:refpx="331.5" atv:refpy="701" d="M0,776L663,403L663,999L0,999Z" fill="#c2c2c2" id="id_2"/>
  <path atv:refpx="331.5" atv:refpy="729" d="M0,833L663,459L663,999L0,999Z" fill="#bdbdbd" id="id_3"/>
  <path atv:refpx="331.5" atv:refpy="551.5" d="M0,104L663,104L663,999L0,999Z" fill="none" id="id_4" stroke="#4c4c4c" stroke-width="2"/>
  <path atv:refpx="385" atv:refpy="52" d="M0,104L663,104L770,0L104,0Z" fill="#b2b2b2" id="id_5" stroke="#4c4c4c" stroke-width="2"/>
  <path atv:refpx="715.5" atv:refpy="498" d="M768,0L663,104L663,996L768,891Z" fill="#7f7f7f" id="id_7" stroke="#4c4c4c" stroke-width="2"/>
  <path atv:refpx="626" atv:refpy="556.5" d="M602,518L650,518L650,595L602,595Z" fill="#b2b2b2" id="id_8" stroke="#4c4c4c" stroke-width="2"/>
  <path atv:refpx="626" atv:refpy="556.5" d="M602,549L650,549L650,564L602,564Z" fill="#f0f0f0" id="id_9" stroke="#4c4c4c" stroke-width="2"/>
  <path atv:refpx="331" atv:refpy="154.5" d="M48,129L614,129L614,180L48,180Z" fill="#f0f0f0" id="id_10" stroke="#4c4c4c" stroke-width="2"/>
  <path atv:refpx="331" atv:refpy="163" d="M48,159L614,159L614,167L48,167Z" fill="#f0f0f0" id="id_11" stroke="#4c4c4c" stroke-width="2"/>
  <path atv:refpx="331" atv:refpy="337" d="M331,403L337,407L362,381L350,371L381,367L362,350L367,344L384,361L400,342L398,337L400,335L384,317L367,333L362,329L381,310L350,306L361,295L335,270L331,272L327,270L302,295L312,306L283,310L302,329L295,333L281,317L262,335L264,337L262,342L281,361L295,344L302,350L283,367L312,371L302,381L325,404ZM342,413L337,419L331,423L323,419L321,413L321,411L295,388L285,398L281,369L264,386L257,381L275,367L256,348L253,348L245,346L243,337L245,331L253,327L257,329L275,312L257,295L264,291L281,310L285,281L295,291L323,266L321,262L323,253L331,251L337,253L342,262L339,264L367,291L377,281L381,310L400,291L404,295L388,312L404,329L409,327L417,331L419,337L417,346L409,348L407,348L388,367L404,381L400,386L381,369L377,398L367,388Z" fill="#000" id="id_12" style="fill-rule:evenodd"/>
  <path atv:refpx="195" atv:refpy="503" d="M195,484L209,489L214,503L209,516L195,522L182,516L176,503L182,489Z" fill="#000" id="id_13" stroke="#4c4c4c" stroke-width="2"/>
  <path atv:refpx="281" atv:refpy="503" d="M281,484L294,489L300,503L294,516L281,522L268,516L262,503L268,489Z" fill="#000" id="id_14" stroke="#4c4c4c" stroke-width="2"/>
  <path atv:refpx="371" atv:refpy="503" d="M371,484L384,489L390,503L384,516L371,522L356,516L352,503L356,489Z" fill="#000" id="id_15" stroke="#4c4c4c" stroke-width="2"/>
  <path atv:refpx="459" atv:refpy="503" d="M459,484L447,489L440,503L447,516L459,522L474,516L478,503L474,489Z" fill="#000" id="id_17" stroke="#4c4c4c" stroke-width="2"/>
  <path atv:refpx="298.5" atv:refpy="700" d="M298,681L285,686L279,700L285,713L298,719L312,713L318,700L312,686Z" fill="#000" id="id_18" stroke="#4c4c4c" stroke-width="2"/>
  <path atv:refpx="362.5" atv:refpy="700" d="M362,681L350,686L344,700L350,713L362,719L377,713L381,700L377,686Z" fill="#000" id="id_19" stroke="#4c4c4c" stroke-width="2"/>
  <path atv:refpx="298.5" atv:refpy="700.5" d="M298,686L289,690L285,700L289,711L298,715L308,711L312,700L308,690Z" fill="#f00" id="id_20"/>
  <path atv:refpx="362.5" atv:refpy="700.5" d="M362,686L352,690L348,700L352,711L362,715L373,711L377,700L373,690Z" fill="#0f0" id="id_21"/>
  <path atv:refpx="194.5" atv:refpy="502.5" d="M201,489L205,490L189,516L184,514Z" fill="#e0e0e0" id="id_22"/>
  <path atv:refpx="280.5" atv:refpy="502.5" d="M287,489L291,490L275,516L270,514Z" fill="#e0e0e0" id="id_23"/>
  <path atv:refpx="371" atv:refpy="502.5" d="M377,489L381,490L365,516L361,514Z" fill="#e0e0e0" id="id_24"/>
  <path atv:refpx="460.5" atv:refpy="502.5" d="M453,489L451,490L465,516L470,514Z" fill="#e0e0e0" id="id_25"/>
  <path atv:refpx="329" atv:refpy="589" d="M285,564L373,564L361,614L302,614Z" fill="#000" id="id_26"/>
  <path atv:refpx="330.5" atv:refpy="583" d="M294,568L367,568L361,598L302,598Z" fill="#fff" id="id_27" stroke="#4c4c4c" stroke-width="2"/>
  <path atv:refpx="333" atv:refpy="587" d="M337,576L329,598" fill="none" id="id_28" stroke="#4c4c4c" stroke-width="2"/>
  <path atv:refpx="298.5" atv:refpy="573" d="M298,570L298,576" fill="none" id="id_29" stroke="#4c4c4c" stroke-width="2"/>
  <path atv:refpx="306.5" atv:refpy="573" d="M306,570L306,576" fill="none" id="id_30" stroke="#4c4c4c" stroke-width="2"/>
  <path atv:refpx="314.5" atv:refpy="573" d="M314,570L314,576" fill="none" id="id_31" stroke="#4c4c4c" stroke-width="2"/>
  <path atv:refpx="323.5" atv:refpy="573" d="M323,570L323,576" fill="none" id="id_32" stroke="#4c4c4c" stroke-width="2"/>
  <path atv:refpx="331.5" atv:refpy="573" d="M331,570L331,576" fill="none" id="id_33" stroke="#4c4c4c" stroke-width="2"/>
  <path atv:refpx="339.5" atv:refpy="573" d="M339,570L339,576" fill="none" id="id_34" stroke="#4c4c4c" stroke-width="2"/>
  <path atv:refpx="348.5" atv:refpy="573" d="M348,570L348,576" fill="none" id="id_35" stroke="#4c4c4c" stroke-width="2"/>
  <path atv:refpx="356.5" atv:refpy="573" d="M356,570L356,576" fill="none" id="id_36" stroke="#4c4c4c" stroke-width="2"/>
  <path atv:refpx="365.5" atv:refpy="573" d="M365,570L365,576" fill="none" id="id_37" stroke="#4c4c4c" stroke-width="2"/>
  <path atv:refpx="671.5" atv:refpy="540.5" d="M680,85L663,102L663,996L680,980Z" fill="#7f7f7f" id="id_38" stroke="#4c4c4c" stroke-width="2"/>
  <path atv:refpx="340" atv:refpy="93.5" d="M0,102L663,102L680,85L16,85Z" fill="#b2b2b2" id="id_39" stroke="#4c4c4c" stroke-width="2"/>
  <path atv:refpx="330" atv:refpy="340.5" d="M174,451L174,230L486,230" fill="none" id="id_40" stroke="#fff" stroke-width="2"/>
  <path atv:refpx="330" atv:refpy="340.5" d="M174,451L486,451L486,230" fill="none" id="id_41" stroke="#999" stroke-width="2"/>
 </g>
 <text atv:refpx="195.738" atv:refpy="11.5" fill="$Color$" font-family="Arial" font-size="$FontSize$" font-weight="bold" id="Title" text-anchor="middle" x="193.5" y="17">Name</text>
 <script atv:desc="" atv:href="SYSTEM.LIBRARY.PROJECT.DISPLAYSCRIPTS.atvise_Advanced_Objects_Display_Scripts.AAA_Principal_Display_Script" atv:name="" atv:type="text/ecmascript"/>
 <script atv:desc="" atv:name="" type="text/ecmascript"/>
 <rect atv:refpx="195" atv:refpy="142.5" fill="#000000" fill-opacity="0" height="285" id="click_area" stroke="#0000ff" stroke-width="0" width="210" x="90" y="0"/>
 <svg atv:refpx="39" atv:refpy="61.36" height="122.72" id="id_6" width="78" x="0" xlink:href="SYSTEM.LIBRARY.PROJECT.OBJECTDISPLAYS.atvise_Advanced_Objects_Complementary_Elements.Alarm_Alert_Advanced_Indicator" y="0">
  <atv:argument name="base" prefix="base"/>
 </svg>
 <svg atv:refpx="48.06" atv:refpy="258.06" height="36.12" id="id_16" width="36.12" x="30" xlink:href="SYSTEM.LIBRARY.PROJECT.OBJECTDISPLAYS.atvise_Advanced_Objects_Complementary_Elements.Maintenance_Advanced_Indicator" y="240">
  <atv:argument name="base" prefix="base"/>
 </svg>
</svg>
