<?xml version='1.0' encoding='UTF-8' standalone='no'?>
<svg height="192.12" version="1.2" width="202" xmlns="http://www.w3.org/2000/svg" xmlns:atv="http://webmi.atvise.com/2007/svgext" xmlns:xlink="http://www.w3.org/1999/xlink">
 <defs>
  <linearGradient gradientUnits="objectBoundingBox" id="id_33_fill_gradient" spreadMethod="reflect" x1="0.0675676" x2="0.581081" y1="1" y2="1">
   <stop offset="0" stop-color="#999999"/>
   <stop offset="1" stop-color="#e5e5e5"/>
  </linearGradient>
  <linearGradient gradientUnits="objectBoundingBox" id="id_34_fill_gradient" spreadMethod="reflect" x1="-0.135135" x2="0.405405" y1="0.986486" y2="0.972973">
   <stop offset="0" stop-color="#999999"/>
   <stop offset="1" stop-color="#e5e5e5"/>
  </linearGradient>
  <linearGradient gradientUnits="objectBoundingBox" id="id_41_fill_gradient" spreadMethod="reflect" x1="-0.135135" x2="0.405405" y1="1" y2="0.972973">
   <stop offset="0" stop-color="#999999"/>
   <stop offset="1" stop-color="#e5e5e5"/>
  </linearGradient>
  <linearGradient gradientUnits="objectBoundingBox" id="id_42_fill_gradient" spreadMethod="reflect" x1="-0.135135" x2="0.405405" y1="0.986486" y2="0.972973">
   <stop offset="0" stop-color="#999999"/>
   <stop offset="1" stop-color="#e5e5e5"/>
  </linearGradient>
  <radialGradient cx="0.5" cy="0.5" fx="0.5" fy="0.5" gradientUnits="objectBoundingBox" id="id_42_stroke_gradient" r="1">
   <stop offset="0" stop-color="#000000"/>
   <stop offset="1" stop-color="#ffffff"/>
  </radialGradient>
  <linearGradient gradientUnits="objectBoundingBox" id="id_43_fill_gradient" spreadMethod="reflect" x1="-0.135135" x2="0.405405" y1="1" y2="0.972973">
   <stop offset="0" stop-color="#999999"/>
   <stop offset="1" stop-color="#e5e5e5"/>
  </linearGradient>
  <radialGradient cx="0.5" cy="0.5" fx="0.5" fy="0.5" gradientUnits="objectBoundingBox" id="id_44_fill_gradient" r="0.514579">
   <stop offset="0.6088709677419355" stop-color="#e4e4e4"/>
   <stop offset="1" stop-color="#9a9a9a"/>
  </radialGradient>
  <radialGradient cx="0.5" cy="0.5" fx="0.5" fy="0.5" gradientUnits="objectBoundingBox" id="id_7_fill_gradient" r="0.514579">
   <stop offset="0.6088709677419355" stop-color="#e4e4e4"/>
   <stop offset="1" stop-color="#9a9a9a"/>
  </radialGradient>
  <linearGradient gradientUnits="objectBoundingBox" id="linear_0" x1="0" x2="1" y1="0" y2="1">
   <stop offset="0" stop-color="#000000"/>
   <stop offset="1" stop-color="#000000" stop-opacity="0"/>
  </linearGradient>
  <radialGradient cx="0.500001" cy="0.499998" fx="0.500001" fy="0.499998" gradientUnits="objectBoundingBox" id="SVGID_1_" r="0.500001">
   <stop offset="0.01" stop-color="#4D4D4D"/>
   <stop offset="0.92" stop-color="#F5F5F5"/>
   <stop offset="1" stop-color="#7A7A7A"/>
  </radialGradient>
  <linearGradient gradientUnits="objectBoundingBox" id="SVGID_2_" x1="0.962748" x2="0.0389691" y1="0.96104" y2="0.0372706">
   <stop offset="0" stop-color="#737373"/>
   <stop offset="1" stop-color="#CCCCCC"/>
  </linearGradient>
 </defs>
 <metadata>
  <atv:parameter behavior="optional" defaultvalue="SYSTEM.GLOBALS.Color_Global_1" desc="Color" name="Color" substitute="$Color$" valuetype="global"/>
  <atv:parameter behavior="optional" defaultvalue="SYSTEM.GLOBALS.Maintenance_Power_Meter" desc="Global Maintenance" name="Global_Maintenance" valuetype="global"/>
  <atv:gridconfig enabled="true" gridstyle="lines" height="20" width="20"/>
  <atv:snapconfig enabled="true" height="1" width="1"/>
 </metadata>
 <text atv:refpx="110.738" atv:refpy="11.5" fill="$Color$" font-family="Arial" font-size="14" font-weight="bold" id="Title" x="89.5" y="17">Name</text>
 <polygon atv:refpx="63.671" atv:refpy="44.035" fill="#fdf90a" id="alert_increasing" points="51.67,56.034 75.67,56.034 63.003,32.034" stroke="#000000" stroke-width="1"/>
 <g atv:refpx="24.062" atv:refpy="174.062" id="maintenance" transform="matrix(1,0,0,1,-0.5819,19.4175)">
  <rect atv:refpx="46.171" atv:refpy="204.643" fill="#2b9de8" height="24.544" id="id_39" stroke="#000000" stroke-width="1" transform="matrix(0.7071,-0.7071,0.7071,0.7071,0,0)" width="24.544" x="-104.196" y="114.505"/>
  <text atv:refpx="28" atv:refpy="149.5" fill="#000000" font-family="Arial" font-size="14" id="id_40" x="18.5" y="160">M</text>
 </g>
 <polygon atv:refpx="11.207" atv:refpy="46.619" fill="#fdbf21" id="alert_decreasing" points="25.872,34.618 1.871,34.618 14.536,58.619" stroke="#000000" stroke-width="1"/>
 <text atv:refpx="64.671" atv:refpy="48.535" fill="#000000" font-family="Arial" font-size="14" font-weight="bold" id="alertC_text" text-anchor="end" x="66.171" y="53.035">1</text>
 <text atv:refpx="14.459" atv:refpy="43.617" fill="#000000" font-family="Arial" font-size="14" font-weight="bold" id="alertD_text" x="10.959" y="48.117">1</text>
 <rect atv:refpx="9.088" atv:refpy="-51.533" fill="#93060a" fill-opacity="0" height="42" id="click_area_alertC" stroke="none" stroke-width="0" width="28" x="50" y="17"/>
 <rect atv:refpx="14" atv:refpy="49" fill="#93060a" fill-opacity="0" height="42" id="click_area_alertD" stroke="none" stroke-width="0" width="28" x="0" y="30"/>
 <polygon atv:refpx="60.419" atv:refpy="87.537" fill="#fdf90a" id="alert_increasing_min" points="75.084,75.535 51.082,75.535 63.748,99.535" stroke="#000000" stroke-width="1"/>
 <text atv:refpx="63.671" atv:refpy="84.535" fill="#000000" font-family="Arial" font-size="14" font-weight="bold" id="alertC_text_min" x="60.171" y="89.035">1</text>
 <polygon atv:refpx="14.459" atv:refpy="87.117" fill="#fdbf21" id="alert_decreasing_min" points="2.458,99.117 26.458,99.117 13.79,75.117" stroke="#000000" stroke-width="1"/>
 <text atv:refpx="15" atv:refpy="91.5" fill="#000000" font-family="Arial" font-size="14" font-weight="bold" id="alertD_text_min" text-anchor="end" x="16.5" y="96">1</text>
 <rect atv:refpx="-40.912" atv:refpy="-7.533" fill="#93060a" fill-opacity="0" height="42" id="click_area_alertD_min" stroke="none" stroke-width="0" width="28" x="0" y="61"/>
 <g atv:refpx="36.5" atv:refpy="67" id="Ind_Bar" transform="matrix(1,0,0,1,-2,-2)">
  <rect atv:refpx="38.5" atv:refpy="69" fill="#626262" height="77.366" id="Barra_Ind2" rx="7" ry="7" stroke="#000000" stroke-width="1" width="14" x="31.5" y="30.317"/>
  <path atv:refpx="38.496" atv:refpy="36.976" d="M31.826,43.257L45.178,43.257L45.08,36.1C45.08,36.1 44.046,30.754 38.676,30.694C33.305,30.633 31.876,35.603 31.876,35.603C31.876,35.603 31.777,43.318 31.826,43.257" fill="#b5b5b5" id="id_19" stroke="#000000" stroke-width="0"/>
  <path atv:refpx="38.533" atv:refpy="100.982" d="M45.204,94.701L31.852,94.701L31.95,101.858C31.95,101.858 32.985,107.205 38.355,107.265C43.726,107.324 45.154,102.356 45.154,102.356C45.154,102.356 45.252,94.641 45.204,94.701" fill="#b5b5b5" id="id_20" stroke="#000000" stroke-width="0"/>
 </g>
 <rect atv:refpx="49.396" atv:refpy="20.211" fill="#bd070d" height="23" id="alarm_square" rx="1.855" ry="1.987" stroke="#000000" stroke-width="1" text-anchor="middle" width="23" x="37.446" y="8.085"/>
 <text atv:refpx="-20.554" atv:refpy="-5.2" fill="#000000" font-family="Arial" font-size="14" font-weight="bold" id="alarm_text" text-anchor="middle" x="48.946" y="24.586">1</text>
 <rect atv:refpx="-3.405" atv:refpy="-43.69" fill="#93060a" fill-opacity="0" height="28" id="click_area_alarm" stroke="none" stroke-width="0" width="28" x="34.879" y="5.516"/>
 <rect atv:refpx="49.102" atv:refpy="114.645" fill="#bd070d" height="23" id="alarm_square_min" rx="1.855" ry="1.987" stroke="#000000" stroke-width="1" text-anchor="middle" width="23" x="37.152" y="102.519"/>
 <text atv:refpx="-20.848" atv:refpy="89.234" fill="#000000" font-family="Arial" font-size="14" font-weight="bold" id="alarm_text_min" text-anchor="middle" x="48.652" y="119.02">1</text>
 <rect atv:refpx="-3.983" atv:refpy="51.028" fill="#93060a" fill-opacity="0" height="28" id="click_area_alarm_min" stroke="none" stroke-width="0" width="28" x="34.301" y="100.234"/>
 <rect atv:refpx="63" atv:refpy="90" fill="#93060a" fill-opacity="0" height="42" id="click_area_alertC_min" stroke="none" stroke-width="0" width="28" x="49" y="71"/>
 <script atv:desc="" atv:href="SYSTEM.LIBRARY.PROJECT.DISPLAYSCRIPTS.atvise_Advanced_Objects_Display_Scripts.AAA_Principal_Display_Script" atv:name="" atv:type="text/ecmascript"/>
 <g atv:refpx="139.25" atv:refpy="90.25" id="Image1" transform="matrix(1,0,0,1,-2,-2)">
  <g atv:refpx="141.25" atv:refpy="92.25" id="Group_Box" transform="matrix(1,0,0,1,85,36)">
   <path atv:refpx="56.25" atv:refpy="56.25" d="M3.604,0L112.5,0L112.5,108.783L108.783,112.5L0,3.829Z" fill="#666666" id="id_0" stroke="#4C4C4C" stroke-width="0.25"/>
  </g>
  <g atv:refpx="139.392" atv:refpy="94.052" id="Group_Plate" transform="matrix(1,0,0,1,85,36)">
   <path atv:refpx="54.392" atv:refpy="58.052" d="M0,3.604L108.783,3.604L108.783,112.5L0,112.5Z" fill="url(#SVGID_1_)" id="id_1" stroke="#4C4C4C" stroke-width="0.25"/>
   <path atv:refpx="54.505" atv:refpy="57.881" d="M11.036,6.306L97.973,6.306L106.081,14.639L106.081,101.351L97.973,109.457L11.036,109.457L2.927,101.351L2.927,14.64Z" fill="#5C5C5C" id="id_3" stroke="#4C4C4C" stroke-width="0.25"/>
   <path atv:refpx="54.335" atv:refpy="58.052" d="M12.725,8.559L96.283,8.559L103.828,16.104L103.828,99.663L96.283,107.545L12.725,107.545L4.842,99.663L4.842,16.104Z" fill="url(#SVGID_2_)" id="id_4" stroke="#4C4C4C" stroke-width="0.25"/>
  </g>
  <g atv:refpx="139.448" atv:refpy="93.883" id="Group_Bolts" transform="matrix(1,0,0,1,85,36)">
   <path atv:refpx="3.998" atv:refpy="7.151" d="M4.167,5.067L5.631,5.856L6.081,7.32L5.631,8.784L4.167,9.234L2.59,8.784L1.915,7.32L2.59,5.856Z" fill="#7F7F7F" id="id_5" stroke="#4C4C4C" stroke-width="0.25"/>
   <path atv:refpx="3.998" atv:refpy="108.615" d="M4.167,106.531L5.631,107.32L6.081,108.783L5.631,110.248L4.167,110.698L2.59,110.248L1.914,108.783L2.59,107.32Z" fill="#7F7F7F" id="id_7" stroke="#4C4C4C" stroke-width="0.25"/>
   <path atv:refpx="104.898" atv:refpy="7.151" d="M105.066,5.067L106.531,5.856L106.982,7.32L106.531,8.784L105.066,9.235L103.603,8.784L102.814,7.32L103.603,5.856Z" fill="#7F7F7F" id="id_8" stroke="#4C4C4C" stroke-width="0.25"/>
   <path atv:refpx="104.898" atv:refpy="108.615" d="M105.066,106.531L106.531,107.32L106.982,108.783L106.531,110.248L105.066,110.698L103.603,110.248L102.814,108.783L103.603,107.32Z" fill="#7F7F7F" id="id_9" stroke="#4C4C4C" stroke-width="0.25"/>
  </g>
  <g atv:refpx="139.336" atv:refpy="118.602" id="Group_Oxy" transform="matrix(1,0,0,1,85,36)">
   <path atv:refpx="54.336" atv:refpy="82.602" d="M25,99.662L83.672,99.662L83.672,65.541L25,65.541Z" fill="#F0F0F0" id="id_10" stroke="#4C4C4C" stroke-width="0.25"/>
  </g>
  <g atv:refpx="139.337" atv:refpy="73.781" id="Group_Board" transform="matrix(1,0,0,1,85,36)">
   <path atv:refpx="54.337" atv:refpy="37.781" d="M13.401,17.117L95.271,17.117L95.271,58.445L13.401,58.445Z" fill="#F0F0F0" id="id_11" stroke="#4C4C4C" stroke-width="0.25"/>
  </g>
  <g atv:refpx="139.843" atv:refpy="65.786" id="Group_Display" transform="matrix(1,0,0,1,85,36)">
   <path atv:refpx="54.843" atv:refpy="29.786" d="M29.392,20.045L80.293,20.045L80.293,39.527L29.392,39.527Z" fill="#333333" id="id_12"/>
  </g>
  <g atv:refpx="150.766" atv:refpy="85.549" id="Group_Down" transform="matrix(1,0,0,1,85,36)">
   <path atv:refpx="65.766" atv:refpy="49.549" d="M57.658,45.833L73.874,45.833L65.765,53.265Z" fill="#595959" id="id_13" stroke="#4C4C4C" stroke-width="0.1"/>
   <path atv:refpx="67.266" atv:refpy="48.799" d="M61.186,46.012L73.347,46.012L67.265,51.586Z" fill="#C2C2C2" id="id_14" stroke="#4C4C4C" stroke-width="0.1"/>
  </g>
  <g atv:refpx="168.953" atv:refpy="85.55" id="Group_Up" transform="matrix(1,0,0,1,85,36)">
   <path atv:refpx="83.953" atv:refpy="49.55" d="M92.117,53.266L75.788,53.266L83.896,45.833Z" fill="#595959" id="id_15" stroke="#4C4C4C" stroke-width="0.1"/>
   <path atv:refpx="84.017" atv:refpy="49.049" d="M90.097,51.836L77.936,51.836L84.017,46.262Z" fill="#C2C2C2" id="id_16" stroke="#4C4C4C" stroke-width="0.1"/>
  </g>
  <g atv:refpx="130.044" atv:refpy="85.569" id="Group_Minus" transform="matrix(1,0,0,1,85,36)">
   <path atv:refpx="45.044" atv:refpy="49.662" d="M37.049,50.788L37.049,48.535L53.04,48.535L53.04,50.788Z" fill="#595959" id="id_17" stroke="#4C4C4C" stroke-width="0.1"/>
   <path atv:refpx="45.025" atv:refpy="49.037" d="M37.299,49.724L37.299,48.351L52.75,48.351L52.75,49.724Z" fill="#A7A7A7" id="id_18" stroke="#4C4C4C" stroke-width="0.1"/>
  </g>
  <g atv:refpx="110.508" atv:refpy="85.55" id="Group_Plus" transform="matrix(1,0,0,1,85,36)">
   <path atv:refpx="25.507" atv:refpy="49.55" d="M18.356,50.563L18.356,48.536L24.549,48.536L24.549,42.455L26.464,42.455L26.464,48.536L32.658,48.536L32.658,50.563L26.464,50.563L26.464,56.644L24.549,56.644L24.549,50.563Z" fill="#595959" id="id_21" stroke="#4C4C4C" stroke-width="0.1"/>
   <path atv:refpx="25.83" atv:refpy="49.125" d="M19,50.071L19,48.178L24.914,48.178L24.914,42.5L26.743,42.5L26.743,48.178L32.659,48.178L32.659,50.071L26.743,50.071L26.743,55.75L24.914,55.75L24.914,50.071Z" fill="#B3B3B3" id="id_22" stroke="#4C4C4C" stroke-width="0.1"/>
  </g>
  <g atv:refpx="140.564" atv:refpy="119.141" id="Group_Oxygen" transform="matrix(1,0,0,1,85,36)">
   <path atv:refpx="71.65" atv:refpy="72.665" d="M74.586,74.636C74.586,72.457 71.959,70.693 68.714,70.693" fill="none" id="id_23" stroke="#4C4C4C" stroke-width="2"/>
   <path atv:refpx="65.597" atv:refpy="72.098" d="M62.396,73.567C63.136,71.877 65.721,70.628 68.799,70.628" fill="none" id="id_24" stroke="#4C4C4C" stroke-width="2"/>
   <line atv:refpx="68.447" atv:refpy="79.655" fill="none" id="id_25" stroke="#4C4C4C" stroke-width="2" x1="75.143" x2="61.75" y1="73.81" y2="85.5"/>
   <line atv:refpx="68.25" atv:refpy="85.875" fill="none" id="id_26" stroke="#4C4C4C" stroke-width="2" x1="61.22" x2="75.28" y1="85.375" y2="85.375"/>
   <path atv:refpx="36.703" atv:refpy="83.014" d="M37.831,93.618C36.585,93.618 35.575,88.868 35.575,83.014C35.575,77.158 36.585,72.41 37.831,72.41" fill="none" id="id_27" stroke="#4C4C4C" stroke-width="2"/>
   <path atv:refpx="56.297" atv:refpy="83.013" d="M55.169,72.409C56.415,72.409 57.425,77.158 57.425,83.013C57.425,88.867 56.415,93.617 55.169,93.617" fill="none" id="id_28" stroke="#4C4C4C" stroke-width="2"/>
   <path atv:refpx="51.606" atv:refpy="72.198" d="M56.475,74.892C56.475,71.914 52.12,69.505 46.737,69.505" fill="none" id="id_29" stroke="#4C4C4C" stroke-width="2"/>
   <path atv:refpx="42.026" atv:refpy="70.999" d="M37.314,72.512C38.404,70.77 42.207,69.485 46.737,69.485" fill="none" id="id_30" stroke="#4C4C4C" stroke-width="2"/>
   <path atv:refpx="51.462" atv:refpy="94.291" d="M56.237,91.813C56.237,94.551 51.966,96.768 46.687,96.768" fill="none" id="id_31" stroke="#4C4C4C" stroke-width="2"/>
   <path atv:refpx="41.725" atv:refpy="94.704" d="M36.763,92.611C37.91,95.02 41.916,96.797 46.687,96.797" fill="none" id="id_32" stroke="#4C4C4C" stroke-width="2"/>
   <path atv:refpx="51.606" atv:refpy="72.198" d="M56.475,74.892C56.475,71.914 52.12,69.505 46.737,69.505" fill="none" id="id_33" stroke="#4C4C4C" stroke-width="2"/>
   <path atv:refpx="42.026" atv:refpy="70.999" d="M37.314,72.512C38.404,70.77 42.207,69.485 46.737,69.485" fill="none" id="id_34" stroke="#4C4C4C" stroke-width="2"/>
  </g>
 </g>
 <rect atv:refpx="139" atv:refpy="76" fill="#000000" fill-opacity="0" height="148" id="click_area" stroke="#0000ff" stroke-width="0" width="120" x="79" y="2"/>
 <script atv:desc="" atv:name="" type="text/ecmascript"/>
</svg>
