<?xml version='1.0' encoding='UTF-8' standalone='no'?>
<svg height="650" version="1.2" width="603" xmlns="http://www.w3.org/2000/svg" xmlns:atv="http://webmi.atvise.com/2007/svgext" xmlns:xlink="http://www.w3.org/1999/xlink">
 <defs/>
 <metadata>
  <atv:parameter behavior="optional" defaultvalue="SYSTEM.GLOBALS.Color_Global_1" desc="Color" name="Color" substitute="$Color$" valuetype="global"/>
  <atv:gridconfig enabled="true" gridstyle="lines" height="20" width="20"/>
  <atv:snapconfig enabled="true" height="10" width="10"/>
 </metadata>
 <text atv:refpx="49.476" atv:refpy="21" fill="$Color$" font-family="Arial" font-size="24" id="id_info" x="14.5" y="25.5">T{Conditions of}</text>
 <script atv:desc="" atv:name="" type="text/ecmascript"><![CDATA[/*******Initialize Variables*******/


/*******Initial Conditions*******/
webMI.addOnload(function() {

	//Define Initial Text
    webMI.gfx.setText("id_info", "Conditions of: "+(webMI.query["base"]).split('.').pop());
});


]]></script>
 <svg atv:refpx="145.002" atv:refpy="605" height="30" id="id_5" transform="matrix(0.5625,0,0,1,0,0)" width="160" x="177.783" xlink:href="SYSTEM.LIBRARY.ATVISE.OBJECTDISPLAYS.Advanced.in_out_value" y="590">
  <atv:argument name="base" prefix="base" value=".Variables.Cyclone Temperature"/>
  <atv:argument name="unit" value="T{pH}"/>
  <atv:argument name="fontSize" value="14"/>
  <atv:overwrite id="id_0" transform="matrix(1.7778,0,0,1,0,0)" width="90"/>
  <atv:overwrite id="input_label" transform="matrix(2.1751,0,0,1,6.9324,0)" x="63.055"/>
  <atv:overwrite id="blinking_frame" transform="matrix(1.7778,0,0,1,0,0)" width="82"/>
  <atv:overwrite id="focus_frame" transform="matrix(1.7778,0,0,1,0,0)" width="86"/>
  <atv:overwrite id="input_bg" transform="matrix(1.7778,0,0,1,0,0)" width="82"/>
  <atv:overwrite id="id_1" transform="matrix(1.7778,0,0,1,0,0)" width="88"/>
  <atv:overwrite id="input_border" transform="matrix(1.7778,0,0,1,0,0)" width="90"/>
 </svg>
 <text atv:refpx="-38.427" atv:refpy="961.404" fill="#000000" font-family="Arial" font-size="12" font-weight="bold" id="id_6" transform="matrix(1.1111,0,0,1,-10.6656,0)" x="100.5" y="576">T{Temperature}</text>
 <svg atv:refpx="299.75" atv:refpy="605" height="30" id="id_7" transform="matrix(0.5625,0,0,1,0,0)" width="160" x="452.891" xlink:href="SYSTEM.LIBRARY.ATVISE.OBJECTDISPLAYS.Advanced.in_out_value" y="590">
  <atv:argument name="base" prefix="base" value=".Variables.Cyclone Efficiency"/>
  <atv:argument name="unit" value="T{ppm}"/>
  <atv:argument name="fontSize" value="14"/>
  <atv:overwrite id="id_0" transform="matrix(1.7778,0,0,1,0,0)" width="90"/>
  <atv:overwrite id="input_label" transform="matrix(2.1751,0,0,1,6.9324,0)" x="63.055"/>
  <atv:overwrite id="blinking_frame" transform="matrix(1.7778,0,0,1,0,0)" width="82"/>
  <atv:overwrite id="focus_frame" transform="matrix(1.7778,0,0,1,0,0)" width="86"/>
  <atv:overwrite id="input_bg" transform="matrix(1.7778,0,0,1,0,0)" width="82"/>
  <atv:overwrite id="id_1" transform="matrix(1.7778,0,0,1,0,0)" width="88"/>
  <atv:overwrite id="input_border" transform="matrix(1.7778,0,0,1,0,0)" width="90"/>
 </svg>
 <text atv:refpx="75.456" atv:refpy="961.404" fill="#000000" font-family="Arial" font-size="12" font-weight="bold" id="id_8" x="245.25" y="576">T{Cyclone Efficiency}</text>
 <svg atv:refpx="301.516" atv:refpy="109.443" height="106" id="id_2" transform="matrix(0.7529,0,0,0.9329,0,0)" width="544.5" x="128.202" xlink:href="SYSTEM.LIBRARY.PROJECT.OBJECTDISPLAYS.atvise_Advanced_Objects_Complementary_Elements.Indicator_Slider_Complementary_Element" y="64.317">
  <atv:argument name="Label" value="T{Inlet Pressure}"/>
  <atv:argument name="Input" prefix="base" value=".Variables.Inlet Pressure"/>
  <atv:argument name="Object_Conditions" prefix="base" value=".Parameters.Object_Conditions"/>
  <atv:argument name="Alert_Range" prefix="base" value=".Parameters.Alert_Range"/>
  <atv:argument name="Unit" value="PSI"/>
  <atv:argument name="Color" prefix="Color" value=""/>
 </svg>
 <svg atv:refpx="301.516" atv:refpy="294.439" height="106" id="id_3" transform="matrix(0.7529,0,0,0.9329,0,0)" width="544.5" x="128.202" xlink:href="SYSTEM.LIBRARY.PROJECT.OBJECTDISPLAYS.atvise_Advanced_Objects_Complementary_Elements.Indicator_Slider_Complementary_Element" y="262.623">
  <atv:argument name="Label" value="T{Cyclone Overflow Rate}"/>
  <atv:argument name="Input" prefix="base" value=".Variables.Cyclone Overflow Rate"/>
  <atv:argument name="Object_Conditions" prefix="base" value=".Parameters.Object_Conditions"/>
  <atv:argument name="Alert_Range" prefix="base" value=".Parameters.Alert_Range"/>
  <atv:argument name="Unit" value="GPM"/>
  <atv:argument name="Color" prefix="Color" value=""/>
 </svg>
 <svg atv:refpx="301.506" atv:refpy="479.437" height="106" id="id_14" transform="matrix(0.753,0,0,0.9329,0,0)" width="544.5" x="128.185" xlink:href="SYSTEM.LIBRARY.PROJECT.OBJECTDISPLAYS.atvise_Advanced_Objects_Complementary_Elements.Indicator_Slider_Complementary_Element" y="460.928">
  <atv:argument name="Label" value="T{Cyclone Underflow Density}"/>
  <atv:argument name="Input" prefix="base" value=".Variables.Cyclone Underflow Density"/>
  <atv:argument name="Object_Conditions" prefix="base" value=".Parameters.Object_Conditions"/>
  <atv:argument name="Alert_Range" prefix="base" value=".Parameters.Alert_Range"/>
  <atv:argument name="Unit" value="g/cm3"/>
  <atv:argument name="Color" prefix="Color" value=""/>
 </svg>
 <svg atv:refpx="454.499" atv:refpy="605" height="30" id="id_4" transform="matrix(0.5625,0,0,1,0,0)" width="160" x="728" xlink:href="SYSTEM.LIBRARY.ATVISE.OBJECTDISPLAYS.Advanced.in_out_value" y="590">
  <atv:argument name="base" prefix="base" value=".Variables.Vortex Finder Diameter"/>
  <atv:argument name="unit" value="T{ppm}"/>
  <atv:argument name="fontSize" value="14"/>
  <atv:overwrite id="id_0" transform="matrix(1.7778,0,0,1,0,0)" width="90"/>
  <atv:overwrite id="input_label" transform="matrix(2.1751,0,0,1,6.9324,0)" x="63.055"/>
  <atv:overwrite id="blinking_frame" transform="matrix(1.7778,0,0,1,0,0)" width="82"/>
  <atv:overwrite id="focus_frame" transform="matrix(1.7778,0,0,1,0,0)" width="86"/>
  <atv:overwrite id="input_bg" transform="matrix(1.7778,0,0,1,0,0)" width="82"/>
  <atv:overwrite id="id_1" transform="matrix(1.7778,0,0,1,0,0)" width="88"/>
  <atv:overwrite id="input_border" transform="matrix(1.7778,0,0,1,0,0)" width="90"/>
 </svg>
 <text atv:refpx="179.878" atv:refpy="961.404" fill="#000000" font-family="Arial" font-size="12" font-weight="bold" id="id_9" x="390" y="576">T{Vortex Finder Diameter}</text>
</svg>
