<?xml version='1.0' encoding='UTF-8' standalone='no'?>
<svg height="279" version="1.2" width="252" xmlns="http://www.w3.org/2000/svg" xmlns:atv="http://webmi.atvise.com/2007/svgext" xmlns:xlink="http://www.w3.org/1999/xlink">
 <defs>
  <linearGradient gradientUnits="objectBoundingBox" id="id_33_fill_gradient" spreadMethod="reflect" x1="0.0675676" x2="0.581081" y1="1" y2="1">
   <stop offset="0" stop-color="#999999"/>
   <stop offset="1" stop-color="#e5e5e5"/>
  </linearGradient>
  <linearGradient gradientUnits="objectBoundingBox" id="id_34_fill_gradient" spreadMethod="reflect" x1="-0.135135" x2="0.405405" y1="0.986486" y2="0.972973">
   <stop offset="0" stop-color="#999999"/>
   <stop offset="1" stop-color="#e5e5e5"/>
  </linearGradient>
  <linearGradient gradientUnits="objectBoundingBox" id="id_41_fill_gradient" spreadMethod="reflect" x1="-0.135135" x2="0.405405" y1="1" y2="0.972973">
   <stop offset="0" stop-color="#999999"/>
   <stop offset="1" stop-color="#e5e5e5"/>
  </linearGradient>
  <linearGradient gradientUnits="objectBoundingBox" id="id_42_fill_gradient" spreadMethod="reflect" x1="-0.135135" x2="0.405405" y1="0.986486" y2="0.972973">
   <stop offset="0" stop-color="#999999"/>
   <stop offset="1" stop-color="#e5e5e5"/>
  </linearGradient>
  <radialGradient cx="0.5" cy="0.5" fx="0.5" fy="0.5" gradientUnits="objectBoundingBox" id="id_42_stroke_gradient" r="1">
   <stop offset="0" stop-color="#000000"/>
   <stop offset="1" stop-color="#ffffff"/>
  </radialGradient>
  <linearGradient gradientUnits="objectBoundingBox" id="id_43_fill_gradient" spreadMethod="reflect" x1="-0.135135" x2="0.405405" y1="1" y2="0.972973">
   <stop offset="0" stop-color="#999999"/>
   <stop offset="1" stop-color="#e5e5e5"/>
  </linearGradient>
  <radialGradient cx="0.5" cy="0.5" fx="0.5" fy="0.5" gradientUnits="objectBoundingBox" id="id_44_fill_gradient" r="0.514579">
   <stop offset="0.6088709677419355" stop-color="#e4e4e4"/>
   <stop offset="1" stop-color="#9a9a9a"/>
  </radialGradient>
  <radialGradient cx="0.5" cy="0.5" fx="0.5" fy="0.5" gradientUnits="objectBoundingBox" id="id_7_fill_gradient" r="0.514579">
   <stop offset="0.6088709677419355" stop-color="#e4e4e4"/>
   <stop offset="1" stop-color="#9a9a9a"/>
  </radialGradient>
  <linearGradient gradientUnits="objectBoundingBox" id="linear_0" x1="0" x2="1" y1="0" y2="1">
   <stop offset="0" stop-color="#000000"/>
   <stop offset="1" stop-color="#000000" stop-opacity="0"/>
  </linearGradient>
  <linearGradient gradientUnits="objectBoundingBox" id="SVGID_10_" x1="0.00600936" x2="0.994009" y1="3.91636" y2="-2.91817">
   <stop offset="0" stop-color="#595959"/>
   <stop offset="0.5" stop-color="#CCCCCC"/>
   <stop offset="1" stop-color="#595959"/>
  </linearGradient>
  <linearGradient gradientUnits="objectBoundingBox" id="SVGID_1_" x1="0.500074" x2="0.500074" y1="1.00001" y2="-1.00913e-05">
   <stop offset="0.01" stop-color="#595959"/>
   <stop offset="0.5" stop-color="#E0E0E0"/>
   <stop offset="1" stop-color="#595959"/>
  </linearGradient>
  <linearGradient gradientUnits="objectBoundingBox" id="SVGID_2_" x1="0.5" x2="0.5" y1="1" y2="-2.01837e-05">
   <stop offset="0.01" stop-color="#595959"/>
   <stop offset="0.5" stop-color="#E0E0E0"/>
   <stop offset="1" stop-color="#595959"/>
  </linearGradient>
  <linearGradient gradientUnits="objectBoundingBox" id="SVGID_3_" x1="-4.70662e-06" x2="0.999984" y1="0.500002" y2="0.500002">
   <stop offset="0.01" stop-color="#808080"/>
   <stop offset="0.25" stop-color="#B2B2B2"/>
   <stop offset="0.5" stop-color="#EBEBEB"/>
   <stop offset="0.77" stop-color="#B2B2B2"/>
   <stop offset="1" stop-color="#808080"/>
  </linearGradient>
  <linearGradient gradientUnits="objectBoundingBox" id="SVGID_4_" x1="0.500017" x2="0.500017" y1="1.00001" y2="3.33834e-06">
   <stop offset="0.01" stop-color="#595959"/>
   <stop offset="0.5" stop-color="#E0E0E0"/>
   <stop offset="1" stop-color="#595959"/>
  </linearGradient>
  <linearGradient gradientUnits="objectBoundingBox" id="SVGID_5_" x1="-8.96245e-17" x2="0.999995" y1="0.500015" y2="0.500015">
   <stop offset="0.01" stop-color="#595959"/>
   <stop offset="0.5" stop-color="#E0E0E0"/>
   <stop offset="1" stop-color="#595959"/>
  </linearGradient>
  <linearGradient gradientUnits="objectBoundingBox" id="SVGID_6_" x1="0.499982" x2="0.499982" y1="0.999964" y2="-2.14823e-05">
   <stop offset="0" stop-color="#B2B2B2"/>
   <stop offset="1" stop-color="#3D3D3D"/>
  </linearGradient>
  <linearGradient gradientUnits="objectBoundingBox" id="SVGID_7_" x1="0.499962" x2="0.499962" y1="1" y2="-1.43232e-05">
   <stop offset="0" stop-color="#808080"/>
   <stop offset="0.21" stop-color="#CCCCCC"/>
   <stop offset="0.5" stop-color="#CCCCCC"/>
   <stop offset="1" stop-color="#F0F0F0"/>
  </linearGradient>
  <linearGradient gradientUnits="objectBoundingBox" id="SVGID_8_" x1="0.00575457" x2="0.994262" y1="3.58771" y2="-2.51167">
   <stop offset="0" stop-color="#595959"/>
   <stop offset="0.5" stop-color="#CCCCCC"/>
   <stop offset="1" stop-color="#595959"/>
  </linearGradient>
  <linearGradient gradientUnits="objectBoundingBox" id="SVGID_9_" x1="0.00579792" x2="0.994263" y1="3.62977" y2="-2.55478">
   <stop offset="0" stop-color="#383838"/>
   <stop offset="0.5" stop-color="#C5C5C5"/>
   <stop offset="1" stop-color="#383838"/>
  </linearGradient>
 </defs>
 <metadata>
  <atv:parameter behavior="optional" defaultvalue="SYSTEM.GLOBALS.Color_Global_1" desc="Color" name="Color" substitute="$Color$" valuetype="global"/>
  <atv:parameter behavior="optional" defaultvalue="SYSTEM.GLOBALS.Maintenance_Separator" desc="Global Maintenance" name="Global_Maintenance" valuetype="global"/>
  <atv:gridconfig enabled="true" gridstyle="lines" height="20" width="20"/>
  <atv:snapconfig enabled="true" height="1" width="1"/>
 </metadata>
 <text atv:refpx="152.738" atv:refpy="11.5" fill="$Color$" font-family="Arial" font-size="14" font-weight="bold" id="Title" x="131.5" y="17">Name</text>
 <svg atv:refpx="92" atv:refpy="269.002" height="30" id="id_2" transform="matrix(1,0,0,0.6667,0,0)" width="80" x="52" xlink:href="SYSTEM.LIBRARY.ATVISE.OBJECTDISPLAYS.Advanced.button_switch" y="388.486">
  <atv:argument name="base" prefix="base" value=".Apertura"/>
  <atv:argument name="labelOn" value="T{Stop}"/>
  <atv:argument name="labelOff" value="T{Start}"/>
  <atv:overwrite height="18.001" id="id_6" transform="matrix(1,0,0,1.4999,0,0)"/>
  <atv:overwrite id="button_label" transform="matrix(1,0,0,1.4999,0,0)" y="14.5"/>
  <atv:overwrite id="button_symbol_off" transform="matrix(1,0,0,1.4999,0,0)" y="0"/>
  <atv:overwrite id="button_symbol_on" transform="matrix(1,0,0,1.4999,0,0)" y="0"/>
  <atv:overwrite height="16.001" id="blinking_frame" transform="matrix(1,0,0,1.4999,0,0)"/>
  <atv:overwrite height="16.001" id="button_stroke" transform="matrix(1,0,0,1.4999,0,0)"/>
  <atv:overwrite height="18.001" id="button_bg" transform="matrix(1,0,0,1.4999,0,0)"/>
  <atv:overwrite height="20.001" id="outer_frame" transform="matrix(1,0,0,1.4999,0,0)"/>
 </svg>
 <text atv:refpx="75.156" atv:refpy="248.5" fill="#195c88" font-family="Arial" font-size="12" font-weight="bold" id="id_49" x="58" y="253">On/Off</text>
 <polygon atv:refpx="63.671" atv:refpy="77.519" fill="#fdf90a" id="alert_increasing" points="51.67,89.518 75.67,89.518 63.003,65.518" stroke="#000000" stroke-width="1"/>
 <g atv:refpx="23.062" atv:refpy="207.312" id="maintenance" transform="matrix(1,0,0,1,-1.5819,52.6675)">
  <rect atv:refpx="46.171" atv:refpy="204.643" fill="#2b9de8" height="24.544" id="id_39" stroke="#000000" stroke-width="1" transform="matrix(0.7071,-0.7071,0.7071,0.7071,0,0)" width="24.544" x="-104.196" y="114.505"/>
  <text atv:refpx="28" atv:refpy="149.5" fill="#000000" font-family="Arial" font-size="14" id="id_40" x="18.5" y="160">M</text>
 </g>
 <polygon atv:refpx="11.207" atv:refpy="80.103" fill="#fdbf21" id="alert_decreasing" points="25.872,68.102 1.871,68.102 14.536,92.103" stroke="#000000" stroke-width="1"/>
 <text atv:refpx="64.671" atv:refpy="82.019" fill="#000000" font-family="Arial" font-size="14" font-weight="bold" id="alertC_text" text-anchor="end" x="66.171" y="86.519">1</text>
 <text atv:refpx="14.459" atv:refpy="77.101" fill="#000000" font-family="Arial" font-size="14" font-weight="bold" id="alertD_text" x="10.959" y="81.601">1</text>
 <rect atv:refpx="9.088" atv:refpy="-18.049" fill="#93060a" fill-opacity="0" height="42" id="click_area_alertC" stroke="none" stroke-width="0" width="28" x="50" y="50.484"/>
 <rect atv:refpx="14" atv:refpy="82.484" fill="#93060a" fill-opacity="0" height="42" id="click_area_alertD" stroke="none" stroke-width="0" width="28" x="0" y="63.484"/>
 <polygon atv:refpx="60.419" atv:refpy="121.021" fill="#fdf90a" id="alert_increasing_min" points="75.084,109.019 51.081,109.019 63.748,133.019" stroke="#000000" stroke-width="1"/>
 <text atv:refpx="63.671" atv:refpy="118.019" fill="#000000" font-family="Arial" font-size="14" font-weight="bold" id="alertC_text_min" x="60.171" y="122.519">1</text>
 <polygon atv:refpx="14.459" atv:refpy="120.601" fill="#fdbf21" id="alert_decreasing_min" points="2.457,132.601 26.458,132.601 13.79,108.601" stroke="#000000" stroke-width="1"/>
 <text atv:refpx="15" atv:refpy="124.984" fill="#000000" font-family="Arial" font-size="14" font-weight="bold" id="alertD_text_min" text-anchor="end" x="16.5" y="129.484">1</text>
 <rect atv:refpx="-40.912" atv:refpy="25.951" fill="#93060a" fill-opacity="0" height="42" id="click_area_alertD_min" stroke="none" stroke-width="0" width="28" x="0" y="94.484"/>
 <g atv:refpx="36.5" atv:refpy="100.484" id="Ind_Bar" transform="matrix(1,0,0,1,-2,31.484)">
  <rect atv:refpx="38.5" atv:refpy="69" fill="#626262" height="77.366" id="Barra_Ind2" rx="7" ry="7" stroke="#000000" stroke-width="1" width="14" x="31.5" y="30.317"/>
  <path atv:refpx="38.496" atv:refpy="36.976" d="M31.826,43.257L45.178,43.257L45.08,36.1C45.08,36.1 44.046,30.754 38.676,30.694C33.305,30.633 31.876,35.603 31.876,35.603C31.876,35.603 31.777,43.318 31.826,43.257" fill="#b5b5b5" id="id_19" stroke="#000000" stroke-width="0"/>
  <path atv:refpx="38.533" atv:refpy="100.982" d="M45.204,94.701L31.852,94.701L31.95,101.858C31.95,101.858 32.985,107.205 38.355,107.265C43.726,107.324 45.154,102.356 45.154,102.356C45.154,102.356 45.252,94.641 45.204,94.701" fill="#b5b5b5" id="id_20" stroke="#000000" stroke-width="0"/>
 </g>
 <rect atv:refpx="49.396" atv:refpy="53.695" fill="#bd070d" height="23" id="alarm_square" rx="1.855" ry="1.987" stroke="#000000" stroke-width="1" text-anchor="middle" width="23" x="37.446" y="41.569"/>
 <text atv:refpx="-20.554" atv:refpy="28.284" fill="#000000" font-family="Arial" font-size="14" font-weight="bold" id="alarm_text" text-anchor="middle" x="48.946" y="58.07">1</text>
 <rect atv:refpx="-3.405" atv:refpy="-10.206" fill="#93060a" fill-opacity="0" height="28" id="click_area_alarm" stroke="none" stroke-width="0" width="28" x="34.879" y="39"/>
 <rect atv:refpx="48.102" atv:refpy="147.895" fill="#bd070d" height="23" id="alarm_square_min" rx="1.855" ry="1.987" stroke="#000000" stroke-width="1" text-anchor="middle" width="23" x="36.152" y="135.769"/>
 <text atv:refpx="-21.848" atv:refpy="122.484" fill="#000000" font-family="Arial" font-size="14" font-weight="bold" id="alarm_text_min" text-anchor="middle" x="47.652" y="152.27">1</text>
 <rect atv:refpx="-4.983" atv:refpy="84.278" fill="#93060a" fill-opacity="0" height="28" id="click_area_alarm_min" stroke="none" stroke-width="0" width="28" x="33.301" y="133.484"/>
 <rect atv:refpx="63" atv:refpy="123.484" fill="#93060a" fill-opacity="0" height="42" id="click_area_alertC_min" stroke="none" stroke-width="0" width="28" x="49" y="104.484"/>
 <script atv:desc="" atv:href="SYSTEM.LIBRARY.PROJECT.DISPLAYSCRIPTS.atvise_Advanced_Objects_Display_Scripts.AAA_Principal_Display_Script" atv:name="" atv:type="text/ecmascript"/>
 <script atv:desc="" atv:name="" type="text/ecmascript"><![CDATA[












]]></script>
 <g atv:refpx="155.127" atv:refpy="131.71" id="Image1" transform="matrix(1,0,0,1,-47,32)">
  <g atv:refpx="277.346" atv:refpy="155.374" id="Group_Inlet" transform="matrix(1.7193,0,0,1.7193,114.9983,3)">
   <path atv:refpx="89.529" atv:refpy="88.626" d="M87.501,78.717L91.556,78.717L91.556,98.536L87.501,98.536Z" fill="url(#SVGID_1_)" id="id_0"/>
   <path atv:refpx="97.355" atv:refpy="83.672" d="M93.357,88.626L93.357,78.717L101.353,78.717L101.353,88.626Z" fill="url(#SVGID_2_)" id="id_1"/>
  </g>
  <g atv:refpx="244.917" atv:refpy="70.668" id="Group_Levers" transform="matrix(1.7193,0,0,1.7193,114.9983,3)">
   <path atv:refpx="89.416" atv:refpy="73.649" d="M95.384,78.717L99.439,78.717L99.439,72.635L98.538,72.635L98.538,68.581L79.394,68.581L79.394,70.607L96.511,70.607L96.511,72.634L95.384,72.634Z" fill="#595959" id="id_3"/>
   <path atv:refpx="77.479" atv:refpy="9.797" d="M71.511,12.725L75.564,12.725L75.564,8.896L71.511,8.896L71.511,2.815L83.447,2.815L83.447,8.896L79.394,8.896L79.394,15.878L78.493,16.779L71.512,16.779L71.512,12.725Z" fill="#999999" id="id_4"/>
   <path atv:refpx="65.542" atv:refpy="5.518" d="M65.429,11.036L65.429,4.842L61.601,5.968L61.601,0L65.429,1.014L68.582,1.014L69.483,1.915L69.483,11.036Z" fill="#737373" id="id_5"/>
   <path atv:refpx="57.659" atv:refpy="14.921" d="M51.691,11.937L51.691,17.905L58.673,16.779L63.627,16.779L63.627,12.725L58.673,12.725Z" fill="#999999" id="id_7"/>
  </g>
  <g atv:refpx="231.171" atv:refpy="76.67" id="Group_Separator" transform="matrix(1.7193,0,0,1.7193,114.9983,3)">
   <path atv:refpx="67.57" atv:refpy="42.849" d="M55.519,74.662L55.519,68.581L35.7,60.698L35.7,50.788L43.583,38.851L55.52,26.689L55.52,22.86L57.547,22.86L59.574,18.805L63.628,18.805L63.628,11.035L71.512,11.035L71.512,18.805L75.565,18.805L77.592,22.86L79.395,22.86L79.395,26.689L91.557,38.851L99.44,50.788L99.44,60.697L79.395,68.58L79.395,74.661Z" fill="url(#SVGID_3_)" id="id_8" stroke="#4C4C4C" stroke-width="0.1"/>
   <path atv:refpx="67.57" atv:refpy="51.288" d="M35.7,50.788L99.439,50.788" fill="none" id="id_9" stroke="#4C4C4C" stroke-width="0.25"/>
   <path atv:refpx="67.57" atv:refpy="53.09" d="M99.439,52.59L35.7,52.59" fill="none" id="id_10" stroke="#4C4C4C" stroke-width="0.25"/>
   <path atv:refpx="67.57" atv:refpy="55.117" d="M35.7,54.617L99.439,54.617" fill="none" id="id_11" stroke="#4C4C4C" stroke-width="0.25"/>
   <path atv:refpx="67.457" atv:refpy="69.081" d="M79.394,68.581L55.519,68.581" fill="none" id="id_12" stroke="#4C4C4C" stroke-width="0.25"/>
   <path atv:refpx="67.457" atv:refpy="74.262" d="M55.519,73.762L79.394,73.762" fill="none" id="id_13" stroke="#4C4C4C" stroke-width="0.25"/>
   <path atv:refpx="67.457" atv:refpy="27.189" d="M55.519,26.689L79.394,26.689" fill="none" id="id_14" stroke="#4C4C4C" stroke-width="0.25"/>
   <path atv:refpx="67.569" atv:refpy="23.36" d="M57.546,22.86L77.591,22.86" fill="none" id="id_15" stroke="#4C4C4C" stroke-width="0.25"/>
   <path atv:refpx="67.569" atv:refpy="19.306" d="M63.627,18.806L71.511,18.806" fill="none" id="id_16" stroke="#4C4C4C" stroke-width="0.25"/>
   <path atv:refpx="67.486" atv:refpy="39.352" d="M43.249,38.852L91.723,38.852" fill="none" id="id_17" stroke="#4C4C4C" stroke-width="0.25"/>
  </g>
  <g atv:refpx="155.948" atv:refpy="134.851" id="Group_Storage_Unit" transform="matrix(1.7193,0,0,1.7193,114.9983,3)">
   <path atv:refpx="23.819" atv:refpy="89.639" d="M0.001,74.662L47.635,74.662L47.635,104.617L0.001,104.617Z" fill="url(#SVGID_4_)" id="id_18"/>
   <path atv:refpx="23.763" atv:refpy="61.712" d="M33.673,48.761L33.673,74.662L13.853,74.662L13.853,48.761Z" fill="url(#SVGID_5_)" id="id_21"/>
  </g>
  <g atv:refpx="213.259" atv:refpy="133.109" id="Group_Holders" transform="matrix(1.7193,0,0,1.7193,114.9983,3)">
   <path atv:refpx="67.57" atv:refpy="99.663" d="M87.501,92.68L47.637,92.68L47.637,106.645L87.502,106.645L87.502,92.68Z" fill="url(#SVGID_6_)" id="id_22"/>
   <path atv:refpx="45.047" atv:refpy="66.216" d="M43.583,62.725L46.51,62.725L46.51,69.707L43.583,69.707Z" fill="#A5A5B2" id="id_23" stroke="#4C4C4C" stroke-width="0.25"/>
   <path atv:refpx="95.498" atv:refpy="90.653" d="M91.556,88.626L99.439,88.626L99.439,92.68L91.556,92.68Z" fill="#B2B2B2" id="id_24" stroke="#4C4C4C" stroke-width="0.25"/>
   <path atv:refpx="16.837" atv:refpy="47.297" d="M14.866,45.833L18.807,45.833L18.807,48.76L14.866,48.76Z" fill="#B2B2B2" id="id_25" stroke="#4C4C4C" stroke-width="0.25"/>
   <path atv:refpx="30.745" atv:refpy="47.297" d="M28.718,45.833L32.772,45.833L32.772,48.76L28.717,48.76Z" fill="#B2B2B2" id="id_26" stroke="#4C4C4C" stroke-width="0.25"/>
   <path atv:refpx="23.762" atv:refpy="46.734" d="M19.708,44.707L27.816,44.707L27.816,48.761L19.708,48.761Z" fill="#B2B2B2" id="id_27" stroke="#4C4C4C" stroke-width="0.25"/>
   <path atv:refpx="33.673" atv:refpy="54.166" d="M21.736,51.689L45.61,51.689L45.61,56.644L21.736,56.644Z" fill="#A5A5B2" id="id_28" stroke="#4C4C4C" stroke-width="0.25"/>
   <path atv:refpx="34.687" atv:refpy="93.525" d="M21.736,101.352L47.637,101.352L47.637,85.698" fill="none" id="id_29" stroke="#4C4C4C" stroke-width="0.25"/>
   <path atv:refpx="44.146" atv:refpy="65.653" d="M34.574,56.644L34.574,63.626L37.727,65.652L45.61,67.678L52.591,70.606L53.718,74.661" fill="none" id="id_30" stroke="#4C4C4C" stroke-width="0.25"/>
   <path atv:refpx="67.57" atv:refpy="83.559" d="M47.637,74.662L87.502,74.662L87.502,92.455L47.637,92.455Z" fill="#CCCCCC" id="id_31"/>
  </g>
  <g atv:refpx="174.635" atv:refpy="163.797" id="Group_Label" transform="matrix(1.7193,0,0,1.7193,114.9983,3)">
   <path atv:refpx="34.687" atv:refpy="93.524" d="M21.736,85.698L47.637,85.698L47.637,101.351L21.736,101.351Z" fill="#7F7F7F" id="id_32"/>
   <path atv:refpx="34.687" atv:refpy="93.525" d="M21.736,101.352L21.736,85.698L47.637,85.698" fill="none" id="id_33" stroke="#FFFFFF" stroke-width="0.25"/>
  </g>
  <g atv:refpx="231.293" atv:refpy="132.442" id="Group_Indicator" transform="matrix(1.7193,0,0,1.7193,114.9983,3)">
   <circle atv:refpx="69.371" atv:refpy="83.671" cx="69.371" cy="83.671" fill="#E5E5E5" id="id_34" r="5.968" stroke="#7F7F7F" stroke-width="0.25"/>
   <circle atv:refpx="55.519" atv:refpy="83.671" cx="55.519" cy="83.671" fill="#E5E5E5" id="id_35" r="5.856" stroke="#7F7F7F" stroke-width="0.25"/>
   <path atv:refpx="57.547" atv:refpy="102.028" d="M49.664,91.555L65.43,91.555L65.43,112.5L49.664,112.5Z" fill="url(#SVGID_7_)" id="id_36" stroke="#4C4C4C" stroke-width="0.1"/>
   <path atv:refpx="67.678" atv:refpy="38.47" d="M44.216,38.863L44.155,38.25L91.133,38.077L91.2,38.75Z" fill="url(#SVGID_8_)" id="id_37"/>
   <path atv:refpx="67.454" atv:refpy="50.368" d="M36.093,50.886L36.01,50.083L98.809,49.85L98.898,50.731Z" fill="url(#SVGID_9_)" id="id_38"/>
   <path atv:refpx="67.641" atv:refpy="60.224" d="M35.931,60.595L35.843,59.75L99.345,59.771L99.439,60.698Z" fill="url(#SVGID_10_)" id="id_41"/>
  </g>
 </g>
 <rect atv:refpx="160" atv:refpy="115.5" fill="#000000" fill-opacity="0" height="231" id="click_area" stroke="#0000ff" stroke-width="0" width="184" x="68" y="0"/>
</svg>
