<?xml version='1.0' encoding='UTF-8' standalone='no'?>
<svg height="650" version="1.2" width="603" xmlns="http://www.w3.org/2000/svg" xmlns:atv="http://webmi.atvise.com/2007/svgext" xmlns:xlink="http://www.w3.org/1999/xlink">
 <defs/>
 <metadata>
  <atv:parameter behavior="optional" defaultvalue="SYSTEM.GLOBALS.Color_Global_1" desc="Color" name="Color" substitute="$Color$" valuetype="global"/>
  <atv:gridconfig enabled="true" gridstyle="lines" height="20" width="20"/>
  <atv:snapconfig enabled="true" height="10" width="10"/>
 </metadata>
 <text atv:refpx="49.476" atv:refpy="21" fill="$Color$" font-family="Arial" font-size="24" id="id_info" x="14.5" y="25.5">Conditions of</text>
 <script atv:desc="" atv:href="SYSTEM.LIBRARY.PROJECT.DISPLAYSCRIPTS.atvise_Advanced_Objects_Display_Scripts.Conditions_Display_Script" atv:name="" atv:type="text/ecmascript"/>
 <svg atv:refpx="505" atv:refpy="305" height="30" id="id_11" transform="matrix(0.5625,0,0,1,0,0)" width="160" x="817.778" xlink:href="SYSTEM.LIBRARY.ATVISE.OBJECTDISPLAYS.Advanced.in_out_value" y="290">
  <atv:argument name="base" prefix="base" value=".Time"/>
  <atv:argument name="unit" value="T{s}"/>
  <atv:argument name="fontSize" value="14"/>
  <atv:overwrite id="input_label" transform="matrix(1.7778,0,0,1,0,0)" x="82.055"/>
  <atv:overwrite id="blinking_frame" transform="matrix(1.7778,0,0,1,0,0)" width="82"/>
  <atv:overwrite id="focus_frame" transform="matrix(1.7778,0,0,1,0,0)" width="86"/>
  <atv:overwrite id="input_bg" transform="matrix(1.7778,0,0,1,0,0)" width="82"/>
  <atv:overwrite id="id_1" transform="matrix(1.7778,0,0,1,0,0)" width="88"/>
  <atv:overwrite id="id_0" transform="matrix(1.7778,0,0,1,0,0)" width="90"/>
 </svg>
 <text atv:refpx="318.105" atv:refpy="661.404" fill="#000000" font-family="Arial" font-size="12" font-weight="bold" id="id_12" x="464.5" y="276">Operating Time</text>
 <svg atv:refpx="292.25" atv:refpy="143" height="106" id="id_2" width="544.5" x="20" xlink:href="ObjectTypes.PROJECT.Base_Object_v1.3.Indicator_Slider" y="90">
  <atv:argument name="Label" value="Test"/>
  <atv:argument name="Input" prefix="base" value=".Variables.Test_1"/>
  <atv:argument name="Object_Conditions" prefix="base" value=".Parameters.Object_Conditions"/>
  <atv:argument name="Alert_Range" prefix="base" value=".Parameters.Alert_Range"/>
  <atv:argument name="Unit" value="U"/>
  <atv:argument name="Color" prefix="Color" value=""/>
 </svg>
 <script atv:desc="" atv:name="" type="text/ecmascript"/>
</svg>
