<!DOCTYPE svg PUBLIC '-//W3C//DTD SVG 20000303 Stylable//EN' 'http://www.w3.org/TR/2000/03/WD-SVG-20000303/DTD/svg-20000303-stylable.dtd'>
<svg height="612" width="999" xmlns="http://www.w3.org/2000/svg" xmlns:atv="http://webmi.atvise.com/2007/svgext" xmlns:xlink="http://www.w3.org/1999/xlink">
 <defs/>
 <metadata>
  <atv:gridconfig enabled="false" gridstyle="lines" height="20" width="20"/>
  <atv:snapconfig enabled="false" height="10" width="10"/>
 </metadata>
 <g atv:refpx="499.5" atv:refpy="306" id="id_37">
  <path atv:refpx="401.5" atv:refpy="580" d="M15,548L788,548L788,612L15,612Z" fill="#9c9" id="id_0" stroke="#4c4c4c" stroke-width="2"/>
  <path atv:refpx="264.5" atv:refpy="301.5" d="M31,55L498,55L498,548L31,548Z" fill="#9c9" id="id_1" stroke="#4c4c4c" stroke-width="2"/>
  <path atv:refpx="643" atv:refpy="301.5" d="M498,55L788,55L788,548L498,548Z" fill="#9c9" id="id_2" stroke="#4c4c4c" stroke-width="2"/>
  <path atv:refpx="23" atv:refpy="301.5" d="M15,55L31,55L31,548L15,548Z" fill="#9c9" id="id_3" stroke="#4c4c4c" stroke-width="2"/>
  <path atv:refpx="401.5" atv:refpy="43.5" d="M15,32L788,32L788,55L15,55Z" fill="#9c9" id="id_4" stroke="#4c4c4c" stroke-width="2"/>
  <path atv:refpx="868" atv:refpy="51.5" d="M839,71L839,32L897,32Z" fill="#b6f0bd" id="id_5" stroke="#4c4c4c" stroke-width="2"/>
  <path atv:refpx="427" atv:refpy="16" d="M15,32L63,0L839,0L788,32Z" fill="#b6f0bd" id="id_6" stroke="#4c4c4c" stroke-width="2"/>
  <path atv:refpx="813.5" atv:refpy="306" d="M788,32L839,0L839,580L788,612Z" fill="#709e70" id="id_7" stroke="#4c4c4c" stroke-width="2"/>
  <path atv:refpx="868" atv:refpy="290" d="M839,548L897,508L897,32L839,71Z" fill="#709e70" id="id_8" stroke="#4c4c4c" stroke-width="2"/>
  <path atv:refpx="919" atv:refpy="55.5" d="M895,47L911,32L943,47L935,63L916,53L895,79Z" fill="#9c9" id="id_9" stroke="#4c4c4c" stroke-width="2"/>
  <path atv:refpx="947" atv:refpy="476" d="M895,460L999,460L999,492L895,492Z" fill="#709e70" id="id_10" stroke="#4c4c4c" stroke-width="2"/>
  <path atv:refpx="947" atv:refpy="277.5" d="M895,95L999,95L999,460L895,460Z" fill="#9c9" id="id_11" stroke="#4c4c4c" stroke-width="2"/>
  <path atv:refpx="947" atv:refpy="79" d="M895,63L999,63L999,95L895,95Z" fill="#b6f0bd" id="id_12" stroke="#4c4c4c" stroke-width="2"/>
  <path atv:refpx="933" atv:refpy="484" d="M881,468L985,468L985,500L881,500Z" fill="#709e70" id="id_13" stroke="#4c4c4c" stroke-width="2"/>
  <path atv:refpx="933" atv:refpy="285.5" d="M881,103L985,103L985,468L881,468Z" fill="#9c9" id="id_14" stroke="#4c4c4c" stroke-width="2"/>
  <path atv:refpx="933" atv:refpy="87" d="M881,71L985,71L985,103L881,103Z" fill="#b6f0bd" id="id_15" stroke="#4c4c4c" stroke-width="2"/>
  <path atv:refpx="442" atv:refpy="302" d="M410,250L474,250L474,354L410,354Z" fill="#e5e5e5" id="id_16" stroke="#4c4c4c" stroke-width="2"/>
  <path atv:refpx="95" atv:refpy="45" d="M39,37L151,37L151,53L39,53Z" fill="#e5e5e5" id="id_17" stroke="#4c4c4c" stroke-width="2"/>
  <circle atv:refpx="548" atv:refpy="282" cx="548" cy="282" fill="#7f7f7f" id="id_18" r="16" stroke="#4c4c4c" stroke-width="2"/>
  <circle atv:refpx="547" atv:refpy="282" cx="547" cy="282" fill="#999" id="id_19" r="12"/>
  <circle atv:refpx="548" atv:refpy="282" cx="548" cy="282" fill="#ccc" id="id_20" r="8"/>
  <circle atv:refpx="547" atv:refpy="282" cx="547" cy="282" fill="#fff" id="id_21" r="4"/>
  <path atv:refpx="266" atv:refpy="71" d="M210,63L322,63L322,79L210,79Z" fill="#c93" id="id_22" stroke="#4c4c4c" stroke-width="2"/>
  <path atv:refpx="644" atv:refpy="71" d="M588,63L700,63L700,79L588,79Z" fill="#c93" id="id_23" stroke="#4c4c4c" stroke-width="2"/>
  <path atv:refpx="922.5" atv:refpy="492" d="M871,476L974,476L974,508L871,508Z" fill="#709e70" id="id_24" stroke="#4c4c4c" stroke-width="2"/>
  <path atv:refpx="922.5" atv:refpy="295" d="M871,114L974,114L974,476L871,476Z" fill="#9c9" id="id_25" stroke="#4c4c4c" stroke-width="2"/>
  <path atv:refpx="922.5" atv:refpy="96.5" d="M871,79L974,79L974,114L871,114Z" fill="#b6f0bd" id="id_26" stroke="#4c4c4c" stroke-width="2"/>
  <path atv:refpx="909" atv:refpy="500" d="M857,484L961,484L961,516L857,516Z" fill="#709e70" id="id_27" stroke="#4c4c4c" stroke-width="2"/>
  <path atv:refpx="909" atv:refpy="303" d="M857,122L961,122L961,484L857,484Z" fill="#9c9" id="id_28" stroke="#4c4c4c" stroke-width="2"/>
  <path atv:refpx="909" atv:refpy="104.5" d="M857,87L961,87L961,122L857,122Z" fill="#b6f0bd" id="id_29" stroke="#4c4c4c" stroke-width="2"/>
  <path atv:refpx="899" atv:refpy="508" d="M847,492L951,492L951,524L847,524Z" fill="#709e70" id="id_30" stroke="#4c4c4c" stroke-width="2"/>
  <path atv:refpx="899" atv:refpy="311" d="M847,130L951,130L951,492L847,492Z" fill="#9c9" id="id_31" stroke="#4c4c4c" stroke-width="2"/>
  <path atv:refpx="899" atv:refpy="112.5" d="M847,95L951,95L951,130L847,130Z" fill="#b6f0bd" id="id_32" stroke="#4c4c4c" stroke-width="2"/>
  <path atv:refpx="863" atv:refpy="93" d="M839,85L855,69L887,82L876,101L860,90L839,117Z" fill="#9c9" id="id_33" stroke="#4c4c4c" stroke-width="2"/>
  <path atv:refpx="15.5" atv:refpy="302" d="M0,282L31,282L31,322L0,322Z" fill="#9c9" id="id_34" stroke="#4c4c4c" stroke-width="2"/>
  <path atv:refpx="15.5" atv:refpy="76.5" d="M0,55L31,55L31,98L0,98Z" fill="#9c9" id="id_35" stroke="#4c4c4c" stroke-width="2"/>
  <path atv:refpx="15.5" atv:refpy="528" d="M0,508L31,508L31,548L0,548Z" fill="#9c9" id="id_36" stroke="#4c4c4c" stroke-width="2"/>
 </g>
</svg>
