<?xml version='1.0' encoding='UTF-8' standalone='no'?>
<svg height="530" version="1.2" width="513.5" xmlns="http://www.w3.org/2000/svg" xmlns:atv="http://webmi.atvise.com/2007/svgext" xmlns:xlink="http://www.w3.org/1999/xlink">
 <defs/>
 <metadata>
  <atv:parameter behavior="optional" defaultvalue="SYSTEM.GLOBALS.Color_Global_1" desc="Color" name="Color" substitute="$Color$" valuetype="global"/>
  <atv:gridconfig enabled="true" gridstyle="lines" height="20" width="20"/>
  <atv:snapconfig enabled="true" height="10" width="10"/>
 </metadata>
 <text atv:refpx="38.976" atv:refpy="21" fill="$Color$" font-family="Arial" font-size="24" id="id_info" x="4" y="25.5">T{Conditions of}</text>
 <script atv:desc="" atv:name="" type="text/ecmascript"><![CDATA[/*******Initialize Variables*******/


/*******Initial Conditions*******/
webMI.addOnload(function() {

	//Define Initial Text
    webMI.gfx.setText("id_info", "Conditions of: "+(webMI.query["base"]).split('.').pop());
});


]]></script>
 <svg atv:refpx="451.5" atv:refpy="515" height="30" id="id_11" transform="matrix(0.5625,0,0,1,0,0)" width="160" x="649.778" xlink:href="SYSTEM.LIBRARY.ATVISE.OBJECTDISPLAYS.Advanced.in_out_value" y="489">
  <atv:argument name="base" prefix="base" value=".Times.Time"/>
  <atv:argument name="unit" value="T{s}"/>
  <atv:argument name="fontSize" value="14"/>
  <atv:overwrite id="id_0" transform="matrix(1.7778,0,0,1,0,0)" width="90"/>
  <atv:overwrite id="input_label" transform="matrix(2.1751,0,0,1,6.9324,0)" x="63.055"/>
  <atv:overwrite id="blinking_frame" transform="matrix(1.7778,0,0,1,0,0)" width="82"/>
  <atv:overwrite id="focus_frame" transform="matrix(1.7778,0,0,1,0,0)" width="86"/>
  <atv:overwrite id="input_bg" transform="matrix(1.7778,0,0,1,0,0)" width="82"/>
  <atv:overwrite id="id_1" transform="matrix(1.7778,0,0,1,0,0)" width="88"/>
  <atv:overwrite id="input_border" transform="matrix(1.7778,0,0,1,0,0)" width="90"/>
 </svg>
 <text atv:refpx="220.605" atv:refpy="860.404" fill="#000000" font-family="Arial" font-size="12" font-weight="bold" id="id_12" x="367" y="475">T{Operating Time}</text>
 <svg atv:refpx="256.75" atv:refpy="104.001" height="106" id="id_2" transform="matrix(0.8338,0,0,0.8302,0,0)" width="544.5" x="35.678" xlink:href="SYSTEM.LIBRARY.PROJECT.OBJECTDISPLAYS.atvise_Advanced_Objects_Complementary_Elements.Indicator_Slider_Complementary_Element" y="72.272">
  <atv:argument name="Label" value="T{Flow Rate}"/>
  <atv:argument name="Input" prefix="base" value=".Variables.Flow_Rate"/>
  <atv:argument name="Object_Conditions" prefix="base" value=".Parameters.Object_Conditions"/>
  <atv:argument name="Alert_Range" prefix="base" value=".Parameters.Alert_Range"/>
  <atv:argument name="Unit" value="L/min"/>
  <atv:argument name="Color" prefix="Color" value=""/>
 </svg>
 <svg atv:refpx="256.75" atv:refpy="204.001" height="106" id="id_3" transform="matrix(0.8338,0,0,0.8302,0,0)" width="544.5" x="35.678" xlink:href="SYSTEM.LIBRARY.PROJECT.OBJECTDISPLAYS.atvise_Advanced_Objects_Complementary_Elements.Indicator_Slider_Complementary_Element" y="192.725">
  <atv:argument name="Label" value="T{Contaminant Concentration}"/>
  <atv:argument name="Input" prefix="base" value=".Variables.Contaminant_Concentration"/>
  <atv:argument name="Object_Conditions" prefix="base" value=".Parameters.Object_Conditions"/>
  <atv:argument name="Alert_Range" prefix="base" value=".Parameters.Alert_Range"/>
  <atv:argument name="Color" prefix="Color" value=""/>
  <atv:argument name="Unit" value="ppm"/>
 </svg>
 <svg atv:refpx="256.75" atv:refpy="294.001" height="106" id="id_4" transform="matrix(0.8338,0,0,0.8302,0,0)" width="544.5" x="35.678" xlink:href="SYSTEM.LIBRARY.PROJECT.OBJECTDISPLAYS.atvise_Advanced_Objects_Complementary_Elements.Indicator_Slider_Complementary_Element" y="301.132">
  <atv:argument name="Label" value="T{Differential Pressure}"/>
  <atv:argument name="Input" prefix="base" value=".Variables.Diff_Pressure"/>
  <atv:argument name="Object_Conditions" prefix="base" value=".Parameters.Object_Conditions"/>
  <atv:argument name="Alert_Range" prefix="base" value=".Parameters.Alert_Range"/>
  <atv:argument name="Unit" value="psi"/>
  <atv:argument name="Color" prefix="Color" value=""/>
 </svg>
 <svg atv:refpx="256.75" atv:refpy="394.001" height="106" id="id_13" transform="matrix(0.8338,0,0,0.8302,0,0)" width="544.5" x="35.678" xlink:href="SYSTEM.LIBRARY.PROJECT.OBJECTDISPLAYS.atvise_Advanced_Objects_Complementary_Elements.Indicator_Slider_Complementary_Element" y="421.585">
  <atv:argument name="Label" value="T{Temperature}"/>
  <atv:argument name="Input" prefix="base" value=".Variables.Temperature"/>
  <atv:argument name="Object_Conditions" prefix="base" value=".Parameters.Object_Conditions"/>
  <atv:argument name="Alert_Range" prefix="base" value=".Parameters.Alert_Range"/>
  <atv:argument name="Unit" value="ºC"/>
  <atv:argument name="Color" prefix="Color" value=""/>
 </svg>
 <svg atv:refpx="160.5" atv:refpy="515" height="30" id="id_6" transform="matrix(0.5625,0,0,1,0,0)" width="160" x="132.445" xlink:href="SYSTEM.LIBRARY.ATVISE.OBJECTDISPLAYS.Advanced.in_out_value" y="489">
  <atv:argument name="base" prefix="base" value=".Variables.Filter_Element_Status"/>
  <atv:argument name="fontSize" value="14"/>
  <atv:argument name="validation" value="Boolean"/>
  <atv:overwrite id="id_0" transform="matrix(1.7778,0,0,1,0,0)" width="90"/>
  <atv:overwrite id="input_label" transform="matrix(2.1751,0,0,1,6.9324,0)" x="63.055"/>
  <atv:overwrite id="blinking_frame" transform="matrix(1.7778,0,0,1,0,0)" width="82"/>
  <atv:overwrite id="focus_frame" transform="matrix(1.7778,0,0,1,0,0)" width="86"/>
  <atv:overwrite id="input_bg" transform="matrix(1.7778,0,0,1,0,0)" width="82"/>
  <atv:overwrite id="id_1" transform="matrix(1.7778,0,0,1,0,0)" width="88"/>
  <atv:overwrite id="input_border" transform="matrix(1.7778,0,0,1,0,0)" width="90"/>
 </svg>
 <text atv:refpx="-128.207" atv:refpy="860.404" fill="#000000" font-family="Arial" font-size="12" font-weight="bold" id="id_7" x="63" y="475">T{Filter Element Status}</text>
 <svg atv:refpx="304.5" atv:refpy="515" height="30" id="id_8" transform="matrix(0.5625,0,0,1,0,0)" width="160" x="399.112" xlink:href="SYSTEM.LIBRARY.ATVISE.OBJECTDISPLAYS.Advanced.in_out_value" y="489">
  <atv:argument name="base" prefix="base" value=".Variables.Safety_Interlocks"/>
  <atv:argument name="fontSize" value="14"/>
  <atv:argument name="validation" value="Boolean"/>
  <atv:overwrite id="id_0" transform="matrix(1.7778,0,0,1,0,0)" width="90"/>
  <atv:overwrite id="input_label" transform="matrix(2.1751,0,0,1,6.9324,0)" x="63.055"/>
  <atv:overwrite id="blinking_frame" transform="matrix(1.7778,0,0,1,0,0)" width="82"/>
  <atv:overwrite id="focus_frame" transform="matrix(1.7778,0,0,1,0,0)" width="86"/>
  <atv:overwrite id="input_bg" transform="matrix(1.7778,0,0,1,0,0)" width="82"/>
  <atv:overwrite id="id_1" transform="matrix(1.7778,0,0,1,0,0)" width="88"/>
  <atv:overwrite id="input_border" transform="matrix(1.7778,0,0,1,0,0)" width="90"/>
 </svg>
 <text atv:refpx="60.16" atv:refpy="860.404" fill="#000000" font-family="Arial" font-size="12" font-weight="bold" id="id_9" x="220" y="475">T{Safety Interlocks}</text>
</svg>
