<!DOCTYPE svg PUBLIC '-//W3C//DTD SVG 1.1//EN' 'http://www.w3.org/Graphics/SVG/1.1/DTD/svg11.dtd'>
<svg enable-background="new 0 0 74.887 112.5" height="112.5" version="1.1" width="74.887" xml:space="preserve" xmlns="http://www.w3.org/2000/svg" xmlns:atv="http://webmi.atvise.com/2007/svgext" xmlns:xlink="http://www.w3.org/1999/xlink">
 <defs>
  <linearGradient gradientUnits="objectBoundingBox" id="SVGID_1_" x1="1.35578e-05" x2="0.999996" y1="0.500005" y2="0.500005">
   <stop offset="0" stop-color="#CCB299"/>
   <stop offset="1" stop-color="#E5D8CB"/>
  </linearGradient>
  <linearGradient gradientUnits="objectBoundingBox" id="SVGID_2_" x1="4.00341e-06" x2="1.00002" y1="0.499999" y2="0.499999">
   <stop offset="0" stop-color="#E5D8CB"/>
   <stop offset="1" stop-color="#CCB299"/>
  </linearGradient>
  <linearGradient gradientUnits="objectBoundingBox" id="SVGID_4_" x1="1.42353e-06" x2="0.999994" y1="0.500033" y2="0.500033">
   <stop offset="0" stop-color="#CCB299"/>
   <stop offset="0.5" stop-color="#E5D8CB"/>
   <stop offset="1" stop-color="#CCB299"/>
  </linearGradient>
  <linearGradient gradientUnits="objectBoundingBox" id="SVGID_5_" x1="4.57729e-06" x2="0.999991" y1="0.500012" y2="0.500012">
   <stop offset="0.01" stop-color="#996633"/>
   <stop offset="0.5" stop-color="#C2A386"/>
   <stop offset="1" stop-color="#996633"/>
  </linearGradient>
  <linearGradient gradientUnits="objectBoundingBox" id="SVGID_6_" x1="-3.20585e-06" x2="1.00001" y1="0.500013" y2="0.500013">
   <stop offset="0.01" stop-color="#B28C65"/>
   <stop offset="0.5" stop-color="#E5D8CB"/>
   <stop offset="1" stop-color="#B28C65"/>
  </linearGradient>
  <linearGradient gradientUnits="objectBoundingBox" id="SVGID_7_" x1="-3.17158e-05" x2="0.999968" y1="0.500019" y2="0.500019">
   <stop offset="0.06" stop-color="#808080"/>
   <stop offset="0.13" stop-color="#8D8D8D"/>
   <stop offset="0.28" stop-color="#B0B0B0"/>
   <stop offset="0.48" stop-color="#E8E8E8"/>
   <stop offset="0.48" stop-color="#EBEBEB"/>
   <stop offset="0.57" stop-color="#E0E0E0"/>
   <stop offset="0.72" stop-color="#C3C3C3"/>
   <stop offset="0.92" stop-color="#949494"/>
   <stop offset="1" stop-color="#808080"/>
  </linearGradient>
  <linearGradient gradientUnits="objectBoundingBox" id="SVGID_8_" x1="-2.1395e-05" x2="0.999936" y1="0.500019" y2="0.500019">
   <stop offset="0.06" stop-color="#808080"/>
   <stop offset="0.13" stop-color="#8D8D8D"/>
   <stop offset="0.28" stop-color="#B0B0B0"/>
   <stop offset="0.48" stop-color="#E8E8E8"/>
   <stop offset="0.48" stop-color="#EBEBEB"/>
   <stop offset="0.57" stop-color="#E0E0E0"/>
   <stop offset="0.72" stop-color="#C3C3C3"/>
   <stop offset="0.92" stop-color="#949494"/>
   <stop offset="1" stop-color="#808080"/>
  </linearGradient>
  <linearGradient gradientUnits="objectBoundingBox" id="SVGID_9_" x1="2.11416e-05" x2="1.00002" y1="0.500019" y2="0.500019">
   <stop offset="0.06" stop-color="#808080"/>
   <stop offset="0.13" stop-color="#8D8D8D"/>
   <stop offset="0.28" stop-color="#B0B0B0"/>
   <stop offset="0.48" stop-color="#E8E8E8"/>
   <stop offset="0.48" stop-color="#EBEBEB"/>
   <stop offset="0.57" stop-color="#E0E0E0"/>
   <stop offset="0.72" stop-color="#C3C3C3"/>
   <stop offset="0.92" stop-color="#949494"/>
   <stop offset="1" stop-color="#808080"/>
  </linearGradient>
  <radialGradient cx="0.500016" cy="0.499999" fx="0.500016" fy="0.499999" gradientUnits="objectBoundingBox" id="SVGID_3_" r="0.720188">
   <stop offset="0" stop-color="#E5D8CB"/>
   <stop offset="1" stop-color="#CCB299"/>
  </radialGradient>
 </defs>
 <metadata>
  <atv:gridconfig enabled="false" gridstyle="lines" height="20" width="20"/>
  <atv:snapconfig enabled="false" height="10" width="10"/>
 </metadata>
 <g atv:refpx="37.388" atv:refpy="56.697" id="Image_1">
  <g atv:refpx="37.388" atv:refpy="67.743" id="Group_Digester">
   <path atv:refpx="21.852" atv:refpy="71.449" d="M24.827,29.529C12.813,28.724 1.739,47.954 0.095,72.479C-1.065,89.782 2.783,105.086 9.366,112.89C9.751,112.801 10.163,112.749 10.611,112.749C11.592,112.749 12.405,113 13.088,113.393C13.665,113.155 14.291,113.037 14.944,113.083C18.387,113.331 21.78,113.088 25.198,113.335C25.865,112.969 26.666,112.749 27.611,112.749C28.53,112.749 29.314,112.958 29.971,113.307C37.077,106.119 42.498,91.972 43.609,75.395C45.251,50.869 36.843,30.334 24.827,29.529" fill="url(#SVGID_1_)" id="id_0"/>
   <path atv:refpx="52.925" atv:refpy="71.533" d="M46.3,112.767C46.507,112.693 46.721,112.631 46.948,112.595C52.602,111.725 57.969,112.975 63.61,112.749C64.348,112.72 64.998,112.83 65.566,113.039C72.053,105.179 75.832,89.978 74.681,72.812C73.038,48.288 61.965,29.058 49.95,29.863C37.935,30.668 29.526,51.203 31.169,75.729C32.259,91.993 37.496,105.917 44.403,113.227C44.949,112.965 45.584,112.805 46.3,112.767" fill="url(#SVGID_2_)" id="id_1"/>
   <ellipse atv:refpx="37.276" atv:refpy="67.297" cx="37.276" cy="67.297" fill="url(#SVGID_3_)" id="id_2" rx="34.667" ry="45.203"/>
   <path atv:refpx="37.485" atv:refpy="109.41" d="M72.459,112.485L2.361,112.485L5.518,106.335L68.953,106.335C70.444,108.288 71.565,110.24 72.609,112.196Z" fill="url(#SVGID_4_)" id="id_3" stroke="#4C4C4C" stroke-width="0.1"/>
  </g>
  <g atv:refpx="37.388" atv:refpy="19.933" id="Group_BottleNeck">
   <path atv:refpx="37.388" atv:refpy="19.933" d="M26.464,15.653L48.311,15.653L48.311,24.212L26.464,24.212Z" fill="url(#SVGID_5_)" id="id_4"/>
  </g>
  <g atv:refpx="37.444" atv:refpy="7.827" id="Group_Cap">
   <path atv:refpx="37.444" atv:refpy="7.827" d="M21.847,0L21.847,15.653L53.04,15.653L53.04,0Z" fill="url(#SVGID_6_)" id="id_5"/>
  </g>
  <g atv:refpx="37.388" atv:refpy="7.433" id="Group_Friction">
   <path atv:refpx="27.252" atv:refpy="7.433" d="M22.523,4.73L31.982,4.73L31.982,10.135L22.523,10.135Z" fill="url(#SVGID_7_)" id="id_6" stroke="#4C4C4C" stroke-width="0.25"/>
   <path atv:refpx="37.444" atv:refpy="7.433" d="M32.77,4.73L42.118,4.73L42.118,10.135L32.77,10.135Z" fill="url(#SVGID_8_)" id="id_7" stroke="#4C4C4C" stroke-width="0.25"/>
   <path atv:refpx="47.522" atv:refpy="7.433" d="M42.792,4.73L52.252,4.73L52.252,10.135L42.792,10.135Z" fill="url(#SVGID_9_)" id="id_8" stroke="#4C4C4C" stroke-width="0.25"/>
  </g>
 </g>
</svg>
