<?xml version='1.0' encoding='UTF-8' standalone='no'?>
<svg height="204" version="1.2" width="210.08000000000001" xmlns="http://www.w3.org/2000/svg" xmlns:atv="http://webmi.atvise.com/2007/svgext" xmlns:xlink="http://www.w3.org/1999/xlink">
 <desc>From Base Object v1.3</desc>
 <defs>
  <linearGradient gradientUnits="objectBoundingBox" id="id_33_fill_gradient" spreadMethod="reflect" x1="0.0675676" x2="0.581081" y1="1" y2="1">
   <stop offset="0" stop-color="#999999"/>
   <stop offset="1" stop-color="#e5e5e5"/>
  </linearGradient>
  <linearGradient gradientUnits="objectBoundingBox" id="id_34_fill_gradient" spreadMethod="reflect" x1="-0.135135" x2="0.405405" y1="0.986486" y2="0.972973">
   <stop offset="0" stop-color="#999999"/>
   <stop offset="1" stop-color="#e5e5e5"/>
  </linearGradient>
  <linearGradient gradientUnits="objectBoundingBox" id="id_41_fill_gradient" spreadMethod="reflect" x1="-0.135135" x2="0.405405" y1="1" y2="0.972973">
   <stop offset="0" stop-color="#999999"/>
   <stop offset="1" stop-color="#e5e5e5"/>
  </linearGradient>
  <linearGradient gradientUnits="objectBoundingBox" id="id_42_fill_gradient" spreadMethod="reflect" x1="-0.135135" x2="0.405405" y1="0.986486" y2="0.972973">
   <stop offset="0" stop-color="#999999"/>
   <stop offset="1" stop-color="#e5e5e5"/>
  </linearGradient>
  <radialGradient cx="0.5" cy="0.5" fx="0.5" fy="0.5" gradientUnits="objectBoundingBox" id="id_42_stroke_gradient" r="1">
   <stop offset="0" stop-color="#000000"/>
   <stop offset="1" stop-color="#ffffff"/>
  </radialGradient>
  <linearGradient gradientUnits="objectBoundingBox" id="id_43_fill_gradient" spreadMethod="reflect" x1="-0.135135" x2="0.405405" y1="1" y2="0.972973">
   <stop offset="0" stop-color="#999999"/>
   <stop offset="1" stop-color="#e5e5e5"/>
  </linearGradient>
  <radialGradient cx="0.5" cy="0.5" fx="0.5" fy="0.5" gradientUnits="objectBoundingBox" id="id_44_fill_gradient" r="0.514579">
   <stop offset="0.6088709677419355" stop-color="#e4e4e4"/>
   <stop offset="1" stop-color="#9a9a9a"/>
  </radialGradient>
  <radialGradient cx="0.5" cy="0.5" fx="0.5" fy="0.5" gradientUnits="objectBoundingBox" id="id_7_fill_gradient" r="0.514579">
   <stop offset="0.6088709677419355" stop-color="#e4e4e4"/>
   <stop offset="1" stop-color="#9a9a9a"/>
  </radialGradient>
  <linearGradient gradientUnits="objectBoundingBox" id="linear_0" x1="0" x2="1" y1="0" y2="1">
   <stop offset="0" stop-color="#000000"/>
   <stop offset="1" stop-color="#000000" stop-opacity="0"/>
  </linearGradient>
  <radialGradient cx="0.500001" cy="0.499998" fx="0.500001" fy="0.499998" gradientUnits="objectBoundingBox" id="SVGID_1_" r="0.500001">
   <stop offset="0.01" stop-color="#4D4D4D"/>
   <stop offset="0.92" stop-color="#F5F5F5"/>
   <stop offset="1" stop-color="#7A7A7A"/>
  </radialGradient>
  <linearGradient gradientUnits="objectBoundingBox" id="SVGID_2_" x1="0.962748" x2="0.0389691" y1="0.96104" y2="0.0372706">
   <stop offset="0" stop-color="#737373"/>
   <stop offset="1" stop-color="#CCCCCC"/>
  </linearGradient>
 </defs>
 <metadata>
  <atv:parameter behavior="optional" defaultvalue="SYSTEM.GLOBALS.Color_Global_1" desc="Color" name="Color" substitute="$Color$" valuetype="global"/>
  <atv:parameter behavior="optional" defaultvalue="SYSTEM.GLOBALS.Maintenance_Power_Meter" desc="Global Maintenance" name="Global_Maintenance" valuetype="global"/>
  <atv:gridconfig enabled="true" gridstyle="lines" height="20" width="20"/>
  <atv:snapconfig enabled="true" height="1" width="1"/>
 </metadata>
 <text atv:refpx="110.738" atv:refpy="11.5" fill="$Color$" font-family="Arial" font-size="14" font-weight="bold" id="Title" x="89.5" y="17">Name</text>
 <polygon atv:refpx="63.671" atv:refpy="44.035" fill="#fdf90a" id="alert_increasing" points="51.67,56.034 75.67,56.034 63.002,32.034" stroke="#000000" stroke-width="1"/>
 <g atv:refpx="24.062" atv:refpy="174.062" id="maintenance" transform="matrix(1,0,0,1,-0.5819,19.4175)">
  <rect atv:refpx="46.171" atv:refpy="204.643" fill="#2b9de8" height="24.544" id="id_39" stroke="#000000" stroke-width="1" transform="matrix(0.7071,-0.7071,0.7071,0.7071,0,0)" width="24.544" x="-104.196" y="114.505"/>
  <text atv:refpx="28" atv:refpy="149.5" fill="#000000" font-family="Arial" font-size="14" id="id_40" x="18.5" y="160">M</text>
 </g>
 <polygon atv:refpx="11.207" atv:refpy="46.619" fill="#fdbf21" id="alert_decreasing" points="25.872,34.618 1.87,34.618 14.536,58.619" stroke="#000000" stroke-width="1"/>
 <text atv:refpx="64.671" atv:refpy="48.535" fill="#000000" font-family="Arial" font-size="14" font-weight="bold" id="alertC_text" text-anchor="end" x="66.171" y="53.035">1</text>
 <text atv:refpx="14.459" atv:refpy="43.617" fill="#000000" font-family="Arial" font-size="14" font-weight="bold" id="alertD_text" x="10.959" y="48.117">1</text>
 <rect atv:refpx="9.088" atv:refpy="-51.533" fill="#93060a" fill-opacity="0" height="42" id="click_area_alertC" stroke="none" stroke-width="0" width="28" x="50" y="17"/>
 <rect atv:refpx="14" atv:refpy="49" fill="#93060a" fill-opacity="0" height="42" id="click_area_alertD" stroke="none" stroke-width="0" width="28" x="0" y="30"/>
 <polygon atv:refpx="60.419" atv:refpy="87.537" fill="#fdf90a" id="alert_increasing_min" points="75.084,75.535 51.081,75.535 63.747,99.535" stroke="#000000" stroke-width="1"/>
 <text atv:refpx="63.671" atv:refpy="84.535" fill="#000000" font-family="Arial" font-size="14" font-weight="bold" id="alertC_text_min" x="60.171" y="89.035">1</text>
 <polygon atv:refpx="14.459" atv:refpy="87.117" fill="#fdbf21" id="alert_decreasing_min" points="2.457,99.117 26.458,99.117 13.789,75.117" stroke="#000000" stroke-width="1"/>
 <text atv:refpx="15" atv:refpy="91.5" fill="#000000" font-family="Arial" font-size="14" font-weight="bold" id="alertD_text_min" text-anchor="end" x="16.5" y="96">1</text>
 <rect atv:refpx="-40.912" atv:refpy="-7.533" fill="#93060a" fill-opacity="0" height="42" id="click_area_alertD_min" stroke="none" stroke-width="0" width="28" x="0" y="61"/>
 <g atv:refpx="36.5" atv:refpy="67" id="Ind_Bar" transform="matrix(1,0,0,1,-2,-2)">
  <rect atv:refpx="38.5" atv:refpy="69" fill="#626262" height="77.366" id="Barra_Ind2" rx="7" ry="7" stroke="#000000" stroke-width="1" width="14" x="31.5" y="30.317"/>
  <path atv:refpx="38.496" atv:refpy="36.976" d="M31.826,43.257L45.178,43.257L45.08,36.1C45.08,36.1 44.046,30.754 38.676,30.694C33.305,30.633 31.876,35.603 31.876,35.603C31.876,35.603 31.777,43.318 31.826,43.257" fill="#b5b5b5" id="id_19" stroke="#000000" stroke-width="0"/>
  <path atv:refpx="38.533" atv:refpy="100.982" d="M45.204,94.701L31.852,94.701L31.95,101.858C31.95,101.858 32.985,107.205 38.355,107.265C43.726,107.324 45.154,102.356 45.154,102.356C45.154,102.356 45.252,94.641 45.204,94.701" fill="#b5b5b5" id="id_20" stroke="#000000" stroke-width="0"/>
 </g>
 <rect atv:refpx="49.396" atv:refpy="20.211" fill="#bd070d" height="23" id="alarm_square" rx="1.855" ry="1.987" stroke="#000000" stroke-width="1" text-anchor="middle" width="23" x="37.446" y="8.085"/>
 <text atv:refpx="-20.554" atv:refpy="-5.2" fill="#000000" font-family="Arial" font-size="14" font-weight="bold" id="alarm_text" text-anchor="middle" x="48.946" y="24.586">1</text>
 <rect atv:refpx="-3.405" atv:refpy="-43.69" fill="#93060a" fill-opacity="0" height="28" id="click_area_alarm" stroke="none" stroke-width="0" width="28" x="34.879" y="5.516"/>
 <rect atv:refpx="49.102" atv:refpy="114.645" fill="#bd070d" height="23" id="alarm_square_min" rx="1.855" ry="1.987" stroke="#000000" stroke-width="1" text-anchor="middle" width="23" x="37.152" y="102.519"/>
 <text atv:refpx="-20.848" atv:refpy="89.234" fill="#000000" font-family="Arial" font-size="14" font-weight="bold" id="alarm_text_min" text-anchor="middle" x="48.652" y="119.02">1</text>
 <rect atv:refpx="-3.983" atv:refpy="51.028" fill="#93060a" fill-opacity="0" height="28" id="click_area_alarm_min" stroke="none" stroke-width="0" width="28" x="34.301" y="100.234"/>
 <rect atv:refpx="63" atv:refpy="90" fill="#93060a" fill-opacity="0" height="42" id="click_area_alertC_min" stroke="none" stroke-width="0" width="28" x="49" y="71"/>
 <g atv:refpx="147.54" atv:refpy="114.458" id="Image1">
  <path atv:refpx="147.54" atv:refpy="121.984" d="M86,202.915L86,41.052L209.079,41.052L209.079,202.915Z" fill="#c7c7c7" id="id_0" stroke="#4c4c4c" stroke-width="2"/>
  <path atv:refpx="147.717" atv:refpy="185.561" d="M101.584,195.123L101.584,175.997L193.849,175.997L193.849,195.123Z" fill="#b2b2b2" id="id_1"/>
  <path atv:refpx="147.628" atv:refpy="185.561" d="M105.303,191.227L105.303,179.893L189.953,179.893L189.953,191.227Z" fill="#7f7f7f" id="id_2"/>
  <path atv:refpx="147.54" atv:refpy="33.526" d="M109.199,41.052L109.199,26L185.88,26L185.88,41.052Z" fill="#3e3e3e" id="id_3" stroke="#4c4c4c" stroke-width="2"/>
  <path atv:refpx="147.628" atv:refpy="75.94" d="M109.199,91.347L109.199,60.533L186.057,60.533L186.057,91.347Z" fill="#7f7f7f" id="id_4"/>
  <path atv:refpx="147.451" atv:refpy="108.525" d="M124.429,118.265L124.429,98.785L170.473,98.785L170.473,118.265Z" fill="#007f7f" id="id_5"/>
  <g atv:refpx="160.421" atv:refpy="144.403" id="Group_Down" transform="matrix(1.0003,0,0,1.0003,94.6335,94.8371)">
   <path atv:refpx="65.766" atv:refpy="49.549" d="M57.658,45.833L73.874,45.833L65.765,53.265Z" fill="#595959" id="id_11" stroke="#4C4C4C" stroke-width="0.1"/>
   <path atv:refpx="67.266" atv:refpy="48.799" d="M61.186,46.012L73.347,46.012L67.265,51.586Z" fill="#C2C2C2" id="id_12" stroke="#4C4C4C" stroke-width="0.1"/>
  </g>
  <g atv:refpx="178.613" atv:refpy="144.404" id="Group_Up" transform="matrix(1.0003,0,0,1.0003,94.6335,94.8371)">
   <path atv:refpx="83.953" atv:refpy="49.55" d="M92.117,53.266L75.788,53.266L83.896,45.833Z" fill="#595959" id="id_13" stroke="#4C4C4C" stroke-width="0.1"/>
   <path atv:refpx="84.017" atv:refpy="49.049" d="M90.097,51.836L77.936,51.836L84.017,46.262Z" fill="#C2C2C2" id="id_14" stroke="#4C4C4C" stroke-width="0.1"/>
  </g>
  <g atv:refpx="139.692" atv:refpy="144.423" id="Group_Minus" transform="matrix(1.0003,0,0,1.0003,94.6335,94.8371)">
   <path atv:refpx="45.044" atv:refpy="49.662" d="M37.049,50.788L37.049,48.535L53.04,48.535L53.04,50.788Z" fill="#595959" id="id_15" stroke="#4C4C4C" stroke-width="0.1"/>
   <path atv:refpx="45.025" atv:refpy="49.037" d="M37.299,49.724L37.299,48.351L52.75,48.351L52.75,49.724Z" fill="#A7A7A7" id="id_16" stroke="#4C4C4C" stroke-width="0.1"/>
  </g>
  <g atv:refpx="120.15" atv:refpy="144.404" id="Group_Plus" transform="matrix(1.0003,0,0,1.0003,94.6335,94.8371)">
   <path atv:refpx="25.507" atv:refpy="49.55" d="M18.356,50.563L18.356,48.536L24.549,48.536L24.549,42.455L26.464,42.455L26.464,48.536L32.658,48.536L32.658,50.563L26.464,50.563L26.464,56.644L24.549,56.644L24.549,50.563Z" fill="#595959" id="id_17" stroke="#4C4C4C" stroke-width="0.1"/>
   <path atv:refpx="25.83" atv:refpy="49.125" d="M19,50.071L19,48.178L24.914,48.178L24.914,42.5L26.743,42.5L26.743,48.178L32.659,48.178L32.659,50.071L26.743,50.071L26.743,55.75L24.914,55.75L24.914,50.071Z" fill="#B3B3B3" id="id_18" stroke="#4C4C4C" stroke-width="0.1"/>
  </g>
 </g>
 <script atv:desc="" atv:href="SYSTEM.LIBRARY.PROJECT.DISPLAYSCRIPTS.atvise_Advanced_Objects_Display_Scripts.AAA_Principal_Display_Script" atv:name="" atv:type="text/ecmascript"/>
 <script atv:desc="" atv:name="" type="text/ecmascript"/>
 <rect atv:refpx="146" atv:refpy="102" fill="#000000" fill-opacity="0" height="204" id="click_area" stroke="#0000ff" stroke-width="0" width="128" x="82" y="0"/>
</svg>
