<!DOCTYPE svg PUBLIC '-//W3C//DTD SVG 20000303 Stylable//EN' 'http://www.w3.org/TR/2000/03/WD-SVG-20000303/DTD/svg-20000303-stylable.dtd'>
<svg height="999" width="345" xmlns="http://www.w3.org/2000/svg" xmlns:atv="http://webmi.atvise.com/2007/svgext" xmlns:xlink="http://www.w3.org/1999/xlink">
 <defs/>
 <metadata>
  <atv:gridconfig enabled="false" gridstyle="lines" height="20" width="20"/>
  <atv:snapconfig enabled="false" height="10" width="10"/>
 </metadata>
 <g atv:refpx="172.013" atv:refpy="499.511" id="Image_1">
  <path atv:refpx="82" atv:refpy="290" d="M42,271L113,259L122,311L50,321Z" fill="#4c4c4c" id="id_0"/>
  <path atv:refpx="264" atv:refpy="290" d="M231,259L303,271L295,321L225,311Z" fill="#4c4c4c" id="id_1"/>
  <path atv:refpx="82" atv:refpy="291" d="M46,269L109,261L118,311L54,321Z" fill="#545454" id="id_2"/>
  <path atv:refpx="264" atv:refpy="291" d="M237,261L299,269L291,321L229,311Z" fill="#545454" id="id_3"/>
  <path atv:refpx="81.5" atv:refpy="290" d="M50,269L105,261L113,311L58,319Z" fill="#5c5c5c" id="id_4"/>
  <path atv:refpx="264" atv:refpy="290" d="M241,261L295,269L289,319L233,311Z" fill="#5c5c5c" id="id_5"/>
  <path atv:refpx="81.5" atv:refpy="290" d="M54,269L101,261L109,313L62,319Z" fill="#636363" id="id_6"/>
  <path atv:refpx="264" atv:refpy="290" d="M245,261L291,269L283,319L237,313Z" fill="#636363" id="id_7"/>
  <path atv:refpx="81.5" atv:refpy="290" d="M58,267L97,261L105,313L65,319Z" fill="#6b6b6b" id="id_8"/>
  <path atv:refpx="264" atv:refpy="290" d="M249,261L287,267L279,319L241,313Z" fill="#6b6b6b" id="id_9"/>
  <path atv:refpx="81.5" atv:refpy="290" d="M62,267L93,263L101,313L69,317Z" fill="#757575" id="id_10"/>
  <path atv:refpx="264" atv:refpy="290" d="M253,263L283,267L277,317L245,313Z" fill="#757575" id="id_11"/>
  <path atv:refpx="81" atv:refpy="290" d="M65,267L89,263L97,313L73,317Z" fill="#7d7d7d" id="id_12"/>
  <path atv:refpx="264" atv:refpy="290" d="M257,263L279,267L273,317L249,313Z" fill="#7d7d7d" id="id_13"/>
  <path atv:refpx="81" atv:refpy="290" d="M69,267L85,263L93,315L77,317Z" fill="#858585" id="id_14"/>
  <path atv:refpx="264" atv:refpy="290" d="M261,263L275,267L269,317L253,315Z" fill="#858585" id="id_15"/>
  <path atv:refpx="264" atv:refpy="291" d="M263,265L271,265L265,317L257,315Z" fill="#8c8c8c" id="id_16"/>
  <path atv:refpx="81" atv:refpy="291" d="M73,265L81,265L89,315L81,317Z" fill="#8c8c8c" id="id_17"/>
  <path atv:refpx="56.5" atv:refpy="134.5" d="M0,63L25,59L24,50L39,47L35,28L32,28L28,4L47,0L51,25L47,25L50,47L65,43L65,54L92,50L93,65L80,67L80,77L96,75L97,92L84,93L84,103L99,101L101,115L85,119L88,129L103,127L105,141L89,143L92,153L107,151L109,167L93,169L96,179L111,177L113,193L97,195L107,261L47,269L37,203L21,207L20,191L35,189L33,179L17,181L16,165L32,163L29,153L13,155L12,141L28,137L25,127L9,129L8,115L24,113L21,101L5,105L4,89L20,88L17,77L4,80Z" fill="#999" id="id_18"/>
  <path atv:refpx="288" atv:refpy="134.5" d="M253,50L279,54L281,43L295,46L299,25L293,25L297,0L317,4L315,28L309,28L305,47L321,50L319,59L345,63L343,80L327,77L325,88L341,89L339,105L323,101L321,113L337,115L335,129L319,127L319,137L333,141L331,155L315,153L315,163L329,165L327,181L311,179L311,189L325,191L323,207L309,203L297,269L237,261L247,195L231,193L235,177L249,179L251,169L235,167L239,151L253,153L255,143L239,141L243,127L257,129L259,119L243,115L245,101L261,103L263,93L247,92L249,75L265,77L267,67L251,65Z" fill="#999" id="id_19" stroke="#4c4c4c" stroke-width="2"/>
  <path atv:refpx="57.5" atv:refpy="134.5" d="M8,63L29,59L28,50L39,47L37,28L33,28L29,1L47,0L50,25L46,25L50,46L62,43L63,54L85,51L88,65L75,67L75,77L89,75L92,92L77,93L80,103L93,101L96,118L81,119L84,129L97,127L99,141L85,143L88,155L101,153L103,167L89,169L92,179L103,177L107,193L93,195L103,261L51,269L42,203L29,205L28,189L39,187L37,177L25,179L24,165L35,163L33,151L21,153L20,139L32,137L29,127L17,129L16,113L28,111L28,101L13,103L12,88L24,85L24,75L9,77Z" fill="#a8a8a8" id="id_20"/>
  <path atv:refpx="289" atv:refpy="134.5" d="M261,51L283,54L283,43L297,46L299,25L295,25L299,0L317,1L313,28L309,28L305,47L319,50L317,59L339,63L337,77L323,75L321,85L335,88L333,103L319,101L317,111L331,113L329,129L315,127L313,137L327,139L325,153L311,151L311,163L323,165L321,179L307,177L307,187L319,189L317,205L303,203L295,269L243,261L253,195L239,193L241,177L255,179L255,169L243,167L245,153L259,155L259,145L247,143L249,127L263,129L263,119L251,118L253,101L267,103L267,93L255,92L257,75L269,77L271,67L259,65Z" fill="#a8a8a8" id="id_21"/>
  <path atv:refpx="56" atv:refpy="133.5" d="M13,62L32,59L32,50L42,47L37,28L35,28L32,1L46,0L50,25L46,25L50,46L59,46L62,55L77,51L81,67L69,69L71,80L81,77L84,93L73,93L75,103L85,103L88,118L77,119L80,129L89,127L92,143L81,145L84,155L93,153L96,169L85,171L88,181L97,179L99,195L89,195L99,261L55,267L47,201L35,203L33,189L43,187L43,177L32,179L29,163L39,161L39,151L28,153L25,137L37,137L35,125L24,127L21,111L33,111L32,101L21,101L17,88L29,85L28,75L17,77Z" fill="#b8b8b8" id="id_22"/>
  <path atv:refpx="289" atv:refpy="133.5" d="M267,51L285,55L287,46L297,47L301,25L297,25L301,0L315,1L311,28L307,28L305,47L315,50L315,59L331,62L329,77L319,75L317,85L327,88L325,101L315,101L313,111L323,113L321,127L311,125L309,137L321,137L317,153L307,151L305,161L317,163L313,179L303,177L301,187L313,189L311,203L299,201L289,267L247,261L257,195L247,195L247,179L259,181L261,171L249,169L253,153L263,155L265,145L253,143L255,127L267,129L269,119L257,118L259,103L271,103L271,95L261,93L263,77L275,80L275,69L265,67Z" fill="#b8b8b8" id="id_23"/>
  <path atv:refpx="58.5" atv:refpy="133.5" d="M21,62L35,59L33,47L42,47L39,28L35,28L32,1L43,0L47,25L46,25L47,47L55,46L58,55L71,54L73,67L65,69L67,80L75,77L77,93L69,95L71,105L80,103L81,119L73,119L75,131L84,129L85,145L77,145L77,155L88,155L89,169L81,171L81,181L92,179L93,195L85,197L96,263L62,267L51,201L43,203L39,187L50,187L47,175L39,177L35,161L46,161L43,151L35,151L33,137L42,135L39,125L32,127L29,111L37,109L35,99L28,101L25,85L33,85L32,75L24,75Z" fill="#c4c4c4" id="id_24"/>
  <path atv:refpx="288" atv:refpy="133.5" d="M275,54L289,55L289,46L299,47L301,25L299,25L303,0L313,1L309,28L307,28L303,47L313,47L311,59L325,62L323,75L315,75L313,85L321,85L319,101L311,99L309,109L317,111L315,127L307,125L305,135L313,137L311,151L303,151L301,161L309,163L307,177L299,175L297,187L305,187L303,203L295,201L285,267L251,263L261,197L253,195L255,179L263,181L265,171L257,169L259,155L267,155L269,145L261,145L263,129L271,131L273,122L265,119L267,103L275,105L277,95L269,93L271,77L279,80L281,69L271,67Z" fill="#c4c4c4" id="id_25"/>
  <path atv:refpx="58.5" atv:refpy="133.5" d="M28,59L37,58L35,47L43,47L39,25L37,28L33,1L42,0L46,25L43,25L47,47L54,46L54,55L65,54L67,69L62,69L63,80L69,80L71,95L65,95L67,105L73,105L75,119L69,122L69,131L77,129L80,145L73,145L73,157L80,155L84,171L77,171L77,181L84,181L88,195L80,197L89,263L65,267L55,201L50,201L47,187L54,185L51,175L46,177L43,161L50,161L47,149L42,151L39,135L46,135L43,125L37,125L35,109L42,109L39,99L33,99L32,85L37,84L35,73L29,75Z" fill="#d4d4d4" id="id_26"/>
  <path atv:refpx="287" atv:refpy="133.5" d="M281,54L291,55L293,46L299,47L301,25L299,25L303,0L313,1L309,28L307,28L303,47L309,47L307,58L319,59L317,75L309,73L309,84L315,85L313,99L305,99L305,109L311,111L309,125L301,125L301,135L307,135L305,151L299,149L297,161L303,161L301,177L295,175L293,185L299,187L297,201L291,201L281,267L255,263L265,197L259,195L261,181L269,181L269,171L263,171L265,155L271,157L273,145L267,145L269,131L275,131L277,122L271,119L273,105L279,105L281,95L275,95L277,80L283,80L285,71L279,69Z" fill="#d4d4d4" id="id_27"/>
  <path atv:refpx="60" atv:refpy="133.5" d="M35,59L42,58L39,47L43,47L42,25L39,28L35,1L42,0L46,25L43,25L46,47L50,46L51,55L58,55L59,69L55,71L58,81L62,80L63,95L59,95L62,105L65,105L67,122L63,122L65,131L69,131L71,145L67,147L69,157L73,157L75,171L71,173L73,183L77,181L80,197L75,197L85,263L69,267L59,199L55,201L54,185L58,185L55,175L54,175L50,159L54,159L54,149L50,149L46,135L50,133L50,123L46,123L42,109L46,109L46,99L42,99L39,84L43,84L42,73L37,73Z" fill="#e3e3e3" id="id_28"/>
  <path atv:refpx="286" atv:refpy="134" d="M289,55L295,55L297,46L299,47L303,25L301,25L305,1L311,1L307,28L305,25L303,47L307,47L305,58L311,59L309,73L305,73L303,84L307,84L305,99L301,99L299,109L303,109L301,125L297,123L297,135L299,135L297,149L293,149L293,159L297,161L293,175L289,175L289,185L293,185L289,201L285,199L275,267L261,263L271,197L267,197L269,181L273,183L275,173L271,171L273,157L277,157L277,147L275,145L277,131L281,131L281,122L277,122L281,105L285,105L285,97L283,95L285,81L289,81L289,71L285,71Z" fill="#e3e3e3" id="id_29"/>
  <path atv:refpx="287" atv:refpy="133" d="M295,55L297,58L299,47L301,47L303,25L307,1L309,1L305,28L301,47L303,47L301,58L305,58L301,73L299,84L301,84L297,97L295,107L297,109L295,123L293,123L291,133L293,133L291,149L289,149L287,159L289,159L287,175L285,175L283,185L285,185L283,199L281,199L271,265L265,265L275,199L273,199L275,183L277,183L279,173L277,173L279,157L281,159L283,147L281,147L283,133L285,133L287,123L285,122L287,107L289,107L291,97L289,97L291,81L293,81L293,71Z" fill="#f2f2f2" id="id_30"/>
  <path atv:refpx="59" atv:refpy="133" d="M42,58L43,58L42,47L43,47L42,28L37,1L39,1L43,25L42,25L46,47L47,47L50,58L51,55L54,71L51,71L54,81L55,81L58,97L55,97L58,107L59,107L62,122L59,123L62,133L63,133L65,147L63,147L65,157L67,157L69,173L67,173L69,183L73,199L71,199L81,265L75,265L63,199L62,185L62,175L59,175L58,159L58,149L55,149L54,133L54,123L51,123L50,109L51,107L50,97L47,97L46,84L47,84L46,73L43,73Z" fill="#f2f2f2" id="id_31"/>
  <path atv:refpx="299" atv:refpy="56.5" d="M279,54L319,59" fill="none" id="id_32" stroke="#4c4c4c" stroke-width="2"/>
  <path atv:refpx="297" atv:refpy="72" d="M327,77L267,67" fill="none" id="id_33" stroke="#4c4c4c" stroke-width="2"/>
  <path atv:refpx="295" atv:refpy="82.5" d="M265,77L325,88" fill="none" id="id_34" stroke="#4c4c4c" stroke-width="2"/>
  <path atv:refpx="293" atv:refpy="97" d="M323,101L263,93" fill="none" id="id_35" stroke="#4c4c4c" stroke-width="2"/>
  <path atv:refpx="291" atv:refpy="108" d="M261,103L321,113" fill="none" id="id_36" stroke="#4c4c4c" stroke-width="2"/>
  <path atv:refpx="289" atv:refpy="123" d="M319,127L259,119" fill="none" id="id_37" stroke="#4c4c4c" stroke-width="2"/>
  <path atv:refpx="285" atv:refpy="148" d="M315,153L255,143" fill="none" id="id_38" stroke="#4c4c4c" stroke-width="2"/>
  <path atv:refpx="284" atv:refpy="158" d="M253,153L315,163" fill="none" id="id_39" stroke="#4c4c4c" stroke-width="2"/>
  <path atv:refpx="282" atv:refpy="173" d="M313,177L251,169" fill="none" id="id_40" stroke="#4c4c4c" stroke-width="2"/>
  <path atv:refpx="280" atv:refpy="183" d="M249,179L311,187" fill="none" id="id_41" stroke="#4c4c4c" stroke-width="2"/>
  <path atv:refpx="278" atv:refpy="199" d="M309,203L247,195" fill="none" id="id_42" stroke="#4c4c4c" stroke-width="2"/>
  <path atv:refpx="288" atv:refpy="133" d="M257,129L319,137" fill="none" id="id_43" stroke="#4c4c4c" stroke-width="2"/>
  <path atv:refpx="300" atv:refpy="46.5" d="M295,46L305,47" fill="none" id="id_44" stroke="#4c4c4c" stroke-width="2"/>
  <path atv:refpx="304" atv:refpy="26.5" d="M309,28L299,25" fill="none" id="id_45" stroke="#4c4c4c" stroke-width="2"/>
  <path atv:refpx="56.5" atv:refpy="134.5" d="M0,63L25,59L24,50L39,47L35,28L32,28L28,4L47,0L51,25L47,25L50,47L65,43L65,54L92,50L93,65L80,67L80,77L96,75L97,92L84,93L84,103L99,101L101,115L85,119L88,129L103,127L105,141L89,143L92,153L107,151L109,167L93,169L96,179L111,177L113,193L97,195L107,261L47,269L37,203L21,207L20,191L35,189L33,179L17,181L16,165L32,163L29,153L13,155L12,141L28,137L25,127L9,129L8,115L24,113L21,101L5,105L4,89L20,88L17,77L4,80Z" fill="none" id="id_46" stroke="#4c4c4c" stroke-width="2"/>
  <path atv:refpx="45" atv:refpy="56.5" d="M25,59L65,54" fill="none" id="id_47" stroke="#4c4c4c" stroke-width="2"/>
  <path atv:refpx="48.5" atv:refpy="72" d="M80,67L17,77" fill="none" id="id_48" stroke="#4c4c4c" stroke-width="2"/>
  <path atv:refpx="50" atv:refpy="82.5" d="M20,88L80,77" fill="none" id="id_49" stroke="#4c4c4c" stroke-width="2"/>
  <path atv:refpx="52.5" atv:refpy="97" d="M84,93L21,101" fill="none" id="id_50" stroke="#4c4c4c" stroke-width="2"/>
  <path atv:refpx="54" atv:refpy="108" d="M24,113L84,103" fill="none" id="id_51" stroke="#4c4c4c" stroke-width="2"/>
  <path atv:refpx="55" atv:refpy="123" d="M85,119L25,127" fill="none" id="id_52" stroke="#4c4c4c" stroke-width="2"/>
  <path atv:refpx="59" atv:refpy="148" d="M89,143L29,153" fill="none" id="id_53" stroke="#4c4c4c" stroke-width="2"/>
  <path atv:refpx="62" atv:refpy="158" d="M32,163L92,153" fill="none" id="id_54" stroke="#4c4c4c" stroke-width="2"/>
  <path atv:refpx="63" atv:refpy="173" d="M93,169L33,177" fill="none" id="id_55" stroke="#4c4c4c" stroke-width="2"/>
  <path atv:refpx="65.5" atv:refpy="183" d="M35,187L96,179" fill="none" id="id_56" stroke="#4c4c4c" stroke-width="2"/>
  <path atv:refpx="67" atv:refpy="199" d="M97,195L37,203" fill="none" id="id_57" stroke="#4c4c4c" stroke-width="2"/>
  <path atv:refpx="58" atv:refpy="133" d="M28,137L88,129" fill="none" id="id_58" stroke="#4c4c4c" stroke-width="2"/>
  <path atv:refpx="44.5" atv:refpy="47.5" d="M39,47L50,47" fill="none" id="id_59" stroke="#4c4c4c" stroke-width="2"/>
  <path atv:refpx="41" atv:refpy="26.5" d="M47,25L35,28" fill="none" id="id_60" stroke="#4c4c4c" stroke-width="2"/>
  <path atv:refpx="264" atv:refpy="290" d="M231,259L303,271L295,321L225,311Z" fill="none" id="id_61" stroke="#4c4c4c" stroke-width="2"/>
  <path atv:refpx="82" atv:refpy="290" d="M42,271L113,259L122,311L50,321Z" fill="none" id="id_62" stroke="#4c4c4c" stroke-width="2"/>
  <path atv:refpx="173.5" atv:refpy="650" d="M295,321L295,387L327,387L327,403L295,403L295,999L50,999L50,659L50,403L20,403L20,387L50,387L50,321L50,317L58,313L73,309L96,305L123,301L155,301L187,301L219,301L247,305L271,309L287,313L295,317Z" fill="#b2b2b2" id="id_63"/>
  <path atv:refpx="173" atv:refpy="649" d="M281,321L281,387L309,387L309,403L281,403L281,999L63,999L63,403L37,403L37,387L63,387L63,321L63,317L71,313L85,307L105,305L129,301L157,299L187,299L213,301L239,305L259,307L273,313L281,317Z" fill="#bababa" id="id_64"/>
  <path atv:refpx="173" atv:refpy="649" d="M267,321L267,387L291,387L291,403L267,403L267,999L77,999L77,403L55,403L55,387L77,387L77,321L77,317L84,313L97,307L113,305L135,301L159,299L185,299L209,301L229,305L247,307L259,313L267,317Z" fill="#c2c2c2" id="id_65"/>
  <path atv:refpx="173" atv:refpy="649" d="M253,321L253,387L273,387L273,403L251,403L251,999L92,999L92,403L73,403L73,387L92,387L92,321L92,317L97,313L107,307L123,305L141,301L161,299L183,299L203,301L221,305L237,307L247,313L251,317Z" fill="#c9c9c9" id="id_66"/>
  <path atv:refpx="173.5" atv:refpy="649" d="M239,321L239,387L255,387L255,403L237,403L237,999L107,999L107,403L92,403L92,387L107,387L107,321L107,317L111,313L119,307L131,305L147,301L163,299L181,299L197,301L213,305L225,307L233,313L237,317Z" fill="#d1d1d1" id="id_67"/>
  <path atv:refpx="173" atv:refpy="649" d="M223,321L223,387L237,387L237,403L223,403L223,999L122,999L122,403L109,403L109,387L122,387L122,321L122,317L126,313L131,307L141,305L153,301L165,299L179,299L193,301L203,305L213,307L221,313L223,317Z" fill="#dbdbdb" id="id_68"/>
  <path atv:refpx="173" atv:refpy="649" d="M209,321L209,387L219,387L219,403L209,403L209,999L135,999L135,403L127,403L127,387L135,387L135,321L135,317L139,313L143,307L149,305L157,301L167,299L177,299L187,301L195,305L201,307L207,313L209,317Z" fill="#e3e3e3" id="id_69"/>
  <path atv:refpx="173" atv:refpy="649" d="M195,321L195,387L201,387L201,403L195,403L195,999L149,999L149,403L145,403L145,387L149,387L149,321L149,317L151,313L155,307L159,305L163,301L169,299L175,299L181,301L187,305L191,307L193,313L195,317Z" fill="#ebebeb" id="id_70"/>
  <path atv:refpx="173" atv:refpy="650" d="M181,321L181,387L183,387L183,403L181,403L181,999L165,999L165,659L165,403L163,403L163,387L165,387L165,321L165,317L165,313L165,309L167,305L169,301L171,301L173,301L175,301L177,305L179,309L179,313L181,317Z" fill="#f2f2f2" id="id_71"/>
  <path atv:refpx="173.5" atv:refpy="650" d="M295,321L295,387L327,387L327,403L295,403L295,999L50,999L50,659L50,403L20,403L20,387L50,387L50,321L50,317L58,313L73,309L96,305L123,301L155,301L187,301L219,301L247,305L271,309L287,313L295,317Z" fill="none" id="id_72" stroke="#4c4c4c" stroke-width="2"/>
  <path atv:refpx="172.5" atv:refpy="387.5" d="M50,387L295,387" fill="none" id="id_73" stroke="#4c4c4c" stroke-width="2"/>
  <path atv:refpx="172.5" atv:refpy="403.5" d="M50,403L295,403" fill="none" id="id_74" stroke="#4c4c4c" stroke-width="2"/>
  <path atv:refpx="49" atv:refpy="408" d="M39,403L59,403L59,413L39,413Z" fill="#7f7f7f" id="id_75" stroke="#4c4c4c" stroke-width="2"/>
  <path atv:refpx="198" atv:refpy="377" d="M193,367L203,367L203,387L193,387Z" fill="#7f7f7f" id="id_76" stroke="#4c4c4c" stroke-width="2"/>
  <path atv:refpx="146" atv:refpy="377" d="M141,367L151,367L151,387L141,387Z" fill="#7f7f7f" id="id_77" stroke="#4c4c4c" stroke-width="2"/>
  <path atv:refpx="173" atv:refpy="408" d="M163,403L183,403L183,413L163,413Z" fill="#7f7f7f" id="id_78" stroke="#4c4c4c" stroke-width="2"/>
  <path atv:refpx="295" atv:refpy="408" d="M285,403L305,403L305,413L285,413Z" fill="#7f7f7f" id="id_79" stroke="#4c4c4c" stroke-width="2"/>
  <path atv:refpx="186" atv:refpy="280" d="M173,259L183,259L199,301L187,301Z" fill="#7f7f7f" id="id_80" stroke="#4c4c4c" stroke-width="2"/>
  <path atv:refpx="147.5" atv:refpy="290" d="M141,311L163,259L173,259L151,311L131,321L122,321Z" fill="#ccc" id="id_81" stroke="#4c4c4c" stroke-width="2"/>
 </g>
</svg>
