<?xml version='1.0' encoding='UTF-8' standalone='no'?>
<svg height="194.12" version="1.2" width="188" xmlns="http://www.w3.org/2000/svg" xmlns:atv="http://webmi.atvise.com/2007/svgext" xmlns:xlink="http://www.w3.org/1999/xlink">
 <defs>
  <linearGradient gradientUnits="objectBoundingBox" id="id_33_fill_gradient" spreadMethod="reflect" x1="0.0675676" x2="0.581081" y1="1" y2="1">
   <stop offset="0" stop-color="#999999"/>
   <stop offset="1" stop-color="#e5e5e5"/>
  </linearGradient>
  <linearGradient gradientUnits="objectBoundingBox" id="id_34_fill_gradient" spreadMethod="reflect" x1="-0.135135" x2="0.405405" y1="0.986486" y2="0.972973">
   <stop offset="0" stop-color="#999999"/>
   <stop offset="1" stop-color="#e5e5e5"/>
  </linearGradient>
  <linearGradient gradientUnits="objectBoundingBox" id="id_41_fill_gradient" spreadMethod="reflect" x1="-0.135135" x2="0.405405" y1="1" y2="0.972973">
   <stop offset="0" stop-color="#999999"/>
   <stop offset="1" stop-color="#e5e5e5"/>
  </linearGradient>
  <linearGradient gradientUnits="objectBoundingBox" id="id_42_fill_gradient" spreadMethod="reflect" x1="-0.135135" x2="0.405405" y1="0.986486" y2="0.972973">
   <stop offset="0" stop-color="#999999"/>
   <stop offset="1" stop-color="#e5e5e5"/>
  </linearGradient>
  <radialGradient cx="0.5" cy="0.5" fx="0.5" fy="0.5" gradientUnits="objectBoundingBox" id="id_42_stroke_gradient" r="1">
   <stop offset="0" stop-color="#000000"/>
   <stop offset="1" stop-color="#ffffff"/>
  </radialGradient>
  <linearGradient gradientUnits="objectBoundingBox" id="id_43_fill_gradient" spreadMethod="reflect" x1="-0.135135" x2="0.405405" y1="1" y2="0.972973">
   <stop offset="0" stop-color="#999999"/>
   <stop offset="1" stop-color="#e5e5e5"/>
  </linearGradient>
  <radialGradient cx="0.5" cy="0.5" fx="0.5" fy="0.5" gradientUnits="objectBoundingBox" id="id_44_fill_gradient" r="0.514579">
   <stop offset="0.6088709677419355" stop-color="#e4e4e4"/>
   <stop offset="1" stop-color="#9a9a9a"/>
  </radialGradient>
  <radialGradient cx="0.5" cy="0.5" fx="0.5" fy="0.5" gradientUnits="objectBoundingBox" id="id_7_fill_gradient" r="0.514579">
   <stop offset="0.6088709677419355" stop-color="#e4e4e4"/>
   <stop offset="1" stop-color="#9a9a9a"/>
  </radialGradient>
  <linearGradient gradientUnits="objectBoundingBox" id="linear_0" x1="0" x2="1" y1="0" y2="1">
   <stop offset="0" stop-color="#000000"/>
   <stop offset="1" stop-color="#000000" stop-opacity="0"/>
  </linearGradient>
  <radialGradient cx="0.499994" cy="0.499996" fx="0.499994" fy="0.499996" gradientUnits="objectBoundingBox" id="SVGID_1_" r="0.770268">
   <stop offset="0" stop-color="#E0E0E0"/>
   <stop offset="1" stop-color="#595959"/>
  </radialGradient>
  <linearGradient gradientUnits="objectBoundingBox" id="SVGID_2_" x1="1.13411e-06" x2="1" y1="0.50002" y2="0.50002">
   <stop offset="0.01" stop-color="#595959"/>
   <stop offset="0.5" stop-color="#E0E0E0"/>
   <stop offset="1" stop-color="#595959"/>
  </linearGradient>
  <linearGradient gradientUnits="objectBoundingBox" id="SVGID_3_" x1="-3.233e-06" x2="0.999996" y1="0.499746" y2="0.499746">
   <stop offset="0.01" stop-color="#595959"/>
   <stop offset="0.5" stop-color="#E0E0E0"/>
   <stop offset="1" stop-color="#595959"/>
  </linearGradient>
  <radialGradient cx="0.499994" cy="0.499996" fx="0.499994" fy="0.499996" gradientUnits="objectBoundingBox" id="radial_1" r="0.770268">
   <stop offset="0" stop-color="#E0E0E0"/>
   <stop offset="1" stop-color="#595959"/>
  </radialGradient>
  <linearGradient gradientUnits="objectBoundingBox" id="linear_2" x1="1.13411e-06" x2="1" y1="0.50002" y2="0.50002">
   <stop offset="0.01" stop-color="#595959"/>
   <stop offset="0.5" stop-color="#E0E0E0"/>
   <stop offset="1" stop-color="#595959"/>
  </linearGradient>
  <linearGradient gradientUnits="objectBoundingBox" id="linear_3" x1="-3.233e-06" x2="0.999996" y1="0.499746" y2="0.499746">
   <stop offset="0.01" stop-color="#595959"/>
   <stop offset="0.5" stop-color="#E0E0E0"/>
   <stop offset="1" stop-color="#595959"/>
  </linearGradient>
 </defs>
 <metadata>
  <atv:parameter behavior="optional" defaultvalue="SYSTEM.GLOBALS.Color_Global_1" desc="Color" name="Color" substitute="$Color$" valuetype="global"/>
  <atv:parameter behavior="optional" defaultvalue="SYSTEM.GLOBALS.Maintenance_Sphere_Tank" desc="Global Maintenance" name="Global_Maintenance" valuetype="global"/>
  <atv:gridconfig enabled="true" gridstyle="lines" height="20" width="20"/>
  <atv:snapconfig enabled="true" height="1" width="1"/>
 </metadata>
 <g atv:refpx="132.578" atv:refpy="92.969" id="Image1" transform="matrix(0.6797,0,0,0.6797,105.3817,-32.5943)">
  <g atv:refpx="40.014" atv:refpy="180.014" id="Group_Spherical_Tank" transform="matrix(1,0,0,1,-11.45,128.55)">
   <circle atv:refpx="51.464" atv:refpy="51.464" cx="51.464" cy="51.464" fill="url(#radial_1)" id="id_0" r="51.014"/>
  </g>
  <g atv:refpx="40.071" atv:refpy="225.34" id="Group_TankSupport" transform="matrix(1,0,0,1,-11.45,128.55)">
   <path atv:refpx="51.521" atv:refpy="96.79" d="M90.991,84.009L90.991,104.955L95.608,107.207L95.608,109.571L7.433,109.571L7.433,107.207L12.161,104.955L12.161,84.009Z" fill="url(#linear_2)" id="id_1"/>
   <path atv:refpx="42.287" atv:refpy="87.55" d="M37.613,87.05L46.96,87.05" fill="none" id="id_65" stroke="#4C4C4C" stroke-width="0.25"/>
   <path atv:refpx="42.287" atv:refpy="88.113" d="M37.613,87.613L46.96,87.613" fill="none" id="id_3" stroke="#4C4C4C" stroke-width="0.25"/>
   <path atv:refpx="42.287" atv:refpy="88.676" d="M37.613,88.176L46.96,88.176" fill="none" id="id_4" stroke="#4C4C4C" stroke-width="0.25"/>
   <path atv:refpx="42.287" atv:refpy="89.238" d="M37.613,88.738L46.96,88.738" fill="none" id="id_5" stroke="#4C4C4C" stroke-width="0.25"/>
   <path atv:refpx="42.287" atv:refpy="89.802" d="M37.613,89.302L46.96,89.302" fill="none" id="id_66" stroke="#4C4C4C" stroke-width="0.25"/>
   <path atv:refpx="42.287" atv:refpy="90.478" d="M37.613,89.978L46.96,89.978" fill="none" id="id_7" stroke="#4C4C4C" stroke-width="0.25"/>
   <path atv:refpx="42.287" atv:refpy="90.928" d="M37.613,90.428L46.96,90.428" fill="none" id="id_8" stroke="#4C4C4C" stroke-width="0.25"/>
   <path atv:refpx="42.287" atv:refpy="91.491" d="M37.613,90.991L46.96,90.991" fill="none" id="id_9" stroke="#4C4C4C" stroke-width="0.25"/>
   <path atv:refpx="42.287" atv:refpy="92.166" d="M37.613,91.666L46.96,91.666" fill="none" id="id_10" stroke="#4C4C4C" stroke-width="0.25"/>
   <path atv:refpx="42.287" atv:refpy="92.617" d="M37.613,92.117L46.96,92.117" fill="none" id="id_11" stroke="#4C4C4C" stroke-width="0.25"/>
   <path atv:refpx="42.287" atv:refpy="93.293" d="M37.613,92.793L46.96,92.793" fill="none" id="id_12" stroke="#4C4C4C" stroke-width="0.25"/>
   <path atv:refpx="42.287" atv:refpy="93.855" d="M37.613,93.355L46.96,93.355" fill="none" id="id_13" stroke="#4C4C4C" stroke-width="0.25"/>
   <path atv:refpx="42.287" atv:refpy="94.419" d="M37.613,93.919L46.96,93.919" fill="none" id="id_14" stroke="#4C4C4C" stroke-width="0.25"/>
   <path atv:refpx="42.287" atv:refpy="94.982" d="M37.613,94.482L46.96,94.482" fill="none" id="id_15" stroke="#4C4C4C" stroke-width="0.25"/>
   <path atv:refpx="42.287" atv:refpy="95.545" d="M37.613,95.045L46.96,95.045" fill="none" id="id_16" stroke="#4C4C4C" stroke-width="0.25"/>
   <path atv:refpx="42.287" atv:refpy="96.107" d="M37.613,95.607L46.96,95.607" fill="none" id="id_17" stroke="#4C4C4C" stroke-width="0.25"/>
   <path atv:refpx="42.287" atv:refpy="96.783" d="M37.613,96.283L46.96,96.283" fill="none" id="id_18" stroke="#4C4C4C" stroke-width="0.25"/>
   <path atv:refpx="42.287" atv:refpy="97.347" d="M37.613,96.847L46.96,96.847" fill="none" id="id_67" stroke="#4C4C4C" stroke-width="0.25"/>
   <path atv:refpx="42.287" atv:refpy="97.91" d="M37.613,97.41L46.96,97.41" fill="none" id="id_68" stroke="#4C4C4C" stroke-width="0.25"/>
   <path atv:refpx="42.287" atv:refpy="98.473" d="M37.613,97.973L46.96,97.973" fill="none" id="id_21" stroke="#4C4C4C" stroke-width="0.25"/>
   <path atv:refpx="42.287" atv:refpy="99.036" d="M37.613,98.536L46.96,98.536" fill="none" id="id_22" stroke="#4C4C4C" stroke-width="0.25"/>
   <path atv:refpx="42.287" atv:refpy="99.6" d="M37.613,99.1L46.96,99.1" fill="none" id="id_23" stroke="#4C4C4C" stroke-width="0.25"/>
   <path atv:refpx="42.287" atv:refpy="100.162" d="M37.613,99.662L46.96,99.662" fill="none" id="id_24" stroke="#4C4C4C" stroke-width="0.25"/>
   <path atv:refpx="42.287" atv:refpy="100.838" d="M37.613,100.338L46.96,100.338" fill="none" id="id_25" stroke="#4C4C4C" stroke-width="0.25"/>
   <path atv:refpx="42.287" atv:refpy="101.4" d="M37.613,100.9L46.96,100.9" fill="none" id="id_26" stroke="#4C4C4C" stroke-width="0.25"/>
   <path atv:refpx="42.287" atv:refpy="101.964" d="M37.613,101.464L46.96,101.464" fill="none" id="id_27" stroke="#4C4C4C" stroke-width="0.25"/>
   <path atv:refpx="42.287" atv:refpy="102.527" d="M37.613,102.027L46.96,102.027" fill="none" id="id_28" stroke="#4C4C4C" stroke-width="0.25"/>
   <path atv:refpx="42.287" atv:refpy="103.09" d="M37.613,102.59L46.96,102.59" fill="none" id="id_29" stroke="#4C4C4C" stroke-width="0.25"/>
   <path atv:refpx="42.287" atv:refpy="103.653" d="M37.613,103.153L46.96,103.153" fill="none" id="id_30" stroke="#4C4C4C" stroke-width="0.25"/>
   <path atv:refpx="42.287" atv:refpy="104.329" d="M37.613,103.829L46.96,103.829" fill="none" id="id_31" stroke="#4C4C4C" stroke-width="0.25"/>
   <path atv:refpx="42.287" atv:refpy="86.311" d="M37.613,85.811L46.96,85.811" fill="none" id="id_32" stroke="#4C4C4C" stroke-width="0.25"/>
   <path atv:refpx="42.287" atv:refpy="86.986" d="M37.613,86.486L46.96,86.486" fill="none" id="id_33" stroke="#4C4C4C" stroke-width="0.25"/>
  </g>
  <g atv:refpx="40.128" atv:refpy="236.934" id="Group_Bottom" transform="matrix(1,0,0,1,-11.45,128.55)">
   <path atv:refpx="51.578" atv:refpy="110.756" d="M5.181,111.938L5.181,109.573L97.974,109.573L97.974,111.938Z" fill="url(#linear_3)" id="id_34" stroke="#4C4C4C" stroke-width="0.25"/>
   <path atv:refpx="51.578" atv:refpy="105.455" d="M12.163,104.955L90.991,104.955" fill="none" id="id_35" stroke="#4C4C4C" stroke-width="0.25"/>
   <path atv:refpx="51.521" atv:refpy="107.707" d="M7.433,107.207L95.608,107.207" fill="none" id="id_36" stroke="#4C4C4C" stroke-width="0.25"/>
   <path atv:refpx="51.577" atv:refpy="105.455" d="M26.69,104.955L76.464,104.955" fill="none" id="id_37" stroke="#7F7F7F" stroke-width="0.25"/>
   <path atv:refpx="51.578" atv:refpy="107.707" d="M23.762,107.207L79.393,107.207" fill="none" id="id_38" stroke="#7F7F7F" stroke-width="0.25"/>
   <path atv:refpx="51.633" atv:refpy="105.455" d="M43.356,104.955L59.911,104.955" fill="none" id="id_69" stroke="#B2B2B2" stroke-width="0.25"/>
   <path atv:refpx="51.578" atv:refpy="107.707" d="M42.343,107.207L60.812,107.207" fill="none" id="id_70" stroke="#B2B2B2" stroke-width="0.25"/>
  </g>
  <g atv:refpx="72.561" atv:refpy="222.976" id="Group_Door" transform="matrix(1,0,0,1,-11.45,128.55)">
   <path atv:refpx="82.04" atv:refpy="94.425" d="M79.393,89.189L79.731,87.723L80.518,86.372L81.871,85.472L83.335,85.134L84.687,85.134L84.687,103.716L83.335,103.716L81.871,103.49L80.518,102.589L79.731,101.237L79.393,99.774Z" fill="#7F7F7F" id="id_41"/>
   <path atv:refpx="84.686" atv:refpy="94.425" d="M80.743,89.189L80.97,87.723L81.87,86.372L83.222,85.472L84.686,85.134L86.15,85.472L87.502,86.372L88.402,87.723L88.628,89.189L88.628,99.774L88.402,101.237L87.502,102.589L86.15,103.49L84.686,103.716L83.222,103.49L81.87,102.589L80.97,101.237L80.743,99.774Z" fill="#CCCCCC" id="id_42" stroke="#4C4C4C" stroke-width="0.25"/>
   <path atv:refpx="86.43" atv:refpy="94.483" d="M85.36,86.938L86.149,87.163L86.937,87.839L87.387,88.965L87.5,90.204L87.5,98.763L87.388,100L86.938,101.126L86.15,101.802L85.361,102.028" fill="none" id="id_43" stroke="#4C4C4C" stroke-width="0.25"/>
  </g>
  <g atv:refpx="40.409" atv:refpy="232.266" id="Group_Rails" transform="matrix(1,0,0,1,-11.45,128.55)">
   <path atv:refpx="51.577" atv:refpy="103.716" d="M50.451,100.225L52.703,100.225L52.703,107.207L50.451,107.207Z" fill="#E5E5E5" id="id_44"/>
   <path atv:refpx="93.92" atv:refpy="103.716" d="M95.046,107.207L92.794,107.207L92.794,100.225L95.046,100.225Z" fill="#999999" id="id_45"/>
   <path atv:refpx="9.798" atv:refpy="103.716" d="M8.672,100.225L10.924,100.225L10.924,107.207L8.672,107.207Z" fill="#999999" id="id_46"/>
   <path atv:refpx="80.012" atv:refpy="103.716" d="M81.194,107.207L78.829,107.207L78.829,100.225L81.194,100.225Z" fill="#B2B2B2" id="id_47"/>
   <path atv:refpx="23.705" atv:refpy="103.716" d="M22.523,100.225L24.887,100.225L24.887,107.207L22.522,107.207Z" fill="#B2B2B2" id="id_48"/>
   <path atv:refpx="66.048" atv:refpy="103.716" d="M67.23,107.207L64.866,107.207L64.866,100.225L67.23,100.225Z" fill="#CCCCCC" id="id_71"/>
   <path atv:refpx="37.613" atv:refpy="103.716" d="M36.487,100.225L38.739,100.225L38.739,107.207L36.487,107.207Z" fill="#CCCCCC" id="id_50"/>
   <path atv:refpx="92.456" atv:refpy="103.716" d="M92.118,107.207L92.794,107.207L92.794,100.225L92.118,100.225Z" fill="#4C4C4C" id="id_51"/>
   <path atv:refpx="11.206" atv:refpy="103.716" d="M11.487,100.225L10.924,100.225L10.924,107.207L11.487,107.207Z" fill="#4C4C4C" id="id_52"/>
   <path atv:refpx="78.548" atv:refpy="103.716" d="M78.267,107.207L78.83,107.207L78.83,100.225L78.267,100.225Z" fill="#666666" id="id_53"/>
   <path atv:refpx="25.169" atv:refpy="103.716" d="M25.451,100.225L24.888,100.225L24.888,107.207L25.451,107.207Z" fill="#666666" id="id_54"/>
   <path atv:refpx="64.584" atv:refpy="103.716" d="M64.302,107.207L64.866,107.207L64.866,100.225L64.302,100.225Z" fill="#7F7F7F" id="id_55"/>
   <path atv:refpx="39.077" atv:refpy="103.716" d="M39.415,100.225L38.739,100.225L38.739,107.207L39.415,107.207Z" fill="#7F7F7F" id="id_56"/>
  </g>
 </g>
 <text atv:refpx="123.738" atv:refpy="35.5" fill="$Color$" font-family="Arial" font-size="14" font-weight="bold" id="Title" x="102.5" y="41">Name</text>
 <svg atv:refpx="110" atv:refpy="182.002" height="30" id="id_2" transform="matrix(1,0,0,0.6667,0,0)" width="80" x="70" xlink:href="SYSTEM.LIBRARY.ATVISE.OBJECTDISPLAYS.Advanced.button_switch" y="257.993">
  <atv:argument name="base" prefix="base" value=".Apertura"/>
  <atv:argument name="labelOn" value="T{Stop}"/>
  <atv:argument name="labelOff" value="T{Start}"/>
  <atv:overwrite height="18.001" id="id_6" transform="matrix(1,0,0,1.4999,0,0)"/>
  <atv:overwrite id="button_label" transform="matrix(1,0,0,1.4999,0,0)" y="14.5"/>
  <atv:overwrite id="button_symbol_off" transform="matrix(1,0,0,1.4999,0,0)" y="0"/>
  <atv:overwrite id="button_symbol_on" transform="matrix(1,0,0,1.4999,0,0)" y="0"/>
  <atv:overwrite height="16.001" id="blinking_frame" transform="matrix(1,0,0,1.4999,0,0)"/>
  <atv:overwrite height="16.001" id="button_stroke" transform="matrix(1,0,0,1.4999,0,0)"/>
  <atv:overwrite height="18.001" id="button_bg" transform="matrix(1,0,0,1.4999,0,0)"/>
  <atv:overwrite height="20.001" id="outer_frame" transform="matrix(1,0,0,1.4999,0,0)"/>
 </svg>
 <text atv:refpx="92.123" atv:refpy="161.5" fill="#195c88" font-family="Arial" font-size="12" font-weight="bold" id="id_49" x="74.967" y="166">On/Off</text>
 <polygon atv:refpx="65.671" atv:refpy="46.035" fill="#fdf90a" id="alert_increasing" points="53.67,58.034 77.67,58.034 65.003,34.034" stroke="#000000" stroke-width="1"/>
 <rect atv:refpx="134" atv:refpy="94.5" fill="#000000" fill-opacity="0" height="101" id="click_area" stroke="#0000ff" stroke-width="0" width="108" x="80" y="44"/>
 <g atv:refpx="26.062" atv:refpy="176.062" id="maintenance" transform="matrix(1,0,0,1,1.4181,21.4175)">
  <rect atv:refpx="46.171" atv:refpy="204.643" fill="#2b9de8" height="24.544" id="id_39" stroke="#000000" stroke-width="1" transform="matrix(0.7071,-0.7071,0.7071,0.7071,0,0)" width="24.544" x="-104.196" y="114.505"/>
  <text atv:refpx="28" atv:refpy="149.5" fill="#000000" font-family="Arial" font-size="14" id="id_40" x="18.5" y="160">M</text>
 </g>
 <polygon atv:refpx="13.207" atv:refpy="48.619" fill="#fdbf21" id="alert_decreasing" points="27.872,36.618 3.871,36.618 16.537,60.619" stroke="#000000" stroke-width="1"/>
 <text atv:refpx="66.671" atv:refpy="50.535" fill="#000000" font-family="Arial" font-size="14" font-weight="bold" id="alertC_text" text-anchor="end" x="68.171" y="55.035">1</text>
 <text atv:refpx="16.459" atv:refpy="45.617" fill="#000000" font-family="Arial" font-size="14" font-weight="bold" id="alertD_text" x="12.959" y="50.117">1</text>
 <rect atv:refpx="11.088" atv:refpy="-49.533" fill="#93060a" fill-opacity="0" height="42" id="click_area_alertC" stroke="none" stroke-width="0" width="28" x="52" y="19"/>
 <rect atv:refpx="16" atv:refpy="51" fill="#93060a" fill-opacity="0" height="42" id="click_area_alertD" stroke="none" stroke-width="0" width="28" x="2" y="32"/>
 <polygon atv:refpx="62.419" atv:refpy="89.537" fill="#fdf90a" id="alert_increasing_min" points="77.084,77.535 53.082,77.535 65.749,101.535" stroke="#000000" stroke-width="1"/>
 <text atv:refpx="65.671" atv:refpy="86.535" fill="#000000" font-family="Arial" font-size="14" font-weight="bold" id="alertC_text_min" x="62.171" y="91.035">1</text>
 <polygon atv:refpx="16.459" atv:refpy="89.117" fill="#fdbf21" id="alert_decreasing_min" points="4.458,101.117 28.458,101.117 15.79,77.117" stroke="#000000" stroke-width="1"/>
 <text atv:refpx="17" atv:refpy="93.5" fill="#000000" font-family="Arial" font-size="14" font-weight="bold" id="alertD_text_min" text-anchor="end" x="18.5" y="98">1</text>
 <rect atv:refpx="-38.912" atv:refpy="-5.533" fill="#93060a" fill-opacity="0" height="42" id="click_area_alertD_min" stroke="none" stroke-width="0" width="28" x="2" y="63"/>
 <g atv:refpx="38.5" atv:refpy="69" id="Ind_Bar">
  <rect atv:refpx="38.5" atv:refpy="69" fill="#626262" height="77.366" id="Barra_Ind2" rx="7" ry="7" stroke="#000000" stroke-width="1" width="14" x="31.5" y="30.317"/>
  <path atv:refpx="38.496" atv:refpy="36.976" d="M31.826,43.257L45.178,43.257L45.08,36.1C45.08,36.1 44.046,30.754 38.676,30.694C33.305,30.633 31.876,35.603 31.876,35.603C31.876,35.603 31.777,43.318 31.826,43.257" fill="#b5b5b5" id="id_19" stroke="#000000" stroke-width="0"/>
  <path atv:refpx="38.533" atv:refpy="100.982" d="M45.204,94.701L31.852,94.701L31.95,101.858C31.95,101.858 32.985,107.205 38.355,107.265C43.726,107.324 45.154,102.356 45.154,102.356C45.154,102.356 45.252,94.641 45.204,94.701" fill="#b5b5b5" id="id_20" stroke="#000000" stroke-width="0"/>
 </g>
 <rect atv:refpx="51.396" atv:refpy="22.211" fill="#bd070d" height="23" id="alarm_square" rx="1.855" ry="1.987" stroke="#000000" stroke-width="1" text-anchor="middle" width="23" x="39.446" y="10.085"/>
 <text atv:refpx="-18.554" atv:refpy="-3.2" fill="#000000" font-family="Arial" font-size="14" font-weight="bold" id="alarm_text" text-anchor="middle" x="50.946" y="26.586">1</text>
 <rect atv:refpx="-1.405" atv:refpy="-41.69" fill="#93060a" fill-opacity="0" height="28" id="click_area_alarm" stroke="none" stroke-width="0" width="28" x="36.879" y="7.516"/>
 <rect atv:refpx="51.102" atv:refpy="116.645" fill="#bd070d" height="23" id="alarm_square_min" rx="1.855" ry="1.987" stroke="#000000" stroke-width="1" text-anchor="middle" width="23" x="39.152" y="104.519"/>
 <text atv:refpx="-18.848" atv:refpy="91.234" fill="#000000" font-family="Arial" font-size="14" font-weight="bold" id="alarm_text_min" text-anchor="middle" x="50.652" y="121.02">1</text>
 <rect atv:refpx="-1.983" atv:refpy="53.028" fill="#93060a" fill-opacity="0" height="28" id="click_area_alarm_min" stroke="none" stroke-width="0" width="28" x="36.301" y="102.234"/>
 <rect atv:refpx="65" atv:refpy="92" fill="#93060a" fill-opacity="0" height="42" id="click_area_alertC_min" stroke="none" stroke-width="0" width="28" x="51" y="73"/>
 <script atv:desc="" atv:href="SYSTEM.LIBRARY.PROJECT.DISPLAYSCRIPTS.atvise_Advanced_Objects_Display_Scripts.AAA_Principal_Display_Script" atv:name="" atv:type="text/ecmascript"/>
 <script atv:desc="" atv:name="" type="text/ecmascript"><![CDATA[












]]></script>
</svg>
