<?xml version='1.0' encoding='UTF-8' standalone='no'?>
<svg height="580" version="1.2" width="603" xmlns="http://www.w3.org/2000/svg" xmlns:atv="http://webmi.atvise.com/2007/svgext" xmlns:xlink="http://www.w3.org/1999/xlink">
 <defs/>
 <metadata>
  <atv:parameter behavior="optional" defaultvalue="SYSTEM.GLOBALS.Color_Global_1" desc="Color" name="Color" substitute="$Color$" valuetype="global"/>
  <atv:gridconfig enabled="true" gridstyle="lines" height="20" width="20"/>
  <atv:snapconfig enabled="true" height="10" width="10"/>
 </metadata>
 <text atv:refpx="56.1" atv:refpy="21" fill="$Color$" font-family="Arial" font-size="24" id="id_info" x="14.5" y="25.5">Condiciones de </text>
 <script atv:desc="" atv:name="" type="text/ecmascript"><![CDATA[/*******Creo Variables*******/


/*******Condiciones Iniciales*******/
webMI.addOnload(function() {

	//Definición de texto Inicial
    webMI.gfx.setText("id_info", "Condiciones de: "+(webMI.query["base"]).split('.').pop());
});


]]></script>
 <svg atv:refpx="505" atv:refpy="305" height="30" id="id_11" transform="matrix(0.5625,0,0,1,0,0)" width="160" x="817.778" xlink:href="SYSTEM.LIBRARY.ATVISE.OBJECTDISPLAYS.Advanced.in_out_value" y="290">
  <atv:argument name="base" prefix="base" value=".Tiempo"/>
  <atv:argument name="unit" value="T{s}"/>
  <atv:argument name="fontSize" value="14"/>
  <atv:overwrite id="input_label" transform="matrix(1.7778,0,0,1,0,0)" x="82.055"/>
  <atv:overwrite id="blinking_frame" transform="matrix(1.7778,0,0,1,0,0)" width="82"/>
  <atv:overwrite id="focus_frame" transform="matrix(1.7778,0,0,1,0,0)" width="86"/>
  <atv:overwrite id="input_bg" transform="matrix(1.7778,0,0,1,0,0)" width="82"/>
  <atv:overwrite id="id_1" transform="matrix(1.7778,0,0,1,0,0)" width="88"/>
  <atv:overwrite id="id_0" transform="matrix(1.7778,0,0,1,0,0)" width="90"/>
 </svg>
 <text atv:refpx="292.713" atv:refpy="661.404" fill="#000000" font-family="Arial" font-size="12" font-weight="bold" id="id_12" x="464.5" y="276">Tiempo Operacion</text>
</svg>
