<?xml version="1.0" encoding="iso-8859-1"?>
<!DOCTYPE svg PUBLIC "-//W3C//DTD SVG 20000303 Stylable//EN"
"http://www.w3.org/TR/2000/03/WD-SVG-20000303/DTD/svg-20000303-stylable.dtd">

<svg width="0.5963in" height="1.6042in" viewBox="0 0 371 998">

<path style="fill:#999;stroke:#4c4c4c;stroke-width:2" d="M122,52 l0,-24 126,0 0,24 -126,0z" />
<path style="fill:#7f7f7f" d="M88,725 l0,-20 19,0 0,20 -19,0z" />
<path style="fill:#7f7f7f" d="M263,705 l0,-19 60,0 0,19 -60,0z" />
<path style="fill:#b2b2b2" d="M263,701 l0,-12 60,0 0,12 -60,0z" />
<path style="fill:#b2b2b2" d="M88,722 l0,-14 19,0 0,14 -19,0z" />
<path style="fill:#e5e5e5" d="M263,697 l0,-4 60,0 0,4 -60,0z" />
<path style="fill:#e5e5e5" d="M88,716 l0,-4 19,0 0,4 -19,0z" />
<path style="fill:#999" d="M224,950 l0,-78 20,0 0,-20 -20,0 20,-98 19,0 0,-138 -19,0 36,-249 23,-6 0,-18 -19,0 0,-159 59,0 -40,-19 0,-79 -79,-19 0,-21 -78,0 0,21 -79,19 0,79 -39,19 60,0 0,159 -21,0 0,18 23,0 36,255 -19,0 0,138 19,0 20,98 -20,0 0,20 20,0 0,78 10,13 19,7 20,0 19,-7 10,-13z" />
<path style="fill:#a6a6a6" d="M220,950 l0,-78 17,0 0,-20 -17,0 17,-98 15,0 0,-138 -15,0 30,-249 19,-6 0,-21 -17,0 0,-156 51,0 -34,-19 0,-79 -66,-21 0,-19 -68,0 0,19 -68,21 0,79 -32,19 49,0 0,156 -17,0 0,21 21,0 30,255 -17,0 0,138 17,0 17,98 -17,0 0,20 17,0 0,78 9,13 16,7 18,0 16,-7 9,-13z" />
<path style="fill:#b2b2b2" d="M214,950 l0,-78 14,0 0,-20 -14,0 14,-98 13,0 0,-138 -13,0 24,-249 17,-6 0,-21 -13,0 0,-156 41,0 -28,-19 0,-79 -55,-21 0,-19 -56,0 0,19 -57,21 0,79 -26,19 41,0 0,156 -15,0 0,21 17,0 26,255 -15,0 0,138 15,0 14,98 -14,0 0,20 14,0 0,78 7,13 13,7 16,0 11,-7 9,-13z" />
<path style="fill:#bfbfbf" d="M207,950 l0,-78 11,0 0,-20 -11,0 11,-98 11,0 0,-138 -11,0 21,-249 13,-6 0,-21 -11,0 0,-156 34,0 -23,-19 0,-79 -45,-21 0,-19 -44,0 0,19 -43,21 0,79 -23,19 32,0 0,156 -9,0 0,21 11,0 21,255 -11,0 0,138 11,0 11,98 -11,0 0,20 11,0 0,78 6,13 11,7 12,0 9,-7 6,-13z" />
<path style="fill:#ccc" d="M201,950 l0,-78 10,0 0,-20 -10,0 10,-98 7,0 0,-138 -7,0 14,-249 10,-6 0,-21 -10,0 0,-156 27,0 -17,-19 0,-79 -34,-21 0,-19 -32,0 0,19 -32,21 0,79 -17,19 24,0 0,156 -7,0 0,21 9,0 15,255 -9,0 0,138 9,0 8,98 -8,0 0,20 8,0 0,78 4,13 7,7 10,0 7,-7 4,-13z" />
<path style="fill:#d9d9d9" d="M195,950 l0,-78 6,0 0,-20 -6,0 6,-98 6,0 0,-138 -6,0 10,-249 7,-6 0,-21 -6,0 0,-156 16,0 -10,-19 0,-79 -23,-21 0,-19 -20,0 0,19 -21,21 0,79 -11,19 17,0 0,156 -6,0 0,21 6,0 9,255 -6,0 0,138 6,0 6,98 -6,0 0,20 6,0 0,78 7,20 6,0 6,-7 1,-13z" />
<ellipse style="fill:#e5e5e5" cx="185" cy="508" rx="20" ry="462" />
<path style="fill:none;stroke:#7f7f7f;stroke-width:2" d="M88,184 l196,0" />
<path style="fill:none;stroke:#7f7f7f;stroke-width:2" d="M303,165 l-236,0" />
<path style="fill:none;stroke:#7f7f7f;stroke-width:2" d="M88,343 l196,0" />
<path style="fill:none;stroke:#7f7f7f;stroke-width:2" d="M284,361 l-196,0" />
<path style="fill:none;stroke:#7f7f7f;stroke-width:2" d="M126,616 l118,0" />
<path style="fill:none;stroke:#7f7f7f;stroke-width:2" d="M244,754 l-118,0" />
<path style="fill:none;stroke:#7f7f7f;stroke-width:2" d="M146,852 l78,0" />
<path style="fill:none;stroke:#7f7f7f;stroke-width:2" d="M224,872 l-78,0" />
<path style="fill:none;stroke:#7f7f7f;stroke-width:2" d="M126,863 l118,0" />
<path style="fill:#4c4c4c" d="M77,77 l11,0 0,9 -11,0 0,-9z" />
<path style="fill:#4c4c4c" d="M77,107 l11,0 0,9 -11,0 0,-9z" />
<path style="fill:#4c4c4c" d="M135,77 l11,0 0,9 -11,0 0,-9z" />
<path style="fill:#4c4c4c" d="M135,107 l11,0 0,9 -11,0 0,-9z" />
<path style="fill:#4c4c4c" d="M284,77 l9,0 0,9 -9,0 0,-9z" />
<path style="fill:#4c4c4c" d="M284,107 l9,0 0,9 -9,0 0,-9z" />
<path style="fill:#4c4c4c" d="M224,77 l11,0 0,9 -11,0 0,-9z" />
<path style="fill:#4c4c4c" d="M224,107 l11,0 0,9 -11,0 0,-9z" />
<path style="fill:#4c4c4c" d="M131,33 l10,0 0,10 -10,0 0,-10z" />
<path style="fill:#4c4c4c" d="M229,33 l10,0 0,10 -10,0 0,-10z" />
<path style="fill:#4c4c4c" d="M77,331 l11,0 0,12 -11,0 0,-12z" />
<path style="fill:#4c4c4c" d="M77,361 l11,0 0,10 -11,0 0,-10z" />
<path style="fill:#4c4c4c" d="M284,331 l9,0 0,12 -9,0 0,-12z" />
<path style="fill:#4c4c4c" d="M284,361 l9,0 0,10 -9,0 0,-10z" />
<path style="fill:#4c4c4c" d="M146,331 l10,0 0,12 -10,0 0,-12z" />
<path style="fill:#4c4c4c" d="M146,361 l10,0 0,10 -10,0 0,-10z" />
<path style="fill:#4c4c4c" d="M214,331 l10,0 0,12 -10,0 0,-12z" />
<path style="fill:#4c4c4c" d="M214,361 l10,0 0,10 -10,0 0,-10z" />
<path style="fill:#999" d="M161,150 l0,-24 50,0 0,24 -50,0z" />
<path style="fill:#999" d="M156,224 l0,-10 58,0 0,10 -58,0z" />
<path style="fill:#fff" d="M156,248 l0,-24 58,0 0,24 -58,0z" />
<path style="fill:#b2b2b2" d="M165,680 l0,-28 40,0 0,28 -40,0z" />
<path style="fill:none;stroke:#4c4c4c;stroke-width:2" d="M224,950 l0,-78 20,0 0,-20 -20,0 20,-98 19,0 0,-138 -19,0 36,-249 23,-6 0,-18 -19,0 0,-159 59,0 -40,-19 0,-79 -79,-19 0,-21 -78,0 0,21 -79,19 0,79 -39,19 60,0 0,159 -21,0 0,18 23,0 36,255 -19,0 0,138 19,0 20,98 -20,0 0,20 20,0 0,78 10,13 19,7 20,0 19,-7 10,-13" />
<path style="fill:none;stroke:#4c4c4c;stroke-width:2" d="M107,735 l156,0" />
<path style="fill:none;stroke:#4c4c4c;stroke-width:2" d="M263,705 l0,-19 60,0 0,19 -60,0" />
<path style="fill:none;stroke:#4c4c4c;stroke-width:2" d="M284,705 l0,-19" />
<path style="fill:none;stroke:#4c4c4c;stroke-width:2" d="M88,725 l0,-20 19,0 0,20 -19,0" />
<path style="fill:none;stroke:#4c4c4c;stroke-width:2" d="M67,86 l236,0" />
<path style="fill:none;stroke:#4c4c4c;stroke-width:2" d="M303,107 l-236,0" />
<path style="fill:none;stroke:#4c4c4c;stroke-width:2" d="M150,37 l11,0" />
<path style="fill:none;stroke:#4c4c4c;stroke-width:2" d="M171,37 l9,0" />
<path style="fill:none;stroke:#4c4c4c;stroke-width:2" d="M190,37 l9,0" />
<path style="fill:none;stroke:#4c4c4c;stroke-width:2" d="M211,37 l9,0" />

</svg>
