<?xml version='1.0' encoding='UTF-8' standalone='no'?>
<svg height="650" version="1.2" width="603" xmlns="http://www.w3.org/2000/svg" xmlns:atv="http://webmi.atvise.com/2007/svgext" xmlns:xlink="http://www.w3.org/1999/xlink">
 <defs/>
 <metadata>
  <atv:parameter behavior="optional" defaultvalue="SYSTEM.GLOBALS.Color_Global_1" desc="Color" name="Color" substitute="$Color$" valuetype="global"/>
  <atv:gridconfig enabled="true" gridstyle="lines" height="20" width="20"/>
  <atv:snapconfig enabled="true" height="10" width="10"/>
 </metadata>
 <text atv:refpx="49.476" atv:refpy="21" fill="$Color$" font-family="Arial" font-size="24" id="id_info" x="14.5" y="25.5">Conditions of</text>
 <script atv:desc="" atv:name="" type="text/ecmascript"><![CDATA[/*******Initialize Variables*******/


/*******Initial Conditions*******/
webMI.addOnload(function() {

	//Define Initial Text
    webMI.gfx.setText("id_info", "Conditions of: "+(webMI.query["base"]).split('.').pop());
});


]]></script>
 <svg atv:refpx="265" atv:refpy="575" height="30" id="id_5" transform="matrix(0.5625,0,0,1,0,0)" width="160" x="391.112" xlink:href="SYSTEM.LIBRARY.ATVISE.OBJECTDISPLAYS.Advanced.in_out_value" y="560">
  <atv:argument name="base" prefix="base" value=".Variables.Mill Temperature"/>
  <atv:argument name="unit" value="T{pH}"/>
  <atv:argument name="fontSize" value="14"/>
  <atv:overwrite id="input_label" transform="matrix(1.7778,0,0,1,0,0)" x="82.055"/>
  <atv:overwrite id="blinking_frame" transform="matrix(1.7778,0,0,1,0,0)" width="82"/>
  <atv:overwrite id="focus_frame" transform="matrix(1.7778,0,0,1,0,0)" width="86"/>
  <atv:overwrite id="input_bg" transform="matrix(1.7778,0,0,1,0,0)" width="82"/>
  <atv:overwrite id="id_1" transform="matrix(1.7778,0,0,1,0,0)" width="88"/>
  <atv:overwrite id="id_0" transform="matrix(1.7778,0,0,1,0,0)" width="90"/>
 </svg>
 <text atv:refpx="85.571" atv:refpy="931.404" fill="#000000" font-family="Arial" font-size="12" font-weight="bold" id="id_6" transform="matrix(1.1111,0,0,1,-24.4444,0)" x="224.5" y="546">Temperature</text>
 <svg atv:refpx="374.999" atv:refpy="575" height="30" id="id_7" transform="matrix(0.5625,0,0,1,0,0)" width="160" x="586.667" xlink:href="SYSTEM.LIBRARY.ATVISE.OBJECTDISPLAYS.Advanced.in_out_value" y="560">
  <atv:argument name="base" prefix="base" value=".Variables.Mill Power"/>
  <atv:argument name="unit" value="T{ppm}"/>
  <atv:argument name="fontSize" value="14"/>
  <atv:overwrite id="input_label" transform="matrix(1.7778,0,0,1,0,0)" x="82.055"/>
  <atv:overwrite id="blinking_frame" transform="matrix(1.7778,0,0,1,0,0)" width="82"/>
  <atv:overwrite id="focus_frame" transform="matrix(1.7778,0,0,1,0,0)" width="86"/>
  <atv:overwrite id="input_bg" transform="matrix(1.7778,0,0,1,0,0)" width="82"/>
  <atv:overwrite id="id_1" transform="matrix(1.7778,0,0,1,0,0)" width="88"/>
  <atv:overwrite id="id_0" transform="matrix(1.7778,0,0,1,0,0)" width="90"/>
 </svg>
 <text atv:refpx="229.926" atv:refpy="931.404" fill="#000000" font-family="Arial" font-size="12" font-weight="bold" id="id_8" x="334.5" y="546">Mill Power</text>
 <svg atv:refpx="324.987" atv:refpy="109.443" height="106" id="id_2" transform="matrix(0.7529,0,0,0.9329,0,0)" width="544.5" x="159.376" xlink:href="SYSTEM.LIBRARY.PROJECT.OBJECTDISPLAYS.atvise_Advanced_Objects_Complementary_Elements.Indicator_Slider_Complementary_Element" y="64.317">
  <atv:argument name="Label" value="Mill Motor Current"/>
  <atv:argument name="Input" prefix="base" value=".Variables.Mill Motor Current"/>
  <atv:argument name="Object_Conditions" prefix="base" value=".Parameters.Object_Conditions"/>
  <atv:argument name="Alert_Range" prefix="base" value=".Parameters.Alert_Range"/>
  <atv:argument name="Unit" value="Amps"/>
  <atv:argument name="Color" prefix="Color" value=""/>
 </svg>
 <svg atv:refpx="324.993" atv:refpy="219.438" height="106" id="id_3" transform="matrix(0.7529,0,0,0.9329,0,0)" width="544.5" x="159.384" xlink:href="SYSTEM.LIBRARY.PROJECT.OBJECTDISPLAYS.atvise_Advanced_Objects_Complementary_Elements.Indicator_Slider_Complementary_Element" y="182.227">
  <atv:argument name="Label" value="Mill Speed"/>
  <atv:argument name="Input" prefix="base" value=".Variables.Mill Speed"/>
  <atv:argument name="Object_Conditions" prefix="base" value=".Parameters.Object_Conditions"/>
  <atv:argument name="Alert_Range" prefix="base" value=".Parameters.Alert_Range"/>
  <atv:argument name="Unit" value="RPM"/>
  <atv:argument name="Color" prefix="Color" value=""/>
 </svg>
 <svg atv:refpx="324.987" atv:refpy="439.444" height="106" id="id_9" transform="matrix(0.7529,0,0,0.9329,0,0)" width="544.5" x="159.376" xlink:href="SYSTEM.LIBRARY.PROJECT.OBJECTDISPLAYS.atvise_Advanced_Objects_Complementary_Elements.Indicator_Slider_Complementary_Element" y="418.059">
  <atv:argument name="Label" value="Liner Wear"/>
  <atv:argument name="Input" prefix="base" value=".Variables.Liner Wear"/>
  <atv:argument name="Object_Conditions" prefix="base" value=".Parameters.Object_Conditions"/>
  <atv:argument name="Alert_Range" prefix="base" value=".Parameters.Alert_Range"/>
  <atv:argument name="Unit" value="kW"/>
  <atv:argument name="Color" prefix="Color" value=""/>
 </svg>
 <svg atv:refpx="324.983" atv:refpy="319.437" height="106" id="id_14" transform="matrix(0.753,0,0,0.9329,0,0)" width="544.5" x="159.363" xlink:href="SYSTEM.LIBRARY.PROJECT.OBJECTDISPLAYS.atvise_Advanced_Objects_Complementary_Elements.Indicator_Slider_Complementary_Element" y="289.42">
  <atv:argument name="Label" value="Feed Rate"/>
  <atv:argument name="Input" prefix="base" value=".Variables.Feed Rate"/>
  <atv:argument name="Object_Conditions" prefix="base" value=".Parameters.Object_Conditions"/>
  <atv:argument name="Alert_Range" prefix="base" value=".Parameters.Alert_Range"/>
  <atv:argument name="Unit" value="TPH"/>
  <atv:argument name="Color" prefix="Color" value=""/>
 </svg>
</svg>
