<svg xml:space="preserve" xmlns:atv="http://webmi.atvise.com/2007/svgext" version="1.1" height="112.5" enable-background="new 0 0 46.894 112.5" xmlns="http://www.w3.org/2000/svg" xmlns:xlink="http://www.w3.org/1999/xlink" width="46.893999999999998">
 <defs>
  <linearGradient gradientUnits="objectBoundingBox" id="SVGID_1_" x1="-1.22362e-05" x2="1" y1="0.499993" y2="0.499993">
   <stop offset="0" stop-color="#7F0E00"/>
   <stop offset="0.5" stop-color="#FF0000"/>
   <stop offset="1" stop-color="#7F0000"/>
  </linearGradient>
  <linearGradient gradientUnits="objectBoundingBox" id="SVGID_2_" x1="9.4623e-06" x2="0.999998" y1="0.499999" y2="0.499999">
   <stop offset="0" stop-color="#7F0E00"/>
   <stop offset="0.5" stop-color="#FF0000"/>
   <stop offset="1" stop-color="#7F0000"/>
  </linearGradient>
  <linearGradient gradientUnits="objectBoundingBox" id="SVGID_3_" x1="0.499994" x2="0.499994" y1="1.00005" y2="2.72963e-05">
   <stop offset="0" stop-color="#7F0E00"/>
   <stop offset="0.5" stop-color="#FF0000"/>
   <stop offset="1" stop-color="#7F0000"/>
  </linearGradient>
 </defs>
 <metadata>
  <atv:gridconfig enabled="false" gridstyle="lines" height="20" width="20"/>
  <atv:snapconfig enabled="false" height="10" width="10"/>
 </metadata>
 <g atv:refpx="23.447" atv:refpy="56.25" id="Image_1">
  <g atv:refpx="23.391" atv:refpy="104.547" id="Group_Cyclone_Bottom">
   <path atv:refpx="23.39" atv:refpy="111.936" d="M15.218,111.373L31.563,111.373L31.563,112.5L15.218,112.5Z" fill="#BF0000" id="id_0" stroke="#4C4C4C" stroke-width="0.25"/>
   <path atv:refpx="23.391" atv:refpy="104.046" d="M26.941,96.719L31.563,96.719L31.563,98.521L25.701,98.521L29.196,102.017L24.574,111.372L22.207,111.372L17.585,102.017L21.08,98.521L15.218,98.521L15.218,96.719L19.84,96.719" fill="url(#SVGID_1_)" id="id_1"/>
   <path atv:refpx="23.447" atv:refpy="99.021" d="M21.08,98.521L25.814,98.521" fill="none" id="id_2" stroke="#7F0000" stroke-width="0.25"/>
   <path atv:refpx="23.39" atv:refpy="97.219" d="M19.84,96.719L26.941,96.719" fill="none" id="id_3" stroke="#7F0000" stroke-width="0.25"/>
   <path atv:refpx="23.391" atv:refpy="102.517" d="M17.585,102.017L29.196,102.017" fill="none" id="id_4" stroke="#7F0000" stroke-width="0.25"/>
  </g>
  <g atv:refpx="23.447" atv:refpy="42.159" id="Group_Cyclone_Rear">
   <path atv:refpx="23.447" atv:refpy="42.159" d="M0,44.526L4.622,39.792L42.16,39.792L46.894,44.526Z" fill="#540000" id="id_5"/>
  </g>
  <g atv:refpx="23.39" atv:refpy="48.359" id="Group_Cyclone_">
   <path atv:refpx="23.39" atv:refpy="48.359" d="M19.84,96.719L4.622,53.319L2.254,53.319L2.254,51.628L4.621,51.628L4.621,16.344L16.344,16.344L16.344,0L30.435,0L30.435,16.344L42.16,16.344L42.16,51.628L44.526,51.628L44.526,53.319L42.16,53.319L26.941,96.719" fill="url(#SVGID_2_)" id="id_6"/>
   <path atv:refpx="23.391" atv:refpy="52.128" d="M4.622,51.628L42.16,51.628" fill="none" id="id_7" stroke="#7F0000" stroke-width="0.25"/>
   <path atv:refpx="23.391" atv:refpy="53.819" d="M4.622,53.319L42.16,53.319" fill="none" id="id_8" stroke="#7F0000" stroke-width="0.25"/>
   <path atv:refpx="23.39" atv:refpy="16.845" d="M16.344,16.344L30.435,16.344" fill="none" id="id_9" stroke="#7F0000" stroke-width="0.25"/>
  </g>
  <g atv:refpx="35.984" atv:refpy="8.454" id="Group_Cyclone_Inlet">
   <path atv:refpx="35.734" atv:refpy="8.454" d="M30.435,14.654L28.067,11.722L27.505,8.227L28.067,4.62L30.435,2.253L43.287,2.253L43.287,1.127L43.963,1.127L43.963,15.781L43.287,15.781L43.287,14.654Z" fill="url(#SVGID_3_)" id="id_10"/>
   <path atv:refpx="43.787" atv:refpy="8.454" d="M43.287,14.654L43.287,2.255" fill="none" id="id_11" stroke="#7F0000" stroke-width="0.1"/>
   <path atv:refpx="37.199" atv:refpy="8.454" d="M30.435,2.255L43.287,2.255L43.287,1.127L43.963,1.127L43.963,15.781L43.287,15.781L43.287,14.654L30.435,14.654" fill="none" id="id_12"/>
  </g>
 </g>
</svg>
