<?xml version="1.0" encoding="iso-8859-1"?>
<!DOCTYPE svg PUBLIC "-//W3C//DTD SVG 20000303 Stylable//EN"
"http://www.w3.org/TR/2000/03/WD-SVG-20000303/DTD/svg-20000303-stylable.dtd">

<svg width="0.6006in" height="1.6042in" viewBox="0 0 374 999">

<path style="fill:#00197f;stroke:#4c4c4c;stroke-width:2" d="M229,92 l-24,0 0,122 24,0 0,-122z" />
<path style="fill:#00197f" d="M211,401 l0,-322 -163,0 0,322 19,79 21,490 81,0 21,-490 21,-79z" />
<path style="fill:#00248a" d="M201,401 l0,-324 -145,0 0,324 19,79 17,490 73,0 17,-490 19,-79z" />
<path style="fill:#002b91" d="M192,401 l0,-324 -127,0 0,324 15,79 17,490 63,0 17,-490 15,-79z" />
<path style="fill:#03369c" d="M182,401 l0,-324 -109,0 0,324 15,79 13,490 55,0 13,-490 13,-79z" />
<path style="fill:#0d40a6" d="M175,401 l0,-324 -93,0 0,324 12,79 11,490 47,0 11,-490 12,-79z" />
<path style="fill:#174ab0" d="M165,401 l0,-324 -73,0 0,324 9,79 10,490 35,0 10,-490 9,-79z" />
<path style="fill:#1f52b8" d="M158,401 l0,-324 -57,0 0,324 6,79 7,490 29,0 7,-490 8,-79z" />
<path style="fill:#295cc2" d="M148,401 l0,-324 -39,0 0,324 5,79 4,490 21,0 4,-490 5,-79z" />
<path style="fill:#36c" d="M139,401 l0,-322 -21,0 0,322 4,79 2,490 9,0 4,-490 2,-79z" />
<path style="fill:none;stroke:#4c4c4c;stroke-width:2" d="M211,401 l0,-322 -163,0 0,322 19,79 21,490 81,0 21,-490 21,-79" />
<path style="fill:#00197f" d="M184,931 l-111,0 0,25 111,0 0,-25z" />
<path style="fill:#00197f" d="M190,778 l-123,0 0,27 123,0 0,-27z" />
<path style="fill:#00197f" d="M199,631 l-141,0 0,24 141,0 0,-24z" />
<path style="fill:#00197f" d="M211,478 l-163,0 0,27 163,0 0,-27z" />
<path style="fill:#00197f" d="M229,376 l-201,0 0,25 201,0 0,-25z" />
<path style="fill:#00197f" d="M229,233 l-201,0 0,25 201,0 0,-25z" />
<path style="fill:#00197f" d="M229,101 l-201,0 0,25 201,0 0,-25z" />
<path style="fill:#00197f;stroke:#4c4c4c;stroke-width:2" d="M148,28 l-39,0 0,49 39,0 0,-49z" />
<path style="fill:#00248a" d="M146,28 l-35,0 0,49 35,0 0,-49z" />
<path style="fill:#00248a" d="M218,101 l-181,0 0,25 181,0 0,-25z" />
<path style="fill:#00248a" d="M218,233 l-181,0 0,25 181,0 0,-25z" />
<path style="fill:#00248a" d="M218,376 l-181,0 0,25 181,0 0,-25z" />
<path style="fill:#00248a" d="M201,478 l-145,0 0,25 145,0 0,-25z" />
<path style="fill:#00248a" d="M192,631 l-127,0 0,24 127,0 0,-24z" />
<path style="fill:#00248a" d="M182,778 l-107,0 0,25 107,0 0,-25z" />
<path style="fill:#00248a" d="M179,931 l-100,0 0,25 100,0 0,-25z" />
<path style="fill:#002b91" d="M171,931 l-87,0 0,25 87,0 0,-25z" />
<path style="fill:#002b91" d="M175,778 l-95,0 0,25 95,0 0,-25z" />
<path style="fill:#002b91" d="M184,631 l-111,0 0,24 111,0 0,-24z" />
<path style="fill:#002b91" d="M192,478 l-127,0 0,25 127,0 0,-25z" />
<path style="fill:#002b91" d="M207,376 l-159,0 0,25 159,0 0,-25z" />
<path style="fill:#002b91" d="M207,233 l-159,0 0,25 159,0 0,-25z" />
<path style="fill:#002b91" d="M207,101 l-159,0 0,25 159,0 0,-25z" />
<path style="fill:#002b91" d="M145,28 l-32,0 0,49 32,0 0,-49z" />
<path style="fill:#03369c" d="M143,28 l-29,0 0,49 29,0 0,-49z" />
<path style="fill:#03369c" d="M195,101 l-135,0 0,25 135,0 0,-25z" />
<path style="fill:#03369c" d="M195,233 l-135,0 0,25 135,0 0,-25z" />
<path style="fill:#03369c" d="M195,376 l-135,0 0,25 135,0 0,-25z" />
<path style="fill:#03369c" d="M182,478 l-109,0 0,25 109,0 0,-25z" />
<path style="fill:#03369c" d="M177,631 l-97,0 0,24 97,0 0,-24z" />
<path style="fill:#03369c" d="M169,778 l-81,0 0,25 81,0 0,-25z" />
<path style="fill:#03369c" d="M165,931 l-73,0 0,25 73,0 0,-25z" />
<path style="fill:#0d40a6" d="M141,28 l-25,0 0,49 25,0 0,-49z" />
<path style="fill:#0d40a6" d="M186,101 l-115,0 0,25 115,0 0,-25z" />
<path style="fill:#0d40a6" d="M186,233 l-115,0 0,25 115,0 0,-25z" />
<path style="fill:#0d40a6" d="M186,376 l-115,0 0,25 115,0 0,-25z" />
<path style="fill:#0d40a6" d="M175,478 l-93,0 0,27 93,0 0,-27z" />
<path style="fill:#0d40a6" d="M169,631 l-81,0 0,24 81,0 0,-24z" />
<path style="fill:#0d40a6" d="M163,778 l-69,0 0,27 69,0 0,-27z" />
<path style="fill:#0d40a6" d="M160,931 l-63,0 0,25 63,0 0,-25z" />
<path style="fill:#174ab0" d="M137,28 l-17,0 0,49 17,0 0,-49z" />
<path style="fill:#174ab0" d="M175,101 l-93,0 0,25 93,0 0,-25z" />
<path style="fill:#174ab0" d="M175,233 l-93,0 0,25 93,0 0,-25z" />
<path style="fill:#174ab0" d="M175,376 l-93,0 0,25 93,0 0,-25z" />
<path style="fill:#174ab0" d="M165,478 l-73,0 0,27 73,0 0,-27z" />
<path style="fill:#174ab0" d="M160,631 l-65,0 0,24 65,0 0,-24z" />
<path style="fill:#174ab0" d="M156,778 l-55,0 0,27 55,0 0,-27z" />
<path style="fill:#174ab0" d="M154,931 l-51,0 0,25 51,0 0,-25z" />
<path style="fill:#1f52b8" d="M135,28 l-13,0 0,49 13,0 0,-49z" />
<path style="fill:#1f52b8" d="M163,101 l-69,0 0,25 69,0 0,-25z" />
<path style="fill:#1f52b8" d="M163,233 l-69,0 0,25 69,0 0,-25z" />
<path style="fill:#1f52b8" d="M163,376 l-69,0 0,25 69,0 0,-25z" />
<path style="fill:#1f52b8" d="M156,478 l-55,0 0,27 55,0 0,-27z" />
<path style="fill:#1f52b8" d="M152,631 l-49,0 0,24 49,0 0,-24z" />
<path style="fill:#1f52b8" d="M148,778 l-41,0 0,27 41,0 0,-27z" />
<path style="fill:#1f52b8" d="M148,931 l-39,0 0,25 39,0 0,-25z" />
<path style="fill:#295cc2" d="M133,28 l-9,0 0,49 9,0 0,-49z" />
<path style="fill:#295cc2" d="M152,101 l-47,0 0,25 47,0 0,-25z" />
<path style="fill:#295cc2" d="M152,233 l-47,0 0,25 47,0 0,-25z" />
<path style="fill:#295cc2" d="M152,376 l-47,0 0,25 47,0 0,-25z" />
<path style="fill:#295cc2" d="M146,478 l-37,0 0,27 37,0 0,-27z" />
<path style="fill:#295cc2" d="M145,631 l-32,0 0,24 32,0 0,-24z" />
<path style="fill:#295cc2" d="M143,778 l-29,0 0,27 29,0 0,-27z" />
<path style="fill:#295cc2" d="M141,931 l-27,0 0,25 27,0 0,-25z" />
<path style="fill:#36c" d="M131,28 l-5,0 0,49 5,0 0,-49z" />
<path style="fill:#36c" d="M141,101 l-25,0 0,25 25,0 0,-25z" />
<path style="fill:#36c" d="M141,233 l-25,0 0,25 25,0 0,-25z" />
<path style="fill:#36c" d="M141,376 l-25,0 0,25 25,0 0,-25z" />
<path style="fill:#36c" d="M139,478 l-21,0 0,27 21,0 0,-27z" />
<path style="fill:#36c" d="M137,631 l-17,0 0,24 17,0 0,-24z" />
<path style="fill:#36c" d="M135,778 l-13,0 0,27 13,0 0,-27z" />
<path style="fill:#36c" d="M135,931 l-13,0 0,25 13,0 0,-25z" />
<path style="fill:none;stroke:#4c4c4c;stroke-width:2" d="M184,931 l-111,0 0,25 111,0 0,-25" />
<path style="fill:none;stroke:#4c4c4c;stroke-width:2" d="M190,778 l-123,0 0,27 123,0 0,-27" />
<path style="fill:none;stroke:#4c4c4c;stroke-width:2" d="M199,631 l-141,0 0,24 141,0 0,-24" />
<path style="fill:none;stroke:#4c4c4c;stroke-width:2" d="M211,478 l-163,0 0,27 163,0 0,-27" />
<path style="fill:none;stroke:#4c4c4c;stroke-width:2" d="M229,376 l-201,0 0,25 201,0 0,-25" />
<path style="fill:none;stroke:#4c4c4c;stroke-width:2" d="M229,233 l-201,0 0,25 201,0 0,-25" />
<path style="fill:none;stroke:#4c4c4c;stroke-width:2" d="M229,101 l-201,0 0,25 201,0 0,-25" />
<path style="fill:#194cb2;stroke:#4c4c4c;stroke-width:2" d="M245,82 l-16,10 0,122 16,10 0,-142z" />
<path style="fill:#36c;stroke:#4c4c4c;stroke-width:2" d="M245,82 l101,19 0,108 -101,15 0,-142z" />
<path style="fill:#039;stroke:#4c4c4c;stroke-width:2" d="M286,184 l30,0 8,-7 1,-16 0,-16 -1,-16 -8,-9 -30,0 -6,9 -3,16 0,16 3,16 6,7z" />
<ellipse style="fill:#69f;stroke:#4c4c4c;stroke-width:2" cx="313" cy="152" rx="12" ry="32" />
<ellipse style="fill:#e5e5e5;stroke:#4c4c4c;stroke-width:2" cx="129" cy="162" rx="50" ry="27" />
<circle style="fill:none;stroke:#4c4c4c;stroke-width:2" cx="200" cy="67" r="10" />

</svg>
