<?xml version='1.0' encoding='UTF-8' standalone='no'?>
<svg height="372" version="1.2" width="306.75" xmlns="http://www.w3.org/2000/svg" xmlns:atv="http://webmi.atvise.com/2007/svgext" xmlns:xlink="http://www.w3.org/1999/xlink">
 <defs>
  <linearGradient gradientUnits="objectBoundingBox" id="id_33_fill_gradient" spreadMethod="reflect" x1="0.0675676" x2="0.581081" y1="1" y2="1">
   <stop offset="0" stop-color="#999999"/>
   <stop offset="1" stop-color="#e5e5e5"/>
  </linearGradient>
  <linearGradient gradientUnits="objectBoundingBox" id="id_34_fill_gradient" spreadMethod="reflect" x1="-0.135135" x2="0.405405" y1="0.986486" y2="0.972973">
   <stop offset="0" stop-color="#999999"/>
   <stop offset="1" stop-color="#e5e5e5"/>
  </linearGradient>
  <linearGradient gradientUnits="objectBoundingBox" id="id_41_fill_gradient" spreadMethod="reflect" x1="-0.135135" x2="0.405405" y1="1" y2="0.972973">
   <stop offset="0" stop-color="#999999"/>
   <stop offset="1" stop-color="#e5e5e5"/>
  </linearGradient>
  <linearGradient gradientUnits="objectBoundingBox" id="id_42_fill_gradient" spreadMethod="reflect" x1="-0.135135" x2="0.405405" y1="0.986486" y2="0.972973">
   <stop offset="0" stop-color="#999999"/>
   <stop offset="1" stop-color="#e5e5e5"/>
  </linearGradient>
  <radialGradient cx="0.5" cy="0.5" fx="0.5" fy="0.5" gradientUnits="objectBoundingBox" id="id_42_stroke_gradient" r="1">
   <stop offset="0" stop-color="#000000"/>
   <stop offset="1" stop-color="#ffffff"/>
  </radialGradient>
  <linearGradient gradientUnits="objectBoundingBox" id="id_43_fill_gradient" spreadMethod="reflect" x1="-0.135135" x2="0.405405" y1="1" y2="0.972973">
   <stop offset="0" stop-color="#999999"/>
   <stop offset="1" stop-color="#e5e5e5"/>
  </linearGradient>
  <radialGradient cx="0.5" cy="0.5" fx="0.5" fy="0.5" gradientUnits="objectBoundingBox" id="id_44_fill_gradient" r="0.514579">
   <stop offset="0.6088709677419355" stop-color="#e4e4e4"/>
   <stop offset="1" stop-color="#9a9a9a"/>
  </radialGradient>
  <radialGradient cx="0.5" cy="0.5" fx="0.5" fy="0.5" gradientUnits="objectBoundingBox" id="id_7_fill_gradient" r="0.514579">
   <stop offset="0.6088709677419355" stop-color="#e4e4e4"/>
   <stop offset="1" stop-color="#9a9a9a"/>
  </radialGradient>
  <linearGradient gradientUnits="objectBoundingBox" id="linear_0" x1="0" x2="1" y1="0" y2="1">
   <stop offset="0" stop-color="#000000"/>
   <stop offset="1" stop-color="#000000" stop-opacity="0"/>
  </linearGradient>
  <linearGradient gradientUnits="objectBoundingBox" id="SVGID_10_" x1="-0.000148525" x2="0.99982" y1="0.499965" y2="0.499965">
   <stop offset="0.17" stop-color="#4D4D4D"/>
   <stop offset="0.23" stop-color="#5A5A5A"/>
   <stop offset="0.34" stop-color="#7D7D7D"/>
   <stop offset="0.48" stop-color="#B2B2B2"/>
   <stop offset="0.57" stop-color="#A8A8A8"/>
   <stop offset="0.73" stop-color="#8B8B8B"/>
   <stop offset="0.94" stop-color="#5C5C5C"/>
   <stop offset="1" stop-color="#4D4D4D"/>
  </linearGradient>
  <linearGradient gradientUnits="objectBoundingBox" id="SVGID_11_" x1="0" x2="0.999992" y1="0.499686" y2="0.499686">
   <stop offset="0.17" stop-color="#4D4D4D"/>
   <stop offset="0.23" stop-color="#5A5A5A"/>
   <stop offset="0.34" stop-color="#7D7D7D"/>
   <stop offset="0.48" stop-color="#B2B2B2"/>
   <stop offset="0.57" stop-color="#A8A8A8"/>
   <stop offset="0.73" stop-color="#8B8B8B"/>
   <stop offset="0.94" stop-color="#5C5C5C"/>
   <stop offset="1" stop-color="#4D4D4D"/>
  </linearGradient>
  <linearGradient gradientUnits="objectBoundingBox" id="SVGID_12_" x1="-0.000159151" x2="0.999873" y1="0.499976" y2="0.499976">
   <stop offset="0.17" stop-color="#4D4D4D"/>
   <stop offset="0.23" stop-color="#5A5A5A"/>
   <stop offset="0.34" stop-color="#7D7D7D"/>
   <stop offset="0.48" stop-color="#B2B2B2"/>
   <stop offset="0.57" stop-color="#A8A8A8"/>
   <stop offset="0.73" stop-color="#8B8B8B"/>
   <stop offset="0.94" stop-color="#5C5C5C"/>
   <stop offset="1" stop-color="#4D4D4D"/>
  </linearGradient>
  <linearGradient gradientUnits="objectBoundingBox" id="SVGID_13_" x1="-3.95757e-05" x2="0.999984" y1="0.500503" y2="0.500503">
   <stop offset="0.17" stop-color="#4D4D4D"/>
   <stop offset="0.23" stop-color="#5A5A5A"/>
   <stop offset="0.34" stop-color="#7D7D7D"/>
   <stop offset="0.48" stop-color="#B2B2B2"/>
   <stop offset="0.57" stop-color="#A8A8A8"/>
   <stop offset="0.73" stop-color="#8B8B8B"/>
   <stop offset="0.94" stop-color="#5C5C5C"/>
   <stop offset="1" stop-color="#4D4D4D"/>
  </linearGradient>
  <linearGradient gradientUnits="objectBoundingBox" id="SVGID_1_" x1="2.80483e-06" x2="1" y1="0.5" y2="0.5">
   <stop offset="0" stop-color="#383838"/>
   <stop offset="0.5" stop-color="#ECECEC"/>
   <stop offset="0.57" stop-color="#D9D9D9"/>
   <stop offset="0.71" stop-color="#A8A8A8"/>
   <stop offset="0.92" stop-color="#5A5A5A"/>
   <stop offset="1" stop-color="#383838"/>
  </linearGradient>
  <linearGradient gradientUnits="objectBoundingBox" id="SVGID_2_" x1="-5.34852e-06" x2="0.999996" y1="0.500015" y2="0.500015">
   <stop offset="0.06" stop-color="#808080"/>
   <stop offset="0.13" stop-color="#8D8D8D"/>
   <stop offset="0.28" stop-color="#B0B0B0"/>
   <stop offset="0.48" stop-color="#E8E8E8"/>
   <stop offset="0.48" stop-color="#EBEBEB"/>
   <stop offset="0.57" stop-color="#E0E0E0"/>
   <stop offset="0.72" stop-color="#C3C3C3"/>
   <stop offset="0.92" stop-color="#949494"/>
   <stop offset="1" stop-color="#808080"/>
  </linearGradient>
  <linearGradient gradientUnits="objectBoundingBox" id="SVGID_3_" x1="0.0132289" x2="0.961723" y1="1.43718" y2="-0.523291">
   <stop offset="0.29" stop-color="#F7F7F7"/>
   <stop offset="0.38" stop-color="#ECECEC"/>
   <stop offset="0.52" stop-color="#CFCFCF"/>
   <stop offset="0.71" stop-color="#A0A0A0"/>
   <stop offset="0.94" stop-color="#5F5F5F"/>
   <stop offset="1" stop-color="#4D4D4D"/>
  </linearGradient>
  <linearGradient gradientUnits="objectBoundingBox" id="SVGID_4_" x1="0.984938" x2="0.0397305" y1="1.44782" y2="-0.461717">
   <stop offset="0.29" stop-color="#F7F7F7"/>
   <stop offset="0.38" stop-color="#ECECEC"/>
   <stop offset="0.52" stop-color="#CFCFCF"/>
   <stop offset="0.71" stop-color="#A0A0A0"/>
   <stop offset="0.94" stop-color="#5F5F5F"/>
   <stop offset="1" stop-color="#4D4D4D"/>
  </linearGradient>
  <linearGradient gradientUnits="objectBoundingBox" id="SVGID_5_" x1="0.499998" x2="0.499998" y1="2.24065e-05" y2="1">
   <stop offset="0" stop-color="#C8C8C8"/>
   <stop offset="0.29" stop-color="#B1B1B1"/>
   <stop offset="0.91" stop-color="#757575"/>
   <stop offset="1" stop-color="#6C6C6C"/>
  </linearGradient>
  <linearGradient gradientUnits="objectBoundingBox" id="SVGID_6_" x1="-9.45716e-06" x2="1.00002" y1="0.5" y2="0.5">
   <stop offset="0" stop-color="#383838"/>
   <stop offset="0.45" stop-color="#ECECEC"/>
   <stop offset="0.55" stop-color="#D9D9D9"/>
   <stop offset="0.76" stop-color="#A8A8A8"/>
   <stop offset="0.77" stop-color="#A6A6A6"/>
   <stop offset="1" stop-color="#383838"/>
  </linearGradient>
  <linearGradient gradientUnits="objectBoundingBox" id="SVGID_7_" x1="7.05467e-06" x2="0.999993" y1="0.499944" y2="0.499944">
   <stop offset="0" stop-color="#383838"/>
   <stop offset="0.45" stop-color="#ECECEC"/>
   <stop offset="0.55" stop-color="#D9D9D9"/>
   <stop offset="0.76" stop-color="#A8A8A8"/>
   <stop offset="0.77" stop-color="#A6A6A6"/>
   <stop offset="1" stop-color="#383838"/>
  </linearGradient>
  <linearGradient gradientUnits="objectBoundingBox" id="SVGID_8_" x1="1.89143e-05" x2="1.00004" y1="0.5" y2="0.5">
   <stop offset="0" stop-color="#383838"/>
   <stop offset="0.45" stop-color="#ECECEC"/>
   <stop offset="0.55" stop-color="#D9D9D9"/>
   <stop offset="0.76" stop-color="#A8A8A8"/>
   <stop offset="0.77" stop-color="#A6A6A6"/>
   <stop offset="1" stop-color="#383838"/>
  </linearGradient>
  <linearGradient gradientUnits="objectBoundingBox" id="SVGID_9_" x1="2.82187e-05" x2="1.00001" y1="0.499944" y2="0.499944">
   <stop offset="0" stop-color="#383838"/>
   <stop offset="0.45" stop-color="#ECECEC"/>
   <stop offset="0.55" stop-color="#D9D9D9"/>
   <stop offset="0.76" stop-color="#A8A8A8"/>
   <stop offset="0.77" stop-color="#A6A6A6"/>
   <stop offset="1" stop-color="#383838"/>
  </linearGradient>
 </defs>
 <metadata>
  <atv:parameter behavior="optional" defaultvalue="SYSTEM.GLOBALS.Color_Global_1" desc="Color" name="Color" substitute="$Color$" valuetype="global"/>
  <atv:parameter behavior="optional" defaultvalue="AGENT.OBJECTS.Global_Maintenance" desc="Global_Maintenance" name="Global_Maintenance" valuetype="address"/>
  <atv:gridconfig enabled="true" gridstyle="lines" height="20" width="20"/>
  <atv:snapconfig enabled="true" height="5" width="5"/>
 </metadata>
 <text atv:refpx="190.738" atv:refpy="11.5" fill="$Color$" font-family="Arial" font-size="14" font-weight="bold" id="Title" text-anchor="middle" x="188.5" y="17">Name</text>
 <polygon atv:refpx="63.671" atv:refpy="38.519" fill="#fdf90a" id="alert_increasing" points="51.67,50.518 75.67,50.518 63.003,26.518" stroke="#000000" stroke-width="1"/>
 <g atv:refpx="63.062" atv:refpy="335.547" id="maintenance" transform="matrix(1,0,0,1,38.4176,180.9027)">
  <rect atv:refpx="46.171" atv:refpy="204.643" fill="#2b9de8" height="24.544" id="id_39" stroke="#000000" stroke-width="1" transform="matrix(0.7071,-0.7071,0.7071,0.7071,0,0)" width="24.544" x="-104.196" y="114.505"/>
  <text atv:refpx="28" atv:refpy="149.5" fill="#000000" font-family="Arial" font-size="14" id="id_40" x="18.5" y="160">M</text>
 </g>
 <polygon atv:refpx="11.207" atv:refpy="41.103" fill="#fdbf21" id="alert_decreasing" points="25.872,29.102 1.871,29.102 14.536,53.103" stroke="#000000" stroke-width="1"/>
 <text atv:refpx="64.671" atv:refpy="43.019" fill="#000000" font-family="Arial" font-size="14" font-weight="bold" id="alertC_text" text-anchor="end" x="66.171" y="47.519">1</text>
 <text atv:refpx="14.459" atv:refpy="38.101" fill="#000000" font-family="Arial" font-size="14" font-weight="bold" id="alertD_text" x="10.959" y="42.601">1</text>
 <rect atv:refpx="9.088" atv:refpy="-57.049" fill="#93060a" fill-opacity="0" height="42" id="click_area_alertC" stroke="none" stroke-width="0" width="28" x="50" y="11.484"/>
 <rect atv:refpx="14" atv:refpy="43.484" fill="#93060a" fill-opacity="0" height="42" id="click_area_alertD" stroke="none" stroke-width="0" width="28" x="0" y="24.484"/>
 <polygon atv:refpx="60.419" atv:refpy="82.021" fill="#fdf90a" id="alert_increasing_min" points="75.084,70.018 51.082,70.018 63.748,94.018" stroke="#000000" stroke-width="1"/>
 <text atv:refpx="63.671" atv:refpy="79.019" fill="#000000" font-family="Arial" font-size="14" font-weight="bold" id="alertC_text_min" x="60.171" y="83.519">1</text>
 <polygon atv:refpx="14.459" atv:refpy="81.601" fill="#fdbf21" id="alert_decreasing_min" points="2.458,93.601 26.458,93.601 13.79,69.601" stroke="#000000" stroke-width="1"/>
 <text atv:refpx="15" atv:refpy="85.984" fill="#000000" font-family="Arial" font-size="14" font-weight="bold" id="alertD_text_min" text-anchor="end" x="16.5" y="90.484">1</text>
 <rect atv:refpx="-40.912" atv:refpy="-13.049" fill="#93060a" fill-opacity="0" height="42" id="click_area_alertD_min" stroke="none" stroke-width="0" width="28" x="0" y="55.484"/>
 <g atv:refpx="36.5" atv:refpy="61.484" id="Ind_Bar" transform="matrix(1,0,0,1,-2,-7.516)">
  <rect atv:refpx="38.5" atv:refpy="69" fill="#626262" height="77.366" id="Barra_Ind2" rx="7" ry="7" stroke="#000000" stroke-width="1" width="14" x="31.5" y="30.317"/>
  <path atv:refpx="38.496" atv:refpy="36.976" d="M31.826,43.257L45.178,43.257L45.08,36.1C45.08,36.1 44.046,30.754 38.676,30.694C33.305,30.633 31.876,35.603 31.876,35.603C31.876,35.603 31.777,43.318 31.826,43.257" fill="#b5b5b5" id="id_19" stroke="#000000" stroke-width="0"/>
  <path atv:refpx="38.533" atv:refpy="100.982" d="M45.204,94.701L31.852,94.701L31.95,101.858C31.95,101.858 32.985,107.205 38.355,107.265C43.726,107.324 45.154,102.356 45.154,102.356C45.154,102.356 45.252,94.641 45.204,94.701" fill="#b5b5b5" id="id_20" stroke="#000000" stroke-width="0"/>
 </g>
 <rect atv:refpx="49.396" atv:refpy="14.695" fill="#bd070d" height="23" id="alarm_square" rx="1.855" ry="1.987" stroke="#000000" stroke-width="1" text-anchor="middle" width="23" x="37.446" y="2.569"/>
 <text atv:refpx="-20.554" atv:refpy="-10.716" fill="#000000" font-family="Arial" font-size="14" font-weight="bold" id="alarm_text" text-anchor="middle" x="48.946" y="19.07">1</text>
 <rect atv:refpx="-3.405" atv:refpy="-49.206" fill="#93060a" fill-opacity="0" height="28" id="click_area_alarm" stroke="none" stroke-width="0" width="28" x="34.879" y="0"/>
 <rect atv:refpx="49.102" atv:refpy="109.129" fill="#bd070d" height="23" id="alarm_square_min" rx="1.855" ry="1.987" stroke="#000000" stroke-width="1" text-anchor="middle" width="23" x="37.152" y="97.003"/>
 <text atv:refpx="-20.848" atv:refpy="83.718" fill="#000000" font-family="Arial" font-size="14" font-weight="bold" id="alarm_text_min" text-anchor="middle" x="48.652" y="113.504">1</text>
 <rect atv:refpx="-3.983" atv:refpy="45.512" fill="#93060a" fill-opacity="0" height="28" id="click_area_alarm_min" stroke="none" stroke-width="0" width="28" x="34.301" y="94.718"/>
 <rect atv:refpx="63" atv:refpy="84.484" fill="#93060a" fill-opacity="0" height="42" id="click_area_alertC_min" stroke="none" stroke-width="0" width="28" x="49" y="65.484"/>
 <script atv:desc="" atv:href="SYSTEM.LIBRARY.PROJECT.DISPLAYSCRIPTS.atvise_Advanced_Objects_Display_Scripts.AAA_Principal_Display_Script" atv:name="" atv:type="text/ecmascript"/>
 <g atv:refpx="197.375" atv:refpy="164.707" id="Group_TankBody" transform="matrix(2.493,0,0,2.8889,88,45)">
  <path atv:refpx="43.521" atv:refpy="42.333" d="M0,78.587L5.74,82.49L81.664,82.49L87.042,78.576L87.042,6.09L81.664,2.175L5.74,2.175L0,6.287L0.365,78.577" fill="url(#SVGID_1_)" id="id_0"/>
  <path atv:refpx="43.837" atv:refpy="1.384" d="M6.444,1.826L44.941,0L81.231,1.982C55.849,3.346 17.515,2.695 6.444,1.826" fill="url(#SVGID_2_)" id="id_1"/>
  <path atv:refpx="64.902" atv:refpy="4.626" d="M81.224,1.951C70.662,2.323 46.816,2.392 42.896,2.515C42.727,4.251 42.727,7.286 42.727,7.286C49.88,7.409 83.73,6.736 87.077,5.957C84.46,4.059 81.224,1.951 81.224,1.951" fill="url(#SVGID_3_)" id="id_2"/>
  <path atv:refpx="22.179" atv:refpy="4.575" d="M5.948,1.838C16.508,2.211 40.354,2.279 44.273,2.403C44.443,4.139 44.308,7.282 44.308,7.282C37.157,7.407 3.348,7.157 0,6.377C2.618,4.48 5.948,1.838 5.948,1.838" fill="url(#SVGID_4_)" id="id_3"/>
  <polygon atv:refpx="43.538" atv:refpy="80.644" fill="url(#SVGID_5_)" id="id_4" points="0.001,78.412 0.001,78.75 5.626,82.875 81.676,82.875 87.075,78.75 87.075,78.412  "/>
  <path atv:refpx="43.987" atv:refpy="78.412" d="M87.075,76.725L86.85,77.175L83.7,78.075L79.65,78.75L74.475,79.2L71.325,79.425L67.95,79.65L64.575,79.65L60.751,79.875L56.7,79.875L52.65,80.1L35.325,80.1L31.051,79.875L27.226,79.875L23.401,79.65L19.801,79.65L16.651,79.424L13.501,79.2L8.326,78.75L4.275,78.075L1.126,77.175L0.9,76.725" fill="none" id="id_5"/>
 </g>
 <g atv:refpx="196.764" atv:refpy="323.245" id="Group_TankFrontLegs" transform="matrix(2.493,0,0,2.8889,88,45)">
  <path atv:refpx="77.467" atv:refpy="95.541" d="M82.733,81.609C82.733,80.817 80.407,80.131 77.468,80.131C74.529,80.131 72.253,80.841 72.253,81.633L72.18,110.95L82.754,110.95Z" fill="url(#SVGID_6_)" id="id_7"/>
  <rect atv:refpx="77.468" atv:refpy="111.608" fill="url(#SVGID_7_)" height="1.785" id="id_8" width="14.175" x="70.38" y="110.715"/>
  <path atv:refpx="9.788" atv:refpy="95.541" d="M15.054,81.609C15.054,80.817 12.728,80.131 9.789,80.131C6.85,80.131 4.574,80.841 4.574,81.633L4.501,110.95L15.075,110.95Z" fill="url(#SVGID_8_)" id="id_9"/>
  <rect atv:refpx="9.789" atv:refpy="111.608" fill="url(#SVGID_9_)" height="1.785" id="id_10" width="14.175" x="2.701" y="110.715"/>
 </g>
 <g atv:refpx="196.296" atv:refpy="316.286" id="Group_TankBackLegs" transform="matrix(2.493,0,0,2.8889,88,45)">
  <path atv:refpx="62.285" atv:refpy="93.225" d="M66.977,81.805C66.977,81.1 64.903,80.489 62.285,80.489C59.665,80.489 57.637,81.122 57.637,81.829L57.572,105.96L66.998,105.96Z" fill="url(#SVGID_10_)" id="id_11"/>
  <rect atv:refpx="62.283" atv:refpy="106.544" fill="url(#SVGID_11_)" height="1.591" id="id_12" width="12.633" x="55.967" y="105.748"/>
  <path atv:refpx="24.597" atv:refpy="93.212" d="M29.29,81.792C29.29,81.087 27.217,80.476 24.598,80.476C21.977,80.476 19.95,81.109 19.95,81.816L19.884,105.947L29.31,105.947Z" fill="url(#SVGID_12_)" id="id_13"/>
  <rect atv:refpx="24.597" atv:refpy="106.531" fill="url(#SVGID_13_)" height="1.591" id="id_14" width="12.634" x="18.28" y="105.735"/>
 </g>
 <svg atv:refpx="196.5" atv:refpy="169" height="310" id="id_15" transform="matrix(0.4932,0,0,0.5355,0,0)" width="440" x="178.433" xlink:href="ObjectTypes.PROJECT.Water_Tank_1.Trend" y="160.602">
  <atv:argument name="Input" prefix="base" value=".Variables.Water_Level"/>
  <atv:argument name="Alert_Range" prefix="base" value=".Parameters.Alert_Range"/>
  <atv:argument name="Object_Conditions" prefix="base" value=".Parameters.Object_Conditions"/>
  <atv:argument name="Color_Linea" value="SYSTEM.GLOBALS.Color_Global_2"/>
  <atv:argument name="Color_Banda" value="SYSTEM.GLOBALS.Color_Global_3"/>
  <atv:argument name="Display_PopUp" value="ObjectTypes.PROJECT.Water_Tank_1.General_Configuration"/>
 </svg>
 <rect atv:refpx="197.5" atv:refpy="188" fill="#000000" fill-opacity="0" height="366" id="click_area" stroke="#0000ff" stroke-width="0" width="215" x="90" y="5"/>
 <script atv:desc="" atv:name="" type="text/ecmascript"/>
</svg>
