<?xml version='1.0' encoding='UTF-8' standalone='no'?>
<svg height="186.61000000000001" version="1.2" width="204" xmlns="http://www.w3.org/2000/svg" xmlns:atv="http://webmi.atvise.com/2007/svgext" xmlns:xlink="http://www.w3.org/1999/xlink">
 <desc>Created with base Object v1.3</desc>
 <defs>
  <linearGradient gradientUnits="objectBoundingBox" id="id_33_fill_gradient" spreadMethod="reflect" x1="0.0675676" x2="0.581081" y1="1" y2="1">
   <stop offset="0" stop-color="#999999"/>
   <stop offset="1" stop-color="#e5e5e5"/>
  </linearGradient>
  <linearGradient gradientUnits="objectBoundingBox" id="id_34_fill_gradient" spreadMethod="reflect" x1="-0.135135" x2="0.405405" y1="0.986486" y2="0.972973">
   <stop offset="0" stop-color="#999999"/>
   <stop offset="1" stop-color="#e5e5e5"/>
  </linearGradient>
  <linearGradient gradientUnits="objectBoundingBox" id="id_41_fill_gradient" spreadMethod="reflect" x1="-0.135135" x2="0.405405" y1="1" y2="0.972973">
   <stop offset="0" stop-color="#999999"/>
   <stop offset="1" stop-color="#e5e5e5"/>
  </linearGradient>
  <linearGradient gradientUnits="objectBoundingBox" id="id_42_fill_gradient" spreadMethod="reflect" x1="-0.135135" x2="0.405405" y1="0.986486" y2="0.972973">
   <stop offset="0" stop-color="#999999"/>
   <stop offset="1" stop-color="#e5e5e5"/>
  </linearGradient>
  <radialGradient cx="0.5" cy="0.5" fx="0.5" fy="0.5" gradientUnits="objectBoundingBox" id="id_42_stroke_gradient" r="1">
   <stop offset="0" stop-color="#000000"/>
   <stop offset="1" stop-color="#ffffff"/>
  </radialGradient>
  <linearGradient gradientUnits="objectBoundingBox" id="id_43_fill_gradient" spreadMethod="reflect" x1="-0.135135" x2="0.405405" y1="1" y2="0.972973">
   <stop offset="0" stop-color="#999999"/>
   <stop offset="1" stop-color="#e5e5e5"/>
  </linearGradient>
  <radialGradient cx="0.5" cy="0.5" fx="0.5" fy="0.5" gradientUnits="objectBoundingBox" id="id_44_fill_gradient" r="0.514579">
   <stop offset="0.6088709677419355" stop-color="#e4e4e4"/>
   <stop offset="1" stop-color="#9a9a9a"/>
  </radialGradient>
  <radialGradient cx="0.5" cy="0.5" fx="0.5" fy="0.5" gradientUnits="objectBoundingBox" id="id_7_fill_gradient" r="0.514579">
   <stop offset="0.6088709677419355" stop-color="#e4e4e4"/>
   <stop offset="1" stop-color="#9a9a9a"/>
  </radialGradient>
  <linearGradient gradientUnits="objectBoundingBox" id="linear_0" x1="0" x2="1" y1="0" y2="1">
   <stop offset="0" stop-color="#000000"/>
   <stop offset="1" stop-color="#000000" stop-opacity="0"/>
  </linearGradient>
  <linearGradient gradientUnits="objectBoundingBox" id="SVGID_1_" x1="0.499995" x2="0.499995" y1="0.99999" y2="6.11023e-06">
   <stop offset="0" stop-color="#194C4C"/>
   <stop offset="0.53" stop-color="#99CCCC"/>
   <stop offset="0.62" stop-color="#86B9B9"/>
   <stop offset="0.8" stop-color="#558888"/>
   <stop offset="1" stop-color="#194C4C"/>
  </linearGradient>
  <linearGradient gradientUnits="objectBoundingBox" id="SVGID_2_" x1="0" x2="1.00002" y1="0.500003" y2="0.500003">
   <stop offset="0" stop-color="#194C4C"/>
   <stop offset="0.53" stop-color="#99CCCC"/>
   <stop offset="0.62" stop-color="#86B9B9"/>
   <stop offset="0.8" stop-color="#558888"/>
   <stop offset="1" stop-color="#194C4C"/>
  </linearGradient>
  <linearGradient gradientUnits="objectBoundingBox" id="SVGID_3_" x1="0.499992" x2="0.499992" y1="0.999958" y2="6.34249e-05">
   <stop offset="0" stop-color="#194C4C"/>
   <stop offset="0.53" stop-color="#99CCCC"/>
   <stop offset="0.62" stop-color="#86B9B9"/>
   <stop offset="0.8" stop-color="#558888"/>
   <stop offset="1" stop-color="#194C4C"/>
  </linearGradient>
  <linearGradient gradientUnits="objectBoundingBox" id="SVGID_4_" x1="-0.000158529" x2="0.999937" y1="0.500006" y2="0.500006">
   <stop offset="0" stop-color="#194C4C"/>
   <stop offset="0.53" stop-color="#99CCCC"/>
   <stop offset="0.62" stop-color="#86B9B9"/>
   <stop offset="0.8" stop-color="#558888"/>
   <stop offset="1" stop-color="#194C4C"/>
  </linearGradient>
  <linearGradient gradientUnits="objectBoundingBox" id="SVGID_5_" x1="1.45582e-05" x2="1.00003" y1="0.499981" y2="0.499981">
   <stop offset="0" stop-color="#194C4C"/>
   <stop offset="0.53" stop-color="#99CCCC"/>
   <stop offset="0.62" stop-color="#86B9B9"/>
   <stop offset="0.8" stop-color="#558888"/>
   <stop offset="1" stop-color="#194C4C"/>
  </linearGradient>
  <linearGradient gradientUnits="objectBoundingBox" id="SVGID_6_" x1="-0.000170765" x2="0.999898" y1="0.500002" y2="0.500002">
   <stop offset="0" stop-color="#194C4C"/>
   <stop offset="0.53" stop-color="#99CCCC"/>
   <stop offset="0.62" stop-color="#86B9B9"/>
   <stop offset="0.8" stop-color="#558888"/>
   <stop offset="1" stop-color="#194C4C"/>
  </linearGradient>
  <linearGradient gradientUnits="objectBoundingBox" id="SVGID_7_" x1="-4.29676e-05" x2="0.999943" y1="0.499981" y2="0.499981">
   <stop offset="0" stop-color="#194C4C"/>
   <stop offset="0.53" stop-color="#99CCCC"/>
   <stop offset="0.62" stop-color="#86B9B9"/>
   <stop offset="0.8" stop-color="#558888"/>
   <stop offset="1" stop-color="#194C4C"/>
  </linearGradient>
  <linearGradient gradientUnits="objectBoundingBox" id="SVGID_8_" x1="-4.4405e-05" x2="0.999911" y1="0.500038" y2="0.500038">
   <stop offset="0" stop-color="#383838"/>
   <stop offset="0.5" stop-color="#ECECEC"/>
   <stop offset="0.57" stop-color="#D9D9D9"/>
   <stop offset="0.71" stop-color="#A8A8A8"/>
   <stop offset="0.92" stop-color="#5A5A5A"/>
   <stop offset="1" stop-color="#383838"/>
  </linearGradient>
  <linearGradient gradientUnits="objectBoundingBox" id="SVGID_9_" x1="0" x2="1.00044" y1="0.500078" y2="0.500078">
   <stop offset="0" stop-color="#383838"/>
   <stop offset="0.5" stop-color="#ECECEC"/>
   <stop offset="0.57" stop-color="#D9D9D9"/>
   <stop offset="0.71" stop-color="#A8A8A8"/>
   <stop offset="0.92" stop-color="#5A5A5A"/>
   <stop offset="1" stop-color="#383838"/>
  </linearGradient>
 </defs>
 <metadata>
  <atv:parameter behavior="optional" defaultvalue="SYSTEM.GLOBALS.Color_Global_1" desc="Color" name="Color" substitute="$Color$" valuetype="global"/>
  <atv:parameter behavior="optional" defaultvalue="SYSTEM.GLOBALS.Maintenance_Boiler" desc="Global Maintenance" name="Global_Maintenance" valuetype="global"/>
  <atv:gridconfig enabled="true" gridstyle="lines" height="20" width="20"/>
  <atv:snapconfig enabled="true" height="1" width="1"/>
 </metadata>
 <text atv:refpx="121.738" atv:refpy="27.984" fill="$Color$" font-family="Arial" font-size="14" font-weight="bold" id="Title" x="100.5" y="33.484">Name</text>
 <svg atv:refpx="108" atv:refpy="174.486" height="30" id="id_2" transform="matrix(1,0,0,0.6667,0,0)" width="80" x="68" xlink:href="SYSTEM.LIBRARY.ATVISE.OBJECTDISPLAYS.Advanced.button_switch" y="246.72">
  <atv:argument name="base" prefix="base" value=".Apertura"/>
  <atv:argument name="labelOn" value="T{Stop}"/>
  <atv:argument name="labelOff" value="T{Start}"/>
  <atv:overwrite height="18.001" id="id_6" transform="matrix(1,0,0,1.4999,0,0)"/>
  <atv:overwrite id="button_label" transform="matrix(1,0,0,1.4999,0,0)" y="14.5"/>
  <atv:overwrite id="button_symbol_off" transform="matrix(1,0,0,1.4999,0,0)" y="0"/>
  <atv:overwrite id="button_symbol_on" transform="matrix(1,0,0,1.4999,0,0)" y="0"/>
  <atv:overwrite height="16.001" id="blinking_frame" transform="matrix(1,0,0,1.4999,0,0)"/>
  <atv:overwrite height="16.001" id="button_stroke" transform="matrix(1,0,0,1.4999,0,0)"/>
  <atv:overwrite height="18.001" id="button_bg" transform="matrix(1,0,0,1.4999,0,0)"/>
  <atv:overwrite height="20.001" id="outer_frame" transform="matrix(1,0,0,1.4999,0,0)"/>
 </svg>
 <text atv:refpx="90.123" atv:refpy="153.984" fill="#195c88" font-family="Arial" font-size="12" font-weight="bold" id="id_49" x="72.967" y="158.484">On/Off</text>
 <polygon atv:refpx="63.671" atv:refpy="38.519" fill="#fdf90a" id="alert_increasing" points="51.67,50.518 75.67,50.518 63.003,26.518" stroke="#000000" stroke-width="1"/>
 <g atv:refpx="24.062" atv:refpy="168.546" id="maintenance" transform="matrix(1,0,0,1,-0.5819,13.9015)">
  <rect atv:refpx="46.171" atv:refpy="204.643" fill="#2b9de8" height="24.544" id="id_39" stroke="#000000" stroke-width="1" transform="matrix(0.7071,-0.7071,0.7071,0.7071,0,0)" width="24.544" x="-104.196" y="114.505"/>
  <text atv:refpx="28" atv:refpy="149.5" fill="#000000" font-family="Arial" font-size="14" id="id_40" x="18.5" y="160">M</text>
 </g>
 <polygon atv:refpx="11.207" atv:refpy="41.103" fill="#fdbf21" id="alert_decreasing" points="25.872,29.102 1.871,29.102 14.536,53.103" stroke="#000000" stroke-width="1"/>
 <text atv:refpx="64.671" atv:refpy="43.019" fill="#000000" font-family="Arial" font-size="14" font-weight="bold" id="alertC_text" text-anchor="end" x="66.171" y="47.519">1</text>
 <text atv:refpx="14.459" atv:refpy="38.101" fill="#000000" font-family="Arial" font-size="14" font-weight="bold" id="alertD_text" x="10.959" y="42.601">1</text>
 <rect atv:refpx="9.088" atv:refpy="-57.049" fill="#93060a" fill-opacity="0" height="42" id="click_area_alertC" stroke="none" stroke-width="0" width="28" x="50" y="11.484"/>
 <rect atv:refpx="14" atv:refpy="43.484" fill="#93060a" fill-opacity="0" height="42" id="click_area_alertD" stroke="none" stroke-width="0" width="28" x="0" y="24.484"/>
 <polygon atv:refpx="60.419" atv:refpy="82.021" fill="#fdf90a" id="alert_increasing_min" points="75.084,70.018 51.082,70.018 63.748,94.018" stroke="#000000" stroke-width="1"/>
 <text atv:refpx="63.671" atv:refpy="79.019" fill="#000000" font-family="Arial" font-size="14" font-weight="bold" id="alertC_text_min" x="60.171" y="83.519">1</text>
 <polygon atv:refpx="14.459" atv:refpy="81.601" fill="#fdbf21" id="alert_decreasing_min" points="2.458,93.601 26.458,93.601 13.79,69.601" stroke="#000000" stroke-width="1"/>
 <text atv:refpx="15" atv:refpy="85.984" fill="#000000" font-family="Arial" font-size="14" font-weight="bold" id="alertD_text_min" text-anchor="end" x="16.5" y="90.484">1</text>
 <rect atv:refpx="-40.912" atv:refpy="-13.049" fill="#93060a" fill-opacity="0" height="42" id="click_area_alertD_min" stroke="none" stroke-width="0" width="28" x="0" y="55.484"/>
 <g atv:refpx="36.5" atv:refpy="61.484" id="Ind_Bar" transform="matrix(1,0,0,1,-2,-7.516)">
  <rect atv:refpx="38.5" atv:refpy="69" fill="#626262" height="77.366" id="Barra_Ind2" rx="7" ry="7" stroke="#000000" stroke-width="1" width="14" x="31.5" y="30.317"/>
  <path atv:refpx="38.496" atv:refpy="36.976" d="M31.826,43.257L45.178,43.257L45.08,36.1C45.08,36.1 44.046,30.754 38.676,30.694C33.305,30.633 31.876,35.603 31.876,35.603C31.876,35.603 31.777,43.318 31.826,43.257" fill="#b5b5b5" id="id_19" stroke="#000000" stroke-width="0"/>
  <path atv:refpx="38.533" atv:refpy="100.982" d="M45.204,94.701L31.852,94.701L31.95,101.858C31.95,101.858 32.985,107.205 38.355,107.265C43.726,107.324 45.154,102.356 45.154,102.356C45.154,102.356 45.252,94.641 45.204,94.701" fill="#b5b5b5" id="id_20" stroke="#000000" stroke-width="0"/>
 </g>
 <rect atv:refpx="49.396" atv:refpy="14.695" fill="#bd070d" height="23" id="alarm_square" rx="1.855" ry="1.987" stroke="#000000" stroke-width="1" text-anchor="middle" width="23" x="37.446" y="2.569"/>
 <text atv:refpx="-20.554" atv:refpy="-10.716" fill="#000000" font-family="Arial" font-size="14" font-weight="bold" id="alarm_text" text-anchor="middle" x="48.946" y="19.07">1</text>
 <rect atv:refpx="-3.405" atv:refpy="-49.206" fill="#93060a" fill-opacity="0" height="28" id="click_area_alarm" stroke="none" stroke-width="0" width="28" x="34.879" y="0"/>
 <rect atv:refpx="49.102" atv:refpy="109.129" fill="#bd070d" height="23" id="alarm_square_min" rx="1.855" ry="1.987" stroke="#000000" stroke-width="1" text-anchor="middle" width="23" x="37.152" y="97.003"/>
 <text atv:refpx="-20.848" atv:refpy="83.718" fill="#000000" font-family="Arial" font-size="14" font-weight="bold" id="alarm_text_min" text-anchor="middle" x="48.652" y="113.504">1</text>
 <rect atv:refpx="-3.983" atv:refpy="45.512" fill="#93060a" fill-opacity="0" height="28" id="click_area_alarm_min" stroke="none" stroke-width="0" width="28" x="34.301" y="94.718"/>
 <rect atv:refpx="63" atv:refpy="84.484" fill="#93060a" fill-opacity="0" height="42" id="click_area_alertC_min" stroke="none" stroke-width="0" width="28" x="49" y="65.484"/>
 <script atv:desc="" atv:href="SYSTEM.LIBRARY.PROJECT.DISPLAYSCRIPTS.atvise_Advanced_Objects_Display_Scripts.AAA_Principal_Display_Script" atv:name="" atv:type="text/ecmascript"/>
 <script atv:desc="" atv:name="" type="text/ecmascript"><![CDATA[












]]></script>
 <g atv:refpx="144.498" atv:refpy="81.158" id="Image1" transform="matrix(1,0,0,1,139.001,-39.516)">
  <g atv:refpx="7.115" atv:refpy="134.331" id="Group_BoilerBody" transform="matrix(1,0,0,1,-51.002,76)">
   <path atv:refpx="66.61" atv:refpy="59.57" d="M23.312,32.769L109.908,32.769L109.908,86.37L23.312,86.37Z" fill="#003333" id="id_0"/>
   <path atv:refpx="69.144" atv:refpy="57.318" d="M25.79,32.769L112.497,32.769L112.497,81.866L25.79,81.866Z" fill="url(#SVGID_1_)" id="id_1"/>
   <path atv:refpx="69.144" atv:refpy="57.318" d="M25.79,32.769L112.497,32.769L112.497,81.866L25.79,81.866Z" fill="none" id="id_3"/>
   <path atv:refpx="8.27" atv:refpy="38.456" d="M3.237,30.291L13.302,30.291L13.302,46.62L3.237,46.62Z" fill="#336666" id="id_4"/>
  </g>
  <g atv:refpx="-44.35" atv:refpy="106.236" id="Group_EqualizingPipe" transform="matrix(1,0,0,1,-51.002,76)">
   <path atv:refpx="2.31" atv:refpy="31.985" d="M0.002,51.35L0.002,12.619L4.619,12.619L4.619,51.35Z" fill="url(#SVGID_2_)" id="id_5"/>
   <path atv:refpx="6.652" atv:refpy="11.486" d="M13.302,13.851L0.001,13.851L0.001,9.121L13.302,9.121Z" fill="url(#SVGID_3_)" id="id_7"/>
  </g>
  <g atv:refpx="-41.311" atv:refpy="149.59" id="Group_Door" transform="matrix(1,0,0,1,-51.002,76)">
   <path atv:refpx="9.691" atv:refpy="73.59" d="M4.619,58.331L14.763,58.331L14.763,88.848L4.619,88.848Z" fill="#94C7C7" id="id_8"/>
  </g>
  <g atv:refpx="-37.286" atv:refpy="122.87" id="Group_ForceDraughtFanCompartment" transform="matrix(1,0,0,1,-51.002,76)">
   <path atv:refpx="17.457" atv:refpy="46.62" d="M11.601,4.392L23.312,4.392L23.312,88.848L11.601,88.848Z" fill="#8ABDBD" id="id_9"/>
   <path atv:refpx="0.5" atv:refpy="0.5" d="M0,0" fill="none" id="id_10"/>
   <path atv:refpx="8.11" atv:refpy="73.59" d="M4.619,58.331L11.6,58.331L11.6,88.848L4.619,88.848" fill="none" id="id_11"/>
   <path atv:refpx="8.392" atv:refpy="45.784" d="M6.871,32.769C6.871,32.769 9.991,34.716 9.912,46.215C9.833,57.715 9.124,58.799 9.124,58.799" fill="none" id="id_12" stroke="#4C4C4C" stroke-width="0.5"/>
   <path atv:refpx="9.123" atv:refpy="48.037" d="M6.871,37.274C6.871,37.274 11.345,38.929 11.375,46.845C11.403,54.132 10.415,58.799 10.415,58.799" fill="none" id="id_13" stroke="#4C4C4C" stroke-width="0.5"/>
  </g>
  <g atv:refpx="-27.513" atv:refpy="131.091" id="Group_ControlPanel" transform="matrix(1,0,0,1,-51.002,76)">
   <path atv:refpx="22.671" atv:refpy="55.103" d="M9.349,74.772C9.349,74.772 26.5,75.268 32.771,69.071C35.746,66.132 36.334,61.842 35.833,57.318C35.631,55.494 33.583,35.425 33.583,35.425" fill="none" id="id_14" stroke="#4C4C4C" stroke-width="0.5"/>
   <path atv:refpx="21.93" atv:refpy="53.787" d="M9.349,70.268C9.349,70.268 27.032,71.112 33.077,64.084C35.278,61.525 34.354,54.238 34.108,51.847C33.733,48.207 32.772,37.274 32.772,37.274" fill="none" id="id_15" stroke="#4C4C4C" stroke-width="0.5"/>
   <path atv:refpx="35.079" atv:refpy="59.57" d="M32.771,56.079L37.388,56.079L37.388,63.06L32.771,63.06Z" fill="#CCCCCC" id="id_16" stroke="#FFFFFF" stroke-width="0.5"/>
   <path atv:refpx="35.079" atv:refpy="59.508" d="M32.771,63.061L37.388,63.061L37.388,55.956" fill="none" id="id_17" stroke="#4C4C4C" stroke-width="0.5"/>
   <path atv:refpx="35.206" atv:refpy="59.697" d="M32.771,63.315L32.771,56.08L37.641,56.08" fill="none" id="id_18" stroke="#FFFFFF" stroke-width="0.5"/>
  </g>
  <g atv:refpx="14.594" atv:refpy="105.278" id="Group_SafetyValves" transform="matrix(1,0,0,1,-51.002,76)">
   <path atv:refpx="76.013" atv:refpy="33.726" d="M74.436,58.331L74.436,9.121L77.59,9.121L77.59,58.331Z" fill="url(#SVGID_4_)" id="id_21"/>
   <path atv:refpx="76.181" atv:refpy="33.839" d="M72.747,44.367L72.747,23.31L79.616,23.31L79.616,44.367Z" fill="url(#SVGID_5_)" id="id_22"/>
   <path atv:refpx="55.068" atv:refpy="33.839" d="M51.577,44.367L51.577,23.31L58.559,23.31L58.559,44.367Z" fill="#4C7F7F" id="id_23"/>
   <path atv:refpx="55.067" atv:refpy="33.839" d="M52.252,44.367L52.252,23.31L57.882,23.31L57.882,44.367Z" fill="#5C8F8F" id="id_24"/>
   <path atv:refpx="55.067" atv:refpy="33.839" d="M52.928,44.367L52.928,23.31L57.206,23.31L57.206,44.367Z" fill="#6B9E9E" id="id_25"/>
   <path atv:refpx="55.068" atv:refpy="33.839" d="M53.604,44.367L53.604,23.31L56.532,23.31L56.532,44.367Z" fill="#7AADAD" id="id_26"/>
   <path atv:refpx="55.068" atv:refpy="33.839" d="M54.279,44.367L54.279,23.31L55.856,23.31L55.856,44.367Z" fill="#8ABDBD" id="id_27"/>
   <path atv:refpx="55.067" atv:refpy="33.839" d="M54.955,44.367L54.955,23.31L55.18,23.31L55.18,44.367Z" fill="#99CCCC" id="id_28"/>
   <path atv:refpx="55.068" atv:refpy="33.839" d="M53.604,58.556L53.604,9.121L56.532,9.121L56.532,58.556Z" fill="url(#SVGID_6_)" id="id_29"/>
   <path atv:refpx="55.068" atv:refpy="33.839" d="M51.577,44.367L51.577,23.31L58.559,23.31L58.559,44.367Z" fill="url(#SVGID_7_)" id="id_30"/>
   <path atv:refpx="55.068" atv:refpy="2.646" d="M54.617,5.292L53.942,3.715L53.942,1.575L54.617,0L55.518,0L56.194,1.576L56.194,3.716L55.518,5.292Z" fill="url(#SVGID_8_)" id="id_31"/>
   <path atv:refpx="55.067" atv:refpy="7.207" d="M54.73,5.292L54.73,9.121L55.404,9.121L55.404,5.292Z" fill="url(#SVGID_9_)" id="id_32"/>
   <path atv:refpx="55.068" atv:refpy="55.516" d="M58.559,56.079L51.577,56.079L51.577,54.953L58.559,54.953Z" fill="#336666" id="id_33"/>
   <path atv:refpx="76.069" atv:refpy="55.516" d="M79.616,56.079L72.521,56.079L72.521,54.953L79.616,54.953Z" fill="#336666" id="id_34"/>
  </g>
  <g atv:refpx="16.903" atv:refpy="160.174" id="Group_BaseBody" transform="matrix(1,0,0,1,-51.002,76)">
   <path atv:refpx="67.905" atv:refpy="86.482" d="M23.312,84.118L112.498,84.118L112.498,88.847L23.312,88.847Z" fill="#336666" id="id_35"/>
   <path atv:refpx="31.59" atv:refpy="81.809" d="M28.042,84.118L30.52,79.5L32.772,79.5L35.137,84.118Z" fill="#669999" id="id_36"/>
   <path atv:refpx="106.474" atv:refpy="81.809" d="M103.039,84.118L105.516,79.5L107.769,79.5L109.909,84.118Z" fill="#669999" id="id_37"/>
  </g>
 </g>
 <rect atv:refpx="141" atv:refpy="89" fill="#000000" fill-opacity="0" height="110" id="click_area" stroke="#0000ff" stroke-width="0" width="120" x="81" y="34"/>
</svg>
