<!DOCTYPE svg PUBLIC '-//W3C//DTD SVG 20000303 Stylable//EN' 'http://www.w3.org/TR/2000/03/WD-SVG-20000303/DTD/svg-20000303-stylable.dtd'>
<svg height="999" width="905" xmlns="http://www.w3.org/2000/svg" xmlns:atv="http://webmi.atvise.com/2007/svgext" xmlns:xlink="http://www.w3.org/1999/xlink">
 <defs/>
 <metadata>
  <atv:gridconfig enabled="false" gridstyle="lines" height="20" width="20"/>
  <atv:snapconfig enabled="false" height="10" width="10"/>
 </metadata>
 <g atv:refpx="452" atv:refpy="499.5" id="Image_1">
  <path atv:refpx="417.5" atv:refpy="453" d="M0,36L835,36L835,870L0,870Z" fill="#f2e5cc" id="id_0"/>
  <path atv:refpx="417.5" atv:refpy="574.5" d="M0,629L835,279L835,870L0,870Z" fill="#ede0c7" id="id_1"/>
  <path atv:refpx="417.5" atv:refpy="591.5" d="M0,663L835,313L835,870L0,870Z" fill="#e8dbc2" id="id_2"/>
  <path atv:refpx="417.5" atv:refpy="617.5" d="M0,715L835,365L835,870L0,870Z" fill="#e3d6bd" id="id_3"/>
  <path atv:refpx="417.5" atv:refpy="453" d="M0,36L835,36L835,870L0,870Z" fill="none" id="id_4" stroke="#4c4c4c" stroke-width="2"/>
  <path atv:refpx="417" atv:refpy="592" d="M115,499L719,499L719,685L115,685Z" fill="#51607f" id="id_5"/>
  <path atv:refpx="186" atv:refpy="606" d="M165,585L207,585L207,627L165,627Z" fill="#d94000" id="id_6"/>
  <path atv:refpx="186" atv:refpy="544" d="M165,523L207,523L207,565L165,565Z" fill="#333" id="id_7"/>
  <path atv:refpx="517" atv:refpy="535" d="M479,523L555,523L555,547L479,547Z" fill="#d94000" id="id_8"/>
  <path atv:refpx="499" atv:refpy="569" d="M487,557L511,557L511,581L487,581Z" fill="#000" id="id_9"/>
  <path atv:refpx="533" atv:refpy="569" d="M521,557L545,557L545,581L521,581Z" fill="#000" id="id_10"/>
  <path atv:refpx="499" atv:refpy="602" d="M487,589L511,589L511,615L487,615Z" fill="#000" id="id_11"/>
  <path atv:refpx="533" atv:refpy="602" d="M521,589L545,589L545,615L521,615Z" fill="#000" id="id_12"/>
  <path atv:refpx="635" atv:refpy="535" d="M597,523L673,523L673,547L597,547Z" fill="#d94000" id="id_13"/>
  <path atv:refpx="618" atv:refpy="569" d="M605,557L631,557L631,581L605,581Z" fill="#000" id="id_14"/>
  <path atv:refpx="652" atv:refpy="569" d="M639,557L665,557L665,581L639,581Z" fill="#000" id="id_15"/>
  <path atv:refpx="618" atv:refpy="602" d="M605,589L631,589L631,615L605,615Z" fill="#000" id="id_16"/>
  <path atv:refpx="652" atv:refpy="602" d="M639,589L665,589L665,615L639,615Z" fill="#000" id="id_17"/>
  <path atv:refpx="244" atv:refpy="569" d="M231,557L257,557L257,581L231,581Z" fill="#000" id="id_18"/>
  <path atv:refpx="244" atv:refpy="602" d="M231,589L257,589L257,615L231,615Z" fill="#000" id="id_19"/>
  <path atv:refpx="516" atv:refpy="511.5" d="M499,511L533,511" fill="none" id="id_20" stroke="#fff" stroke-width="2"/>
  <path atv:refpx="632" atv:refpy="511.5" d="M615,511L649,511" fill="none" id="id_21" stroke="#fff" stroke-width="2"/>
  <path atv:refpx="609" atv:refpy="661.5" d="M533,661L685,661" fill="none" id="id_22" stroke="#fff" stroke-width="2"/>
  <path atv:refpx="417" atv:refpy="324" d="M115,231L719,231L719,417L115,417Z" fill="#51607f" id="id_23"/>
  <path atv:refpx="186" atv:refpy="338" d="M165,317L207,317L207,359L165,359Z" fill="#d94000" id="id_24"/>
  <path atv:refpx="186" atv:refpy="276" d="M165,255L207,255L207,297L165,297Z" fill="#333" id="id_25"/>
  <path atv:refpx="517" atv:refpy="268" d="M479,255L555,255L555,281L479,281Z" fill="#d94000" id="id_26"/>
  <path atv:refpx="499" atv:refpy="302" d="M487,289L511,289L511,315L487,315Z" fill="#000" id="id_27"/>
  <path atv:refpx="533" atv:refpy="302" d="M521,289L545,289L545,315L521,315Z" fill="#000" id="id_28"/>
  <path atv:refpx="499" atv:refpy="335" d="M487,323L511,323L511,347L487,347Z" fill="#000" id="id_29"/>
  <path atv:refpx="533" atv:refpy="335" d="M521,323L545,323L545,347L521,347Z" fill="#000" id="id_30"/>
  <path atv:refpx="635" atv:refpy="268" d="M597,255L673,255L673,281L597,281Z" fill="#d94000" id="id_31"/>
  <path atv:refpx="618" atv:refpy="302" d="M605,289L631,289L631,315L605,315Z" fill="#000" id="id_32"/>
  <path atv:refpx="652" atv:refpy="302" d="M639,289L665,289L665,315L639,315Z" fill="#000" id="id_33"/>
  <path atv:refpx="618" atv:refpy="335" d="M605,323L631,323L631,347L605,347Z" fill="#000" id="id_34"/>
  <path atv:refpx="652" atv:refpy="335" d="M639,323L665,323L665,347L639,347Z" fill="#000" id="id_35"/>
  <path atv:refpx="244" atv:refpy="302" d="M231,289L257,289L257,315L231,315Z" fill="#000" id="id_36"/>
  <path atv:refpx="244" atv:refpy="335" d="M231,323L257,323L257,347L231,347Z" fill="#000" id="id_37"/>
  <path atv:refpx="516" atv:refpy="243.5" d="M499,243L533,243" fill="none" id="id_38" stroke="#fff" stroke-width="2"/>
  <path atv:refpx="632" atv:refpy="243.5" d="M615,243L649,243" fill="none" id="id_39" stroke="#fff" stroke-width="2"/>
  <path atv:refpx="609" atv:refpy="395.5" d="M533,395L685,395" fill="none" id="id_40" stroke="#fff" stroke-width="2"/>
  <path atv:refpx="155" atv:refpy="934.5" d="M109,870L201,870L201,999L109,999Z" fill="#e5cb98" id="id_41" stroke="#4c4c4c" stroke-width="2"/>
  <path atv:refpx="318" atv:refpy="934.5" d="M271,870L365,870L365,999L271,999Z" fill="#e5cb98" id="id_42" stroke="#4c4c4c" stroke-width="2"/>
  <path atv:refpx="551" atv:refpy="934.5" d="M505,870L597,870L597,999L505,999Z" fill="#e5cb98" id="id_43" stroke="#4c4c4c" stroke-width="2"/>
  <path atv:refpx="713" atv:refpy="934.5" d="M667,870L759,870L759,999L667,999Z" fill="#e5cb98" id="id_44" stroke="#4c4c4c" stroke-width="2"/>
  <circle atv:refpx="156" atv:refpy="929" cx="156" cy="929" fill="#333" id="id_45" r="22"/>
  <circle atv:refpx="318" atv:refpy="929" cx="318" cy="929" fill="#333" id="id_46" r="23"/>
  <circle atv:refpx="550" atv:refpy="929" cx="550" cy="929" fill="#333" id="id_47" r="23"/>
  <circle atv:refpx="714" atv:refpy="929" cx="714" cy="929" fill="#333" id="id_48" r="23"/>
  <path atv:refpx="207" atv:refpy="934.5" d="M201,999L213,993L213,870L201,870Z" fill="#bfb299" id="id_49" stroke="#4c4c4c" stroke-width="2"/>
  <path atv:refpx="371" atv:refpy="934.5" d="M365,999L377,993L377,870L365,870Z" fill="#bfb299" id="id_50" stroke="#4c4c4c" stroke-width="2"/>
  <path atv:refpx="603" atv:refpy="934.5" d="M597,999L609,993L609,870L597,870Z" fill="#bfb299" id="id_51" stroke="#4c4c4c" stroke-width="2"/>
  <path atv:refpx="764.5" atv:refpy="934.5" d="M759,999L770,993L770,870L759,870Z" fill="#bfb299" id="id_52" stroke="#4c4c4c" stroke-width="2"/>
  <path atv:refpx="870" atv:refpy="435" d="M905,0L835,36L835,870L905,835Z" fill="#bfb299" id="id_53" stroke="#4c4c4c" stroke-width="2"/>
  <path atv:refpx="452.5" atv:refpy="18" d="M905,0L835,36L0,36L69,0Z" fill="#faf5eb" id="id_54" stroke="#4c4c4c" stroke-width="2"/>
 </g>
</svg>
