<svg xmlns:xlink="http://www.w3.org/1999/xlink" xml:space="preserve" xmlns="http://www.w3.org/2000/svg" version="1.1" height="66.900000000000006" xmlns:atv="http://webmi.atvise.com/2007/svgext" width="111.26000000000001" enable-background="new 0 0 112.5 67.903">
 <defs>
  <linearGradient gradientUnits="objectBoundingBox" id="SVGID_1_" x1="1.46277" x2="-0.462784" y1="0.873584" y2="0.126434">
   <stop offset="0" stop-color="#CCCCCC"/>
   <stop offset="0.35" stop-color="#CCCCCC"/>
   <stop offset="0.45" stop-color="#E5E5E5"/>
   <stop offset="1" stop-color="#E5E5E5"/>
  </linearGradient>
 </defs>
 <metadata>
  <atv:gridconfig enabled="false" gridstyle="lines" height="20" width="20"/>
  <atv:snapconfig enabled="false" height="10" width="10"/>
 </metadata>
 <g atv:refpx="50.843" atv:refpy="34.571" id="Group_Air_Conditioner" transform="matrix(1,0,0,1,-0.565,-0.563)">
  <path atv:refpx="51.239" atv:refpy="35.134" d="M4.281,7.883L4.281,62.385L98.198,62.385L98.198,7.883Z" fill="#CCCCCC" id="id_0" stroke="#4C4C4C" stroke-width="0.25"/>
  <path atv:refpx="51.239" atv:refpy="35.134" d="M4.281,7.883L4.281,62.385L6.759,59.908L6.759,10.36L95.719,10.472L98.198,7.882Z" fill="#999999" id="id_1"/>
  <path atv:refpx="51.407" atv:refpy="35.134" d="M98.535,62.385L98.535,7.883L96.056,10.586L96.056,60.245L6.758,60.245L4.279,62.385L98.535,62.385Z" fill="#E5E5E5" id="id_2"/>
 </g>
 <g atv:refpx="16.666" atv:refpy="34.627" id="Group_Vent" transform="matrix(1,0,0,1,-0.565,-0.563)">
  <path atv:refpx="17.231" atv:refpy="35.191" d="M5.52,9.234L5.52,61.147L28.942,61.147L28.942,9.234Z" fill="#4C4C4C" id="id_3" stroke="#4C4C4C" stroke-width="0.25"/>
 </g>
 <g atv:refpx="16.666" atv:refpy="34.627" id="Group_Mesh" transform="matrix(1,0,0,1,-0.565,-0.563)">
  <path atv:refpx="25.726" atv:refpy="35.191" d="M25.226,9.234L25.226,61.147" fill="none" id="id_4" stroke="#999999" stroke-width="0.25"/>
  <path atv:refpx="17.844" atv:refpy="35.191" d="M17.344,9.234L17.344,61.147" fill="none" id="id_5" stroke="#999999" stroke-width="0.25"/>
  <path atv:refpx="9.736" atv:refpy="35.191" d="M9.236,9.234L9.236,61.147" fill="none" id="id_6" stroke="#999999" stroke-width="0.25"/>
  <path atv:refpx="17.231" atv:refpy="12.211" d="M5.52,11.711L28.942,11.711" fill="none" id="id_7" stroke="#999999" stroke-width="0.25"/>
  <path atv:refpx="17.231" atv:refpy="19.644" d="M5.52,19.144L28.942,19.144" fill="none" id="id_8" stroke="#999999" stroke-width="0.25"/>
  <path atv:refpx="17.231" atv:refpy="15.927" d="M5.52,15.427L28.942,15.427" fill="none" id="id_9" stroke="#999999" stroke-width="0.25"/>
  <path atv:refpx="17.231" atv:refpy="23.359" d="M5.52,22.859L28.942,22.859" fill="none" id="id_10" stroke="#999999" stroke-width="0.25"/>
  <path atv:refpx="17.231" atv:refpy="30.792" d="M5.52,30.292L28.942,30.292" fill="none" id="id_11" stroke="#999999" stroke-width="0.25"/>
  <path atv:refpx="17.231" atv:refpy="27.076" d="M5.52,26.576L28.942,26.576" fill="none" id="id_12" stroke="#999999" stroke-width="0.25"/>
  <path atv:refpx="17.231" atv:refpy="34.283" d="M5.52,33.783L28.942,33.783" fill="none" id="id_13" stroke="#999999" stroke-width="0.25"/>
  <path atv:refpx="17.231" atv:refpy="41.715" d="M5.52,41.215L28.942,41.215" fill="none" id="id_14" stroke="#999999" stroke-width="0.25"/>
  <path atv:refpx="17.231" atv:refpy="37.999" d="M5.52,37.499L28.942,37.499" fill="none" id="id_15" stroke="#999999" stroke-width="0.25"/>
  <path atv:refpx="17.231" atv:refpy="45.431" d="M5.52,44.931L28.942,44.931" fill="none" id="id_16" stroke="#999999" stroke-width="0.25"/>
  <path atv:refpx="17.231" atv:refpy="52.864" d="M5.52,52.364L28.942,52.364" fill="none" id="id_17" stroke="#999999" stroke-width="0.25"/>
  <path atv:refpx="17.231" atv:refpy="49.147" d="M5.52,48.647L28.942,48.647" fill="none" id="id_18" stroke="#999999" stroke-width="0.25"/>
  <path atv:refpx="17.231" atv:refpy="60.295" d="M5.52,59.795L28.942,59.795" fill="none" id="id_19" stroke="#999999" stroke-width="0.25"/>
  <path atv:refpx="17.231" atv:refpy="56.579" d="M5.52,56.079L28.942,56.079" fill="none" id="id_20" stroke="#999999" stroke-width="0.25"/>
 </g>
 <g atv:refpx="40.764" atv:refpy="33.952" id="Group_Control_Box" transform="matrix(1,0,0,1,-0.565,-0.563)">
  <path atv:refpx="41.329" atv:refpy="34.515" d="M32.658,7.883L50,7.883L50,61.147L32.658,61.147Z" fill="url(#SVGID_1_)" id="id_21" stroke="#4C4C4C" stroke-width="0.1"/>
 </g>
 <g atv:refpx="40.765" atv:refpy="45.099" id="Group_Switch_Box" transform="matrix(1,0,0,1,-0.565,-0.563)">
  <path atv:refpx="41.33" atv:refpy="45.663" d="M36.375,52.475L36.375,38.85L46.285,38.85L46.285,52.475Z" fill="#B2B2B2" id="id_22" stroke="#4C4C4C" stroke-width="0.25"/>
  <path atv:refpx="41.33" atv:refpy="45.663" d="M36.375,52.475L46.285,52.475L46.285,38.85" fill="none" id="id_23" stroke="#FFFFFF" stroke-width="0.25"/>
  <path atv:refpx="43.188" atv:refpy="48.141" d="M42.568,47.521L43.806,47.521L43.806,48.76L42.568,48.76Z" fill="#404040" id="id_24"/>
  <path atv:refpx="43.188" atv:refpy="43.186" d="M42.568,42.567L43.806,42.567L43.806,43.805L42.568,43.805Z" fill="#404040" id="id_25"/>
 </g>
 <g atv:refpx="72.914" atv:refpy="19.762" id="Group_Air_Blower" transform="matrix(1,0,0,1,-0.565,-0.563)">
  <path atv:refpx="73.479" atv:refpy="20.325" d="M51.239,15.427L51.239,25.224L95.719,25.224L95.719,15.427Z" fill="#7F7F7F" id="id_26"/>
  <path atv:refpx="92.002" atv:refpy="24.042" d="M88.287,22.859L89.525,25.224L94.48,25.224L95.718,22.859Z" fill="#D9D9D9" id="id_27"/>
  <path atv:refpx="92.002" atv:refpy="21.509" d="M88.287,20.27L89.525,22.748L94.48,22.748L95.718,20.27Z" fill="#D9D9D9" id="id_28"/>
  <path atv:refpx="92.002" atv:refpy="19.088" d="M88.287,17.905L89.525,20.27L94.48,20.27L95.718,17.905Z" fill="#D9D9D9" id="id_29"/>
  <path atv:refpx="92.002" atv:refpy="16.61" d="M88.287,15.427L89.525,17.792L94.48,17.792L95.718,15.427Z" fill="#D9D9D9" id="id_30"/>
  <path atv:refpx="84.627" atv:refpy="16.61" d="M80.855,15.427L82.093,17.792L87.048,17.792L88.4,15.427Z" fill="#D9D9D9" id="id_31"/>
  <path atv:refpx="84.627" atv:refpy="19.088" d="M80.855,17.905L82.093,20.27L87.048,20.27L88.4,17.905Z" fill="#D9D9D9" id="id_32"/>
  <path atv:refpx="84.627" atv:refpy="21.509" d="M80.855,20.27L82.093,22.748L87.048,22.748L88.4,20.27Z" fill="#D9D9D9" id="id_33"/>
  <path atv:refpx="84.627" atv:refpy="24.042" d="M80.855,22.859L82.093,25.224L87.048,25.224L88.4,22.859Z" fill="#D9D9D9" id="id_34"/>
  <path atv:refpx="77.139" atv:refpy="24.042" d="M73.423,22.859L74.662,25.224L79.616,25.224L80.855,22.859Z" fill="#D9D9D9" id="id_35"/>
  <path atv:refpx="77.139" atv:refpy="21.509" d="M73.423,20.27L74.662,22.748L79.616,22.748L80.855,20.27Z" fill="#D9D9D9" id="id_36"/>
  <path atv:refpx="77.139" atv:refpy="19.088" d="M73.423,17.905L74.662,20.27L79.616,20.27L80.855,17.905Z" fill="#D9D9D9" id="id_37"/>
  <path atv:refpx="77.139" atv:refpy="16.61" d="M73.423,15.427L74.662,17.792L79.616,17.792L80.855,15.427Z" fill="#D9D9D9" id="id_38"/>
  <path atv:refpx="69.82" atv:refpy="16.61" d="M66.104,15.427L67.342,17.792L72.184,17.792L73.536,15.427Z" fill="#D9D9D9" id="id_39"/>
  <path atv:refpx="69.82" atv:refpy="19.088" d="M66.104,17.905L67.342,20.27L72.184,20.27L73.536,17.905Z" fill="#D9D9D9" id="id_40"/>
  <path atv:refpx="69.82" atv:refpy="21.509" d="M66.104,20.27L67.342,22.748L72.184,22.748L73.536,20.27Z" fill="#D9D9D9" id="id_41"/>
  <path atv:refpx="69.82" atv:refpy="24.042" d="M66.104,22.859L67.342,25.224L72.184,25.224L73.536,22.859Z" fill="#D9D9D9" id="id_42"/>
  <path atv:refpx="62.388" atv:refpy="24.042" d="M58.671,22.859L59.91,25.224L64.751,25.224L66.104,22.859Z" fill="#D9D9D9" id="id_43"/>
  <path atv:refpx="62.388" atv:refpy="21.509" d="M58.671,20.27L59.91,22.748L64.751,22.748L66.104,20.27Z" fill="#D9D9D9" id="id_44"/>
  <path atv:refpx="62.388" atv:refpy="19.088" d="M58.671,17.905L59.91,20.27L64.751,20.27L66.104,17.905Z" fill="#D9D9D9" id="id_45"/>
  <path atv:refpx="62.388" atv:refpy="16.61" d="M58.671,15.427L59.91,17.792L64.751,17.792L66.104,15.427Z" fill="#D9D9D9" id="id_46"/>
  <path atv:refpx="54.955" atv:refpy="16.61" d="M51.239,15.427L52.477,17.792L57.432,17.792L58.67,15.427Z" fill="#D9D9D9" id="id_47"/>
  <path atv:refpx="54.955" atv:refpy="19.088" d="M51.239,17.905L52.477,20.27L57.432,20.27L58.67,17.905Z" fill="#D9D9D9" id="id_48"/>
  <path atv:refpx="54.955" atv:refpy="21.509" d="M51.239,20.27L52.477,22.748L57.432,22.748L58.67,20.27Z" fill="#D9D9D9" id="id_49"/>
  <path atv:refpx="54.955" atv:refpy="24.042" d="M51.239,22.859L52.477,25.224L57.432,25.224L58.67,22.859Z" fill="#D9D9D9" id="id_50"/>
 </g>
 <g atv:refpx="55.629" atv:refpy="61.738" id="Group_Bottom_Support" transform="matrix(1,0,0,1,-0.565,-0.563)">
  <path atv:refpx="106.868" atv:refpy="62.385" d="M101.913,62.385L111.822,57.43L111.822,62.385L101.913,67.34Z" fill="#CCCCCC" id="id_51" stroke="#4C4C4C" stroke-width="0.25"/>
  <path atv:refpx="105.629" atv:refpy="59.907" d="M100.674,62.385L110.584,57.43" fill="none" id="id_52" stroke="#4C4C4C" stroke-width="0.25"/>
  <path atv:refpx="51.239" atv:refpy="64.863" d="M0.565,67.34L0.565,62.385L101.913,62.385L101.913,67.34Z" fill="#E5E5E5" id="id_53" stroke="#4C4C4C" stroke-width="0.25"/>
 </g>
 <g atv:refpx="55.629" atv:refpy="30.911" id="Group_Frame" transform="matrix(1,0,0,1,-0.565,-0.563)">
  <path atv:refpx="106.248" atv:refpy="32.713" d="M100.674,7.883L110.584,3.041L110.584,57.431L111.822,57.431L101.913,62.385L100.673,62.385Z" fill="#B2B2B2" id="id_54" stroke="#4C4C4C" stroke-width="0.25"/>
  <path atv:refpx="106.868" atv:refpy="4.223" d="M101.913,5.518L111.822,0.562L111.822,3.041L101.913,7.882Z" fill="#CCCCCC" id="id_55" stroke="#4C4C4C" stroke-width="0.25"/>
  <path atv:refpx="56.194" atv:refpy="3.04" d="M10.475,0.563L111.823,0.563L101.913,5.518L0.565,5.518Z" fill="#F2F2F2" id="id_56" stroke="#4C4C4C" stroke-width="0.25"/>
  <path atv:refpx="99.436" atv:refpy="35.134" d="M98.197,62.385L98.197,7.883L100.674,7.883L100.674,62.385Z" fill="#E5E5E5" id="id_57" stroke="#4C4C4C" stroke-width="0.25"/>
  <path atv:refpx="3.042" atv:refpy="35.134" d="M1.804,62.385L1.804,7.883L4.281,7.883L4.281,62.385Z" fill="#E5E5E5" id="id_58" stroke="#4C4C4C" stroke-width="0.25"/>
  <path atv:refpx="51.239" atv:refpy="6.7" d="M0.565,7.883L0.565,5.518L101.913,5.518L101.913,7.883Z" fill="#E5E5E5" id="id_59" stroke="#4C4C4C" stroke-width="0.25"/>
 </g>
 <g atv:refpx="46.395" atv:refpy="61.885" id="Group_Vent2" transform="matrix(1,0,0,1,-0.565,-0.563)">
  <path atv:refpx="45.545" atv:refpy="64.862" d="M45.045,62.385L45.045,67.34" fill="none" id="id_60" stroke="#4C4C4C" stroke-width="0.25"/>
  <path atv:refpx="55.455" atv:refpy="64.862" d="M54.955,62.385L54.955,67.34" fill="none" id="id_61" stroke="#4C4C4C" stroke-width="0.25"/>
  <path atv:refpx="41.329" atv:refpy="59.907" d="M40.091,62.385L40.091,58.669L41.329,57.43L42.568,58.669L42.568,62.385Z" fill="#7F7F7F" id="id_62" stroke="#4C4C4C" stroke-width="0.25"/>
  <path atv:refpx="25.226" atv:refpy="64.863" d="M17.907,66.102L16.555,64.863L17.907,63.624L32.658,63.624L33.897,64.863L32.658,66.102Z" fill="#4C4C4C" id="id_63"/>
  <path atv:refpx="11.712" atv:refpy="64.863" d="M11.713,66.102L10.473,64.863L11.713,63.624L12.95,64.863Z" fill="#4C4C4C" id="id_64"/>
  <path atv:refpx="6.759" atv:refpy="64.863" d="M6.758,66.102L5.52,64.863L6.758,63.624L7.997,64.863Z" fill="#4C4C4C" id="id_65"/>
  <path atv:refpx="79.73" atv:refpy="64.863" d="M72.297,66.102L71.059,64.863L72.297,63.624L87.161,63.624L88.4,64.863L87.161,66.102Z" fill="#4C4C4C" id="id_66"/>
  <path atv:refpx="66.104" atv:refpy="64.863" d="M66.104,66.102L64.866,64.863L66.104,63.624L67.342,64.863Z" fill="#4C4C4C" id="id_67"/>
  <path atv:refpx="61.148" atv:refpy="64.863" d="M61.148,66.102L59.91,64.863L61.148,63.624L62.386,64.863Z" fill="#4C4C4C" id="id_68"/>
 </g>
</svg>
