<!DOCTYPE svg PUBLIC '-//W3C//DTD SVG 1.1//EN' 'http://www.w3.org/Graphics/SVG/1.1/DTD/svg11.dtd'>
<svg enable-background="new 0 0 131.25 94.428" height="94.427999999999997" version="1.1" width="131.25" xml:space="preserve" xmlns="http://www.w3.org/2000/svg" xmlns:atv="http://webmi.atvise.com/2007/svgext" xmlns:xlink="http://www.w3.org/1999/xlink">
 <defs>
  <linearGradient gradientUnits="objectBoundingBox" id="SVGID_1_" x1="0.499993" x2="0.499993" y1="1.00858" y2="-0.000115148">
   <stop offset="0" stop-color="#545454"/>
   <stop offset="0.5" stop-color="#B2B2B2"/>
   <stop offset="1" stop-color="#545454"/>
  </linearGradient>
  <linearGradient gradientUnits="objectBoundingBox" id="SVGID_2_" x1="1.92493e-05" x2="0.999937" y1="0.500023" y2="0.500023">
   <stop offset="0" stop-color="#7A7A7A"/>
   <stop offset="0.5" stop-color="#CCCCCC"/>
   <stop offset="1" stop-color="#7A7A7A"/>
  </linearGradient>
  <linearGradient gradientUnits="objectBoundingBox" id="SVGID_3_" x1="-9.76631e-05" x2="0.999965" y1="0.5" y2="0.5">
   <stop offset="0" stop-color="#7A7A7A"/>
   <stop offset="0.5" stop-color="#CCCCCC"/>
   <stop offset="1" stop-color="#7A7A7A"/>
  </linearGradient>
  <linearGradient gradientUnits="objectBoundingBox" id="SVGID_4_" x1="0.499996" x2="0.499996" y1="0.984327" y2="0.0182627">
   <stop offset="0" stop-color="#A1A1A1"/>
   <stop offset="0.5" stop-color="#F2F2F2"/>
   <stop offset="1" stop-color="#A1A1A1"/>
  </linearGradient>
  <linearGradient gradientUnits="objectBoundingBox" id="SVGID_5_" x1="0.500175" x2="0.499821" y1="1.03675" y2="-0.0451863">
   <stop offset="0" stop-color="#999999"/>
   <stop offset="0.5" stop-color="#FFFFFF"/>
   <stop offset="1" stop-color="#999999"/>
  </linearGradient>
  <linearGradient gradientUnits="objectBoundingBox" id="SVGID_6_" x1="0.491108" x2="0.509055" y1="1.00335" y2="-0.0126803">
   <stop offset="0.04" stop-color="#4C4C4C"/>
   <stop offset="0.73" stop-color="#EDEDED"/>
   <stop offset="1" stop-color="#E5E5E5"/>
  </linearGradient>
 </defs>
 <metadata>
  <atv:gridconfig enabled="false" gridstyle="lines" height="20" width="20"/>
  <atv:snapconfig enabled="false" height="10" width="10"/>
 </metadata>
 <g atv:refpx="65.623" atv:refpy="47.151" id="id_58">
  <g atv:refpx="82.063" atv:refpy="56.42" id="Group_Base">
   <path atv:refpx="105.67" atv:refpy="72.859" d="M85.615,91.271L125.725,91.271L125.725,54.447L85.615,54.447Z" fill="#333333" id="id_0" stroke="#4C4C4C" stroke-width="0.25"/>
   <path atv:refpx="72.463" atv:refpy="90.021" d="M38.401,94.427L106.525,94.427L106.525,85.615L38.401,85.615Z" fill="#191919" id="id_1" stroke="#4C4C4C" stroke-width="0.25"/>
   <path atv:refpx="115.27" atv:refpy="31.236" d="M108.103,44.058L122.437,44.058L122.437,18.413L108.103,18.413Z" fill="#333333" id="id_2" stroke="#4C4C4C" stroke-width="0.25"/>
  </g>
  <g atv:refpx="91.993" atv:refpy="46.424" id="Group_RightBody">
   <path atv:refpx="91.993" atv:refpy="46.426" d="M70.359,3.099L82.458,3.099L82.458,-0.035L86.403,-0.035L86.403,7.233L113.626,7.233L113.626,85.619L86.404,85.619L86.404,92.888L82.459,92.888L82.459,89.61L70.359,89.61Z" fill="url(#SVGID_1_)" id="id_3"/>
   <path atv:refpx="91.993" atv:refpy="46.424" d="M70.359,3.158L82.458,3.158L82.458,0.001L86.403,0.001L86.403,7.234L113.626,7.234L113.626,85.615L86.404,85.615L86.404,92.848L82.459,92.848L82.459,89.692L70.359,89.692Z" fill="none" id="id_4" stroke="#4C4C4C" stroke-width="0.25"/>
   <path atv:refpx="82.958" atv:refpy="46.425" d="M82.458,89.692L82.458,3.158" fill="none" id="id_5" stroke="#4C4C4C" stroke-width="0.25"/>
   <path atv:refpx="86.904" atv:refpy="46.425" d="M86.404,85.615L86.404,7.234" fill="none" id="id_6" stroke="#4C4C4C" stroke-width="0.25"/>
  </g>
  <g atv:refpx="108.103" atv:refpy="45.208" id="Group_LiquidTank">
   <path atv:refpx="108.103" atv:refpy="45.212" d="M117.44,21.569C117.44,21.569 116.694,20.9 116.387,20.779C112.532,19.267 103.747,19.471 99.817,20.779C99.504,20.883 98.764,21.569 98.764,21.569L98.764,35.114L97.712,35.903L98.764,36.561C98.764,36.561 98.318,39.438 98.764,40.243C98.914,40.515 99.817,40.901 99.817,40.901L99.817,52.474L101.79,53.131L101.79,62.469L103.894,63.258L103.894,69.701C103.894,69.701 104.648,70.274 104.947,70.359C106.432,70.784 109.663,70.851 111.128,70.359C111.422,70.26 112.18,69.701 112.18,69.701L112.18,63.258L114.284,62.469L114.284,53.131L116.388,52.474L116.388,40.901C116.388,40.901 117.289,40.514 117.44,40.243C117.885,39.438 117.44,36.561 117.44,36.561L118.493,35.903L117.44,35.114L117.44,21.569" fill="url(#SVGID_2_)" id="id_7"/>
   <path atv:refpx="101.472" atv:refpy="57.846" d="M101.132,53.132L101.811,53.132L101.811,62.559L101.132,62.559Z" id="id_8"/>
   <path atv:refpx="114.603" atv:refpy="57.846" d="M114.263,53.132L114.942,53.132L114.942,62.559L114.263,62.559Z" id="id_9"/>
   <path atv:refpx="108.103" atv:refpy="45.212" d="M117.44,21.569C117.44,21.569 116.694,20.9 116.387,20.779C112.532,19.267 103.747,19.471 99.817,20.779C99.504,20.883 98.764,21.569 98.764,21.569L98.764,35.114L97.712,35.903L98.764,36.561C98.764,36.561 98.318,39.438 98.764,40.243C98.914,40.515 99.817,40.901 99.817,40.901L99.817,52.474L101.79,53.131L101.79,62.469L103.894,63.258L103.894,69.701C103.894,69.701 104.648,70.274 104.947,70.359C106.432,70.784 109.663,70.851 111.128,70.359C111.422,70.26 112.18,69.701 112.18,69.701L112.18,63.258L114.284,62.469L114.284,53.131L116.388,52.474L116.388,40.901C116.388,40.901 117.289,40.514 117.44,40.243C117.885,39.438 117.44,36.561 117.44,36.561L118.493,35.903L117.44,35.114L117.44,21.569" fill="none" id="id_10" stroke="#4C4C4C" stroke-width="0.25"/>
   <path atv:refpx="108.102" atv:refpy="37.062" d="M98.765,36.562L117.44,36.562" fill="none" id="id_11" stroke="#4C4C4C" stroke-width="0.25"/>
   <path atv:refpx="108.103" atv:refpy="41.401" d="M116.388,40.901L99.818,40.901" fill="none" id="id_12" stroke="#4C4C4C" stroke-width="0.25"/>
   <path atv:refpx="108.037" atv:refpy="53.632" d="M101.791,53.132L114.283,53.132" fill="none" id="id_13" stroke="#4C4C4C" stroke-width="0.25"/>
   <path atv:refpx="108.037" atv:refpy="63.759" d="M103.894,63.259L112.179,63.259" fill="none" id="id_14" stroke="#4C4C4C" stroke-width="0.25"/>
   <path atv:refpx="108.102" atv:refpy="35.615" d="M98.765,35.115L117.44,35.115" fill="none" id="id_15" stroke="#CCCCCC" stroke-width="0.25"/>
  </g>
  <g atv:refpx="124.082" atv:refpy="23.541" id="Group_Liquid">
   <path atv:refpx="124.082" atv:refpy="23.542" d="M131.25,12.758L128.094,11.969L120.071,11.969L116.914,12.758L117.704,15.914L117.704,24.726L116.914,28.014L120.859,28.803L120.859,34.458L124.015,35.114L127.303,34.458L127.303,28.802L131.25,28.013L130.461,24.725L130.461,15.913Z" fill="url(#SVGID_3_)" id="id_16"/>
   <path atv:refpx="129.785" atv:refpy="20.78" d="M130.163,27.225L129.407,27.225L129.407,14.336L130.163,14.336Z" fill="#333333" id="id_17"/>
   <path atv:refpx="128.272" atv:refpy="20.78" d="M128.65,27.225L127.894,27.225L127.894,14.336L128.65,14.336Z" fill="#333333" id="id_18"/>
   <path atv:refpx="126.758" atv:refpy="20.78" d="M127.137,27.225L126.38,27.225L126.38,14.336L127.137,14.336Z" fill="#333333" id="id_19"/>
   <path atv:refpx="125.246" atv:refpy="20.78" d="M125.625,27.225L124.868,27.225L124.868,14.336L125.625,14.336Z" fill="#333333" id="id_20"/>
   <path atv:refpx="123.355" atv:refpy="20.78" d="M124.112,27.225L122.598,27.225L122.598,14.336L124.112,14.336Z" fill="#333333" id="id_21"/>
   <path atv:refpx="121.401" atv:refpy="20.78" d="M121.716,27.225L121.086,27.225L121.086,14.336L121.716,14.336Z" fill="#333333" id="id_22"/>
   <path atv:refpx="119.826" atv:refpy="20.78" d="M120.204,27.225L119.448,27.225L119.448,14.336L120.204,14.336Z" fill="#333333" id="id_23"/>
   <path atv:refpx="118.313" atv:refpy="20.78" d="M118.691,27.225L117.935,27.225L117.935,14.336L118.691,14.336Z" fill="#333333" id="id_24"/>
   <path atv:refpx="124.082" atv:refpy="23.542" d="M131.25,12.758L128.094,11.969L120.071,11.969L116.914,12.758L117.704,15.914L117.704,24.726L116.914,28.014L120.859,28.803L120.859,34.458L124.015,35.114L127.303,34.458L127.303,28.802L131.25,28.013L130.461,24.725L130.461,15.913Z" fill="none" id="id_25" stroke="#4C4C4C" stroke-width="0.25"/>
   <path atv:refpx="124.022" atv:refpy="28.417" d="M116.951,27.917L131.094,27.917" fill="none" id="id_26" stroke="#666666" stroke-width="0.25"/>
   <path atv:refpx="124.046" atv:refpy="29.302" d="M120.859,28.802L127.234,28.802" fill="none" id="id_27" stroke="#666666" stroke-width="0.25"/>
   <path atv:refpx="124.082" atv:refpy="23.542" d="M131.25,12.758L128.094,11.969L120.071,11.969L116.914,12.758L117.704,15.914L117.704,24.726L116.914,28.014L120.859,28.803L120.859,34.458L124.015,35.114L127.303,34.458L127.303,28.802L131.25,28.013L130.461,24.725L130.461,15.913Z" fill="none" id="id_28" stroke="#4C4C4C" stroke-width="0.25"/>
  </g>
  <g atv:refpx="35.18" atv:refpy="46.425" id="Group_LeftBody">
   <path atv:refpx="35.18" atv:refpy="46.425" d="M20.779,89.692L17.491,75.225L17.491,72.068L15.123,70.359L15.123,65.625L0,65.625L0,27.224L15.124,27.224L15.124,22.358L17.491,20.78C17.491,20.78 17.403,18.408 17.491,17.624C17.905,13.938 20.779,3.158 20.779,3.158L63.257,3.158L63.257,1.579L70.36,1.579L70.36,91.27L63.257,91.27L63.257,89.692Z" fill="url(#SVGID_4_)" id="id_29"/>
   <path atv:refpx="35.18" atv:refpy="46.425" d="M20.779,89.692C20.779,89.692 17.905,78.911 17.491,75.225C17.403,74.44 17.491,72.068 17.491,72.068L15.123,70.359L15.123,65.625L0,65.625L0,27.224L15.124,27.224L15.124,22.358L17.491,20.78C17.491,20.78 17.403,18.408 17.491,17.624C17.905,13.938 20.779,3.158 20.779,3.158L63.257,3.158L63.257,1.579L70.36,1.579L70.36,91.27L63.257,91.27L63.257,89.692Z" fill="none" id="id_30" stroke="#4C4C4C" stroke-width="0.25"/>
   <path atv:refpx="15.624" atv:refpy="46.425" d="M15.124,65.626L15.124,27.224" fill="none" id="id_31" stroke="#4C4C4C" stroke-width="0.25"/>
   <path atv:refpx="17.991" atv:refpy="46.425" d="M17.491,20.78L17.491,72.069" fill="none" id="id_32" stroke="#4C4C4C" stroke-width="0.25"/>
   <path atv:refpx="21.279" atv:refpy="46.425" d="M20.779,89.692L20.779,3.158" fill="none" id="id_33" stroke="#4C4C4C" stroke-width="0.25"/>
   <path atv:refpx="63.757" atv:refpy="46.425" d="M63.257,89.692L63.257,3.158" fill="none" id="id_34" stroke="#4C4C4C" stroke-width="0.25"/>
   <path atv:refpx="62.402" atv:refpy="88.114" d="M61.547,89.692L63.257,89.692L63.257,86.535L61.547,86.535Z" fill="#CCCCCC" id="id_35" stroke="#4C4C4C" stroke-width="0.25"/>
   <path atv:refpx="62.402" atv:refpy="82.459" d="M61.547,84.037L63.257,84.037L63.257,80.881L61.547,80.881Z" fill="#CCCCCC" id="id_36" stroke="#4C4C4C" stroke-width="0.25"/>
   <path atv:refpx="62.402" atv:refpy="76.081" d="M61.547,77.725L63.257,77.725L63.257,74.437L61.547,74.437Z" fill="#CCCCCC" id="id_37" stroke="#4C4C4C" stroke-width="0.25"/>
   <path atv:refpx="62.402" atv:refpy="70.425" d="M61.547,72.069L63.257,72.069L63.257,68.782L61.547,68.782Z" fill="#CCCCCC" id="id_38" stroke="#4C4C4C" stroke-width="0.25"/>
   <path atv:refpx="62.402" atv:refpy="64.048" d="M61.547,65.626L63.257,65.626L63.257,62.47L61.547,62.47Z" fill="#CCCCCC" id="id_39" stroke="#4C4C4C" stroke-width="0.25"/>
   <path atv:refpx="62.402" atv:refpy="58.393" d="M61.547,59.971L63.257,59.971L63.257,56.815L61.547,56.815Z" fill="#CCCCCC" id="id_40" stroke="#4C4C4C" stroke-width="0.25"/>
   <path atv:refpx="62.402" atv:refpy="51.948" d="M61.547,53.526L63.257,53.526L63.257,50.37L61.547,50.37Z" fill="#CCCCCC" id="id_41" stroke="#4C4C4C" stroke-width="0.25"/>
   <path atv:refpx="62.402" atv:refpy="46.425" d="M61.547,48.003L63.257,48.003L63.257,44.847L61.547,44.847Z" fill="#CCCCCC" id="id_42" stroke="#4C4C4C" stroke-width="0.25"/>
   <path atv:refpx="62.402" atv:refpy="39.981" d="M61.547,41.559L63.257,41.559L63.257,38.403L61.547,38.403Z" fill="#CCCCCC" id="id_43" stroke="#4C4C4C" stroke-width="0.25"/>
   <path atv:refpx="62.402" atv:refpy="34.392" d="M61.547,36.036L63.257,36.036L63.257,32.748L61.547,32.748Z" fill="#CCCCCC" id="id_44" stroke="#4C4C4C" stroke-width="0.25"/>
   <path atv:refpx="62.402" atv:refpy="27.947" d="M61.547,29.591L63.257,29.591L63.257,26.303L61.547,26.303Z" fill="#CCCCCC" id="id_45" stroke="#4C4C4C" stroke-width="0.25"/>
   <path atv:refpx="62.402" atv:refpy="22.424" d="M61.547,24.068L63.257,24.068L63.257,20.78L61.547,20.78Z" fill="#CCCCCC" id="id_46" stroke="#4C4C4C" stroke-width="0.25"/>
   <path atv:refpx="62.402" atv:refpy="15.98" d="M61.547,17.624L63.257,17.624L63.257,14.335L61.547,14.335Z" fill="#CCCCCC" id="id_47" stroke="#4C4C4C" stroke-width="0.25"/>
   <path atv:refpx="62.402" atv:refpy="10.391" d="M61.547,11.969L63.257,11.969L63.257,8.813L61.547,8.813Z" fill="#CCCCCC" id="id_48" stroke="#4C4C4C" stroke-width="0.25"/>
   <path atv:refpx="62.402" atv:refpy="3.947" d="M61.547,5.525L63.257,5.525L63.257,2.368L61.547,2.368Z" fill="#CCCCCC" id="id_49" stroke="#4C4C4C" stroke-width="0.25"/>
  </g>
  <g atv:refpx="33.535" atv:refpy="64.771" id="Group_Roller">
   <path atv:refpx="33.535" atv:refpy="64.771" d="M57.602,71.938L9.469,71.938L9.469,57.604L57.602,57.604Z" fill="url(#SVGID_5_)" id="id_50"/>
   <path atv:refpx="33.535" atv:refpy="64.771" d="M57.602,71.938L9.469,71.938L9.469,57.604L57.602,57.604Z" fill="none" id="id_51" stroke="#4C4C4C" stroke-width="0.25"/>
  </g>
  <g atv:refpx="33.602" atv:refpy="61.614" id="Group_RollerFrame">
   <polygon atv:refpx="33.602" atv:refpy="61.614" fill="url(#SVGID_6_)" id="id_52" points="25.645,43.137 25.645,55.236 25.645,63.259 25.645,77.725 25.645,80.092 41.558,80.092    41.558,77.725 41.558,63.259 41.558,55.236 41.558,43.137  "/>
   <path atv:refpx="33.602" atv:refpy="61.614" d="M41.558,43.137L41.558,79.96L25.645,80.092L25.645,43.137" fill="none" id="id_53" stroke="#999999" stroke-width="0.25"/>
  </g>
  <g atv:refpx="71.764" atv:refpy="37.877" id="Group_Pipe">
   <path atv:refpx="118.582" atv:refpy="50.831" d="M125.068,34.458C125.068,34.458 125.176,45.211 125.068,48.792C124.949,52.72 124.575,58.393 122.599,62.47C120.868,66.042 116.388,67.087 116.388,67.087L112.048,67.204L112.048,65.099L116.256,64.967C116.256,64.967 119.334,63.687 120.859,61.137C122.056,59.135 123.045,52.648 123.095,48.791C123.141,45.208 123.095,34.457 123.095,34.457Z" fill="#191919" id="id_54" stroke="#4C4C4C" stroke-width="0.25"/>
   <path atv:refpx="79.696" atv:refpy="45.832" d="M55.498,24.462C55.498,24.462 55.51,35.312 55.498,38.928C55.48,44.102 65.622,54.37 72.293,58.391C75.562,60.363 88.309,65.045 92.058,65.756C94.987,66.312 103.894,67.203 103.894,67.203L103.894,65.099C103.894,65.099 95.179,64.229 92.322,63.654C88.837,62.952 76.762,58.642 73.712,56.815C67.429,53.049 57.914,44.167 57.734,38.666C57.618,35.117 57.471,24.462 57.471,24.462L55.498,24.462Z" fill="#191919" id="id_55" stroke="#4C4C4C" stroke-width="0.25"/>
   <path atv:refpx="47.608" atv:refpy="11.048" d="M18.412,13.547L18.412,9.733L19.596,8.549L75.358,8.549L76.803,9.733L76.803,13.547L75.489,13.547L75.489,10.391L75.225,9.996L19.99,9.996L19.726,10.391L19.726,13.547Z" fill="#CCCCCC" id="id_56" stroke="#4C4C4C" stroke-width="0.25"/>
   <path atv:refpx="56.418" atv:refpy="20.714" d="M58.391,16.966L58.391,24.462L54.446,24.462L54.446,16.966" fill="none" id="id_57" stroke="#4C4C4C" stroke-width="0.25"/>
  </g>
 </g>
</svg>
