<svg xmlns="http://www.w3.org/2000/svg" xmlns:xlink="http://www.w3.org/1999/xlink" width="45.381999999999998" xml:space="preserve" xmlns:atv="http://webmi.atvise.com/2007/svgext" height="112.5" version="1.1" enable-background="new 0 0 45.382 112.5">
 <defs>
  <linearGradient gradientUnits="objectBoundingBox" id="SVGID_1_" x1="0.689803" x2="0.310179" y1="1.27561" y2="-0.275586">
   <stop offset="0.01" stop-color="#595959"/>
   <stop offset="0.5" stop-color="#B2B2B2"/>
   <stop offset="1" stop-color="#E0E0E0"/>
  </linearGradient>
  <linearGradient gradientUnits="objectBoundingBox" id="SVGID_2_" x1="-2.4669e-05" x2="1.00002" y1="0.500014" y2="0.500014">
   <stop offset="0.01" stop-color="#595959"/>
   <stop offset="0.5" stop-color="#E0E0E0"/>
   <stop offset="1" stop-color="#595959"/>
  </linearGradient>
  <linearGradient gradientUnits="objectBoundingBox" id="SVGID_3_" x1="4.03633e-05" x2="0.99996" y1="0.500014" y2="0.500014">
   <stop offset="0.01" stop-color="#595959"/>
   <stop offset="0.5" stop-color="#E0E0E0"/>
   <stop offset="1" stop-color="#595959"/>
  </linearGradient>
  <linearGradient gradientUnits="objectBoundingBox" id="SVGID_4_" x1="-0.000147992" x2="0.999958" y1="0.500014" y2="0.500014">
   <stop offset="0.01" stop-color="#595959"/>
   <stop offset="0.5" stop-color="#E0E0E0"/>
   <stop offset="1" stop-color="#595959"/>
  </linearGradient>
  <linearGradient gradientUnits="objectBoundingBox" id="SVGID_5_" x1="-4.22833e-05" x2="0.999937" y1="0.500014" y2="0.500014">
   <stop offset="0.01" stop-color="#595959"/>
   <stop offset="0.5" stop-color="#E0E0E0"/>
   <stop offset="1" stop-color="#595959"/>
  </linearGradient>
  <linearGradient gradientUnits="objectBoundingBox" id="SVGID_6_" x1="6.52955e-06" x2="1" y1="0.500178" y2="0.500178">
   <stop offset="0.01" stop-color="#595959"/>
   <stop offset="0.5" stop-color="#E0E0E0"/>
   <stop offset="1" stop-color="#595959"/>
  </linearGradient>
  <linearGradient gradientUnits="objectBoundingBox" id="SVGID_7_" x1="-2.4669e-05" x2="1.00002" y1="0.500019" y2="0.500019">
   <stop offset="0.01" stop-color="#595959"/>
   <stop offset="0.5" stop-color="#E0E0E0"/>
   <stop offset="1" stop-color="#595959"/>
  </linearGradient>
  <linearGradient gradientUnits="objectBoundingBox" id="SVGID_8_" x1="0" x2="0.999997" y1="0.500242" y2="0.500242">
   <stop offset="0.01" stop-color="#595959"/>
   <stop offset="0.5" stop-color="#E0E0E0"/>
   <stop offset="1" stop-color="#595959"/>
  </linearGradient>
  <linearGradient gradientUnits="objectBoundingBox" id="SVGID_9_" x1="0.000133156" x2="1.00009" y1="0.500018" y2="0.500018">
   <stop offset="0.01" stop-color="#595959"/>
   <stop offset="0.5" stop-color="#E0E0E0"/>
   <stop offset="1" stop-color="#595959"/>
  </linearGradient>
  <linearGradient gradientUnits="objectBoundingBox" id="SVGID_10_" x1="0.000138735" x2="1" y1="0.500028" y2="0.500028">
   <stop offset="0.01" stop-color="#595959"/>
   <stop offset="0.5" stop-color="#E0E0E0"/>
   <stop offset="1" stop-color="#595959"/>
  </linearGradient>
  <linearGradient gradientUnits="objectBoundingBox" id="SVGID_11_" x1="0.000788955" x2="1.00039" y1="0.500028" y2="0.500028">
   <stop offset="0.01" stop-color="#595959"/>
   <stop offset="0.5" stop-color="#E0E0E0"/>
   <stop offset="1" stop-color="#595959"/>
  </linearGradient>
  <linearGradient gradientUnits="objectBoundingBox" id="SVGID_12_" x1="0" x2="0.999704" y1="0.500028" y2="0.500028">
   <stop offset="0.01" stop-color="#595959"/>
   <stop offset="0.5" stop-color="#E0E0E0"/>
   <stop offset="1" stop-color="#595959"/>
  </linearGradient>
  <linearGradient gradientUnits="objectBoundingBox" id="SVGID_13_" x1="-0.000161421" x2="0.999596" y1="0.500018" y2="0.500018">
   <stop offset="0.01" stop-color="#595959"/>
   <stop offset="0.5" stop-color="#E0E0E0"/>
   <stop offset="1" stop-color="#595959"/>
  </linearGradient>
  <linearGradient gradientUnits="objectBoundingBox" id="SVGID_14_" x1="0" x2="0.999704" y1="0.500018" y2="0.500018">
   <stop offset="0.01" stop-color="#595959"/>
   <stop offset="0.5" stop-color="#E0E0E0"/>
   <stop offset="1" stop-color="#595959"/>
  </linearGradient>
  <linearGradient gradientUnits="objectBoundingBox" id="SVGID_15_" x1="1.3919e-05" x2="1.00003" y1="0.500024" y2="0.500024">
   <stop offset="0.01" stop-color="#595959"/>
   <stop offset="0.5" stop-color="#E0E0E0"/>
   <stop offset="1" stop-color="#595959"/>
  </linearGradient>
 </defs>
 <metadata>
  <atv:gridconfig enabled="false" gridstyle="lines" height="20" width="20"/>
  <atv:snapconfig enabled="false" height="10" width="10"/>
 </metadata>
 <g atv:refpx="22.691" atv:refpy="56.249" id="id_31">
  <g atv:refpx="22.691" atv:refpy="11.319" id="Group_Digital_Box">
   <path atv:refpx="22.691" atv:refpy="11.319" d="M1.126,0.001L44.254,0.001L44.254,22.636L1.126,22.636Z" fill="url(#SVGID_1_)" id="id_0" stroke="#4C4C4C" stroke-width="0.1"/>
  </g>
  <g atv:refpx="22.635" atv:refpy="60.36" id="Group_Support">
   <path atv:refpx="40.539" atv:refpy="60.36" d="M39.3,22.636L41.779,22.636L41.779,98.083L39.3,98.083Z" fill="#CCCCCC" id="id_1" stroke="#4C4C4C" stroke-width="0.25"/>
   <path atv:refpx="4.73" atv:refpy="60.36" d="M3.491,22.636L5.969,22.636L5.969,98.083L3.491,98.083Z" fill="#CCCCCC" id="id_2" stroke="#4C4C4C" stroke-width="0.25"/>
  </g>
  <g atv:refpx="22.748" atv:refpy="10.024" id="Group_Blue_Label">
   <path atv:refpx="22.748" atv:refpy="10.024" d="M18.806,8.222L26.689,8.222L26.689,11.826L18.806,11.826Z" fill="#9EADCC" id="id_3"/>
  </g>
  <g atv:refpx="4.787" atv:refpy="20.272" id="Group_Red_Label">
   <path atv:refpx="4.787" atv:refpy="20.272" d="M2.478,19.033L7.095,19.033L7.095,21.51L2.478,21.51Z" fill="#B23200" id="id_4"/>
  </g>
  <g atv:refpx="22.691" atv:refpy="46.058" id="Group_Mixer_Unit">
   <path atv:refpx="22.634" atv:refpy="34.572" d="M28.715,23.762L28.715,45.382L16.554,45.382L16.554,23.762Z" fill="url(#SVGID_2_)" id="id_5"/>
   <path atv:refpx="22.634" atv:refpy="34.572" d="M25.112,23.762L25.112,45.382L20.156,45.382L20.156,23.762Z" fill="url(#SVGID_3_)" id="id_6"/>
   <path atv:refpx="32.207" atv:refpy="34.572" d="M34.572,23.762L34.572,45.382L29.842,45.382L29.842,23.762Z" fill="url(#SVGID_4_)" id="id_7"/>
   <path atv:refpx="13.063" atv:refpy="34.572" d="M15.428,23.762L15.428,45.382L10.698,45.382L10.698,23.762Z" fill="url(#SVGID_5_)" id="id_8"/>
   <path atv:refpx="22.409" atv:refpy="23.199" d="M37.724,23.762L37.724,22.636L7.094,22.636L7.094,23.762Z" fill="url(#SVGID_6_)" id="id_9" stroke="#4C4C4C" stroke-width="0.25"/>
   <path atv:refpx="22.634" atv:refpy="58.67" d="M28.715,47.86L28.715,69.481L16.554,69.481L16.554,47.86Z" fill="url(#SVGID_7_)" id="id_10"/>
   <path atv:refpx="22.691" atv:refpy="46.621" d="M4.73,47.86L4.73,45.383L40.652,45.383L40.652,47.86Z" fill="url(#SVGID_8_)" id="id_11" stroke="#4C4C4C" stroke-width="0.1"/>
   <path atv:refpx="22.634" atv:refpy="56.194" d="M23.761,47.86L23.761,64.527L21.508,64.527L21.508,47.86Z" fill="url(#SVGID_9_)" id="id_12"/>
   <path atv:refpx="22.635" atv:refpy="66.329" d="M35.697,68.131L9.572,68.131L9.572,64.527L11.823,64.527L11.823,65.878L20.156,65.878L20.156,64.527L25.111,64.527L25.111,65.878L33.444,65.878L33.444,64.527L35.696,64.527Z" fill="#B2B2B2" id="id_13" stroke="#4C4C4C" stroke-width="0.1"/>
   <path atv:refpx="22.634" atv:refpy="66.329" d="M24.436,64.527L24.436,68.131L20.832,68.131L20.832,64.527Z" fill="url(#SVGID_10_)" id="id_14"/>
   <path atv:refpx="10.641" atv:refpy="66.329" d="M11.148,64.527L11.148,68.131L10.134,68.131L10.134,64.527Z" fill="url(#SVGID_11_)" id="id_15"/>
   <path atv:refpx="34.572" atv:refpy="66.329" d="M35.247,64.527L35.247,68.131L33.896,68.131L33.896,64.527Z" fill="url(#SVGID_12_)" id="id_16"/>
   <path atv:refpx="10.755" atv:refpy="56.194" d="M11.374,47.86L11.374,64.527L10.135,64.527L10.135,47.86Z" fill="url(#SVGID_13_)" id="id_17"/>
   <path atv:refpx="34.572" atv:refpy="56.194" d="M35.247,47.86L35.247,64.527L33.896,64.527L33.896,47.86Z" fill="url(#SVGID_14_)" id="id_18"/>
  </g>
  <g atv:refpx="22.69" atv:refpy="86.148" id="Group_Mixer_sub">
   <path atv:refpx="22.69" atv:refpy="98.648" d="M4.729,99.211L40.65,99.211L40.65,98.084L4.729,98.084Z" fill="#4D4D4D" id="id_19"/>
   <path atv:refpx="22.69" atv:refpy="83.782" d="M4.729,98.084L4.729,69.481L40.65,69.481L40.65,98.084Z" fill="url(#SVGID_15_)" id="id_20"/>
   <path atv:refpx="22.747" atv:refpy="100.449" d="M20.382,98.084L25.111,98.084L25.111,102.814L20.382,102.814Z" fill="#CCCCCC" id="id_21" stroke="#4C4C4C" stroke-width="0.25"/>
   <path atv:refpx="22.634" atv:refpy="77.14" d="M21.508,75.338L23.761,75.338L23.761,78.942L21.508,78.942Z" fill="#4D4D4D" id="id_22"/>
   <path atv:refpx="6.531" atv:refpy="72.409" d="M5.968,70.607L7.093,70.607L7.093,74.211L5.968,74.211Z" fill="#666666" id="id_23"/>
   <path atv:refpx="38.737" atv:refpy="72.409" d="M38.175,70.607L39.3,70.607L39.3,74.211L38.175,74.211Z" fill="#666666" id="id_24"/>
   <path atv:refpx="17.229" atv:refpy="72.409" d="M16.554,70.607L17.904,70.607L17.904,74.211L16.554,74.211Z" fill="#B2B2B2" id="id_25"/>
   <path atv:refpx="28.04" atv:refpy="72.409" d="M27.365,70.607L28.715,70.607L28.715,74.211L27.365,74.211Z" fill="#B2B2B2" id="id_26"/>
  </g>
  <g atv:refpx="22.691" atv:refpy="105.291" id="Group_Stand">
   <path atv:refpx="5.575" atv:refpy="105.291" d="M2.478,112.498L2.478,109.908L4.392,109.908L4.392,100.562L2.478,100.562L2.478,98.083L8.671,98.083L8.671,100.562L6.644,100.562L6.644,109.908L8.671,109.908L8.671,112.498Z" fill="#666666" id="id_27" stroke="#4C4C4C" stroke-width="0.25"/>
   <path atv:refpx="39.751" atv:refpy="105.291" d="M36.598,112.498L36.598,109.908L38.623,109.908L38.623,100.562L36.598,100.562L36.598,98.083L42.904,98.083L42.904,100.562L40.878,100.562L40.878,109.908L42.904,109.908L42.904,112.498Z" fill="#666666" id="id_28" stroke="#4C4C4C" stroke-width="0.25"/>
   <path atv:refpx="3.547" atv:refpy="105.291" d="M0,112.498L0,109.908L2.478,109.908L2.478,100.562L0,100.562L0,98.083L7.094,98.083L7.094,100.562L4.729,100.562L4.729,109.908L7.094,109.908L7.094,112.498Z" fill="#E5E5E5" id="id_29" stroke="#4C4C4C" stroke-width="0.25"/>
   <path atv:refpx="41.778" atv:refpy="105.291" d="M38.175,112.498L38.175,109.908L40.651,109.908L40.651,100.562L38.175,100.562L38.175,98.083L45.382,98.083L45.382,100.562L42.903,100.562L42.903,109.908L45.382,109.908L45.382,112.498Z" fill="#E5E5E5" id="id_30" stroke="#4C4C4C" stroke-width="0.25"/>
  </g>
 </g>
</svg>
