<!DOCTYPE svg PUBLIC '-//W3C//DTD SVG 20000303 Stylable//EN' 'http://www.w3.org/TR/2000/03/WD-SVG-20000303/DTD/svg-20000303-stylable.dtd'>
<svg height="999" width="535" xmlns="http://www.w3.org/2000/svg" xmlns:atv="http://webmi.atvise.com/2007/svgext" xmlns:xlink="http://www.w3.org/1999/xlink">
 <defs/>
 <metadata>
  <atv:gridconfig enabled="false" gridstyle="lines" height="20" width="20"/>
  <atv:snapconfig enabled="false" height="10" width="10"/>
 </metadata>
 <g atv:refpx="268" atv:refpy="500" id="id_54">
  <path atv:refpx="361.5" atv:refpy="137.5" d="M333,275L347,0L376,0L390,275Z" fill="#b2b2b2" id="id_0" stroke="#4c4c4c" stroke-width="2"/>
  <path atv:refpx="273.5" atv:refpy="181" d="M254,275L264,87L283,87L293,275Z" fill="#b2b2b2" id="id_1" stroke="#4c4c4c" stroke-width="2"/>
  <path atv:refpx="135" atv:refpy="210" d="M121,275L129,145L143,145L149,275Z" fill="#b2b2b2" id="id_2" stroke="#4c4c4c" stroke-width="2"/>
  <path atv:refpx="135" atv:refpy="158" d="M129,171L121,157L129,145L143,145L149,157L143,171Z" fill="#7f7f7f" id="id_3" stroke="#4c4c4c" stroke-width="2"/>
  <path atv:refpx="273.5" atv:refpy="106" d="M264,125L254,107L264,87L283,87L293,107L283,125Z" fill="#7f7f7f" id="id_4" stroke="#4c4c4c" stroke-width="2"/>
  <path atv:refpx="361.5" atv:refpy="28" d="M347,56L333,28L347,0L376,0L390,28L376,56Z" fill="#7f7f7f" id="id_5" stroke="#4c4c4c" stroke-width="2"/>
  <path atv:refpx="362.5" atv:refpy="232.5" d="M319,232L406,232" fill="none" id="id_6" stroke="#4c4c4c" stroke-width="2"/>
  <path atv:refpx="363.5" atv:refpy="216.5" d="M321,216L406,216" fill="none" id="id_7" stroke="#4c4c4c" stroke-width="2"/>
  <path atv:refpx="363.5" atv:refpy="202.5" d="M323,202L404,202" fill="none" id="id_8" stroke="#4c4c4c" stroke-width="2"/>
  <path atv:refpx="362.5" atv:refpy="188.5" d="M323,188L402,188" fill="none" id="id_9" stroke="#4c4c4c" stroke-width="2"/>
  <path atv:refpx="361.5" atv:refpy="174.5" d="M323,174L400,174" fill="none" id="id_10" stroke="#4c4c4c" stroke-width="2"/>
  <path atv:refpx="362.5" atv:refpy="157.5" d="M325,157L400,157" fill="none" id="id_11" stroke="#4c4c4c" stroke-width="2"/>
  <path atv:refpx="363.5" atv:refpy="143.5" d="M327,143L400,143" fill="none" id="id_12" stroke="#4c4c4c" stroke-width="2"/>
  <path atv:refpx="362.5" atv:refpy="129.5" d="M327,129L398,129" fill="none" id="id_13" stroke="#4c4c4c" stroke-width="2"/>
  <path atv:refpx="362.5" atv:refpy="115.5" d="M329,115L396,115" fill="none" id="id_14" stroke="#4c4c4c" stroke-width="2"/>
  <path atv:refpx="363.5" atv:refpy="101.5" d="M331,101L396,101" fill="none" id="id_15" stroke="#4c4c4c" stroke-width="2"/>
  <path atv:refpx="363.5" atv:refpy="87.5" d="M333,87L394,87" fill="none" id="id_16" stroke="#4c4c4c" stroke-width="2"/>
  <path atv:refpx="362.5" atv:refpy="72.5" d="M333,72L392,72" fill="none" id="id_17" stroke="#4c4c4c" stroke-width="2"/>
  <path atv:refpx="273.5" atv:refpy="246.5" d="M244,246L303,246" fill="none" id="id_18" stroke="#4c4c4c" stroke-width="2"/>
  <path atv:refpx="273.5" atv:refpy="234.5" d="M244,234L303,234" fill="none" id="id_19" stroke="#4c4c4c" stroke-width="2"/>
  <path atv:refpx="274.5" atv:refpy="224.5" d="M246,224L303,224" fill="none" id="id_20" stroke="#4c4c4c" stroke-width="2"/>
  <path atv:refpx="273.5" atv:refpy="214.5" d="M246,214L301,214" fill="none" id="id_21" stroke="#4c4c4c" stroke-width="2"/>
  <path atv:refpx="274.5" atv:refpy="206.5" d="M248,206L301,206" fill="none" id="id_22" stroke="#4c4c4c" stroke-width="2"/>
  <path atv:refpx="274.5" atv:refpy="196.5" d="M248,196L301,196" fill="none" id="id_23" stroke="#4c4c4c" stroke-width="2"/>
  <path atv:refpx="274.5" atv:refpy="185.5" d="M250,185L299,185" fill="none" id="id_24" stroke="#4c4c4c" stroke-width="2"/>
  <path atv:refpx="274.5" atv:refpy="175.5" d="M250,175L299,175" fill="none" id="id_25" stroke="#4c4c4c" stroke-width="2"/>
  <path atv:refpx="274.5" atv:refpy="165.5" d="M252,165L297,165" fill="none" id="id_26" stroke="#4c4c4c" stroke-width="2"/>
  <path atv:refpx="274.5" atv:refpy="155.5" d="M252,155L297,155" fill="none" id="id_27" stroke="#4c4c4c" stroke-width="2"/>
  <path atv:refpx="274.5" atv:refpy="145.5" d="M254,145L295,145" fill="none" id="id_28" stroke="#4c4c4c" stroke-width="2"/>
  <path atv:refpx="274.5" atv:refpy="135.5" d="M254,135L295,135" fill="none" id="id_29" stroke="#4c4c4c" stroke-width="2"/>
  <path atv:refpx="135" atv:refpy="254.5" d="M115,254L155,254" fill="none" id="id_30" stroke="#4c4c4c" stroke-width="2"/>
  <path atv:refpx="136" atv:refpy="246.5" d="M117,246L155,246" fill="none" id="id_31" stroke="#4c4c4c" stroke-width="2"/>
  <path atv:refpx="136" atv:refpy="240.5" d="M117,240L155,240" fill="none" id="id_32" stroke="#4c4c4c" stroke-width="2"/>
  <path atv:refpx="136" atv:refpy="234.5" d="M117,234L155,234" fill="none" id="id_33" stroke="#4c4c4c" stroke-width="2"/>
  <path atv:refpx="137" atv:refpy="226.5" d="M119,226L155,226" fill="none" id="id_34" stroke="#4c4c4c" stroke-width="2"/>
  <path atv:refpx="137" atv:refpy="220.5" d="M119,220L155,220" fill="none" id="id_35" stroke="#4c4c4c" stroke-width="2"/>
  <path atv:refpx="136" atv:refpy="212.5" d="M119,212L153,212" fill="none" id="id_36" stroke="#4c4c4c" stroke-width="2"/>
  <path atv:refpx="137" atv:refpy="206.5" d="M121,206L153,206" fill="none" id="id_37" stroke="#4c4c4c" stroke-width="2"/>
  <path atv:refpx="137" atv:refpy="200.5" d="M121,200L153,200" fill="none" id="id_38" stroke="#4c4c4c" stroke-width="2"/>
  <path atv:refpx="137" atv:refpy="191.5" d="M121,191L153,191" fill="none" id="id_39" stroke="#4c4c4c" stroke-width="2"/>
  <path atv:refpx="136" atv:refpy="185.5" d="M121,185L151,185" fill="none" id="id_40" stroke="#4c4c4c" stroke-width="2"/>
  <path atv:refpx="136" atv:refpy="180.5" d="M121,180L151,180" fill="none" id="id_41" stroke="#4c4c4c" stroke-width="2"/>
  <path atv:refpx="43.5" atv:refpy="630.5" d="M0,376L28,347L87,347L87,914L0,914Z" fill="#666" id="id_42" stroke="#4c4c4c" stroke-width="2"/>
  <path atv:refpx="383.5" atv:refpy="629.5" d="M232,260L307,264L384,268L535,275L535,986L384,993L307,996L232,999Z" fill="#7f7f7f" id="id_43"/>
  <path atv:refpx="217" atv:refpy="629.5" d="M202,260L232,260L232,999L202,999Z" fill="#999" id="id_44"/>
  <path atv:refpx="144.5" atv:refpy="629.5" d="M202,260L174,264L145,268L87,275L87,986L145,993L174,996L202,999Z" fill="#737373" id="id_45"/>
  <path atv:refpx="173.5" atv:refpy="629.5" d="M202,260L145,268L145,993L202,999Z" fill="#7f7f7f" id="id_46"/>
  <path atv:refpx="188" atv:refpy="629.5" d="M202,260L174,264L174,996L202,999Z" fill="#8c8c8c" id="id_47"/>
  <path atv:refpx="308" atv:refpy="629.5" d="M232,260L384,268L384,993L232,999Z" fill="#878787" id="id_48"/>
  <path atv:refpx="269.5" atv:refpy="629.5" d="M232,260L307,264L307,996L232,999Z" fill="#919191" id="id_49"/>
  <path atv:refpx="311" atv:refpy="629.5" d="M232,260L535,275L535,986L232,999L202,999L87,986L87,275L202,260Z" fill="none" id="id_50" stroke="#4c4c4c" stroke-width="2"/>
  <path atv:refpx="116" atv:refpy="804.5" d="M101,740L131,740L131,869L101,869Z" fill="#b2b2b2" id="id_51" stroke="#4c4c4c" stroke-width="2"/>
  <path atv:refpx="35" atv:refpy="398" d="M28,362L42,362L42,434L28,434Z" fill="#999" id="id_52"/>
  <path atv:refpx="73.5" atv:refpy="709" d="M66,695L81,695L81,723L66,723Z" fill="#ccc" id="id_53"/>
 </g>
</svg>
