<!DOCTYPE svg PUBLIC '-//W3C//DTD SVG 20000303 Stylable//EN' 'http://www.w3.org/TR/2000/03/WD-SVG-20000303/DTD/svg-20000303-stylable.dtd'>
<svg height="215" width="999" xmlns="http://www.w3.org/2000/svg" xmlns:atv="http://webmi.atvise.com/2007/svgext" xmlns:xlink="http://www.w3.org/1999/xlink">
 <defs/>
 <metadata>
  <atv:gridconfig enabled="false" gridstyle="lines" height="20" width="20"/>
  <atv:snapconfig enabled="false" height="10" width="10"/>
 </metadata>
 <g atv:refpx="499" atv:refpy="107.5" id="Image_1">
  <path atv:refpx="499" atv:refpy="107.5" d="M4,15L994,15L994,200L4,200Z" fill="#f2f2f2" id="id_0" stroke-width="1"/>
  <path atv:refpx="499" atv:refpy="108" d="M4,46L994,46L994,170L4,170Z" fill="#e5e5e5" id="id_1" stroke-width="1"/>
  <path atv:refpx="107.5" atv:refpy="107.5" d="M149,190L87,25L66,25L128,190Z" fill="#999" id="id_2" stroke="#4c4c4c" stroke-width="2"/>
  <path atv:refpx="231" atv:refpy="107.5" d="M272,190L211,25L190,25L252,190Z" fill="#999" id="id_3" stroke="#4c4c4c" stroke-width="2"/>
  <path atv:refpx="355" atv:refpy="107.5" d="M396,190L334,25L314,25L375,190Z" fill="#999" id="id_4" stroke="#4c4c4c" stroke-width="2"/>
  <path atv:refpx="478.5" atv:refpy="107.5" d="M520,190L458,25L437,25L499,190Z" fill="#999" id="id_5" stroke="#4c4c4c" stroke-width="2"/>
  <path atv:refpx="602" atv:refpy="107.5" d="M643,190L582,25L561,25L623,190Z" fill="#999" id="id_6" stroke="#4c4c4c" stroke-width="2"/>
  <path atv:refpx="726" atv:refpy="107.5" d="M767,190L705,25L685,25L746,190Z" fill="#999" id="id_7" stroke="#4c4c4c" stroke-width="2"/>
  <path atv:refpx="849.5" atv:refpy="107.5" d="M891,190L829,25L808,25L870,190Z" fill="#999" id="id_8" stroke="#4c4c4c" stroke-width="2"/>
  <path atv:refpx="957.5" atv:refpy="66.5" d="M932,25L963,108L983,108L952,25Z" fill="#999" id="id_9" stroke="#4c4c4c" stroke-width="2"/>
  <path atv:refpx="911" atv:refpy="107.5" d="M870,190L932,25L952,25L891,190Z" fill="#d9d9d9" id="id_10" stroke="#4c4c4c" stroke-width="2"/>
  <path atv:refpx="787.5" atv:refpy="107.5" d="M746,190L808,25L829,25L767,190Z" fill="#d9d9d9" id="id_11" stroke="#4c4c4c" stroke-width="2"/>
  <path atv:refpx="664" atv:refpy="107.5" d="M623,190L684,25L705,25L643,190Z" fill="#d9d9d9" id="id_12" stroke="#4c4c4c" stroke-width="2"/>
  <path atv:refpx="540" atv:refpy="107.5" d="M499,190L561,25L581,25L520,190Z" fill="#d9d9d9" id="id_13" stroke="#4c4c4c" stroke-width="2"/>
  <path atv:refpx="416.5" atv:refpy="107.5" d="M375,190L437,25L458,25L396,190Z" fill="#d9d9d9" id="id_14" stroke="#4c4c4c" stroke-width="2"/>
  <path atv:refpx="293" atv:refpy="107.5" d="M252,190L313,25L334,25L272,190Z" fill="#d9d9d9" id="id_15" stroke="#4c4c4c" stroke-width="2"/>
  <path atv:refpx="169.5" atv:refpy="107.5" d="M128,190L190,25L211,25L149,190Z" fill="#d9d9d9" id="id_16" stroke="#4c4c4c" stroke-width="2"/>
  <path atv:refpx="45.5" atv:refpy="107.5" d="M4,190L66,25L87,25L25,190Z" fill="#d9d9d9" id="id_17" stroke="#4c4c4c" stroke-width="2"/>
  <path atv:refpx="499" atv:refpy="205.5" d="M4,200L994,200L994,211L4,211Z" fill="#7f7f7f" id="id_18" stroke-width="1"/>
  <path atv:refpx="499" atv:refpy="9.5" d="M4,4L994,4L994,15L4,15Z" fill="#7f7f7f" id="id_19" stroke-width="1"/>
 </g>
</svg>
