<!DOCTYPE svg PUBLIC '-//W3C//DTD SVG 1.1//EN' 'http://www.w3.org/Graphics/SVG/1.1/DTD/svg11.dtd'>
<svg enable-background="new 0 0 54.619 112.5" height="112.5" version="1.1" width="54.619" xml:space="preserve" xmlns="http://www.w3.org/2000/svg" xmlns:atv="http://webmi.atvise.com/2007/svgext" xmlns:xlink="http://www.w3.org/1999/xlink">
 <defs>
  <linearGradient gradientUnits="objectBoundingBox" id="SVGID_1_" x1="4.86559e-05" x2="1.00001" y1="0.5" y2="0.5">
   <stop offset="0" stop-color="#383838"/>
   <stop offset="0.45" stop-color="#ECECEC"/>
   <stop offset="0.55" stop-color="#D9D9D9"/>
   <stop offset="0.76" stop-color="#A8A8A8"/>
   <stop offset="0.77" stop-color="#A6A6A6"/>
   <stop offset="1" stop-color="#383838"/>
  </linearGradient>
  <linearGradient gradientUnits="objectBoundingBox" id="SVGID_2_" x1="4.04555e-06" x2="1" y1="0.499926" y2="0.499926">
   <stop offset="0" stop-color="#333399"/>
   <stop offset="0.52" stop-color="#C7C4E2"/>
   <stop offset="0.65" stop-color="#A3A0D0"/>
   <stop offset="0.94" stop-color="#4747A3"/>
   <stop offset="1" stop-color="#333399"/>
  </linearGradient>
  <linearGradient gradientUnits="objectBoundingBox" id="SVGID_3_" x1="-2.33699e-05" x2="1.00005" y1="0.499997" y2="0.499997">
   <stop offset="0" stop-color="#333399"/>
   <stop offset="0.52" stop-color="#C7C4E2"/>
   <stop offset="0.65" stop-color="#A3A0D0"/>
   <stop offset="0.94" stop-color="#4747A3"/>
   <stop offset="1" stop-color="#333399"/>
  </linearGradient>
  <linearGradient gradientUnits="objectBoundingBox" id="SVGID_4_" x1="4.9334e-05" x2="1.0001" y1="0.499997" y2="0.499997">
   <stop offset="0" stop-color="#333399"/>
   <stop offset="0.52" stop-color="#C7C4E2"/>
   <stop offset="0.65" stop-color="#A3A0D0"/>
   <stop offset="0.94" stop-color="#4747A3"/>
   <stop offset="1" stop-color="#333399"/>
  </linearGradient>
  <linearGradient gradientUnits="objectBoundingBox" id="SVGID_6_" x1="4.04555e-06" x2="1" y1="0.500005" y2="0.500005">
   <stop offset="0" stop-color="#383838"/>
   <stop offset="0.5" stop-color="#ECECEC"/>
   <stop offset="1" stop-color="#383838"/>
  </linearGradient>
  <radialGradient cx="0.499988" cy="0.500018" fx="0.499988" fy="0.500018" gradientUnits="objectBoundingBox" id="SVGID_5_" r="0.726">
   <stop offset="0" stop-color="#ECECEC"/>
   <stop offset="0.66" stop-color="#808080"/>
   <stop offset="1" stop-color="#4D4D4D"/>
  </radialGradient>
 </defs>
 <metadata>
  <atv:gridconfig enabled="false" gridstyle="lines" height="20" width="20"/>
  <atv:snapconfig enabled="false" height="10" width="10"/>
 </metadata>
 <g atv:refpx="27.31" atv:refpy="56.25" id="Image_1">
  <g atv:refpx="29.732" atv:refpy="98.085" id="Group_BackLegs">
   <path atv:refpx="50.565" atv:refpy="98.085" d="M48.763,84.797L52.367,84.797L52.367,111.374L48.763,111.374Z" id="id_0"/>
   <path atv:refpx="9.011" atv:refpy="98.085" d="M7.096,84.797L10.925,84.797L10.925,111.374L7.096,111.374Z" id="id_1"/>
   <path atv:refpx="29.843" atv:refpy="105.575" d="M48.763,103.717L48.763,107.433L10.924,107.433L10.924,103.717Z" id="id_2"/>
  </g>
  <g atv:refpx="8.165" atv:refpy="8.277" id="Group_1">
   <path atv:refpx="6.645" atv:refpy="5.687" d="M5.181,3.153L8.109,3.153L8.109,8.22L5.181,8.22Z" fill="#4C4C4C" id="id_3"/>
   <path atv:refpx="12.275" atv:refpy="13.964" d="M11.825,11.374L11.825,16.554L12.726,16.554L12.726,11.374Z" fill="#4C4C4C" id="id_4"/>
   <path atv:refpx="4.055" atv:refpy="12.838" d="M0.001,12.275L8.109,12.275L8.109,13.401L0.001,13.401Z" fill="#CCCCCC" id="id_5"/>
   <path atv:refpx="12.22" atv:refpy="5.687" d="M8.109,11.374L8.109,0L16.329,0L16.329,11.374Z" fill="url(#SVGID_1_)" id="id_6"/>
   <path atv:refpx="5.351" atv:refpy="9.685" d="M5.97,7.095L3.829,12.274L4.731,12.274L6.871,7.094Z" fill="#4C4C4C" id="id_7"/>
  </g>
  <g atv:refpx="28.773" atv:refpy="62.951" id="Group_FrontLegs">
   <path atv:refpx="5.012" atv:refpy="50.563" d="M2.929,13.401L7.096,13.401L7.096,87.725L2.929,87.725Z" fill="#333399" id="id_8"/>
   <path atv:refpx="29.899" atv:refpy="85.698" d="M5.181,83.672L54.617,83.672L54.617,87.725L5.181,87.725Z" fill="url(#SVGID_2_)" id="id_9"/>
   <path atv:refpx="52.478" atv:refpy="98.086" d="M50.339,83.672L54.617,83.672L54.617,112.5L50.339,112.5Z" fill="url(#SVGID_3_)" id="id_10"/>
   <path atv:refpx="52.478" atv:refpy="84.685" d="M50.339,83.672L52.591,85.698L54.618,83.672Z" fill="#333399" id="id_11"/>
   <path atv:refpx="7.208" atv:refpy="98.086" d="M5.181,83.672L9.235,83.672L9.235,112.5L5.181,112.5Z" fill="url(#SVGID_4_)" id="id_12"/>
   <path atv:refpx="7.209" atv:refpy="84.685" d="M5.181,83.672L7.096,85.698L9.236,83.672Z" fill="#333399" id="id_13"/>
   <path atv:refpx="29.787" atv:refpy="106.25" d="M50.339,104.166L50.339,108.334L9.235,108.334L9.235,104.166Z" fill="#333399" id="id_14"/>
  </g>
  <g atv:refpx="29.9" atv:refpy="48.512" id="Group_TankBody">
   <path atv:refpx="29.9" atv:refpy="18.301" d="M54.618,18.806C54.618,18.806 50.81,13.964 32.997,13.401C31.393,13.35 28.181,13.321 26.578,13.401C7.727,14.334 5.181,18.806 5.181,18.806C5.181,18.806 5.181,23.25 30.06,23.25C54.619,23.25 54.618,18.806 54.618,18.806" fill="url(#SVGID_5_)" id="id_15"/>
   <path atv:refpx="29.899" atv:refpy="51.239" d="M5.181,83.672L5.181,18.806L54.617,18.806L54.617,83.672Z" fill="url(#SVGID_6_)" id="id_16"/>
  </g>
 </g>
</svg>
