<?xml version='1.0' encoding='UTF-8' standalone='no'?>
<svg height="342" version="1.2" width="408" xmlns="http://www.w3.org/2000/svg" xmlns:atv="http://webmi.atvise.com/2007/svgext" xmlns:xlink="http://www.w3.org/1999/xlink">
 <desc>From Base Object v1.3
</desc>
 <defs>
  <linearGradient gradientUnits="objectBoundingBox" id="id_33_fill_gradient" spreadMethod="reflect" x1="0.0675676" x2="0.581081" y1="1" y2="1">
   <stop offset="0" stop-color="#999999"/>
   <stop offset="1" stop-color="#e5e5e5"/>
  </linearGradient>
  <linearGradient gradientUnits="objectBoundingBox" id="id_34_fill_gradient" spreadMethod="reflect" x1="-0.135135" x2="0.405405" y1="0.986486" y2="0.972973">
   <stop offset="0" stop-color="#999999"/>
   <stop offset="1" stop-color="#e5e5e5"/>
  </linearGradient>
  <linearGradient gradientUnits="objectBoundingBox" id="id_41_fill_gradient" spreadMethod="reflect" x1="-0.135135" x2="0.405405" y1="1" y2="0.972973">
   <stop offset="0" stop-color="#999999"/>
   <stop offset="1" stop-color="#e5e5e5"/>
  </linearGradient>
  <linearGradient gradientUnits="objectBoundingBox" id="id_42_fill_gradient" spreadMethod="reflect" x1="-0.135135" x2="0.405405" y1="0.986486" y2="0.972973">
   <stop offset="0" stop-color="#999999"/>
   <stop offset="1" stop-color="#e5e5e5"/>
  </linearGradient>
  <radialGradient cx="0.5" cy="0.5" fx="0.5" fy="0.5" gradientUnits="objectBoundingBox" id="id_42_stroke_gradient" r="1">
   <stop offset="0" stop-color="#000000"/>
   <stop offset="1" stop-color="#ffffff"/>
  </radialGradient>
  <linearGradient gradientUnits="objectBoundingBox" id="id_43_fill_gradient" spreadMethod="reflect" x1="-0.135135" x2="0.405405" y1="1" y2="0.972973">
   <stop offset="0" stop-color="#999999"/>
   <stop offset="1" stop-color="#e5e5e5"/>
  </linearGradient>
  <radialGradient cx="0.5" cy="0.5" fx="0.5" fy="0.5" gradientUnits="objectBoundingBox" id="id_44_fill_gradient" r="0.514579">
   <stop offset="0.6088709677419355" stop-color="#e4e4e4"/>
   <stop offset="1" stop-color="#9a9a9a"/>
  </radialGradient>
  <radialGradient cx="0.5" cy="0.5" fx="0.5" fy="0.5" gradientUnits="objectBoundingBox" id="id_7_fill_gradient" r="0.514579">
   <stop offset="0.6088709677419355" stop-color="#e4e4e4"/>
   <stop offset="1" stop-color="#9a9a9a"/>
  </radialGradient>
  <linearGradient gradientUnits="objectBoundingBox" id="linear_0" x1="0" x2="1" y1="0" y2="1">
   <stop offset="0" stop-color="#000000"/>
   <stop offset="1" stop-color="#000000" stop-opacity="0"/>
  </linearGradient>
  <linearGradient gradientUnits="objectBoundingBox" id="SVGID_10_" x1="0.499943" x2="0.499943" y1="1.00002" y2="-8.45845e-05">
   <stop offset="0.01" stop-color="#595959"/>
   <stop offset="0.5" stop-color="#EBEBEB"/>
   <stop offset="1" stop-color="#595959"/>
  </linearGradient>
  <linearGradient gradientUnits="objectBoundingBox" id="SVGID_11_" x1="0.499734" x2="0.499734" y1="1.00001" y2="-5.72902e-05">
   <stop offset="0.01" stop-color="#595959"/>
   <stop offset="0.5" stop-color="#EBEBEB"/>
   <stop offset="1" stop-color="#595959"/>
  </linearGradient>
  <linearGradient gradientUnits="objectBoundingBox" id="SVGID_12_" x1="-5.72902e-05" x2="0.999943" y1="0.499112" y2="0.499112">
   <stop offset="0" stop-color="#868686"/>
   <stop offset="0.5" stop-color="#EBEBEB"/>
   <stop offset="1" stop-color="#808080"/>
  </linearGradient>
  <linearGradient gradientUnits="objectBoundingBox" id="SVGID_13_" x1="0.000177541" x2="1.00013" y1="0.499989" y2="0.499989">
   <stop offset="0" stop-color="#868686"/>
   <stop offset="0.5" stop-color="#EBEBEB"/>
   <stop offset="1" stop-color="#808080"/>
  </linearGradient>
  <linearGradient gradientUnits="objectBoundingBox" id="SVGID_14_" x1="7.10404e-06" x2="0.999982" y1="0.499967" y2="0.499967">
   <stop offset="0.01" stop-color="#595959"/>
   <stop offset="0.5" stop-color="#EBEBEB"/>
   <stop offset="1" stop-color="#595959"/>
  </linearGradient>
  <linearGradient gradientUnits="objectBoundingBox" id="SVGID_15_" x1="0" x2="1.00011" y1="0.499996" y2="0.499996">
   <stop offset="0.01" stop-color="#595959"/>
   <stop offset="0.5" stop-color="#EBEBEB"/>
   <stop offset="1" stop-color="#595959"/>
  </linearGradient>
  <linearGradient gradientUnits="objectBoundingBox" id="SVGID_16_" x1="0.395972" x2="0.788571" y1="0.759433" y2="0.323258">
   <stop offset="0.01" stop-color="#595959"/>
   <stop offset="0.5" stop-color="#EBEBEB"/>
   <stop offset="1" stop-color="#595959"/>
  </linearGradient>
  <linearGradient gradientUnits="objectBoundingBox" id="SVGID_1_" x1="6.19579e-05" x2="1.00012" y1="0.5" y2="0.5">
   <stop offset="0" stop-color="#868686"/>
   <stop offset="0.5" stop-color="#EBEBEB"/>
   <stop offset="1" stop-color="#808080"/>
  </linearGradient>
  <radialGradient cx="0.500021" cy="0.500065" fx="0.500021" fy="0.500065" gradientUnits="objectBoundingBox" id="SVGID_2_" r="0.500011">
   <stop offset="0" stop-color="#E0E0E0"/>
   <stop offset="0.5" stop-color="#E0E0E0"/>
   <stop offset="1" stop-color="#595959"/>
  </radialGradient>
  <linearGradient gradientUnits="objectBoundingBox" id="SVGID_3_" x1="-2.08337e-07" x2="1" y1="0.499995" y2="0.499995">
   <stop offset="0.01" stop-color="#595959"/>
   <stop offset="0.5" stop-color="#E0E0E0"/>
   <stop offset="1" stop-color="#595959"/>
  </linearGradient>
  <linearGradient gradientUnits="objectBoundingBox" id="SVGID_4_" x1="0.499974" x2="0.499974" y1="0.999979" y2="-0.000126877">
   <stop offset="0.01" stop-color="#595959"/>
   <stop offset="0.5" stop-color="#EBEBEB"/>
   <stop offset="1" stop-color="#595959"/>
  </linearGradient>
  <linearGradient gradientUnits="objectBoundingBox" id="SVGID_5_" x1="0.500444" x2="0.500444" y1="0.999971" y2="-8.59353e-05">
   <stop offset="0.01" stop-color="#595959"/>
   <stop offset="0.5" stop-color="#EBEBEB"/>
   <stop offset="1" stop-color="#595959"/>
  </linearGradient>
  <linearGradient gradientUnits="objectBoundingBox" id="SVGID_6_" x1="0.500062" x2="0.500062" y1="1.00011" y2="0">
   <stop offset="0.01" stop-color="#595959"/>
   <stop offset="0.5" stop-color="#EBEBEB"/>
   <stop offset="1" stop-color="#595959"/>
  </linearGradient>
  <linearGradient gradientUnits="objectBoundingBox" id="SVGID_7_" x1="0.500266" x2="0.500266" y1="0.999972" y2="-2.00322e-15">
   <stop offset="0.01" stop-color="#595959"/>
   <stop offset="0.5" stop-color="#EBEBEB"/>
   <stop offset="1" stop-color="#595959"/>
  </linearGradient>
  <linearGradient gradientUnits="objectBoundingBox" id="SVGID_8_" x1="0.499963" x2="0.499963" y1="1.00003" y2="-2.86451e-05">
   <stop offset="0.01" stop-color="#595959"/>
   <stop offset="0.5" stop-color="#EBEBEB"/>
   <stop offset="1" stop-color="#595959"/>
  </linearGradient>
  <linearGradient gradientUnits="objectBoundingBox" id="SVGID_9_" x1="0.500081" x2="0.500081" y1="1.00007" y2="0.000117273">
   <stop offset="0.01" stop-color="#595959"/>
   <stop offset="0.5" stop-color="#EBEBEB"/>
   <stop offset="1" stop-color="#595959"/>
  </linearGradient>
  <linearGradient gradientUnits="objectBoundingBox" id="linear_1" x1="0.499974" x2="0.499974" y1="0.999979" y2="-0.000126877">
   <stop offset="0.01" stop-color="#595959"/>
   <stop offset="0.5" stop-color="#EBEBEB"/>
   <stop offset="1" stop-color="#595959"/>
  </linearGradient>
  <linearGradient gradientUnits="objectBoundingBox" id="linear_2" x1="0.500444" x2="0.500444" y1="0.999971" y2="-8.59353e-05">
   <stop offset="0.01" stop-color="#595959"/>
   <stop offset="0.5" stop-color="#EBEBEB"/>
   <stop offset="1" stop-color="#595959"/>
  </linearGradient>
  <linearGradient gradientUnits="objectBoundingBox" id="linear_3" x1="0.500062" x2="0.500062" y1="1.00002" y2="-6.34249e-05">
   <stop offset="0.01" stop-color="#595959"/>
   <stop offset="0.5" stop-color="#EBEBEB"/>
   <stop offset="1" stop-color="#595959"/>
  </linearGradient>
  <linearGradient gradientUnits="objectBoundingBox" id="linear_4" x1="0.500266" x2="0.500266" y1="1.00006" y2="9.8661e-05">
   <stop offset="0.01" stop-color="#595959"/>
   <stop offset="0.5" stop-color="#EBEBEB"/>
   <stop offset="1" stop-color="#595959"/>
  </linearGradient>
  <linearGradient gradientUnits="objectBoundingBox" id="linear_5" x1="6.19579e-05" x2="1.00012" y1="0.5" y2="0.5">
   <stop offset="0" stop-color="#868686"/>
   <stop offset="0.5" stop-color="#EBEBEB"/>
   <stop offset="1" stop-color="#808080"/>
  </linearGradient>
  <radialGradient cx="0.500021" cy="0.500065" fx="0.500021" fy="0.500065" gradientUnits="objectBoundingBox" id="radial_6" r="0.500011">
   <stop offset="0" stop-color="#E0E0E0"/>
   <stop offset="0.5" stop-color="#E0E0E0"/>
   <stop offset="1" stop-color="#595959"/>
  </radialGradient>
  <linearGradient gradientUnits="objectBoundingBox" id="linear_7" x1="-2.08337e-07" x2="1" y1="0.499995" y2="0.499995">
   <stop offset="0.01" stop-color="#595959"/>
   <stop offset="0.5" stop-color="#E0E0E0"/>
   <stop offset="1" stop-color="#595959"/>
  </linearGradient>
  <linearGradient gradientUnits="objectBoundingBox" id="linear_8" x1="-5.07635e-06" x2="0.999935" y1="0.499991" y2="0.499991">
   <stop offset="0.01" stop-color="#595959"/>
   <stop offset="0.5" stop-color="#E0E0E0"/>
   <stop offset="1" stop-color="#595959"/>
  </linearGradient>
  <linearGradient gradientUnits="objectBoundingBox" id="linear_9" x1="7.10429e-06" x2="1.00002" y1="0.499995" y2="0.499995">
   <stop offset="0.01" stop-color="#595959"/>
   <stop offset="0.5" stop-color="#E0E0E0"/>
   <stop offset="1" stop-color="#595959"/>
  </linearGradient>
  <linearGradient gradientUnits="objectBoundingBox" id="linear_10" x1="0.499943" x2="0.499943" y1="1.00002" y2="-8.45666e-05">
   <stop offset="0.01" stop-color="#595959"/>
   <stop offset="0.5" stop-color="#EBEBEB"/>
   <stop offset="1" stop-color="#595959"/>
  </linearGradient>
  <linearGradient gradientUnits="objectBoundingBox" id="linear_11" x1="0.499734" x2="0.499734" y1="1.00001" y2="-5.72902e-05">
   <stop offset="0.01" stop-color="#595959"/>
   <stop offset="0.5" stop-color="#EBEBEB"/>
   <stop offset="1" stop-color="#595959"/>
  </linearGradient>
  <linearGradient gradientUnits="objectBoundingBox" id="linear_12" x1="0.499963" x2="0.499963" y1="1.00003" y2="-2.86533e-05">
   <stop offset="0.01" stop-color="#595959"/>
   <stop offset="0.5" stop-color="#EBEBEB"/>
   <stop offset="1" stop-color="#595959"/>
  </linearGradient>
  <linearGradient gradientUnits="objectBoundingBox" id="linear_13" x1="0.500081" x2="0.500081" y1="1.00007" y2="0.000117273">
   <stop offset="0.01" stop-color="#595959"/>
   <stop offset="0.5" stop-color="#EBEBEB"/>
   <stop offset="1" stop-color="#595959"/>
  </linearGradient>
 </defs>
 <metadata>
  <atv:parameter behavior="optional" defaultvalue="SYSTEM.GLOBALS.Color_Global_1" desc="Color" name="Color" substitute="$Color$" valuetype="global"/>
  <atv:parameter behavior="optional" defaultvalue="SYSTEM.GLOBALS.Maintenance_Water_Clarifier" desc="Global Maintenance" name="Global_Maintenance" valuetype="global"/>
  <atv:gridconfig enabled="true" gridstyle="lines" height="20" width="20"/>
  <atv:snapconfig enabled="true" height="1" width="1"/>
 </metadata>
 <text atv:refpx="124.738" atv:refpy="11.5" fill="$Color$" font-family="Arial" font-size="14" font-weight="bold" id="Title" x="103.5" y="17">Name</text>
 <svg atv:refpx="138" atv:refpy="331.998" height="30" id="id_2" transform="matrix(1,0,0,0.6667,0,0)" width="80" x="98" xlink:href="SYSTEM.LIBRARY.ATVISE.OBJECTDISPLAYS.Advanced.button_switch" y="482.976">
  <atv:argument name="base" prefix="base" value=".Apertura"/>
  <atv:argument name="labelOn" value="T{Stop}"/>
  <atv:argument name="labelOff" value="T{Start}"/>
  <atv:overwrite height="18.001" id="id_6" transform="matrix(1,0,0,1.4999,0,0)"/>
  <atv:overwrite id="button_label" transform="matrix(1,0,0,1.4999,0,0)" y="14.5"/>
  <atv:overwrite id="button_symbol_off" transform="matrix(1,0,0,1.4999,0,0)" y="0"/>
  <atv:overwrite id="button_symbol_on" transform="matrix(1,0,0,1.4999,0,0)" y="0"/>
  <atv:overwrite height="16.001" id="blinking_frame" transform="matrix(1,0,0,1.4999,0,0)"/>
  <atv:overwrite height="16.001" id="button_stroke" transform="matrix(1,0,0,1.4999,0,0)"/>
  <atv:overwrite height="18.001" id="button_bg" transform="matrix(1,0,0,1.4999,0,0)"/>
  <atv:overwrite height="20.001" id="outer_frame" transform="matrix(1,0,0,1.4999,0,0)"/>
 </svg>
 <text atv:refpx="125.156" atv:refpy="312.5" fill="#195c88" font-family="Arial" font-size="12" font-weight="bold" id="id_49" x="108" y="317">On/Off</text>
 <polygon atv:refpx="63.671" atv:refpy="58.519" fill="#fdf90a" id="alert_increasing" points="51.67,70.518 75.67,70.518 63.003,46.518" stroke="#000000" stroke-width="1"/>
 <g atv:refpx="24.062" atv:refpy="188.546" id="maintenance" transform="matrix(1,0,0,1,-0.5819,33.9015)">
  <rect atv:refpx="46.171" atv:refpy="204.643" fill="#2b9de8" height="24.544" id="id_39" stroke="#000000" stroke-width="1" transform="matrix(0.7071,-0.7071,0.7071,0.7071,0,0)" width="24.544" x="-104.196" y="114.505"/>
  <text atv:refpx="28" atv:refpy="149.5" fill="#000000" font-family="Arial" font-size="14" id="id_40" x="18.5" y="160">M</text>
 </g>
 <polygon atv:refpx="11.207" atv:refpy="61.103" fill="#fdbf21" id="alert_decreasing" points="25.872,49.102 1.871,49.102 14.536,73.103" stroke="#000000" stroke-width="1"/>
 <text atv:refpx="64.671" atv:refpy="63.019" fill="#000000" font-family="Arial" font-size="14" font-weight="bold" id="alertC_text" text-anchor="end" x="66.171" y="67.519">1</text>
 <text atv:refpx="14.459" atv:refpy="58.101" fill="#000000" font-family="Arial" font-size="14" font-weight="bold" id="alertD_text" x="10.959" y="62.601">1</text>
 <rect atv:refpx="9.088" atv:refpy="-37.049" fill="#93060a" fill-opacity="0" height="42" id="click_area_alertC" stroke="none" stroke-width="0" width="28" x="50" y="31.484"/>
 <rect atv:refpx="14" atv:refpy="63.484" fill="#93060a" fill-opacity="0" height="42" id="click_area_alertD" stroke="none" stroke-width="0" width="28" x="0" y="44.484"/>
 <polygon atv:refpx="60.419" atv:refpy="102.021" fill="#fdf90a" id="alert_increasing_min" points="75.084,90.018 51.082,90.018 63.748,114.018" stroke="#000000" stroke-width="1"/>
 <text atv:refpx="63.671" atv:refpy="99.019" fill="#000000" font-family="Arial" font-size="14" font-weight="bold" id="alertC_text_min" x="60.171" y="103.519">1</text>
 <polygon atv:refpx="14.459" atv:refpy="101.601" fill="#fdbf21" id="alert_decreasing_min" points="2.458,113.601 26.458,113.601 13.79,89.601" stroke="#000000" stroke-width="1"/>
 <text atv:refpx="15" atv:refpy="105.984" fill="#000000" font-family="Arial" font-size="14" font-weight="bold" id="alertD_text_min" text-anchor="end" x="16.5" y="110.484">1</text>
 <rect atv:refpx="-40.912" atv:refpy="6.951" fill="#93060a" fill-opacity="0" height="42" id="click_area_alertD_min" stroke="none" stroke-width="0" width="28" x="0" y="75.484"/>
 <g atv:refpx="36.5" atv:refpy="81.484" id="Ind_Bar" transform="matrix(1,0,0,1,-2,12.484)">
  <rect atv:refpx="38.5" atv:refpy="69" fill="#626262" height="77.366" id="Barra_Ind2" rx="7" ry="7" stroke="#000000" stroke-width="1" width="14" x="31.5" y="30.317"/>
  <path atv:refpx="38.496" atv:refpy="36.976" d="M31.826,43.257L45.178,43.257L45.08,36.1C45.08,36.1 44.046,30.754 38.676,30.694C33.305,30.633 31.876,35.603 31.876,35.603C31.876,35.603 31.777,43.318 31.826,43.257" fill="#b5b5b5" id="id_19" stroke="#000000" stroke-width="0"/>
  <path atv:refpx="38.533" atv:refpy="100.982" d="M45.204,94.701L31.852,94.701L31.95,101.858C31.95,101.858 32.985,107.205 38.355,107.265C43.726,107.324 45.154,102.356 45.154,102.356C45.154,102.356 45.252,94.641 45.204,94.701" fill="#b5b5b5" id="id_20" stroke="#000000" stroke-width="0"/>
 </g>
 <rect atv:refpx="49.396" atv:refpy="34.695" fill="#bd070d" height="23" id="alarm_square" rx="1.855" ry="1.987" stroke="#000000" stroke-width="1" text-anchor="middle" width="23" x="37.446" y="22.569"/>
 <text atv:refpx="-20.554" atv:refpy="9.284" fill="#000000" font-family="Arial" font-size="14" font-weight="bold" id="alarm_text" text-anchor="middle" x="48.946" y="39.07">1</text>
 <rect atv:refpx="-3.405" atv:refpy="-29.206" fill="#93060a" fill-opacity="0" height="28" id="click_area_alarm" stroke="none" stroke-width="0" width="28" x="34.879" y="20"/>
 <rect atv:refpx="49.102" atv:refpy="129.129" fill="#bd070d" height="23" id="alarm_square_min" rx="1.855" ry="1.987" stroke="#000000" stroke-width="1" text-anchor="middle" width="23" x="37.152" y="117.003"/>
 <text atv:refpx="-20.848" atv:refpy="103.718" fill="#000000" font-family="Arial" font-size="14" font-weight="bold" id="alarm_text_min" text-anchor="middle" x="48.652" y="133.504">1</text>
 <rect atv:refpx="-3.983" atv:refpy="65.512" fill="#93060a" fill-opacity="0" height="28" id="click_area_alarm_min" stroke="none" stroke-width="0" width="28" x="34.301" y="114.718"/>
 <rect atv:refpx="63" atv:refpy="104.484" fill="#93060a" fill-opacity="0" height="42" id="click_area_alertC_min" stroke="none" stroke-width="0" width="28" x="49" y="85.484"/>
 <script atv:desc="" atv:href="SYSTEM.LIBRARY.PROJECT.DISPLAYSCRIPTS.atvise_Advanced_Objects_Display_Scripts.AAA_Principal_Display_Script" atv:name="" atv:type="text/ecmascript"/>
 <script atv:desc="" atv:name="" type="text/ecmascript"><![CDATA[












]]></script>
 <g atv:refpx="251.513" atv:refpy="148.437" id="Image1" transform="matrix(1,0,0,1,0,20)">
  <g atv:refpx="251.356" atv:refpy="24.761" id="Group_Air_Getaway" transform="matrix(2.7647,0,0,2.7647,95.9972,-14)">
   <path atv:refpx="56.193" atv:refpy="26.294" d="M50.338,28.04L53.829,24.549L58.558,24.549L62.048,28.04Z" fill="#B2B2B2" id="id_0" stroke="#4C4C4C" stroke-width="0.25"/>
   <path atv:refpx="56.137" atv:refpy="14.02" d="M53.716,28.04L53.716,11.599L54.842,11.599L54.842,0L57.32,0L57.32,11.599L58.558,11.599L58.558,28.04Z" fill="url(#linear_5)" id="id_1" stroke="#4C4C4C" stroke-width="0.1"/>
   <path atv:refpx="53.829" atv:refpy="11.655" d="M51.464,11.599L52.14,10.022L53.829,9.346L55.517,10.022L56.193,11.599L55.517,13.288L53.829,13.964L52.14,13.288Z" fill="url(#radial_6)" id="id_3"/>
  </g>
  <g atv:refpx="316.114" atv:refpy="24.761" id="Group_Adjusters" transform="matrix(2.7647,0,0,2.7647,95.9972,-14)">
   <path atv:refpx="79.617" atv:refpy="9.91" d="M77.252,6.982L81.981,6.982L81.981,12.838L77.252,12.838Z" fill="#CCCCCC" id="id_4" stroke="#4C4C4C" stroke-width="0.25"/>
   <path atv:refpx="82.544" atv:refpy="14.583" d="M81.981,8.108L83.107,8.108L83.107,21.058L81.981,21.058Z" fill="#666666" id="id_5"/>
   <path atv:refpx="76.689" atv:refpy="14.583" d="M76.126,8.108L77.252,8.108L77.252,21.058L76.126,21.058Z" fill="#666666" id="id_7"/>
  </g>
  <g atv:refpx="306.462" atv:refpy="44.236" id="Group_Yellow_Rail" transform="matrix(2.7647,0,0,2.7647,95.9972,-14)">
   <path atv:refpx="76.126" atv:refpy="22.241" d="M40.991,21.058L111.261,21.058L111.261,23.423L40.991,23.423Z" fill="#FFCC00" id="id_8"/>
   <path atv:refpx="76.125" atv:refpy="21.002" d="M112.499,28.04L110.134,28.04L110.134,16.329L88.963,16.329L88.963,28.04L86.598,28.04L86.598,16.329L65.541,16.329L65.541,28.04L63.175,28.04L63.175,16.329L42.117,16.329L42.117,28.04L39.751,28.04L39.751,13.964L112.499,13.964Z" fill="#FFCC00" id="id_9"/>
   <path atv:refpx="76.126" atv:refpy="21.621" d="M40.991,28.04L40.991,15.203L111.261,15.203L111.261,28.04" fill="none" id="id_10" stroke="#FFFFFF" stroke-width="0.25"/>
   <path atv:refpx="64.914" atv:refpy="21.621" d="M64.414,15.203L64.414,28.04" fill="none" id="id_11" stroke="#FFFFFF" stroke-width="0.25"/>
   <path atv:refpx="88.338" atv:refpy="21.621" d="M87.838,15.203L87.838,28.04" fill="none" id="id_12" stroke="#FFFFFF" stroke-width="0.25"/>
   <path atv:refpx="52.703" atv:refpy="22.685" d="M42.117,22.185L63.288,22.185" fill="none" id="id_13" stroke="#FFFFFF" stroke-width="0.25"/>
   <path atv:refpx="76.126" atv:refpy="22.685" d="M65.541,22.185L86.711,22.185" fill="none" id="id_14" stroke="#FFFFFF" stroke-width="0.25"/>
   <path atv:refpx="99.549" atv:refpy="22.685" d="M88.963,22.185L110.134,22.185" fill="none" id="id_15" stroke="#FFFFFF" stroke-width="0.25"/>
  </g>
  <g atv:refpx="251.513" atv:refpy="167.2" id="Group_Cutaway" transform="matrix(2.7647,0,0,2.7647,95.9972,-14)">
   <path atv:refpx="56.25" atv:refpy="65.54" d="M0.001,32.77L2.252,32.77L2.252,28.04L112.499,28.04L112.499,32.77L110.134,32.77L107.77,35.135L107.77,46.846L70.27,84.346L70.27,103.039L42.117,103.039L42.117,84.346L4.616,46.846L4.616,53.828L0.001,53.828Z" fill="url(#linear_7)" id="id_16" stroke="#4C4C4C" stroke-width="0.25"/>
   <path atv:refpx="56.194" atv:refpy="84.846" d="M42.117,84.346L70.27,84.346" fill="none" id="id_17" stroke="#4C4C4C" stroke-width="0.25"/>
   <path atv:refpx="56.193" atv:refpy="47.909" d="M13.964,47.409L98.422,47.409" fill="none" id="id_18" stroke="#4C4C4C" stroke-width="0.25"/>
   <path atv:refpx="56.193" atv:refpy="47.346" d="M13.964,46.846L98.422,46.846" fill="none" id="id_21" stroke="#E5E5E5" stroke-width="0.25"/>
   <rect atv:refpx="2.309" atv:refpy="43.299" fill="url(#linear_8)" height="21.058" id="id_22" width="4.617" x="0.001" y="32.77"/>
   <rect atv:refpx="56.193" atv:refpy="93.693" fill="url(#linear_9)" height="18.693" id="id_23" width="28.152" x="42.117" y="84.346"/>
   <path atv:refpx="56.194" atv:refpy="33.333" d="M2.253,32.77L110.135,32.77L108.896,33.896L3.492,33.896Z" fill="#666666" id="id_24"/>
  </g>
  <g atv:refpx="301.64" atv:refpy="261.223" id="Group_Pipe4" transform="matrix(2.7647,0,0,2.7647,95.9972,-14)">
   <path atv:refpx="74.381" atv:refpy="99.549" d="M69.145,101.914L69.145,97.184L79.618,97.184L79.618,101.914Z" fill="url(#linear_10)" id="id_25"/>
   <path atv:refpx="73.198" atv:refpy="99.548" d="M72.635,103.039L72.635,96.057L73.762,96.057L73.762,103.039Z" fill="url(#linear_11)" id="id_26"/>
  </g>
  <g atv:refpx="300.081" atv:refpy="233.67" id="Group_Pipe3" transform="matrix(2.7647,0,0,2.7647,95.9972,-14)">
   <path atv:refpx="73.198" atv:refpy="89.583" d="M69.145,91.328L69.145,87.838L77.252,87.838L77.252,91.328Z" fill="url(#linear_12)" id="id_27"/>
   <path atv:refpx="77.871" atv:refpy="89.582" d="M77.252,92.566L77.252,86.597L78.49,86.597L78.49,92.566Z" fill="url(#linear_13)" id="id_28"/>
  </g>
  <g atv:refpx="194.54" atv:refpy="251.574" id="Group_Pipe2" transform="matrix(2.7647,0,0,2.7647,95.9972,-14)">
   <path atv:refpx="35.642" atv:refpy="96.058" d="M28.041,98.422L28.041,93.693L43.244,93.693L43.244,98.422Z" fill="url(#linear_1)" id="id_29"/>
   <path atv:refpx="39.189" atv:refpy="96.058" d="M38.626,99.549L38.626,92.567L39.751,92.567L39.751,99.549Z" fill="url(#linear_2)" id="id_30"/>
  </g>
  <g atv:refpx="202.788" atv:refpy="232.113" id="Group_Pipe1" transform="matrix(2.7647,0,0,2.7647,95.9972,-14)">
   <g atv:refpx="38.626" atv:refpy="89.019" id="id_31">
    <path atv:refpx="39.189" atv:refpy="88.963" d="M35.135,91.328L35.135,86.598L43.242,86.598L43.242,91.328Z" fill="url(#linear_3)" id="id_32"/>
    <path atv:refpx="34.572" atv:refpy="89.019" d="M35.135,92.566L35.135,85.471L34.009,85.471L34.009,92.566Z" fill="url(#linear_4)" id="id_33"/>
   </g>
  </g>
 </g>
 <rect atv:refpx="251" atv:refpy="147" fill="#000000" fill-opacity="0" height="294" id="click_area" stroke="#0000ff" stroke-width="0" width="314" x="94" y="0"/>
</svg>
