<!DOCTYPE svg PUBLIC '-//W3C//DTD SVG 1.1//EN' 'http://www.w3.org/Graphics/SVG/1.1/DTD/svg11.dtd'>
<svg enable-background="new 0 0 112.5 96.055" height="96.055000000000007" version="1.1" width="112.5" xml:space="preserve" xmlns="http://www.w3.org/2000/svg" xmlns:atv="http://webmi.atvise.com/2007/svgext" xmlns:xlink="http://www.w3.org/1999/xlink">
 <defs>
  <linearGradient gradientUnits="objectBoundingBox" id="SVGID_1_" x1="0.499998" x2="0.499998" y1="1.00002" y2="1.47735e-05">
   <stop offset="0" stop-color="#383838"/>
   <stop offset="0.45" stop-color="#ECECEC"/>
   <stop offset="0.55" stop-color="#D9D9D9"/>
   <stop offset="0.76" stop-color="#A8A8A8"/>
   <stop offset="0.77" stop-color="#A6A6A6"/>
   <stop offset="1" stop-color="#383838"/>
  </linearGradient>
  <linearGradient gradientUnits="objectBoundingBox" id="SVGID_2_" x1="0.499704" x2="0.499704" y1="1.00001" y2="1.06626e-05">
   <stop offset="0" stop-color="#1F1F1F"/>
   <stop offset="0.45" stop-color="#999999"/>
   <stop offset="0.62" stop-color="#868686"/>
   <stop offset="0.77" stop-color="#737373"/>
   <stop offset="1" stop-color="#1F1F1F"/>
  </linearGradient>
  <linearGradient gradientUnits="objectBoundingBox" id="SVGID_3_" x1="0.499958" x2="0.499958" y1="1.00001" y2="1.06626e-05">
   <stop offset="0" stop-color="#1F1F1F"/>
   <stop offset="0.45" stop-color="#999999"/>
   <stop offset="0.62" stop-color="#868686"/>
   <stop offset="0.77" stop-color="#737373"/>
   <stop offset="1" stop-color="#1F1F1F"/>
  </linearGradient>
  <linearGradient gradientUnits="objectBoundingBox" id="SVGID_4_" x1="0.499831" x2="0.499831" y1="1.00001" y2="1.06626e-05">
   <stop offset="0" stop-color="#1F1F1F"/>
   <stop offset="0.45" stop-color="#999999"/>
   <stop offset="0.62" stop-color="#868686"/>
   <stop offset="0.77" stop-color="#737373"/>
   <stop offset="1" stop-color="#1F1F1F"/>
  </linearGradient>
  <linearGradient gradientUnits="objectBoundingBox" id="SVGID_5_" x1="0.500222" x2="0.500222" y1="1.00001" y2="1.06626e-05">
   <stop offset="0" stop-color="#1F1F1F"/>
   <stop offset="0.45" stop-color="#999999"/>
   <stop offset="0.62" stop-color="#868686"/>
   <stop offset="0.77" stop-color="#737373"/>
   <stop offset="1" stop-color="#1F1F1F"/>
  </linearGradient>
  <linearGradient gradientUnits="objectBoundingBox" id="SVGID_6_" x1="0.500127" x2="0.500127" y1="1.00001" y2="1.06626e-05">
   <stop offset="0" stop-color="#1F1F1F"/>
   <stop offset="0.45" stop-color="#999999"/>
   <stop offset="0.62" stop-color="#868686"/>
   <stop offset="0.77" stop-color="#737373"/>
   <stop offset="1" stop-color="#1F1F1F"/>
  </linearGradient>
  <linearGradient gradientUnits="objectBoundingBox" id="SVGID_7_" x1="0.499789" x2="0.499789" y1="1.00001" y2="1.06626e-05">
   <stop offset="0" stop-color="#1F1F1F"/>
   <stop offset="0.45" stop-color="#999999"/>
   <stop offset="0.62" stop-color="#868686"/>
   <stop offset="0.77" stop-color="#737373"/>
   <stop offset="1" stop-color="#1F1F1F"/>
  </linearGradient>
  <linearGradient gradientUnits="objectBoundingBox" id="SVGID_8_" x1="0.500296" x2="0.500296" y1="1.00001" y2="1.06626e-05">
   <stop offset="0" stop-color="#1F1F1F"/>
   <stop offset="0.45" stop-color="#999999"/>
   <stop offset="0.62" stop-color="#868686"/>
   <stop offset="0.77" stop-color="#737373"/>
   <stop offset="1" stop-color="#1F1F1F"/>
  </linearGradient>
  <linearGradient gradientUnits="objectBoundingBox" id="SVGID_9_" x1="0.5" x2="0.5" y1="1.00001" y2="1.06626e-05">
   <stop offset="0" stop-color="#1F1F1F"/>
   <stop offset="0.45" stop-color="#999999"/>
   <stop offset="0.62" stop-color="#868686"/>
   <stop offset="0.77" stop-color="#737373"/>
   <stop offset="1" stop-color="#1F1F1F"/>
  </linearGradient>
  <linearGradient gradientUnits="objectBoundingBox" id="SVGID_10_" x1="0.499915" x2="0.499915" y1="1.00001" y2="1.06626e-05">
   <stop offset="0" stop-color="#1F1F1F"/>
   <stop offset="0.45" stop-color="#999999"/>
   <stop offset="0.62" stop-color="#868686"/>
   <stop offset="0.77" stop-color="#737373"/>
   <stop offset="1" stop-color="#1F1F1F"/>
  </linearGradient>
  <linearGradient gradientUnits="objectBoundingBox" id="SVGID_11_" x1="0.500423" x2="0.500423" y1="1.00001" y2="1.06626e-05">
   <stop offset="0" stop-color="#1F1F1F"/>
   <stop offset="0.45" stop-color="#999999"/>
   <stop offset="0.62" stop-color="#868686"/>
   <stop offset="0.77" stop-color="#737373"/>
   <stop offset="1" stop-color="#1F1F1F"/>
  </linearGradient>
  <linearGradient gradientUnits="objectBoundingBox" id="SVGID_12_" x1="0.500085" x2="0.500085" y1="1.00001" y2="1.06626e-05">
   <stop offset="0" stop-color="#1F1F1F"/>
   <stop offset="0.45" stop-color="#999999"/>
   <stop offset="0.62" stop-color="#868686"/>
   <stop offset="0.77" stop-color="#737373"/>
   <stop offset="1" stop-color="#1F1F1F"/>
  </linearGradient>
 </defs>
 <metadata>
  <atv:gridconfig enabled="false" gridstyle="lines" height="20" width="20"/>
  <atv:snapconfig enabled="false" height="10" width="10"/>
 </metadata>
 <g atv:refpx="56.25" atv:refpy="48.028" id="Image_1">
  <g atv:refpx="55.068" atv:refpy="35.077" id="Group_TankBody">
   <path atv:refpx="53.886" atv:refpy="35.077" d="M9.349,4.617C3.86,4.617 0.002,18.255 0.002,35.077C0.002,51.899 3.86,65.537 9.349,65.537L107.769,65.537L107.769,4.617Z" fill="url(#SVGID_1_)" id="id_0"/>
   <ellipse atv:refpx="107.769" atv:refpy="35.022" cx="107.769" cy="35.022" fill="#7F7F7F" id="id_1" rx="2.364" ry="30.404"/>
  </g>
  <g atv:refpx="79.617" atv:refpy="91.382" id="Group_TankSupprt">
   <path atv:refpx="57.376" atv:refpy="69.085" d="M13.965,65.538L100.787,65.538L100.787,72.633L13.965,72.633Z" fill="#194C4C" id="id_2"/>
   <path atv:refpx="57.376" atv:refpy="80.797" d="M18.695,72.633L96.056,72.633L96.056,88.961L18.695,88.961Z" id="id_3"/>
   <path atv:refpx="37.444" atv:refpy="89.017" d="M16.329,84.344L58.559,84.344L58.559,93.69L16.329,93.69Z" fill="#336666" id="id_4"/>
   <path atv:refpx="79.617" atv:refpy="91.381" d="M56.194,86.708L103.039,86.708L103.039,96.054L56.194,96.054Z" fill="#194C4C" id="id_5"/>
   <path atv:refpx="79.617" atv:refpy="94.873" d="M53.829,93.691L105.404,93.691L105.404,96.055L53.829,96.055Z" fill="#A3B2B2" id="id_6"/>
   <path atv:refpx="79.617" atv:refpy="87.891" d="M53.829,86.708L105.404,86.708L105.404,89.073L53.829,89.073Z" fill="#A3B2B2" id="id_7"/>
  </g>
  <g atv:refpx="50.338" atv:refpy="74.997" id="Group_Support">
   <path atv:refpx="62.049" atv:refpy="70.267" d="M58.559,63.286L65.539,63.286L65.539,77.249L58.558,77.249Z" fill="#A6A6A6" id="id_8"/>
   <path atv:refpx="24.551" atv:refpy="70.267" d="M21.06,63.286L28.041,63.286L28.041,77.249L21.06,77.249Z" fill="#A6A6A6" id="id_9"/>
   <path atv:refpx="24.55" atv:refpy="80.796" d="M13.965,77.249L35.135,77.249L35.135,84.344L13.965,84.344Z" fill="#A6A694" id="id_10"/>
   <path atv:refpx="64.415" atv:refpy="81.978" d="M42.118,77.249L86.711,77.249L86.711,86.708L42.118,86.708Z" fill="#CCCCC2" id="id_11"/>
   <path atv:refpx="43.3" atv:refpy="77.306" d="M39.753,70.268L46.847,70.268L46.847,84.344L39.753,84.344Z" fill="#7F7F7F" id="id_12"/>
   <path atv:refpx="24.55" atv:refpy="80.797" d="M13.965,79.615L35.135,79.615L35.135,81.979L13.965,81.979Z" fill="#4C4C4C" id="id_13"/>
  </g>
  <g atv:refpx="57.376" atv:refpy="35.077" id="Group_Lines">
   <path atv:refpx="10.532" atv:refpy="35.077" d="M9.349,2.252L11.714,2.252L11.714,67.902L9.349,67.902Z" fill="url(#SVGID_2_)" id="id_14"/>
   <path atv:refpx="19.878" atv:refpy="35.077" d="M18.695,2.252L21.06,2.252L21.06,67.902L18.695,67.902Z" fill="url(#SVGID_3_)" id="id_15"/>
   <path atv:refpx="29.225" atv:refpy="35.077" d="M28.042,2.252L30.407,2.252L30.407,67.902L28.042,67.902Z" fill="url(#SVGID_4_)" id="id_16"/>
   <path atv:refpx="38.626" atv:refpy="35.077" d="M37.5,2.252L39.752,2.252L39.752,67.902L37.5,67.902Z" fill="url(#SVGID_5_)" id="id_17"/>
   <path atv:refpx="48.029" atv:refpy="35.077" d="M46.847,2.252L49.212,2.252L49.212,67.902L46.847,67.902Z" fill="url(#SVGID_6_)" id="id_18"/>
   <path atv:refpx="57.377" atv:refpy="35.077" d="M56.194,2.252L58.559,2.252L58.559,67.902L56.194,67.902Z" fill="url(#SVGID_7_)" id="id_19"/>
   <path atv:refpx="66.722" atv:refpy="35.077" d="M65.54,2.252L67.904,2.252L67.904,67.902L65.54,67.902Z" fill="url(#SVGID_8_)" id="id_20"/>
   <path atv:refpx="76.126" atv:refpy="35.077" d="M75,2.252L77.252,2.252L77.252,67.902L75,67.902Z" fill="url(#SVGID_9_)" id="id_21"/>
   <path atv:refpx="85.529" atv:refpy="35.077" d="M84.346,2.252L86.711,2.252L86.711,67.902L84.346,67.902Z" fill="url(#SVGID_10_)" id="id_22"/>
   <path atv:refpx="94.874" atv:refpy="35.077" d="M93.692,2.252L96.056,2.252L96.056,67.902L93.692,67.902Z" fill="url(#SVGID_11_)" id="id_23"/>
   <path atv:refpx="104.221" atv:refpy="35.077" d="M103.039,2.252L105.404,2.252L105.404,67.902L103.039,67.902Z" fill="url(#SVGID_12_)" id="id_24"/>
  </g>
  <g atv:refpx="91.383" atv:refpy="29.279" id="Group_Label">
   <path atv:refpx="91.383" atv:refpy="29.279" d="M81.98,23.423L100.787,23.423L100.787,35.134L81.98,35.134Z" fill="#A8ADAD" id="id_25"/>
   <path atv:refpx="89.019" atv:refpy="29.278" d="M96.057,23.423L96.057,25.787L84.346,25.787L84.346,32.768L96.057,32.768L96.057,35.133L81.98,35.133L81.98,23.423Z" fill="#EFF2F2" id="id_26"/>
  </g>
  <g atv:refpx="57.377" atv:refpy="2.308" id="Group_Tank_Valves1">
   <path atv:refpx="25.733" atv:refpy="2.308" d="M25.001,1.464L25.001,4.617L26.465,4.617L26.465,1.464L28.042,1.464L28.042,0L23.425,0L23.425,1.464Z" id="id_27"/>
   <path atv:refpx="89.019" atv:refpy="2.308" d="M88.287,1.464L88.287,4.617L89.863,4.617L89.863,1.464L91.328,1.464L91.328,0L86.711,0L86.711,1.464Z" id="id_28"/>
  </g>
  <g atv:refpx="110.056" atv:refpy="35.134" id="Group_Tank_Valves2">
   <path atv:refpx="110.056" atv:refpy="14.019" d="M110.922,13.288L107.768,13.288C107.768,13.288 107.422,14.019 107.768,14.752L110.922,14.752L110.922,16.328L112.497,16.328L112.497,11.71L110.922,11.71Z" fill="#E5E5E5" id="id_29"/>
   <path atv:refpx="110.077" atv:refpy="56.193" d="M110.922,55.404L107.768,55.404C107.768,55.404 107.515,56.106 107.768,56.98L110.922,56.98L110.922,58.557L112.497,58.557L112.497,53.828L110.922,53.828Z" fill="#E5E5E5" id="id_30"/>
  </g>
 </g>
</svg>
