<svg xmlns:xlink="http://www.w3.org/1999/xlink" version="1.1" xmlns="http://www.w3.org/2000/svg" height="112.5" xmlns:atv="http://webmi.atvise.com/2007/svgext" width="71.352000000000004" enable-background="new 0 0 71.352 112.5" xml:space="preserve">
 <defs>
  <linearGradient gradientUnits="objectBoundingBox" id="SVGID_1_" x1="0" x2="0.99999" y1="0.499997" y2="0.499997">
   <stop offset="0" stop-color="#666666"/>
   <stop offset="0.5" stop-color="#E5E5E5"/>
   <stop offset="1" stop-color="#666666"/>
  </linearGradient>
  <linearGradient gradientUnits="objectBoundingBox" id="SVGID_3_" x1="6.62043e-06" x2="1.00001" y1="0.499989" y2="0.499989">
   <stop offset="0" stop-color="#666666"/>
   <stop offset="0.73" stop-color="#E5E5E5"/>
   <stop offset="1" stop-color="#666666"/>
  </linearGradient>
  <radialGradient cx="0.5" cy="0.500017" fx="0.5" fy="0.500017" gradientUnits="objectBoundingBox" id="SVGID_2_" r="0.500017">
   <stop offset="0" stop-color="#FFFFFF"/>
   <stop offset="0.99" stop-color="#999999"/>
  </radialGradient>
 </defs>
 <metadata>
  <atv:gridconfig enabled="false" gridstyle="lines" height="20" width="20"/>
  <atv:snapconfig enabled="false" height="10" width="10"/>
 </metadata>
 <g atv:refpx="35.619" atv:refpy="56.245" id="Image_1">
  <g atv:refpx="44.919" atv:refpy="43.513" id="Group_Column">
   <path atv:refpx="44.582" atv:refpy="43.513" d="M19.05,5.188L37.649,0.566L51.627,0.566L70.113,5.188L70.113,84.092L60.87,86.459L28.406,86.459L19.051,84.092L19.051,5.188Z" fill="url(#SVGID_1_)" id="id_0"/>
   <path atv:refpx="44.582" atv:refpy="43.513" d="M19.05,5.188L37.649,0.566L51.627,0.566L70.113,5.188L70.113,84.092L60.87,86.459L28.406,86.459L19.051,84.092L19.051,5.188Z" fill="none" id="id_1" stroke="#4C4C4C" stroke-width="0.25"/>
   <path atv:refpx="44.919" atv:refpy="44.576" d="M19.05,44.076L70.788,44.076" fill="none" id="id_2" stroke="#666666" stroke-width="0.25"/>
  </g>
  <g atv:refpx="44.638" atv:refpy="98.07" id="Group_Legs">
   <path atv:refpx="65.547" atv:refpy="98.07" d="M63.237,84.092L67.858,84.092L67.858,112.047L63.237,112.047Z" fill="#4C4C4C" id="id_3"/>
   <path atv:refpx="23.728" atv:refpy="98.07" d="M21.417,84.092L26.038,84.092L26.038,112.047L21.417,112.047Z" fill="#4C4C4C" id="id_4"/>
   <path atv:refpx="65.547" atv:refpy="98.07" d="M64.476,84.092L66.618,84.092L66.618,112.047L64.476,112.047Z" fill="#CCCCCC" id="id_5"/>
   <path atv:refpx="23.783" atv:refpy="98.07" d="M22.656,84.092L24.91,84.092L24.91,112.047L22.656,112.047Z" fill="#CCCCCC" id="id_6"/>
  </g>
  <g atv:refpx="44.637" atv:refpy="98.388" id="Group_BackLegs">
   <path atv:refpx="27.221" atv:refpy="98.395" d="M26.038,85.984L28.405,86.577L28.405,110.806L26.038,110.806Z" id="id_7"/>
   <path atv:refpx="62.052" atv:refpy="98.388" d="M60.869,86.578L63.236,85.969L63.236,110.807L60.869,110.807Z" id="id_8"/>
  </g>
  <g atv:refpx="31.279" atv:refpy="42.329" id="Group_Button">
   <path atv:refpx="31.279" atv:refpy="42.948" d="M30.096,42.385L32.463,42.385L32.463,43.512L30.096,43.512Z" id="id_9"/>
   <path atv:refpx="31.279" atv:refpy="41.766" d="M30.096,41.146L32.463,41.146L32.463,42.386L30.096,42.386Z" fill="#E5E5E5" id="id_10"/>
  </g>
  <g atv:refpx="44.637" atv:refpy="21.701" id="Group_Rotater">
   <circle atv:refpx="44.637" atv:refpy="22.547" cx="44.637" cy="22.547" fill="#4C4C4C" id="id_11" r="11.61"/>
   <path atv:refpx="44.637" atv:refpy="24.069" d="M30.66,24.35L58.614,24.35L58.614,23.787L30.66,23.787Z" fill="#4C4C4C" id="id_12"/>
   <path atv:refpx="42.608" atv:refpy="22.885" d="M35.394,10.937L49.372,35.059L49.823,34.833L35.958,10.711Z" fill="#4C4C4C" id="id_13"/>
   <path atv:refpx="46.666" atv:refpy="22.885" d="M39.903,35.059L53.88,10.937L53.317,10.71L39.452,34.833Z" fill="#4C4C4C" id="id_14"/>
   <path atv:refpx="44.355" atv:refpy="21.588" d="M35.394,32.466L49.371,8.344L53.316,10.71L39.452,34.833Z" fill="#CCCCCC" id="id_15" stroke="#4C4C4C" stroke-width="0.25"/>
   <path atv:refpx="44.637" atv:refpy="21.476" d="M30.66,19.165L58.614,19.165L58.614,23.787L30.66,23.787Z" fill="#CCCCCC" id="id_16" stroke="#4C4C4C" stroke-width="0.25"/>
   <path atv:refpx="44.919" atv:refpy="21.588" d="M39.903,8.344L53.88,32.466L49.822,34.833L35.958,10.711Z" fill="#CCCCCC" id="id_17" stroke="#4C4C4C" stroke-width="0.25"/>
   <circle atv:refpx="44.637" atv:refpy="21.419" cx="44.637" cy="21.419" fill="url(#SVGID_2_)" id="id_18" r="11.61"/>
   <circle atv:refpx="44.637" atv:refpy="21.419" cx="44.637" cy="21.419" fill="none" id="id_19" r="11.61" stroke="#4C4C4C" stroke-width="0.25"/>
  </g>
  <g atv:refpx="44.638" atv:refpy="19.108" id="Group_BigBoard">
   <path atv:refpx="44.638" atv:refpy="19.108" d="M40.016,21.419L49.259,21.419L48.696,16.797L40.58,16.797Z" fill="#FFFFFF" id="id_20" stroke="#CCCCCC" stroke-width="0.25"/>
  </g>
  <g atv:refpx="30.659" atv:refpy="60.928" id="Group_Evaporator">
   <path atv:refpx="30.659" atv:refpy="60.928" d="M0.45,47.007L60.869,47.007L60.869,74.848L0.45,74.848Z" fill="url(#SVGID_3_)" id="id_21"/>
   <path atv:refpx="30.659" atv:refpy="60.928" d="M0.45,47.007L60.869,47.007L60.869,74.848L0.45,74.848Z" fill="none" id="id_22" stroke="#4C4C4C" stroke-width="0.25"/>
  </g>
  <g atv:refpx="20.514" atv:refpy="58.617" id="Group_SmallBoard">
   <path atv:refpx="20.514" atv:refpy="58.617" d="M11.497,55.123L29.532,55.123L29.532,62.111L11.497,62.111Z" fill="#E5E5E5" id="id_23"/>
  </g>
  <g atv:refpx="44.638" atv:refpy="74.849" id="Group_Steps">
   <path atv:refpx="39.114" atv:refpy="74.849" d="M37.649,37.651L40.58,37.651L40.58,112.047L37.649,112.047Z" fill="#4C4C4C" id="id_24"/>
   <path atv:refpx="50.161" atv:refpy="74.849" d="M48.696,37.651L51.626,37.651L51.626,112.047L48.696,112.047Z" fill="#4C4C4C" id="id_25"/>
   <path atv:refpx="44.638" atv:refpy="42.611" d="M48.696,41.146L48.696,44.077L40.58,44.077L40.58,41.146Z" fill="#4C4C4C" id="id_26"/>
   <path atv:refpx="44.638" atv:refpy="51.91" d="M48.696,50.501L48.696,53.318L40.58,53.318L40.58,50.501Z" fill="#4C4C4C" id="id_27"/>
   <path atv:refpx="44.638" atv:refpy="61.21" d="M48.696,59.744L48.696,62.676L40.58,62.676L40.58,59.744Z" fill="#4C4C4C" id="id_28"/>
   <path atv:refpx="44.638" atv:refpy="70.509" d="M48.696,69.1L48.696,71.917L40.58,71.917L40.58,69.1Z" fill="#4C4C4C" id="id_29"/>
   <path atv:refpx="44.638" atv:refpy="79.809" d="M48.696,78.344L48.696,81.274L40.58,81.274L40.58,78.344Z" fill="#4C4C4C" id="id_30"/>
   <path atv:refpx="44.638" atv:refpy="89.052" d="M48.696,87.586L48.696,90.518L40.58,90.518L40.58,87.586Z" fill="#4C4C4C" id="id_31"/>
   <path atv:refpx="44.638" atv:refpy="98.35" d="M48.696,96.941L48.696,99.759L40.58,99.759L40.58,96.941Z" fill="#4C4C4C" id="id_32"/>
   <path atv:refpx="44.638" atv:refpy="107.651" d="M48.696,106.186L48.696,109.116L40.58,109.116L40.58,106.186Z" fill="#4C4C4C" id="id_33"/>
   <path atv:refpx="39.057" atv:refpy="74.849" d="M38.324,37.651L39.79,37.651L39.79,112.047L38.324,112.047Z" fill="#CCCCCC" id="id_34"/>
   <path atv:refpx="50.162" atv:refpy="74.849" d="M49.485,37.651L50.838,37.651L50.838,112.047L49.485,112.047Z" fill="#CCCCCC" id="id_35"/>
   <path atv:refpx="44.638" atv:refpy="42.667" d="M48.696,41.935L48.696,43.4L40.58,43.4L40.58,41.934Z" fill="#CCCCCC" id="id_36"/>
   <path atv:refpx="44.638" atv:refpy="51.91" d="M48.696,51.178L48.696,52.643L40.58,52.643L40.58,51.178Z" fill="#CCCCCC" id="id_37"/>
   <path atv:refpx="44.638" atv:refpy="61.266" d="M48.696,60.533L48.696,61.999L40.58,61.999L40.58,60.533Z" fill="#CCCCCC" id="id_38"/>
   <path atv:refpx="44.638" atv:refpy="70.509" d="M48.696,69.776L48.696,71.241L40.58,71.241L40.58,69.776Z" fill="#CCCCCC" id="id_39"/>
   <path atv:refpx="44.638" atv:refpy="79.809" d="M48.696,79.133L48.696,80.485L40.58,80.485L40.58,79.133Z" fill="#CCCCCC" id="id_40"/>
   <path atv:refpx="44.638" atv:refpy="89.108" d="M48.696,88.375L48.696,89.841L40.58,89.841L40.58,88.375Z" fill="#CCCCCC" id="id_41"/>
   <path atv:refpx="44.638" atv:refpy="98.351" d="M48.696,97.618L48.696,99.083L40.58,99.083L40.58,97.618Z" fill="#CCCCCC" id="id_42"/>
   <path atv:refpx="44.638" atv:refpy="107.707" d="M48.696,106.975L48.696,108.44L40.58,108.44L40.58,106.975Z" fill="#CCCCCC" id="id_43"/>
  </g>
 </g>
</svg>
