<?xml version="1.0" encoding="iso-8859-1"?>
<!DOCTYPE svg PUBLIC "-//W3C//DTD SVG 20000303 Stylable//EN"
"http://www.w3.org/TR/2000/03/WD-SVG-20000303/DTD/svg-20000303-stylable.dtd">

<svg width="1.6250in" height="0.5628in" viewBox="0 0 999 346">

<path style="fill:#69f;stroke:#4c4c4c;stroke-width:2" d="M952,318 l13,-124 0,-19 -13,-123 0,266z" />
<path style="fill:#69f;stroke:#4c4c4c;stroke-width:2" d="M46,318 l-13,-124 0,-19 13,-123 0,266z" />
<path style="fill:#039;stroke:#4c4c4c;stroke-width:2" d="M107,28 l784,0 0,290 -784,0 0,-290z" />
<path style="fill:#006" d="M420,190 l158,0 0,128 -158,0 0,-128z" />
<path style="fill:#36c;stroke:#4c4c4c;stroke-width:2" d="M46,52 l414,0 29,123 0,19 -29,124 -414,0 0,-266z" />
<path style="fill:#36c;stroke:#4c4c4c;stroke-width:2" d="M952,52 l-414,0 -29,123 0,19 29,124 414,0 0,-266z" />
<path style="fill:#4c7fe5;stroke:#4c4c4c;stroke-width:2" d="M931,194 l-10,0 0,124 10,0 0,-124z" />
<path style="fill:#4c7fe5;stroke:#4c4c4c;stroke-width:2" d="M814,194 l-12,0 0,124 12,0 0,-124z" />
<path style="fill:#4c7fe5;stroke:#4c4c4c;stroke-width:2" d="M667,194 l-11,0 0,124 11,0 0,-124z" />
<path style="fill:#4c7fe5;stroke:#4c4c4c;stroke-width:2" d="M548,194 l-10,0 0,124 10,0 0,-124z" />
<path style="fill:#4c7fe5;stroke:#4c4c4c;stroke-width:2" d="M67,194 l10,0 0,124 -10,0 0,-124z" />
<path style="fill:#4c7fe5;stroke:#4c4c4c;stroke-width:2" d="M184,194 l12,0 0,124 -12,0 0,-124z" />
<path style="fill:#4c7fe5;stroke:#4c4c4c;stroke-width:2" d="M333,194 l9,0 0,124 -9,0 0,-124z" />
<path style="fill:#4c7fe5;stroke:#4c4c4c;stroke-width:2" d="M450,194 l10,0 0,124 -10,0 0,-124z" />
<path style="fill:#69f;stroke:#4c4c4c;stroke-width:2" d="M548,52 l-10,0 0,123 10,0 0,-123z" />
<path style="fill:#69f;stroke:#4c4c4c;stroke-width:2" d="M667,52 l-11,0 0,123 11,0 0,-123z" />
<path style="fill:#69f;stroke:#4c4c4c;stroke-width:2" d="M814,52 l-12,0 0,123 12,0 0,-123z" />
<path style="fill:#69f;stroke:#4c4c4c;stroke-width:2" d="M931,52 l-10,0 0,123 10,0 0,-123z" />
<path style="fill:#69f;stroke:#4c4c4c;stroke-width:2" d="M450,52 l10,0 0,123 -10,0 0,-123z" />
<path style="fill:#69f;stroke:#4c4c4c;stroke-width:2" d="M333,52 l9,0 0,123 -9,0 0,-123z" />
<path style="fill:#69f;stroke:#4c4c4c;stroke-width:2" d="M184,52 l12,0 0,123 -12,0 0,-123z" />
<path style="fill:#69f;stroke:#4c4c4c;stroke-width:2" d="M67,52 l10,0 0,123 -10,0 0,-123z" />
<path style="fill:#69f;stroke:#4c4c4c;stroke-width:2" d="M970,175 l-471,0 0,19 471,0 0,-19z" />
<path style="fill:#69f;stroke:#4c4c4c;stroke-width:2" d="M28,175 l471,0 0,19 -471,0 0,-19z" />
<path style="fill:none;stroke:#4c4c4c;stroke-width:2" d="M970,184 l-942,0" />
<circle style="fill:#69f;stroke:#4c4c4c;stroke-width:2" cx="817" cy="180" r="137" />
<circle style="fill:#69f;stroke:#4c4c4c;stroke-width:2" cx="180" cy="180" r="137" />
<path style="fill:#039" d="M686,173 l0,7 7,0 0,-7 -7,0z" />
<path style="fill:#039" d="M729,81 l-4,5 4,6 6,-6 -6,-5z" />
<path style="fill:#039" d="M825,46 l-7,0 0,8 7,0 0,-8z" />
<path style="fill:#039" d="M952,186 l0,-7 -8,0 0,7 8,0z" />
<path style="fill:#039" d="M906,278 l6,-5 -6,-6 -4,6 4,5z" />
<path style="fill:#039" d="M812,312 l7,0 0,-7 -7,0 0,7z" />
<path style="fill:#039" d="M720,269 l5,4 6,-4 -6,-6 -5,6z" />
<path style="fill:#039" d="M917,92 l-5,-6 -6,6 6,4 5,-4z" />
<path style="fill:#039" d="M312,173 l0,7 -7,0 0,-7 7,0z" />
<path style="fill:#039" d="M269,81 l6,5 -6,6 -6,-6 6,-5z" />
<path style="fill:#039" d="M173,46 l7,0 0,8 -7,0 0,-8z" />
<path style="fill:#039" d="M46,186 l0,-7 8,0 0,7 -8,0z" />
<path style="fill:#039" d="M92,278 l-6,-5 6,-6 4,6 -4,5z" />
<path style="fill:#039" d="M186,312 l-7,0 0,-7 7,0 0,7z" />
<path style="fill:#039" d="M278,269 l-5,4 -6,-4 6,-6 5,6z" />
<path style="fill:#039" d="M81,92 l5,-6 6,6 -6,4 -5,-4z" />
<path style="fill:#36c;stroke:#039;stroke-width:2" d="M770,294 l32,9 33,0 30,-9 28,-16 23,-22 17,-28 7,-32 0,-33 -7,-30 -17,-28 -23,-23 -28,-17 -30,-7 -33,0 -32,7 -28,17 -22,23 -16,28 -9,30 0,33 9,32 16,28 22,22 28,16z" />
<circle style="fill:#36c;stroke:#039;stroke-width:2" cx="180" cy="180" r="122" />
<circle style="fill:#c93;stroke:#4c4c4c;stroke-width:2" cx="180" cy="180" r="88" />
<circle style="fill:#c93;stroke:#4c4c4c;stroke-width:2" cx="817" cy="180" r="88" />
<path style="fill:#000" d="M735,175 l0,5 5,0 0,-5 -5,0z" />
<path style="fill:#000" d="M763,118 l-4,2 4,4 4,-4 -4,-2z" />
<path style="fill:#000" d="M823,96 l-5,0 0,5 5,0 0,-5z" />
<path style="fill:#000" d="M902,184 l0,-5 -5,0 0,5 5,0z" />
<path style="fill:#000" d="M874,241 l4,-2 -4,-4 -4,4 4,2z" />
<path style="fill:#000" d="M814,263 l5,0 0,-5 -5,0 0,5z" />
<path style="fill:#000" d="M757,235 l2,4 4,-4 -4,-4 -2,4z" />
<path style="fill:#000" d="M880,124 l-2,-4 -4,4 4,4 2,-4z" />
<path style="fill:#000" d="M263,175 l0,5 -5,0 0,-5 5,0z" />
<path style="fill:#000" d="M235,118 l4,2 -4,4 -2,-4 2,-2z" />
<path style="fill:#000" d="M175,96 l5,0 0,5 -5,0 0,-5z" />
<path style="fill:#000" d="M96,184 l0,-5 5,0 0,5 -5,0z" />
<path style="fill:#000" d="M124,241 l-4,-2 4,-4 4,4 -4,2z" />
<path style="fill:#000" d="M184,263 l-5,0 0,-5 5,0 0,5z" />
<path style="fill:#000" d="M243,235 l-4,4 -4,-4 4,-4 4,4z" />
<path style="fill:#000" d="M118,124 l2,-4 4,4 -4,4 -2,-4z" />
<circle style="fill:#003;stroke:#4c4c4c;stroke-width:2" cx="818" cy="179" r="68" />
<path style="fill:#003;stroke:#4c4c4c;stroke-width:2" d="M207,243 l-17,5 -19,0 -17,-5 -15,-8 -13,-13 -10,-15 -5,-19 0,-17 5,-17 10,-17 13,-11 15,-10 17,-5 19,0 17,5 15,10 13,11 10,17 3,17 0,17 -3,19 -10,15 -13,13 -15,8z" />
<path style="fill:#c93" d="M386,67 l49,0 0,29 -49,0 0,-29z" />

</svg>
