<svg version="1.1" xmlns="http://www.w3.org/2000/svg" xmlns:xlink="http://www.w3.org/1999/xlink" xmlns:atv="http://webmi.atvise.com/2007/svgext" height="103.039" enable-background="new 0 0 112.5 103.039" width="112.5" xml:space="preserve">
 <defs>
  <linearGradient gradientUnits="objectBoundingBox" id="SVGID_1_" x1="6.19579e-05" x2="1.00012" y1="0.5" y2="0.5">
   <stop offset="0" stop-color="#868686"/>
   <stop offset="0.5" stop-color="#EBEBEB"/>
   <stop offset="1" stop-color="#808080"/>
  </linearGradient>
  <linearGradient gradientUnits="objectBoundingBox" id="SVGID_3_" x1="-2.08337e-07" x2="1" y1="0.499995" y2="0.499995">
   <stop offset="0.01" stop-color="#595959"/>
   <stop offset="0.5" stop-color="#E0E0E0"/>
   <stop offset="1" stop-color="#595959"/>
  </linearGradient>
  <linearGradient gradientUnits="objectBoundingBox" id="SVGID_4_" x1="-5.07635e-06" x2="0.999935" y1="0.499991" y2="0.499991">
   <stop offset="0.01" stop-color="#595959"/>
   <stop offset="0.5" stop-color="#E0E0E0"/>
   <stop offset="1" stop-color="#595959"/>
  </linearGradient>
  <linearGradient gradientUnits="objectBoundingBox" id="SVGID_5_" x1="7.10429e-06" x2="1.00002" y1="0.499995" y2="0.499995">
   <stop offset="0.01" stop-color="#595959"/>
   <stop offset="0.5" stop-color="#E0E0E0"/>
   <stop offset="1" stop-color="#595959"/>
  </linearGradient>
  <linearGradient gradientUnits="objectBoundingBox" id="SVGID_6_" x1="0.499943" x2="0.499943" y1="1.00002" y2="-8.45666e-05">
   <stop offset="0.01" stop-color="#595959"/>
   <stop offset="0.5" stop-color="#EBEBEB"/>
   <stop offset="1" stop-color="#595959"/>
  </linearGradient>
  <linearGradient gradientUnits="objectBoundingBox" id="SVGID_7_" x1="0.499734" x2="0.499734" y1="1.00001" y2="-5.72902e-05">
   <stop offset="0.01" stop-color="#595959"/>
   <stop offset="0.5" stop-color="#EBEBEB"/>
   <stop offset="1" stop-color="#595959"/>
  </linearGradient>
  <linearGradient gradientUnits="objectBoundingBox" id="SVGID_8_" x1="0.499963" x2="0.499963" y1="1.00003" y2="-2.86533e-05">
   <stop offset="0.01" stop-color="#595959"/>
   <stop offset="0.5" stop-color="#EBEBEB"/>
   <stop offset="1" stop-color="#595959"/>
  </linearGradient>
  <linearGradient gradientUnits="objectBoundingBox" id="SVGID_9_" x1="0.500081" x2="0.500081" y1="1.00007" y2="0.000117273">
   <stop offset="0.01" stop-color="#595959"/>
   <stop offset="0.5" stop-color="#EBEBEB"/>
   <stop offset="1" stop-color="#595959"/>
  </linearGradient>
  <linearGradient gradientUnits="objectBoundingBox" id="SVGID_10_" x1="0.499974" x2="0.499974" y1="0.999979" y2="-0.000126877">
   <stop offset="0.01" stop-color="#595959"/>
   <stop offset="0.5" stop-color="#EBEBEB"/>
   <stop offset="1" stop-color="#595959"/>
  </linearGradient>
  <linearGradient gradientUnits="objectBoundingBox" id="SVGID_11_" x1="0.500444" x2="0.500444" y1="0.999971" y2="-8.59353e-05">
   <stop offset="0.01" stop-color="#595959"/>
   <stop offset="0.5" stop-color="#EBEBEB"/>
   <stop offset="1" stop-color="#595959"/>
  </linearGradient>
  <linearGradient gradientUnits="objectBoundingBox" id="SVGID_12_" x1="0.500062" x2="0.500062" y1="1.00002" y2="-6.34249e-05">
   <stop offset="0.01" stop-color="#595959"/>
   <stop offset="0.5" stop-color="#EBEBEB"/>
   <stop offset="1" stop-color="#595959"/>
  </linearGradient>
  <linearGradient gradientUnits="objectBoundingBox" id="SVGID_13_" x1="0.500266" x2="0.500266" y1="1.00006" y2="9.8661e-05">
   <stop offset="0.01" stop-color="#595959"/>
   <stop offset="0.5" stop-color="#EBEBEB"/>
   <stop offset="1" stop-color="#595959"/>
  </linearGradient>
  <radialGradient cx="0.500021" cy="0.500065" fx="0.500021" fy="0.500065" gradientUnits="objectBoundingBox" id="SVGID_2_" r="0.500011">
   <stop offset="0" stop-color="#E0E0E0"/>
   <stop offset="0.5" stop-color="#E0E0E0"/>
   <stop offset="1" stop-color="#595959"/>
  </radialGradient>
 </defs>
 <metadata>
  <atv:gridconfig enabled="false" gridstyle="lines" height="20" width="20"/>
  <atv:snapconfig enabled="false" height="10" width="10"/>
 </metadata>
 <g atv:refpx="56.25" atv:refpy="51.52" id="Image_1">
  <g atv:refpx="56.193" atv:refpy="14.02" id="Group_Air_Getaway">
   <path atv:refpx="56.193" atv:refpy="26.294" d="M50.338,28.04L53.829,24.549L58.558,24.549L62.048,28.04Z" fill="#B2B2B2" id="id_0" stroke="#4C4C4C" stroke-width="0.25"/>
   <path atv:refpx="56.137" atv:refpy="14.02" d="M53.716,28.04L53.716,11.599L54.842,11.599L54.842,0L57.32,0L57.32,11.599L58.558,11.599L58.558,28.04Z" fill="url(#SVGID_1_)" id="id_1" stroke="#4C4C4C" stroke-width="0.1"/>
   <path atv:refpx="53.829" atv:refpy="11.655" d="M51.464,11.599L52.14,10.022L53.829,9.346L55.517,10.022L56.193,11.599L55.517,13.288L53.829,13.964L52.14,13.288Z" fill="url(#SVGID_2_)" id="id_2"/>
  </g>
  <g atv:refpx="79.617" atv:refpy="14.02" id="Group_Adjusters">
   <path atv:refpx="79.617" atv:refpy="9.91" d="M77.252,6.982L81.981,6.982L81.981,12.838L77.252,12.838Z" fill="#CCCCCC" id="id_3" stroke="#4C4C4C" stroke-width="0.25"/>
   <path atv:refpx="82.544" atv:refpy="14.583" d="M81.981,8.108L83.107,8.108L83.107,21.058L81.981,21.058Z" fill="#666666" id="id_4"/>
   <path atv:refpx="76.689" atv:refpy="14.583" d="M76.126,8.108L77.252,8.108L77.252,21.058L76.126,21.058Z" fill="#666666" id="id_5"/>
  </g>
  <g atv:refpx="76.125" atv:refpy="21.064" id="Group_Yellow_Rail">
   <path atv:refpx="76.126" atv:refpy="22.241" d="M40.991,21.058L111.261,21.058L111.261,23.423L40.991,23.423Z" fill="#FFCC00" id="id_6"/>
   <path atv:refpx="76.125" atv:refpy="21.002" d="M112.499,28.04L110.134,28.04L110.134,16.329L88.963,16.329L88.963,28.04L86.598,28.04L86.598,16.329L65.541,16.329L65.541,28.04L63.175,28.04L63.175,16.329L42.117,16.329L42.117,28.04L39.751,28.04L39.751,13.964L112.499,13.964Z" fill="#FFCC00" id="id_7"/>
   <path atv:refpx="76.126" atv:refpy="21.621" d="M40.991,28.04L40.991,15.203L111.261,15.203L111.261,28.04" fill="none" id="id_8" stroke="#FFFFFF" stroke-width="0.25"/>
   <path atv:refpx="64.914" atv:refpy="21.621" d="M64.414,15.203L64.414,28.04" fill="none" id="id_9" stroke="#FFFFFF" stroke-width="0.25"/>
   <path atv:refpx="88.338" atv:refpy="21.621" d="M87.838,15.203L87.838,28.04" fill="none" id="id_10" stroke="#FFFFFF" stroke-width="0.25"/>
   <path atv:refpx="52.703" atv:refpy="22.685" d="M42.117,22.185L63.288,22.185" fill="none" id="id_11" stroke="#FFFFFF" stroke-width="0.25"/>
   <path atv:refpx="76.126" atv:refpy="22.685" d="M65.541,22.185L86.711,22.185" fill="none" id="id_12" stroke="#FFFFFF" stroke-width="0.25"/>
   <path atv:refpx="99.549" atv:refpy="22.685" d="M88.963,22.185L110.134,22.185" fill="none" id="id_13" stroke="#FFFFFF" stroke-width="0.25"/>
  </g>
  <g atv:refpx="56.25" atv:refpy="65.54" id="Group_Cutaway">
   <path atv:refpx="56.25" atv:refpy="65.54" d="M0.001,32.77L2.252,32.77L2.252,28.04L112.499,28.04L112.499,32.77L110.134,32.77L107.77,35.135L107.77,46.846L70.27,84.346L70.27,103.039L42.117,103.039L42.117,84.346L4.616,46.846L4.616,53.828L0.001,53.828Z" fill="url(#SVGID_3_)" id="id_14" stroke="#4C4C4C" stroke-width="0.25"/>
   <path atv:refpx="56.194" atv:refpy="84.846" d="M42.117,84.346L70.27,84.346" fill="none" id="id_15" stroke="#4C4C4C" stroke-width="0.25"/>
   <path atv:refpx="56.193" atv:refpy="47.909" d="M13.964,47.409L98.422,47.409" fill="none" id="id_16" stroke="#4C4C4C" stroke-width="0.25"/>
   <path atv:refpx="56.193" atv:refpy="47.346" d="M13.964,46.846L98.422,46.846" fill="none" id="id_17" stroke="#E5E5E5" stroke-width="0.25"/>
   <rect atv:refpx="2.309" atv:refpy="43.299" fill="url(#SVGID_4_)" height="21.058" id="id_18" width="4.617" x="0.001" y="32.77"/>
   <rect atv:refpx="56.193" atv:refpy="93.693" fill="url(#SVGID_5_)" height="18.693" id="id_19" width="28.152" x="42.117" y="84.346"/>
   <path atv:refpx="56.194" atv:refpy="33.333" d="M2.253,32.77L110.135,32.77L108.896,33.896L3.492,33.896Z" fill="#666666" id="id_20"/>
  </g>
  <g atv:refpx="74.381" atv:refpy="99.548" id="Group_Pipe4">
   <path atv:refpx="74.381" atv:refpy="99.549" d="M69.145,101.914L69.145,97.184L79.618,97.184L79.618,101.914Z" fill="url(#SVGID_6_)" id="id_21"/>
   <path atv:refpx="73.198" atv:refpy="99.548" d="M72.635,103.039L72.635,96.057L73.762,96.057L73.762,103.039Z" fill="url(#SVGID_7_)" id="id_22"/>
  </g>
  <g atv:refpx="73.817" atv:refpy="89.582" id="Group_Pipe3">
   <path atv:refpx="73.198" atv:refpy="89.583" d="M69.145,91.328L69.145,87.838L77.252,87.838L77.252,91.328Z" fill="url(#SVGID_8_)" id="id_23"/>
   <path atv:refpx="77.871" atv:refpy="89.582" d="M77.252,92.566L77.252,86.597L78.49,86.597L78.49,92.566Z" fill="url(#SVGID_9_)" id="id_24"/>
  </g>
  <g atv:refpx="35.642" atv:refpy="96.058" id="Group_Pipe2">
   <path atv:refpx="35.642" atv:refpy="96.058" d="M28.041,98.422L28.041,93.693L43.244,93.693L43.244,98.422Z" fill="url(#SVGID_10_)" id="id_25"/>
   <path atv:refpx="39.189" atv:refpy="96.058" d="M38.626,99.549L38.626,92.567L39.751,92.567L39.751,99.549Z" fill="url(#SVGID_11_)" id="id_26"/>
  </g>
  <g atv:refpx="38.626" atv:refpy="89.019" id="Group_Pipe1">
   <g atv:refpx="38.626" atv:refpy="89.019" id="id_29">
    <path atv:refpx="39.189" atv:refpy="88.963" d="M35.135,91.328L35.135,86.598L43.242,86.598L43.242,91.328Z" fill="url(#SVGID_12_)" id="id_27"/>
    <path atv:refpx="34.572" atv:refpy="89.019" d="M35.135,92.566L35.135,85.471L34.009,85.471L34.009,92.566Z" fill="url(#SVGID_13_)" id="id_28"/>
   </g>
  </g>
 </g>
</svg>
