<?xml version='1.0' encoding='UTF-8' standalone='no'?>
<svg height="168.12" version="1.2" width="205" xmlns="http://www.w3.org/2000/svg" xmlns:atv="http://webmi.atvise.com/2007/svgext" xmlns:xlink="http://www.w3.org/1999/xlink">
 <desc>Created with base object 1.3</desc>
 <defs>
  <linearGradient gradientUnits="objectBoundingBox" id="id_33_fill_gradient" spreadMethod="reflect" x1="0.0675676" x2="0.581081" y1="1" y2="1">
   <stop offset="0" stop-color="#999999"/>
   <stop offset="1" stop-color="#e5e5e5"/>
  </linearGradient>
  <linearGradient gradientUnits="objectBoundingBox" id="id_34_fill_gradient" spreadMethod="reflect" x1="-0.135135" x2="0.405405" y1="0.986486" y2="0.972973">
   <stop offset="0" stop-color="#999999"/>
   <stop offset="1" stop-color="#e5e5e5"/>
  </linearGradient>
  <linearGradient gradientUnits="objectBoundingBox" id="id_41_fill_gradient" spreadMethod="reflect" x1="-0.135135" x2="0.405405" y1="1" y2="0.972973">
   <stop offset="0" stop-color="#999999"/>
   <stop offset="1" stop-color="#e5e5e5"/>
  </linearGradient>
  <linearGradient gradientUnits="objectBoundingBox" id="id_42_fill_gradient" spreadMethod="reflect" x1="-0.135135" x2="0.405405" y1="0.986486" y2="0.972973">
   <stop offset="0" stop-color="#999999"/>
   <stop offset="1" stop-color="#e5e5e5"/>
  </linearGradient>
  <radialGradient cx="0.5" cy="0.5" fx="0.5" fy="0.5" gradientUnits="objectBoundingBox" id="id_42_stroke_gradient" r="1">
   <stop offset="0" stop-color="#000000"/>
   <stop offset="1" stop-color="#ffffff"/>
  </radialGradient>
  <linearGradient gradientUnits="objectBoundingBox" id="id_43_fill_gradient" spreadMethod="reflect" x1="-0.135135" x2="0.405405" y1="1" y2="0.972973">
   <stop offset="0" stop-color="#999999"/>
   <stop offset="1" stop-color="#e5e5e5"/>
  </linearGradient>
  <radialGradient cx="0.5" cy="0.5" fx="0.5" fy="0.5" gradientUnits="objectBoundingBox" id="id_44_fill_gradient" r="0.514579">
   <stop offset="0.6088709677419355" stop-color="#e4e4e4"/>
   <stop offset="1" stop-color="#9a9a9a"/>
  </radialGradient>
  <radialGradient cx="0.5" cy="0.5" fx="0.5" fy="0.5" gradientUnits="objectBoundingBox" id="id_7_fill_gradient" r="0.514579">
   <stop offset="0.6088709677419355" stop-color="#e4e4e4"/>
   <stop offset="1" stop-color="#9a9a9a"/>
  </radialGradient>
  <linearGradient gradientUnits="objectBoundingBox" id="linear_0" x1="0" x2="1" y1="0" y2="1">
   <stop offset="0" stop-color="#000000"/>
   <stop offset="1" stop-color="#000000" stop-opacity="0"/>
  </linearGradient>
  <linearGradient gradientUnits="objectBoundingBox" id="SVGID_1_" x1="0.0129793" x2="0.987014" y1="1.04344" y2="-0.0435006">
   <stop offset="0.03" stop-color="#C2C2C2"/>
   <stop offset="0.44" stop-color="#F0F0F0"/>
   <stop offset="0.85" stop-color="#D9D9D9"/>
  </linearGradient>
  <linearGradient gradientUnits="objectBoundingBox" id="SVGID_2_" x1="0.0511934" x2="0.948663" y1="4.12817" y2="-3.13703">
   <stop offset="0" stop-color="#BFBFBF"/>
   <stop offset="0.44" stop-color="#F0F0F0"/>
   <stop offset="1" stop-color="#C2C2C2"/>
  </linearGradient>
  <linearGradient gradientUnits="objectBoundingBox" id="SVGID_3_" x1="-0.00018498" x2="0.999704" y1="0.49997" y2="0.49997">
   <stop offset="0" stop-color="#686868"/>
   <stop offset="0.35" stop-color="#E0E0E0"/>
   <stop offset="0.65" stop-color="#E0E0E0"/>
   <stop offset="1" stop-color="#595959"/>
  </linearGradient>
  <linearGradient gradientUnits="objectBoundingBox" id="SVGID_4_" x1="0.657559" x2="0.350986" y1="0.868724" y2="0.148302">
   <stop offset="0.01" stop-color="#595959"/>
   <stop offset="0.5" stop-color="#E0E0E0"/>
   <stop offset="1" stop-color="#595959"/>
  </linearGradient>
  <linearGradient gradientUnits="objectBoundingBox" id="SVGID_5_" x1="0.655554" x2="0.35968" y1="0.833044" y2="0.157294">
   <stop offset="0.01" stop-color="#595959"/>
   <stop offset="0.5" stop-color="#E0E0E0"/>
   <stop offset="1" stop-color="#595959"/>
  </linearGradient>
  <linearGradient gradientUnits="objectBoundingBox" id="SVGID_6_" x1="9.49758e-06" x2="1.00004" y1="0.499993" y2="0.499993">
   <stop offset="0.15" stop-color="#BFBFBF"/>
   <stop offset="0.44" stop-color="#F0F0F0"/>
   <stop offset="1" stop-color="#C2C2C2"/>
  </linearGradient>
  <radialGradient cx="0.500055" cy="0.500028" fx="0.500055" fy="0.500028" gradientUnits="objectBoundingBox" id="SVGID_7_" r="0.499945">
   <stop offset="0" stop-color="#E0E0E0"/>
   <stop offset="0.5" stop-color="#E0E0E0"/>
   <stop offset="1" stop-color="#595959"/>
  </radialGradient>
  <radialGradient cx="0.500055" cy="0.500028" fx="0.500055" fy="0.500028" gradientUnits="objectBoundingBox" id="SVGID_8_" r="0.499945">
   <stop offset="0" stop-color="#E0E0E0"/>
   <stop offset="0.5" stop-color="#E0E0E0"/>
   <stop offset="1" stop-color="#595959"/>
  </radialGradient>
  <radialGradient cx="0.500099" cy="0.500099" fx="0.500099" fy="0.500099" gradientUnits="objectBoundingBox" id="SVGID_9_" r="0.500025">
   <stop offset="0" stop-color="#E0E0E0"/>
   <stop offset="0.5" stop-color="#E0E0E0"/>
   <stop offset="1" stop-color="#595959"/>
  </radialGradient>
 </defs>
 <metadata>
  <atv:parameter behavior="optional" defaultvalue="SYSTEM.GLOBALS.Color_Global_1" desc="Color" name="Color" substitute="$Color$" valuetype="global"/>
  <atv:parameter behavior="optional" defaultvalue="SYSTEM.GLOBALS.Maintenance_AirHandlingUnit" desc="Global Maintenance" name="Global_Maintenance" valuetype="global"/>
  <atv:gridconfig enabled="true" gridstyle="lines" height="20" width="20"/>
  <atv:snapconfig enabled="true" height="1" width="1"/>
 </metadata>
 <text atv:refpx="121.738" atv:refpy="27.984" fill="$Color$" font-family="Arial" font-size="14" font-weight="bold" id="Title" x="100.5" y="33.484">Name</text>
 <svg atv:refpx="108" atv:refpy="156.002" height="30" id="id_2" transform="matrix(1,0,0,0.6667,0,0)" width="80" x="68" xlink:href="SYSTEM.LIBRARY.ATVISE.OBJECTDISPLAYS.Advanced.button_switch" y="218.995">
  <atv:argument name="base" prefix="base" value=".Variables.Status"/>
  <atv:argument name="labelOn" value="T{Stop}"/>
  <atv:argument name="labelOff" value="T{Start}"/>
  <atv:overwrite height="18.001" id="id_6" transform="matrix(1,0,0,1.4999,0,0)"/>
  <atv:overwrite id="button_label" transform="matrix(1,0,0,1.4999,0,0)" y="14.5"/>
  <atv:overwrite id="button_symbol_off" transform="matrix(1,0,0,1.4999,0,0)" y="0"/>
  <atv:overwrite id="button_symbol_on" transform="matrix(1,0,0,1.4999,0,0)" y="0"/>
  <atv:overwrite height="16.001" id="blinking_frame" transform="matrix(1,0,0,1.4999,0,0)"/>
  <atv:overwrite height="16.001" id="button_stroke" transform="matrix(1,0,0,1.4999,0,0)"/>
  <atv:overwrite height="18.001" id="button_bg" transform="matrix(1,0,0,1.4999,0,0)"/>
  <atv:overwrite height="20.001" id="outer_frame" transform="matrix(1,0,0,1.4999,0,0)"/>
 </svg>
 <text atv:refpx="90.123" atv:refpy="135.5" fill="#195c88" font-family="Arial" font-size="12" font-weight="bold" id="id_49" x="72.967" y="140">On/Off</text>
 <polygon atv:refpx="63.671" atv:refpy="38.519" fill="#fdf90a" id="alert_increasing" points="51.67,50.518 75.67,50.518 63.003,26.518" stroke="#000000" stroke-width="1"/>
 <g atv:refpx="24.062" atv:refpy="150.062" id="maintenance" transform="matrix(1,0,0,1,-0.5824,-4.5825)">
  <rect atv:refpx="46.171" atv:refpy="204.643" fill="#2b9de8" height="24.544" id="id_39" stroke="#000000" stroke-width="1" transform="matrix(0.7071,-0.7071,0.7071,0.7071,0,0)" width="24.544" x="-104.196" y="114.505"/>
  <text atv:refpx="28" atv:refpy="149.5" fill="#000000" font-family="Arial" font-size="14" id="id_40" x="18.5" y="160">M</text>
 </g>
 <polygon atv:refpx="11.207" atv:refpy="41.103" fill="#fdbf21" id="alert_decreasing" points="25.872,29.102 1.871,29.102 14.536,53.103" stroke="#000000" stroke-width="1"/>
 <text atv:refpx="64.671" atv:refpy="43.019" fill="#000000" font-family="Arial" font-size="14" font-weight="bold" id="alertC_text" text-anchor="end" x="66.171" y="47.519">1</text>
 <text atv:refpx="14.459" atv:refpy="38.101" fill="#000000" font-family="Arial" font-size="14" font-weight="bold" id="alertD_text" x="10.959" y="42.601">1</text>
 <rect atv:refpx="9.088" atv:refpy="-57.049" fill="#93060a" fill-opacity="0" height="42" id="click_area_alertC" stroke="none" stroke-width="0" width="28" x="50" y="11.484"/>
 <rect atv:refpx="14" atv:refpy="43.484" fill="#93060a" fill-opacity="0" height="42" id="click_area_alertD" stroke="none" stroke-width="0" width="28" x="0" y="24.484"/>
 <polygon atv:refpx="60.419" atv:refpy="82.021" fill="#fdf90a" id="alert_increasing_min" points="75.084,70.018 51.082,70.018 63.748,94.018" stroke="#000000" stroke-width="1"/>
 <text atv:refpx="63.671" atv:refpy="79.019" fill="#000000" font-family="Arial" font-size="14" font-weight="bold" id="alertC_text_min" x="60.171" y="83.519">1</text>
 <polygon atv:refpx="14.459" atv:refpy="81.601" fill="#fdbf21" id="alert_decreasing_min" points="2.458,93.601 26.458,93.601 13.79,69.601" stroke="#000000" stroke-width="1"/>
 <text atv:refpx="15" atv:refpy="85.984" fill="#000000" font-family="Arial" font-size="14" font-weight="bold" id="alertD_text_min" text-anchor="end" x="16.5" y="90.484">1</text>
 <rect atv:refpx="-40.912" atv:refpy="-13.049" fill="#93060a" fill-opacity="0" height="42" id="click_area_alertD_min" stroke="none" stroke-width="0" width="28" x="0" y="55.484"/>
 <g atv:refpx="36.5" atv:refpy="61.484" id="Ind_Bar" transform="matrix(1,0,0,1,-2,-7.516)">
  <rect atv:refpx="38.5" atv:refpy="69" fill="#626262" height="77.366" id="Barra_Ind2" rx="7" ry="7" stroke="#000000" stroke-width="1" width="14" x="31.5" y="30.317"/>
  <path atv:refpx="38.496" atv:refpy="36.976" d="M31.826,43.257L45.178,43.257L45.08,36.1C45.08,36.1 44.046,30.754 38.676,30.694C33.305,30.633 31.876,35.603 31.876,35.603C31.876,35.603 31.777,43.318 31.826,43.257" fill="#b5b5b5" id="id_19" stroke="#000000" stroke-width="0"/>
  <path atv:refpx="38.533" atv:refpy="100.982" d="M45.204,94.701L31.852,94.701L31.95,101.858C31.95,101.858 32.985,107.205 38.355,107.265C43.726,107.324 45.154,102.356 45.154,102.356C45.154,102.356 45.252,94.641 45.204,94.701" fill="#b5b5b5" id="id_20" stroke="#000000" stroke-width="0"/>
 </g>
 <rect atv:refpx="49.396" atv:refpy="14.695" fill="#bd070d" height="23" id="alarm_square" rx="1.855" ry="1.987" stroke="#000000" stroke-width="1" text-anchor="middle" width="23" x="37.446" y="2.569"/>
 <text atv:refpx="-20.554" atv:refpy="-10.716" fill="#000000" font-family="Arial" font-size="14" font-weight="bold" id="alarm_text" text-anchor="middle" x="48.946" y="19.07">1</text>
 <rect atv:refpx="-3.405" atv:refpy="-49.206" fill="#93060a" fill-opacity="0" height="28" id="click_area_alarm" stroke="none" stroke-width="0" width="28" x="34.879" y="0"/>
 <rect atv:refpx="49.102" atv:refpy="109.129" fill="#bd070d" height="23" id="alarm_square_min" rx="1.855" ry="1.987" stroke="#000000" stroke-width="1" text-anchor="middle" width="23" x="37.152" y="97.003"/>
 <text atv:refpx="-20.848" atv:refpy="83.718" fill="#000000" font-family="Arial" font-size="14" font-weight="bold" id="alarm_text_min" text-anchor="middle" x="48.652" y="113.504">1</text>
 <rect atv:refpx="-3.983" atv:refpy="45.512" fill="#93060a" fill-opacity="0" height="28" id="click_area_alarm_min" stroke="none" stroke-width="0" width="28" x="34.301" y="94.718"/>
 <rect atv:refpx="63" atv:refpy="84.484" fill="#93060a" fill-opacity="0" height="42" id="click_area_alertC_min" stroke="none" stroke-width="0" width="28" x="49" y="65.484"/>
 <script atv:desc="" atv:href="SYSTEM.LIBRARY.PROJECT.DISPLAYSCRIPTS.atvise_Advanced_Objects_Display_Scripts.AAA_Principal_Display_Script" atv:name="" atv:type="text/ecmascript"/>
 <script atv:desc="" atv:name="" type="text/ecmascript"><![CDATA[












]]></script>
 <g atv:refpx="147.25" atv:refpy="70.09" id="Image1" transform="matrix(1,0,0,1,-2,-7.516)">
  <g atv:refpx="139.34" atv:refpy="78.338" id="Group_Air_Handling_Unit" transform="matrix(1,0,0,1,93,53)">
   <path atv:refpx="42.117" atv:refpy="27.422" d="M0,5.631L84.234,5.631L84.234,49.212L0,49.212Z" fill="url(#SVGID_1_)" id="id_0"/>
   <path atv:refpx="88.457" atv:refpy="25.337" d="M84.234,49.211L92.679,44.932L92.679,1.464L84.234,5.631Z" fill="#7F7F7F" id="id_1"/>
  </g>
  <g atv:refpx="139.34" atv:refpy="55.816" id="Group_Top_Cover" transform="matrix(1,0,0,1,93,53)">
   <path atv:refpx="88.457" atv:refpy="2.816" d="M84.234,5.631L84.234,4.167L92.68,0L92.68,1.464Z" fill="#666666" id="id_3" stroke="#4C4C4C" stroke-width="0.25"/>
   <path atv:refpx="46.34" atv:refpy="2.083" d="M92.68,0L84.235,4.167L0,4.167L8.333,0Z" fill="url(#SVGID_2_)" id="id_4"/>
   <path atv:refpx="42.117" atv:refpy="4.899" d="M0,4.167L84.234,4.167L84.234,5.631L0,5.631Z" fill="#7F7F7F" id="id_5"/>
  </g>
  <g atv:refpx="129.543" atv:refpy="80.253" id="Group_Lines" transform="matrix(1,0,0,1,93,53)">
   <path atv:refpx="71.34" atv:refpy="27.253" d="M71.059,47.635L71.059,6.87L71.622,6.87L71.622,47.635Z" fill="#666666" id="id_7"/>
   <path atv:refpx="59.347" atv:refpy="27.253" d="M59.009,47.635L59.009,6.87L59.685,6.87L59.685,47.635Z" fill="#666666" id="id_8"/>
   <path atv:refpx="36.261" atv:refpy="37.95" d="M14.64,37.5L57.883,37.5L57.883,38.4L14.64,38.4Z" fill="#666666" id="id_9"/>
   <path atv:refpx="28.773" atv:refpy="11.487" d="M28.491,16.104L28.491,6.87L29.054,6.87L29.054,16.104Z" fill="#666666" id="id_10"/>
   <path atv:refpx="36.261" atv:refpy="16.442" d="M14.64,16.104L57.883,16.104L57.883,16.779L14.64,16.779Z" fill="#666666" id="id_11"/>
   <path atv:refpx="1.746" atv:refpy="27.253" d="M1.464,47.635L1.464,6.87L2.027,6.87L2.027,47.635Z" fill="#666666" id="id_12"/>
   <path atv:refpx="13.739" atv:refpy="27.253" d="M13.401,47.635L13.401,6.87L14.077,6.87L14.077,47.635Z" fill="#666666" id="id_13"/>
  </g>
  <g atv:refpx="168.113" atv:refpy="91.964" id="Group_Control_Box" transform="matrix(1,0,0,1,93,53)">
   <path atv:refpx="79.448" atv:refpy="38.964" d="M78.828,43.469L78.828,35.022L80.067,34.459L80.067,42.793Z" fill="#7F7F7F" id="id_14" stroke="#4C4C4C" stroke-width="0.25"/>
   <path atv:refpx="75.112" atv:refpy="34.74" d="M70.158,35.022L71.621,34.458L80.067,34.458L78.827,35.022Z" fill="#999999" id="id_15" stroke="#4C4C4C" stroke-width="0.25"/>
   <path atv:refpx="74.325" atv:refpy="39.245" d="M70.158,35.022L78.491,35.022L78.491,43.468L70.158,43.468Z" fill="#B2B2B2" id="id_16" stroke="#4C4C4C" stroke-width="0.25"/>
  </g>
  <g atv:refpx="110.456" atv:refpy="85.377" id="Group_Rod" transform="matrix(1,0,0,1,93,53)">
   <path atv:refpx="17.456" atv:refpy="32.377" d="M16.104,15.541L18.807,15.541L18.807,49.212L16.104,49.212Z" fill="url(#SVGID_3_)" id="id_17"/>
  </g>
  <g atv:refpx="142.718" atv:refpy="63.867" id="Group_Tuners" transform="matrix(1,0,0,1,93,53)">
   <path atv:refpx="76.013" atv:refpy="10.585" d="M75.788,12.838L75.676,12.838L74.549,12.838L73.762,12.388L73.199,11.487L73.199,11.036L73.536,10.022L74.1,9.572L76.125,8.671L76.801,8.333L78.041,8.671L78.717,9.459L78.828,10.135L78.491,11.149L77.928,11.599Z" fill="url(#SVGID_4_)" id="id_18" stroke="#4C4C4C" stroke-width="0.1"/>
   <path atv:refpx="23.48" atv:refpy="11.036" d="M23.311,13.176L22.41,13.401L21.509,13.063L20.834,12.275L20.608,11.599L20.946,10.586L21.509,10.135L23.649,8.895L24.55,8.671L25.451,9.008L26.239,9.796L26.352,10.472L26.014,11.486L25.451,11.936Z" fill="url(#SVGID_5_)" id="id_21" stroke="#4C4C4C" stroke-width="0.1"/>
  </g>
  <g atv:refpx="192.099" atv:refpy="72.594" id="Group_Extended_Box" transform="matrix(1,0,0,1,93,53)">
   <path atv:refpx="96.227" atv:refpy="20.946" d="M85.698,35.022L85.698,6.87L89.976,6.87L106.755,20.947Z" fill="url(#SVGID_6_)" id="id_22"/>
   <path atv:refpx="90.652" atv:refpy="5.518" d="M85.698,6.87L91.44,4.167L95.606,4.167L89.976,6.869Z" fill="#CCCCCC" id="id_23" stroke="#4C4C4C" stroke-width="0.25"/>
   <path atv:refpx="101.239" atv:refpy="12.556" d="M89.978,6.87L95.607,4.167L112.5,18.243L106.757,20.945Z" fill="#B2B2B2" id="id_24" stroke="#4C4C4C" stroke-width="0.25"/>
   <path atv:refpx="99.099" atv:refpy="26.633" d="M106.757,20.946L112.5,18.243L91.441,32.32L85.698,35.022Z" fill="#4D4D4D" id="id_25" stroke="#4C4C4C" stroke-width="0.25"/>
  </g>
  <g atv:refpx="174.701" atv:refpy="91.513" id="Group_Orange_Lever" transform="matrix(1,0,0,1,93,53)">
   <path atv:refpx="81.362" atv:refpy="38.626" d="M79.729,35.022L82.996,35.022L82.996,42.23L79.729,42.23Z" fill="#FF9E0F" id="id_26" stroke="#4C4C4C" stroke-width="0.25"/>
   <path atv:refpx="81.7" atv:refpy="34.909" d="M79.729,35.022L80.292,34.797L83.671,34.797L82.995,35.022Z" fill="#FFD166" id="id_27" stroke="#4C4C4C" stroke-width="0.25"/>
   <path atv:refpx="83.334" atv:refpy="38.513" d="M82.996,42.23L82.996,35.022L83.672,34.797L83.672,41.666Z" fill="#C46300" id="id_28" stroke="#4C4C4C" stroke-width="0.25"/>
  </g>
  <g atv:refpx="139.126" atv:refpy="65.728" id="Group_Spherical_Valve" transform="matrix(1,0,0,1,93,53)">
   <circle atv:refpx="74.909" atv:refpy="11.266" cx="74.909" cy="11.266" fill="url(#SVGID_7_)" id="id_29" r="1.802"/>
   <circle atv:refpx="22.41" atv:refpy="11.599" cx="22.41" cy="11.599" fill="url(#SVGID_8_)" id="id_30" r="1.802"/>
   <circle atv:refpx="17.567" atv:refpy="13.964" cx="17.567" cy="13.964" fill="url(#SVGID_9_)" id="id_31" r="2.027"/>
  </g>
 </g>
 <rect atv:refpx="144.5" atv:refpy="70.484" fill="#000000" fill-opacity="0" height="110" id="click_area" stroke="#0000ff" stroke-width="0" width="121" x="84" y="15.484"/>
</svg>
