<?xml version='1.0' encoding='UTF-8' standalone='no'?>
<svg height="276" version="1.2" width="201" xmlns="http://www.w3.org/2000/svg" xmlns:atv="http://webmi.atvise.com/2007/svgext" xmlns:xlink="http://www.w3.org/1999/xlink">
 <defs>
  <linearGradient gradientUnits="objectBoundingBox" id="id_33_fill_gradient" spreadMethod="reflect" x1="0.0675676" x2="0.581081" y1="1" y2="1">
   <stop offset="0" stop-color="#999999"/>
   <stop offset="1" stop-color="#e5e5e5"/>
  </linearGradient>
  <linearGradient gradientUnits="objectBoundingBox" id="id_34_fill_gradient" spreadMethod="reflect" x1="-0.135135" x2="0.405405" y1="0.986486" y2="0.972973">
   <stop offset="0" stop-color="#999999"/>
   <stop offset="1" stop-color="#e5e5e5"/>
  </linearGradient>
  <linearGradient gradientUnits="objectBoundingBox" id="id_41_fill_gradient" spreadMethod="reflect" x1="-0.135135" x2="0.405405" y1="1" y2="0.972973">
   <stop offset="0" stop-color="#999999"/>
   <stop offset="1" stop-color="#e5e5e5"/>
  </linearGradient>
  <linearGradient gradientUnits="objectBoundingBox" id="id_42_fill_gradient" spreadMethod="reflect" x1="-0.135135" x2="0.405405" y1="0.986486" y2="0.972973">
   <stop offset="0" stop-color="#999999"/>
   <stop offset="1" stop-color="#e5e5e5"/>
  </linearGradient>
  <radialGradient cx="0.5" cy="0.5" fx="0.5" fy="0.5" gradientUnits="objectBoundingBox" id="id_42_stroke_gradient" r="1">
   <stop offset="0" stop-color="#000000"/>
   <stop offset="1" stop-color="#ffffff"/>
  </radialGradient>
  <linearGradient gradientUnits="objectBoundingBox" id="id_43_fill_gradient" spreadMethod="reflect" x1="-0.135135" x2="0.405405" y1="1" y2="0.972973">
   <stop offset="0" stop-color="#999999"/>
   <stop offset="1" stop-color="#e5e5e5"/>
  </linearGradient>
  <radialGradient cx="0.5" cy="0.5" fx="0.5" fy="0.5" gradientUnits="objectBoundingBox" id="id_44_fill_gradient" r="0.514579">
   <stop offset="0.6088709677419355" stop-color="#e4e4e4"/>
   <stop offset="1" stop-color="#9a9a9a"/>
  </radialGradient>
  <radialGradient cx="0.5" cy="0.5" fx="0.5" fy="0.5" gradientUnits="objectBoundingBox" id="id_7_fill_gradient" r="0.514579">
   <stop offset="0.6088709677419355" stop-color="#e4e4e4"/>
   <stop offset="1" stop-color="#9a9a9a"/>
  </radialGradient>
  <linearGradient gradientUnits="objectBoundingBox" id="linear_0" x1="0" x2="1" y1="0" y2="1">
   <stop offset="0" stop-color="#000000"/>
   <stop offset="1" stop-color="#000000" stop-opacity="0"/>
  </linearGradient>
  <radialGradient cx="0.500001" cy="0.499998" fx="0.500001" fy="0.499998" gradientUnits="objectBoundingBox" id="SVGID_1_" r="0.500001">
   <stop offset="0.01" stop-color="#4D4D4D"/>
   <stop offset="0.92" stop-color="#F5F5F5"/>
   <stop offset="1" stop-color="#7A7A7A"/>
  </radialGradient>
  <linearGradient gradientUnits="objectBoundingBox" id="SVGID_2_" x1="0.962748" x2="0.0389691" y1="0.96104" y2="0.0372706">
   <stop offset="0" stop-color="#737373"/>
   <stop offset="1" stop-color="#CCCCCC"/>
  </linearGradient>
 </defs>
 <g atv:refpx="126.459" atv:refpy="157.496" id="Image1">
  <path atv:refpx="118.109" atv:refpy="78.342" d="M121.989,44.939L124.812,45.175L127.634,45.645L130.222,46.351L132.81,47.527L135.397,48.938L137.75,50.35L139.867,52.467L141.748,54.584L143.63,56.701L145.277,59.288L146.688,61.876L147.864,64.934L148.805,67.756L149.511,71.05L149.981,74.108L150.217,77.636L149.981,80.694L149.511,83.987L148.805,87.045L147.864,90.103L146.688,92.926L145.277,95.513L143.63,98.101L141.748,100.453L139.867,102.57L137.75,104.452L135.397,106.099L132.81,107.51L130.222,108.451L127.634,109.862L123.87,110.803L119.167,111.744L116.579,111.744L113.992,111.744L111.639,111.508L109.522,111.508L107.405,111.037L105.523,110.567L103.642,109.626L101.76,108.921L99.878,107.745L98.231,106.569L96.82,105.158L95.173,103.511L93.762,101.629L92.351,99.747L90.704,97.395L89.293,95.043L88.587,92.926L87.646,90.809L87.176,88.692L86.47,86.339L86.235,83.752L86,80.929L86,78.106L86,75.048L86.235,72.696L86.47,70.579L87.176,68.227L87.881,66.11L88.822,64.227L89.528,62.346L90.469,60.464L91.175,59.053L92.115,57.406L93.056,55.995L93.997,54.819L95.173,53.643L96.114,52.467L97.29,51.526L98.467,50.585L99.878,49.879L101.054,48.938L102.23,48.232L104.818,47.056L107.64,46.351L110.463,45.645L113.286,45.175L116.344,44.939L119.167,44.939Z" fill="#d9d9d9" id="id_16" stroke="#4c4c4c" stroke-width="0.5"/>
  <path atv:refpx="92.822" atv:refpy="86.222" d="M88.117,67.521L87.411,70.814L86.94,74.108L86.705,77.165L86.705,80.223L86.94,83.281L87.411,86.104L88.117,88.927L88.822,91.279L89.763,93.867L90.939,95.984L92.115,98.101L93.527,99.983L94.703,101.864L96.114,103.276L97.526,104.687L98.937,105.863L97.29,103.981L95.644,102.1L94.232,99.983L92.821,97.866L91.645,95.748L90.469,93.396L89.528,91.044L88.822,88.692L88.117,86.104L87.646,83.281L87.411,80.694L87.176,77.871L87.411,75.048L87.646,72.226L88.117,69.403L88.822,66.58Z" fill="#000" id="id_42" stroke="#4c4c4c" stroke-width="0.5"/>
  <path atv:refpx="104.465" atv:refpy="78.695" d="M122.225,109.627L119.637,110.333L117.05,111.038L114.227,111.274L111.169,111.038L108.581,110.333L105.994,109.627L103.406,108.451L100.819,107.039L98.702,105.628L96.585,103.511L94.703,101.629L92.821,99.042L91.41,96.689L89.998,94.102L88.822,91.279L87.881,88.221L87.176,85.163L86.705,81.87L86.705,78.577L86.705,75.284L87.176,71.99L87.881,68.933L88.822,65.875L89.998,63.052L91.41,60.464L92.821,57.877L94.703,55.76L96.585,53.407L98.702,51.526L100.819,49.879L103.406,48.703L105.994,47.292L108.581,46.586L111.169,46.115L114.227,46.115" fill="none" id="id_44" stroke="#4c4c4c" stroke-width="0.5"/>
  <path atv:refpx="133.281" atv:refpy="210.893" d="M129.044,146.793L137.514,146.793L137.514,274.992L129.044,274.992Z" fill="#ababab" id="id_0" stroke="#4c4c4c" stroke-width="0.5"/>
  <path atv:refpx="133.398" atv:refpy="144.794" d="M141.278,141.853L141.278,145.382L139.396,148.204L134.221,149.38L127.163,148.204L125.518,145.617L125.518,141.853L128.576,140.677L132.339,140.207L137.044,140.207Z" fill="#ababab" id="id_1" stroke="#4c4c4c" stroke-width="0.5"/>
  <path atv:refpx="133.398" atv:refpy="140.795" d="M138.22,137.854L138.22,142.324L136.809,143.264L135.162,143.5L133.28,143.735L131.163,143.5L129.517,143.264L128.576,142.794L128.576,137.854Z" fill="#ababab" id="id_2" stroke="#4c4c4c" stroke-width="0.5"/>
  <path atv:refpx="160.802" atv:refpy="89.163" d="M155.392,40L166.918,40L166.918,129.857L155.392,138.325L154.686,40Z" fill="#ababab" id="id_3" stroke="#4c4c4c" stroke-width="0.5"/>
  <path atv:refpx="125.283" atv:refpy="89.163" d="M94.703,40L155.862,40L155.862,138.325L94.703,138.325Z" fill="#ababab" id="id_4" stroke="#4c4c4c" stroke-width="0.5"/>
  <path atv:refpx="135.398" atv:refpy="214.774" d="M134.456,155.261L136.338,154.555L136.338,274.992L134.456,274.992Z" fill="#fff" id="id_5" stroke="#4c4c4c" stroke-width="0.5"/>
  <path atv:refpx="130.693" atv:refpy="145.97" d="M134.221,145.146L127.164,143.735L127.164,148.204" fill="none" id="id_6" stroke="#4c4c4c" stroke-width="0.5"/>
  <path atv:refpx="126.342" atv:refpy="143.618" d="M127.163,143.735L125.518,141.618L125.518,145.617" fill="none" id="id_7" stroke="#4c4c4c" stroke-width="0.5"/>
  <path atv:refpx="140.338" atv:refpy="142.912" d="M141.278,141.853L139.396,143.97" fill="none" id="id_8" stroke="#4c4c4c" stroke-width="0.5"/>
  <path atv:refpx="136.809" atv:refpy="144.559" d="M139.396,143.97L134.221,145.146" fill="none" id="id_9" stroke="#4c4c4c" stroke-width="0.5"/>
  <path atv:refpx="136.809" atv:refpy="146.676" d="M139.396,147.734L139.396,143.97L134.221,145.146L134.221,149.38" fill="none" id="id_10" stroke="#4c4c4c" stroke-width="0.5"/>
  <path atv:refpx="141.043" atv:refpy="109.392" d="M134.692,98.336L147.394,98.336L147.394,120.447L134.692,120.447Z" fill="#000" id="id_11" stroke="#4c4c4c" stroke-width="0.5"/>
  <path atv:refpx="136.692" atv:refpy="83.517" d="M124.106,44.469L125.752,44.469L127.163,44.704L128.811,44.704L130.222,45.175L131.634,45.41L132.81,45.88L134.221,46.351L135.633,47.056L136.809,47.527L138.22,48.232L139.396,49.173L140.572,50.114L141.748,51.055L142.689,51.996L143.866,52.937L144.806,54.113L145.747,55.054L146.688,56.465L147.629,57.642L148.335,58.818L149.276,60.229L149.746,61.64L150.452,63.052L151.158,64.462L151.628,65.875L152.099,67.521L152.334,68.933L152.804,70.579L153.039,72.226L153.275,73.872L153.275,75.519L153.51,77.165L153.275,78.812L153.275,80.459L153.039,82.105L152.804,83.752L152.334,85.398L152.099,86.81L151.628,88.456L151.158,89.868L150.452,91.279L149.746,92.691L149.276,94.102L148.335,95.278L148.335,119.741L145.277,122.564L145.277,99.747L143.16,101.864L141.278,104.217L138.926,106.099L136.573,107.745L132.575,109.626L125.752,109.626L119.872,44.939L121.048,44.704L122.695,44.704Z" fill="#ababab" id="id_12" stroke="#4c4c4c" stroke-width="0.5"/>
  <ellipse atv:refpx="122.461" atv:refpy="77.637" cx="122.461" cy="77.637" fill="#000" id="id_13" rx="28.463" ry="32.932" stroke="#4c4c4c" stroke-width="0.5"/>
  <path atv:refpx="122.578" atv:refpy="115.038" d="M102.936,107.039L140.808,107.039L142.454,107.51L144.101,108.451L144.806,110.097L145.277,111.979L145.277,122.564L144.101,123.035L99.878,108.451L101.289,107.51Z" fill="#ababab" id="id_14" stroke="#4c4c4c" stroke-width="0.5"/>
  <path atv:refpx="120.931" atv:refpy="115.273" d="M101.995,107.51L139.867,107.51L141.513,107.98L142.925,108.921L143.866,110.568L144.101,112.45L144.336,123.035L97.526,123.035L97.526,112.45L97.996,110.568L98.937,108.921L100.113,107.98Z" fill="#ababab" id="id_15" stroke="#4c4c4c" stroke-width="0.5"/>
  <path atv:refpx="98.114" atv:refpy="76.46" d="M94.938,88.221L94.938,58.582L97.761,54.819L101.054,53.407L101.289,99.512Z" fill="#ababab" id="id_17" stroke="#4c4c4c" stroke-width="0.5"/>
  <path atv:refpx="107.523" atv:refpy="94.69" d="M87.646,79.047L87.646,81.87L88.117,84.928L88.822,87.986L89.528,91.044L90.704,93.867L92.115,96.689L93.762,99.277L95.644,101.864L97.761,103.981L100.348,106.099L102.936,107.51L105.759,108.921L108.817,109.862L112.345,110.333L115.873,110.333L119.872,109.862L123.636,108.451L126.223,107.039L127.4,105.628L95.644,84.928L93.997,82.811L92.351,81.164L90.234,79.988Z" fill="#fff" id="id_18" stroke="#4c4c4c" stroke-width="0.5"/>
  <ellipse atv:refpx="122.931" atv:refpy="77.401" cx="122.931" cy="77.401" fill="#000" id="id_21" rx="25.405" ry="30.109" stroke="#4c4c4c" stroke-width="0.5"/>
  <path atv:refpx="117.403" atv:refpy="61.994" d="M117.52,48.938L117.99,48.938L118.696,48.938L119.402,48.938L119.872,48.938L120.578,49.173L121.048,49.173L121.519,49.173L122.225,49.173L122.695,49.409L123.165,49.409L123.636,49.644L124.341,49.644L124.812,49.879L125.518,50.114L125.988,50.35L126.459,50.35L126.929,50.585L127.634,51.055L128.341,51.29L129.044,51.761L129.752,51.996L130.458,52.467L130.928,52.937L131.634,53.407L132.339,53.643L132.81,54.348L133.28,54.584L133.751,55.054L134.456,55.76L134.927,56.23L135.397,56.936L135.868,57.406L136.338,58.112L136.809,58.582L137.279,59.288L137.75,59.759L137.985,60.464L138.22,61.17L138.691,61.876L138.926,62.581L139.161,63.052L139.396,63.758L139.631,64.227L139.867,64.934L140.102,65.639L140.102,66.345L140.337,67.051L140.572,67.992L140.572,68.462L140.572,69.168L140.337,69.638L140.102,70.344L139.867,70.814L139.396,71.52L138.926,71.99L138.22,72.461L137.75,72.931L137.044,73.167L136.573,73.402L136.103,73.637L135.162,73.637L134.692,73.872L134.221,74.108L133.516,74.108L132.81,74.343L132.339,74.343L131.634,74.578L130.928,74.578L130.222,74.578L129.752,74.578L129.281,74.578L128.576,74.813L127.634,74.813L127.163,74.813L126.459,74.813L125.988,74.813L125.283,74.813L124.812,74.813L124.341,75.048L123.636,75.048L123.165,75.048L122.695,75.048L121.989,75.048L121.519,75.048L120.813,75.048L120.343,75.048L119.637,75.048L119.167,75.048L118.696,75.048L117.99,75.048L117.52,75.048L116.814,75.048L116.344,75.048L115.638,75.048L114.933,75.048L114.462,75.048L113.756,75.048L113.286,75.048L112.815,75.048L112.11,75.048L111.639,75.048L110.934,75.048L110.463,75.048L109.993,75.048L109.522,75.048L108.817,75.048L108.346,75.048L107.876,75.048L107.405,75.048L106.935,75.048L105.994,75.048L105.288,75.048L104.582,75.048L103.877,74.813L103.171,74.813L102.701,74.813L101.995,74.813L101.289,74.813L100.819,74.578L100.113,74.578L99.643,74.343L99.172,74.343L98.702,74.108L97.996,73.872L97.29,73.637L96.82,73.402L96.35,73.167L95.879,72.696L95.173,72.226L94.938,71.52L94.703,70.814L94.468,70.344L94.232,69.638L94.232,69.168L94.232,68.462L94.232,67.756L94.232,67.051L94.468,66.11L94.703,65.404L94.703,64.934L94.938,64.227L95.173,63.522L95.644,62.817L95.879,62.111L96.114,61.405L96.35,60.935L96.82,60.229L97.055,59.759L97.526,59.053L97.996,58.347L98.467,57.877L98.937,57.171L99.407,56.701L99.878,56.23L100.348,55.76L101.054,55.054L101.289,54.584L101.995,54.348L102.465,53.643L103.171,53.172L103.877,52.937L104.347,52.467L105.053,51.996L105.759,51.526L106.464,51.29L107.17,51.055L108.111,50.585L108.581,50.35L109.287,50.114L109.758,50.114L110.463,49.879L110.934,49.644L111.404,49.409L112.11,49.409L112.58,49.409L113.051,49.173L113.756,49.173L114.227,49.173L114.697,48.938L115.403,48.938L116.109,48.938L116.579,48.938L117.285,48.938Z" fill="#ababab" id="id_22" stroke="#4c4c4c" stroke-width="0.5"/>
  <ellipse atv:refpx="110.934" atv:refpy="59.053" cx="110.934" cy="59.053" fill="#ababab" id="id_23" rx="3.999" ry="4.469" stroke="#4c4c4c" stroke-width="0.5"/>
  <circle atv:refpx="104.112" atv:refpy="63.523" cx="104.112" cy="63.523" fill="#ababab" id="id_24" r="4.234" stroke="#4c4c4c" stroke-width="0.5"/>
  <ellipse atv:refpx="126.695" atv:refpy="63.522" cx="126.695" cy="63.522" fill="#ababab" id="id_25" rx="3.999" ry="4.469" stroke="#4c4c4c" stroke-width="0.5"/>
  <circle atv:refpx="119.402" atv:refpy="58.818" cx="119.402" cy="58.818" fill="#ababab" id="id_26" r="3.999" stroke="#4c4c4c" stroke-width="0.5"/>
  <path atv:refpx="102.466" atv:refpy="62.817" d="M101.054,61.876L103.877,63.758" fill="none" id="id_27" stroke="#4c4c4c" stroke-width="0.5"/>
  <path atv:refpx="112.698" atv:refpy="59.171" d="M110.934,59.053L114.462,59.053" fill="none" id="id_28" stroke="#4c4c4c" stroke-width="0.5"/>
  <path atv:refpx="121.049" atv:refpy="59.289" d="M119.402,58.582L122.695,59.994" fill="none" id="id_29" stroke="#4c4c4c" stroke-width="0.5"/>
  <path atv:refpx="125.283" atv:refpy="64.581" d="M123.636,65.639L126.929,63.522" fill="none" id="id_30" stroke="#4c4c4c" stroke-width="0.5"/>
  <path atv:refpx="96.232" atv:refpy="70.932" d="M96.35,69.873L97.055,70.109L97.29,70.814L97.055,71.755L96.35,71.99L95.644,71.755L95.173,70.814L95.644,70.109Z" fill="#ababab" id="id_31" stroke="#4c4c4c" stroke-width="0.5"/>
  <path atv:refpx="115.286" atv:refpy="73.402" d="M115.403,72.226L116.109,72.696L116.344,73.402L116.109,74.343L115.403,74.578L114.462,74.343L114.227,73.402L114.462,72.696Z" fill="#ababab" id="id_32" stroke="#4c4c4c" stroke-width="0.5"/>
  <path atv:refpx="137.632" atv:refpy="69.992" d="M137.75,68.933L138.455,69.168L138.691,69.873L138.455,70.814L137.75,71.05L137.044,70.814L136.573,69.873L137.044,69.168Z" fill="#ababab" id="id_33" stroke="#4c4c4c" stroke-width="0.5"/>
  <path atv:refpx="102.701" atv:refpy="88.222" d="M113.286,87.045L112.11,84.693L111.639,83.046L110.463,81.635L109.758,80.459L108.346,78.342L106.229,76.93L103.877,75.989L101.289,75.519L98.702,75.519L96.114,76.225L94.232,77.636L92.821,79.518L92.115,82.811L92.115,84.693L92.821,87.045L93.527,89.397L94.703,91.985L96.114,94.337L97.761,96.689L99.878,98.571L102.23,99.983L104.582,100.923L106.229,100.923L106.229,98.336L103.877,97.395L101.995,95.984L100.348,94.337L98.937,92.691L97.996,90.809L97.055,88.692L96.35,86.575L95.644,84.222L95.644,82.576L96.35,80.459L97.29,79.518L98.702,79.047L101.525,79.047L102.936,79.283L104.347,79.988L105.523,80.929L106.464,81.87L107.876,83.046L109.287,84.693L110.698,87.045Z" fill="#ababab" id="id_34" stroke="#4c4c4c" stroke-width="0.5"/>
  <path atv:refpx="124.577" atv:refpy="88.575" d="M123.636,75.989L121.989,76.225L120.578,76.93L119.167,77.871L117.755,79.047L116.814,80.459L115.873,82.105L115.403,83.987L114.697,87.28L117.05,87.516L118.226,83.517L119.167,81.87L120.343,79.988L121.519,79.047L122.93,78.577L124.812,78.812L127.634,79.518L129.517,80.929L130.693,82.811L131.163,85.398L131.163,87.986L130.693,90.573L129.752,93.161L129.044,95.043L127.634,96.925L126.223,97.395L124.812,97.63L121.519,98.101L121.048,101.159L125.047,100.688L127.163,100.453L129.281,98.806L130.693,96.925L131.869,95.278L132.81,93.161L133.516,91.044L134.221,88.692L134.456,86.339L134.221,83.752L133.516,81.635L132.575,79.753L131.163,78.342L129.281,76.93L127.163,76.225L125.988,76.225Z" fill="#ababab" id="id_35" stroke="#4c4c4c" stroke-width="0.5"/>
  <path atv:refpx="113.169" atv:refpy="91.868" d="M104.818,86.104L121.284,86.104L123.165,86.575L124.812,87.751L125.988,89.397L126.459,91.514L126.459,92.22L125.988,94.102L124.812,95.984L123.165,96.925L121.284,97.395L104.818,97.63L102.936,97.16L101.289,95.984L100.113,94.337L99.878,92.22L99.878,91.514L100.113,89.397L101.289,87.751L102.936,86.575Z" fill="#ffff14" id="id_36" stroke="#4c4c4c" stroke-width="0.5"/>
  <path atv:refpx="112.698" atv:refpy="95.396" d="M102.23,95.278L123.165,95.278" fill="none" id="id_37" stroke="#4c4c4c" stroke-width="0.5"/>
  <path atv:refpx="112.698" atv:refpy="92.573" d="M112.815,91.279L113.756,91.75L114.227,92.691L113.756,93.631L112.815,93.867L111.639,93.631L111.169,92.691L111.639,91.75Z" fill="#000" id="id_38" stroke="#4c4c4c" stroke-width="0.5"/>
  <path atv:refpx="112.934" atv:refpy="100.454" d="M103.406,97.395L122.459,97.395L122.459,103.511L103.406,103.511Z" fill="#fff" id="id_41" stroke="#4c4c4c" stroke-width="0.5"/>
  <path atv:refpx="138.573" atv:refpy="67.522" d="M130.222,49.644L130.693,49.879L131.163,50.114L131.634,50.35L132.339,50.585L132.81,51.055L133.28,51.29L133.986,51.761L134.692,52.231L135.162,52.702L135.633,52.937L136.338,53.407L136.809,53.878L137.279,54.348L137.75,54.819L138.22,55.289L138.926,55.995L139.161,56.23L139.867,56.936L140.337,57.406L140.572,58.112L141.043,58.582L141.513,59.288L141.984,59.759L142.219,60.464L142.689,60.935L143.16,61.876L143.16,62.111L143.63,62.581L143.866,63.287L144.101,63.758L144.336,64.227L144.571,64.697L144.806,65.404L144.806,65.875L145.042,66.345L145.277,67.051L145.512,67.521L145.747,68.227L145.747,68.697L145.983,69.403L145.983,70.109L146.218,70.579L146.218,71.285L146.453,71.99L146.453,72.461L146.688,73.167L146.688,73.872L146.688,74.343L146.688,75.048L146.688,75.754L146.923,76.46L146.688,77.165L146.688,77.871L146.688,78.577L146.688,79.047L146.688,79.753L146.688,80.459L146.688,80.929L146.453,81.635L145.983,85.398L145.747,84.928L145.747,84.222L145.747,83.517L145.747,83.046L145.747,82.341L145.747,81.87L145.747,81.164L145.747,80.694L145.747,79.988L145.747,79.518L145.747,79.047L145.747,78.577L145.747,78.106L145.512,77.401L145.512,76.695L145.512,76.225L145.512,75.519L145.277,75.048L145.277,74.343L145.042,73.637L145.042,72.931L144.806,72.461L144.806,71.755L144.571,71.05L144.336,70.579L144.336,69.873L144.101,69.403L144.101,68.697L143.63,68.227L143.63,67.521L143.395,67.051L143.16,66.58L142.925,65.875L142.689,65.169L142.454,64.462L141.984,63.758L141.748,63.287L141.278,62.581L141.043,62.111L140.572,61.405L140.337,60.7L140.102,60.464L139.631,59.759L139.161,59.288L138.926,58.582L138.455,58.112L137.985,57.642L137.514,56.936L137.044,56.465L136.573,55.76L136.103,55.289L135.633,54.819L134.927,54.348L134.456,53.643L133.986,53.172L133.28,52.702L132.81,52.231L132.339,51.526L131.634,51.055L131.163,50.585L130.693,50.114Z" fill="#ababab" id="id_43" stroke="#4c4c4c" stroke-width="0.5"/>
  <path atv:refpx="91.763" atv:refpy="63.523" d="M95.644,55.525L95.173,55.76L94.232,56.701L93.762,57.406L93.292,58.112L92.586,58.818L92.115,59.288L91.645,59.994L91.41,60.7L90.939,61.64L90.704,62.111L90.469,63.052L89.998,63.758L89.763,64.462L89.528,65.169L89.293,66.11L89.057,66.815L87.881,71.52L88.117,71.05L88.822,69.403L89.293,68.462L89.763,67.521L89.998,66.58L90.469,65.404L90.939,64.462L91.41,63.522L91.88,62.581L92.351,61.405L92.821,60.464L93.292,59.523L93.762,58.582L94.232,57.642L94.938,56.465Z" fill="#fff" id="id_45" stroke="#4c4c4c" stroke-width="0.5"/>
  <path atv:refpx="117.756" atv:refpy="47.41" d="M117.755,45.175L113.286,45.41L108.346,46.351L111.404,46.115L113.992,46.351L116.814,46.351L118.931,46.821L121.284,47.292L123.401,47.762L125.283,48.703L127.163,49.644L125.518,47.997L123.165,46.586L120.578,45.645Z" fill="#fff" id="id_46" stroke="#4c4c4c" stroke-width="0.5"/>
  <path atv:refpx="132.457" atv:refpy="82.694" d="M133.28,55.76L136.103,60.7L137.985,65.639L139.396,70.344L140.102,74.813L140.337,79.283L140.102,83.281L139.396,87.28L138.22,90.809L136.809,94.337L135.162,97.395L133.28,100.218L131.163,102.805L129.044,105.158L126.694,107.039L124.577,108.451L122.225,109.627L125.518,108.686L128.811,107.039L131.634,104.687L134.221,102.1L136.573,99.042L138.691,95.748L140.337,91.985L141.748,87.986L142.454,83.987L142.689,79.753L142.689,75.519L141.984,71.285L140.808,67.286L138.926,63.052L136.573,59.288Z" fill="#fff" id="id_47" stroke="#4c4c4c" stroke-width="0.5"/>
  <path atv:refpx="145.513" atv:refpy="76.107" d="M146.688,86.104L146.688,85.634L146.923,84.928L146.923,84.222L147.159,83.752L147.159,83.046L147.394,82.576L147.394,81.87L147.629,81.4L147.629,80.694L147.629,79.988L147.629,79.518L147.629,78.812L147.629,78.106L147.629,77.636L147.629,76.93L147.629,76.225L147.629,75.519L147.629,74.813L147.629,74.108L147.629,73.637L147.629,72.931L147.394,72.226L147.394,71.52L147.159,70.814L147.159,70.109L146.923,69.403L146.923,68.933L146.688,68.227L146.453,67.521L146.218,67.051L145.983,66.345L144.336,63.287L143.395,62.111L143.63,62.817L144.101,63.522L144.101,64.227L144.336,64.697L144.571,65.404L144.806,66.11L145.042,66.58L145.277,67.286L145.512,67.992L145.747,68.697L145.747,69.168L145.747,69.873L145.983,70.344L145.983,71.05L146.218,71.52L146.218,72.226L146.218,72.931L146.218,73.402L146.453,74.108L146.453,74.813L146.453,75.519L146.453,75.989L146.453,76.695L146.453,77.401L146.453,78.106L146.453,78.812L146.453,79.047L146.453,79.753L146.453,80.459L146.218,81.164L146.218,81.635L146.218,82.341L146.218,82.811L145.983,83.517L145.983,84.222L145.983,84.693L145.747,85.398L145.747,85.634L145.512,86.339L145.512,87.045L145.277,87.751L145.042,88.221L145.042,88.927L144.806,89.633L144.571,90.103L145.512,88.456Z" fill="#fff" id="id_48" stroke="#4c4c4c" stroke-width="0.5"/>
 </g>
 <desc>From Base Object v1.3</desc>
 <metadata>
  <atv:parameter behavior="optional" defaultvalue="SYSTEM.GLOBALS.Color_Global_1" desc="Color" name="Color" substitute="$Color$" valuetype="global"/>
  <atv:parameter behavior="optional" defaultvalue="SYSTEM.GLOBALS.Maintenance_Power_Meter" desc="Global Maintenance" name="Global_Maintenance" valuetype="global"/>
  <atv:gridconfig enabled="true" gridstyle="lines" height="20" width="20"/>
  <atv:snapconfig enabled="true" height="1" width="1"/>
 </metadata>
 <text atv:refpx="110.738" atv:refpy="11.5" fill="$Color$" font-family="Arial" font-size="14" font-weight="bold" id="Title" x="89.5" y="17">Name</text>
 <polygon atv:refpx="63.671" atv:refpy="44.035" fill="#fdf90a" id="alert_increasing" points="51.67,56.034 75.67,56.034 63.003,32.034" stroke="#000000" stroke-width="1"/>
 <g atv:refpx="76.062" atv:refpy="166.063" id="maintenance" transform="matrix(1,0,0,1,51.4176,11.4187)">
  <rect atv:refpx="46.171" atv:refpy="204.643" fill="#2b9de8" height="24.544" id="id_39" stroke="#000000" stroke-width="1" transform="matrix(0.7071,-0.7071,0.7071,0.7071,0,0)" width="24.544" x="-104.196" y="114.505"/>
  <text atv:refpx="28" atv:refpy="149.5" fill="#000000" font-family="Arial" font-size="14" id="id_40" x="18.5" y="160">M</text>
 </g>
 <polygon atv:refpx="11.207" atv:refpy="46.619" fill="#fdbf21" id="alert_decreasing" points="25.872,34.618 1.871,34.618 14.536,58.619" stroke="#000000" stroke-width="1"/>
 <text atv:refpx="64.671" atv:refpy="48.535" fill="#000000" font-family="Arial" font-size="14" font-weight="bold" id="alertC_text" text-anchor="end" x="66.171" y="53.035">1</text>
 <text atv:refpx="14.459" atv:refpy="43.617" fill="#000000" font-family="Arial" font-size="14" font-weight="bold" id="alertD_text" x="10.959" y="48.117">1</text>
 <rect atv:refpx="9.088" atv:refpy="-51.533" fill="#93060a" fill-opacity="0" height="42" id="click_area_alertC" stroke="none" stroke-width="0" width="28" x="50" y="17"/>
 <rect atv:refpx="14" atv:refpy="49" fill="#93060a" fill-opacity="0" height="42" id="click_area_alertD" stroke="none" stroke-width="0" width="28" x="0" y="30"/>
 <polygon atv:refpx="60.419" atv:refpy="87.537" fill="#fdf90a" id="alert_increasing_min" points="75.084,75.535 51.082,75.535 63.748,99.535" stroke="#000000" stroke-width="1"/>
 <text atv:refpx="63.671" atv:refpy="84.535" fill="#000000" font-family="Arial" font-size="14" font-weight="bold" id="alertC_text_min" x="60.171" y="89.035">1</text>
 <polygon atv:refpx="14.459" atv:refpy="87.117" fill="#fdbf21" id="alert_decreasing_min" points="2.458,99.117 26.458,99.117 13.79,75.117" stroke="#000000" stroke-width="1"/>
 <text atv:refpx="15" atv:refpy="91.5" fill="#000000" font-family="Arial" font-size="14" font-weight="bold" id="alertD_text_min" text-anchor="end" x="16.5" y="96">1</text>
 <rect atv:refpx="-40.912" atv:refpy="-7.533" fill="#93060a" fill-opacity="0" height="42" id="click_area_alertD_min" stroke="none" stroke-width="0" width="28" x="0" y="61"/>
 <g atv:refpx="36.5" atv:refpy="67" id="Ind_Bar" transform="matrix(1,0,0,1,-2,-2)">
  <rect atv:refpx="38.5" atv:refpy="69" fill="#626262" height="77.366" id="Barra_Ind2" rx="7" ry="7" stroke="#000000" stroke-width="1" width="14" x="31.5" y="30.317"/>
  <path atv:refpx="38.496" atv:refpy="36.976" d="M31.826,43.257L45.178,43.257L45.08,36.1C45.08,36.1 44.046,30.754 38.676,30.694C33.305,30.633 31.876,35.603 31.876,35.603C31.876,35.603 31.777,43.318 31.826,43.257" fill="#b5b5b5" id="id_19" stroke="#000000" stroke-width="0"/>
  <path atv:refpx="38.533" atv:refpy="100.982" d="M45.204,94.701L31.852,94.701L31.95,101.858C31.95,101.858 32.985,107.205 38.355,107.265C43.726,107.324 45.154,102.356 45.154,102.356C45.154,102.356 45.252,94.641 45.204,94.701" fill="#b5b5b5" id="id_20" stroke="#000000" stroke-width="0"/>
 </g>
 <rect atv:refpx="49.396" atv:refpy="20.211" fill="#bd070d" height="23" id="alarm_square" rx="1.855" ry="1.987" stroke="#000000" stroke-width="1" text-anchor="middle" width="23" x="37.446" y="8.085"/>
 <text atv:refpx="-20.554" atv:refpy="-5.2" fill="#000000" font-family="Arial" font-size="14" font-weight="bold" id="alarm_text" text-anchor="middle" x="48.946" y="24.586">1</text>
 <rect atv:refpx="-3.405" atv:refpy="-43.69" fill="#93060a" fill-opacity="0" height="28" id="click_area_alarm" stroke="none" stroke-width="0" width="28" x="34.879" y="5.516"/>
 <rect atv:refpx="49.102" atv:refpy="114.645" fill="#bd070d" height="23" id="alarm_square_min" rx="1.855" ry="1.987" stroke="#000000" stroke-width="1" text-anchor="middle" width="23" x="37.152" y="102.519"/>
 <text atv:refpx="-20.848" atv:refpy="89.234" fill="#000000" font-family="Arial" font-size="14" font-weight="bold" id="alarm_text_min" text-anchor="middle" x="48.652" y="119.02">1</text>
 <rect atv:refpx="-3.983" atv:refpy="51.028" fill="#93060a" fill-opacity="0" height="28" id="click_area_alarm_min" stroke="none" stroke-width="0" width="28" x="34.301" y="100.234"/>
 <rect atv:refpx="63" atv:refpy="90" fill="#93060a" fill-opacity="0" height="42" id="click_area_alertC_min" stroke="none" stroke-width="0" width="28" x="49" y="71"/>
 <script atv:desc="" atv:href="SYSTEM.LIBRARY.PROJECT.DISPLAYSCRIPTS.atvise_Advanced_Objects_Display_Scripts.AAA_Principal_Display_Script" atv:name="" atv:type="text/ecmascript"/>
 <rect atv:refpx="141" atv:refpy="138.5" fill="#000000" fill-opacity="0" height="275" id="click_area" stroke="#0000ff" stroke-width="0" width="120" x="81" y="1"/>
 <script atv:desc="" atv:name="" type="text/ecmascript"/>
</svg>
