<!DOCTYPE svg PUBLIC "-//W3C//DTD SVG 20000303 Stylable//EN" "http://www.w3.org/TR/2000/03/WD-SVG-20000303/DTD/svg-20000303-stylable.dtd"[]><svg xmlns="http://www.w3.org/2000/svg" width="64px" height="64px" viewBox="0 0 999 215"><path style="fill:#f2f2f2" d="M4,15 l990,0 0,185 -990,0 0,-185z" /><path style="fill:#e5e5e5" d="M4,46 l990,0 0,124 -990,0 0,-124z" /><path style="fill:#999;stroke:#4c4c4c;stroke-width:2" d="M149,190 l-62,-165 -21,0 62,165 21,0z" /><path style="fill:#999;stroke:#4c4c4c;stroke-width:2" d="M272,190 l-61,-165 -21,0 62,165 20,0z" /><path style="fill:#999;stroke:#4c4c4c;stroke-width:2" d="M396,190 l-62,-165 -20,0 61,165 21,0z" /><path style="fill:#999;stroke:#4c4c4c;stroke-width:2" d="M520,190 l-62,-165 -21,0 62,165 21,0z" /><path style="fill:#999;stroke:#4c4c4c;stroke-width:2" d="M643,190 l-61,-165 -21,0 62,165 20,0z" /><path style="fill:#999;stroke:#4c4c4c;stroke-width:2" d="M767,190 l-62,-165 -20,0 61,165 21,0z" /><path style="fill:#999;stroke:#4c4c4c;stroke-width:2" d="M891,190 l-62,-165 -21,0 62,165 21,0z" /><path style="fill:#999;stroke:#4c4c4c;stroke-width:2" d="M932,25 l31,83 20,0 -31,-83 -20,0z" /><path style="fill:#d9d9d9;stroke:#4c4c4c;stroke-width:2" d="M870,190 l62,-165 20,0 -61,165 -21,0z" /><path style="fill:#d9d9d9;stroke:#4c4c4c;stroke-width:2" d="M746,190 l62,-165 21,0 -62,165 -21,0z" /><path style="fill:#d9d9d9;stroke:#4c4c4c;stroke-width:2" d="M623,190 l61,-165 21,0 -62,165 -20,0z" /><path style="fill:#d9d9d9;stroke:#4c4c4c;stroke-width:2" d="M499,190 l62,-165 20,0 -61,165 -21,0z" /><path style="fill:#d9d9d9;stroke:#4c4c4c;stroke-width:2" d="M375,190 l62,-165 21,0 -62,165 -21,0z" /><path style="fill:#d9d9d9;stroke:#4c4c4c;stroke-width:2" d="M252,190 l61,-165 21,0 -62,165 -20,0z" /><path style="fill:#d9d9d9;stroke:#4c4c4c;stroke-width:2" d="M128,190 l62,-165 21,0 -62,165 -21,0z" /><path style="fill:#d9d9d9;stroke:#4c4c4c;stroke-width:2" d="M4,190 l62,-165 21,0 -62,165 -21,0z" /><path style="fill:#7f7f7f" d="M4,200 l990,0 0,11 -990,0 0,-11z" /><path style="fill:#7f7f7f" d="M4,4 l990,0 0,11 -990,0 0,-11z" /></svg>