<?xml version="1.0" ?>
<!-- Uploaded to: SVG Repo, www.svgrepo.com, Generator: SVG Repo Mixer Tools -->
<svg width="800px" height="800px" viewBox="0 0 960 960" version="1.1" xml:space="preserve" xmlns="http://www.w3.org/2000/svg" xmlns:xlink="http://www.w3.org/1999/xlink">
<style type="text/css">
	.st0{display:none;}
	.st1{display:inline;opacity:0.93;}
	.st2{display:inline;}
	.st3{fill:none;stroke:#000000;stroke-width:15;stroke-linecap:round;stroke-linejoin:round;stroke-miterlimit:10;}
	.st4{display:inline;fill:none;stroke:#000000;stroke-width:15;stroke-linecap:round;stroke-linejoin:round;stroke-miterlimit:10;}
	.st5{fill:#222222;}
	.st6{fill:#DDEDE7;}
	.st7{fill:#1A1D3F;}
	.st8{fill:#ED644E;}
	.st9{fill:#E9B44D;}
	.st10{fill:#3DC5A1;}
	.st11{fill:#494EDF;}
</style>
<g class="st0" id="guide"/>
<g class="st0" id="sketch"/>
<g class="st0" id="stroke">
<path class="st4" d="M205,296.6c0.2-20.6,5.6-43.6,20.3-58.1c14.2-13.9,41.6-15.1,61.5-15.4c150.7-2.4,301.5,1.6,452.2-0.8   c29.3-0.5,61.1-0.2,84.5,17.4c33.8,25.5,35.7,74.7,34.4,117c-1.7,57.7,0.8,92.8-0.9,150.5c-1.2,39.1-4.9,83.5-35.8,107.6   c-25.2,19.7-62.3,17-94.3,17.1c-166.2,0.9-289.7,6.4-438.9-1.7c-13.5-0.7-27.4-1.6-39.5-7.6c-47.8-23.8-42.9-76.1-43.9-142.6   C203.4,399.5,204.6,357.1,205,296.6z"/>
<path class="st4" d="M742.8,632.1c-5.5-136.5-6.3-273.2-2.4-409.7"/>
<path class="st4" d="M707.8,222.8c-1,136.5-1.9,273-2.9,409.4"/>
<path class="st4" d="M642.6,421.4c-14.9,0.2-29.9,0.5-44.9,0.7"/>
<path class="st4" d="M349.3,425.8c-15,0.2-30,0.5-44.9,0.7"/>
<path class="st4" d="M588.9,373.1c17.9-0.2,35.8-0.4,53.6-0.6c-0.8,6.4,0.8,12.1,0,18.5"/>
<path class="st4" d="M304.4,395.5c0-6.4,0-12.7,0-19.1c18-0.2,36.1-0.4,54.3-0.6"/>
<path class="st4" d="M532.3,320.6c37-0.4,73.8-0.7,110.3-0.9c0.8,8.6-0.8,15.9,0,24.5"/>
<path class="st4" d="M304.4,340.7c0-6,0-12,0-18c34.9-0.2,70.2-0.5,105.6-0.9"/>
<path class="st4" d="M304.4,289.3c-0.8-8.2,0.8-16.5,0-24.7c126.1-0.7,216.8-0.7,338.2-0.7c0.4,8.6-0.4,18,0,26.6"/>
<path class="st4" d="M642.6,456.1c0.4,6.4-0.4,14.8,0,21.2c-20.3,0-40.7,0.1-61.1,0.2"/>
<path class="st4" d="M304.4,460.5c0,6,0,13.1,0,19c19.5,0,39-0.1,58.6-0.2"/>
<path class="st4" d="M642.6,510.9c0.7,6-0.7,11.4,0,17.4c-43.8,2.2-81.7,3.2-118.8,3.6"/>
<path class="st4" d="M304.4,513.3c0.4,7.1-0.4,14.2,0,21.3c42.3-1.3,78.9-1.8,112.9-2"/>
<path class="st4" d="M304.4,568.3c0.4,7.9-0.4,15.7,0,23.6c114.2-1.7,224-3.4,338.2-5c-0.9-6,0.9-14.7,0-20.6"/>
<path class="st4" d="M361.2,633.4c-33.5,20.9-80,39.5-112,60.7c0.3,16,0.7,27.7,1,43.7c193.1-7.8,316.4,4.2,547.6-8.2   c0.3-19.6-0.5-25.7-0.2-45.3c-22.3-18.2-59.4-29.8-92.7-52.1h0"/>
<path class="st4" d="M204.4,461.8c-29.5-0.3-62.5,0-91.6-1c-8-10.8-11-25-10.9-39c0.1-11.1-0.4-25.9,11.7-37.9   c4.1-2.5,54.9-1.9,90.7-2"/>
<path class="st4" d="M428.1,435.9c14.8-0.2,25.3-1,44.5-0.4c-8.9,19.7-18.5,47.3-30.2,76.7c-2.6,6.5,5.8,11.7,10.5,6.6   c33.4-36.6,56.4-63.4,93.2-107.2c3.5-4.1,0.5-10.4-4.9-10.4c-20.8,0.3-29.1,1-49.9-0.1c-1-0.1,6.6-41.7,12.2-71.8   c1.3-6.7-7.6-10.4-11.4-4.7c-19.6,29.3-51.4,76.4-69.1,101.3C419.9,430.2,423,436,428.1,435.9z"/>
</g>
<g id="outline">
<path class="st5" d="M650.1,421.3c0.1,4.1-3.2,7.6-7.4,7.6l-44.9,0.7c0,0-0.1,0-0.1,0c-4.1,0-7.4-3.3-7.5-7.4   c-0.1-4.1,3.2-7.5,7.4-7.6l44.9-0.7C646.6,413.8,650,417.1,650.1,421.3z M349.2,418.3l-44.9,0.7c-4.1,0.1-7.4,3.5-7.4,7.6   c0.1,4.1,3.4,7.4,7.5,7.4c0,0,0.1,0,0.1,0l44.9-0.7c4.1-0.1,7.4-3.5,7.4-7.6c-0.1-4.1-3.4-7.4-7.5-7.4   C349.3,418.3,349.2,418.3,349.2,418.3z M648.2,367.5c-1.4-1.6-3.5-2.5-5.7-2.5c-17.8,0.2-35.7,0.4-53.7,0.6c-4.1,0-7.5,3.4-7.4,7.6   c0,4.1,3.4,7.4,7.5,7.4c0,0,0.1,0,0.1,0c15.4-0.2,30.7-0.3,45.9-0.5c0,0.7,0.1,1.4,0.1,2.1c0.2,2.8,0.3,5.4,0,7.9   c-0.5,4.1,2.5,7.8,6.6,8.3c0.3,0,0.6,0.1,0.9,0.1c3.7,0,7-2.8,7.4-6.6c0.5-3.9,0.2-7.4,0-10.6c-0.2-2.8-0.3-5.4,0-7.9   C650.3,371.2,649.6,369.1,648.2,367.5z M358.8,383.3c4.1,0,7.5-3.4,7.4-7.6c0-4.1-3.4-7.4-7.5-7.4c0,0-0.1,0-0.1,0l-1.8,0   c-17.6,0.2-35.1,0.4-52.5,0.6c-4.1,0-7.4,3.4-7.4,7.5v19.1c0,4.1,3.4,7.5,7.5,7.5s7.5-3.4,7.5-7.5v-11.7c15-0.2,30-0.3,45.1-0.5   L358.8,383.3z M642.6,312.2C642.6,312.2,642.6,312.2,642.6,312.2c-39,0.2-77.7,0.6-110.3,0.9c-4.1,0-7.5,3.4-7.4,7.6   c0,4.1,3.4,7.4,7.5,7.4c0,0,0.1,0,0.1,0c30.6-0.3,66.5-0.6,102.9-0.9c0,1.4-0.1,2.9-0.2,4.3c-0.2,4.2-0.5,8.5,0,13.4   c0.4,3.9,3.6,6.8,7.5,6.8c0.2,0,0.5,0,0.7,0c4.1-0.4,7.1-4.1,6.7-8.2c-0.4-3.7-0.2-7.3,0-11.1c0.2-4.2,0.5-8.5,0-13.4   C649.7,315.1,646.4,312.2,642.6,312.2z M410,314.4c-39.1,0.4-73.7,0.7-105.6,0.9c-4.1,0-7.4,3.3-7.5,7.4c0,3.2,0,6.3,0,9.5   c0,2.8,0,5.7,0,8.5c0,4.1,3.3,7.5,7.5,7.5c0,0,0,0,0,0c4.1,0,7.5-3.3,7.5-7.5c0-2.9,0-5.8,0-8.6c0-0.6,0-1.3,0-1.9   c29.9-0.2,62.1-0.5,98.2-0.8c4.1,0,7.5-3.4,7.4-7.6C417.5,317.6,414.1,314.3,410,314.4z M296.9,290c0.4,4.1,4,7.2,8.2,6.8   c4.1-0.4,7.2-4,6.8-8.2c-0.3-3.6-0.2-7.3,0-11.3c0.1-1.7,0.2-3.5,0.2-5.2c119.6-0.7,206.3-0.7,323.1-0.7c0,1.8-0.1,3.7-0.1,5.6   c-0.1,4.6-0.2,9.3,0,13.8c0.2,4,3.5,7.1,7.5,7.1c0.1,0,0.3,0,0.4,0c4.1-0.2,7.3-3.7,7.1-7.9c-0.2-4-0.1-8.2,0-12.7   c0.1-4.6,0.2-9.3,0-13.8c-0.2-4-3.5-7.1-7.5-7.1c-123.1,0-212.1,0-338.2,0.7c-2.1,0-4.1,0.9-5.5,2.5c-1.4,1.6-2.1,3.6-1.9,5.7   c0.3,3.6,0.2,7.3,0,11.3C296.7,280.9,296.5,285.3,296.9,290z M574,477.5c0,4.1,3.4,7.5,7.5,7.5c0,0,0,0,0,0   c22.4-0.1,42.3-0.2,61-0.2c2.1,0,4-0.9,5.5-2.4s2.1-3.5,2-5.6c-0.2-2.9-0.1-6.4,0-9.9c0.1-3.8,0.2-7.7,0-11.2   c-0.3-4.1-3.8-7.3-7.9-7c-4.1,0.3-7.3,3.8-7,7.9c0.2,2.9,0.1,6.4,0,9.9c0,1.1-0.1,2.2-0.1,3.3c-16.5,0-34.1,0.1-53.5,0.2   C577.3,470,574,473.4,574,477.5z M296.9,479.6c0,2,0.8,3.9,2.2,5.3c1.4,1.4,3.3,2.2,5.3,2.2c0,0,0,0,0,0c18.8,0,38.5-0.1,58.6-0.2   c4.1,0,7.5-3.4,7.5-7.5c0-4.1-3.4-7.5-7.5-7.5c0,0,0,0-0.1,0c-17.4,0.1-34.5,0.2-51,0.2v-11.5c0-4.1-3.4-7.5-7.5-7.5   s-7.5,3.4-7.5,7.5V479.6z M516.3,532c0,4.1,3.4,7.4,7.5,7.4c0,0,0.1,0,0.1,0c43.9-0.5,80.6-1.6,119.1-3.6c2.1-0.1,4-1.1,5.3-2.6   s2-3.6,1.7-5.7c-0.3-2.4-0.1-4.8,0-7.4c0.2-3,0.4-6.3,0-10c-0.5-4.1-4.2-7.1-8.3-6.6c-4.1,0.5-7.1,4.2-6.6,8.3   c0.3,2.4,0.1,4.8,0,7.4c0,0.6-0.1,1.3-0.1,2c-35.7,1.7-70.3,2.7-111.3,3.2C519.5,524.4,516.2,527.8,516.3,532z M296.9,535   c0.2,4,3.5,7.1,7.5,7.1c0.1,0,0.2,0,0.2,0c36.2-1.1,71-1.7,112.7-2c4.1,0,7.5-3.4,7.4-7.6c0-4.1-3.4-7.4-7.5-7.4c0,0,0,0-0.1,0   c-38.9,0.3-71.8,0.8-105.4,1.8c0-0.9,0-1.9,0.1-2.8c0.1-3.6,0.2-7.4,0-11.2c-0.2-4.1-3.8-7.3-7.9-7.1c-4.1,0.2-7.3,3.7-7.1,7.9   c0.2,3.2,0.1,6.5,0,10C296.8,527.3,296.7,531.1,296.9,535z M650,565.2c-0.6-4.1-4.4-6.9-8.5-6.3c-4.1,0.6-6.9,4.4-6.3,8.5   c0.3,2.2,0.1,5.6-0.1,8.8c-0.1,1.1-0.1,2.2-0.2,3.4c-54.5,0.8-108,1.6-161.5,2.4c-53.5,0.8-107.1,1.6-161.6,2.4   c0-1.3,0.1-2.6,0.1-4c0.1-4,0.2-8.1,0-12.3c-0.2-4.1-3.7-7.3-7.8-7.1c-4.1,0.2-7.3,3.7-7.1,7.8c0.2,3.7,0.1,7.4,0,11.3   c-0.1,4-0.2,8.1,0,12.3c0.2,4,3.5,7.1,7.5,7.1c0,0,0.1,0,0.1,0c57.1-0.8,113.1-1.7,169.1-2.5c56-0.8,112-1.7,169.1-2.5   c2.2,0,4.2-1,5.6-2.6c1.4-1.6,2-3.8,1.7-5.9c-0.3-2.2-0.1-5.6,0.1-8.8C650.3,573,650.6,568.9,650,565.2z M106.7,465.3   c-10.4-14.1-12.5-31.4-12.4-43.5l0-1.4c0.1-11.2,0.2-28,13.9-41.7c0.4-0.4,0.9-0.8,1.4-1.1c4.1-2.5,13.3-3.1,74-3.1   c4.5,0,8.8,0,13.1,0c0.1-12,0.2-23.6,0.4-35.4c0.2-13.5,0.3-27.5,0.4-42.5c0.3-36.2,14.3-55.2,22.6-63.4   c17.1-16.7,49.3-17.2,66.6-17.5c75.4-1.2,152.1-0.8,226.3-0.4c63.9,0.3,129.6,0.7,194.8,0c0,0,0,0,0.1,0c0,0,0,0,0.1,0c0,0,0,0,0,0   c10.4-0.1,20.7-0.2,31.1-0.4c26.4-0.4,62.6-1,89.1,18.9c35.3,26.6,38.8,75,37.4,123.3c-0.9,28.7-0.7,52.2-0.5,75   c0.2,22.9,0.4,46.5-0.5,75.5c-1.2,41.2-5.4,87.3-38.6,113.3c-24.4,19-58.1,18.9-87.9,18.7c-2,0-4,0-6,0c8.1,4.3,16.1,8.3,24.1,12.2   c17.4,8.5,33.9,16.6,46.3,26.7c1.8,1.5,2.8,3.6,2.7,5.9c-0.2,9.7,0,16.1,0.1,22.4c0.1,6.4,0.3,13,0.1,22.9   c-0.1,3.9-3.2,7.2-7.1,7.4c-128.2,6.9-223.4,6.3-315.4,5.7c-75.2-0.5-146.3-0.9-232.3,2.5c-0.1,0-0.2,0-0.3,0c-1.9,0-3.7-0.7-5.1-2   c-1.5-1.4-2.3-3.3-2.4-5.3c-0.2-8-0.3-14.9-0.5-21.8c-0.2-6.9-0.3-13.9-0.5-21.9c-0.1-2.6,1.2-5,3.4-6.4   c17.2-11.4,38.7-22.1,59.4-32.5c10-5,20.3-10.1,30-15.3c-15.4-0.6-31-1.3-46.9-2.2c-13.5-0.7-28.8-1.6-42.5-8.4   c-21.9-10.9-35.2-27.8-41.8-53.1c-5.7-21.9-5.9-47.5-6.1-77c0-6.2-0.1-12.6-0.2-19c-0.1-3.8-0.1-7.5-0.1-11.1   c-7.7-0.1-15.5-0.1-23.7-0.1c-20.4-0.1-41.4-0.2-60.8-0.8C110.2,468.2,108.1,467.1,106.7,465.3z M750,624.6   c24.8-0.1,49.2-1.9,66.6-15.6c28.2-22,31.7-64.1,32.9-101.9c0.9-28.7,0.7-52.2,0.5-75c-0.2-22.9-0.4-46.5,0.5-75.5   c1.3-44.3-1.5-88.3-31.4-110.8c-18.8-14.2-43.4-16.2-71.3-16C744.1,360.8,744.9,493.6,750,624.6z M712.5,624.6   c4.8,0,9.6-0.1,14.4-0.1c2.7,0,5.4,0,8.1,0c-5.1-130.9-5.9-263.6-2.3-394.6c-5.8,0.1-11.6,0.2-17.4,0.2l-0.1,7.9   C714.3,366.9,713.4,495.8,712.5,624.6z M702.7,639.7c-36.4,0.3-70.7,0.8-104.1,1.2c-47.3,0.7-91.8,1.3-136,1.3   c-33,0-65.8-0.3-99.4-1.3c-15.7,9.6-34.2,18.9-52,27.8c-18.9,9.5-38.5,19.2-54.4,29.3c0.1,6.3,0.3,12,0.4,17.7   c0.1,4.6,0.2,9.3,0.3,14.2c82.9-3.2,152.2-2.7,225.4-2.2c90.1,0.6,183.2,1.2,307.4-5.3c0-6-0.1-10.8-0.2-15.4   c-0.1-5.5-0.2-11.2-0.1-19.2c-10.8-8.1-25.3-15.2-40.6-22.7C734.8,658,718.3,649.9,702.7,639.7z M211.9,461.8   C211.9,461.8,211.9,461.9,211.9,461.8C211.9,461.9,211.9,461.9,211.9,461.8c0.1,5.9,0.1,11.9,0.2,18.2c0.1,6.5,0.1,13,0.2,19.2   c0.3,56.5,0.6,97.3,39.5,116.8c10.9,5.4,24,6.2,36.6,6.8c108.1,5.9,201.6,4.6,310,3.1c31.8-0.4,64.5-0.9,99.1-1.2   c0.9-128.9,1.8-257.9,2.7-386.8l0.1-7.6c-62.8,0.6-125.9,0.2-187.4-0.1c-74.1-0.4-150.7-0.8-225.9,0.4   c-15.2,0.2-43.5,0.7-56.3,13.2c-11.3,11.1-17.9,30.3-18.1,52.8c-0.1,15-0.3,29-0.4,42.5c-0.2,14.2-0.3,28.1-0.4,42.7   c0,0,0,0.1,0,0.1c0,0,0,0.1,0,0.1C211.5,405.5,211.5,430.8,211.9,461.8z M109.3,421.9c-0.1,8.9,1.2,21.3,7.5,31.5   c18.1,0.5,37.6,0.6,56.5,0.7c7.8,0,15.7,0.1,23.5,0.1c-0.2-24.5-0.2-45.3-0.1-64.7c-4.2,0-8.6,0-13,0c-23.3,0-57.8-0.1-66.1,1.2   c-8.1,9.1-8.2,20.1-8.2,29.8L109.3,421.9z M510.8,330.7c-7,37.7-10,55.2-11.3,63.3c10.5,0.4,17.8,0.2,27.2,0   c4.1-0.1,8.8-0.2,14.3-0.3c5.4-0.1,10.3,3,12.7,7.9c2.3,4.9,1.6,10.6-1.9,14.8c-36.6,43.6-59.9,70.8-93.4,107.4   c-2.7,3-6.4,4.5-10.1,4.5c-2.5,0-5.1-0.7-7.4-2.1c-5.7-3.6-8-10.5-5.5-16.8c4.3-10.9,8.4-21.5,12.2-31.7   c4.7-12.5,9.3-24.5,13.6-34.9c-7.4-0.1-13.6,0.1-20,0.3c-4.2,0.1-8.4,0.2-13.1,0.3h0c-5.2,0-10-2.8-12.4-7.4   c-2.4-4.6-2-10.1,1-14.4c18-25.3,51-74.2,69-101.1c3.7-5.5,10.5-7.6,16.7-5.1C508.6,317.9,512,324.2,510.8,330.7z M490.8,408.6   c-2.2-0.1-4.2-1.2-5.5-2.9c-2.3-2.9-1.9-5.5-0.7-13.2c0.6-4.2,1.6-10.2,3-17.8c1.9-10.7,4.4-24.5,7.4-41   c-18.1,26.9-47.3,70.3-64.6,94.7c3.7-0.1,7.1-0.2,10.5-0.3c5.5-0.2,11.2-0.3,17.8-0.3c4.3,0,8.9,0.1,14.2,0.2   c2.5,0.1,4.8,1.4,6.1,3.5c1.3,2.1,1.5,4.8,0.5,7c-5.5,12.2-11.4,27.9-17.7,44.5c-3.2,8.4-6.5,17-9.9,25.9   c30.5-33.6,53-59.8,86.9-100.2c-4.3,0.1-8.2,0.2-11.6,0.2C515.1,409.3,506.5,409.5,490.8,408.6z"/>
</g>
<g class="st0" id="flat">
<g class="st2">
<path class="st10" d="M797.6,684.2c-22.3-18.2-59.4-29.8-92.7-52.1h0l-343.6,1.2c-33.5,20.9-80,39.5-112,60.7    c0.3,16,0.7,27.7,1,43.7c193.1-7.8,316.4,4.2,547.6-8.2C798.1,709.9,797.3,703.9,797.6,684.2z"/>
<path class="st6" d="M823.5,239.8c-23.4-17.6-55.2-17.9-84.5-17.4c-150.7,2.4-301.5-1.6-452.2,0.8c-19.9,0.3-47.3,1.5-61.5,15.4    C210.6,253,205.2,276,205,296.6c-0.5,60.5-1.6,102.8-0.4,183.5c0.9,66.5-3.9,118.7,43.9,142.6c12.1,6,26,6.9,39.5,7.6    c149.2,8.1,272.7,2.6,438.9,1.7c32-0.2,69.1,2.6,94.3-17.1c30.8-24.1,34.6-68.5,35.8-107.6c1.7-57.7-0.8-92.8,0.9-150.5    C859.2,314.5,857.3,265.3,823.5,239.8z"/>
<path class="st11" d="M432.8,497.9c21.7,11.5,48,14.1,71.4,6.5c23.3-7.6,43.3-25.3,53.2-47.8c14.5-32.9,5.3-74.7-21.6-98.5    c-56.5-50-156.5-11.9-150.7,67.6C387.2,455.8,406.3,483.7,432.8,497.9z"/>
<path class="st9" d="M541.2,401.3c-20.8,0.3-29.1,1-49.9-0.1c-1-0.1,6.6-41.7,12.2-71.8c1.3-6.7-7.6-10.4-11.4-4.7    c-19.6,29.3-51.4,76.4-69.1,101.3c-3,4.2,0.1,10,5.2,10c14.8-0.2,25.3-1,44.5-0.4c-8.9,19.7-18.5,47.3-30.2,76.7    c-2.6,6.5,5.8,11.7,10.5,6.6c33.4-36.6,56.4-63.4,93.2-107.2C549.5,407.5,546.6,401.2,541.2,401.3z"/>
<path class="st8" d="M742.4,632.1c-5-130.8-5.8-278.9-2.3-409.7l-32.4,0.4c-0.9,130.7-1.8,278.7-2.7,409.4    c7.2-0.1,14.5-0.1,21.9-0.1C732,632,737.2,632.1,742.4,632.1z"/>
<path class="st7" d="M642.5,413.9l-44.9,0.7c-4.1,0.1-7.4,3.5-7.4,7.6c0.1,4.1,3.4,7.4,7.5,7.4c0,0,0.1,0,0.1,0l44.9-0.7    c4.1-0.1,7.4-3.5,7.4-7.6C650,417.1,646.6,413.8,642.5,413.9z"/>
<path class="st7" d="M349.2,418.3l-44.9,0.7c-4.1,0.1-7.4,3.5-7.4,7.6c0.1,4.1,3.4,7.4,7.5,7.4c0,0,0.1,0,0.1,0l44.9-0.7    c4.1-0.1,7.4-3.5,7.4-7.6c-0.1-4.1-3.4-7.4-7.5-7.4C349.3,418.3,349.2,418.3,349.2,418.3z"/>
<path class="st7" d="M648.2,367.5c-1.4-1.6-3.5-2.5-5.7-2.5c-17.8,0.2-35.7,0.4-53.7,0.6c-4.1,0-7.5,3.4-7.4,7.6    c0,4.1,3.4,7.4,7.5,7.4c0,0,0.1,0,0.1,0c15.4-0.2,30.7-0.3,45.9-0.5c0,0.7,0.1,1.4,0.1,2.1c0.2,2.8,0.3,5.4,0,7.9    c-0.5,4.1,2.5,7.8,6.6,8.3c0.3,0,0.6,0.1,0.9,0.1c3.7,0,7-2.8,7.4-6.6c0.5-3.9,0.2-7.4,0-10.6c-0.2-2.8-0.3-5.4,0-7.9    C650.3,371.2,649.6,369.1,648.2,367.5z"/>
<path class="st7" d="M358.8,383.3c4.1,0,7.5-3.4,7.4-7.6c0-4.1-3.4-7.4-7.5-7.4c0,0-0.1,0-0.1,0l-1.8,0    c-17.6,0.2-35.1,0.4-52.5,0.6c-4.1,0-7.4,3.4-7.4,7.5v19.1c0,4.1,3.4,7.5,7.5,7.5s7.5-3.4,7.5-7.5v-11.7c15-0.2,30-0.3,45.1-0.5    L358.8,383.3z"/>
<path class="st7" d="M642.6,312.2C642.6,312.2,642.6,312.2,642.6,312.2c-39,0.2-77.7,0.6-110.3,0.9c-4.1,0-7.5,3.4-7.4,7.6    c0,4.1,3.4,7.4,7.5,7.4c0,0,0.1,0,0.1,0c30.6-0.3,66.5-0.6,102.9-0.9c0,1.4-0.1,2.9-0.2,4.3c-0.2,4.2-0.5,8.5,0,13.4    c0.4,3.9,3.6,6.8,7.5,6.8c0.2,0,0.5,0,0.7,0c4.1-0.4,7.1-4.1,6.7-8.2c-0.4-3.7-0.2-7.3,0-11.1c0.2-4.2,0.5-8.5,0-13.4    C649.7,315.1,646.4,312.2,642.6,312.2z"/>
<path class="st7" d="M417.5,321.8c0-4.1-3.4-7.4-7.6-7.4c-39.1,0.4-73.7,0.7-105.6,0.9c-4.1,0-7.4,3.3-7.5,7.4c0,3.2,0,6.3,0,9.5    c0,2.8,0,5.7,0,8.5c0,4.1,3.3,7.5,7.5,7.5c0,0,0,0,0,0c4.1,0,7.5-3.3,7.5-7.5c0-2.9,0-5.8,0-8.6c0-0.6,0-1.3,0-1.9    c29.9-0.2,62.1-0.5,98.2-0.8C414.3,329.3,417.6,325.9,417.5,321.8z"/>
<path class="st7" d="M642.6,256.3c-123.1,0-212.1,0-338.2,0.7c-2.1,0-4.1,0.9-5.5,2.5c-1.4,1.6-2.1,3.6-1.9,5.7    c0.3,3.6,0.2,7.3,0,11.3c-0.2,4.3-0.4,8.8,0,13.4c0.4,4.1,4,7.2,8.2,6.8c4.1-0.4,7.2-4,6.8-8.2c-0.3-3.6-0.2-7.3,0-11.3    c0.1-1.7,0.2-3.5,0.2-5.2c119.6-0.7,206.3-0.7,323.1-0.7c0,1.8-0.1,3.7-0.1,5.6c-0.1,4.6-0.2,9.3,0,13.8c0.2,4,3.5,7.1,7.5,7.1    c0.1,0,0.3,0,0.4,0c4.1-0.2,7.3-3.7,7.1-7.9c-0.2-4-0.1-8.2,0-12.7c0.1-4.6,0.2-9.3,0-13.8C649.9,259.5,646.6,256.3,642.6,256.3z"/>
<path class="st7" d="M574,477.5c0,4.1,3.4,7.5,7.5,7.5c0,0,0,0,0,0c22.4-0.1,42.3-0.2,61-0.2c2.1,0,4-0.9,5.5-2.4s2.1-3.5,2-5.6    c-0.2-2.9-0.1-6.4,0-9.9c0.1-3.8,0.2-7.7,0-11.2c-0.3-4.1-3.8-7.3-7.9-7c-4.1,0.3-7.3,3.8-7,7.9c0.2,2.9,0.1,6.4,0,9.9    c0,1.1-0.1,2.2-0.1,3.3c-16.5,0-34.1,0.1-53.5,0.2C577.3,470,574,473.4,574,477.5z"/>
<path class="st7" d="M296.9,479.6c0,2,0.8,3.9,2.2,5.3c1.4,1.4,3.3,2.2,5.3,2.2c0,0,0,0,0,0c18.8,0,38.5-0.1,58.6-0.2    c4.1,0,7.5-3.4,7.5-7.5c0-4.1-3.4-7.5-7.5-7.5c0,0,0,0-0.1,0c-17.4,0.1-34.5,0.2-51,0.2v-11.5c0-4.1-3.4-7.5-7.5-7.5    s-7.5,3.4-7.5,7.5V479.6z"/>
<path class="st7" d="M516.3,532c0,4.1,3.4,7.4,7.5,7.4c0,0,0.1,0,0.1,0c43.9-0.5,80.6-1.6,119.1-3.6c2.1-0.1,4-1.1,5.3-2.6    s2-3.6,1.7-5.7c-0.3-2.4-0.1-4.8,0-7.4c0.2-3,0.4-6.3,0-10c-0.5-4.1-4.2-7.1-8.3-6.6c-4.1,0.5-7.1,4.2-6.6,8.3    c0.3,2.4,0.1,4.8,0,7.4c0,0.6-0.1,1.3-0.1,2c-35.7,1.7-70.3,2.7-111.3,3.2C519.5,524.4,516.2,527.8,516.3,532z"/>
<path class="st7" d="M296.9,535c0.2,4,3.5,7.1,7.5,7.1c0.1,0,0.2,0,0.2,0c36.2-1.1,71-1.7,112.7-2c4.1,0,7.5-3.4,7.4-7.6    c0-4.1-3.4-7.4-7.5-7.4c0,0,0,0-0.1,0c-38.9,0.3-71.8,0.8-105.4,1.8c0-0.9,0-1.9,0.1-2.8c0.1-3.6,0.2-7.4,0-11.2    c-0.2-4.1-3.8-7.3-7.9-7.1c-4.1,0.2-7.3,3.7-7.1,7.9c0.2,3.2,0.1,6.5,0,10C296.8,527.3,296.7,531.1,296.9,535z"/>
<path class="st7" d="M650,565.2c-0.6-4.1-4.4-6.9-8.5-6.3c-4.1,0.6-6.9,4.4-6.3,8.5c0.3,2.2,0.1,5.6-0.1,8.8    c-0.1,1.1-0.1,2.2-0.2,3.4c-54.5,0.8-108,1.6-161.5,2.4c-53.5,0.8-107.1,1.6-161.6,2.4c0-1.3,0.1-2.6,0.1-4c0.1-4,0.2-8.1,0-12.3    c-0.2-4.1-3.7-7.3-7.8-7.1c-4.1,0.2-7.3,3.7-7.1,7.8c0.2,3.7,0.1,7.4,0,11.3c-0.1,4-0.2,8.1,0,12.3c0.2,4,3.5,7.1,7.5,7.1    c0,0,0.1,0,0.1,0c57.1-0.8,113.1-1.7,169.1-2.5c56-0.8,112-1.7,169.1-2.5c2.2,0,4.2-1,5.6-2.6c1.4-1.6,2-3.8,1.7-5.9    c-0.3-2.2-0.1-5.6,0.1-8.8C650.3,573,650.6,568.9,650,565.2z"/>
<path class="st7" d="M204.4,469.3c4.1,0,7.5-3.3,7.5-7.4c0-4.1-3.3-7.5-7.4-7.6c-10.1-0.1-20.8-0.2-31.1-0.2    c-18.9-0.1-38.4-0.1-56.5-0.7c-6.2-10.2-7.5-22.6-7.5-31.5l0-1.4c0.1-9.8,0.1-20.7,8.2-29.8c8.3-1.2,42.8-1.2,66.1-1.2    c7.1,0,14.1,0,20.6,0c4.1,0,7.5-3.4,7.5-7.5c0-4.1-3.4-7.5-7.5-7.5c0,0,0,0,0,0c-6.5,0-13.4,0-20.5,0c-60.7-0.1-69.9,0.6-74,3.1    c-0.5,0.3-1,0.7-1.4,1.1c-13.8,13.7-13.9,30.6-13.9,41.7l0,1.4c-0.1,12.1,2,29.4,12.4,43.5c1.4,1.8,3.5,3,5.8,3    c19.3,0.6,40.4,0.7,60.8,0.8C184.1,469.1,194.3,469.2,204.4,469.3C204.3,469.3,204.3,469.3,204.4,469.3z"/>
<path class="st7" d="M705,639.7c4.1,0,7.5-3.3,7.5-7.4c0.4-62.4,0.9-128.7,1.3-195.2c0.5-72.8,1-145.9,1.4-214.2    c0-4.1-3.3-7.5-7.4-7.6c0,0,0,0-0.1,0c-4.1,0-7.5,3.3-7.5,7.4c-0.5,68.3-1,141.4-1.4,214.2c-0.4,66.5-0.9,132.8-1.3,195.2    C697.5,636.3,700.8,639.7,705,639.7C704.9,639.7,705,639.7,705,639.7z"/>
<path class="st7" d="M711.1,675.4c-60.8,0.7-122.9,1.4-184.9,2.1c-62.1,0.7-124.1,1.4-184.9,2.1c-4.1,0-7.5,3.4-7.4,7.6    c0,4.1,3.4,7.4,7.5,7.4c0,0,0.1,0,0.1,0c60.8-0.7,122.9-1.4,184.9-2.1c62.1-0.7,124.1-1.4,184.9-2.1c4.1,0,7.5-3.4,7.4-7.6    S715.2,675.3,711.1,675.4z"/>
<path class="st7" d="M206.2,585.6c10.6,26.7,23.3,35.3,38.7,43.7c0.1,0,0.2,0.1,0.3,0.1c13.7,6.8,29,7.7,42.5,8.4    c24.9,1.4,49.5,2.4,75.2,3.1c0.1,0,0.1,0,0.2,0c4,0,7.4-3.2,7.5-7.3c0.1-4.1-3.1-7.6-7.3-7.7c-25.6-0.7-50-1.7-74.8-3.1    c-12.6-0.7-25.6-1.4-36.5-6.8c-13.9-7.6-23-13.9-31.8-36c-1.5-3.8-5.9-5.7-9.7-4.2C206.5,577.4,204.6,581.8,206.2,585.6z"/>
<path class="st7" d="M858.1,349.3c-4.1-0.1-7.6,3.1-7.7,7.3c-0.9,29-0.7,52.7-0.5,75.5c0.2,22.7,0.4,46.2-0.5,75    c-1.1,37.8-4.7,79.9-32.9,101.9c-20.3,15.8-37.5,15.7-63.6,15.6c-1.1,0-2.3,0-3.4,0c-4.7-127.4-5.5-273.4-2-402    c0.1-4.1-3.2-7.6-7.3-7.7c-4.1-0.1-7.6,3.2-7.7,7.3c-3.5,131.4-2.7,280.9,2.3,410.2c0,0.1,0.3,6.9,7.5,7.2c0,0,0,0,0,0    c0,0,0,0,0,0c3.6,0,7.1,0,10.5,0c2.3,0,4.6,0,6.8,0c24,0,43.8-1.4,66.1-18.8c33.3-26,37.4-72.1,38.6-113.3    c0.9-29,0.7-52.7,0.5-75.5c-0.2-22.7-0.4-46.2,0.5-75C865.5,352.9,862.3,349.5,858.1,349.3z"/>
</g>
</g>
<g class="st0" id="colored_x5F_line">
<g class="st2">
<path class="st9" d="M823.5,239.8c-23.4-17.6-55.2-17.9-84.5-17.4l3.4,409.7c27.9,0.1,57.6-0.6,78.9-17.2    c30.8-24.1,34.6-68.5,35.8-107.6c1.7-57.7-0.8-92.8,0.9-150.5C859.2,314.5,857.3,265.3,823.5,239.8z"/>
<path class="st9" d="M706.8,632.2l0.8-409.4c-140.3,1.5-280.5-1.9-420.8,0.4c-19.9,0.3-47.3,1.5-61.5,15.4    C210.6,253,205.2,276,205,296.6c-0.5,60.5-1.6,102.8-0.4,183.5c0.9,66.5-3.9,118.7,43.9,142.6c12.1,6,26,6.9,39.5,7.6    C431.1,638.1,550.6,633.3,706.8,632.2z M448,518c-5.4-2.3-4.2-8.8-3.4-14.9c-4-1.5-7.9-3.2-11.7-5.2    c-26.6-14.1-45.6-42.1-47.8-72.1c-4.2-58.2,48.2-94.2,98.7-89.7c3.9-6.7,7.3-13.3,13.3-12c5.7,1.3,5.8,8.2,5.3,15.6    c11.9,3.6,23.4,9.7,33.4,18.5c26.9,23.8,36.1,65.6,21.6,98.5c-9.9,22.5-29.8,40.2-53.2,47.8c-13,4.2-26.9,5.3-40.4,3.5    C460.2,514.7,454.4,520.1,448,518z"/>
<path class="st5" d="M597.8,429.6l44.9-0.7c4.1-0.1,7.4-3.5,7.4-7.6c-0.1-4.1-3.4-7.5-7.6-7.4l-44.9,0.7c-4.1,0.1-7.4,3.5-7.4,7.6    c0.1,4.1,3.4,7.4,7.5,7.4C597.7,429.6,597.7,429.6,597.8,429.6z"/>
<path class="st5" d="M349.2,418.3l-44.9,0.7c-4.1,0.1-7.4,3.5-7.4,7.6c0.1,4.1,3.4,7.4,7.5,7.4c0,0,0.1,0,0.1,0l44.9-0.7    c4.1-0.1,7.4-3.5,7.4-7.6c-0.1-4.1-3.4-7.4-7.5-7.4C349.3,418.3,349.2,418.3,349.2,418.3z"/>
<path class="st5" d="M650.1,381.3c-0.2-2.8-0.3-5.4,0-7.9c0.3-2.1-0.4-4.3-1.9-5.9c-1.4-1.6-3.5-2.5-5.7-2.5    c-17.8,0.2-35.7,0.4-53.7,0.6c-4.1,0-7.5,3.4-7.4,7.6c0,4.1,3.4,7.4,7.5,7.4c0,0,0.1,0,0.1,0c15.4-0.2,30.7-0.3,45.9-0.5    c0,0.7,0.1,1.4,0.1,2.1c0.2,2.8,0.3,5.4,0,7.9c-0.5,4.1,2.5,7.8,6.6,8.3c0.3,0,0.6,0.1,0.9,0.1c3.7,0,7-2.8,7.4-6.6    C650.5,388,650.3,384.4,650.1,381.3z"/>
<path class="st5" d="M358.8,383.3c4.1,0,7.5-3.4,7.4-7.6c0-4.1-3.4-7.4-7.5-7.4c0,0-0.1,0-0.1,0l-1.8,0    c-17.6,0.2-35.1,0.4-52.5,0.6c-4.1,0-7.4,3.4-7.4,7.5v19.1c0,4.1,3.4,7.5,7.5,7.5s7.5-3.4,7.5-7.5v-11.7c15-0.2,30-0.3,45.1-0.5    L358.8,383.3z"/>
<path class="st5" d="M650,319c-0.4-3.8-3.6-6.8-7.5-6.8c0,0,0,0,0,0c-39,0.2-77.6,0.6-110.3,0.9c-4.1,0-7.5,3.4-7.4,7.6    c0,4.1,3.4,7.4,7.5,7.4c0,0,0.1,0,0.1,0c30.6-0.3,66.5-0.6,102.9-0.9c0,1.4-0.1,2.9-0.2,4.3c-0.2,4.2-0.5,8.5,0,13.4    c0.4,3.9,3.6,6.8,7.5,6.8c0.2,0,0.5,0,0.7,0c4.1-0.4,7.1-4.1,6.7-8.2c-0.4-3.7-0.2-7.3,0-11.1C650.3,328.2,650.5,323.8,650,319z"/>
<path class="st5" d="M417.5,321.8c0-4.1-3.4-7.4-7.6-7.4c-39.1,0.4-73.7,0.7-105.6,0.9c-4.1,0-7.4,3.3-7.5,7.4c0,3.2,0,6.3,0,9.5    c0,2.8,0,5.7,0,8.5c0,4.1,3.3,7.5,7.5,7.5c0,0,0,0,0,0c4.1,0,7.5-3.3,7.5-7.5c0-2.9,0-5.8,0-8.6c0-0.6,0-1.3,0-1.9    c29.9-0.2,62.1-0.5,98.2-0.8C414.3,329.3,417.6,325.9,417.5,321.8z"/>
<path class="st5" d="M296.9,290c0.4,4.1,4,7.2,8.2,6.8c4.1-0.4,7.2-4,6.8-8.2c-0.3-3.6-0.2-7.3,0-11.3c0.1-1.7,0.2-3.5,0.2-5.2    c119.6-0.7,206.3-0.7,323.1-0.7c0,1.8-0.1,3.7-0.1,5.6c-0.1,4.6-0.2,9.3,0,13.8c0.2,4,3.5,7.1,7.5,7.1c0.1,0,0.3,0,0.4,0    c4.1-0.2,7.3-3.7,7.1-7.9c-0.2-4-0.1-8.2,0-12.7c0.1-4.6,0.2-9.3,0-13.8c-0.2-4-3.5-7.1-7.5-7.1c-123.1,0-212.1,0-338.2,0.7    c-2.1,0-4.1,0.9-5.5,2.5c-1.4,1.6-2.1,3.6-1.9,5.7c0.3,3.6,0.2,7.3,0,11.3C296.7,280.9,296.5,285.3,296.9,290z"/>
<path class="st5" d="M574,477.5c0,4.1,3.4,7.5,7.5,7.5c0,0,0,0,0,0c22.4-0.1,42.3-0.2,61-0.2c2.1,0,4-0.9,5.5-2.4s2.1-3.5,2-5.6    c-0.2-2.9-0.1-6.4,0-9.9c0.1-3.8,0.2-7.7,0-11.2c-0.3-4.1-3.8-7.3-7.9-7c-4.1,0.3-7.3,3.8-7,7.9c0.2,2.9,0.1,6.4,0,9.9    c0,1.1-0.1,2.2-0.1,3.3c-16.5,0-34.1,0.1-53.5,0.2C577.3,470,574,473.4,574,477.5z"/>
<path class="st5" d="M296.9,479.6c0,2,0.8,3.9,2.2,5.3c1.4,1.4,3.3,2.2,5.3,2.2c0,0,0,0,0,0c18.8,0,38.5-0.1,58.6-0.2    c4.1,0,7.5-3.4,7.5-7.5c0-4.1-3.4-7.5-7.5-7.5c0,0,0,0-0.1,0c-17.4,0.1-34.5,0.2-51,0.2v-11.5c0-4.1-3.4-7.5-7.5-7.5    s-7.5,3.4-7.5,7.5V479.6z"/>
<path class="st5" d="M650,510.1c-0.5-4.1-4.2-7.1-8.3-6.6c-4.1,0.5-7.1,4.2-6.6,8.3c0.3,2.4,0.1,4.8,0,7.4c0,0.6-0.1,1.3-0.1,2    c-35.7,1.7-70.3,2.7-111.3,3.2c-4.1,0-7.5,3.4-7.4,7.6c0,4.1,3.4,7.4,7.5,7.4c0,0,0.1,0,0.1,0c43.9-0.5,80.6-1.6,119.1-3.6    c2.1-0.1,4-1.1,5.3-2.6s2-3.6,1.7-5.7c-0.3-2.4-0.1-4.8,0-7.4C650.2,517.1,650.4,513.7,650,510.1z"/>
<path class="st5" d="M296.9,535c0.2,4,3.5,7.1,7.5,7.1c0.1,0,0.2,0,0.2,0c36.2-1.1,71-1.7,112.7-2c4.1,0,7.5-3.4,7.4-7.6    c0-4.1-3.4-7.4-7.5-7.4c0,0,0,0-0.1,0c-38.9,0.3-71.8,0.8-105.4,1.8c0-0.9,0-1.9,0.1-2.8c0.1-3.6,0.2-7.4,0-11.2    c-0.2-4.1-3.8-7.3-7.9-7.1c-4.1,0.2-7.3,3.7-7.1,7.9c0.2,3.2,0.1,6.5,0,10C296.8,527.3,296.7,531.1,296.9,535z"/>
<path class="st5" d="M304.4,599.4c0,0,0.1,0,0.1,0c57.1-0.8,113.1-1.7,169.1-2.5c56-0.8,112-1.7,169.1-2.5c2.2,0,4.2-1,5.6-2.6    c1.4-1.6,2-3.8,1.7-5.9c-0.3-2.2-0.1-5.6,0.1-8.8c0.2-4,0.5-8.1-0.1-11.8c-0.6-4.1-4.4-6.9-8.5-6.3c-4.1,0.6-6.9,4.4-6.3,8.5    c0.3,2.2,0.1,5.6-0.1,8.8c-0.1,1.1-0.1,2.2-0.2,3.4c-54.5,0.8-108,1.6-161.5,2.4c-53.5,0.8-107.1,1.6-161.6,2.4    c0-1.3,0.1-2.6,0.1-4c0.1-4,0.2-8.1,0-12.3c-0.2-4.1-3.7-7.3-7.8-7.1c-4.1,0.2-7.3,3.7-7.1,7.8c0.2,3.7,0.1,7.4,0,11.3    c-0.1,4-0.2,8.1,0,12.3C297.1,596.3,300.4,599.4,304.4,599.4z"/>
<path class="st5" d="M112.5,468.3c19.3,0.6,40.4,0.7,60.8,0.8c10.8,0,21,0.1,31,0.2c0,0,0.1,0,0.1,0c4.1,0,7.5-3.3,7.5-7.4    c0-4.1-3.3-7.5-7.4-7.6c-10.1-0.1-20.8-0.2-31.1-0.2c-18.9-0.1-38.4-0.1-56.5-0.7c-6.2-10.2-7.5-22.6-7.5-31.5l0-1.4    c0.1-9.8,0.1-20.7,8.2-29.8c8.3-1.2,42.8-1.2,66.1-1.2c7.1,0,14.1,0,20.6,0c4.1,0,7.5-3.4,7.5-7.5c0-4.1-3.4-7.5-7.5-7.5    c0,0,0,0,0,0c-6.5,0-13.4,0-20.5,0c-60.7-0.1-69.9,0.6-74,3.1c-0.5,0.3-1,0.7-1.4,1.1c-13.8,13.7-13.9,30.6-13.9,41.7l0,1.4    c-0.1,12.1,2,29.4,12.4,43.5C108.1,467.1,110.2,468.2,112.5,468.3z"/>
<path class="st5" d="M435.4,509.5c-2.5,6.3-0.2,13.2,5.5,16.8c2.3,1.4,4.9,2.1,7.4,2.1c3.7,0,7.4-1.6,10.1-4.5    c33.5-36.7,56.8-63.9,93.4-107.4c3.5-4.2,4.2-9.9,1.9-14.8c-2.3-4.9-7.2-7.9-12.7-7.9c-5.5,0.1-10.2,0.2-14.3,0.3    c-9.4,0.2-16.7,0.4-27.2,0c1.3-8.1,4.2-25.6,11.3-63.3c1.2-6.5-2.2-12.8-8.4-15.3c-6.1-2.5-13-0.4-16.7,5.1    c-18,26.9-50.9,75.8-69,101.1c-3,4.3-3.4,9.8-1,14.4c2.4,4.6,7.2,7.4,12.4,7.4h0c4.7-0.1,9-0.2,13.1-0.3c6.4-0.2,12.5-0.4,20-0.3    c-4.3,10.5-8.9,22.5-13.6,34.9C443.8,488,439.8,498.6,435.4,509.5z M461.7,483.1c6.3-16.6,12.3-32.3,17.7-44.5    c1-2.3,0.8-4.9-0.5-7c-1.3-2.1-3.6-3.4-6.1-3.5c-5.3-0.2-9.9-0.2-14.2-0.2c-6.6,0-12.2,0.2-17.8,0.3c-3.4,0.1-6.8,0.2-10.5,0.3    c17.3-24.4,46.5-67.8,64.6-94.7c-3.1,16.6-5.6,30.4-7.4,41c-1.3,7.6-2.3,13.6-3,17.8c-1.2,7.7-1.6,10.3,0.7,13.2    c1.3,1.7,3.4,2.8,5.5,2.9c15.7,0.9,24.3,0.7,36.3,0.4c3.4-0.1,7.2-0.2,11.6-0.2c-33.9,40.3-56.4,66.6-86.9,100.2    C455.2,500.1,458.5,491.5,461.7,483.1z"/>
<path class="st5" d="M742.4,639.6c0.1,0,0.2,0,0.3,0c4.1-0.2,7.4-3.6,7.2-7.8c-5-129-5.8-278.2-2.3-409.3c0.1-4.1-3.2-7.6-7.3-7.7    c-4.1-0.1-7.6,3.2-7.7,7.3c-3.5,131.4-2.7,280.9,2.3,410.2C735,636.4,738.4,639.6,742.4,639.6z"/>
<path class="st5" d="M333.8,687.2c0,4.1,3.4,7.4,7.5,7.4c0,0,0.1,0,0.1,0c60.8-0.7,122.9-1.4,184.9-2.1    c62.1-0.7,124.1-1.4,184.9-2.1c4.1,0,7.5-3.4,7.4-7.6s-3.5-7.5-7.6-7.4c-60.8,0.7-122.9,1.4-184.9,2.1    c-62.1,0.7-124.1,1.4-184.9,2.1C337.1,679.6,333.8,683,333.8,687.2z"/>
<path class="st5" d="M242.8,737.9c0,2,0.9,3.9,2.4,5.3c1.4,1.3,3.2,2,5.1,2c0.1,0,0.2,0,0.3,0c86-3.5,157.1-3,232.3-2.5    c92,0.6,187.2,1.2,315.4-5.7c3.9-0.2,7-3.4,7.1-7.4c0.2-9.9,0-16.5-0.1-22.9c-0.1-6.2-0.3-12.7-0.1-22.4c0-2.3-1-4.5-2.7-5.9    c-12.4-10.2-28.9-18.2-46.3-26.7c-14.4-7-29.2-14.3-43.6-23.5c0.4-61.2,0.8-126.1,1.3-191.2c0.5-72.8,1-145.9,1.4-214.2    c0-4.1-3.3-7.5-7.4-7.6c0,0,0,0-0.1,0c-4.1,0-7.5,3.3-7.5,7.4c-0.5,68.3-1,141.4-1.4,214.2c-0.4,66-0.9,131.9-1.3,193.9    c-0.1,0.4-0.1,0.9-0.1,1.3c0,2.7,1.4,5,3.5,6.3c16.2,10.8,33.4,19.2,48.6,26.6c15.3,7.5,29.8,14.6,40.6,22.7    c-0.1,7.9,0,13.6,0.1,19.2c0.1,4.6,0.2,9.3,0.2,15.4c-124.2,6.5-217.3,5.9-307.4,5.3c-73.2-0.5-142.4-0.9-225.4,2.2    c-0.1-5-0.2-9.6-0.3-14.2c-0.1-5.7-0.3-11.4-0.4-17.7c15.9-10.1,35.4-19.9,54.4-29.3c18.6-9.3,37.9-18.9,54-29    c3.5-2.2,4.6-6.8,2.4-10.3c-2.2-3.5-6.8-4.6-10.3-2.4c-15.5,9.7-34.5,19.2-52.8,28.3c-20.7,10.4-42.2,21.1-59.4,32.5    c-2.1,1.4-3.4,3.8-3.4,6.4c0.2,8,0.3,15,0.5,21.9C242.4,723,242.6,729.9,242.8,737.9z"/>
</g>
</g>
</svg>