<svg xmlns:xlink="http://www.w3.org/1999/xlink" xml:space="preserve" xmlns="http://www.w3.org/2000/svg" version="1.1" height="111.48999999999999" xmlns:atv="http://webmi.atvise.com/2007/svgext" width="75.900000000000006" enable-background="new 0 0 76.464 112.5">
 <defs>
  <linearGradient gradientUnits="objectBoundingBox" id="SVGID_1_" x1="-1.34956e-05" x2="0.999995" y1="0.499998" y2="0.499998">
   <stop offset="0.01" stop-color="#595959"/>
   <stop offset="0.5" stop-color="#E0E0E0"/>
   <stop offset="1" stop-color="#595959"/>
  </linearGradient>
  <linearGradient gradientUnits="objectBoundingBox" id="SVGID_2_" x1="0.499893" x2="0.499893" y1="0.999955" y2="0.000363306">
   <stop offset="0.01" stop-color="#595959"/>
   <stop offset="0.5" stop-color="#E0E0E0"/>
   <stop offset="1" stop-color="#595959"/>
  </linearGradient>
  <linearGradient gradientUnits="objectBoundingBox" id="SVGID_4_" x1="0.499898" x2="0.499898" y1="0.999819" y2="0.000241692">
   <stop offset="0.01" stop-color="#666666"/>
   <stop offset="0.51" stop-color="#E0E0E0"/>
   <stop offset="1" stop-color="#666666"/>
  </linearGradient>
  <linearGradient gradientUnits="objectBoundingBox" id="SVGID_5_" x1="1.00025" x2="4.42706e-15" y1="0.499878" y2="0.499878">
   <stop offset="0.01" stop-color="#666666"/>
   <stop offset="0.51" stop-color="#E0E0E0"/>
   <stop offset="1" stop-color="#666666"/>
  </linearGradient>
  <linearGradient gradientUnits="objectBoundingBox" id="SVGID_6_" x1="-0.000309023" x2="0.999815" y1="0.500001" y2="0.500001">
   <stop offset="0.01" stop-color="#666666"/>
   <stop offset="0.51" stop-color="#E0E0E0"/>
   <stop offset="1" stop-color="#666666"/>
  </linearGradient>
  <linearGradient gradientUnits="objectBoundingBox" id="SVGID_7_" x1="0.500062" x2="0.500062" y1="1.00043" y2="0.000309026">
   <stop offset="0.01" stop-color="#666666"/>
   <stop offset="0.51" stop-color="#E0E0E0"/>
   <stop offset="1" stop-color="#666666"/>
  </linearGradient>
  <linearGradient gradientUnits="objectBoundingBox" id="SVGID_8_" x1="0.500035" x2="0.500035" y1="1.00012" y2="2.37467e-09">
   <stop offset="0.01" stop-color="#4D4D4D"/>
   <stop offset="0.51" stop-color="#B2B2B2"/>
   <stop offset="1" stop-color="#4D4D4D"/>
  </linearGradient>
  <radialGradient cx="0.059528" cy="0.945028" fx="0.059528" fy="0.945028" gradientUnits="objectBoundingBox" id="SVGID_3_" r="0.995749">
   <stop offset="0" stop-color="#595959"/>
   <stop offset="0.08" stop-color="#666666"/>
   <stop offset="0.22" stop-color="#888888"/>
   <stop offset="0.41" stop-color="#BEBEBE"/>
   <stop offset="0.52" stop-color="#E0E0E0"/>
   <stop offset="0.64" stop-color="#C3C3C3"/>
   <stop offset="0.89" stop-color="#787878"/>
   <stop offset="1" stop-color="#545454"/>
  </radialGradient>
 </defs>
 <metadata>
  <atv:gridconfig enabled="false" gridstyle="lines" height="20" width="20"/>
  <atv:snapconfig enabled="false" height="10" width="10"/>
 </metadata>
 <g atv:refpx="38.795" atv:refpy="55.744" id="Group_Handling_Unit" transform="matrix(1,0,0,1,0,-0.45)">
  <path atv:refpx="10.98" atv:refpy="56.194" d="M1.689,109.572L20.271,111.937L20.271,0.45L1.689,2.815Z" fill="#7F7F7F" id="id_0"/>
  <path atv:refpx="66.611" atv:refpy="56.194" d="M75.901,109.572L57.319,111.937L57.319,0.45L75.901,2.815Z" fill="#4C4C4C" id="id_1"/>
  <path atv:refpx="38.796" atv:refpy="56.194" d="M57.32,111.938L20.271,111.938L20.271,0.45L57.32,0.45Z" fill="url(#SVGID_1_)" id="id_2"/>
  <path atv:refpx="38.796" atv:refpy="55.011" d="M57.32,2.815L20.271,2.815L20.271,107.207L57.32,107.207Z" fill="#E5E5E5" id="id_3"/>
  <path atv:refpx="10.98" atv:refpy="55.011" d="M1.689,104.955L20.271,107.207L20.271,2.815L1.689,5.18Z" fill="#CCCCCC" id="id_4"/>
  <path atv:refpx="66.611" atv:refpy="55.011" d="M75.901,104.955L57.319,107.207L57.319,2.815L75.901,5.18Z" fill="#999999" id="id_5"/>
 </g>
 <g atv:refpx="56.594" atv:refpy="46.911" id="Group_Vents" transform="matrix(1,0,0,1,0,-0.45)">
  <path atv:refpx="67.173" atv:refpy="20.89" d="M62.387,20.271L71.959,21.509" fill="none" id="id_6" stroke="#4C4C4C" stroke-width="0.25"/>
  <path atv:refpx="67.23" atv:refpy="24.043" d="M62.387,23.536L72.072,24.55" fill="none" id="id_7" stroke="#4C4C4C" stroke-width="0.25"/>
  <path atv:refpx="67.23" atv:refpy="27.252" d="M62.387,26.802L72.072,27.703" fill="none" id="id_8" stroke="#4C4C4C" stroke-width="0.25"/>
  <path atv:refpx="67.23" atv:refpy="30.405" d="M62.387,29.955L72.072,30.855" fill="none" id="id_9" stroke="#4C4C4C" stroke-width="0.25"/>
  <path atv:refpx="67.23" atv:refpy="33.615" d="M62.387,33.221L72.072,34.008" fill="none" id="id_10" stroke="#4C4C4C" stroke-width="0.25"/>
  <path atv:refpx="67.23" atv:refpy="36.824" d="M62.387,36.486L72.072,37.162" fill="none" id="id_11" stroke="#4C4C4C" stroke-width="0.25"/>
  <path atv:refpx="67.23" atv:refpy="39.922" d="M62.387,39.64L72.072,40.203" fill="none" id="id_12" stroke="#4C4C4C" stroke-width="0.25"/>
  <path atv:refpx="67.23" atv:refpy="43.13" d="M62.387,42.905L72.072,43.356" fill="none" id="id_13" stroke="#4C4C4C" stroke-width="0.25"/>
  <path atv:refpx="67.23" atv:refpy="46.34" d="M62.387,46.171L72.072,46.509" fill="none" id="id_14" stroke="#4C4C4C" stroke-width="0.25"/>
  <path atv:refpx="67.23" atv:refpy="49.549" d="M62.387,49.437L72.072,49.662" fill="none" id="id_15" stroke="#4C4C4C" stroke-width="0.25"/>
  <path atv:refpx="67.23" atv:refpy="53.203" d="M62.387,52.703L72.072,52.703" fill="none" id="id_16" stroke="#4C4C4C" stroke-width="0.25"/>
  <path atv:refpx="67.23" atv:refpy="55.912" d="M62.387,55.968L72.072,55.856" fill="none" id="id_17" stroke="#4C4C4C" stroke-width="0.25"/>
  <path atv:refpx="67.23" atv:refpy="59.065" d="M62.387,59.121L72.072,59.009" fill="none" id="id_18" stroke="#4C4C4C" stroke-width="0.25"/>
  <path atv:refpx="67.23" atv:refpy="62.275" d="M62.387,62.387L72.072,62.162" fill="none" id="id_19" stroke="#4C4C4C" stroke-width="0.25"/>
  <path atv:refpx="67.23" atv:refpy="65.428" d="M62.387,65.653L72.072,65.203" fill="none" id="id_20" stroke="#4C4C4C" stroke-width="0.25"/>
  <path atv:refpx="67.23" atv:refpy="68.637" d="M62.387,68.919L72.072,68.356" fill="none" id="id_21" stroke="#4C4C4C" stroke-width="0.25"/>
  <path atv:refpx="67.23" atv:refpy="71.847" d="M62.387,72.185L72.072,71.509" fill="none" id="id_22" stroke="#4C4C4C" stroke-width="0.25"/>
  <path atv:refpx="67.23" atv:refpy="75" d="M62.387,75.338L72.072,74.661" fill="none" id="id_23" stroke="#4C4C4C" stroke-width="0.25"/>
  <path atv:refpx="67.23" atv:refpy="78.21" d="M62.387,78.604L72.072,77.816" fill="none" id="id_24" stroke="#4C4C4C" stroke-width="0.25"/>
  <path atv:refpx="67.23" atv:refpy="81.419" d="M62.387,81.869L72.072,80.969" fill="none" id="id_25" stroke="#4C4C4C" stroke-width="0.25"/>
  <path atv:refpx="67.23" atv:refpy="84.572" d="M62.387,85.135L72.072,84.009" fill="none" id="id_26" stroke="#4C4C4C" stroke-width="0.25"/>
  <path atv:refpx="67.173" atv:refpy="87.781" d="M62.387,88.4L71.959,87.162" fill="none" id="id_27" stroke="#4C4C4C" stroke-width="0.25"/>
  <path atv:refpx="45.777" atv:refpy="18.468" d="M41.103,6.306L41.103,30.631L50.451,30.631" fill="none" id="id_28" stroke="#B2B2B2" stroke-width="0.25"/>
 </g>
 <g atv:refpx="38.795" atv:refpy="53.435" id="Group_Display" transform="matrix(1,0,0,1,0,-0.45)">
  <path atv:refpx="38.794" atv:refpy="88.683" d="M22.522,72.41L55.067,72.41L55.067,104.955L22.522,104.955Z" fill="#666666" id="id_29"/>
  <path atv:refpx="38.852" atv:refpy="88.626" d="M55.068,72.41L55.068,104.842L22.635,104.842L23.198,104.279L54.504,104.279L54.504,72.973Z" fill="#FFFFFF" id="id_30"/>
  <path atv:refpx="38.794" atv:refpy="88.683" d="M22.522,104.955L22.522,72.41L55.067,72.41L54.504,72.973L23.085,72.973L23.085,104.28Z" fill="#3D3D3D" id="id_31"/>
  <path atv:refpx="26.013" atv:refpy="66.611" d="M22.522,64.302L29.503,64.302L29.503,68.919L22.522,68.919Z" fill="#FFFFFF" id="id_32"/>
  <path atv:refpx="44.595" atv:refpy="47.522" d="M38.739,46.959L50.45,46.959L50.45,48.085L38.739,48.085Z" fill="#999999" id="id_33"/>
  <path atv:refpx="40.822" atv:refpy="84.291" d="M28.941,77.027L52.702,77.027L52.702,91.554L28.941,91.554Z" fill="#7F7F7F" id="id_34"/>
  <path atv:refpx="40.822" atv:refpy="84.009" d="M35.36,77.027L46.283,77.027L46.283,90.991L35.36,90.991Z" fill="#4C4C4C" id="id_35"/>
  <path atv:refpx="31.532" atv:refpy="66.611" d="M33.559,64.302L29.504,64.302L29.504,68.919L33.559,68.919Z" fill="#4C4C4C" id="id_36"/>
  <path atv:refpx="44.594" atv:refpy="4.561" d="M41.103,6.306L48.085,6.306L48.085,2.815L41.103,2.815Z" fill="#7F7F7F" id="id_37"/>
 </g>
 <g atv:refpx="67.223" atv:refpy="53.885" id="Group_Vent_Lever" transform="matrix(1,0,0,1,0,-0.45)">
  <path atv:refpx="67.23" atv:refpy="78.153" d="M63.739,80.518L70.72,79.842L70.72,75.788L63.739,76.464Z" fill="#B2B2B2" id="id_38"/>
  <path atv:refpx="67.23" atv:refpy="55.856" d="M63.739,53.941L70.72,53.829L70.72,57.883L63.739,57.883Z" fill="#B2B2B2" id="id_39"/>
  <path atv:refpx="67.23" atv:refpy="30.574" d="M63.739,28.153L70.72,28.941L70.72,32.995L63.739,32.205Z" fill="#B2B2B2" id="id_40"/>
  <path atv:refpx="67.23" atv:refpy="30.574" d="M63.739,28.153L70.72,28.941L70.72,32.995" fill="none" id="id_41" stroke="#4C4C4C" stroke-width="0.25"/>
  <path atv:refpx="67.23" atv:refpy="78.153" d="M63.739,80.518L70.72,79.842L70.72,75.788" fill="none" id="id_42" stroke="#4C4C4C" stroke-width="0.25"/>
  <path atv:refpx="67.23" atv:refpy="55.856" d="M63.739,53.941L70.72,53.829L70.72,57.883" fill="none" id="id_43" stroke="#4C4C4C" stroke-width="0.25"/>
 </g>
 <g atv:refpx="25.975" atv:refpy="38.5" id="Group_Pipes" transform="matrix(1,0,0,1,0,-0.45)">
  <path atv:refpx="51.15" atv:refpy="5.525" d="M50.684,4.424C51.201,4.424 51.616,4.917 51.616,5.526C51.616,6.133 51.201,6.626 50.684,6.626" fill="url(#SVGID_2_)" id="id_44"/>
  <path atv:refpx="50.983" atv:refpy="4.676" d="M51.923,5.66C51.923,4.699 51.294,3.688 50.046,3.688L50.042,5.359C50.261,5.393 50.314,5.49 50.327,5.654C50.748,5.674 51.923,5.66 51.923,5.66" fill="url(#SVGID_3_)" id="id_45"/>
  <rect atv:refpx="49.215" atv:refpy="4.516" fill="url(#SVGID_4_)" height="1.655" id="id_46" width="1.961" x="48.235" y="3.688"/>
  <rect atv:refpx="51.136" atv:refpy="6.466" fill="url(#SVGID_5_)" height="1.633" id="id_47" width="1.605" x="50.333" y="5.65"/>
  <rect atv:refpx="51.141" atv:refpy="40.748" fill="url(#SVGID_6_)" height="66.929" id="id_48" width="1.618" x="50.332" y="7.283"/>
  <rect atv:refpx="29.429" atv:refpy="43.497" fill="url(#SVGID_7_)" height="1.618" id="id_49" width="19.306" x="19.776" y="42.688"/>
  <rect atv:refpx="9.972" atv:refpy="43.538" fill="url(#SVGID_8_)" height="1.618" id="id_50" width="19.943" y="42.729"/>
  <path atv:refpx="10.023" atv:refpy="43.469" d="M19.595,44.032L0.451,44.032L0.451,42.906L19.595,42.906Z" fill="#999999" id="id_51" stroke="#4C4C4C" stroke-width="0.25"/>
 </g>
 <g atv:refpx="44.595" atv:refpy="43.019" id="Group_Pipe_Junction" transform="matrix(1,0,0,1,0,-0.45)">
  <path atv:refpx="44.595" atv:refpy="43.469" d="M38.739,39.978L50.45,39.978L50.45,46.96L38.739,46.96Z" fill="#CCCCCC" id="id_52" stroke="#4C4C4C" stroke-width="0.25"/>
 </g>
</svg>
