<?xml version='1.0' encoding='UTF-8' standalone='no'?>
<svg height="187.00999999999999" version="1.2" width="358" xmlns="http://www.w3.org/2000/svg" xmlns:atv="http://webmi.atvise.com/2007/svgext" xmlns:xlink="http://www.w3.org/1999/xlink">
 <desc>From Base Object v1.3
</desc>
 <defs>
  <linearGradient gradientUnits="objectBoundingBox" id="id_33_fill_gradient" spreadMethod="reflect" x1="0.0675676" x2="0.581081" y1="1" y2="1">
   <stop offset="0" stop-color="#999999"/>
   <stop offset="1" stop-color="#e5e5e5"/>
  </linearGradient>
  <linearGradient gradientUnits="objectBoundingBox" id="id_34_fill_gradient" spreadMethod="reflect" x1="-0.135135" x2="0.405405" y1="0.986486" y2="0.972973">
   <stop offset="0" stop-color="#999999"/>
   <stop offset="1" stop-color="#e5e5e5"/>
  </linearGradient>
  <linearGradient gradientUnits="objectBoundingBox" id="id_41_fill_gradient" spreadMethod="reflect" x1="-0.135135" x2="0.405405" y1="1" y2="0.972973">
   <stop offset="0" stop-color="#999999"/>
   <stop offset="1" stop-color="#e5e5e5"/>
  </linearGradient>
  <linearGradient gradientUnits="objectBoundingBox" id="id_42_fill_gradient" spreadMethod="reflect" x1="-0.135135" x2="0.405405" y1="0.986486" y2="0.972973">
   <stop offset="0" stop-color="#999999"/>
   <stop offset="1" stop-color="#e5e5e5"/>
  </linearGradient>
  <radialGradient cx="0.5" cy="0.5" fx="0.5" fy="0.5" gradientUnits="objectBoundingBox" id="id_42_stroke_gradient" r="1">
   <stop offset="0" stop-color="#000000"/>
   <stop offset="1" stop-color="#ffffff"/>
  </radialGradient>
  <linearGradient gradientUnits="objectBoundingBox" id="id_43_fill_gradient" spreadMethod="reflect" x1="-0.135135" x2="0.405405" y1="1" y2="0.972973">
   <stop offset="0" stop-color="#999999"/>
   <stop offset="1" stop-color="#e5e5e5"/>
  </linearGradient>
  <radialGradient cx="0.5" cy="0.5" fx="0.5" fy="0.5" gradientUnits="objectBoundingBox" id="id_44_fill_gradient" r="0.514579">
   <stop offset="0.6088709677419355" stop-color="#e4e4e4"/>
   <stop offset="1" stop-color="#9a9a9a"/>
  </radialGradient>
  <radialGradient cx="0.5" cy="0.5" fx="0.5" fy="0.5" gradientUnits="objectBoundingBox" id="id_7_fill_gradient" r="0.514579">
   <stop offset="0.6088709677419355" stop-color="#e4e4e4"/>
   <stop offset="1" stop-color="#9a9a9a"/>
  </radialGradient>
  <linearGradient gradientUnits="objectBoundingBox" id="linear_0" x1="0" x2="1" y1="0" y2="1">
   <stop offset="0" stop-color="#000000"/>
   <stop offset="1" stop-color="#000000" stop-opacity="0"/>
  </linearGradient>
  <linearGradient gradientUnits="objectBoundingBox" id="SVGID_10_" x1="0.499943" x2="0.499943" y1="1.00002" y2="-8.45845e-05">
   <stop offset="0.01" stop-color="#595959"/>
   <stop offset="0.5" stop-color="#EBEBEB"/>
   <stop offset="1" stop-color="#595959"/>
  </linearGradient>
  <linearGradient gradientUnits="objectBoundingBox" id="SVGID_11_" x1="0.499734" x2="0.499734" y1="1.00001" y2="-5.72902e-05">
   <stop offset="0.01" stop-color="#595959"/>
   <stop offset="0.5" stop-color="#EBEBEB"/>
   <stop offset="1" stop-color="#595959"/>
  </linearGradient>
  <linearGradient gradientUnits="objectBoundingBox" id="SVGID_12_" x1="-5.72902e-05" x2="0.999943" y1="0.499112" y2="0.499112">
   <stop offset="0" stop-color="#868686"/>
   <stop offset="0.5" stop-color="#EBEBEB"/>
   <stop offset="1" stop-color="#808080"/>
  </linearGradient>
  <linearGradient gradientUnits="objectBoundingBox" id="SVGID_13_" x1="0.000177541" x2="1.00013" y1="0.499989" y2="0.499989">
   <stop offset="0" stop-color="#868686"/>
   <stop offset="0.5" stop-color="#EBEBEB"/>
   <stop offset="1" stop-color="#808080"/>
  </linearGradient>
  <linearGradient gradientUnits="objectBoundingBox" id="SVGID_14_" x1="7.10404e-06" x2="0.999982" y1="0.499967" y2="0.499967">
   <stop offset="0.01" stop-color="#595959"/>
   <stop offset="0.5" stop-color="#EBEBEB"/>
   <stop offset="1" stop-color="#595959"/>
  </linearGradient>
  <linearGradient gradientUnits="objectBoundingBox" id="SVGID_15_" x1="0" x2="1.00011" y1="0.499996" y2="0.499996">
   <stop offset="0.01" stop-color="#595959"/>
   <stop offset="0.5" stop-color="#EBEBEB"/>
   <stop offset="1" stop-color="#595959"/>
  </linearGradient>
  <linearGradient gradientUnits="objectBoundingBox" id="SVGID_16_" x1="0.395972" x2="0.788571" y1="0.759433" y2="0.323258">
   <stop offset="0.01" stop-color="#595959"/>
   <stop offset="0.5" stop-color="#EBEBEB"/>
   <stop offset="1" stop-color="#595959"/>
  </linearGradient>
  <linearGradient gradientUnits="objectBoundingBox" id="SVGID_1_" x1="6.19579e-05" x2="1.00012" y1="0.5" y2="0.5">
   <stop offset="0" stop-color="#868686"/>
   <stop offset="0.5" stop-color="#EBEBEB"/>
   <stop offset="1" stop-color="#808080"/>
  </linearGradient>
  <radialGradient cx="0.500021" cy="0.500065" fx="0.500021" fy="0.500065" gradientUnits="objectBoundingBox" id="SVGID_2_" r="0.500011">
   <stop offset="0" stop-color="#E0E0E0"/>
   <stop offset="0.5" stop-color="#E0E0E0"/>
   <stop offset="1" stop-color="#595959"/>
  </radialGradient>
  <linearGradient gradientUnits="objectBoundingBox" id="SVGID_3_" x1="-2.08337e-07" x2="1" y1="0.499995" y2="0.499995">
   <stop offset="0.01" stop-color="#595959"/>
   <stop offset="0.5" stop-color="#E0E0E0"/>
   <stop offset="1" stop-color="#595959"/>
  </linearGradient>
  <linearGradient gradientUnits="objectBoundingBox" id="SVGID_4_" x1="0.499974" x2="0.499974" y1="0.999979" y2="-0.000126877">
   <stop offset="0.01" stop-color="#595959"/>
   <stop offset="0.5" stop-color="#EBEBEB"/>
   <stop offset="1" stop-color="#595959"/>
  </linearGradient>
  <linearGradient gradientUnits="objectBoundingBox" id="SVGID_5_" x1="0.500444" x2="0.500444" y1="0.999971" y2="-8.59353e-05">
   <stop offset="0.01" stop-color="#595959"/>
   <stop offset="0.5" stop-color="#EBEBEB"/>
   <stop offset="1" stop-color="#595959"/>
  </linearGradient>
  <linearGradient gradientUnits="objectBoundingBox" id="SVGID_6_" x1="0.500062" x2="0.500062" y1="1.00011" y2="0">
   <stop offset="0.01" stop-color="#595959"/>
   <stop offset="0.5" stop-color="#EBEBEB"/>
   <stop offset="1" stop-color="#595959"/>
  </linearGradient>
  <linearGradient gradientUnits="objectBoundingBox" id="SVGID_7_" x1="0.500266" x2="0.500266" y1="0.999972" y2="-2.00322e-15">
   <stop offset="0.01" stop-color="#595959"/>
   <stop offset="0.5" stop-color="#EBEBEB"/>
   <stop offset="1" stop-color="#595959"/>
  </linearGradient>
  <linearGradient gradientUnits="objectBoundingBox" id="SVGID_8_" x1="0.499963" x2="0.499963" y1="1.00003" y2="-2.86451e-05">
   <stop offset="0.01" stop-color="#595959"/>
   <stop offset="0.5" stop-color="#EBEBEB"/>
   <stop offset="1" stop-color="#595959"/>
  </linearGradient>
  <linearGradient gradientUnits="objectBoundingBox" id="SVGID_9_" x1="0.500081" x2="0.500081" y1="1.00007" y2="0.000117273">
   <stop offset="0.01" stop-color="#595959"/>
   <stop offset="0.5" stop-color="#EBEBEB"/>
   <stop offset="1" stop-color="#595959"/>
  </linearGradient>
  <linearGradient gradientUnits="objectBoundingBox" id="linear_1" x1="5.3736e-06" x2="0.999999" y1="0.499997" y2="0.499997">
   <stop offset="0.01" stop-color="#808FA6"/>
   <stop offset="0.5" stop-color="#E5E5E5"/>
   <stop offset="1" stop-color="#808FA6"/>
  </linearGradient>
  <linearGradient gradientUnits="objectBoundingBox" id="linear_2" x1="-5.38184e-06" x2="1.00001" y1="0.500047" y2="0.500047">
   <stop offset="0.01" stop-color="#595959"/>
   <stop offset="0.5" stop-color="#E0E0E0"/>
   <stop offset="1" stop-color="#595959"/>
  </linearGradient>
  <linearGradient gradientUnits="objectBoundingBox" id="linear_3" x1="2.15262e-05" x2="0.999984" y1="0.499918" y2="0.499918">
   <stop offset="0.01" stop-color="#595959"/>
   <stop offset="0.5" stop-color="#E0E0E0"/>
   <stop offset="1" stop-color="#595959"/>
  </linearGradient>
 </defs>
 <metadata>
  <atv:parameter behavior="optional" defaultvalue="SYSTEM.GLOBALS.Color_Global_1" desc="Color" name="Color" substitute="$Color$" valuetype="global"/>
  <atv:parameter behavior="optional" defaultvalue="SYSTEM.GLOBALS.Maintenance_Water_Clarifier" desc="Global Maintenance" name="Global_Maintenance" valuetype="global"/>
  <atv:gridconfig enabled="true" gridstyle="lines" height="20" width="20"/>
  <atv:snapconfig enabled="true" height="1" width="1"/>
 </metadata>
 <text atv:refpx="121.738" atv:refpy="27.984" fill="$Color$" font-family="Arial" font-size="14" font-weight="bold" id="Title" x="100.5" y="33.484">Name</text>
 <svg atv:refpx="109" atv:refpy="177.002" height="30" id="id_2" transform="matrix(1,0,0,0.6667,0,0)" width="80" x="69" xlink:href="SYSTEM.LIBRARY.ATVISE.OBJECTDISPLAYS.Advanced.button_switch" y="250.494">
  <atv:argument name="base" prefix="base" value=".Apertura"/>
  <atv:argument name="labelOn" value="T{Stop}"/>
  <atv:argument name="labelOff" value="T{Start}"/>
  <atv:overwrite height="18.001" id="id_6" transform="matrix(1,0,0,1.4999,0,0)"/>
  <atv:overwrite id="button_label" transform="matrix(1,0,0,1.4999,0,0)" y="14.5"/>
  <atv:overwrite id="button_symbol_off" transform="matrix(1,0,0,1.4999,0,0)" y="0"/>
  <atv:overwrite id="button_symbol_on" transform="matrix(1,0,0,1.4999,0,0)" y="0"/>
  <atv:overwrite height="16.001" id="blinking_frame" transform="matrix(1,0,0,1.4999,0,0)"/>
  <atv:overwrite height="16.001" id="button_stroke" transform="matrix(1,0,0,1.4999,0,0)"/>
  <atv:overwrite height="18.001" id="button_bg" transform="matrix(1,0,0,1.4999,0,0)"/>
  <atv:overwrite height="20.001" id="outer_frame" transform="matrix(1,0,0,1.4999,0,0)"/>
 </svg>
 <text atv:refpx="91.123" atv:refpy="156.5" fill="#195c88" font-family="Arial" font-size="12" font-weight="bold" id="id_49" x="73.967" y="161">On/Off</text>
 <polygon atv:refpx="63.671" atv:refpy="38.519" fill="#fdf90a" id="alert_increasing" points="51.67,50.518 75.67,50.518 63.003,26.518" stroke="#000000" stroke-width="1"/>
 <g atv:refpx="24.062" atv:refpy="168.546" id="maintenance" transform="matrix(1,0,0,1,-0.5819,13.9015)">
  <rect atv:refpx="46.171" atv:refpy="204.643" fill="#2b9de8" height="24.544" id="id_39" stroke="#000000" stroke-width="1" transform="matrix(0.7071,-0.7071,0.7071,0.7071,0,0)" width="24.544" x="-104.196" y="114.505"/>
  <text atv:refpx="28" atv:refpy="149.5" fill="#000000" font-family="Arial" font-size="14" id="id_40" x="18.5" y="160">M</text>
 </g>
 <polygon atv:refpx="11.207" atv:refpy="41.103" fill="#fdbf21" id="alert_decreasing" points="25.872,29.102 1.871,29.102 14.536,53.103" stroke="#000000" stroke-width="1"/>
 <text atv:refpx="64.671" atv:refpy="43.019" fill="#000000" font-family="Arial" font-size="14" font-weight="bold" id="alertC_text" text-anchor="end" x="66.171" y="47.519">1</text>
 <text atv:refpx="14.459" atv:refpy="38.101" fill="#000000" font-family="Arial" font-size="14" font-weight="bold" id="alertD_text" x="10.959" y="42.601">1</text>
 <rect atv:refpx="9.088" atv:refpy="-57.049" fill="#93060a" fill-opacity="0" height="42" id="click_area_alertC" stroke="none" stroke-width="0" width="28" x="50" y="11.484"/>
 <rect atv:refpx="14" atv:refpy="43.484" fill="#93060a" fill-opacity="0" height="42" id="click_area_alertD" stroke="none" stroke-width="0" width="28" x="0" y="24.484"/>
 <polygon atv:refpx="60.419" atv:refpy="82.021" fill="#fdf90a" id="alert_increasing_min" points="75.084,70.018 51.082,70.018 63.748,94.018" stroke="#000000" stroke-width="1"/>
 <text atv:refpx="63.671" atv:refpy="79.019" fill="#000000" font-family="Arial" font-size="14" font-weight="bold" id="alertC_text_min" x="60.171" y="83.519">1</text>
 <polygon atv:refpx="14.459" atv:refpy="81.601" fill="#fdbf21" id="alert_decreasing_min" points="2.458,93.601 26.458,93.601 13.79,69.601" stroke="#000000" stroke-width="1"/>
 <text atv:refpx="15" atv:refpy="85.984" fill="#000000" font-family="Arial" font-size="14" font-weight="bold" id="alertD_text_min" text-anchor="end" x="16.5" y="90.484">1</text>
 <rect atv:refpx="-40.912" atv:refpy="-13.049" fill="#93060a" fill-opacity="0" height="42" id="click_area_alertD_min" stroke="none" stroke-width="0" width="28" x="0" y="55.484"/>
 <g atv:refpx="36.5" atv:refpy="61.484" id="Ind_Bar" transform="matrix(1,0,0,1,-2,-7.516)">
  <rect atv:refpx="38.5" atv:refpy="69" fill="#626262" height="77.366" id="Barra_Ind2" rx="7" ry="7" stroke="#000000" stroke-width="1" width="14" x="31.5" y="30.317"/>
  <path atv:refpx="38.496" atv:refpy="36.976" d="M31.826,43.257L45.178,43.257L45.08,36.1C45.08,36.1 44.046,30.754 38.676,30.694C33.305,30.633 31.876,35.603 31.876,35.603C31.876,35.603 31.777,43.318 31.826,43.257" fill="#b5b5b5" id="id_19" stroke="#000000" stroke-width="0"/>
  <path atv:refpx="38.533" atv:refpy="100.982" d="M45.204,94.701L31.852,94.701L31.95,101.858C31.95,101.858 32.985,107.205 38.355,107.265C43.726,107.324 45.154,102.356 45.154,102.356C45.154,102.356 45.252,94.641 45.204,94.701" fill="#b5b5b5" id="id_20" stroke="#000000" stroke-width="0"/>
 </g>
 <rect atv:refpx="49.396" atv:refpy="14.695" fill="#bd070d" height="23" id="alarm_square" rx="1.855" ry="1.987" stroke="#000000" stroke-width="1" text-anchor="middle" width="23" x="37.446" y="2.569"/>
 <text atv:refpx="-20.554" atv:refpy="-10.716" fill="#000000" font-family="Arial" font-size="14" font-weight="bold" id="alarm_text" text-anchor="middle" x="48.946" y="19.07">1</text>
 <rect atv:refpx="-3.405" atv:refpy="-49.206" fill="#93060a" fill-opacity="0" height="28" id="click_area_alarm" stroke="none" stroke-width="0" width="28" x="34.879" y="0"/>
 <rect atv:refpx="49.102" atv:refpy="109.129" fill="#bd070d" height="23" id="alarm_square_min" rx="1.855" ry="1.987" stroke="#000000" stroke-width="1" text-anchor="middle" width="23" x="37.152" y="97.003"/>
 <text atv:refpx="-20.848" atv:refpy="83.718" fill="#000000" font-family="Arial" font-size="14" font-weight="bold" id="alarm_text_min" text-anchor="middle" x="48.652" y="113.504">1</text>
 <rect atv:refpx="-3.983" atv:refpy="45.512" fill="#93060a" fill-opacity="0" height="28" id="click_area_alarm_min" stroke="none" stroke-width="0" width="28" x="34.301" y="94.718"/>
 <rect atv:refpx="63" atv:refpy="84.484" fill="#93060a" fill-opacity="0" height="42" id="click_area_alertC_min" stroke="none" stroke-width="0" width="28" x="49" y="65.484"/>
 <script atv:desc="" atv:href="SYSTEM.LIBRARY.PROJECT.DISPLAYSCRIPTS.atvise_Advanced_Objects_Display_Scripts.AAA_Principal_Display_Script" atv:name="" atv:type="text/ecmascript"/>
 <script atv:desc="" atv:name="" type="text/ecmascript"><![CDATA[












]]></script>
 <g atv:refpx="218.507" atv:refpy="107.875" id="Image1">
  <g atv:refpx="218.562" atv:refpy="108.523" id="Group_Clarifier" transform="matrix(2.4434,0,0,2.4434,81.2035,67.2059)">
   <path atv:refpx="56.217" atv:refpy="16.91" d="M56.903,0.857C32.11,0.857 10.674,4.506 0.388,9.806C0.388,14.549 0.388,19.284 0.388,24.012C10.675,29.322 32.11,32.964 56.903,32.964C80.64,32.964 101.301,29.616 112.045,24.683C112.045,19.739 112.045,14.086 112.045,9.144C101.3,4.205 80.642,0.857 56.903,0.857" fill="url(#linear_1)" id="id_0" stroke="#4C4C4C" stroke-width="0.2"/>
  </g>
  <g atv:refpx="218.504" atv:refpy="90.87" id="Group_InnerTank" transform="matrix(2.4434,0,0,2.4434,81.2035,67.2059)">
   <ellipse atv:refpx="56.194" atv:refpy="9.685" cx="56.194" cy="9.685" fill="#596D8C" id="id_1" rx="51.013" ry="8.446"/>
   <path atv:refpx="56.193" atv:refpy="5.968" d="M5.405,10.698L5.18,10.023L5.18,9.798L5.18,9.347L8.221,6.869L11.262,5.743L15.316,4.729L18.469,4.053L21.847,3.49L25.676,2.927L29.73,2.477L34.122,2.139L38.626,1.801L43.468,1.576L48.423,1.35L51.013,1.35L53.603,1.238L56.193,1.238L61.373,1.35L66.44,1.462L71.395,1.688L76.012,1.913L80.516,2.364L84.683,2.702L88.624,3.265L92.228,3.715L95.495,4.391L99.774,5.405L103.264,6.531L106.192,8.108L107.206,9.346L107.206,9.797L107.206,10.022L107.094,10.472L106.982,10.698L106.982,10.248L103.941,7.883L100.9,6.757L96.846,5.742L93.806,5.18L90.315,4.617L86.6,4.054L82.544,3.604L78.265,3.266L73.648,2.928L68.806,2.703L63.964,2.59L58.783,2.477L53.603,2.477L48.423,2.59L43.581,2.703L38.739,2.928L34.122,3.266L29.843,3.604L25.789,4.054L22.073,4.617L18.582,5.18L15.541,5.742L11.487,6.757L8.446,7.883L5.631,9.798Z" fill="#263A59" id="id_3"/>
  </g>
  <g atv:refpx="218.506" atv:refpy="90.579" id="Group_MiddleCircle" transform="matrix(2.4434,0,0,2.4434,81.2035,67.2059)">
   <path atv:refpx="56.194" atv:refpy="11.149" d="M74.775,10.135L74.775,9.009L37.613,9.009L37.725,10.473L40.878,11.938L44.369,12.613L48.986,13.064L52.477,13.176L54.279,13.288L58.107,13.288L61.711,13.176L64.977,12.95L69.256,12.387L72.522,11.599L74.662,10.472Z" fill="url(#linear_2)" id="id_4" stroke="#4C4C4C" stroke-width="0.25"/>
   <ellipse atv:refpx="56.194" atv:refpy="9.01" cx="56.194" cy="9.01" fill="url(#linear_3)" id="id_5" rx="18.582" ry="3.041" stroke="#4C4C4C" stroke-width="0.25"/>
  </g>
  <g atv:refpx="218.506" atv:refpy="90.867" id="Group_CrossRailsbase" transform="matrix(2.4434,0,0,2.4434,81.2035,67.2059)">
   <path atv:refpx="78.773" atv:refpy="5.124" d="M70.045,6.869L71.621,7.207L87.5,3.604L87.5,3.041Z" fill="#7F4C19" id="id_7"/>
   <path atv:refpx="33.727" atv:refpy="5.124" d="M42.455,6.869L40.766,7.207L25,3.604L25,3.041Z" fill="#7F4C19" id="id_8"/>
   <path atv:refpx="21.622" atv:refpy="10.079" d="M5.18,9.798L5.293,10.361L38.063,10.361L38.063,9.798Z" fill="#7F4C19" id="id_9"/>
   <path atv:refpx="90.766" atv:refpy="10.079" d="M107.207,9.798L107.095,10.361L74.324,10.361L74.324,9.798Z" fill="#7F4C19" id="id_10"/>
   <path atv:refpx="74.944" atv:refpy="14.358" d="M85.698,16.78L83.782,16.892L64.188,12.5L64.188,11.824Z" fill="#7F4C19" id="id_11"/>
   <path atv:refpx="37.5" atv:refpy="14.358" d="M26.802,16.78L28.717,16.892L48.198,12.5L48.198,11.824Z" fill="#7F4C19" id="id_12"/>
   <path atv:refpx="56.194" atv:refpy="9.684" d="M56.194,0.45C25.408,0.45 0.451,4.585 0.451,9.684C0.451,14.785 25.408,18.918 56.194,18.918C86.981,18.918 111.938,14.783 111.938,9.684C111.938,4.585 86.98,0.45 56.194,0.45M56.194,18.131C28.02,18.131 5.18,14.35 5.18,9.685C5.18,5.021 28.019,1.24 56.194,1.24C84.367,1.24 107.207,5.021 107.207,9.685C107.207,14.35 84.367,18.131 56.194,18.131" fill="#CCB299" id="id_13"/>
   <path atv:refpx="56.194" atv:refpy="9.684" d="M56.194,0.45C25.408,0.45 0.451,4.585 0.451,9.684C0.451,14.785 25.408,18.918 56.194,18.918C86.981,18.918 111.938,14.783 111.938,9.684C111.938,4.585 86.98,0.45 56.194,0.45M56.194,18.131C28.02,18.131 5.18,14.35 5.18,9.685C5.18,5.021 28.019,1.24 56.194,1.24C84.367,1.24 107.207,5.021 107.207,9.685C107.207,14.35 84.367,18.131 56.194,18.131" fill="none" id="id_14" stroke="#4C4C4C" stroke-width="0.25"/>
   <polygon atv:refpx="56.193" atv:refpy="9.741" fill="#CCB299" id="id_15" points="107.207,9.235 59.922,9.235 87.387,3.041 84.347,2.59 56.757,8.801 56.757,1.126 55.631,1.126    55.631,8.787 28.153,2.59 25,3.041 52.465,9.235 5.18,9.235 5.18,9.798 52.326,9.798 23.311,16.329 26.464,16.78 55.631,10.202    55.631,18.356 56.757,18.356 56.757,10.202 85.924,16.78 89.076,16.329 60.115,9.798 107.207,9.798  "/>
   <ellipse atv:refpx="56.193" atv:refpy="9.01" cx="56.193" cy="9.01" fill="#CCB299" id="id_16" rx="13.965" ry="2.252" stroke="#7F4C19" stroke-width="0.2"/>
  </g>
 </g>
 <rect atv:refpx="219.5" atv:refpy="86" fill="#000000" fill-opacity="0" height="130" id="click_area" stroke="#0000ff" stroke-width="0" width="275" x="82" y="21"/>
</svg>
