<!DOCTYPE svg PUBLIC '-//W3C//DTD SVG 1.1//EN' 'http://www.w3.org/Graphics/SVG/1.1/DTD/svg11.dtd'>
<svg enable-background="new 0 0 72.029 112.5" height="112.5" version="1.1" width="72.028999999999996" xml:space="preserve" xmlns="http://www.w3.org/2000/svg" xmlns:atv="http://webmi.atvise.com/2007/svgext" xmlns:xlink="http://www.w3.org/1999/xlink">
 <defs>
  <linearGradient gradientUnits="objectBoundingBox" id="SVGID_2_" x1="-7.6216e-06" x2="1" y1="0.500004" y2="0.500004">
   <stop offset="0" stop-color="#383838"/>
   <stop offset="0.49" stop-color="#ECECEC"/>
   <stop offset="0.56" stop-color="#D9D9D9"/>
   <stop offset="0.71" stop-color="#A8A8A8"/>
   <stop offset="0.92" stop-color="#5A5A5A"/>
   <stop offset="1" stop-color="#383838"/>
  </linearGradient>
  <linearGradient gradientUnits="objectBoundingBox" id="SVGID_4_" x1="0.420306" x2="0.668484" y1="0.423442" y2="0.682462">
   <stop offset="0" stop-color="#383838"/>
   <stop offset="0.45" stop-color="#ECECEC"/>
   <stop offset="0.55" stop-color="#D9D9D9"/>
   <stop offset="0.76" stop-color="#A8A8A8"/>
   <stop offset="0.77" stop-color="#A6A6A6"/>
   <stop offset="1" stop-color="#383838"/>
  </linearGradient>
  <linearGradient gradientUnits="objectBoundingBox" id="SVGID_5_" x1="0.5" x2="0.5" y1="1.00006" y2="0.000118273">
   <stop offset="0" stop-color="#383838"/>
   <stop offset="0.1" stop-color="#676767"/>
   <stop offset="0.27" stop-color="#AEAEAE"/>
   <stop offset="0.39" stop-color="#DBDBDB"/>
   <stop offset="0.45" stop-color="#ECECEC"/>
   <stop offset="0.52" stop-color="#E5E5E5"/>
   <stop offset="0.61" stop-color="#D3D3D3"/>
   <stop offset="0.71" stop-color="#B4B4B4"/>
   <stop offset="0.75" stop-color="#A6A6A6"/>
   <stop offset="1" stop-color="#383838"/>
  </linearGradient>
  <linearGradient gradientUnits="objectBoundingBox" id="SVGID_6_" x1="0" x2="0.999941" y1="0.500003" y2="0.500003">
   <stop offset="0" stop-color="#383838"/>
   <stop offset="0.45" stop-color="#ECECEC"/>
   <stop offset="0.55" stop-color="#D9D9D9"/>
   <stop offset="0.76" stop-color="#A8A8A8"/>
   <stop offset="0.77" stop-color="#A6A6A6"/>
   <stop offset="1" stop-color="#383838"/>
  </linearGradient>
  <linearGradient gradientUnits="objectBoundingBox" id="SVGID_7_" x1="-3.49321e-05" x2="1" y1="0.500114" y2="0.500114">
   <stop offset="0" stop-color="#1F1F1F"/>
   <stop offset="0.45" stop-color="#999999"/>
   <stop offset="0.62" stop-color="#868686"/>
   <stop offset="0.77" stop-color="#737373"/>
   <stop offset="1" stop-color="#1F1F1F"/>
  </linearGradient>
  <linearGradient gradientUnits="objectBoundingBox" id="SVGID_8_" x1="-3.49321e-05" x2="1" y1="0.500055" y2="0.500055">
   <stop offset="0" stop-color="#1F1F1F"/>
   <stop offset="0.45" stop-color="#999999"/>
   <stop offset="0.62" stop-color="#868686"/>
   <stop offset="0.77" stop-color="#737373"/>
   <stop offset="1" stop-color="#1F1F1F"/>
  </linearGradient>
  <linearGradient gradientUnits="objectBoundingBox" id="SVGID_9_" x1="-3.49321e-05" x2="1" y1="0.500028" y2="0.500028">
   <stop offset="0" stop-color="#1F1F1F"/>
   <stop offset="0.45" stop-color="#999999"/>
   <stop offset="0.62" stop-color="#868686"/>
   <stop offset="0.77" stop-color="#737373"/>
   <stop offset="1" stop-color="#1F1F1F"/>
  </linearGradient>
  <linearGradient gradientUnits="objectBoundingBox" id="SVGID_10_" x1="-1.06883e-05" x2="0.999989" y1="0.499747" y2="0.499747">
   <stop offset="0" stop-color="#1F1F1F"/>
   <stop offset="0.48" stop-color="#999999"/>
   <stop offset="0.58" stop-color="#868686"/>
   <stop offset="0.79" stop-color="#555555"/>
   <stop offset="1" stop-color="#1F1F1F"/>
  </linearGradient>
  <linearGradient gradientUnits="objectBoundingBox" id="SVGID_11_" x1="-1.06883e-05" x2="0.999989" y1="0.499956" y2="0.499956">
   <stop offset="0" stop-color="#383838"/>
   <stop offset="0.47" stop-color="#ECECEC"/>
   <stop offset="0.55" stop-color="#D9D9D9"/>
   <stop offset="0.7" stop-color="#A8A8A8"/>
   <stop offset="0.91" stop-color="#5A5A5A"/>
   <stop offset="1" stop-color="#383838"/>
  </linearGradient>
  <radialGradient cx="0.499997" cy="0.50001" fx="0.499997" fy="0.50001" gradientUnits="objectBoundingBox" id="SVGID_1_" r="0.775161">
   <stop offset="0" stop-color="#ECECEC"/>
   <stop offset="0.14" stop-color="#DDDDDD"/>
   <stop offset="0.4" stop-color="#B8B8B8"/>
   <stop offset="0.75" stop-color="#7C7C7C"/>
   <stop offset="1" stop-color="#4D4D4D"/>
  </radialGradient>
  <radialGradient cx="0.499997" cy="0.499991" fx="0.499997" fy="0.499991" gradientUnits="objectBoundingBox" id="SVGID_3_" r="0.656254">
   <stop offset="0" stop-color="#ECECEC"/>
   <stop offset="0.03" stop-color="#E5E5E5"/>
   <stop offset="0.37" stop-color="#A4A4A4"/>
   <stop offset="0.66" stop-color="#757575"/>
   <stop offset="0.88" stop-color="#575757"/>
   <stop offset="1" stop-color="#4D4D4D"/>
  </radialGradient>
 </defs>
 <metadata>
  <atv:gridconfig enabled="false" gridstyle="lines" height="20" width="20"/>
  <atv:snapconfig enabled="false" height="10" width="10"/>
 </metadata>
 <g atv:refpx="36.078" atv:refpy="56.25" id="Image_1">
  <g atv:refpx="39.227" atv:refpy="90.067" id="Group_BackLegs">
   <path atv:refpx="39.227" atv:refpy="90.067" d="M56.811,70.453L39.258,86.147L21.642,70.453L17.584,70.453L17.584,109.68L21.642,109.68L21.642,103.834L39.235,88.213L56.811,103.83L56.811,109.68L60.87,109.68L60.87,70.453ZM21.642,72.582C21.647,72.583 38.045,87.157 38.045,87.157L21.642,101.683ZM56.811,101.639L40.421,87.176L56.812,72.61L56.812,101.639Z" fill="#333333" id="id_0"/>
  </g>
  <g atv:refpx="39.228" atv:refpy="52.7" id="Group_TankBody">
   <path atv:refpx="39.227" atv:refpy="83.19" d="M32.238,100.775L46.329,100.775L72.029,65.605L6.426,65.605Z" fill="url(#SVGID_1_)" id="id_1"/>
   <path atv:refpx="39.227" atv:refpy="42.159" d="M72.029,65.609L72.029,18.708L6.426,18.708L6.426,65.609" fill="url(#SVGID_2_)" id="id_2"/>
   <path atv:refpx="39.227" atv:refpy="11.669" d="M72.029,18.714L46.328,4.623L32.238,4.623L6.426,18.714" fill="url(#SVGID_3_)" id="id_3"/>
   <path atv:refpx="32.52" atv:refpy="30.155" d="M32.238,41.596L32.238,18.714L32.801,18.714L32.801,41.596" fill="none" id="id_4" stroke="#7F7F7F" stroke-width="0.25"/>
   <path atv:refpx="39.227" atv:refpy="41.877" d="M70.901,18.15L7.552,18.15L6.425,18.712L72.029,18.712L72.029,41.595L6.426,41.595L6.426,42.158L72.03,42.158L72.03,65.04L6.426,65.04L6.426,65.603L72.03,65.603L28.067,65.04L28.067,42.16L28.744,42.16L28.744,65.042" fill="none" id="id_5" stroke="#7F7F7F" stroke-width="0.25"/>
  </g>
  <g atv:refpx="39.227" atv:refpy="89.052" id="Group_FrontLegs">
   <path atv:refpx="61.545" atv:refpy="66.79" d="M55.684,65.609L55.684,67.972L67.407,67.972L67.407,65.609Z" fill="#999999" id="id_6"/>
   <path atv:refpx="16.909" atv:refpy="66.788" d="M11.047,65.605L11.047,67.972L22.77,67.972L22.77,65.605Z" fill="#999999" id="id_7"/>
   <path atv:refpx="61.545" atv:refpy="90.236" d="M59.178,67.973L59.178,112.497L63.912,112.497L63.912,67.973Z" fill="#7F7F7F" id="id_8"/>
   <path atv:refpx="16.965" atv:refpy="90.236" d="M14.654,67.973L14.654,112.497L19.275,112.497L19.275,67.973Z" fill="#7F7F7F" id="id_9"/>
   <path atv:refpx="61.546" atv:refpy="89.052" d="M60.419,65.605L60.419,112.498L62.672,112.498L62.672,65.605Z" fill="#999999" id="id_10"/>
   <path atv:refpx="16.965" atv:refpy="89.052" d="M15.781,65.605L15.781,112.498L18.148,112.498L18.148,65.605Z" fill="#999999" id="id_11"/>
   <polygon atv:refpx="39.227" atv:refpy="89.108" fill="#7F7F7F" id="id_12" points="59.178,70.34 39.227,87.925 19.275,70.34 19.275,72.707 37.884,89.108 19.275,105.51    19.275,107.877 39.227,90.292 59.178,107.877 59.178,105.51 40.57,89.108 59.178,72.707  "/>
  </g>
  <g atv:refpx="16.498" atv:refpy="56.531" id="Group_Ladder">
   <polygon atv:refpx="6.182" atv:refpy="6.033" fill="url(#SVGID_4_)" id="id_13" points="1.24,9.583 9.694,1.129 11.124,4.484 4.622,10.936  "/>
   <polygon atv:refpx="21.346" atv:refpy="2.82" fill="url(#SVGID_5_)" id="id_14" points="9.694,1.129 32.997,1.129 32.997,4.511 11.047,4.511  "/>
   <polygon atv:refpx="2.931" atv:refpy="60.758" fill="url(#SVGID_6_)" id="id_15" points="1.24,9.583 4.622,10.936 4.622,111.934 1.24,111.934  "/>
   <path atv:refpx="3.494" atv:refpy="63.858" d="M0,62.111L6.989,62.111L6.989,65.605L0,65.605Z" fill="url(#SVGID_7_)" id="id_16"/>
   <path atv:refpx="3.494" atv:refpy="41.596" d="M0,39.792L6.989,39.792L6.989,43.4L0,43.4Z" fill="url(#SVGID_8_)" id="id_17"/>
   <path atv:refpx="3.494" atv:refpy="20.517" d="M0,18.714L6.989,18.714L6.989,22.32L0,22.32Z" fill="url(#SVGID_9_)" id="id_18"/>
  </g>
  <g atv:refpx="39.227" atv:refpy="2.313" id="Group_TBD">
   <path atv:refpx="39.227" atv:refpy="3.44" d="M46.329,4.624L48.583,2.256L29.871,2.256L32.238,4.624" fill="url(#SVGID_10_)" id="id_19"/>
   <path atv:refpx="39.227" atv:refpy="1.129" d="M48.583,2.256L48.583,0.002L29.871,0.002L29.871,2.256" fill="url(#SVGID_11_)" id="id_20"/>
  </g>
 </g>
</svg>
