<svg xmlns:xlink="http://www.w3.org/1999/xlink" xmlns="http://www.w3.org/2000/svg" xml:space="preserve" xmlns:atv="http://webmi.atvise.com/2007/svgext" version="1.1" width="84.570999999999998" enable-background="new 0 0 84.571 112.5" height="112.5">
 <defs>
  <linearGradient gradientUnits="objectBoundingBox" id="SVGID_1_" x1="-3.59045e-06" x2="1.00003" y1="0.50001" y2="0.50001">
   <stop offset="0" stop-color="#405473"/>
   <stop offset="0.5" stop-color="#263A59"/>
   <stop offset="1" stop-color="#405473"/>
  </linearGradient>
  <linearGradient gradientUnits="objectBoundingBox" id="SVGID_2_" x1="0.156663" x2="0.962761" y1="0.50001" y2="0.50001">
   <stop offset="0" stop-color="#8CA0BF"/>
   <stop offset="0.5" stop-color="#7387A6"/>
   <stop offset="0.93" stop-color="#8CA0BF"/>
  </linearGradient>
 </defs>
 <metadata>
  <atv:gridconfig enabled="false" gridstyle="lines" height="20" width="20"/>
  <atv:snapconfig enabled="false" height="10" width="10"/>
 </metadata>
 <g atv:refpx="42.23" atv:refpy="56.194" id="Image_1">
  <g atv:refpx="42.228" atv:refpy="56.224" id="Group_Column">
   <path atv:refpx="42.228" atv:refpy="56.224" d="M46.959,107.238L51.238,107.012L55.291,106.562L59.12,105.999L62.611,105.324L65.764,104.423L69.255,103.184L72.068,101.721L74.433,99.242L74.771,98.004L74.771,37.644L84.005,37.644L84.005,28.41L74.771,28.41L74.771,14.446C74.771,14.446 74.488,10.644 68.801,8.065C62.38,5.153 46.956,5.211 46.956,5.211L46.956,0.482L37.609,0.482L37.609,5.211C37.609,5.211 24.868,5.4 19.029,7.421C11.979,9.86 9.794,14.445 9.794,14.445L9.794,74.804L0.451,74.804L0.451,84.038L9.798,84.038L9.798,98.002C9.798,98.002 10.536,102.207 20.496,105.178C27.244,107.191 37.613,107.237 37.613,107.237L37.613,111.966L46.96,111.966L46.96,107.238Z" fill="url(#SVGID_1_)" id="id_0"/>
  </g>
  <g atv:refpx="37.613" atv:refpy="91.609" id="Group_Mixer">
   <path atv:refpx="37.613" atv:refpy="91.609" d="M46.959,107.207C46.959,107.207 56.295,107.616 65.757,104.625C74.452,101.876 74.774,97.973 74.774,97.973L74.774,71.283L9.797,71.283L9.797,74.774L0.451,74.774L0.451,84.008L9.798,84.008L9.798,97.972C9.798,97.972 11.022,102.208 19.619,104.625C28.958,107.25 37.613,107.206 37.613,107.206L37.613,111.935L46.96,111.935L46.96,107.207Z" fill="url(#SVGID_2_)" id="id_1"/>
  </g>
  <g atv:refpx="42.285" atv:refpy="94.481" id="Group_Mix">
   <path atv:refpx="42.285" atv:refpy="103.625" d="M46.959,107.207C46.959,107.207 54.504,107.469 63.166,105.306C74.835,102.393 74.773,97.972 74.773,97.972C74.773,97.972 69.61,95.907 67.791,95.607C65.512,95.231 60.836,95.232 58.557,95.607C56.739,95.907 53.414,97.857 51.576,97.972C48.622,98.158 42.922,95.905 39.976,95.607C37.651,95.374 32.907,95.085 30.629,95.607C28.859,96.014 25.574,98.062 23.76,97.972C21.919,97.88 18.621,95.607 16.778,95.607C14.935,95.607 9.796,97.972 9.796,97.972C9.796,97.972 10.534,103.187 22.746,105.63C33.214,107.725 37.611,107.206 37.611,107.206L37.611,111.935L46.958,111.935Z" fill="#4C3F32" id="id_2"/>
   <path atv:refpx="67.795" atv:refpy="80.518" d="M67.792,84.009C66.976,84.009 65.568,82.561 65.428,81.756C65.2,80.454 66.471,77.027 67.792,77.027C69.113,77.027 70.41,80.458 70.157,81.756C70,82.558 68.609,84.009 67.792,84.009" fill="#4C3F32" id="id_3"/>
   <path atv:refpx="53.885" atv:refpy="80.518" d="M53.829,84.009C53.033,83.999 51.712,82.541 51.577,81.756C51.355,80.466 52.519,77.04 53.829,77.027C55.15,77.014 56.421,80.454 56.194,81.756C56.053,82.561 54.646,84.02 53.829,84.009" fill="#4C3F32" id="id_4"/>
   <path atv:refpx="39.921" atv:refpy="80.518" d="M39.977,84.009C39.16,84.019 37.753,82.561 37.611,81.756C37.385,80.454 38.654,77.015 39.977,77.027C41.285,77.04 42.45,80.465 42.229,81.756C42.095,82.541 40.773,83.999 39.977,84.009" fill="#4C3F32" id="id_5"/>
   <path atv:refpx="26.072" atv:refpy="80.518" d="M26.013,84.009C25.217,83.999 23.896,82.541 23.761,81.756C23.539,80.466 24.703,77.04 26.013,77.027C27.334,77.014 28.63,80.458 28.378,81.756C28.223,82.558 26.83,84.019 26.013,84.009" fill="#4C3F32" id="id_6"/>
   <path atv:refpx="60.81" atv:refpy="87.499" d="M60.81,90.99C59.974,90.99 58.576,89.451 58.446,88.625C58.244,87.344 59.513,84.008 60.81,84.008C62.107,84.008 63.376,87.344 63.174,88.625C63.044,89.451 61.646,90.99 60.81,90.99" fill="#4C3F32" id="id_7"/>
   <path atv:refpx="46.902" atv:refpy="87.5" d="M46.846,90.99C46.031,90.979 44.718,89.431 44.593,88.625C44.397,87.356 45.562,84.021 46.846,84.008C48.142,83.995 49.413,87.344 49.211,88.625C49.081,89.452 47.682,91.001 46.846,90.99" fill="#4C3F32" id="id_8"/>
   <path atv:refpx="32.941" atv:refpy="87.5" d="M32.995,90.99C32.159,91 30.759,89.452 30.629,88.625C30.427,87.344 31.697,83.996 32.995,84.008C34.279,84.021 35.464,87.36 35.247,88.625C35.109,89.431 33.811,90.98 32.995,90.99" fill="#4C3F32" id="id_9"/>
   <path atv:refpx="19.089" atv:refpy="87.5" d="M19.031,90.99C18.215,90.979 16.904,89.431 16.779,88.625C16.582,87.356 17.747,84.021 19.031,84.008C20.328,83.995 21.618,87.348 21.396,88.625C21.252,89.45 19.867,91 19.031,90.99" fill="#4C3F32" id="id_10"/>
  </g>
  <g atv:refpx="42.904" atv:refpy="55.011" id="Group_Content">
   <path atv:refpx="16.722" atv:refpy="65.485" d="M14.414,65.428C14.424,64.611 15.962,63.166 16.779,63.175C17.575,63.185 19.021,64.631 19.031,65.428C19.041,66.244 17.596,67.783 16.779,67.792C15.943,67.804 14.403,66.265 14.414,65.428" fill="#CC9900" id="id_11"/>
   <path atv:refpx="20.214" atv:refpy="58.502" d="M17.905,58.445C17.915,57.629 19.453,56.183 20.27,56.194C21.066,56.204 22.513,57.65 22.522,58.445C22.532,59.261 21.086,60.8 20.27,60.81C19.434,60.821 17.895,59.282 17.905,58.445" fill="#CC9900" id="id_12"/>
   <path atv:refpx="16.723" atv:refpy="51.521" d="M14.414,51.577C14.404,50.741 15.943,49.202 16.779,49.211C17.595,49.221 19.041,50.76 19.031,51.577C19.02,52.373 17.575,53.82 16.779,53.829C15.963,53.839 14.424,52.393 14.414,51.577" fill="#CC9900" id="id_13"/>
   <path atv:refpx="20.214" atv:refpy="44.539" d="M17.905,44.595C17.895,43.759 19.434,42.22 20.27,42.23C21.086,42.239 22.533,43.778 22.522,44.595C22.512,45.391 21.065,46.838 20.27,46.847C19.454,46.857 17.916,45.411 17.905,44.595" fill="#CC9900" id="id_14"/>
   <path atv:refpx="23.704" atv:refpy="65.485" d="M21.396,65.428C21.406,64.611 22.944,63.166 23.761,63.175C24.557,63.185 26.003,64.631 26.013,65.428C26.023,66.244 24.578,67.783 23.761,67.792C22.925,67.804 21.385,66.265 21.396,65.428" fill="#CC9900" id="id_15"/>
   <path atv:refpx="27.195" atv:refpy="58.502" d="M24.887,58.445C24.897,57.629 26.435,56.183 27.252,56.194C28.048,56.204 29.495,57.65 29.504,58.445C29.514,59.261 28.068,60.8 27.252,60.81C26.416,60.821 24.876,59.282 24.887,58.445" fill="#CC9900" id="id_16"/>
   <path atv:refpx="23.705" atv:refpy="51.521" d="M21.396,51.577C21.386,50.741 22.925,49.202 23.761,49.211C24.577,49.221 26.023,50.76 26.013,51.577C26.003,52.373 24.557,53.82 23.761,53.829C22.945,53.839 21.406,52.393 21.396,51.577" fill="#CC9900" id="id_17"/>
   <path atv:refpx="27.196" atv:refpy="44.539" d="M24.887,44.595C24.877,43.759 26.416,42.22 27.252,42.23C28.068,42.239 29.515,43.778 29.504,44.595C29.494,45.391 28.047,46.838 27.252,46.847C26.436,46.857 24.897,45.411 24.887,44.595" fill="#CC9900" id="id_18"/>
   <path atv:refpx="30.687" atv:refpy="65.484" d="M28.378,65.428C28.388,64.631 29.835,63.186 30.63,63.175C31.445,63.166 32.984,64.611 32.995,65.428C33.006,66.265 31.467,67.803 30.629,67.792C29.814,67.783 28.368,66.244 28.378,65.428" fill="#CC9900" id="id_19"/>
   <path atv:refpx="34.178" atv:refpy="58.502" d="M31.869,58.445C31.879,57.649 33.325,56.203 34.121,56.194C34.937,56.184 36.476,57.629 36.486,58.445C36.497,59.282 34.957,60.821 34.121,60.81C33.304,60.801 31.859,59.262 31.869,58.445" fill="#CC9900" id="id_20"/>
   <path atv:refpx="30.686" atv:refpy="51.521" d="M28.378,51.577C28.368,50.76 29.814,49.223 30.63,49.211C31.465,49.202 33.004,50.741 32.995,51.577C32.985,52.393 31.446,53.839 30.629,53.829C29.834,53.819 28.388,52.373 28.378,51.577" fill="#CC9900" id="id_21"/>
   <path atv:refpx="34.177" atv:refpy="44.539" d="M31.869,44.595C31.859,43.779 33.305,42.241 34.121,42.23C34.957,42.22 36.496,43.759 36.486,44.595C36.476,45.411 34.937,46.858 34.121,46.847C33.325,46.837 31.879,45.391 31.869,44.595" fill="#CC9900" id="id_22"/>
   <path atv:refpx="37.669" atv:refpy="65.484" d="M35.36,65.428C35.37,64.631 36.817,63.186 37.612,63.175C38.428,63.166 39.966,64.611 39.977,65.428C39.988,66.265 38.449,67.803 37.612,67.792C36.796,67.783 35.35,66.244 35.36,65.428" fill="#CC9900" id="id_23"/>
   <path atv:refpx="41.16" atv:refpy="58.502" d="M38.851,58.445C38.861,57.649 40.307,56.203 41.103,56.194C41.919,56.184 43.457,57.63 43.468,58.445C43.479,59.281 41.939,60.821 41.103,60.81C40.286,60.801 38.841,59.262 38.851,58.445" fill="#CC9900" id="id_24"/>
   <path atv:refpx="37.668" atv:refpy="51.521" d="M35.36,51.577C35.35,50.76 36.796,49.223 37.612,49.211C38.448,49.202 39.987,50.741 39.977,51.577C39.967,52.393 38.429,53.839 37.612,53.829C36.816,53.819 35.37,52.373 35.36,51.577" fill="#CC9900" id="id_25"/>
   <path atv:refpx="41.159" atv:refpy="44.539" d="M38.851,44.595C38.841,43.779 40.287,42.241 41.103,42.23C41.939,42.22 43.478,43.759 43.468,44.595C43.458,45.411 41.919,46.858 41.103,46.847C40.307,46.837 38.861,45.391 38.851,44.595" fill="#CC9900" id="id_26"/>
   <path atv:refpx="44.651" atv:refpy="65.484" d="M42.342,65.428C42.352,64.631 43.799,63.186 44.594,63.175C45.41,63.166 46.949,64.61 46.959,65.428C46.97,66.265 45.431,67.803 44.594,67.792C43.778,67.783 42.332,66.244 42.342,65.428" fill="#CC9900" id="id_27"/>
   <path atv:refpx="48.141" atv:refpy="58.502" d="M45.833,58.445C45.843,57.649 47.288,56.203 48.085,56.194C48.901,56.184 50.44,57.63 50.45,58.445C50.461,59.282 48.922,60.821 48.085,60.81C47.267,60.801 45.822,59.262 45.833,58.445" fill="#CC9900" id="id_28"/>
   <path atv:refpx="44.651" atv:refpy="51.521" d="M42.342,51.577C42.332,50.76 43.778,49.222 44.594,49.211C45.431,49.202 46.97,50.739 46.959,51.577C46.949,52.394 45.41,53.839 44.594,53.829C43.797,53.819 42.352,52.373 42.342,51.577" fill="#CC9900" id="id_29"/>
   <path atv:refpx="48.142" atv:refpy="44.539" d="M45.833,44.595C45.823,43.779 47.269,42.241 48.085,42.23C48.922,42.218 50.461,43.757 50.45,44.595C50.44,45.412 48.901,46.858 48.085,46.847C47.289,46.837 45.842,45.391 45.833,44.595" fill="#CC9900" id="id_30"/>
   <path atv:refpx="51.633" atv:refpy="65.484" d="M49.324,65.428C49.333,64.631 50.781,63.186 51.577,63.175C52.391,63.166 53.931,64.613 53.94,65.428C53.952,66.264 52.413,67.803 51.577,67.792C50.76,67.783 49.314,66.244 49.324,65.428" fill="#CC9900" id="id_31"/>
   <path atv:refpx="55.123" atv:refpy="58.502" d="M52.815,58.445C52.824,57.649 54.269,56.203 55.067,56.194C55.883,56.184 57.422,57.63 57.432,58.445C57.443,59.282 55.904,60.821 55.067,60.81C54.25,60.801 52.804,59.262 52.815,58.445" fill="#CC9900" id="id_32"/>
   <path atv:refpx="51.632" atv:refpy="51.521" d="M49.324,51.577C49.314,50.76 50.76,49.222 51.577,49.211C52.413,49.202 53.951,50.741 53.94,51.577C53.931,52.393 52.392,53.839 51.577,53.829C50.78,53.82 49.333,52.373 49.324,51.577" fill="#CC9900" id="id_33"/>
   <path atv:refpx="55.124" atv:refpy="44.539" d="M52.815,44.595C52.805,43.779 54.251,42.241 55.067,42.23C55.904,42.218 57.443,43.757 57.432,44.595C57.422,45.412 55.883,46.858 55.067,46.847C54.271,46.837 52.825,45.391 52.815,44.595" fill="#CC9900" id="id_34"/>
   <path atv:refpx="58.614" atv:refpy="65.484" d="M56.305,65.428C56.315,64.631 57.762,63.186 58.558,63.175C59.373,63.166 60.912,64.613 60.922,65.428C60.933,66.264 59.394,67.803 58.558,67.792C57.742,67.783 56.295,66.244 56.305,65.428" fill="#CC9900" id="id_35"/>
   <path atv:refpx="62.105" atv:refpy="58.502" d="M59.797,58.445C59.806,57.649 61.251,56.203 62.049,56.194C62.865,56.184 64.403,57.63 64.413,58.445C64.423,59.281 62.885,60.82 62.049,60.81C61.232,60.801 59.787,59.262 59.797,58.445" fill="#CC9900" id="id_36"/>
   <path atv:refpx="58.613" atv:refpy="51.521" d="M56.305,51.577C56.295,50.76 57.742,49.222 58.558,49.211C59.394,49.202 60.932,50.741 60.922,51.577C60.912,52.393 59.373,53.839 58.558,53.829C57.761,53.82 56.315,52.373 56.305,51.577" fill="#CC9900" id="id_37"/>
   <path atv:refpx="62.105" atv:refpy="44.539" d="M59.797,44.595C59.787,43.779 61.233,42.241 62.049,42.23C62.885,42.22 64.423,43.759 64.413,44.595C64.402,45.411 62.864,46.858 62.049,46.847C61.253,46.837 59.807,45.391 59.797,44.595" fill="#CC9900" id="id_38"/>
   <path atv:refpx="65.596" atv:refpy="65.484" d="M63.288,65.428C63.297,64.631 64.744,63.186 65.539,63.175C66.356,63.164 67.895,64.61 67.904,65.428C67.915,66.265 66.376,67.804 65.539,67.792C64.721,67.783 63.277,66.244 63.288,65.428" fill="#CC9900" id="id_39"/>
   <path atv:refpx="69.087" atv:refpy="58.502" d="M66.779,58.445C66.789,57.649 68.234,56.203 69.03,56.194C69.847,56.184 71.384,57.63 71.395,58.445C71.405,59.281 69.866,60.82 69.03,60.81C68.213,60.801 66.768,59.263 66.779,58.445" fill="#CC9900" id="id_40"/>
   <path atv:refpx="65.597" atv:refpy="51.521" d="M63.288,51.577C63.278,50.76 64.723,49.223 65.539,49.211C66.377,49.2 67.916,50.741 67.904,51.577C67.892,52.393 66.355,53.839 65.539,53.829C64.744,53.819 63.297,52.373 63.288,51.577" fill="#CC9900" id="id_41"/>
   <path atv:refpx="69.087" atv:refpy="44.539" d="M66.779,44.595C66.768,43.778 68.215,42.241 69.03,42.23C69.866,42.22 71.404,43.759 71.395,44.595C71.384,45.411 69.847,46.858 69.03,46.847C68.235,46.837 66.789,45.391 66.779,44.595" fill="#CC9900" id="id_42"/>
  </g>
  <g atv:refpx="42.23" atv:refpy="56.194" id="Group_Frame">
   <path atv:refpx="42.23" atv:refpy="56.194" d="M49.211,5.181C49.211,5.181 62.125,5.355 68.264,7.833C74.098,10.188 74.774,14.416 74.774,14.416L74.774,28.38L84.008,28.38L84.008,30.632L72.408,30.632L72.408,14.415C72.408,14.415 71.362,10.834 64.972,9.562C58.691,8.312 44.593,7.433 44.593,7.433L44.593,0.451L46.958,0.451L46.958,3.379L49.21,3.379L49.21,5.181ZM35.36,5.181C35.36,5.181 23.32,5.824 17.102,8.132C9.943,10.79 9.798,14.415 9.798,14.415L9.798,74.774L0.451,74.774L0.451,77.139L12.162,77.139L12.162,14.415C12.162,14.415 12.764,11.78 17.834,10.117C25.853,7.487 39.977,7.432 39.977,7.432L39.977,0.451L37.612,0.451L37.612,3.379L35.36,3.379ZM37.612,107.207C37.612,107.207 29.869,107.458 20.495,105.179C10.768,102.815 9.797,97.973 9.797,97.973L9.797,84.009L0.451,84.009L0.451,81.756L12.162,81.756L12.162,97.973C12.162,97.973 14.913,101.946 22.911,103.709C31.036,105.501 39.977,104.955 39.977,104.955L39.977,111.936L37.612,111.936ZM46.959,107.207C46.959,107.207 54.869,107.458 63.551,105.256C74.558,102.463 74.774,97.973 74.774,97.973L74.774,37.613L84.008,37.613L84.008,35.248L72.408,35.248L72.408,97.973C72.408,97.973 70.748,100.681 62.206,103.057C54.045,105.328 44.594,104.955 44.594,104.955L44.594,111.936L46.959,111.936ZM12.162,70.158L12.162,72.41L16.779,72.41L16.779,70.158ZM21.396,70.158L21.396,72.41L28.378,72.41L28.378,70.158ZM32.995,70.158L32.995,72.41L39.977,72.41L39.977,70.158ZM44.594,70.158L44.594,72.41L51.576,72.41L51.576,70.158ZM56.194,70.158L56.194,72.41L63.174,72.41L63.174,70.158ZM67.792,70.158L67.792,72.41L72.409,72.41L72.409,70.158Z" fill="#E5E5E5" id="id_43"/>
   <path atv:refpx="64.301" atv:refpy="15.541" d="M49.211,5.181C49.211,5.181 61.242,5.5 66.89,7.327C74.168,9.684 74.774,14.446 74.774,14.446L74.774,28.378L84.008,28.378L84.008,30.63L72.408,30.63L72.408,14.415C72.408,14.415 71.326,11 65.66,9.707C59.309,8.261 44.593,7.432 44.593,7.432L44.593,0.451L46.958,0.451L46.958,3.379L49.211,3.379Z" fill="none" id="id_44" stroke="#4C4C4C" stroke-width="0.25"/>
   <path atv:refpx="20.214" atv:refpy="38.795" d="M35.36,5.181C35.36,5.181 24.686,5.911 19.58,7.333C9.969,10.01 9.796,14.415 9.796,14.415L9.796,74.774L0.451,74.774L0.451,77.139L12.162,77.139L12.162,14.415C12.162,14.415 12.684,10.913 21.411,9.166C29.953,7.458 39.977,7.432 39.977,7.432L39.977,0.451L37.612,0.451L37.612,3.379L35.36,3.379Z" fill="none" id="id_45" stroke="#4C4C4C" stroke-width="0.25"/>
   <path atv:refpx="20.214" atv:refpy="96.846" d="M37.612,107.207C37.612,107.207 28.436,107.189 21.857,105.529C10.744,102.726 9.796,97.971 9.796,97.971L9.796,84.009L0.451,84.009L0.451,81.756L12.162,81.756L12.162,97.973C12.162,97.973 14.631,101.964 23.432,103.83C30.721,105.376 39.977,104.955 39.977,104.955L39.977,111.936L37.612,111.936Z" fill="none" id="id_46" stroke="#4C4C4C" stroke-width="0.25"/>
   <path atv:refpx="64.301" atv:refpy="73.593" d="M46.959,107.207C46.959,107.207 56.785,107.458 65.089,104.842C74.761,101.792 74.774,97.973 74.774,97.973L74.774,37.613L84.008,37.613L84.008,35.248L72.408,35.248L72.408,97.973C72.408,97.973 70.556,101.087 60.246,103.604C54.6,104.982 44.594,104.956 44.594,104.956L44.594,111.937L46.959,111.937Z" fill="none" id="id_47" stroke="#4C4C4C" stroke-width="0.25"/>
   <path atv:refpx="14.471" atv:refpy="71.284" d="M12.162,70.158L12.162,72.41L16.779,72.41L16.779,70.158Z" fill="none" id="id_48" stroke="#4C4C4C" stroke-width="0.25"/>
   <path atv:refpx="24.887" atv:refpy="71.284" d="M21.396,70.158L21.396,72.41L28.378,72.41L28.378,70.158Z" fill="none" id="id_49" stroke="#4C4C4C" stroke-width="0.25"/>
   <path atv:refpx="36.486" atv:refpy="71.284" d="M32.995,70.158L32.995,72.41L39.977,72.41L39.977,70.158Z" fill="none" id="id_50" stroke="#4C4C4C" stroke-width="0.25"/>
   <path atv:refpx="48.085" atv:refpy="71.284" d="M44.594,70.158L44.594,72.41L51.576,72.41L51.576,70.158Z" fill="none" id="id_51" stroke="#4C4C4C" stroke-width="0.25"/>
   <path atv:refpx="59.684" atv:refpy="71.284" d="M56.194,70.158L56.194,72.41L63.174,72.41L63.174,70.158Z" fill="none" id="id_52" stroke="#4C4C4C" stroke-width="0.25"/>
   <path atv:refpx="70.101" atv:refpy="71.284" d="M67.792,70.158L67.792,72.41L72.409,72.41L72.409,70.158Z" fill="none" id="id_53" stroke="#4C4C4C" stroke-width="0.25"/>
  </g>
 </g>
</svg>
