<?xml version='1.0' encoding='UTF-8' standalone='no'?>
<svg height="186.61000000000001" version="1.2" width="224" xmlns="http://www.w3.org/2000/svg" xmlns:atv="http://webmi.atvise.com/2007/svgext" xmlns:xlink="http://www.w3.org/1999/xlink">
 <defs>
  <linearGradient gradientUnits="objectBoundingBox" id="id_33_fill_gradient" spreadMethod="reflect" x1="0.0675676" x2="0.581081" y1="1" y2="1">
   <stop offset="0" stop-color="#999999"/>
   <stop offset="1" stop-color="#e5e5e5"/>
  </linearGradient>
  <linearGradient gradientUnits="objectBoundingBox" id="id_34_fill_gradient" spreadMethod="reflect" x1="-0.135135" x2="0.405405" y1="0.986486" y2="0.972973">
   <stop offset="0" stop-color="#999999"/>
   <stop offset="1" stop-color="#e5e5e5"/>
  </linearGradient>
  <linearGradient gradientUnits="objectBoundingBox" id="id_41_fill_gradient" spreadMethod="reflect" x1="-0.135135" x2="0.405405" y1="1" y2="0.972973">
   <stop offset="0" stop-color="#999999"/>
   <stop offset="1" stop-color="#e5e5e5"/>
  </linearGradient>
  <linearGradient gradientUnits="objectBoundingBox" id="id_42_fill_gradient" spreadMethod="reflect" x1="-0.135135" x2="0.405405" y1="0.986486" y2="0.972973">
   <stop offset="0" stop-color="#999999"/>
   <stop offset="1" stop-color="#e5e5e5"/>
  </linearGradient>
  <radialGradient cx="0.5" cy="0.5" fx="0.5" fy="0.5" gradientUnits="objectBoundingBox" id="id_42_stroke_gradient" r="1">
   <stop offset="0" stop-color="#000000"/>
   <stop offset="1" stop-color="#ffffff"/>
  </radialGradient>
  <linearGradient gradientUnits="objectBoundingBox" id="id_43_fill_gradient" spreadMethod="reflect" x1="-0.135135" x2="0.405405" y1="1" y2="0.972973">
   <stop offset="0" stop-color="#999999"/>
   <stop offset="1" stop-color="#e5e5e5"/>
  </linearGradient>
  <radialGradient cx="0.5" cy="0.5" fx="0.5" fy="0.5" gradientUnits="objectBoundingBox" id="id_44_fill_gradient" r="0.514579">
   <stop offset="0.6088709677419355" stop-color="#e4e4e4"/>
   <stop offset="1" stop-color="#9a9a9a"/>
  </radialGradient>
  <radialGradient cx="0.5" cy="0.5" fx="0.5" fy="0.5" gradientUnits="objectBoundingBox" id="id_7_fill_gradient" r="0.514579">
   <stop offset="0.6088709677419355" stop-color="#e4e4e4"/>
   <stop offset="1" stop-color="#9a9a9a"/>
  </radialGradient>
  <linearGradient gradientUnits="objectBoundingBox" id="linear_0" x1="0" x2="1" y1="0" y2="1">
   <stop offset="0" stop-color="#000000"/>
   <stop offset="1" stop-color="#000000" stop-opacity="0"/>
  </linearGradient>
  <linearGradient gradientUnits="objectBoundingBox" id="SVGID_10_" x1="-1.47761e-06" x2="0.999994" y1="0.499972" y2="0.499972">
   <stop offset="0.01" stop-color="#4D4D4D"/>
   <stop offset="0.51" stop-color="#F5F5F5"/>
   <stop offset="1" stop-color="#4D4D4D"/>
  </linearGradient>
  <linearGradient gradientUnits="objectBoundingBox" id="SVGID_11_" x1="-2.61171e-17" x2="0.999994" y1="0.500028" y2="0.500028">
   <stop offset="0.01" stop-color="#4D4D4D"/>
   <stop offset="0.51" stop-color="#F5F5F5"/>
   <stop offset="1" stop-color="#4D4D4D"/>
  </linearGradient>
  <linearGradient gradientUnits="objectBoundingBox" id="SVGID_12_" x1="-1.46544e-06" x2="1.00001" y1="0.499829" y2="0.499829">
   <stop offset="0.01" stop-color="#4D4D4D"/>
   <stop offset="0.51" stop-color="#F5F5F5"/>
   <stop offset="1" stop-color="#4D4D4D"/>
  </linearGradient>
  <linearGradient gradientUnits="objectBoundingBox" id="SVGID_13_" x1="0" x2="0.999993" y1="0.499718" y2="0.499718">
   <stop offset="0.01" stop-color="#4D4D4D"/>
   <stop offset="0.51" stop-color="#F5F5F5"/>
   <stop offset="1" stop-color="#4D4D4D"/>
  </linearGradient>
  <linearGradient gradientUnits="objectBoundingBox" id="SVGID_14_" x1="-1.46542e-06" x2="0.999994" y1="0.499934" y2="0.499934">
   <stop offset="0.01" stop-color="#4D4D4D"/>
   <stop offset="0.51" stop-color="#F5F5F5"/>
   <stop offset="1" stop-color="#4D4D4D"/>
  </linearGradient>
  <linearGradient gradientUnits="objectBoundingBox" id="SVGID_15_" x1="0" x2="1" y1="0.500026" y2="0.500026">
   <stop offset="0.01" stop-color="#4D4D4D"/>
   <stop offset="0.51" stop-color="#F5F5F5"/>
   <stop offset="1" stop-color="#4D4D4D"/>
  </linearGradient>
  <linearGradient gradientUnits="objectBoundingBox" id="SVGID_16_" x1="-1.47763e-06" x2="1.00001" y1="0.50014" y2="0.50014">
   <stop offset="0.01" stop-color="#4D4D4D"/>
   <stop offset="0.51" stop-color="#F5F5F5"/>
   <stop offset="1" stop-color="#4D4D4D"/>
  </linearGradient>
  <linearGradient gradientUnits="objectBoundingBox" id="SVGID_1_" x1="0.500152" x2="0.500152" y1="1.00001" y2="-1.2596e-05">
   <stop offset="0.01" stop-color="#474747"/>
   <stop offset="0.51" stop-color="#F5F5F5"/>
   <stop offset="1" stop-color="#474747"/>
  </linearGradient>
  <linearGradient gradientUnits="objectBoundingBox" id="SVGID_2_" x1="0.499992" x2="0.499992" y1="0.999965" y2="-2.30654e-05">
   <stop offset="0.01" stop-color="#4D4D4D"/>
   <stop offset="0.51" stop-color="#F5F5F5"/>
   <stop offset="1" stop-color="#4D4D4D"/>
  </linearGradient>
  <linearGradient gradientUnits="objectBoundingBox" id="SVGID_3_" x1="0" x2="1.00002" y1="0.5" y2="0.5">
   <stop offset="0.01" stop-color="#4D4D4D"/>
   <stop offset="0.51" stop-color="#F5F5F5"/>
   <stop offset="1" stop-color="#4D4D4D"/>
  </linearGradient>
  <radialGradient cx="0.500016" cy="0.500087" fx="0.500016" fy="0.500087" gradientUnits="objectBoundingBox" id="SVGID_4_" r="0.500573">
   <stop offset="0.28" stop-color="#F5F5F5"/>
   <stop offset="1" stop-color="#575757"/>
  </radialGradient>
  <linearGradient gradientUnits="objectBoundingBox" id="SVGID_5_" x1="0.5" x2="0.499999" y1="1" y2="-8.91615e-06">
   <stop offset="0.01" stop-color="#3D3D3D"/>
   <stop offset="0.51" stop-color="#F5F5F5"/>
   <stop offset="1" stop-color="#575757"/>
  </linearGradient>
  <linearGradient gradientUnits="objectBoundingBox" id="SVGID_6_" x1="0.5" x2="0.5" y1="1.00002" y2="-1.61173e-06">
   <stop offset="0.01" stop-color="#4D4D4D"/>
   <stop offset="0.51" stop-color="#F5F5F5"/>
   <stop offset="1" stop-color="#4D4D4D"/>
  </linearGradient>
  <linearGradient gradientUnits="objectBoundingBox" id="SVGID_7_" x1="-2.97009e-06" x2="1.00001" y1="0.500021" y2="0.500021">
   <stop offset="0.01" stop-color="#4D4D4D"/>
   <stop offset="0.51" stop-color="#F5F5F5"/>
   <stop offset="1" stop-color="#4D4D4D"/>
  </linearGradient>
  <linearGradient gradientUnits="objectBoundingBox" id="SVGID_8_" x1="-1.49e-06" x2="0.999994" y1="0.500039" y2="0.500039">
   <stop offset="0.01" stop-color="#4D4D4D"/>
   <stop offset="0.51" stop-color="#F5F5F5"/>
   <stop offset="1" stop-color="#4D4D4D"/>
  </linearGradient>
  <linearGradient gradientUnits="objectBoundingBox" id="SVGID_9_" x1="-2.97005e-06" x2="0.999994" y1="0.500062" y2="0.500062">
   <stop offset="0.01" stop-color="#4D4D4D"/>
   <stop offset="0.51" stop-color="#F5F5F5"/>
   <stop offset="1" stop-color="#4D4D4D"/>
  </linearGradient>
 </defs>
 <metadata>
  <atv:parameter behavior="optional" defaultvalue="SYSTEM.GLOBALS.Color_Global_1" desc="Color" name="Color" substitute="$Color$" valuetype="global"/>
  <atv:parameter behavior="optional" defaultvalue="SYSTEM.GLOBALS.Maintenance_Electric_Motor" desc="Global Maintenance" name="Global_Maintenance" valuetype="global"/>
  <atv:gridconfig enabled="true" gridstyle="lines" height="20" width="20"/>
  <atv:snapconfig enabled="true" height="1" width="1"/>
 </metadata>
 <text atv:refpx="121.738" atv:refpy="27.984" fill="$Color$" font-family="Arial" font-size="14" font-weight="bold" id="Title" x="100.5" y="33.484">Name</text>
 <svg atv:refpx="108" atv:refpy="174.486" height="30" id="id_2" transform="matrix(1,0,0,0.6667,0,0)" width="80" x="68" xlink:href="SYSTEM.LIBRARY.ATVISE.OBJECTDISPLAYS.Advanced.button_switch" y="246.72">
  <atv:argument name="base" prefix="base" value=".Variables.OnOff"/>
  <atv:argument name="labelOn" value="T{Stop}"/>
  <atv:argument name="labelOff" value="T{Start}"/>
  <atv:overwrite height="18.001" id="id_6" transform="matrix(1,0,0,1.4999,0,0)"/>
  <atv:overwrite id="button_label" transform="matrix(1,0,0,1.4999,0,0)" y="14.5"/>
  <atv:overwrite id="button_symbol_off" transform="matrix(1,0,0,1.4999,0,0)" y="0"/>
  <atv:overwrite id="button_symbol_on" transform="matrix(1,0,0,1.4999,0,0)" y="0"/>
  <atv:overwrite height="16.001" id="blinking_frame" transform="matrix(1,0,0,1.4999,0,0)"/>
  <atv:overwrite height="16.001" id="button_stroke" transform="matrix(1,0,0,1.4999,0,0)"/>
  <atv:overwrite height="18.001" id="button_bg" transform="matrix(1,0,0,1.4999,0,0)"/>
  <atv:overwrite height="20.001" id="outer_frame" transform="matrix(1,0,0,1.4999,0,0)"/>
 </svg>
 <text atv:refpx="90.123" atv:refpy="153.984" fill="#195c88" font-family="Arial" font-size="12" font-weight="bold" id="id_49" x="72.967" y="158.484">On/Off</text>
 <polygon atv:refpx="63.671" atv:refpy="38.519" fill="#fdf90a" id="alert_increasing" points="51.67,50.518 75.67,50.518 63.003,26.518" stroke="#000000" stroke-width="1"/>
 <g atv:refpx="24.062" atv:refpy="168.546" id="maintenance" transform="matrix(1,0,0,1,-0.5819,13.9015)">
  <rect atv:refpx="46.171" atv:refpy="204.643" fill="#2b9de8" height="24.544" id="id_39" stroke="#000000" stroke-width="1" transform="matrix(0.7071,-0.7071,0.7071,0.7071,0,0)" width="24.544" x="-104.196" y="114.505"/>
  <text atv:refpx="28" atv:refpy="149.5" fill="#000000" font-family="Arial" font-size="14" id="id_40" x="18.5" y="160">M</text>
 </g>
 <polygon atv:refpx="11.207" atv:refpy="41.103" fill="#fdbf21" id="alert_decreasing" points="25.872,29.102 1.871,29.102 14.536,53.103" stroke="#000000" stroke-width="1"/>
 <text atv:refpx="64.671" atv:refpy="43.019" fill="#000000" font-family="Arial" font-size="14" font-weight="bold" id="alertC_text" text-anchor="end" x="66.171" y="47.519">1</text>
 <text atv:refpx="14.459" atv:refpy="38.101" fill="#000000" font-family="Arial" font-size="14" font-weight="bold" id="alertD_text" x="10.959" y="42.601">1</text>
 <rect atv:refpx="9.088" atv:refpy="-57.049" fill="#93060a" fill-opacity="0" height="42" id="click_area_alertC" stroke="none" stroke-width="0" width="28" x="50" y="11.484"/>
 <rect atv:refpx="14" atv:refpy="43.484" fill="#93060a" fill-opacity="0" height="42" id="click_area_alertD" stroke="none" stroke-width="0" width="28" x="0" y="24.484"/>
 <polygon atv:refpx="60.419" atv:refpy="82.021" fill="#fdf90a" id="alert_increasing_min" points="75.084,70.018 51.082,70.018 63.748,94.018" stroke="#000000" stroke-width="1"/>
 <text atv:refpx="63.671" atv:refpy="79.019" fill="#000000" font-family="Arial" font-size="14" font-weight="bold" id="alertC_text_min" x="60.171" y="83.519">1</text>
 <polygon atv:refpx="14.459" atv:refpy="81.601" fill="#fdbf21" id="alert_decreasing_min" points="2.458,93.601 26.458,93.601 13.79,69.601" stroke="#000000" stroke-width="1"/>
 <text atv:refpx="15" atv:refpy="85.984" fill="#000000" font-family="Arial" font-size="14" font-weight="bold" id="alertD_text_min" text-anchor="end" x="16.5" y="90.484">1</text>
 <rect atv:refpx="-40.912" atv:refpy="-13.049" fill="#93060a" fill-opacity="0" height="42" id="click_area_alertD_min" stroke="none" stroke-width="0" width="28" x="0" y="55.484"/>
 <g atv:refpx="36.5" atv:refpy="61.484" id="Ind_Bar" transform="matrix(1,0,0,1,-2,-7.516)">
  <rect atv:refpx="38.5" atv:refpy="69" fill="#626262" height="77.366" id="Barra_Ind2" rx="7" ry="7" stroke="#000000" stroke-width="1" width="14" x="31.5" y="30.317"/>
  <path atv:refpx="38.496" atv:refpy="36.976" d="M31.826,43.257L45.178,43.257L45.08,36.1C45.08,36.1 44.046,30.754 38.676,30.694C33.305,30.633 31.876,35.603 31.876,35.603C31.876,35.603 31.777,43.318 31.826,43.257" fill="#b5b5b5" id="id_19" stroke="#000000" stroke-width="0"/>
  <path atv:refpx="38.533" atv:refpy="100.982" d="M45.204,94.701L31.852,94.701L31.95,101.858C31.95,101.858 32.985,107.205 38.355,107.265C43.726,107.324 45.154,102.356 45.154,102.356C45.154,102.356 45.252,94.641 45.204,94.701" fill="#b5b5b5" id="id_20" stroke="#000000" stroke-width="0"/>
 </g>
 <rect atv:refpx="49.396" atv:refpy="14.695" fill="#bd070d" height="23" id="alarm_square" rx="1.855" ry="1.987" stroke="#000000" stroke-width="1" text-anchor="middle" width="23" x="37.446" y="2.569"/>
 <text atv:refpx="-20.554" atv:refpy="-10.716" fill="#000000" font-family="Arial" font-size="14" font-weight="bold" id="alarm_text" text-anchor="middle" x="48.946" y="19.07">1</text>
 <rect atv:refpx="-3.405" atv:refpy="-49.206" fill="#93060a" fill-opacity="0" height="28" id="click_area_alarm" stroke="none" stroke-width="0" width="28" x="34.879" y="0"/>
 <rect atv:refpx="49.102" atv:refpy="109.129" fill="#bd070d" height="23" id="alarm_square_min" rx="1.855" ry="1.987" stroke="#000000" stroke-width="1" text-anchor="middle" width="23" x="37.152" y="97.003"/>
 <text atv:refpx="-20.848" atv:refpy="83.718" fill="#000000" font-family="Arial" font-size="14" font-weight="bold" id="alarm_text_min" text-anchor="middle" x="48.652" y="113.504">1</text>
 <rect atv:refpx="-3.983" atv:refpy="45.512" fill="#93060a" fill-opacity="0" height="28" id="click_area_alarm_min" stroke="none" stroke-width="0" width="28" x="34.301" y="94.718"/>
 <rect atv:refpx="63" atv:refpy="84.484" fill="#93060a" fill-opacity="0" height="42" id="click_area_alertC_min" stroke="none" stroke-width="0" width="28" x="49" y="65.484"/>
 <script atv:desc="" atv:href="SYSTEM.LIBRARY.PROJECT.DISPLAYSCRIPTS.atvise_Advanced_Objects_Display_Scripts.AAA_Principal_Display_Script" atv:name="" atv:type="text/ecmascript"/>
 <script atv:desc="" atv:name="" type="text/ecmascript"><![CDATA[












]]></script>
 <g atv:refpx="150.208" atv:refpy="86.203" id="Image1" transform="matrix(1.2391,0,0,1.2391,-36.7134,-20.4704)">
  <g atv:refpx="191.28" atv:refpy="91.496" id="Group_Shaft" transform="matrix(1,0,0,1,94.661,49.663)">
   <path atv:refpx="83.162" atv:refpy="41.833" d="M81.191,49.772L81.191,33.894L85.132,33.894L85.132,49.772Z" fill="url(#SVGID_1_)" id="id_0" stroke="#4C4C4C" stroke-width="0.25"/>
   <path atv:refpx="98.76" atv:refpy="41.834" d="M112.047,46.169L112.047,37.498L85.473,37.498L85.473,46.169Z" fill="url(#SVGID_2_)" id="id_1" stroke="#4C4C4C" stroke-width="0.25"/>
  </g>
  <g atv:refpx="137.116" atv:refpy="58.109" id="Group_Ring" transform="matrix(1,0,0,1,94.661,49.663)">
   <path atv:refpx="42.455" atv:refpy="8.446" d="M41.667,10.247L41.667,16.555L43.469,16.555L43.469,13.514L43.469,10.247L46.172,8.445L47.41,5.405L46.172,1.801L42.568,0.337L38.964,1.801L37.5,5.405L38.626,8.445Z" fill="url(#SVGID_3_)" id="id_3" stroke="#4C4C4C" stroke-width="0.25"/>
   <path atv:refpx="42.455" atv:refpy="5.237" d="M42.568,2.365L40.428,3.041L39.302,5.405L40.428,7.545L42.568,8.108L44.708,7.545L45.608,5.405L44.708,3.041Z" fill="url(#SVGID_4_)" id="id_4" stroke="#4C4C4C" stroke-width="0.25"/>
  </g>
  <g atv:refpx="135.427" atv:refpy="91.157" id="Group_MotorBody" transform="matrix(1,0,0,1,94.661,49.663)">
   <path atv:refpx="46.002" atv:refpy="41.777" d="M77.927,69.816L80.291,68.916L81.191,66.776L81.191,16.778L80.291,14.751L77.927,13.738L12.615,13.738L10.813,41.665L12.615,69.816Z" fill="url(#SVGID_5_)" id="id_5" stroke="#4C4C4C" stroke-width="0.25"/>
   <path atv:refpx="6.646" atv:refpy="41.494" d="M12.953,10.472L8.672,10.472L5.745,11.71L3.042,14.751L1.24,19.143L0.339,24.885L0.339,41.663L0.339,58.44L1.241,63.846L3.043,68.35L5.746,71.277L8.674,72.517L12.953,72.517L11.713,41.663Z" fill="url(#SVGID_6_)" id="id_7" stroke="#4C4C4C" stroke-width="0.25"/>
  </g>
  <g atv:refpx="139.932" atv:refpy="88.681" id="Group_Heat_Sink" transform="matrix(1,0,0,1,94.661,49.663)">
   <path atv:refpx="45.721" atv:refpy="63.567" d="M12.052,61.145L12.277,65.988L78.49,65.988L79.39,64.974L74.886,61.145Z" fill="url(#SVGID_7_)" id="id_8" stroke="#4C4C4C" stroke-width="0.25"/>
   <path atv:refpx="45.834" atv:refpy="14.582" d="M12.615,12.049L12.277,17.116L77.927,17.116L79.391,16.216L76.688,12.612L75.225,12.049Z" fill="url(#SVGID_8_)" id="id_9" stroke="#4C4C4C" stroke-width="0.25"/>
   <path atv:refpx="45.721" atv:refpy="20.1" d="M12.277,17.679L12.052,22.52L78.828,22.52L79.391,21.282L77.928,18.918L74.887,17.68Z" fill="url(#SVGID_9_)" id="id_10" stroke="#4C4C4C" stroke-width="0.25"/>
   <path atv:refpx="45.553" atv:refpy="25.449" d="M12.052,23.647L11.714,27.25L78.828,27.25L79.391,26.688L75.225,23.647Z" fill="url(#SVGID_10_)" id="id_11" stroke="#4C4C4C" stroke-width="0.25"/>
   <path atv:refpx="45.383" atv:refpy="31.192" d="M11.714,29.39L11.376,32.994L78.828,32.994L79.391,32.317L74.887,29.389Z" fill="url(#SVGID_11_)" id="id_12" stroke="#4C4C4C" stroke-width="0.25"/>
   <path atv:refpx="45.27" atv:refpy="36.261" d="M11.151,34.796L11.151,37.725L78.49,37.725L79.39,37.162L74.886,34.798Z" fill="url(#SVGID_12_)" id="id_13" stroke="#4C4C4C" stroke-width="0.25"/>
   <path atv:refpx="45.271" atv:refpy="41.666" d="M10.813,42.903L10.813,41.665L10.813,40.426L75.225,40.426L79.729,42.905L78.49,42.905Z" fill="url(#SVGID_13_)" id="id_14" stroke="#4C4C4C" stroke-width="0.25"/>
   <path atv:refpx="45.271" atv:refpy="47.352" d="M11.151,45.831L11.376,48.872L78.828,48.872L79.391,48.196L74.887,45.83Z" fill="url(#SVGID_14_)" id="id_15" stroke="#4C4C4C" stroke-width="0.25"/>
   <path atv:refpx="45.102" atv:refpy="52.587" d="M11.376,50.674L11.713,54.502L78.49,54.502L78.827,53.939L74.886,50.672Z" fill="url(#SVGID_15_)" id="id_16" stroke="#4C4C4C" stroke-width="0.25"/>
   <path atv:refpx="45.552" atv:refpy="58.442" d="M11.714,56.302L12.052,60.581L78.49,60.581L79.39,59.681L74.886,56.302Z" fill="url(#SVGID_16_)" id="id_17" stroke="#4C4C4C" stroke-width="0.25"/>
  </g>
  <g atv:refpx="135.71" atv:refpy="100.788" id="Group_WireBox" transform="matrix(1,0,0,1,94.661,49.663)">
   <path atv:refpx="40.147" atv:refpy="50.617" d="M31.758,38.061L35.699,38.061L39.528,38.061L43.469,38.061L47.41,38.061L49.437,44.367L50,50.674L49.437,56.981L47.41,63.173L43.468,63.173L39.527,63.173L35.698,63.173L31.757,63.173L30.856,56.981L30.293,50.674L30.856,44.367Z" id="id_18" stroke="#4C4C4C" stroke-width="0.25"/>
   <path atv:refpx="41.95" atv:refpy="51.576" d="M33.222,38.962L37.163,38.962L41.104,38.962L44.933,38.962L48.874,38.962L51.014,45.27L51.803,51.576L51.014,57.882L48.874,64.19L44.933,64.19L41.104,64.19L37.163,64.19L33.222,64.19L32.32,57.882L32.095,51.576L32.32,45.27Z" fill="#F0F0F0" id="id_21" stroke="#4C4C4C" stroke-width="0.25"/>
  </g>
 </g>
 <rect atv:refpx="152" atv:refpy="74" fill="#000000" fill-opacity="0" height="122" id="click_area" stroke="#0000ff" stroke-width="0" width="144" x="80" y="13"/>
</svg>
