<?xml version='1.0' encoding='UTF-8' standalone='no'?>
<svg height="295" version="1.2" width="170" xmlns="http://www.w3.org/2000/svg" xmlns:atv="http://webmi.atvise.com/2007/svgext" xmlns:xlink="http://www.w3.org/1999/xlink">
 <defs>
  <linearGradient gradientUnits="objectBoundingBox" id="id_33_fill_gradient" spreadMethod="reflect" x1="0.0675676" x2="0.581081" y1="1" y2="1">
   <stop offset="0" stop-color="#999999"/>
   <stop offset="1" stop-color="#e5e5e5"/>
  </linearGradient>
  <linearGradient gradientUnits="objectBoundingBox" id="id_34_fill_gradient" spreadMethod="reflect" x1="-0.135135" x2="0.405405" y1="0.986486" y2="0.972973">
   <stop offset="0" stop-color="#999999"/>
   <stop offset="1" stop-color="#e5e5e5"/>
  </linearGradient>
  <linearGradient gradientUnits="objectBoundingBox" id="id_41_fill_gradient" spreadMethod="reflect" x1="-0.135135" x2="0.405405" y1="1" y2="0.972973">
   <stop offset="0" stop-color="#999999"/>
   <stop offset="1" stop-color="#e5e5e5"/>
  </linearGradient>
  <linearGradient gradientUnits="objectBoundingBox" id="id_42_fill_gradient" spreadMethod="reflect" x1="-0.135135" x2="0.405405" y1="0.986486" y2="0.972973">
   <stop offset="0" stop-color="#999999"/>
   <stop offset="1" stop-color="#e5e5e5"/>
  </linearGradient>
  <radialGradient cx="0.5" cy="0.5" fx="0.5" fy="0.5" gradientUnits="objectBoundingBox" id="id_42_stroke_gradient" r="1">
   <stop offset="0" stop-color="#000000"/>
   <stop offset="1" stop-color="#ffffff"/>
  </radialGradient>
  <linearGradient gradientUnits="objectBoundingBox" id="id_43_fill_gradient" spreadMethod="reflect" x1="-0.135135" x2="0.405405" y1="1" y2="0.972973">
   <stop offset="0" stop-color="#999999"/>
   <stop offset="1" stop-color="#e5e5e5"/>
  </linearGradient>
  <radialGradient cx="0.5" cy="0.5" fx="0.5" fy="0.5" gradientUnits="objectBoundingBox" id="id_44_fill_gradient" r="0.514579">
   <stop offset="0.6088709677419355" stop-color="#e4e4e4"/>
   <stop offset="1" stop-color="#9a9a9a"/>
  </radialGradient>
  <radialGradient cx="0.5" cy="0.5" fx="0.5" fy="0.5" gradientUnits="objectBoundingBox" id="id_7_fill_gradient" r="0.514579">
   <stop offset="0.6088709677419355" stop-color="#e4e4e4"/>
   <stop offset="1" stop-color="#9a9a9a"/>
  </radialGradient>
  <linearGradient gradientUnits="objectBoundingBox" id="linear_0" x1="0" x2="1" y1="0" y2="1">
   <stop offset="0" stop-color="#000000"/>
   <stop offset="1" stop-color="#000000" stop-opacity="0"/>
  </linearGradient>
  <linearGradient gradientUnits="objectBoundingBox" id="SVGID_10_" x1="-0.000148525" x2="0.99982" y1="0.499965" y2="0.499965">
   <stop offset="0.17" stop-color="#4D4D4D"/>
   <stop offset="0.23" stop-color="#5A5A5A"/>
   <stop offset="0.34" stop-color="#7D7D7D"/>
   <stop offset="0.48" stop-color="#B2B2B2"/>
   <stop offset="0.57" stop-color="#A8A8A8"/>
   <stop offset="0.73" stop-color="#8B8B8B"/>
   <stop offset="0.94" stop-color="#5C5C5C"/>
   <stop offset="1" stop-color="#4D4D4D"/>
  </linearGradient>
  <linearGradient gradientUnits="objectBoundingBox" id="SVGID_11_" x1="0" x2="0.999992" y1="0.499686" y2="0.499686">
   <stop offset="0.17" stop-color="#4D4D4D"/>
   <stop offset="0.23" stop-color="#5A5A5A"/>
   <stop offset="0.34" stop-color="#7D7D7D"/>
   <stop offset="0.48" stop-color="#B2B2B2"/>
   <stop offset="0.57" stop-color="#A8A8A8"/>
   <stop offset="0.73" stop-color="#8B8B8B"/>
   <stop offset="0.94" stop-color="#5C5C5C"/>
   <stop offset="1" stop-color="#4D4D4D"/>
  </linearGradient>
  <linearGradient gradientUnits="objectBoundingBox" id="SVGID_12_" x1="-0.000159151" x2="0.999873" y1="0.499976" y2="0.499976">
   <stop offset="0.17" stop-color="#4D4D4D"/>
   <stop offset="0.23" stop-color="#5A5A5A"/>
   <stop offset="0.34" stop-color="#7D7D7D"/>
   <stop offset="0.48" stop-color="#B2B2B2"/>
   <stop offset="0.57" stop-color="#A8A8A8"/>
   <stop offset="0.73" stop-color="#8B8B8B"/>
   <stop offset="0.94" stop-color="#5C5C5C"/>
   <stop offset="1" stop-color="#4D4D4D"/>
  </linearGradient>
  <linearGradient gradientUnits="objectBoundingBox" id="SVGID_13_" x1="-3.95757e-05" x2="0.999984" y1="0.500503" y2="0.500503">
   <stop offset="0.17" stop-color="#4D4D4D"/>
   <stop offset="0.23" stop-color="#5A5A5A"/>
   <stop offset="0.34" stop-color="#7D7D7D"/>
   <stop offset="0.48" stop-color="#B2B2B2"/>
   <stop offset="0.57" stop-color="#A8A8A8"/>
   <stop offset="0.73" stop-color="#8B8B8B"/>
   <stop offset="0.94" stop-color="#5C5C5C"/>
   <stop offset="1" stop-color="#4D4D4D"/>
  </linearGradient>
  <linearGradient gradientUnits="objectBoundingBox" id="SVGID_1_" x1="2.80483e-06" x2="1" y1="0.5" y2="0.5">
   <stop offset="0" stop-color="#383838"/>
   <stop offset="0.5" stop-color="#ECECEC"/>
   <stop offset="0.57" stop-color="#D9D9D9"/>
   <stop offset="0.71" stop-color="#A8A8A8"/>
   <stop offset="0.92" stop-color="#5A5A5A"/>
   <stop offset="1" stop-color="#383838"/>
  </linearGradient>
  <linearGradient gradientUnits="objectBoundingBox" id="SVGID_2_" x1="-5.34852e-06" x2="0.999996" y1="0.500015" y2="0.500015">
   <stop offset="0.06" stop-color="#808080"/>
   <stop offset="0.13" stop-color="#8D8D8D"/>
   <stop offset="0.28" stop-color="#B0B0B0"/>
   <stop offset="0.48" stop-color="#E8E8E8"/>
   <stop offset="0.48" stop-color="#EBEBEB"/>
   <stop offset="0.57" stop-color="#E0E0E0"/>
   <stop offset="0.72" stop-color="#C3C3C3"/>
   <stop offset="0.92" stop-color="#949494"/>
   <stop offset="1" stop-color="#808080"/>
  </linearGradient>
  <linearGradient gradientUnits="objectBoundingBox" id="SVGID_3_" x1="0.0132289" x2="0.961723" y1="1.43718" y2="-0.523291">
   <stop offset="0.29" stop-color="#F7F7F7"/>
   <stop offset="0.38" stop-color="#ECECEC"/>
   <stop offset="0.52" stop-color="#CFCFCF"/>
   <stop offset="0.71" stop-color="#A0A0A0"/>
   <stop offset="0.94" stop-color="#5F5F5F"/>
   <stop offset="1" stop-color="#4D4D4D"/>
  </linearGradient>
  <linearGradient gradientUnits="objectBoundingBox" id="SVGID_4_" x1="0.984938" x2="0.0397305" y1="1.44782" y2="-0.461717">
   <stop offset="0.29" stop-color="#F7F7F7"/>
   <stop offset="0.38" stop-color="#ECECEC"/>
   <stop offset="0.52" stop-color="#CFCFCF"/>
   <stop offset="0.71" stop-color="#A0A0A0"/>
   <stop offset="0.94" stop-color="#5F5F5F"/>
   <stop offset="1" stop-color="#4D4D4D"/>
  </linearGradient>
  <linearGradient gradientUnits="objectBoundingBox" id="SVGID_5_" x1="0.499998" x2="0.499998" y1="2.24065e-05" y2="1">
   <stop offset="0" stop-color="#C8C8C8"/>
   <stop offset="0.29" stop-color="#B1B1B1"/>
   <stop offset="0.91" stop-color="#757575"/>
   <stop offset="1" stop-color="#6C6C6C"/>
  </linearGradient>
  <linearGradient gradientUnits="objectBoundingBox" id="SVGID_6_" x1="-9.45716e-06" x2="1.00002" y1="0.5" y2="0.5">
   <stop offset="0" stop-color="#383838"/>
   <stop offset="0.45" stop-color="#ECECEC"/>
   <stop offset="0.55" stop-color="#D9D9D9"/>
   <stop offset="0.76" stop-color="#A8A8A8"/>
   <stop offset="0.77" stop-color="#A6A6A6"/>
   <stop offset="1" stop-color="#383838"/>
  </linearGradient>
  <linearGradient gradientUnits="objectBoundingBox" id="SVGID_7_" x1="7.05467e-06" x2="0.999993" y1="0.499944" y2="0.499944">
   <stop offset="0" stop-color="#383838"/>
   <stop offset="0.45" stop-color="#ECECEC"/>
   <stop offset="0.55" stop-color="#D9D9D9"/>
   <stop offset="0.76" stop-color="#A8A8A8"/>
   <stop offset="0.77" stop-color="#A6A6A6"/>
   <stop offset="1" stop-color="#383838"/>
  </linearGradient>
  <linearGradient gradientUnits="objectBoundingBox" id="SVGID_8_" x1="1.89143e-05" x2="1.00004" y1="0.5" y2="0.5">
   <stop offset="0" stop-color="#383838"/>
   <stop offset="0.45" stop-color="#ECECEC"/>
   <stop offset="0.55" stop-color="#D9D9D9"/>
   <stop offset="0.76" stop-color="#A8A8A8"/>
   <stop offset="0.77" stop-color="#A6A6A6"/>
   <stop offset="1" stop-color="#383838"/>
  </linearGradient>
  <linearGradient gradientUnits="objectBoundingBox" id="SVGID_9_" x1="2.82187e-05" x2="1.00001" y1="0.499944" y2="0.499944">
   <stop offset="0" stop-color="#383838"/>
   <stop offset="0.45" stop-color="#ECECEC"/>
   <stop offset="0.55" stop-color="#D9D9D9"/>
   <stop offset="0.76" stop-color="#A8A8A8"/>
   <stop offset="0.77" stop-color="#A6A6A6"/>
   <stop offset="1" stop-color="#383838"/>
  </linearGradient>
  <radialGradient cx="0.499789" cy="0.500127" fx="0.499789" fy="0.500127" gradientUnits="objectBoundingBox" id="radial_1" r="0.500063">
   <stop offset="0" stop-color="#E0E0E0"/>
   <stop offset="0.5" stop-color="#E0E0E0"/>
   <stop offset="1" stop-color="#595959"/>
  </radialGradient>
  <radialGradient cx="0.500042" cy="0.499911" fx="0.500042" fy="0.499911" gradientUnits="objectBoundingBox" id="radial_2" r="0.500043">
   <stop offset="0" stop-color="#E0E0E0"/>
   <stop offset="0.5" stop-color="#E0E0E0"/>
   <stop offset="1" stop-color="#595959"/>
  </radialGradient>
  <radialGradient cx="0.499848" cy="0.499978" fx="0.499848" fy="0.499978" gradientUnits="objectBoundingBox" id="radial_3" r="0.499968">
   <stop offset="0" stop-color="#E0E0E0"/>
   <stop offset="0.5" stop-color="#E0E0E0"/>
   <stop offset="1" stop-color="#595959"/>
  </radialGradient>
  <linearGradient gradientUnits="objectBoundingBox" id="linear_4" x1="0.563112" x2="0.436914" y1="1.13692" y2="-0.13513">
   <stop offset="0" stop-color="#808080"/>
   <stop offset="0.5" stop-color="#B2B2B2"/>
   <stop offset="0.6" stop-color="#D1D1D1"/>
   <stop offset="1" stop-color="#E5E5E5"/>
  </linearGradient>
  <radialGradient cx="0.5" cy="0.5" fx="0.5" fy="0.5" gradientUnits="objectBoundingBox" id="radial_5" r="0.500064">
   <stop offset="0" stop-color="#E0E0E0"/>
   <stop offset="0.5" stop-color="#BFD3F2"/>
   <stop offset="1" stop-color="#BFD3F2"/>
  </radialGradient>
  <radialGradient cx="0.499978" cy="0.5" fx="0.499978" fy="0.5" gradientUnits="objectBoundingBox" id="radial_6" r="0.500022">
   <stop offset="0" stop-color="#E0E0E0"/>
   <stop offset="0.5" stop-color="#BFD3F2"/>
   <stop offset="1" stop-color="#BFD3F2"/>
  </radialGradient>
  <radialGradient cx="0.499935" cy="0.499913" fx="0.499935" fy="0.499913" gradientUnits="objectBoundingBox" id="radial_7" r="0.500022">
   <stop offset="0" stop-color="#E0E0E0"/>
   <stop offset="0.5" stop-color="#BFD3F2"/>
   <stop offset="1" stop-color="#BFD3F2"/>
  </radialGradient>
  <radialGradient cx="0.500042" cy="0.500065" fx="0.500042" fy="0.500065" gradientUnits="objectBoundingBox" id="radial_8" r="0.500075">
   <stop offset="0" stop-color="#E0E0E0"/>
   <stop offset="0.5" stop-color="#BFD3F2"/>
   <stop offset="1" stop-color="#BFD3F2"/>
  </radialGradient>
  <radialGradient cx="0.499848" cy="0.500044" fx="0.499848" fy="0.500044" gradientUnits="objectBoundingBox" id="radial_9" r="0.528715">
   <stop offset="0" stop-color="#E0E0E0"/>
   <stop offset="0.5" stop-color="#BFD3F2"/>
   <stop offset="1" stop-color="#BFD3F2"/>
  </radialGradient>
  <radialGradient cx="0.500022" cy="0.500065" fx="0.500022" fy="0.500065" gradientUnits="objectBoundingBox" id="radial_10" r="0.499968">
   <stop offset="0" stop-color="#E0E0E0"/>
   <stop offset="0.5" stop-color="#E0E0E0"/>
   <stop offset="1" stop-color="#595959"/>
  </radialGradient>
  <radialGradient cx="0.500022" cy="0.500087" fx="0.500022" fy="0.500087" gradientUnits="objectBoundingBox" id="radial_11" r="0.500022">
   <stop offset="0" stop-color="#E0E0E0"/>
   <stop offset="0.5" stop-color="#E0E0E0"/>
   <stop offset="1" stop-color="#595959"/>
  </radialGradient>
  <radialGradient cx="0.5" cy="0.500022" fx="0.5" fy="0.500022" gradientUnits="objectBoundingBox" id="radial_12" r="0.500075">
   <stop offset="0" stop-color="#E0E0E0"/>
   <stop offset="0.5" stop-color="#E0E0E0"/>
   <stop offset="1" stop-color="#595959"/>
  </radialGradient>
  <radialGradient cx="0.500001" cy="0.499998" fx="0.500001" fy="0.499998" gradientUnits="objectBoundingBox" id="radial_13" r="0.500001">
   <stop offset="0.01" stop-color="#4D4D4D"/>
   <stop offset="0.92" stop-color="#F5F5F5"/>
   <stop offset="1" stop-color="#7A7A7A"/>
  </radialGradient>
  <linearGradient gradientUnits="objectBoundingBox" id="linear_14" x1="0.962748" x2="0.0389691" y1="0.96104" y2="0.0372706">
   <stop offset="0" stop-color="#737373"/>
   <stop offset="1" stop-color="#CCCCCC"/>
  </linearGradient>
 </defs>
 <metadata>
  <atv:parameter behavior="optional" defaultvalue="SYSTEM.GLOBALS.atvise_Advanced_Objects_Maintenance_List.Complementary_Components.Maintenance_Power_Meter" desc="Global_Maintenance" group="Maintenance" name="Global_Maintenance" valuetype="global"/>
  <atv:parameter behavior="optional" defaultvalue="SYSTEM.GLOBALS.atvise_Advanced_Objects_Maintenance_List.Complementary_Components.Maintenance_Power_Meter" desc="Global Maintenance Address" group="Maintenance" name="Global_Maintenance_Address" valuetype="string"/>
  <atv:parameter behavior="optional" defaultvalue="true" desc="Maintenance_Active" group="Maintenance" name="Maintenance" valuetype="bool"/>
  <atv:parameter behavior="optional" defaultvalue="true" desc="Icon Indicator Active" group="Alarming" name="Icon_Indicator" valuetype="bool"/>
  <atv:parameter behavior="optional" defaultvalue="" desc="Alert_Range" group="Alarming" name="Alert_Range" valuetype="number"/>
  <atv:parameter behavior="optional" defaultvalue="" desc="Notification List" group="Alarming" name="Notification_List" valuetype="global"/>
  <atv:parameter behavior="optional" defaultvalue="false" desc="Email Notification Active" group="Alarming" name="Email_Notification" valuetype="bool"/>
  <atv:parameter behavior="optional" defaultvalue="false" desc="Alertzy_Notification" group="Alarming" name="Alertzy_Notification" valuetype="bool"/>
  <atv:parameter behavior="optional" defaultvalue="SYSTEM.GLOBALS.Color_Global_1" desc="Color" group="Appereance" name="Color" substitute="$Color$" valuetype="global"/>
  <atv:parameter behavior="optional" defaultvalue="14" desc="Title Font Size" group="Appereance" name="Title_Font_Size" substitute="$FontSize$" valuetype="number"/>
  <atv:gridconfig enabled="true" gridstyle="lines" height="20" width="20"/>
  <atv:snapconfig enabled="true" height="5" width="5"/>
 </metadata>
 <text atv:refpx="125.738" atv:refpy="26.5" fill="$Color$" font-family="Arial" font-size="$FontSize$" font-weight="bold" id="Title" text-anchor="middle" x="123.5" y="32">Name</text>
 <script atv:desc="" atv:href="SYSTEM.LIBRARY.PROJECT.DISPLAYSCRIPTS.atvise_Advanced_Objects_Display_Scripts.AAA_Principal_Display_Script" atv:name="" atv:type="text/ecmascript"/>
 <script atv:desc="" atv:name="" type="text/ecmascript"/>
 <svg atv:refpx="39" atv:refpy="61.36" height="122.72" id="id_6" width="78" x="0" xlink:href="SYSTEM.LIBRARY.PROJECT.OBJECTDISPLAYS.atvise_Advanced_Objects_Complementary_Elements.Alarm_Alert_Advanced_Indicator" y="0">
  <atv:argument name="base" prefix="base"/>
 </svg>
 <svg atv:refpx="48.06" atv:refpy="153.06" height="36.12" id="id_16" width="36.12" x="30" xlink:href="SYSTEM.LIBRARY.PROJECT.OBJECTDISPLAYS.atvise_Advanced_Objects_Complementary_Elements.Maintenance_Advanced_Indicator" y="135">
  <atv:argument name="base" prefix="base"/>
 </svg>
 <g atv:refpx="124.715" atv:refpy="175.334" id="Image_1" transform="matrix(0.2309,0,0,0.2309,85,60)">
  <path atv:refpx="201" atv:refpy="726.5" d="M183,454L219,454L219,999L183,999Z" fill="#ababab" id="id_0" stroke="#4c4c4c" stroke-width="2"/>
  <path atv:refpx="201.5" atv:refpy="445.5" d="M235,433L235,448L227,460L205,465L175,460L168,449L168,433L181,428L197,426L217,426Z" fill="#ababab" id="id_1" stroke="#4c4c4c" stroke-width="2"/>
  <path atv:refpx="201.5" atv:refpy="428.5" d="M222,416L222,435L216,439L209,440L201,441L192,440L185,439L181,437L181,416Z" fill="#ababab" id="id_2" stroke="#4c4c4c" stroke-width="2"/>
  <path atv:refpx="318" atv:refpy="209" d="M295,0L344,0L344,382L295,418L292,0Z" fill="#ababab" id="id_3" stroke="#4c4c4c" stroke-width="2"/>
  <path atv:refpx="167" atv:refpy="209" d="M37,0L297,0L297,418L37,418Z" fill="#ababab" id="id_4" stroke="#4c4c4c" stroke-width="2"/>
  <path atv:refpx="210" atv:refpy="743" d="M206,490L214,487L214,999L206,999Z" fill="#fff" id="id_5" stroke="#4c4c4c" stroke-width="2"/>
  <path atv:refpx="190" atv:refpy="450.5" d="M205,447L175,441L175,460" fill="none" id="id_7" stroke="#4c4c4c" stroke-width="2"/>
  <path atv:refpx="171.5" atv:refpy="440.5" d="M175,441L168,432L168,449" fill="none" id="id_8" stroke="#4c4c4c" stroke-width="2"/>
  <path atv:refpx="231" atv:refpy="437.5" d="M235,433L227,442" fill="none" id="id_9" stroke="#4c4c4c" stroke-width="2"/>
  <path atv:refpx="216" atv:refpy="444.5" d="M227,442L205,447" fill="none" id="id_10" stroke="#4c4c4c" stroke-width="2"/>
  <path atv:refpx="216" atv:refpy="453.5" d="M227,458L227,442L205,447L205,465" fill="none" id="id_11" stroke="#4c4c4c" stroke-width="2"/>
  <path atv:refpx="234" atv:refpy="295" d="M207,248L261,248L261,342L207,342Z" fill="#000" id="id_12" stroke="#4c4c4c" stroke-width="2"/>
  <path atv:refpx="215.5" atv:refpy="185" d="M162,19L169,19L175,20L182,20L188,22L194,23L199,25L205,27L211,30L216,32L222,35L227,39L232,43L237,47L241,51L246,55L250,60L254,64L258,70L262,75L265,80L269,86L271,92L274,98L277,104L279,110L281,117L282,123L284,130L285,137L286,144L286,151L287,158L286,165L286,172L285,179L284,186L282,193L281,199L279,206L277,212L274,218L271,224L269,230L265,235L265,339L252,351L252,254L243,263L235,273L225,281L215,288L198,296L169,296L144,21L149,20L156,20Z" fill="#ababab" id="id_13" stroke="#4c4c4c" stroke-width="2"/>
  <ellipse atv:refpx="155" atv:refpy="160" cx="155" cy="160" fill="#000" id="id_14" rx="121" ry="140" stroke="#4c4c4c" stroke-width="2"/>
  <path atv:refpx="155.5" atv:refpy="319" d="M72,285L233,285L240,287L247,291L250,298L252,306L252,351L247,353L59,291L65,287Z" fill="#ababab" id="id_15" stroke="#4c4c4c" stroke-width="2"/>
  <path atv:refpx="148.5" atv:refpy="320" d="M68,287L229,287L236,289L242,293L246,300L247,308L248,353L49,353L49,308L51,300L55,293L60,289Z" fill="#ababab" id="id_17" stroke="#4c4c4c" stroke-width="2"/>
  <path atv:refpx="136.5" atv:refpy="163" d="M153,21L165,22L177,24L188,27L199,32L210,38L220,44L229,53L237,62L245,71L252,82L258,93L263,106L267,118L270,132L272,145L273,160L272,173L270,187L267,200L263,213L258,225L252,236L245,247L237,257L229,266L220,274L210,281L199,287L188,291L177,297L161,301L141,305L130,305L119,305L109,304L100,304L91,302L83,300L75,296L67,293L59,288L52,283L46,277L39,270L33,262L27,254L20,244L14,234L11,225L7,216L5,207L2,197L1,186L0,174L0,162L0,149L1,139L2,130L5,120L8,111L12,103L15,95L19,87L22,81L26,74L30,68L34,63L39,58L43,53L48,49L53,45L59,42L64,38L69,35L80,30L92,27L104,24L116,22L129,21L141,21Z" fill="#d9d9d9" id="id_18" stroke="#4c4c4c" stroke-width="2"/>
  <path atv:refpx="51.5" atv:refpy="155" d="M38,205L38,79L50,63L64,57L65,253Z" fill="#ababab" id="id_19" stroke="#4c4c4c" stroke-width="2"/>
  <path atv:refpx="91.5" atv:refpy="232.5" d="M7,166L7,178L9,191L12,204L15,217L20,229L26,241L33,252L41,263L50,272L61,281L72,287L84,293L97,297L112,299L127,299L144,297L160,291L171,285L176,279L41,191L34,182L27,175L18,170Z" fill="#fff" id="id_20" stroke="#4c4c4c" stroke-width="2"/>
  <ellipse atv:refpx="157" atv:refpy="159" cx="157" cy="159" fill="#000" id="id_21" rx="108" ry="128" stroke="#4c4c4c" stroke-width="2"/>
  <path atv:refpx="133.5" atv:refpy="93.5" d="M134,38L136,38L139,38L142,38L144,38L147,39L149,39L151,39L154,39L156,40L158,40L160,41L163,41L165,42L168,43L170,44L172,44L174,45L177,47L180,48L183,50L186,51L189,53L191,55L194,57L197,58L199,61L201,62L203,64L206,67L208,69L210,72L212,74L214,77L216,79L218,82L220,84L221,87L222,90L224,93L225,96L226,98L227,101L228,103L229,106L230,109L230,112L231,115L232,119L232,121L232,124L231,126L230,129L229,131L227,134L225,136L222,138L220,140L217,141L215,142L213,143L209,143L207,144L205,145L202,145L199,146L197,146L194,147L191,147L188,147L186,147L184,147L181,148L177,148L175,148L172,148L170,148L167,148L165,148L163,149L160,149L158,149L156,149L153,149L151,149L148,149L146,149L143,149L141,149L139,149L136,149L134,149L131,149L129,149L126,149L123,149L121,149L118,149L116,149L114,149L111,149L109,149L106,149L104,149L102,149L100,149L97,149L95,149L93,149L91,149L89,149L85,149L82,149L79,149L76,148L73,148L71,148L68,148L65,148L63,147L60,147L58,146L56,146L54,145L51,144L48,143L46,142L44,141L42,139L39,137L38,134L37,131L36,129L35,126L35,124L35,121L35,118L35,115L36,111L37,108L37,106L38,103L39,100L41,97L42,94L43,91L44,89L46,86L47,84L49,81L51,78L53,76L55,73L57,71L59,69L61,67L64,64L65,62L68,61L70,58L73,56L76,55L78,53L81,51L84,49L87,48L90,47L94,45L96,44L99,43L101,43L104,42L106,41L108,40L111,40L113,40L115,39L118,39L120,39L122,38L125,38L128,38L130,38L133,38Z" fill="#ababab" id="id_22" stroke="#4c4c4c" stroke-width="2"/>
  <ellipse atv:refpx="106" atv:refpy="81" cx="106" cy="81" fill="#ababab" id="id_23" rx="17" ry="19" stroke="#4c4c4c" stroke-width="2"/>
  <circle atv:refpx="77" atv:refpy="100" cx="77" cy="100" fill="#ababab" id="id_24" r="18" stroke="#4c4c4c" stroke-width="2"/>
  <ellipse atv:refpx="173" atv:refpy="100" cx="173" cy="100" fill="#ababab" id="id_25" rx="17" ry="19" stroke="#4c4c4c" stroke-width="2"/>
  <circle atv:refpx="142" atv:refpy="80" cx="142" cy="80" fill="#ababab" id="id_26" r="17" stroke="#4c4c4c" stroke-width="2"/>
  <path atv:refpx="70" atv:refpy="97" d="M64,93L76,101" fill="none" id="id_27" stroke="#4c4c4c" stroke-width="2"/>
  <path atv:refpx="113.5" atv:refpy="81.5" d="M106,81L121,81" fill="none" id="id_28" stroke="#4c4c4c" stroke-width="2"/>
  <path atv:refpx="149" atv:refpy="82" d="M142,79L156,85" fill="none" id="id_29" stroke="#4c4c4c" stroke-width="2"/>
  <path atv:refpx="167" atv:refpy="104.5" d="M160,109L174,100" fill="none" id="id_30" stroke="#4c4c4c" stroke-width="2"/>
  <path atv:refpx="43.5" atv:refpy="131.5" d="M44,127L47,128L48,131L47,135L44,136L41,135L39,131L41,128Z" fill="#ababab" id="id_31" stroke="#4c4c4c" stroke-width="2"/>
  <path atv:refpx="124.5" atv:refpy="142" d="M125,137L128,139L129,142L128,146L125,147L121,146L120,142L121,139Z" fill="#ababab" id="id_32" stroke="#4c4c4c" stroke-width="2"/>
  <path atv:refpx="219.5" atv:refpy="127.5" d="M220,123L223,124L224,127L223,131L220,132L217,131L215,127L217,124Z" fill="#ababab" id="id_33" stroke="#4c4c4c" stroke-width="2"/>
  <path atv:refpx="71" atv:refpy="205" d="M116,200L111,190L109,183L104,177L101,172L95,163L86,157L76,153L65,151L54,151L43,154L35,160L29,168L26,182L26,190L29,200L32,210L37,221L43,231L50,241L59,249L69,255L79,259L86,259L86,248L76,244L68,238L61,231L55,224L51,216L47,207L44,198L41,188L41,181L44,172L48,168L54,166L66,166L72,167L78,170L83,174L87,178L93,183L99,190L105,200Z" fill="#ababab" id="id_34" stroke="#4c4c4c" stroke-width="2"/>
  <path atv:refpx="164" atv:refpy="206.5" d="M160,153L153,154L147,157L141,161L135,166L131,172L127,179L125,187L122,201L132,202L137,185L141,178L146,170L151,166L157,164L165,165L177,168L185,174L190,182L192,193L192,204L190,215L186,226L183,234L177,242L171,244L165,245L151,247L149,260L166,258L175,257L184,250L190,242L195,235L199,226L202,217L205,207L206,197L205,186L202,177L198,169L192,163L184,157L175,154L170,154Z" fill="#ababab" id="id_35" stroke="#4c4c4c" stroke-width="2"/>
  <path atv:refpx="115.5" atv:refpy="220.5" d="M80,196L150,196L158,198L165,203L170,210L172,219L172,222L170,230L165,238L158,242L150,244L80,245L72,243L65,238L60,231L59,222L59,219L60,210L65,203L72,198Z" fill="#ffff14" id="id_36" stroke="#4c4c4c" stroke-width="2"/>
  <path atv:refpx="113.5" atv:refpy="235.5" d="M69,235L158,235" fill="none" id="id_37" stroke="#4c4c4c" stroke-width="2"/>
  <path atv:refpx="113.5" atv:refpy="223.5" d="M114,218L118,220L120,224L118,228L114,229L109,228L107,224L109,220Z" fill="#000" id="id_38" stroke="#4c4c4c" stroke-width="2"/>
  <path atv:refpx="114.5" atv:refpy="257" d="M74,244L155,244L155,270L74,270Z" fill="#fff" id="id_39" stroke="#4c4c4c" stroke-width="2"/>
  <path atv:refpx="29" atv:refpy="196.5" d="M9,117L6,131L4,145L3,158L3,171L4,184L6,196L9,208L12,218L16,229L21,238L26,247L32,255L37,263L43,269L49,275L55,280L48,272L41,264L35,255L29,246L24,237L19,227L15,217L12,207L9,196L7,184L6,173L5,161L6,149L7,137L9,125L12,113Z" fill="#000" id="id_40" stroke="#4c4c4c" stroke-width="2"/>
  <path atv:refpx="223.5" atv:refpy="117" d="M188,41L190,42L192,43L194,44L197,45L199,47L201,48L204,50L207,52L209,54L211,55L214,57L216,59L218,61L220,63L222,65L225,68L226,69L229,72L231,74L232,77L234,79L236,82L238,84L239,87L241,89L243,93L243,94L245,96L246,99L247,101L248,103L249,105L250,108L250,110L251,112L252,115L253,117L254,120L254,122L255,125L255,128L256,130L256,133L257,136L257,138L258,141L258,144L258,146L258,149L258,152L259,155L258,158L258,161L258,164L258,166L258,169L258,172L258,174L257,177L255,193L254,191L254,188L254,185L254,183L254,180L254,178L254,175L254,173L254,170L254,168L254,166L254,164L254,162L253,159L253,156L253,154L253,151L252,149L252,146L251,143L251,140L250,138L250,135L249,132L248,130L248,127L247,125L247,122L245,120L245,117L244,115L243,113L242,110L241,107L240,104L238,101L237,99L235,96L234,94L232,91L231,88L230,87L228,84L226,82L225,79L223,77L221,75L219,72L217,70L215,67L213,65L211,63L208,61L206,58L204,56L201,54L199,52L197,49L194,47L192,45L190,43Z" fill="#ababab" id="id_41" stroke="#4c4c4c" stroke-width="2"/>
  <path atv:refpx="78.5" atv:refpy="164.5" d="M154,296L143,299L132,302L120,303L107,302L96,299L85,296L74,291L63,285L54,279L45,270L37,262L29,251L23,241L17,230L12,218L8,205L5,192L3,178L3,164L3,150L5,136L8,123L12,110L17,98L23,87L29,76L37,67L45,57L54,49L63,42L74,37L85,31L96,28L107,26L120,26" fill="none" id="id_42" stroke="#4c4c4c" stroke-width="2"/>
  <path atv:refpx="24.5" atv:refpy="100" d="M41,66L39,67L35,71L33,74L31,77L28,80L26,82L24,85L23,88L21,92L20,94L19,98L17,101L16,104L15,107L14,111L13,114L8,134L9,132L12,125L14,121L16,117L17,113L19,108L21,104L23,100L25,96L27,91L29,87L31,83L33,79L35,75L38,70Z" fill="#fff" id="id_43" stroke="#4c4c4c" stroke-width="2"/>
  <path atv:refpx="135" atv:refpy="31.5" d="M135,22L116,23L95,27L108,26L119,27L131,27L140,29L150,31L159,33L167,37L175,41L168,34L158,28L147,24Z" fill="#fff" id="id_44" stroke="#4c4c4c" stroke-width="2"/>
  <path atv:refpx="197.5" atv:refpy="181.5" d="M201,67L213,88L221,109L227,129L230,148L231,167L230,184L227,201L222,216L216,231L209,244L201,256L192,267L183,277L173,285L164,291L154,296L168,292L182,285L194,275L205,264L215,251L224,237L231,221L237,204L240,187L241,169L241,151L238,133L233,116L225,98L215,82Z" fill="#fff" id="id_46" stroke="#4c4c4c" stroke-width="2"/>
  <path atv:refpx="253" atv:refpy="153.5" d="M258,196L258,194L259,191L259,188L260,186L260,183L261,181L261,178L262,176L262,173L262,170L262,168L262,165L262,162L262,160L262,157L262,154L262,151L262,148L262,145L262,143L262,140L261,137L261,134L260,131L260,128L259,125L259,123L258,120L257,117L256,115L255,112L248,99L244,94L245,97L247,100L247,103L248,105L249,108L250,111L251,113L252,116L253,119L254,122L254,124L254,127L255,129L255,132L256,134L256,137L256,140L256,142L257,145L257,148L257,151L257,153L257,156L257,159L257,162L257,165L257,166L257,169L257,172L256,175L256,177L256,180L256,182L255,185L255,188L255,190L254,193L254,194L253,197L253,200L252,203L251,205L251,208L250,211L249,213L253,206Z" fill="#fff" id="id_47" stroke="#4c4c4c" stroke-width="2"/>
 </g>
 <rect atv:refpx="127.5" atv:refpy="152.5" fill="#000000" fill-opacity="0" height="285" id="click_area" stroke="#0000ff" stroke-width="0" width="85" x="85" y="10"/>
</svg>
