<!DOCTYPE svg PUBLIC '-//W3C//DTD SVG 1.1//EN' 'http://www.w3.org/Graphics/SVG/1.1/DTD/svg11.dtd'>
<svg enable-background="new 0 0 112.5 88.848" height="88.847999999999999" version="1.1" width="112.5" xml:space="preserve" xmlns="http://www.w3.org/2000/svg" xmlns:atv="http://webmi.atvise.com/2007/svgext" xmlns:xlink="http://www.w3.org/1999/xlink">
 <defs>
  <linearGradient gradientUnits="objectBoundingBox" id="SVGID_1_" x1="0.499995" x2="0.499995" y1="0.99999" y2="6.11023e-06">
   <stop offset="0" stop-color="#194C4C"/>
   <stop offset="0.53" stop-color="#99CCCC"/>
   <stop offset="0.62" stop-color="#86B9B9"/>
   <stop offset="0.8" stop-color="#558888"/>
   <stop offset="1" stop-color="#194C4C"/>
  </linearGradient>
  <linearGradient gradientUnits="objectBoundingBox" id="SVGID_2_" x1="0" x2="1.00002" y1="0.500003" y2="0.500003">
   <stop offset="0" stop-color="#194C4C"/>
   <stop offset="0.53" stop-color="#99CCCC"/>
   <stop offset="0.62" stop-color="#86B9B9"/>
   <stop offset="0.8" stop-color="#558888"/>
   <stop offset="1" stop-color="#194C4C"/>
  </linearGradient>
  <linearGradient gradientUnits="objectBoundingBox" id="SVGID_3_" x1="0.499992" x2="0.499992" y1="0.999958" y2="6.34249e-05">
   <stop offset="0" stop-color="#194C4C"/>
   <stop offset="0.53" stop-color="#99CCCC"/>
   <stop offset="0.62" stop-color="#86B9B9"/>
   <stop offset="0.8" stop-color="#558888"/>
   <stop offset="1" stop-color="#194C4C"/>
  </linearGradient>
  <linearGradient gradientUnits="objectBoundingBox" id="SVGID_4_" x1="-0.000158529" x2="0.999937" y1="0.500006" y2="0.500006">
   <stop offset="0" stop-color="#194C4C"/>
   <stop offset="0.53" stop-color="#99CCCC"/>
   <stop offset="0.62" stop-color="#86B9B9"/>
   <stop offset="0.8" stop-color="#558888"/>
   <stop offset="1" stop-color="#194C4C"/>
  </linearGradient>
  <linearGradient gradientUnits="objectBoundingBox" id="SVGID_5_" x1="1.45582e-05" x2="1.00003" y1="0.499981" y2="0.499981">
   <stop offset="0" stop-color="#194C4C"/>
   <stop offset="0.53" stop-color="#99CCCC"/>
   <stop offset="0.62" stop-color="#86B9B9"/>
   <stop offset="0.8" stop-color="#558888"/>
   <stop offset="1" stop-color="#194C4C"/>
  </linearGradient>
  <linearGradient gradientUnits="objectBoundingBox" id="SVGID_6_" x1="-0.000170765" x2="0.999898" y1="0.500002" y2="0.500002">
   <stop offset="0" stop-color="#194C4C"/>
   <stop offset="0.53" stop-color="#99CCCC"/>
   <stop offset="0.62" stop-color="#86B9B9"/>
   <stop offset="0.8" stop-color="#558888"/>
   <stop offset="1" stop-color="#194C4C"/>
  </linearGradient>
  <linearGradient gradientUnits="objectBoundingBox" id="SVGID_7_" x1="-4.29676e-05" x2="0.999943" y1="0.499981" y2="0.499981">
   <stop offset="0" stop-color="#194C4C"/>
   <stop offset="0.53" stop-color="#99CCCC"/>
   <stop offset="0.62" stop-color="#86B9B9"/>
   <stop offset="0.8" stop-color="#558888"/>
   <stop offset="1" stop-color="#194C4C"/>
  </linearGradient>
  <linearGradient gradientUnits="objectBoundingBox" id="SVGID_8_" x1="-4.4405e-05" x2="0.999911" y1="0.500038" y2="0.500038">
   <stop offset="0" stop-color="#383838"/>
   <stop offset="0.5" stop-color="#ECECEC"/>
   <stop offset="0.57" stop-color="#D9D9D9"/>
   <stop offset="0.71" stop-color="#A8A8A8"/>
   <stop offset="0.92" stop-color="#5A5A5A"/>
   <stop offset="1" stop-color="#383838"/>
  </linearGradient>
  <linearGradient gradientUnits="objectBoundingBox" id="SVGID_9_" x1="0" x2="1.00044" y1="0.500078" y2="0.500078">
   <stop offset="0" stop-color="#383838"/>
   <stop offset="0.5" stop-color="#ECECEC"/>
   <stop offset="0.57" stop-color="#D9D9D9"/>
   <stop offset="0.71" stop-color="#A8A8A8"/>
   <stop offset="0.92" stop-color="#5A5A5A"/>
   <stop offset="1" stop-color="#383838"/>
  </linearGradient>
 </defs>
 <metadata>
  <atv:gridconfig enabled="false" gridstyle="lines" height="20" width="20"/>
  <atv:snapconfig enabled="false" height="10" width="10"/>
 </metadata>
 <g atv:refpx="56.5" atv:refpy="44.674" id="id_34">
  <g atv:refpx="58.117" atv:refpy="58.331" id="Group_BoilerBody">
   <path atv:refpx="66.61" atv:refpy="59.57" d="M23.312,32.769L109.908,32.769L109.908,86.37L23.312,86.37Z" fill="#003333" id="id_0"/>
   <path atv:refpx="69.144" atv:refpy="57.318" d="M25.79,32.769L112.497,32.769L112.497,81.866L25.79,81.866Z" fill="url(#SVGID_1_)" id="id_1"/>
   <path atv:refpx="69.144" atv:refpy="57.318" d="M25.79,32.769L112.497,32.769L112.497,81.866L25.79,81.866Z" fill="none" id="id_2"/>
   <path atv:refpx="8.27" atv:refpy="38.456" d="M3.237,30.291L13.302,30.291L13.302,46.62L3.237,46.62Z" fill="#336666" id="id_3"/>
  </g>
  <g atv:refpx="6.652" atv:refpy="30.236" id="Group_EqualizingPipe">
   <path atv:refpx="2.31" atv:refpy="31.985" d="M0.002,51.35L0.002,12.619L4.619,12.619L4.619,51.35Z" fill="url(#SVGID_2_)" id="id_4"/>
   <path atv:refpx="6.652" atv:refpy="11.486" d="M13.302,13.851L0.001,13.851L0.001,9.121L13.302,9.121Z" fill="url(#SVGID_3_)" id="id_5"/>
  </g>
  <g atv:refpx="9.691" atv:refpy="73.59" id="Group_Door">
   <path atv:refpx="9.691" atv:refpy="73.59" d="M4.619,58.331L14.763,58.331L14.763,88.848L4.619,88.848Z" fill="#94C7C7" id="id_6"/>
  </g>
  <g atv:refpx="13.716" atv:refpy="46.87" id="Group_ForceDraughtFanCompartment">
   <path atv:refpx="17.457" atv:refpy="46.62" d="M11.601,4.392L23.312,4.392L23.312,88.848L11.601,88.848Z" fill="#8ABDBD" id="id_7"/>
   <path atv:refpx="0.5" atv:refpy="0.5" d="M0,0" fill="none" id="id_8"/>
   <path atv:refpx="8.11" atv:refpy="73.59" d="M4.619,58.331L11.6,58.331L11.6,88.848L4.619,88.848" fill="none" id="id_9"/>
   <path atv:refpx="8.392" atv:refpy="45.784" d="M6.871,32.769C6.871,32.769 9.991,34.716 9.912,46.215C9.833,57.715 9.124,58.799 9.124,58.799" fill="none" id="id_10" stroke="#4C4C4C" stroke-width="0.5"/>
   <path atv:refpx="9.123" atv:refpy="48.037" d="M6.871,37.274C6.871,37.274 11.345,38.929 11.375,46.845C11.403,54.132 10.415,58.799 10.415,58.799" fill="none" id="id_11" stroke="#4C4C4C" stroke-width="0.5"/>
  </g>
  <g atv:refpx="23.489" atv:refpy="55.091" id="Group_ControlPanel">
   <path atv:refpx="22.671" atv:refpy="55.103" d="M9.349,74.772C9.349,74.772 26.5,75.268 32.771,69.071C35.746,66.132 36.334,61.842 35.833,57.318C35.631,55.494 33.583,35.425 33.583,35.425" fill="none" id="id_12" stroke="#4C4C4C" stroke-width="0.5"/>
   <path atv:refpx="21.93" atv:refpy="53.787" d="M9.349,70.268C9.349,70.268 27.032,71.112 33.077,64.084C35.278,61.525 34.354,54.238 34.108,51.847C33.733,48.207 32.772,37.274 32.772,37.274" fill="none" id="id_13" stroke="#4C4C4C" stroke-width="0.5"/>
   <path atv:refpx="35.079" atv:refpy="59.57" d="M32.771,56.079L37.388,56.079L37.388,63.06L32.771,63.06Z" fill="#CCCCCC" id="id_14" stroke="#FFFFFF" stroke-width="0.5"/>
   <path atv:refpx="35.079" atv:refpy="59.508" d="M32.771,63.061L37.388,63.061L37.388,55.956" fill="none" id="id_15" stroke="#4C4C4C" stroke-width="0.5"/>
   <path atv:refpx="35.206" atv:refpy="59.697" d="M32.771,63.315L32.771,56.08L37.641,56.08" fill="none" id="id_16" stroke="#FFFFFF" stroke-width="0.5"/>
  </g>
  <g atv:refpx="65.596" atv:refpy="29.278" id="Group_SafetyValves">
   <path atv:refpx="76.013" atv:refpy="33.726" d="M74.436,58.331L74.436,9.121L77.59,9.121L77.59,58.331Z" fill="url(#SVGID_4_)" id="id_17"/>
   <path atv:refpx="76.181" atv:refpy="33.839" d="M72.747,44.367L72.747,23.31L79.616,23.31L79.616,44.367L72.747,44.367Z" fill="url(#SVGID_5_)" id="id_18"/>
   <path atv:refpx="55.068" atv:refpy="33.839" d="M51.577,44.367L51.577,23.31L58.559,23.31L58.559,44.367L51.577,44.367Z" fill="#4C7F7F" id="id_19"/>
   <path atv:refpx="55.067" atv:refpy="33.839" d="M52.252,44.367L52.252,23.31L57.882,23.31L57.882,44.367L52.252,44.367Z" fill="#5C8F8F" id="id_20"/>
   <path atv:refpx="55.067" atv:refpy="33.839" d="M52.928,44.367L52.928,23.31L57.206,23.31L57.206,44.367L52.928,44.367Z" fill="#6B9E9E" id="id_21"/>
   <path atv:refpx="55.068" atv:refpy="33.839" d="M53.604,44.367L53.604,23.31L56.532,23.31L56.532,44.367L53.604,44.367Z" fill="#7AADAD" id="id_22"/>
   <path atv:refpx="55.068" atv:refpy="33.839" d="M54.279,44.367L54.279,23.31L55.856,23.31L55.856,44.367L54.279,44.367Z" fill="#8ABDBD" id="id_23"/>
   <path atv:refpx="55.067" atv:refpy="33.839" d="M54.955,44.367L54.955,23.31L55.18,23.31L55.18,44.367L54.955,44.367Z" fill="#99CCCC" id="id_24"/>
   <path atv:refpx="55.068" atv:refpy="33.839" d="M53.604,58.556L53.604,9.121L56.532,9.121L56.532,58.556Z" fill="url(#SVGID_6_)" id="id_25"/>
   <path atv:refpx="55.068" atv:refpy="33.839" d="M51.577,44.367L51.577,23.31L58.559,23.31L58.559,44.367L51.577,44.367Z" fill="url(#SVGID_7_)" id="id_26"/>
   <path atv:refpx="55.068" atv:refpy="2.646" d="M54.617,5.292L53.942,3.715L53.942,1.575L54.617,0L55.518,0L56.194,1.576L56.194,3.716L55.518,5.292Z" fill="url(#SVGID_8_)" id="id_27"/>
   <path atv:refpx="55.067" atv:refpy="7.207" d="M54.73,5.292L54.73,9.121L55.404,9.121L55.404,5.292Z" fill="url(#SVGID_9_)" id="id_28"/>
   <path atv:refpx="55.068" atv:refpy="55.516" d="M58.559,56.079L51.577,56.079L51.577,54.953L58.559,54.953Z" fill="#336666" id="id_29"/>
   <path atv:refpx="76.069" atv:refpy="55.516" d="M79.616,56.079L72.521,56.079L72.521,54.953L79.616,54.953Z" fill="#336666" id="id_30"/>
  </g>
  <g atv:refpx="67.905" atv:refpy="84.174" id="Group_BaseBody">
   <path atv:refpx="67.905" atv:refpy="86.482" d="M23.312,84.118L112.498,84.118L112.498,88.847L23.312,88.847Z" fill="#336666" id="id_31"/>
   <path atv:refpx="31.59" atv:refpy="81.809" d="M28.042,84.118L30.52,79.5L32.772,79.5L35.137,84.118Z" fill="#669999" id="id_32"/>
   <path atv:refpx="106.474" atv:refpy="81.809" d="M103.039,84.118L105.516,79.5L107.769,79.5L109.909,84.118Z" fill="#669999" id="id_33"/>
  </g>
 </g>
</svg>
