<svg version="1.1" xmlns="http://www.w3.org/2000/svg" xmlns:xlink="http://www.w3.org/1999/xlink" xmlns:atv="http://webmi.atvise.com/2007/svgext" height="33.558999999999997" enable-background="new 0 0 112.5 33.559" width="112.5" xml:space="preserve">
 <defs>
  <linearGradient gradientUnits="objectBoundingBox" id="SVGID_1_" x1="5.3736e-06" x2="0.999999" y1="0.499997" y2="0.499997">
   <stop offset="0.01" stop-color="#808FA6"/>
   <stop offset="0.5" stop-color="#E5E5E5"/>
   <stop offset="1" stop-color="#808FA6"/>
  </linearGradient>
  <linearGradient gradientUnits="objectBoundingBox" id="SVGID_2_" x1="-5.38184e-06" x2="1.00001" y1="0.500047" y2="0.500047">
   <stop offset="0.01" stop-color="#595959"/>
   <stop offset="0.5" stop-color="#E0E0E0"/>
   <stop offset="1" stop-color="#595959"/>
  </linearGradient>
  <linearGradient gradientUnits="objectBoundingBox" id="SVGID_3_" x1="2.15262e-05" x2="0.999984" y1="0.499918" y2="0.499918">
   <stop offset="0.01" stop-color="#595959"/>
   <stop offset="0.5" stop-color="#E0E0E0"/>
   <stop offset="1" stop-color="#595959"/>
  </linearGradient>
 </defs>
 <metadata>
  <atv:gridconfig enabled="false" gridstyle="lines" height="20" width="20"/>
  <atv:snapconfig enabled="false" height="10" width="10"/>
 </metadata>
 <g atv:refpx="56.194" atv:refpy="16.644" id="id_15">
  <g atv:refpx="56.217" atv:refpy="16.91" id="Group_Clarifier">
   <path atv:refpx="56.217" atv:refpy="16.91" d="M56.903,0.857C32.11,0.857 10.674,4.506 0.388,9.806C0.388,14.549 0.388,19.284 0.388,24.012C10.675,29.322 32.111,32.964 56.903,32.964C80.64,32.964 101.301,29.616 112.045,24.683C112.045,19.739 112.045,14.086 112.045,9.144C101.3,4.205 80.642,0.857 56.903,0.857" fill="url(#SVGID_1_)" id="id_0" stroke="#4C4C4C" stroke-width="0.2"/>
  </g>
  <g atv:refpx="56.193" atv:refpy="9.684" id="Group_InnerTank">
   <ellipse atv:refpx="56.194" atv:refpy="9.685" cx="56.194" cy="9.685" fill="#596D8C" id="id_1" rx="51.013" ry="8.446"/>
   <path atv:refpx="56.193" atv:refpy="5.968" d="M5.405,10.698L5.18,10.023L5.18,9.798L5.18,9.347L8.221,6.869L11.262,5.743L15.316,4.729L18.469,4.053L21.847,3.49L25.676,2.927L29.73,2.477L34.122,2.139L38.626,1.801L43.468,1.576L48.423,1.35L51.013,1.35L53.603,1.238L56.193,1.238L61.373,1.35L66.44,1.462L71.395,1.688L76.012,1.913L80.516,2.364L84.683,2.702L88.624,3.265L92.228,3.715L95.495,4.391L99.774,5.405L103.264,6.531L106.192,8.108L107.206,9.346L107.206,9.797L107.206,10.022L107.094,10.472L106.982,10.698L106.982,10.248L103.941,7.883L100.9,6.757L96.846,5.742L93.806,5.18L90.315,4.617L86.6,4.054L82.544,3.604L78.265,3.266L73.648,2.928L68.806,2.703L63.964,2.59L58.783,2.477L53.603,2.477L48.423,2.59L43.581,2.703L38.739,2.928L34.122,3.266L29.843,3.604L25.789,4.054L22.073,4.617L18.582,5.18L15.541,5.742L11.487,6.757L8.446,7.883L5.631,9.798Z" fill="#263A59" id="id_2"/>
  </g>
  <g atv:refpx="56.194" atv:refpy="9.566" id="Group_MiddleCircle">
   <path atv:refpx="56.194" atv:refpy="11.149" d="M74.775,10.135L74.775,9.009L37.613,9.009L37.725,10.473L40.878,11.938L44.369,12.613L48.986,13.064L52.477,13.176L54.279,13.288L58.107,13.288L61.711,13.176L64.977,12.95L69.256,12.387L72.522,11.599L74.662,10.472Z" fill="url(#SVGID_2_)" id="id_3" stroke="#4C4C4C" stroke-width="0.25"/>
   <ellipse atv:refpx="56.194" atv:refpy="9.01" cx="56.194" cy="9.01" fill="url(#SVGID_3_)" id="id_4" rx="18.582" ry="3.041" stroke="#4C4C4C" stroke-width="0.25"/>
  </g>
  <g atv:refpx="56.194" atv:refpy="9.684" id="Group_CrossRailsbase">
   <path atv:refpx="78.773" atv:refpy="5.124" d="M70.045,6.869L71.621,7.207L87.5,3.604L87.5,3.041Z" fill="#7F4C19" id="id_5"/>
   <path atv:refpx="33.727" atv:refpy="5.124" d="M42.455,6.869L40.766,7.207L25,3.604L25,3.041Z" fill="#7F4C19" id="id_6"/>
   <path atv:refpx="21.622" atv:refpy="10.079" d="M5.18,9.798L5.293,10.361L38.063,10.361L38.063,9.798Z" fill="#7F4C19" id="id_7"/>
   <path atv:refpx="90.766" atv:refpy="10.079" d="M107.207,9.798L107.095,10.361L74.324,10.361L74.324,9.798Z" fill="#7F4C19" id="id_8"/>
   <path atv:refpx="74.944" atv:refpy="14.358" d="M85.698,16.78L83.782,16.892L64.188,12.5L64.188,11.824Z" fill="#7F4C19" id="id_9"/>
   <path atv:refpx="37.5" atv:refpy="14.358" d="M26.802,16.78L28.717,16.892L48.198,12.5L48.198,11.824Z" fill="#7F4C19" id="id_10"/>
   <path atv:refpx="56.194" atv:refpy="9.684" d="M56.194,0.45C25.408,0.45 0.451,4.585 0.451,9.684C0.451,14.785 25.408,18.918 56.194,18.918C86.981,18.918 111.938,14.783 111.938,9.684C111.938,4.585 86.98,0.45 56.194,0.45M56.194,18.131C28.02,18.131 5.18,14.35 5.18,9.685C5.18,5.021 28.019,1.24 56.194,1.24C84.367,1.24 107.207,5.021 107.207,9.685C107.207,14.35 84.367,18.131 56.194,18.131" fill="#CCB299" id="id_11"/>
   <path atv:refpx="56.194" atv:refpy="9.684" d="M56.194,0.45C25.408,0.45 0.451,4.585 0.451,9.684C0.451,14.785 25.408,18.918 56.194,18.918C86.981,18.918 111.938,14.783 111.938,9.684C111.938,4.585 86.98,0.45 56.194,0.45M56.194,18.131C28.02,18.131 5.18,14.35 5.18,9.685C5.18,5.021 28.019,1.24 56.194,1.24C84.367,1.24 107.207,5.021 107.207,9.685C107.207,14.35 84.367,18.131 56.194,18.131" fill="none" id="id_12" stroke="#4C4C4C" stroke-width="0.25"/>
   <polygon atv:refpx="56.193" atv:refpy="9.741" fill="#CCB299" id="id_13" points="107.207,9.235 59.922,9.235 87.387,3.041 84.347,2.59 56.757,8.801 56.757,1.126 55.631,1.126    55.631,8.787 28.153,2.59 25,3.041 52.465,9.235 5.18,9.235 5.18,9.798 52.326,9.798 23.311,16.329 26.464,16.78 55.631,10.202    55.631,18.356 56.757,18.356 56.757,10.202 85.924,16.78 89.076,16.329 60.115,9.798 107.207,9.798  "/>
   <ellipse atv:refpx="56.193" atv:refpy="9.01" cx="56.193" cy="9.01" fill="#CCB299" id="id_14" rx="13.965" ry="2.252" stroke="#7F4C19" stroke-width="0.2"/>
  </g>
 </g>
</svg>
