<?xml version='1.0' encoding='iso-8859-1'?>
<!DOCTYPE svg PUBLIC '-//W3C//DTD SVG 1.1//EN' 'http://www.w3.org/Graphics/SVG/1.1/DTD/svg11.dtd'>
<!-- Generator: Adobe Illustrator 16.0.0, SVG Export Plug-In . SVG Version: 6.00 Build 0)  -->
<svg height="550.80100000000004" id="Capa_1" style="enable-background:new 0 0 550.801 550.801" version="1.1" width="550.80100000000004" x="0px" xml:space="preserve" y="0px" xmlns="http://www.w3.org/2000/svg" xmlns:atv="http://webmi.atvise.com/2007/svgext" xmlns:xlink="http://www.w3.org/1999/xlink">
 <defs/>
 <metadata>
  <atv:gridconfig enabled="true" gridstyle="lines" height="20" width="20"/>
  <atv:snapconfig enabled="true" height="2" width="2"/>
 </metadata>
 <g atv:refpx="276.512" atv:refpy="273.175" id="id_27">
  <g atv:refpx="0" atv:refpy="0" id="id_4"/>
  <g atv:refpx="0" atv:refpy="0" id="id_5"/>
  <g atv:refpx="0" atv:refpy="0" id="id_6"/>
  <g atv:refpx="0" atv:refpy="0" id="id_7"/>
  <g atv:refpx="0" atv:refpy="0" id="id_8"/>
  <g atv:refpx="0" atv:refpy="0" id="id_9"/>
  <g atv:refpx="0" atv:refpy="0" id="id_10"/>
  <g atv:refpx="0" atv:refpy="0" id="id_11"/>
  <g atv:refpx="0" atv:refpy="0" id="id_12"/>
  <g atv:refpx="0" atv:refpy="0" id="id_13"/>
  <g atv:refpx="0" atv:refpy="0" id="id_14"/>
  <g atv:refpx="0" atv:refpy="0" id="id_15"/>
  <g atv:refpx="0" atv:refpy="0" id="id_16"/>
  <path atv:refpx="276.514" atv:refpy="273.176" d="M489.538,194.793L476.312,194.793L476.312,130.977C476.312,130.579 476.249,130.178 476.196,129.775C476.175,127.241 475.369,124.752 473.634,122.78L367.437,1.467C367.405,1.436 367.374,1.425 367.352,1.392C366.719,0.685 365.981,0.096 365.201,-0.411C364.97,-0.567 364.737,-0.696 364.495,-0.831C363.819,-1.199 363.102,-1.506 362.364,-1.727C362.164,-1.783 361.984,-1.865 361.784,-1.917C360.982,-2.106 360.149,-2.225 359.305,-2.225L98.312,-2.225C86.394,-2.225 76.712,7.467 76.712,19.375L76.712,194.788L63.489,194.788C46.44,194.788 32.616,208.606 32.616,225.661L32.616,386.206C32.616,403.249 46.44,417.076 63.489,417.076L76.713,417.076L76.713,526.974C76.713,538.881 86.395,548.575 98.312,548.575L454.713,548.575C466.62,548.575 476.313,538.882 476.313,526.974L476.313,417.076L489.539,417.076C506.583,417.076 520.409,403.249 520.409,386.206L520.409,225.666C520.409,208.612 506.582,194.793 489.538,194.793M98.312,19.379L348.505,19.379L348.505,129.892C348.505,135.859 353.346,140.692 359.305,140.692L454.712,140.692L454.712,194.8L98.312,194.8ZM363.471,306.797C363.471,337.673 352.228,358.962 336.651,372.13C319.68,386.247 293.831,392.944 262.255,392.944C243.353,392.944 229.957,391.747 220.853,390.555L220.853,232.139C234.253,229.99 251.731,228.793 270.158,228.793C300.77,228.793 320.636,234.301 336.197,246.019C352.94,258.464 363.471,278.321 363.471,306.797M81.812,391.273L81.812,232.139C93.053,230.235 108.853,228.793 131.108,228.793C153.599,228.793 169.635,233.101 180.399,241.721C190.69,249.852 197.613,263.255 197.613,279.049C197.613,294.847 192.363,308.246 182.784,317.333C170.341,329.062 151.919,334.329 130.377,334.329C125.6,334.329 121.278,334.087 117.942,333.606L117.942,391.276L81.812,391.276ZM454.713,521.126L98.312,521.126L98.312,417.076L454.712,417.076L454.712,521.126ZM486.01,259.901L424.021,259.901L424.021,296.752L481.934,296.752L481.934,326.426L424.021,326.426L424.021,391.274L387.428,391.274L387.428,229.99L486.01,229.99Z" fill="#ffffff" id="id_2" stroke-width="1"/>
  <g atv:refpx="0" atv:refpy="0" id="id_17"/>
  <g atv:refpx="0" atv:refpy="0" id="id_18"/>
  <path atv:refpx="139" atv:refpy="308.697" d="M80,391.393L80.53,230.088C80.53,230.088 198,205.393 198,277.393C198,349.393 118.638,333.817 118.638,333.817C118.638,333.817 118,391.393 118,391.393C118,391.393 80,391.393 80,391.393" id="id_21" stroke-width="1"/>
  <path atv:refpx="139.773" atv:refpy="283.004" d="M161.545,281.684C161.545,266.852 151.245,258 133.071,258C125.657,258 120.634,258.714 118,259.432L118,307.059C121.114,307.766 124.942,308.008 130.191,308.008C149.583,308.008 161.545,298.199 161.545,281.684" fill="#ffffff" id="id_0" stroke-width="1"/>
  <path atv:refpx="291.895" atv:refpy="310.778" d="M220.765,232.825L220,391.145C220,391.145 363.79,424.383 363.79,308.383C363.79,192.383 222.765,232.825 220.765,232.825" id="id_22" stroke-width="1"/>
  <path atv:refpx="291.092" atv:refpy="312.864" d="M273.987,259.019C265.842,259.019 260.589,259.736 257.468,260.454L257.468,365.977C260.584,366.705 265.61,366.705 270.158,366.705C303.175,366.936 324.712,348.759 324.712,310.232C324.954,276.719 305.327,259.019 273.987,259.019" fill="#ffffff" id="id_1" stroke-width="1"/>
  <polyline atv:refpx="436" atv:refpy="311" fill="#000000" id="id_26" points="386,230 386,392 424,392 424,328 480,328 480,296 422,296 422,260 486,260 486,230 386,230" stroke-width="1"/>
 </g>
</svg>
