<svg version="1.1" xmlns="http://www.w3.org/2000/svg" xmlns:xlink="http://www.w3.org/1999/xlink" xmlns:atv="http://webmi.atvise.com/2007/svgext" height="49.210999999999999" enable-background="new 0 0 112.5 49.211" width="112.5" xml:space="preserve">
 <defs>
  <linearGradient gradientUnits="objectBoundingBox" id="SVGID_1_" x1="7.4184e-06" x2="1" y1="0.500011" y2="0.500011">
   <stop offset="0.01" stop-color="#595959"/>
   <stop offset="0.5" stop-color="#E0E0E0"/>
   <stop offset="1" stop-color="#595959"/>
  </linearGradient>
  <linearGradient gradientUnits="objectBoundingBox" id="SVGID_2_" x1="7.4184e-06" x2="1" y1="0.499972" y2="0.499972">
   <stop offset="0.01" stop-color="#595959"/>
   <stop offset="0.5" stop-color="#E0E0E0"/>
   <stop offset="1" stop-color="#595959"/>
  </linearGradient>
  <linearGradient gradientUnits="objectBoundingBox" id="SVGID_3_" x1="3.88203e-06" x2="1.00002" y1="0.500057" y2="0.500057">
   <stop offset="0.01" stop-color="#595959"/>
   <stop offset="0.5" stop-color="#E0E0E0"/>
   <stop offset="1" stop-color="#595959"/>
  </linearGradient>
  <linearGradient gradientUnits="objectBoundingBox" id="SVGID_4_" x1="-8.95175e-07" x2="1.00001" y1="0.49999" y2="0.49999">
   <stop offset="0.01" stop-color="#595959"/>
   <stop offset="0.5" stop-color="#BFBFBF"/>
   <stop offset="1" stop-color="#595959"/>
  </linearGradient>
 </defs>
 <metadata>
  <atv:gridconfig enabled="false" gridstyle="lines" height="20" width="20"/>
  <atv:snapconfig enabled="false" height="10" width="10"/>
 </metadata>
 <g atv:refpx="56.131" atv:refpy="24.605" id="Image_1">
  <g atv:refpx="56.028" atv:refpy="29.309" id="Group_Basin">
   <path atv:refpx="56.235" atv:refpy="32.78" d="M56.813,19.455C35.863,19.455 17.748,22.485 9.055,26.884C9.055,30.816 9.055,34.745 9.055,38.675C17.747,43.077 35.863,46.105 56.813,46.105C76.876,46.105 94.334,43.33 103.414,39.228C103.414,35.125 103.414,30.434 103.414,26.333C94.335,22.233 76.876,19.455 56.813,19.455" fill="url(#SVGID_1_)" id="id_0"/>
   <path atv:refpx="56.235" atv:refpy="22.281" d="M56.813,9.622C35.863,9.622 17.748,12.5 9.055,16.68C9.055,20.415 9.055,24.148 9.055,27.881C17.747,32.064 35.863,34.94 56.813,34.94C76.876,34.94 94.334,32.303 103.414,28.407C103.414,24.509 103.414,20.053 103.414,16.157C94.335,12.261 76.876,9.622 56.813,9.622" fill="url(#SVGID_2_)" id="id_1"/>
   <path atv:refpx="56.023" atv:refpy="42.68" d="M103.379,36.487L103.379,36.712L102.478,38.289L99.663,39.753L95.271,41.217L89.64,42.455L82.545,43.355L74.662,44.144L65.766,44.593L46.622,44.593L37.726,44.144L29.843,43.355L22.748,42.455L17.118,41.217L12.726,39.753L9.91,38.289L9.009,36.712L9.009,36.487L8.784,36.487L5.743,38.289L4.504,39.977L5.743,41.666L8.784,43.355L13.401,44.931L19.82,46.17L27.365,47.296L36.261,48.085L45.833,48.534L56.193,48.872L66.554,48.534L76.125,48.085L85.021,47.296L92.566,46.17L98.76,44.931L103.602,43.355L106.643,41.666L107.543,39.977L106.643,38.289L103.602,36.487Z" fill="url(#SVGID_3_)" id="id_2" stroke="#4C4C4C" stroke-width="0.25"/>
   <path atv:refpx="56.023" atv:refpy="42.68" d="M103.379,36.487L103.379,36.712L102.478,38.289L99.663,39.753L95.271,41.217L89.64,42.455L82.545,43.355L74.662,44.144L65.766,44.593L46.622,44.593L37.726,44.144L29.843,43.355L22.748,42.455L17.118,41.217L12.726,39.753L9.91,38.289L9.009,36.712L9.009,36.487L8.784,36.487L5.743,38.289L4.504,39.977L5.743,41.666L8.784,43.355L13.401,44.931L19.82,46.17L27.365,47.296L36.261,48.085L45.833,48.534L56.193,48.872L66.554,48.534L76.125,48.085L85.021,47.296L92.566,46.17L98.76,44.931L103.602,43.355L106.643,41.666L107.543,39.977L106.643,38.289L103.602,36.487Z" fill="none" id="id_3" stroke="#4C4C4C" stroke-width="0.25"/>
  </g>
  <g atv:refpx="56.131" atv:refpy="10.636" id="Group_Top">
   <ellipse atv:refpx="56.081" atv:refpy="9.797" cx="56.081" cy="9.797" fill="#FFFFFF" id="id_4" rx="55.743" ry="9.459" stroke="#4C4C4C" stroke-width="0.25"/>
   <path atv:refpx="56.193" atv:refpy="15.878" d="M111.262,10.698L110.811,11.712L107.545,13.626L102.478,15.09L95.608,16.554L87.163,17.793L77.816,18.581L67.23,19.032L56.194,19.37L44.933,19.032L34.573,18.581L25,17.793L16.779,16.554L9.91,15.09L4.843,13.626L1.577,11.712L0.9,10.698L0.337,11.712L1.577,13.401L4.843,15.428L9.91,16.892L16.78,18.355L25,19.595L34.572,20.27L44.932,20.833L56.193,21.058L67.229,20.833L77.815,20.27L87.161,19.595L95.607,18.355L102.477,16.892L107.544,15.427L110.81,13.401L112.048,11.712Z" fill="url(#SVGID_4_)" id="id_5" stroke="#4C4C4C" stroke-width="0.25"/>
  </g>
  <g atv:refpx="56.081" atv:refpy="9.854" id="Group_Group1">
   <path atv:refpx="87.669" atv:refpy="6.869" d="M96.509,4.054L100,4.842L104.617,6.305L107.545,7.994L108.559,9.684L69.482,9.684L69.256,9.234L68.693,9.009L67.455,8.446L66.779,8.446Z" fill="#43A143" id="id_6"/>
   <path atv:refpx="77.76" atv:refpy="4.674" d="M65.991,1.126L67.455,1.126L77.14,1.577L85.699,2.366L93.132,3.604L96.06,4.054L66.217,8.221L65.541,8.221L63.852,7.996L61.824,7.771L59.572,7.545L59.459,7.545Z" fill="#43A143" id="id_7"/>
   <path atv:refpx="47.466" atv:refpy="4.336" d="M64.527,1.126L55.743,0.9L45.608,1.126L36.036,1.577L30.405,2.14L49.775,7.771L51.239,7.771L53.266,7.545L55.744,7.545L57.659,7.545Z" fill="#43A143" id="id_8"/>
   <path atv:refpx="28.041" atv:refpy="5.575" d="M7.207,6.757L7.996,6.306L12.725,4.843L18.806,3.604L26.464,2.591L29.392,2.14L48.874,7.996L48.085,7.996L46.396,8.221L45.157,8.447L43.918,9.01L43.693,9.01Z" fill="#43A143" id="id_9"/>
   <path atv:refpx="23.48" atv:refpy="9.966" d="M6.982,12.951L4.842,11.712L3.604,9.91L4.843,7.995L6.983,6.981L43.357,9.233L42.906,9.458L42.68,9.91L42.905,10.248L43.356,10.472Z" fill="#43A143" id="id_10"/>
   <path atv:refpx="28.041" atv:refpy="14.133" d="M29.392,17.568L26.464,17.342L18.805,16.103L12.724,14.865L7.995,13.401L7.206,13.176L43.694,10.698L43.919,10.923L45.158,11.149L46.397,11.487L48.086,11.712L48.875,11.712Z" fill="#43A143" id="id_11"/>
   <path atv:refpx="47.466" atv:refpy="15.372" d="M49.775,11.937L30.404,17.567L36.036,18.13L45.608,18.58L55.743,18.806L64.527,18.58L57.658,12.161L55.743,12.161L53.265,12.161L51.238,11.936Z" fill="#43A143" id="id_12"/>
   <path atv:refpx="77.76" atv:refpy="15.034" d="M59.459,12.162L65.991,18.581L67.455,18.581L77.14,18.131L85.699,17.342L93.132,16.329L96.06,15.653L66.218,11.486L65.542,11.486L63.853,11.711L61.826,11.936L59.574,12.161L59.459,12.161Z" fill="#43A143" id="id_13"/>
   <path atv:refpx="87.669" atv:refpy="12.781" d="M66.779,11.149L96.508,15.652L100,14.865L104.617,13.401L107.545,11.712L108.559,9.91L69.482,9.91L69.256,10.473L68.468,10.698L67.454,11.149Z" fill="#43A143" id="id_14"/>
  </g>
  <g atv:refpx="56.194" atv:refpy="40.428" id="Group_BaseSupport">
   <path atv:refpx="7.376" atv:refpy="35.924" d="M9.009,33.559L9.009,36.486L5.743,38.288Z" fill="#B2B2B2" id="id_15" stroke="#4C4C4C" stroke-width="0.25"/>
   <path atv:refpx="21.002" atv:refpy="41.442" d="M21.959,38.289L20.044,44.595L21.959,42.455Z" fill="#B2B2B2" id="id_16" stroke="#4C4C4C" stroke-width="0.25"/>
   <path atv:refpx="36.148" atv:refpy="43.299" d="M37.049,39.977L35.247,46.622L36.486,44.145Z" fill="#B2B2B2" id="id_17" stroke="#4C4C4C" stroke-width="0.25"/>
   <path atv:refpx="53.716" atv:refpy="43.862" d="M53.491,40.428L53.941,40.428L53.941,47.297L53.491,47.297Z" fill="#B2B2B2" id="id_18" stroke="#4C4C4C" stroke-width="0.25"/>
   <path atv:refpx="70.551" atv:refpy="43.299" d="M69.707,39.977L71.395,46.622L70.157,44.145Z" fill="#B2B2B2" id="id_19" stroke="#4C4C4C" stroke-width="0.25"/>
   <path atv:refpx="105.012" atv:refpy="35.924" d="M103.379,33.559L103.379,36.486L106.645,38.288Z" fill="#B2B2B2" id="id_20" stroke="#4C4C4C" stroke-width="0.25"/>
   <path atv:refpx="90.146" atv:refpy="41.442" d="M89.189,38.289L91.103,44.595L89.189,42.455Z" fill="#B2B2B2" id="id_21" stroke="#4C4C4C" stroke-width="0.25"/>
  </g>
 </g>
</svg>
