<?xml version='1.0' encoding='UTF-8' standalone='no'?>
<svg height="285" version="1.2" width="510" xmlns="http://www.w3.org/2000/svg" xmlns:atv="http://webmi.atvise.com/2007/svgext" xmlns:xlink="http://www.w3.org/1999/xlink">
 <defs>
  <linearGradient gradientUnits="objectBoundingBox" id="id_33_fill_gradient" spreadMethod="reflect" x1="0.0675676" x2="0.581081" y1="1" y2="1">
   <stop offset="0" stop-color="#999999"/>
   <stop offset="1" stop-color="#e5e5e5"/>
  </linearGradient>
  <linearGradient gradientUnits="objectBoundingBox" id="id_34_fill_gradient" spreadMethod="reflect" x1="-0.135135" x2="0.405405" y1="0.986486" y2="0.972973">
   <stop offset="0" stop-color="#999999"/>
   <stop offset="1" stop-color="#e5e5e5"/>
  </linearGradient>
  <linearGradient gradientUnits="objectBoundingBox" id="id_41_fill_gradient" spreadMethod="reflect" x1="-0.135135" x2="0.405405" y1="1" y2="0.972973">
   <stop offset="0" stop-color="#999999"/>
   <stop offset="1" stop-color="#e5e5e5"/>
  </linearGradient>
  <linearGradient gradientUnits="objectBoundingBox" id="id_42_fill_gradient" spreadMethod="reflect" x1="-0.135135" x2="0.405405" y1="0.986486" y2="0.972973">
   <stop offset="0" stop-color="#999999"/>
   <stop offset="1" stop-color="#e5e5e5"/>
  </linearGradient>
  <radialGradient cx="0.5" cy="0.5" fx="0.5" fy="0.5" gradientUnits="objectBoundingBox" id="id_42_stroke_gradient" r="1">
   <stop offset="0" stop-color="#000000"/>
   <stop offset="1" stop-color="#ffffff"/>
  </radialGradient>
  <linearGradient gradientUnits="objectBoundingBox" id="id_43_fill_gradient" spreadMethod="reflect" x1="-0.135135" x2="0.405405" y1="1" y2="0.972973">
   <stop offset="0" stop-color="#999999"/>
   <stop offset="1" stop-color="#e5e5e5"/>
  </linearGradient>
  <radialGradient cx="0.5" cy="0.5" fx="0.5" fy="0.5" gradientUnits="objectBoundingBox" id="id_44_fill_gradient" r="0.514579">
   <stop offset="0.6088709677419355" stop-color="#e4e4e4"/>
   <stop offset="1" stop-color="#9a9a9a"/>
  </radialGradient>
  <radialGradient cx="0.5" cy="0.5" fx="0.5" fy="0.5" gradientUnits="objectBoundingBox" id="id_7_fill_gradient" r="0.514579">
   <stop offset="0.6088709677419355" stop-color="#e4e4e4"/>
   <stop offset="1" stop-color="#9a9a9a"/>
  </radialGradient>
  <linearGradient gradientUnits="objectBoundingBox" id="linear_0" x1="0" x2="1" y1="0" y2="1">
   <stop offset="0" stop-color="#000000"/>
   <stop offset="1" stop-color="#000000" stop-opacity="0"/>
  </linearGradient>
  <linearGradient gradientUnits="objectBoundingBox" id="SVGID_10_" x1="-0.000148525" x2="0.99982" y1="0.499965" y2="0.499965">
   <stop offset="0.17" stop-color="#4D4D4D"/>
   <stop offset="0.23" stop-color="#5A5A5A"/>
   <stop offset="0.34" stop-color="#7D7D7D"/>
   <stop offset="0.48" stop-color="#B2B2B2"/>
   <stop offset="0.57" stop-color="#A8A8A8"/>
   <stop offset="0.73" stop-color="#8B8B8B"/>
   <stop offset="0.94" stop-color="#5C5C5C"/>
   <stop offset="1" stop-color="#4D4D4D"/>
  </linearGradient>
  <linearGradient gradientUnits="objectBoundingBox" id="SVGID_11_" x1="0" x2="0.999992" y1="0.499686" y2="0.499686">
   <stop offset="0.17" stop-color="#4D4D4D"/>
   <stop offset="0.23" stop-color="#5A5A5A"/>
   <stop offset="0.34" stop-color="#7D7D7D"/>
   <stop offset="0.48" stop-color="#B2B2B2"/>
   <stop offset="0.57" stop-color="#A8A8A8"/>
   <stop offset="0.73" stop-color="#8B8B8B"/>
   <stop offset="0.94" stop-color="#5C5C5C"/>
   <stop offset="1" stop-color="#4D4D4D"/>
  </linearGradient>
  <linearGradient gradientUnits="objectBoundingBox" id="SVGID_12_" x1="-0.000159151" x2="0.999873" y1="0.499976" y2="0.499976">
   <stop offset="0.17" stop-color="#4D4D4D"/>
   <stop offset="0.23" stop-color="#5A5A5A"/>
   <stop offset="0.34" stop-color="#7D7D7D"/>
   <stop offset="0.48" stop-color="#B2B2B2"/>
   <stop offset="0.57" stop-color="#A8A8A8"/>
   <stop offset="0.73" stop-color="#8B8B8B"/>
   <stop offset="0.94" stop-color="#5C5C5C"/>
   <stop offset="1" stop-color="#4D4D4D"/>
  </linearGradient>
  <linearGradient gradientUnits="objectBoundingBox" id="SVGID_13_" x1="-3.95757e-05" x2="0.999984" y1="0.500503" y2="0.500503">
   <stop offset="0.17" stop-color="#4D4D4D"/>
   <stop offset="0.23" stop-color="#5A5A5A"/>
   <stop offset="0.34" stop-color="#7D7D7D"/>
   <stop offset="0.48" stop-color="#B2B2B2"/>
   <stop offset="0.57" stop-color="#A8A8A8"/>
   <stop offset="0.73" stop-color="#8B8B8B"/>
   <stop offset="0.94" stop-color="#5C5C5C"/>
   <stop offset="1" stop-color="#4D4D4D"/>
  </linearGradient>
  <linearGradient gradientUnits="objectBoundingBox" id="SVGID_1_" x1="2.80483e-06" x2="1" y1="0.5" y2="0.5">
   <stop offset="0" stop-color="#383838"/>
   <stop offset="0.5" stop-color="#ECECEC"/>
   <stop offset="0.57" stop-color="#D9D9D9"/>
   <stop offset="0.71" stop-color="#A8A8A8"/>
   <stop offset="0.92" stop-color="#5A5A5A"/>
   <stop offset="1" stop-color="#383838"/>
  </linearGradient>
  <linearGradient gradientUnits="objectBoundingBox" id="SVGID_2_" x1="-5.34852e-06" x2="0.999996" y1="0.500015" y2="0.500015">
   <stop offset="0.06" stop-color="#808080"/>
   <stop offset="0.13" stop-color="#8D8D8D"/>
   <stop offset="0.28" stop-color="#B0B0B0"/>
   <stop offset="0.48" stop-color="#E8E8E8"/>
   <stop offset="0.48" stop-color="#EBEBEB"/>
   <stop offset="0.57" stop-color="#E0E0E0"/>
   <stop offset="0.72" stop-color="#C3C3C3"/>
   <stop offset="0.92" stop-color="#949494"/>
   <stop offset="1" stop-color="#808080"/>
  </linearGradient>
  <linearGradient gradientUnits="objectBoundingBox" id="SVGID_3_" x1="0.0132289" x2="0.961723" y1="1.43718" y2="-0.523291">
   <stop offset="0.29" stop-color="#F7F7F7"/>
   <stop offset="0.38" stop-color="#ECECEC"/>
   <stop offset="0.52" stop-color="#CFCFCF"/>
   <stop offset="0.71" stop-color="#A0A0A0"/>
   <stop offset="0.94" stop-color="#5F5F5F"/>
   <stop offset="1" stop-color="#4D4D4D"/>
  </linearGradient>
  <linearGradient gradientUnits="objectBoundingBox" id="SVGID_4_" x1="0.984938" x2="0.0397305" y1="1.44782" y2="-0.461717">
   <stop offset="0.29" stop-color="#F7F7F7"/>
   <stop offset="0.38" stop-color="#ECECEC"/>
   <stop offset="0.52" stop-color="#CFCFCF"/>
   <stop offset="0.71" stop-color="#A0A0A0"/>
   <stop offset="0.94" stop-color="#5F5F5F"/>
   <stop offset="1" stop-color="#4D4D4D"/>
  </linearGradient>
  <linearGradient gradientUnits="objectBoundingBox" id="SVGID_5_" x1="0.499998" x2="0.499998" y1="2.24065e-05" y2="1">
   <stop offset="0" stop-color="#C8C8C8"/>
   <stop offset="0.29" stop-color="#B1B1B1"/>
   <stop offset="0.91" stop-color="#757575"/>
   <stop offset="1" stop-color="#6C6C6C"/>
  </linearGradient>
  <linearGradient gradientUnits="objectBoundingBox" id="SVGID_6_" x1="-9.45716e-06" x2="1.00002" y1="0.5" y2="0.5">
   <stop offset="0" stop-color="#383838"/>
   <stop offset="0.45" stop-color="#ECECEC"/>
   <stop offset="0.55" stop-color="#D9D9D9"/>
   <stop offset="0.76" stop-color="#A8A8A8"/>
   <stop offset="0.77" stop-color="#A6A6A6"/>
   <stop offset="1" stop-color="#383838"/>
  </linearGradient>
  <linearGradient gradientUnits="objectBoundingBox" id="SVGID_7_" x1="7.05467e-06" x2="0.999993" y1="0.499944" y2="0.499944">
   <stop offset="0" stop-color="#383838"/>
   <stop offset="0.45" stop-color="#ECECEC"/>
   <stop offset="0.55" stop-color="#D9D9D9"/>
   <stop offset="0.76" stop-color="#A8A8A8"/>
   <stop offset="0.77" stop-color="#A6A6A6"/>
   <stop offset="1" stop-color="#383838"/>
  </linearGradient>
  <linearGradient gradientUnits="objectBoundingBox" id="SVGID_8_" x1="1.89143e-05" x2="1.00004" y1="0.5" y2="0.5">
   <stop offset="0" stop-color="#383838"/>
   <stop offset="0.45" stop-color="#ECECEC"/>
   <stop offset="0.55" stop-color="#D9D9D9"/>
   <stop offset="0.76" stop-color="#A8A8A8"/>
   <stop offset="0.77" stop-color="#A6A6A6"/>
   <stop offset="1" stop-color="#383838"/>
  </linearGradient>
  <linearGradient gradientUnits="objectBoundingBox" id="SVGID_9_" x1="2.82187e-05" x2="1.00001" y1="0.499944" y2="0.499944">
   <stop offset="0" stop-color="#383838"/>
   <stop offset="0.45" stop-color="#ECECEC"/>
   <stop offset="0.55" stop-color="#D9D9D9"/>
   <stop offset="0.76" stop-color="#A8A8A8"/>
   <stop offset="0.77" stop-color="#A6A6A6"/>
   <stop offset="1" stop-color="#383838"/>
  </linearGradient>
  <radialGradient cx="0.499789" cy="0.500127" fx="0.499789" fy="0.500127" gradientUnits="objectBoundingBox" id="radial_1" r="0.500063">
   <stop offset="0" stop-color="#E0E0E0"/>
   <stop offset="0.5" stop-color="#E0E0E0"/>
   <stop offset="1" stop-color="#595959"/>
  </radialGradient>
  <radialGradient cx="0.500042" cy="0.499911" fx="0.500042" fy="0.499911" gradientUnits="objectBoundingBox" id="radial_2" r="0.500043">
   <stop offset="0" stop-color="#E0E0E0"/>
   <stop offset="0.5" stop-color="#E0E0E0"/>
   <stop offset="1" stop-color="#595959"/>
  </radialGradient>
  <radialGradient cx="0.499848" cy="0.499978" fx="0.499848" fy="0.499978" gradientUnits="objectBoundingBox" id="radial_3" r="0.499968">
   <stop offset="0" stop-color="#E0E0E0"/>
   <stop offset="0.5" stop-color="#E0E0E0"/>
   <stop offset="1" stop-color="#595959"/>
  </radialGradient>
  <linearGradient gradientUnits="objectBoundingBox" id="linear_4" x1="0.563112" x2="0.436914" y1="1.13692" y2="-0.13513">
   <stop offset="0" stop-color="#808080"/>
   <stop offset="0.5" stop-color="#B2B2B2"/>
   <stop offset="0.6" stop-color="#D1D1D1"/>
   <stop offset="1" stop-color="#E5E5E5"/>
  </linearGradient>
  <radialGradient cx="0.5" cy="0.5" fx="0.5" fy="0.5" gradientUnits="objectBoundingBox" id="radial_5" r="0.500064">
   <stop offset="0" stop-color="#E0E0E0"/>
   <stop offset="0.5" stop-color="#BFD3F2"/>
   <stop offset="1" stop-color="#BFD3F2"/>
  </radialGradient>
  <radialGradient cx="0.499978" cy="0.5" fx="0.499978" fy="0.5" gradientUnits="objectBoundingBox" id="radial_6" r="0.500022">
   <stop offset="0" stop-color="#E0E0E0"/>
   <stop offset="0.5" stop-color="#BFD3F2"/>
   <stop offset="1" stop-color="#BFD3F2"/>
  </radialGradient>
  <radialGradient cx="0.499935" cy="0.499913" fx="0.499935" fy="0.499913" gradientUnits="objectBoundingBox" id="radial_7" r="0.500022">
   <stop offset="0" stop-color="#E0E0E0"/>
   <stop offset="0.5" stop-color="#BFD3F2"/>
   <stop offset="1" stop-color="#BFD3F2"/>
  </radialGradient>
  <radialGradient cx="0.500042" cy="0.500065" fx="0.500042" fy="0.500065" gradientUnits="objectBoundingBox" id="radial_8" r="0.500075">
   <stop offset="0" stop-color="#E0E0E0"/>
   <stop offset="0.5" stop-color="#BFD3F2"/>
   <stop offset="1" stop-color="#BFD3F2"/>
  </radialGradient>
  <radialGradient cx="0.499848" cy="0.500044" fx="0.499848" fy="0.500044" gradientUnits="objectBoundingBox" id="radial_9" r="0.528715">
   <stop offset="0" stop-color="#E0E0E0"/>
   <stop offset="0.5" stop-color="#BFD3F2"/>
   <stop offset="1" stop-color="#BFD3F2"/>
  </radialGradient>
  <radialGradient cx="0.500022" cy="0.500065" fx="0.500022" fy="0.500065" gradientUnits="objectBoundingBox" id="radial_10" r="0.499968">
   <stop offset="0" stop-color="#E0E0E0"/>
   <stop offset="0.5" stop-color="#E0E0E0"/>
   <stop offset="1" stop-color="#595959"/>
  </radialGradient>
  <radialGradient cx="0.500022" cy="0.500087" fx="0.500022" fy="0.500087" gradientUnits="objectBoundingBox" id="radial_11" r="0.500022">
   <stop offset="0" stop-color="#E0E0E0"/>
   <stop offset="0.5" stop-color="#E0E0E0"/>
   <stop offset="1" stop-color="#595959"/>
  </radialGradient>
  <radialGradient cx="0.5" cy="0.500022" fx="0.5" fy="0.500022" gradientUnits="objectBoundingBox" id="radial_12" r="0.500075">
   <stop offset="0" stop-color="#E0E0E0"/>
   <stop offset="0.5" stop-color="#E0E0E0"/>
   <stop offset="1" stop-color="#595959"/>
  </radialGradient>
 </defs>
 <metadata>
  <atv:parameter behavior="optional" defaultvalue="SYSTEM.GLOBALS.atvise_Advanced_Objects_Maintenance_List.Mining_Industry.Maintenance_Sizer" desc="Global_Maintenance" group="Maintenance" name="Global_Maintenance" valuetype="global"/>
  <atv:parameter behavior="optional" defaultvalue="SYSTEM.GLOBALS.atvise_Advanced_Objects_Maintenance_List.Mining_Industry.Maintenance_Sizer" desc="Global Maintenance Address" group="Maintenance" name="Global_Maintenance_Address" valuetype="string"/>
  <atv:parameter behavior="optional" defaultvalue="true" desc="Maintenance_Active" group="Maintenance" name="Maintenance" valuetype="bool"/>
  <atv:parameter behavior="optional" defaultvalue="true" desc="Icon Indicator Active" group="Alarming" name="Icon_Indicator" valuetype="bool"/>
  <atv:parameter behavior="optional" defaultvalue="" desc="Alert_Range" group="Alarming" name="Alert_Range" valuetype="number"/>
  <atv:parameter behavior="optional" defaultvalue="" desc="Notification List" group="Alarming" name="Notification_List" valuetype="global"/>
  <atv:parameter behavior="optional" defaultvalue="false" desc="Email Notification Active" group="Alarming" name="Email_Notification" valuetype="bool"/>
  <atv:parameter behavior="optional" defaultvalue="false" desc="Alertzy_Notification" group="Alarming" name="Alertzy_Notification" valuetype="bool"/>
  <atv:parameter behavior="optional" defaultvalue="SYSTEM.GLOBALS.Color_Global_1" desc="Color" group="Appereance" name="Color" substitute="$Color$" valuetype="global"/>
  <atv:parameter behavior="optional" defaultvalue="14" desc="Title Font Size" group="Appereance" name="Title_Font_Size" substitute="$FontSize$" valuetype="number"/>
  <atv:gridconfig enabled="true" gridstyle="lines" height="20" width="20"/>
  <atv:snapconfig enabled="true" height="5" width="5"/>
 </metadata>
 <script atv:desc="" atv:href="SYSTEM.LIBRARY.PROJECT.DISPLAYSCRIPTS.atvise_Advanced_Objects_Display_Scripts.AAA_Principal_Display_Script" atv:name="" atv:type="text/ecmascript"/>
 <script atv:desc="" atv:name="" type="text/ecmascript"/>
 <svg atv:refpx="39" atv:refpy="61.36" height="122.72" id="id_6" width="78" x="0" xlink:href="SYSTEM.LIBRARY.PROJECT.OBJECTDISPLAYS.atvise_Advanced_Objects_Complementary_Elements.Alarm_Alert_Advanced_Indicator" y="0">
  <atv:argument name="base" prefix="base"/>
 </svg>
 <svg atv:refpx="48.06" atv:refpy="258.06" height="36.12" id="id_16" width="36.12" x="30" xlink:href="SYSTEM.LIBRARY.PROJECT.OBJECTDISPLAYS.atvise_Advanced_Objects_Complementary_Elements.Maintenance_Advanced_Indicator" y="240">
  <atv:argument name="base" prefix="base"/>
 </svg>
 <path atv:refpx="297.113" atv:refpy="136.326" d="M110,40L484.226,40L484.226,232.651L110,232.651Z" fill="#0098E5" id="id_0"/>
 <path atv:refpx="297.113" atv:refpy="43.681" d="M110,40L484.226,40L484.226,47.362L110,47.362Z" fill="#00B2FF" id="id_1" stroke="#4C4C4C" stroke-width="2"/>
 <path atv:refpx="297.113" atv:refpy="108.103" d="M110,103.808L484.226,103.808L484.226,112.397L110,112.397Z" fill="#00B2FF" id="id_2" stroke="#4C4C4C" stroke-width="2"/>
 <path atv:refpx="297.113" atv:refpy="172.32" d="M110,168.434L484.226,168.434L484.226,176.205L110,176.205Z" fill="#00B2FF" id="id_3" stroke="#4C4C4C" stroke-width="2"/>
 <path atv:refpx="297.113" atv:refpy="234.696" d="M110,232.651L484.226,232.651L484.226,236.741L110,236.741Z" fill="#00004C" id="id_4"/>
 <path atv:refpx="297.113" atv:refpy="136.326" d="M133.041,40L461.185,40L461.185,232.651L133.041,232.651Z" fill="#00B2FF" id="id_5"/>
 <path atv:refpx="297.113" atv:refpy="152.482" d="M133.041,153.3L461.185,72.313L461.185,232.651L133.041,232.651Z" fill="#00ADFA" id="id_7"/>
 <path atv:refpx="297.113" atv:refpy="164.344" d="M133.041,176.205L461.185,96.036L461.185,232.651L133.041,232.651Z" fill="#00A8F5" id="id_8"/>
 <path atv:refpx="297.113" atv:refpy="180.5" d="M133.041,208.927L461.185,128.349L461.185,232.651L133.041,232.651Z" fill="#00A3F0" id="id_9"/>
 <path atv:refpx="297.113" atv:refpy="136.326" d="M133.041,40L461.185,40L461.185,232.651L133.041,232.651Z" fill="none" id="id_10" stroke="#4C4C4C" stroke-width="2"/>
 <path atv:refpx="441.322" atv:refpy="240.832" d="M429.8,232.651L452.842,232.651L452.842,249.012L429.8,249.012Z" fill="#007FCC" id="id_11" stroke="#4C4C4C" stroke-width="2"/>
 <path atv:refpx="152.905" atv:refpy="240.832" d="M141.384,232.651L164.425,232.651L164.425,249.012L141.384,249.012Z" fill="#007FCC" id="id_12" stroke="#4C4C4C" stroke-width="2"/>
 <circle atv:refpx="367.429" atv:refpy="136.121" cx="378.304" cy="136.121" fill="#007FCC" id="id_13" r="40.084" transform="matrix(0.9713,0,0,1,0,0)"/>
 <circle atv:refpx="226.796" atv:refpy="136.121" cx="233.509" cy="136.121" fill="#007FCC" id="id_14" r="40.084" transform="matrix(0.9713,0,0,1,0,0)"/>
 <circle atv:refpx="366.238" atv:refpy="135.303" cx="377.077" cy="135.303" fill="#0087D1" id="id_15" r="37.221" transform="matrix(0.9713,0,0,1,0,0)"/>
 <circle atv:refpx="225.605" atv:refpy="135.303" cx="232.282" cy="135.303" fill="#0087D1" id="id_17" r="36.812" transform="matrix(0.9713,0,0,1,0,0)"/>
 <circle atv:refpx="365.444" atv:refpy="134.077" cx="376.26" cy="134.077" fill="#0092D9" id="id_18" r="33.95" transform="matrix(0.9713,0,0,1,0,0)"/>
 <circle atv:refpx="225.209" atv:refpy="134.077" cx="231.874" cy="134.077" fill="#0092D9" id="id_19" r="33.95" transform="matrix(0.9713,0,0,1,0,0)"/>
 <path atv:refpx="364.45" atv:refpy="133.053" d="M375.772,162.707L368.224,163.934L360.676,163.934L352.333,162.707L345.977,157.799L340.415,152.482L336.045,145.528L334.456,136.939L334.456,129.167L336.045,120.987L340.415,114.033L345.977,108.307L352.333,103.808L360.676,102.171L368.224,102.171L375.772,103.808L383.32,108.307L388.485,114.033L392.06,120.987L394.444,129.167L394.444,136.939L392.855,145.528L388.485,152.482L383.32,157.799Z" fill="#009CDE" id="id_20"/>
 <path atv:refpx="224.215" atv:refpy="133.053" d="M235.536,162.707L228.385,163.934L220.043,163.934L212.495,162.707L205.741,157.799L199.782,152.482L195.809,145.528L193.823,136.939L193.823,129.167L195.809,120.987L199.782,114.033L205.741,108.307L212.495,103.808L220.043,102.171L228.385,102.171L235.536,103.808L242.29,108.307L248.249,114.033L252.222,120.987L254.605,129.167L254.605,136.939L252.222,145.528L248.249,152.482L242.29,157.799Z" fill="#009CDE" id="id_21"/>
 <circle atv:refpx="363.457" atv:refpy="132.031" cx="374.214" cy="132.031" fill="#0FA5E5" id="id_22" r="28.223" transform="matrix(0.9713,0,0,1,0,0)"/>
 <circle atv:refpx="223.222" atv:refpy="132.031" cx="229.828" cy="132.031" fill="#0FA5E5" id="id_23" r="28.223" transform="matrix(0.9713,0,0,1,0,0)"/>
 <circle atv:refpx="362.663" atv:refpy="131.213" cx="373.397" cy="131.213" fill="#22AEEB" id="id_24" r="24.951" transform="matrix(0.9713,0,0,1,0,0)"/>
 <path atv:refpx="221.831" atv:refpy="131.213" d="M231.166,154.527L225.207,156.163L219.248,156.163L212.495,154.527L207.33,150.846L202.563,146.346L198.988,141.029L197.399,134.894L197.399,127.94L198.988,121.396L202.563,115.26L207.33,110.761L212.495,107.489L219.248,106.262L225.207,106.262L231.166,107.489L237.125,110.761L241.893,115.26L244.673,121.396L246.263,127.94L246.263,134.894L244.673,141.029L241.893,146.346L237.125,150.846Z" fill="#22AEEB" id="id_25"/>
 <circle atv:refpx="361.471" atv:refpy="129.986" cx="372.17" cy="129.986" fill="#33B7F2" id="id_26" r="22.497" transform="matrix(0.9713,0,0,1,0,0)"/>
 <ellipse atv:refpx="220.839" atv:refpy="129.986" cx="220.839" cy="129.986" fill="#33B7F2" id="id_27" rx="21.056" ry="22.497"/>
 <path atv:refpx="360.279" atv:refpy="128.963" d="M367.429,147.164L363.059,147.982L358.689,147.982L353.128,147.164L349.552,144.71L345.977,141.029L343.593,136.121L342.004,131.621L342.004,127.122L343.593,121.396L345.977,117.714L348.758,114.033L353.128,111.579L358.689,109.943L363.059,109.943L367.429,111.579L372.197,114.033L375.772,117.714L378.156,121.396L378.553,127.122L378.553,131.621L378.156,136.121L375.772,141.029L372.197,144.71Z" fill="#42C1F7" id="id_28"/>
 <circle atv:refpx="220.043" atv:refpy="128.758" cx="226.556" cy="128.758" fill="#42C1F7" id="id_29" r="19.224" transform="matrix(0.9713,0,0,1,0,0)"/>
 <circle atv:refpx="359.086" atv:refpy="127.94" cx="369.714" cy="127.94" fill="#54CCFF" id="id_30" r="15.951" transform="matrix(0.9713,0,0,1,0,0)"/>
 <circle atv:refpx="218.851" atv:refpy="127.94" cx="225.328" cy="127.94" fill="#54CCFF" id="id_31" r="15.951" transform="matrix(0.9713,0,0,1,0,0)"/>
 <circle atv:refpx="367.033" atv:refpy="136.121" cx="377.895" cy="136.121" fill="none" id="id_32" r="31.904" stroke="#4C4C4C" stroke-width="2" transform="matrix(0.9713,0,0,1,0,0)"/>
 <circle atv:refpx="367.429" atv:refpy="136.121" cx="378.304" cy="136.121" fill="none" id="id_33" r="40.084" stroke="#4C4C4C" stroke-width="2" transform="matrix(0.9713,0,0,1,0,0)"/>
 <circle atv:refpx="226.796" atv:refpy="136.121" cx="233.509" cy="136.121" fill="none" id="id_34" r="40.084" stroke="#4C4C4C" stroke-width="2" transform="matrix(0.9713,0,0,1,0,0)"/>
 <circle atv:refpx="226.797" atv:refpy="136.121" cx="233.509" cy="136.121" fill="none" id="id_35" r="31.904" stroke="#4C4C4C" stroke-width="2" transform="matrix(0.9713,0,0,1,0,0)"/>
 <path atv:refpx="449.068" atv:refpy="71.7" d="M445.294,47.362L452.842,47.362L452.842,96.036L445.294,96.036Z" fill="#008CD9" id="id_36"/>
 <path atv:refpx="145.158" atv:refpy="71.7" d="M141.384,47.362L148.932,47.362L148.932,96.036L141.384,96.036Z" fill="#008CD9" id="id_37" stroke="#4C4C4C" stroke-width="2"/>
 <path atv:refpx="449.068" atv:refpy="69.245" d="M445.294,49.816L452.842,49.816L452.842,88.674L445.294,88.674Z" fill="#0098E5" id="id_38"/>
 <path atv:refpx="145.158" atv:refpy="69.245" d="M141.384,49.816L148.932,49.816L148.932,88.674L141.384,88.674Z" fill="#0098E5" id="id_39"/>
 <path atv:refpx="449.068" atv:refpy="66.178" d="M445.294,52.27L452.842,52.27L452.842,80.084L445.294,80.084Z" fill="#00A5F2" id="id_40"/>
 <path atv:refpx="145.158" atv:refpy="66.178" d="M141.384,52.27L148.932,52.27L148.932,80.084L141.384,80.084Z" fill="#00A5F2" id="id_41"/>
 <path atv:refpx="449.068" atv:refpy="61.883" d="M445.294,53.906L452.842,53.906L452.842,69.858L445.294,69.858Z" fill="#00B2FF" id="id_42"/>
 <path atv:refpx="145.158" atv:refpy="61.883" d="M141.384,53.906L148.932,53.906L148.932,69.858L141.384,69.858Z" fill="#00B2FF" id="id_43"/>
 <path atv:refpx="449.068" atv:refpy="57.997" d="M445.294,55.952L452.842,55.952L452.842,60.042L445.294,60.042Z" fill="#54CCFF" id="id_44"/>
 <path atv:refpx="145.158" atv:refpy="57.997" d="M141.384,55.952L148.932,55.952L148.932,60.042L141.384,60.042Z" fill="#54CCFF" id="id_45"/>
 <path atv:refpx="449.068" atv:refpy="71.7" d="M445.294,47.362L452.842,47.362L452.842,96.036L445.294,96.036Z" fill="none" id="id_46" stroke="#4C4C4C" stroke-width="2"/>
 <path atv:refpx="227.194" atv:refpy="136.326" d="M226.002,138.575L225.207,136.939L225.207,135.303L226.002,134.076L227.591,134.076L229.18,135.303L229.18,136.939L227.591,138.575Z" fill="#CC9933" id="id_47"/>
 <path atv:refpx="297.113" atv:refpy="124.259" d="M281.222,120.169L313.004,120.169L313.004,128.349L281.222,128.349Z" fill="#CC9933" id="id_48"/>
 <path atv:refpx="367.033" atv:refpy="136.326" d="M365.84,138.575L365.046,136.939L365.046,135.303L365.84,134.076L368.224,134.076L369.018,135.303L369.018,136.939L368.224,138.575Z" fill="#CC9933" id="id_49"/>
 <rect atv:refpx="296.849" atv:refpy="147.5" fill="#000000" fill-opacity="0" height="285" id="click_area" stroke="#0000ff" stroke-width="0" width="430" x="80" y="5"/>
</svg>
