<?xml version='1.0' encoding='UTF-8' standalone='no'?>
<svg height="580" version="1.2" width="603" xmlns="http://www.w3.org/2000/svg" xmlns:atv="http://webmi.atvise.com/2007/svgext" xmlns:xlink="http://www.w3.org/1999/xlink">
 <defs/>
 <metadata>
  <atv:parameter behavior="optional" defaultvalue="SYSTEM.GLOBALS.Color_Global_1" desc="Color" name="Color" substitute="$Color$" valuetype="global"/>
  <atv:gridconfig enabled="true" gridstyle="lines" height="20" width="20"/>
  <atv:snapconfig enabled="true" height="10" width="10"/>
 </metadata>
 <text atv:refpx="49.476" atv:refpy="21" fill="$Color$" font-family="Arial" font-size="24" id="id_info" x="14.5" y="25.5">Conditions of</text>
 <script atv:desc="" atv:name="" type="text/ecmascript"><![CDATA[/*******Initialize Variables*******/


/*******Initial Conditions*******/
webMI.addOnload(function() {

	//Define Initial Text
    webMI.gfx.setText("id_info", "Conditions of: "+(webMI.query["base"]).split('.').pop());
});


]]></script>
 <svg atv:refpx="455" atv:refpy="555" height="30" id="id_11" transform="matrix(0.5625,0,0,1,0,0)" width="160" x="728.889" xlink:href="SYSTEM.LIBRARY.ATVISE.OBJECTDISPLAYS.Advanced.in_out_value" y="540">
  <atv:argument name="base" prefix="base" value=".Time"/>
  <atv:argument name="unit" value="T{s}"/>
  <atv:argument name="fontSize" value="14"/>
  <atv:overwrite id="input_label" transform="matrix(1.7778,0,0,1,0,0)" x="82.055"/>
  <atv:overwrite id="blinking_frame" transform="matrix(1.7778,0,0,1,0,0)" width="82"/>
  <atv:overwrite id="focus_frame" transform="matrix(1.7778,0,0,1,0,0)" width="86"/>
  <atv:overwrite id="input_bg" transform="matrix(1.7778,0,0,1,0,0)" width="82"/>
  <atv:overwrite id="id_1" transform="matrix(1.7778,0,0,1,0,0)" width="88"/>
  <atv:overwrite id="id_0" transform="matrix(1.7778,0,0,1,0,0)" width="90"/>
 </svg>
 <text atv:refpx="268.105" atv:refpy="911.404" fill="#000000" font-family="Arial" font-size="12" font-weight="bold" id="id_12" x="414.5" y="526">Operating Time</text>
 <svg atv:refpx="302.25" atv:refpy="113" height="106" id="id_2" width="544.5" x="30" xlink:href="ObjectTypes.PROJECT.Electric_Motor_1.Indicator_Slider" y="60">
  <atv:argument name="Label" value="Voltage"/>
  <atv:argument name="Input" prefix="base" value=".Variables.Voltage"/>
  <atv:argument name="Object_Conditions" prefix="base" value=".Parameters.Object_Conditions"/>
  <atv:argument name="Alert_Range" prefix="base" value=".Parameters.Alert_Range"/>
  <atv:argument name="Unit" value="V"/>
  <atv:argument name="Color" prefix="Color" value=""/>
 </svg>
 <svg atv:refpx="302.25" atv:refpy="223" height="106" id="id_3" width="544.5" x="30" xlink:href="ObjectTypes.PROJECT.Electric_Motor_1.Indicator_Slider" y="170">
  <atv:argument name="Label" value="Current"/>
  <atv:argument name="Input" prefix="base" value=".Variables.Current"/>
  <atv:argument name="Object_Conditions" prefix="base" value=".Parameters.Object_Conditions"/>
  <atv:argument name="Alert_Range" prefix="base" value=".Parameters.Alert_Range"/>
  <atv:argument name="Unit" value="A"/>
  <atv:argument name="Color" prefix="Color" value=""/>
 </svg>
 <svg atv:refpx="302.25" atv:refpy="333" height="106" id="id_4" width="544.5" x="30" xlink:href="ObjectTypes.PROJECT.Electric_Motor_1.Indicator_Slider" y="280">
  <atv:argument name="Label" value="Torque"/>
  <atv:argument name="Input" prefix="base" value=".Variables.Torque"/>
  <atv:argument name="Object_Conditions" prefix="base" value=".Parameters.Object_Conditions"/>
  <atv:argument name="Alert_Range" prefix="base" value=".Parameters.Alert_Range"/>
  <atv:argument name="Unit" value="Nm"/>
  <atv:argument name="Color" prefix="Color" value=""/>
 </svg>
 <svg atv:refpx="302.25" atv:refpy="443" height="106" id="id_5" width="544.5" x="30" xlink:href="ObjectTypes.PROJECT.Electric_Motor_1.Indicator_Slider" y="390">
  <atv:argument name="Label" value="RPM"/>
  <atv:argument name="Input" prefix="base" value=".Variables.RPM"/>
  <atv:argument name="Object_Conditions" prefix="base" value=".Parameters.Object_Conditions"/>
  <atv:argument name="Alert_Range" prefix="base" value=".Parameters.Alert_Range"/>
  <atv:argument name="Unit" value="rpm"/>
  <atv:argument name="Color" prefix="Color" value=""/>
 </svg>
 <svg atv:refpx="195" atv:refpy="555" height="30" id="id_6" transform="matrix(0.5625,0,0,1,0,0)" width="160" x="266.667" xlink:href="SYSTEM.LIBRARY.ATVISE.OBJECTDISPLAYS.Advanced.in_out_value" y="540">
  <atv:argument name="base" prefix="base" value=".Variables.Temperature"/>
  <atv:argument name="unit" value="T{s}"/>
  <atv:argument name="fontSize" value="14"/>
  <atv:overwrite id="input_label" transform="matrix(1.7778,0,0,1,0,0)" x="82.055"/>
  <atv:overwrite id="blinking_frame" transform="matrix(1.7778,0,0,1,0,0)" width="82"/>
  <atv:overwrite id="focus_frame" transform="matrix(1.7778,0,0,1,0,0)" width="86"/>
  <atv:overwrite id="input_bg" transform="matrix(1.7778,0,0,1,0,0)" width="82"/>
  <atv:overwrite id="id_1" transform="matrix(1.7778,0,0,1,0,0)" width="88"/>
  <atv:overwrite id="id_0" transform="matrix(1.7778,0,0,1,0,0)" width="90"/>
 </svg>
 <text atv:refpx="29.016" atv:refpy="911.404" fill="#000000" font-family="Arial" font-size="12" font-weight="bold" id="id_7" x="154.5" y="526">Temperature</text>
 <svg atv:refpx="325" atv:refpy="555" height="30" id="id_8" transform="matrix(0.5625,0,0,1,0,0)" width="160" x="497.778" xlink:href="SYSTEM.LIBRARY.ATVISE.OBJECTDISPLAYS.Advanced.in_out_value" y="540">
  <atv:argument name="base" prefix="base" value=".Variables.Power_Factor"/>
  <atv:argument name="unit" value="T{s}"/>
  <atv:argument name="fontSize" value="14"/>
  <atv:overwrite id="input_label" transform="matrix(1.7778,0,0,1,0,0)" x="82.055"/>
  <atv:overwrite id="blinking_frame" transform="matrix(1.7778,0,0,1,0,0)" width="82"/>
  <atv:overwrite id="focus_frame" transform="matrix(1.7778,0,0,1,0,0)" width="86"/>
  <atv:overwrite id="input_bg" transform="matrix(1.7778,0,0,1,0,0)" width="82"/>
  <atv:overwrite id="id_1" transform="matrix(1.7778,0,0,1,0,0)" width="88"/>
  <atv:overwrite id="id_0" transform="matrix(1.7778,0,0,1,0,0)" width="90"/>
 </svg>
 <text atv:refpx="154.535" atv:refpy="911.404" fill="#000000" font-family="Arial" font-size="12" font-weight="bold" id="id_9" x="284.5" y="526">Power Factor</text>
</svg>
