<?xml version='1.0' encoding='UTF-8' standalone='no'?>
<svg height="192.12" version="1.2" width="388" xmlns="http://www.w3.org/2000/svg" xmlns:atv="http://webmi.atvise.com/2007/svgext" xmlns:xlink="http://www.w3.org/1999/xlink">
 <defs>
  <linearGradient gradientUnits="objectBoundingBox" id="id_33_fill_gradient" spreadMethod="reflect" x1="0.0675676" x2="0.581081" y1="1" y2="1">
   <stop offset="0" stop-color="#999999"/>
   <stop offset="1" stop-color="#e5e5e5"/>
  </linearGradient>
  <linearGradient gradientUnits="objectBoundingBox" id="id_34_fill_gradient" spreadMethod="reflect" x1="-0.135135" x2="0.405405" y1="0.986486" y2="0.972973">
   <stop offset="0" stop-color="#999999"/>
   <stop offset="1" stop-color="#e5e5e5"/>
  </linearGradient>
  <linearGradient gradientUnits="objectBoundingBox" id="id_41_fill_gradient" spreadMethod="reflect" x1="-0.135135" x2="0.405405" y1="1" y2="0.972973">
   <stop offset="0" stop-color="#999999"/>
   <stop offset="1" stop-color="#e5e5e5"/>
  </linearGradient>
  <linearGradient gradientUnits="objectBoundingBox" id="id_42_fill_gradient" spreadMethod="reflect" x1="-0.135135" x2="0.405405" y1="0.986486" y2="0.972973">
   <stop offset="0" stop-color="#999999"/>
   <stop offset="1" stop-color="#e5e5e5"/>
  </linearGradient>
  <radialGradient cx="0.5" cy="0.5" fx="0.5" fy="0.5" gradientUnits="objectBoundingBox" id="id_42_stroke_gradient" r="1">
   <stop offset="0" stop-color="#000000"/>
   <stop offset="1" stop-color="#ffffff"/>
  </radialGradient>
  <linearGradient gradientUnits="objectBoundingBox" id="id_43_fill_gradient" spreadMethod="reflect" x1="-0.135135" x2="0.405405" y1="1" y2="0.972973">
   <stop offset="0" stop-color="#999999"/>
   <stop offset="1" stop-color="#e5e5e5"/>
  </linearGradient>
  <radialGradient cx="0.5" cy="0.5" fx="0.5" fy="0.5" gradientUnits="objectBoundingBox" id="id_44_fill_gradient" r="0.514579">
   <stop offset="0.6088709677419355" stop-color="#e4e4e4"/>
   <stop offset="1" stop-color="#9a9a9a"/>
  </radialGradient>
  <radialGradient cx="0.5" cy="0.5" fx="0.5" fy="0.5" gradientUnits="objectBoundingBox" id="id_7_fill_gradient" r="0.514579">
   <stop offset="0.6088709677419355" stop-color="#e4e4e4"/>
   <stop offset="1" stop-color="#9a9a9a"/>
  </radialGradient>
  <linearGradient gradientUnits="objectBoundingBox" id="linear_0" x1="0" x2="1" y1="0" y2="1">
   <stop offset="0" stop-color="#000000"/>
   <stop offset="1" stop-color="#000000" stop-opacity="0"/>
  </linearGradient>
 </defs>
 <metadata>
  <atv:parameter behavior="optional" defaultvalue="SYSTEM.GLOBALS.Color_Global_1" desc="Color" name="Color" substitute="$Color$" valuetype="global"/>
  <atv:parameter behavior="optional" defaultvalue="SYSTEM.GLOBALS.Maintenance_Diesel_Generator" desc="Global Maintenance" name="Global_Maintenance" valuetype="global"/>
  <atv:gridconfig enabled="true" gridstyle="lines" height="20" width="20"/>
  <atv:snapconfig enabled="true" height="1" width="1"/>
 </metadata>
 <g atv:refpx="224.753" atv:refpy="83.223" id="Image1" transform="matrix(0.3022,0,0,0.3022,45.6841,14.1644)">
  <path atv:refpx="928.5" atv:refpy="48" d="M926,38L916,58L931,58L941,38Z" fill="#000" id="id_0" stroke="#4c4c4c" stroke-width="2"/>
  <path atv:refpx="580.5" atv:refpy="234.5" d="M416,189L745,189L745,280L416,280Z" fill="#e5e5dd" id="id_1"/>
  <path atv:refpx="580.5" atv:refpy="249.5" d="M416,219L745,219L745,280L416,280Z" fill="#ccccbd" id="id_3"/>
  <path atv:refpx="580.5" atv:refpy="267.5" d="M416,255L745,255L745,280L416,280Z" fill="#b2b29b" id="id_4"/>
  <path atv:refpx="580.5" atv:refpy="189.5" d="M416,189L745,189" fill="none" id="id_5" stroke="#999" stroke-width="2"/>
  <path atv:refpx="906.5" atv:refpy="169" d="M1068,280L1068,118L1007,118L1007,58L805,58L805,118L745,118L745,280Z" fill="#4c4c3a" id="id_7" stroke="#4c4c4c" stroke-width="2"/>
  <path atv:refpx="590.5" atv:refpy="270" d="M543,260L638,260L638,280L543,280Z" fill="#000" id="id_8"/>
  <path atv:refpx="257" atv:refpy="229" d="M396,138L416,118L416,340L396,320L119,320L119,219L98,219L98,138Z" fill="#ccccbd" id="id_9"/>
  <path atv:refpx="257" atv:refpy="229.5" d="M396,159L416,144L416,315L396,300L119,300L119,219L98,219L98,159Z" fill="#e5e5dd" id="id_10"/>
  <path atv:refpx="257" atv:refpy="229.5" d="M396,168L416,154L416,305L396,291L119,291L119,219L98,219L98,168Z" fill="#ccccbd" id="id_11"/>
  <path atv:refpx="257" atv:refpy="229.5" d="M396,188L416,179L416,280L396,271L119,271L119,219L98,219L98,188Z" fill="#b2b29b" id="id_12"/>
  <path atv:refpx="257" atv:refpy="229" d="M396,209L416,204L416,254L396,250L119,250L119,219L98,219L98,209Z" fill="#99997a" id="id_13"/>
  <path atv:refpx="267.5" atv:refpy="265" d="M416,250L416,280L396,271L119,271L119,250Z" fill="#7f7f59" id="id_14"/>
  <path atv:refpx="396.5" atv:refpy="229" d="M396,320L396,138" fill="none" id="id_15" stroke="#4c4c4c" stroke-width="2"/>
  <path atv:refpx="257" atv:refpy="229" d="M396,138L416,118L416,340L396,320L119,320L119,219L98,219L98,138Z" fill="none" id="id_16" stroke="#4c4c4c" stroke-width="2"/>
  <path atv:refpx="119.5" atv:refpy="178.5" d="M119,219L119,138" fill="none" id="id_17" stroke="#4c4c4c" stroke-width="2"/>
  <path atv:refpx="300.5" atv:refpy="275" d="M119,270L482,270L482,280L119,280Z" fill="#333" id="id_18"/>
  <path atv:refpx="603.5" atv:refpy="360.5" d="M129,431L129,290L1078,290L1078,431Z" fill="#99998f" id="id_21" stroke="#4c4c4c" stroke-width="2"/>
  <path atv:refpx="603.5" atv:refpy="300" d="M119,280L119,320L159,320L159,290L1047,290L1047,320L1088,320L1088,280Z" fill="#e5e5e5" id="id_22" stroke="#4c4c4c" stroke-width="2"/>
  <path atv:refpx="603.5" atv:refpy="436" d="M119,431L1088,431L1088,441L119,441Z" fill="#e5e5e5" id="id_23" stroke="#4c4c4c" stroke-width="2"/>
  <path atv:refpx="603" atv:refpy="315" d="M159,340L159,290L1047,290L1047,340L1017,340L1017,300L785,300L785,340L765,340L765,300L462,300L462,320L401,320L401,300L189,300L189,340Z" fill="#191900" id="id_24"/>
  <path atv:refpx="926.5" atv:refpy="335.5" d="M967,310L967,361L936,340L886,340L886,330L936,330Z" fill="#999" id="id_25" stroke="#4c4c4c" stroke-width="2"/>
  <path atv:refpx="926.5" atv:refpy="335.5" d="M967,325L967,346L936,337L886,337L886,334L936,334Z" fill="#e5e5e5" id="id_26"/>
  <path atv:refpx="1017.5" atv:refpy="348" d="M1068,421L1068,275L967,275L967,421Z" fill="#666657" id="id_27" stroke="#4c4c4c" stroke-width="2"/>
  <path atv:refpx="800" atv:refpy="376" d="M790,366L810,366L810,386L790,386Z" fill="#bfbfbf" id="id_28" stroke="#4c4c4c" stroke-width="2"/>
  <path atv:refpx="865.5" atv:refpy="340.5" d="M845,361L845,320L886,320L886,361Z" fill="#7f7f7f" id="id_29" stroke="#4c4c4c" stroke-width="2"/>
  <path atv:refpx="865.5" atv:refpy="340.5" d="M845,361L845,320L886,320" fill="none" id="id_30" stroke="#fff" stroke-width="2"/>
  <path atv:refpx="550" atv:refpy="335.5" d="M502,351L502,325L603,325L603,320L497,320L497,351Z" fill="#000" id="id_31"/>
  <path atv:refpx="535" atv:refpy="368" d="M593,351L593,386L563,386L563,396L558,406L543,406L538,396L538,391L497,391L497,376L477,376L477,351L512,351L512,330L563,330L563,351Z" fill="#4c4c3a" id="id_32"/>
  <path atv:refpx="520" atv:refpy="353" d="M477,376L477,351L512,351L512,330L563,330" fill="none" id="id_33" stroke="#fff" stroke-width="2"/>
  <path atv:refpx="578" atv:refpy="351.5" d="M563,351L593,351" fill="none" id="id_34" stroke="#fff" stroke-width="2"/>
  <path atv:refpx="560" atv:refpy="368.5" d="M517,366L603,366L603,371L517,371Z" fill="#000" id="id_35"/>
  <path atv:refpx="560" atv:refpy="383.5" d="M517,381L603,381L603,386L517,386Z" fill="#000" id="id_36"/>
  <path atv:refpx="684" atv:refpy="365.5" d="M765,310L765,421L603,421L603,310Z" fill="#7f7f72" id="id_37" stroke="#4c4c4c" stroke-width="2"/>
  <path atv:refpx="684" atv:refpy="320.5" d="M603,320L765,320" fill="none" id="id_38" stroke="#4c4c4c" stroke-width="2"/>
  <path atv:refpx="684" atv:refpy="411.5" d="M603,411L765,411" fill="none" id="id_41" stroke="#4c4c4c" stroke-width="2"/>
  <path atv:refpx="684" atv:refpy="365.5" d="M603,421L603,310L765,310" fill="none" id="id_42" stroke="#fff" stroke-width="2"/>
  <path atv:refpx="229.5" atv:refpy="270" d="M260,280L260,260L199,260L199,280Z" fill="#e5e5dd" id="id_43" stroke="#4c4c4c" stroke-width="2"/>
  <path atv:refpx="371" atv:refpy="270" d="M401,280L401,260L341,260L341,280Z" fill="#e5e5dd" id="id_44" stroke="#4c4c4c" stroke-width="2"/>
  <path atv:refpx="512.5" atv:refpy="270" d="M543,280L543,260L482,260L482,280Z" fill="#e5e5dd" id="id_45" stroke="#4c4c4c" stroke-width="2"/>
  <path atv:refpx="668.5" atv:refpy="270" d="M699,280L699,260L638,260L638,280Z" fill="#e5e5dd" id="id_46" stroke="#4c4c4c" stroke-width="2"/>
  <path atv:refpx="300.5" atv:refpy="116" d="M220,83L381,83L381,149L220,149Z" fill="#b2b29b" id="id_47" stroke="#4c4c4c" stroke-width="2"/>
  <path atv:refpx="144" atv:refpy="90.5" d="M149,88L139,93L149,93Z" fill="#666" id="id_48"/>
  <path atv:refpx="144" atv:refpy="100.5" d="M149,98L139,103L149,103Z" fill="#666" id="id_50"/>
  <path atv:refpx="144" atv:refpy="110.5" d="M149,108L139,113L149,113Z" fill="#666" id="id_51"/>
  <path atv:refpx="144" atv:refpy="121" d="M149,118L139,124L149,124Z" fill="#666" id="id_52"/>
  <path atv:refpx="144" atv:refpy="131" d="M149,128L139,134L149,134Z" fill="#666" id="id_53"/>
  <path atv:refpx="187" atv:refpy="206.5" d="M149,194L149,219L225,219L225,194Z" fill="none" id="id_54" stroke="#4c4c4c" stroke-width="2"/>
  <path atv:refpx="187" atv:refpy="186.5" d="M149,194L144,179L230,179L225,194Z" fill="#4c4c16" id="id_55" stroke="#4c4c4c" stroke-width="2"/>
  <path atv:refpx="187" atv:refpy="128.5" d="M144,179L149,78L225,78L230,179Z" fill="#e5e5dd" id="id_56" stroke="#4c4c4c" stroke-width="2"/>
  <path atv:refpx="186.5" atv:refpy="128.5" d="M156,169L217,169L215,88" fill="none" id="id_57" stroke="#4c4c4c" stroke-width="2"/>
  <path atv:refpx="185.5" atv:refpy="128.5" d="M156,169L159,88L215,88" fill="none" id="id_58" stroke="#fff" stroke-width="2"/>
  <path atv:refpx="250" atv:refpy="115.5" d="M230,138L270,138L270,93" fill="none" id="id_59" stroke="#4c4c4c" stroke-width="2"/>
  <path atv:refpx="300.5" atv:refpy="115.5" d="M280,138L321,138L321,93" fill="none" id="id_60" stroke="#4c4c4c" stroke-width="2"/>
  <path atv:refpx="351" atv:refpy="115.5" d="M331,138L371,138L371,93" fill="none" id="id_61" stroke="#4c4c4c" stroke-width="2"/>
  <path atv:refpx="351" atv:refpy="115.5" d="M371,93L331,93L331,138" fill="none" id="id_62" stroke="#fff" stroke-width="2"/>
  <path atv:refpx="301" atv:refpy="115.5" d="M321,93L281,93L281,138" fill="none" id="id_63" stroke="#fff" stroke-width="2"/>
  <path atv:refpx="250" atv:refpy="115.5" d="M270,93L230,93L230,138" fill="none" id="id_64" stroke="#fff" stroke-width="2"/>
  <path atv:refpx="356" atv:refpy="103" d="M346,98L366,98L366,108L346,108Z" fill="#e5e5dd" id="id_65"/>
  <path atv:refpx="303" atv:refpy="189" d="M280,179L326,179L326,199L280,199Z" fill="#e5e5dd" id="id_66"/>
  <path atv:refpx="300" atv:refpy="245" d="M209,260L391,260L391,255L361,255L361,230L356,230L356,255L245,255L245,230L240,230L240,255L209,255Z" fill="#99997a" id="id_67" stroke="#4c4c4c" stroke-width="2"/>
  <path atv:refpx="484.5" atv:refpy="148.5" d="M482,159L482,138L487,138L487,159Z" fill="#e5e5dd" id="id_68"/>
  <path atv:refpx="696.5" atv:refpy="148.5" d="M694,159L694,138L699,138L699,159Z" fill="#e5e5dd" id="id_69"/>
  <path atv:refpx="696.5" atv:refpy="181.5" d="M694,204L694,159L699,159L699,204Z" fill="#b2b29b" id="id_70"/>
  <path atv:refpx="484.5" atv:refpy="181.5" d="M482,204L482,159L487,159L487,204Z" fill="#b2b29b" id="id_71"/>
  <path atv:refpx="484.5" atv:refpy="232" d="M482,260L482,204L487,204L487,260Z" fill="#7f7f59" id="id_72"/>
  <path atv:refpx="696.5" atv:refpy="232" d="M694,260L694,204L699,204L699,260Z" fill="#7f7f59" id="id_73"/>
  <path atv:refpx="484.5" atv:refpy="199" d="M482,260L482,138L487,138L487,260Z" fill="none" id="id_74" stroke="#4c4c4c" stroke-width="2"/>
  <path atv:refpx="696.5" atv:refpy="199" d="M694,260L694,138L699,138L699,260Z" fill="none" id="id_75" stroke="#4c4c4c" stroke-width="2"/>
  <path atv:refpx="590.5" atv:refpy="204.5" d="M487,149L694,149L694,260L487,260Z" fill="#e5e5dd" id="id_76"/>
  <path atv:refpx="590.5" atv:refpy="214" d="M487,168L694,168L694,260L487,260Z" fill="#ccccbd" id="id_77"/>
  <path atv:refpx="590.5" atv:refpy="227.5" d="M487,195L694,195L694,260L487,260Z" fill="#b2b29b" id="id_78"/>
  <path atv:refpx="590.5" atv:refpy="204.5" d="M487,149L694,149L694,260L487,260Z" fill="none" id="id_79" stroke="#4c4c4c" stroke-width="2"/>
  <path atv:refpx="590.5" atv:refpy="230.5" d="M487,230L694,230" fill="none" id="id_80" stroke="#7f7f7f" stroke-width="2"/>
  <path atv:refpx="497" atv:refpy="242" d="M492,224L502,224L502,260L492,260Z" fill="#ccc" id="id_81" stroke="#4c4c4c" stroke-width="2"/>
  <path atv:refpx="523" atv:refpy="242" d="M518,224L528,224L528,260L518,260Z" fill="#ccc" id="id_82" stroke="#4c4c4c" stroke-width="2"/>
  <path atv:refpx="659" atv:refpy="242" d="M654,224L664,224L664,260L654,260Z" fill="#ccc" id="id_83" stroke="#4c4c4c" stroke-width="2"/>
  <path atv:refpx="684" atv:refpy="242" d="M679,224L689,224L689,260L679,260Z" fill="#ccc" id="id_84" stroke="#4c4c4c" stroke-width="2"/>
  <path atv:refpx="849" atv:refpy="374.5" d="M795,381L815,388L832,394L848,399L861,401L873,403L882,403L889,402L895,399L899,396L902,391L903,385L902,379L900,371L896,363L892,355L886,346L886,347L886,349L886,351L886,353L886,355L886,357L886,359L886,361L889,368L891,374L892,380L892,384L890,388L888,391L884,393L880,394L874,394L867,394L859,392L850,390L841,387L830,382L818,377L805,371L804,372L802,373L801,375L800,376L799,377L798,378L796,379Z" fill="#4c4c4c" id="id_85" stroke="#4c4c4c" stroke-width="2"/>
  <path atv:refpx="984.5" atv:refpy="368.5" d="M992,346L977,346L977,391L982,391L982,361L992,361Z" fill="#ccc" id="id_86"/>
  <path atv:refpx="815.5" atv:refpy="93" d="M745,88L886,88L886,98L745,98Z" fill="#b2b2aa" id="id_87" stroke="#4c4c4c" stroke-width="2"/>
  <path atv:refpx="805.5" atv:refpy="52.5" d="M755,88L745,78L745,27L755,17L866,17L866,88Z" fill="#7f7f7f" id="id_88"/>
  <path atv:refpx="805.5" atv:refpy="52.5" d="M755,78L745,71L745,34L755,27L866,27L866,78Z" fill="#b2b2b2" id="id_89"/>
  <path atv:refpx="805.5" atv:refpy="52.5" d="M755,63L745,60L745,45L755,42L866,42L866,63Z" fill="#e5e5e5" id="id_90"/>
  <path atv:refpx="805.5" atv:refpy="52.5" d="M755,88L745,78L745,27L755,17L866,17L866,88Z" fill="none" id="id_91" stroke="#4c4c4c" stroke-width="2"/>
  <path atv:refpx="775.5" atv:refpy="52.5" d="M775,88L775,17" fill="none" id="id_92" stroke="#4c4c4c" stroke-width="2"/>
  <path atv:refpx="845.5" atv:refpy="52.5" d="M845,88L845,17" fill="none" id="id_93" stroke="#4c4c4c" stroke-width="2"/>
  <path atv:refpx="810" atv:refpy="37.5" d="M785,17L835,17L835,58L785,58Z" fill="#4c4c4c" id="id_94" stroke="#4c4c4c" stroke-width="2"/>
  <path atv:refpx="840.5" atv:refpy="217" d="M790,179L891,179L891,255L790,255Z" fill="#000" id="id_95"/>
  <path atv:refpx="1002" atv:refpy="250" d="M957,240L1047,240L1047,260L957,260Z" fill="#000" id="id_96"/>
  <path atv:refpx="1002" atv:refpy="219" d="M957,209L1047,209L1047,229L957,229Z" fill="#000" id="id_97"/>
  <path atv:refpx="929" atv:refpy="244.5" d="M901,219L957,219L957,270L901,270Z" fill="#bfbfbf" id="id_98" stroke="#4c4c4c" stroke-width="2"/>
  <path atv:refpx="929" atv:refpy="277.5" d="M901,270L957,270L957,285L901,285Z" fill="#999" id="id_99" stroke="#4c4c4c" stroke-width="2"/>
  <path atv:refpx="906" atv:refpy="199" d="M755,189L1057,189L1057,209L755,209Z" fill="#99998f" id="id_100" stroke="#4c4c4c" stroke-width="2"/>
  <path atv:refpx="956.5" atv:refpy="98.5" d="M926,38L967,159L987,159L941,38Z" fill="#7f7f7f" id="id_101" stroke="#4c4c4c" stroke-width="2"/>
  <path atv:refpx="906" atv:refpy="136" d="M755,174L1057,174L1057,164L926,138L916,98L896,98L886,138L755,164Z" fill="#99998f" id="id_102" stroke="#4c4c4c" stroke-width="2"/>
  <path atv:refpx="906" atv:refpy="151" d="M891,138L921,138L921,164L891,164Z" fill="#ccc" id="id_103" stroke="#4c4c4c" stroke-width="2"/>
  <path atv:refpx="906" atv:refpy="98" d="M896,68L916,68L916,128L896,128Z" fill="#b2b2b2" id="id_104" stroke="#4c4c4c" stroke-width="2"/>
  <path atv:refpx="906" atv:refpy="103.5" d="M896,103L916,103" fill="none" id="id_105" stroke="#4c4c4c" stroke-width="2"/>
  <path atv:refpx="906" atv:refpy="83.5" d="M896,83L916,83" fill="none" id="id_106" stroke="#4c4c4c" stroke-width="2"/>
 </g>
 <text atv:refpx="159.738" atv:refpy="11.5" fill="$Color$" font-family="Arial" font-size="14" font-weight="bold" id="Title" x="138.5" y="17">Name</text>
 <svg atv:refpx="108" atv:refpy="180.002" height="30" id="id_2" transform="matrix(1,0,0,0.6667,0,0)" width="80" x="68" xlink:href="SYSTEM.LIBRARY.ATVISE.OBJECTDISPLAYS.Advanced.button_switch" y="254.993">
  <atv:argument name="base" prefix="base" value=".Apertura"/>
  <atv:argument name="labelOn" value="T{Stop}"/>
  <atv:argument name="labelOff" value="T{Start}"/>
  <atv:overwrite height="18.001" id="id_6" transform="matrix(1,0,0,1.4999,0,0)"/>
  <atv:overwrite id="button_label" transform="matrix(1,0,0,1.4999,0,0)" y="14.5"/>
  <atv:overwrite id="button_symbol_off" transform="matrix(1,0,0,1.4999,0,0)" y="0"/>
  <atv:overwrite id="button_symbol_on" transform="matrix(1,0,0,1.4999,0,0)" y="0"/>
  <atv:overwrite height="16.001" id="blinking_frame" transform="matrix(1,0,0,1.4999,0,0)"/>
  <atv:overwrite height="16.001" id="button_stroke" transform="matrix(1,0,0,1.4999,0,0)"/>
  <atv:overwrite height="18.001" id="button_bg" transform="matrix(1,0,0,1.4999,0,0)"/>
  <atv:overwrite height="20.001" id="outer_frame" transform="matrix(1,0,0,1.4999,0,0)"/>
 </svg>
 <text atv:refpx="90.123" atv:refpy="159.5" fill="#195c88" font-family="Arial" font-size="12" font-weight="bold" id="id_49" x="72.967" y="164">On/Off</text>
 <polygon atv:refpx="63.671" atv:refpy="44.035" fill="#fdf90a" id="alert_increasing" points="51.67,56.034 75.67,56.034 63.003,32.034" stroke="#000000" stroke-width="1"/>
 <rect atv:refpx="232.5" atv:refpy="78" fill="#000000" fill-opacity="0" height="148" id="click_area" stroke="#0000ff" stroke-width="0" width="311" x="77" y="4"/>
 <g atv:refpx="24.062" atv:refpy="174.062" id="maintenance" transform="matrix(1,0,0,1,-0.5819,19.4175)">
  <rect atv:refpx="46.171" atv:refpy="204.643" fill="#2b9de8" height="24.544" id="id_39" stroke="#000000" stroke-width="1" transform="matrix(0.7071,-0.7071,0.7071,0.7071,0,0)" width="24.544" x="-104.196" y="114.505"/>
  <text atv:refpx="28" atv:refpy="149.5" fill="#000000" font-family="Arial" font-size="14" id="id_40" x="18.5" y="160">M</text>
 </g>
 <polygon atv:refpx="11.207" atv:refpy="46.619" fill="#fdbf21" id="alert_decreasing" points="25.872,34.618 1.871,34.618 14.536,58.619" stroke="#000000" stroke-width="1"/>
 <text atv:refpx="64.671" atv:refpy="48.535" fill="#000000" font-family="Arial" font-size="14" font-weight="bold" id="alertC_text" text-anchor="end" x="66.171" y="53.035">1</text>
 <text atv:refpx="14.459" atv:refpy="43.617" fill="#000000" font-family="Arial" font-size="14" font-weight="bold" id="alertD_text" x="10.959" y="48.117">1</text>
 <rect atv:refpx="9.088" atv:refpy="-51.533" fill="#93060a" fill-opacity="0" height="42" id="click_area_alertC" stroke="none" stroke-width="0" width="28" x="50" y="17"/>
 <rect atv:refpx="14" atv:refpy="49" fill="#93060a" fill-opacity="0" height="42" id="click_area_alertD" stroke="none" stroke-width="0" width="28" x="0" y="30"/>
 <polygon atv:refpx="60.419" atv:refpy="87.537" fill="#fdf90a" id="alert_increasing_min" points="75.084,75.535 51.082,75.535 63.748,99.535" stroke="#000000" stroke-width="1"/>
 <text atv:refpx="63.671" atv:refpy="84.535" fill="#000000" font-family="Arial" font-size="14" font-weight="bold" id="alertC_text_min" x="60.171" y="89.035">1</text>
 <polygon atv:refpx="14.459" atv:refpy="87.117" fill="#fdbf21" id="alert_decreasing_min" points="2.458,99.117 26.458,99.117 13.79,75.117" stroke="#000000" stroke-width="1"/>
 <text atv:refpx="15" atv:refpy="91.5" fill="#000000" font-family="Arial" font-size="14" font-weight="bold" id="alertD_text_min" text-anchor="end" x="16.5" y="96">1</text>
 <rect atv:refpx="-40.912" atv:refpy="-7.533" fill="#93060a" fill-opacity="0" height="42" id="click_area_alertD_min" stroke="none" stroke-width="0" width="28" x="0" y="61"/>
 <g atv:refpx="36.5" atv:refpy="67" id="Ind_Bar" transform="matrix(1,0,0,1,-2,-2)">
  <rect atv:refpx="38.5" atv:refpy="69" fill="#626262" height="77.366" id="Barra_Ind2" rx="7" ry="7" stroke="#000000" stroke-width="1" width="14" x="31.5" y="30.317"/>
  <path atv:refpx="38.496" atv:refpy="36.976" d="M31.826,43.257L45.178,43.257L45.08,36.1C45.08,36.1 44.046,30.754 38.676,30.694C33.305,30.633 31.876,35.603 31.876,35.603C31.876,35.603 31.777,43.318 31.826,43.257" fill="#b5b5b5" id="id_19" stroke="#000000" stroke-width="0"/>
  <path atv:refpx="38.533" atv:refpy="100.982" d="M45.204,94.701L31.852,94.701L31.95,101.858C31.95,101.858 32.985,107.205 38.355,107.265C43.726,107.324 45.154,102.356 45.154,102.356C45.154,102.356 45.252,94.641 45.204,94.701" fill="#b5b5b5" id="id_20" stroke="#000000" stroke-width="0"/>
 </g>
 <rect atv:refpx="49.396" atv:refpy="20.211" fill="#bd070d" height="23" id="alarm_square" rx="1.855" ry="1.987" stroke="#000000" stroke-width="1" text-anchor="middle" width="23" x="37.446" y="8.085"/>
 <text atv:refpx="-20.554" atv:refpy="-5.2" fill="#000000" font-family="Arial" font-size="14" font-weight="bold" id="alarm_text" text-anchor="middle" x="48.946" y="24.586">1</text>
 <rect atv:refpx="-3.405" atv:refpy="-43.69" fill="#93060a" fill-opacity="0" height="28" id="click_area_alarm" stroke="none" stroke-width="0" width="28" x="34.879" y="5.516"/>
 <rect atv:refpx="49.102" atv:refpy="114.645" fill="#bd070d" height="23" id="alarm_square_min" rx="1.855" ry="1.987" stroke="#000000" stroke-width="1" text-anchor="middle" width="23" x="37.152" y="102.519"/>
 <text atv:refpx="-20.848" atv:refpy="89.234" fill="#000000" font-family="Arial" font-size="14" font-weight="bold" id="alarm_text_min" text-anchor="middle" x="48.652" y="119.02">1</text>
 <rect atv:refpx="-3.983" atv:refpy="51.028" fill="#93060a" fill-opacity="0" height="28" id="click_area_alarm_min" stroke="none" stroke-width="0" width="28" x="34.301" y="100.234"/>
 <rect atv:refpx="63" atv:refpy="90" fill="#93060a" fill-opacity="0" height="42" id="click_area_alertC_min" stroke="none" stroke-width="0" width="28" x="49" y="71"/>
 <script atv:desc="" atv:href="SYSTEM.LIBRARY.PROJECT.DISPLAYSCRIPTS.atvise_Advanced_Objects_Display_Scripts.AAA_Principal_Display_Script" atv:name="" atv:type="text/ecmascript"/>
 <script atv:desc="" atv:name="" type="text/ecmascript"><![CDATA[












]]></script>
</svg>
