<svg width="112.5" xmlns:atv="http://webmi.atvise.com/2007/svgext" version="1.1" xmlns="http://www.w3.org/2000/svg" xmlns:xlink="http://www.w3.org/1999/xlink" height="88.402000000000001" enable-background="new 0 0 112.5 88.402" xml:space="preserve">
 <defs>
  <linearGradient gradientUnits="objectBoundingBox" id="SVGID_1_" x1="0" x2="1" y1="0.500008" y2="0.500008">
   <stop offset="0" stop-color="#596D8C"/>
   <stop offset="0.5" stop-color="#BFD3F2"/>
   <stop offset="1" stop-color="#596D8C"/>
  </linearGradient>
  <linearGradient gradientUnits="objectBoundingBox" id="SVGID_2_" x1="0" x2="1" y1="0.500005" y2="0.500005">
   <stop offset="0" stop-color="#596D8C"/>
   <stop offset="0.5" stop-color="#BFD3F2"/>
   <stop offset="1" stop-color="#596D8C"/>
  </linearGradient>
 </defs>
 <metadata>
  <atv:gridconfig enabled="false" gridstyle="lines" height="20" width="20"/>
  <atv:snapconfig enabled="false" height="10" width="10"/>
 </metadata>
 <g atv:refpx="56.194" atv:refpy="44.201" id="id_39">
  <g atv:refpx="56.194" atv:refpy="46.166" id="Group_Tank">
   <rect atv:refpx="56.25" atv:refpy="46.228" fill="url(#SVGID_1_)" height="65.653" id="id_0" width="112.5" y="13.401"/>
   <path atv:refpx="56.25" atv:refpy="79.058" d="M0,79.06C0,73.898 25.184,69.714 56.25,69.714C87.316,69.714 112.5,73.898 112.5,79.06C112.5,84.218 87.316,88.402 56.25,88.402C25.184,88.402 0,84.218 0,79.06" fill="url(#SVGID_2_)" id="id_1"/>
   <ellipse atv:refpx="56.194" atv:refpy="13.401" cx="56.194" cy="13.401" fill="#8CA0BF" id="id_2" rx="56.193" ry="9.347" stroke="#4C4C4C" stroke-width="0.25"/>
  </g>
  <g atv:refpx="56.307" atv:refpy="13.418" id="Group_Liquid">
   <path atv:refpx="44.764" atv:refpy="15.319" d="M13.937,8.541C7.766,9.948 4.119,11.676 4.119,13.544C4.119,18.269 27.373,22.098 56.057,22.098C66.958,22.098 77.057,21.541 85.409,20.595" fill="#405473" id="id_3" stroke="#4C4C4C" stroke-width="0.25"/>
   <path atv:refpx="49.043" atv:refpy="15.146" d="M85.022,20.496L76.013,21.171L68.693,21.622L13.063,11.712L13.063,8.671Z" fill="#596D8C" id="id_4" stroke="#4C4C4C" stroke-width="0.25"/>
   <path atv:refpx="71.796" atv:refpy="10.143" d="M106.657,15.549C107.847,14.83 108.496,14.074 108.496,13.293C108.496,8.568 85.241,4.738 56.557,4.738C48.9,4.738 41.637,5.013 35.096,5.504" fill="#405473" id="id_5" stroke="#4C4C4C" stroke-width="0.25"/>
  </g>
  <g atv:refpx="58.841" atv:refpy="44.201" id="Group_Rails">
   <path atv:refpx="67.962" atv:refpy="4.955" d="M32.207,1.126L32.207,0L103.717,8.671L103.717,9.91Z" fill="#CCB24C" id="id_6"/>
   <path atv:refpx="67.962" atv:refpy="7.827" d="M32.207,4.054L32.207,2.815L103.717,11.599L103.717,12.838Z" fill="#CCB24C" id="id_7"/>
   <path atv:refpx="23.086" atv:refpy="4.617" d="M13.964,6.419L13.964,5.181L32.207,2.816L32.207,4.054Z" fill="#CCB24C" id="id_8"/>
   <path atv:refpx="23.086" atv:refpy="1.746" d="M13.964,3.491L13.964,2.252L32.207,0L32.207,1.126Z" fill="#CCB24C" id="id_9"/>
   <path atv:refpx="103.154" atv:refpy="11.88" d="M103.717,15.09L102.59,15.09L102.59,8.671L103.717,8.671Z" fill="#CCB24C" id="id_10"/>
   <path atv:refpx="85.529" atv:refpy="9.91" d="M86.036,12.838L85.022,12.838L85.022,6.982L86.036,6.982Z" fill="#CCB24C" id="id_11"/>
   <path atv:refpx="67.905" atv:refpy="7.546" d="M68.469,10.473L67.342,10.473L67.342,4.618L68.469,4.618Z" fill="#CCB24C" id="id_12"/>
   <path atv:refpx="50.338" atv:refpy="5.462" d="M50.901,8.108L49.775,8.108L49.775,2.815L50.901,2.815Z" fill="#CCB24C" id="id_13"/>
   <path atv:refpx="32.77" atv:refpy="3.098" d="M33.333,5.744L32.207,5.744L32.207,0.451L33.333,0.451Z" fill="#CCB24C" id="id_14"/>
   <path atv:refpx="23.311" atv:refpy="4.335" d="M23.874,6.982L22.747,6.982L22.747,1.689L23.874,1.689Z" fill="#CCB24C" id="id_15"/>
   <path atv:refpx="84.91" atv:refpy="16.892" d="M85.473,20.383L84.347,20.383L84.347,13.401L85.473,13.401Z" fill="#E5CB65" id="id_16"/>
   <path atv:refpx="67.342" atv:refpy="14.245" d="M67.905,17.455L66.779,17.455L66.779,11.035L67.905,11.035Z" fill="#E5CB65" id="id_17"/>
   <path atv:refpx="49.775" atv:refpy="11.317" d="M50.338,14.527L49.212,14.527L49.212,8.108L50.338,8.108Z" fill="#E5CB65" id="id_18"/>
   <path atv:refpx="14.527" atv:refpy="5.743" d="M15.09,8.671L13.964,8.671L13.964,2.815L15.09,2.815Z" fill="#E5CB65" id="id_19"/>
   <path atv:refpx="32.151" atv:refpy="8.672" d="M32.658,11.6L31.644,11.6L31.644,5.744L32.658,5.744Z" fill="#E5CB65" id="id_20"/>
   <path atv:refpx="49.718" atv:refpy="8.108" d="M13.964,3.491L13.964,2.252L85.473,12.838L85.473,13.964Z" fill="#E5CB65" id="id_21"/>
   <path atv:refpx="49.718" atv:refpy="11.037" d="M13.964,6.419L13.964,5.181L85.473,15.766L85.473,16.892Z" fill="#E5CB65" id="id_22"/>
   <path atv:refpx="93.975" atv:refpy="50.957" d="M96.621,15.766L96.621,88.402L95.496,88.402L95.496,16.329L94.595,15.09L93.469,14.752L92.568,15.315L92.568,19.257L91.329,19.257L91.329,14.527L93.131,13.513L95.158,13.851Z" fill="#E5CB65" id="id_23"/>
   <path atv:refpx="100.451" atv:refpy="49.776" d="M103.041,14.64L103.041,87.275L101.914,87.275L101.914,15.766L101.126,14.64L99.887,13.401L98.987,14.64L98.987,18.131L97.86,18.131L97.86,13.402L99.662,12.276L101.576,12.276Z" fill="#E5CB65" id="id_24"/>
   <path atv:refpx="99.55" atv:refpy="81.927" d="M102.478,81.982L96.622,83.109L96.622,81.982L102.478,80.744Z" fill="#CCB24C" id="id_25"/>
   <path atv:refpx="99.55" atv:refpy="77.252" d="M102.478,77.252L96.622,78.378L96.622,77.252L102.478,76.125Z" fill="#CCB24C" id="id_26"/>
   <path atv:refpx="99.55" atv:refpy="72.579" d="M102.478,72.636L96.622,73.761L96.622,72.636L102.478,71.396Z" fill="#CCB24C" id="id_27"/>
   <path atv:refpx="99.55" atv:refpy="67.906" d="M102.478,67.906L96.622,69.032L96.622,67.906L102.478,66.78Z" fill="#CCB24C" id="id_28"/>
   <path atv:refpx="99.55" atv:refpy="63.232" d="M102.478,63.175L96.622,64.414L96.622,63.174L102.478,62.049Z" fill="#CCB24C" id="id_29"/>
   <path atv:refpx="99.55" atv:refpy="58.502" d="M102.478,58.559L96.622,59.684L96.622,58.559L102.478,57.32Z" fill="#CCB24C" id="id_30"/>
   <path atv:refpx="99.55" atv:refpy="53.829" d="M102.478,53.83L96.622,54.955L96.622,53.83L102.478,52.702Z" fill="#CCB24C" id="id_31"/>
   <path atv:refpx="99.55" atv:refpy="49.155" d="M102.478,49.099L96.622,50.337L96.622,49.099L102.478,47.973Z" fill="#CCB24C" id="id_32"/>
   <path atv:refpx="99.55" atv:refpy="44.425" d="M102.478,44.482L96.622,45.608L96.622,44.482L102.478,43.243Z" fill="#CCB24C" id="id_33"/>
   <path atv:refpx="99.55" atv:refpy="39.752" d="M102.478,39.752L96.622,40.878L96.622,39.752L102.478,38.626Z" fill="#CCB24C" id="id_34"/>
   <path atv:refpx="99.55" atv:refpy="35.08" d="M102.478,35.136L96.622,36.262L96.622,35.136L102.478,33.897Z" fill="#CCB24C" id="id_35"/>
   <path atv:refpx="99.55" atv:refpy="30.406" d="M102.478,30.406L96.622,31.532L96.622,30.406L102.478,29.279Z" fill="#CCB24C" id="id_36"/>
   <path atv:refpx="99.55" atv:refpy="25.732" d="M102.478,25.676L96.622,26.915L96.622,25.676L102.478,24.549Z" fill="#CCB24C" id="id_37"/>
   <path atv:refpx="99.55" atv:refpy="21.003" d="M102.478,21.059L96.622,22.185L96.622,21.059L102.478,19.82Z" fill="#CCB24C" id="id_38"/>
  </g>
 </g>
</svg>
