<!DOCTYPE svg PUBLIC '-//W3C//DTD SVG 20000303 Stylable//EN' 'http://www.w3.org/TR/2000/03/WD-SVG-20000303/DTD/svg-20000303-stylable.dtd'>
<svg height="999" width="695" xmlns="http://www.w3.org/2000/svg" xmlns:atv="http://webmi.atvise.com/2007/svgext" xmlns:xlink="http://www.w3.org/1999/xlink">
 <defs/>
 <metadata>
  <atv:gridconfig enabled="false" gridstyle="lines" height="20" width="20"/>
  <atv:snapconfig enabled="false" height="10" width="10"/>
 </metadata>
 <path atv:refpx="347.5" atv:refpy="542" d="M0,999L0,85L695,85L695,999Z" fill="#c7c7c7" id="id_0" stroke="#4c4c4c" stroke-width="2"/>
 <path atv:refpx="348.5" atv:refpy="901" d="M88,955L88,847L609,847L609,955Z" fill="#b2b2b2" id="id_1"/>
 <path atv:refpx="348" atv:refpy="901" d="M109,933L109,869L587,869L587,933Z" fill="#7f7f7f" id="id_2"/>
 <path atv:refpx="347.5" atv:refpy="42.5" d="M131,85L131,0L564,0L564,85Z" fill="#3e3e3e" id="id_3" stroke="#4c4c4c" stroke-width="2"/>
 <path atv:refpx="348" atv:refpy="282" d="M131,369L131,195L565,195L565,369Z" fill="#7f7f7f" id="id_4"/>
 <path atv:refpx="347" atv:refpy="466" d="M217,521L217,411L477,411L477,521Z" fill="#007f7f" id="id_5"/>
 <g atv:refpx="420.239" atv:refpy="668.59" id="Group_Down" transform="matrix(5.6486,0,0,5.6486,48.751,388.7058)">
  <path atv:refpx="65.766" atv:refpy="49.549" d="M57.658,45.833L73.874,45.833L65.765,53.265Z" fill="#595959" id="id_11" stroke="#4C4C4C" stroke-width="0.1"/>
  <path atv:refpx="67.266" atv:refpy="48.799" d="M61.186,46.012L73.347,46.012L67.265,51.586Z" fill="#C2C2C2" id="id_12" stroke="#4C4C4C" stroke-width="0.1"/>
 </g>
 <g atv:refpx="522.964" atv:refpy="668.595" id="Group_Up" transform="matrix(5.6486,0,0,5.6486,48.751,388.7058)">
  <path atv:refpx="83.953" atv:refpy="49.55" d="M92.117,53.266L75.788,53.266L83.896,45.833Z" fill="#595959" id="id_13" stroke="#4C4C4C" stroke-width="0.1"/>
  <path atv:refpx="84.017" atv:refpy="49.049" d="M90.097,51.836L77.936,51.836L84.017,46.262Z" fill="#C2C2C2" id="id_14" stroke="#4C4C4C" stroke-width="0.1"/>
 </g>
 <g atv:refpx="303.188" atv:refpy="668.703" id="Group_Minus" transform="matrix(5.6486,0,0,5.6486,48.751,388.7058)">
  <path atv:refpx="45.044" atv:refpy="49.662" d="M37.049,50.788L37.049,48.535L53.04,48.535L53.04,50.788Z" fill="#595959" id="id_15" stroke="#4C4C4C" stroke-width="0.1"/>
  <path atv:refpx="45.025" atv:refpy="49.037" d="M37.299,49.724L37.299,48.351L52.75,48.351L52.75,49.724Z" fill="#A7A7A7" id="id_16" stroke="#4C4C4C" stroke-width="0.1"/>
 </g>
 <g atv:refpx="192.836" atv:refpy="668.595" id="Group_Plus" transform="matrix(5.6486,0,0,5.6486,48.751,388.7058)">
  <path atv:refpx="25.507" atv:refpy="49.55" d="M18.356,50.563L18.356,48.536L24.549,48.536L24.549,42.455L26.464,42.455L26.464,48.536L32.658,48.536L32.658,50.563L26.464,50.563L26.464,56.644L24.549,56.644L24.549,50.563Z" fill="#595959" id="id_17" stroke="#4C4C4C" stroke-width="0.1"/>
  <path atv:refpx="25.83" atv:refpy="49.125" d="M19,50.071L19,48.178L24.914,48.178L24.914,42.5L26.743,42.5L26.743,48.178L32.659,48.178L32.659,50.071L26.743,50.071L26.743,55.75L24.914,55.75L24.914,50.071Z" fill="#B3B3B3" id="id_18" stroke="#4C4C4C" stroke-width="0.1"/>
 </g>
</svg>
