<?xml version='1.0' encoding='UTF-8' standalone='no'?>
<svg height="285" version="1.2" width="510" xmlns="http://www.w3.org/2000/svg" xmlns:atv="http://webmi.atvise.com/2007/svgext" xmlns:xlink="http://www.w3.org/1999/xlink">
 <defs>
  <linearGradient gradientUnits="objectBoundingBox" id="id_33_fill_gradient" spreadMethod="reflect" x1="0.0675676" x2="0.581081" y1="1" y2="1">
   <stop offset="0" stop-color="#999999"/>
   <stop offset="1" stop-color="#e5e5e5"/>
  </linearGradient>
  <linearGradient gradientUnits="objectBoundingBox" id="id_34_fill_gradient" spreadMethod="reflect" x1="-0.135135" x2="0.405405" y1="0.986486" y2="0.972973">
   <stop offset="0" stop-color="#999999"/>
   <stop offset="1" stop-color="#e5e5e5"/>
  </linearGradient>
  <linearGradient gradientUnits="objectBoundingBox" id="id_41_fill_gradient" spreadMethod="reflect" x1="-0.135135" x2="0.405405" y1="1" y2="0.972973">
   <stop offset="0" stop-color="#999999"/>
   <stop offset="1" stop-color="#e5e5e5"/>
  </linearGradient>
  <linearGradient gradientUnits="objectBoundingBox" id="id_42_fill_gradient" spreadMethod="reflect" x1="-0.135135" x2="0.405405" y1="0.986486" y2="0.972973">
   <stop offset="0" stop-color="#999999"/>
   <stop offset="1" stop-color="#e5e5e5"/>
  </linearGradient>
  <radialGradient cx="0.5" cy="0.5" fx="0.5" fy="0.5" gradientUnits="objectBoundingBox" id="id_42_stroke_gradient" r="1">
   <stop offset="0" stop-color="#000000"/>
   <stop offset="1" stop-color="#ffffff"/>
  </radialGradient>
  <linearGradient gradientUnits="objectBoundingBox" id="id_43_fill_gradient" spreadMethod="reflect" x1="-0.135135" x2="0.405405" y1="1" y2="0.972973">
   <stop offset="0" stop-color="#999999"/>
   <stop offset="1" stop-color="#e5e5e5"/>
  </linearGradient>
  <radialGradient cx="0.5" cy="0.5" fx="0.5" fy="0.5" gradientUnits="objectBoundingBox" id="id_44_fill_gradient" r="0.514579">
   <stop offset="0.6088709677419355" stop-color="#e4e4e4"/>
   <stop offset="1" stop-color="#9a9a9a"/>
  </radialGradient>
  <radialGradient cx="0.5" cy="0.5" fx="0.5" fy="0.5" gradientUnits="objectBoundingBox" id="id_7_fill_gradient" r="0.514579">
   <stop offset="0.6088709677419355" stop-color="#e4e4e4"/>
   <stop offset="1" stop-color="#9a9a9a"/>
  </radialGradient>
  <linearGradient gradientUnits="objectBoundingBox" id="linear_0" x1="0" x2="1" y1="0" y2="1">
   <stop offset="0" stop-color="#000000"/>
   <stop offset="1" stop-color="#000000" stop-opacity="0"/>
  </linearGradient>
  <linearGradient gradientUnits="objectBoundingBox" id="SVGID_10_" x1="-0.000148525" x2="0.99982" y1="0.499965" y2="0.499965">
   <stop offset="0.17" stop-color="#4D4D4D"/>
   <stop offset="0.23" stop-color="#5A5A5A"/>
   <stop offset="0.34" stop-color="#7D7D7D"/>
   <stop offset="0.48" stop-color="#B2B2B2"/>
   <stop offset="0.57" stop-color="#A8A8A8"/>
   <stop offset="0.73" stop-color="#8B8B8B"/>
   <stop offset="0.94" stop-color="#5C5C5C"/>
   <stop offset="1" stop-color="#4D4D4D"/>
  </linearGradient>
  <linearGradient gradientUnits="objectBoundingBox" id="SVGID_11_" x1="0" x2="0.999992" y1="0.499686" y2="0.499686">
   <stop offset="0.17" stop-color="#4D4D4D"/>
   <stop offset="0.23" stop-color="#5A5A5A"/>
   <stop offset="0.34" stop-color="#7D7D7D"/>
   <stop offset="0.48" stop-color="#B2B2B2"/>
   <stop offset="0.57" stop-color="#A8A8A8"/>
   <stop offset="0.73" stop-color="#8B8B8B"/>
   <stop offset="0.94" stop-color="#5C5C5C"/>
   <stop offset="1" stop-color="#4D4D4D"/>
  </linearGradient>
  <linearGradient gradientUnits="objectBoundingBox" id="SVGID_12_" x1="-0.000159151" x2="0.999873" y1="0.499976" y2="0.499976">
   <stop offset="0.17" stop-color="#4D4D4D"/>
   <stop offset="0.23" stop-color="#5A5A5A"/>
   <stop offset="0.34" stop-color="#7D7D7D"/>
   <stop offset="0.48" stop-color="#B2B2B2"/>
   <stop offset="0.57" stop-color="#A8A8A8"/>
   <stop offset="0.73" stop-color="#8B8B8B"/>
   <stop offset="0.94" stop-color="#5C5C5C"/>
   <stop offset="1" stop-color="#4D4D4D"/>
  </linearGradient>
  <linearGradient gradientUnits="objectBoundingBox" id="SVGID_13_" x1="-3.95757e-05" x2="0.999984" y1="0.500503" y2="0.500503">
   <stop offset="0.17" stop-color="#4D4D4D"/>
   <stop offset="0.23" stop-color="#5A5A5A"/>
   <stop offset="0.34" stop-color="#7D7D7D"/>
   <stop offset="0.48" stop-color="#B2B2B2"/>
   <stop offset="0.57" stop-color="#A8A8A8"/>
   <stop offset="0.73" stop-color="#8B8B8B"/>
   <stop offset="0.94" stop-color="#5C5C5C"/>
   <stop offset="1" stop-color="#4D4D4D"/>
  </linearGradient>
  <linearGradient gradientUnits="objectBoundingBox" id="SVGID_1_" x1="2.80483e-06" x2="1" y1="0.5" y2="0.5">
   <stop offset="0" stop-color="#383838"/>
   <stop offset="0.5" stop-color="#ECECEC"/>
   <stop offset="0.57" stop-color="#D9D9D9"/>
   <stop offset="0.71" stop-color="#A8A8A8"/>
   <stop offset="0.92" stop-color="#5A5A5A"/>
   <stop offset="1" stop-color="#383838"/>
  </linearGradient>
  <linearGradient gradientUnits="objectBoundingBox" id="SVGID_2_" x1="-5.34852e-06" x2="0.999996" y1="0.500015" y2="0.500015">
   <stop offset="0.06" stop-color="#808080"/>
   <stop offset="0.13" stop-color="#8D8D8D"/>
   <stop offset="0.28" stop-color="#B0B0B0"/>
   <stop offset="0.48" stop-color="#E8E8E8"/>
   <stop offset="0.48" stop-color="#EBEBEB"/>
   <stop offset="0.57" stop-color="#E0E0E0"/>
   <stop offset="0.72" stop-color="#C3C3C3"/>
   <stop offset="0.92" stop-color="#949494"/>
   <stop offset="1" stop-color="#808080"/>
  </linearGradient>
  <linearGradient gradientUnits="objectBoundingBox" id="SVGID_3_" x1="0.0132289" x2="0.961723" y1="1.43718" y2="-0.523291">
   <stop offset="0.29" stop-color="#F7F7F7"/>
   <stop offset="0.38" stop-color="#ECECEC"/>
   <stop offset="0.52" stop-color="#CFCFCF"/>
   <stop offset="0.71" stop-color="#A0A0A0"/>
   <stop offset="0.94" stop-color="#5F5F5F"/>
   <stop offset="1" stop-color="#4D4D4D"/>
  </linearGradient>
  <linearGradient gradientUnits="objectBoundingBox" id="SVGID_4_" x1="0.984938" x2="0.0397305" y1="1.44782" y2="-0.461717">
   <stop offset="0.29" stop-color="#F7F7F7"/>
   <stop offset="0.38" stop-color="#ECECEC"/>
   <stop offset="0.52" stop-color="#CFCFCF"/>
   <stop offset="0.71" stop-color="#A0A0A0"/>
   <stop offset="0.94" stop-color="#5F5F5F"/>
   <stop offset="1" stop-color="#4D4D4D"/>
  </linearGradient>
  <linearGradient gradientUnits="objectBoundingBox" id="SVGID_5_" x1="0.499998" x2="0.499998" y1="2.24065e-05" y2="1">
   <stop offset="0" stop-color="#C8C8C8"/>
   <stop offset="0.29" stop-color="#B1B1B1"/>
   <stop offset="0.91" stop-color="#757575"/>
   <stop offset="1" stop-color="#6C6C6C"/>
  </linearGradient>
  <linearGradient gradientUnits="objectBoundingBox" id="SVGID_6_" x1="-9.45716e-06" x2="1.00002" y1="0.5" y2="0.5">
   <stop offset="0" stop-color="#383838"/>
   <stop offset="0.45" stop-color="#ECECEC"/>
   <stop offset="0.55" stop-color="#D9D9D9"/>
   <stop offset="0.76" stop-color="#A8A8A8"/>
   <stop offset="0.77" stop-color="#A6A6A6"/>
   <stop offset="1" stop-color="#383838"/>
  </linearGradient>
  <linearGradient gradientUnits="objectBoundingBox" id="SVGID_7_" x1="7.05467e-06" x2="0.999993" y1="0.499944" y2="0.499944">
   <stop offset="0" stop-color="#383838"/>
   <stop offset="0.45" stop-color="#ECECEC"/>
   <stop offset="0.55" stop-color="#D9D9D9"/>
   <stop offset="0.76" stop-color="#A8A8A8"/>
   <stop offset="0.77" stop-color="#A6A6A6"/>
   <stop offset="1" stop-color="#383838"/>
  </linearGradient>
  <linearGradient gradientUnits="objectBoundingBox" id="SVGID_8_" x1="1.89143e-05" x2="1.00004" y1="0.5" y2="0.5">
   <stop offset="0" stop-color="#383838"/>
   <stop offset="0.45" stop-color="#ECECEC"/>
   <stop offset="0.55" stop-color="#D9D9D9"/>
   <stop offset="0.76" stop-color="#A8A8A8"/>
   <stop offset="0.77" stop-color="#A6A6A6"/>
   <stop offset="1" stop-color="#383838"/>
  </linearGradient>
  <linearGradient gradientUnits="objectBoundingBox" id="SVGID_9_" x1="2.82187e-05" x2="1.00001" y1="0.499944" y2="0.499944">
   <stop offset="0" stop-color="#383838"/>
   <stop offset="0.45" stop-color="#ECECEC"/>
   <stop offset="0.55" stop-color="#D9D9D9"/>
   <stop offset="0.76" stop-color="#A8A8A8"/>
   <stop offset="0.77" stop-color="#A6A6A6"/>
   <stop offset="1" stop-color="#383838"/>
  </linearGradient>
  <radialGradient cx="0.499789" cy="0.500127" fx="0.499789" fy="0.500127" gradientUnits="objectBoundingBox" id="radial_1" r="0.500063">
   <stop offset="0" stop-color="#E0E0E0"/>
   <stop offset="0.5" stop-color="#E0E0E0"/>
   <stop offset="1" stop-color="#595959"/>
  </radialGradient>
  <radialGradient cx="0.500042" cy="0.499911" fx="0.500042" fy="0.499911" gradientUnits="objectBoundingBox" id="radial_2" r="0.500043">
   <stop offset="0" stop-color="#E0E0E0"/>
   <stop offset="0.5" stop-color="#E0E0E0"/>
   <stop offset="1" stop-color="#595959"/>
  </radialGradient>
  <radialGradient cx="0.499848" cy="0.499978" fx="0.499848" fy="0.499978" gradientUnits="objectBoundingBox" id="radial_3" r="0.499968">
   <stop offset="0" stop-color="#E0E0E0"/>
   <stop offset="0.5" stop-color="#E0E0E0"/>
   <stop offset="1" stop-color="#595959"/>
  </radialGradient>
  <linearGradient gradientUnits="objectBoundingBox" id="linear_4" x1="0.563112" x2="0.436914" y1="1.13692" y2="-0.13513">
   <stop offset="0" stop-color="#808080"/>
   <stop offset="0.5" stop-color="#B2B2B2"/>
   <stop offset="0.6" stop-color="#D1D1D1"/>
   <stop offset="1" stop-color="#E5E5E5"/>
  </linearGradient>
  <radialGradient cx="0.5" cy="0.5" fx="0.5" fy="0.5" gradientUnits="objectBoundingBox" id="radial_5" r="0.500064">
   <stop offset="0" stop-color="#E0E0E0"/>
   <stop offset="0.5" stop-color="#BFD3F2"/>
   <stop offset="1" stop-color="#BFD3F2"/>
  </radialGradient>
  <radialGradient cx="0.499978" cy="0.5" fx="0.499978" fy="0.5" gradientUnits="objectBoundingBox" id="radial_6" r="0.500022">
   <stop offset="0" stop-color="#E0E0E0"/>
   <stop offset="0.5" stop-color="#BFD3F2"/>
   <stop offset="1" stop-color="#BFD3F2"/>
  </radialGradient>
  <radialGradient cx="0.499935" cy="0.499913" fx="0.499935" fy="0.499913" gradientUnits="objectBoundingBox" id="radial_7" r="0.500022">
   <stop offset="0" stop-color="#E0E0E0"/>
   <stop offset="0.5" stop-color="#BFD3F2"/>
   <stop offset="1" stop-color="#BFD3F2"/>
  </radialGradient>
  <radialGradient cx="0.500042" cy="0.500065" fx="0.500042" fy="0.500065" gradientUnits="objectBoundingBox" id="radial_8" r="0.500075">
   <stop offset="0" stop-color="#E0E0E0"/>
   <stop offset="0.5" stop-color="#BFD3F2"/>
   <stop offset="1" stop-color="#BFD3F2"/>
  </radialGradient>
  <radialGradient cx="0.499848" cy="0.500044" fx="0.499848" fy="0.500044" gradientUnits="objectBoundingBox" id="radial_9" r="0.528715">
   <stop offset="0" stop-color="#E0E0E0"/>
   <stop offset="0.5" stop-color="#BFD3F2"/>
   <stop offset="1" stop-color="#BFD3F2"/>
  </radialGradient>
  <radialGradient cx="0.500022" cy="0.500065" fx="0.500022" fy="0.500065" gradientUnits="objectBoundingBox" id="radial_10" r="0.499968">
   <stop offset="0" stop-color="#E0E0E0"/>
   <stop offset="0.5" stop-color="#E0E0E0"/>
   <stop offset="1" stop-color="#595959"/>
  </radialGradient>
  <radialGradient cx="0.500022" cy="0.500087" fx="0.500022" fy="0.500087" gradientUnits="objectBoundingBox" id="radial_11" r="0.500022">
   <stop offset="0" stop-color="#E0E0E0"/>
   <stop offset="0.5" stop-color="#E0E0E0"/>
   <stop offset="1" stop-color="#595959"/>
  </radialGradient>
  <radialGradient cx="0.5" cy="0.500022" fx="0.5" fy="0.500022" gradientUnits="objectBoundingBox" id="radial_12" r="0.500075">
   <stop offset="0" stop-color="#E0E0E0"/>
   <stop offset="0.5" stop-color="#E0E0E0"/>
   <stop offset="1" stop-color="#595959"/>
  </radialGradient>
 </defs>
 <metadata>
  <atv:parameter behavior="optional" defaultvalue="SYSTEM.GLOBALS.atvise_Advanced_Objects_Maintenance_List.Mining_Industry.Maintenance_Sizer" desc="Global_Maintenance" group="Maintenance" name="Global_Maintenance" valuetype="global"/>
  <atv:parameter behavior="optional" defaultvalue="SYSTEM.GLOBALS.atvise_Advanced_Objects_Maintenance_List.Mining_Industry.Maintenance_Sizer" desc="Global Maintenance Address" group="Maintenance" name="Global_Maintenance_Address" valuetype="string"/>
  <atv:parameter behavior="optional" defaultvalue="true" desc="Maintenance_Active" group="Maintenance" name="Maintenance" valuetype="bool"/>
  <atv:parameter behavior="optional" defaultvalue="true" desc="Icon Indicator Active" group="Alarming" name="Icon_Indicator" valuetype="bool"/>
  <atv:parameter behavior="optional" defaultvalue="" desc="Alert_Range" group="Alarming" name="Alert_Range" valuetype="number"/>
  <atv:parameter behavior="optional" defaultvalue="" desc="Notification List" group="Alarming" name="Notification_List" valuetype="global"/>
  <atv:parameter behavior="optional" defaultvalue="false" desc="Email Notification Active" group="Alarming" name="Email_Notification" valuetype="bool"/>
  <atv:parameter behavior="optional" defaultvalue="false" desc="Alertzy_Notification" group="Alarming" name="Alertzy_Notification" valuetype="bool"/>
  <atv:parameter behavior="optional" defaultvalue="SYSTEM.GLOBALS.Color_Global_1" desc="Color" group="Appereance" name="Color" substitute="$Color$" valuetype="global"/>
  <atv:parameter behavior="optional" defaultvalue="14" desc="Title Font Size" group="Appereance" name="Title_Font_Size" substitute="$FontSize$" valuetype="number"/>
  <atv:gridconfig enabled="true" gridstyle="lines" height="20" width="20"/>
  <atv:snapconfig enabled="true" height="5" width="5"/>
 </metadata>
 <script atv:desc="" atv:href="SYSTEM.LIBRARY.PROJECT.DISPLAYSCRIPTS.atvise_Advanced_Objects_Display_Scripts.AAA_Principal_Display_Script" atv:name="" atv:type="text/ecmascript"/>
 <script atv:desc="" atv:name="" type="text/ecmascript"/>
 <svg atv:refpx="39" atv:refpy="61.36" height="122.72" id="id_6" width="78" x="0" xlink:href="SYSTEM.LIBRARY.PROJECT.OBJECTDISPLAYS.atvise_Advanced_Objects_Complementary_Elements.Alarm_Alert_Advanced_Indicator" y="0">
  <atv:argument name="base" prefix="base"/>
 </svg>
 <svg atv:refpx="48.06" atv:refpy="258.06" height="36.12" id="id_16" width="36.12" x="30" xlink:href="SYSTEM.LIBRARY.PROJECT.OBJECTDISPLAYS.atvise_Advanced_Objects_Complementary_Elements.Maintenance_Advanced_Indicator" y="240">
  <atv:argument name="base" prefix="base"/>
 </svg>
 <path atv:refpx="497.986" atv:refpy="146.906" d="M495.178,228.989L500.794,152.46L500.794,140.734L495.178,64.822Z" fill="#6699FF" id="id_0" stroke="#4C4C4C" stroke-width="2"/>
 <path atv:refpx="100.954" atv:refpy="146.906" d="M103.762,228.989L98.145,152.46L98.145,140.734L103.762,64.822Z" fill="#6699FF" id="id_1" stroke="#4C4C4C" stroke-width="2"/>
 <path atv:refpx="299.47" atv:refpy="139.5" d="M130.115,50.01L468.824,50.01L468.824,228.989L130.115,228.989Z" fill="#003399" id="id_2" stroke="#4C4C4C" stroke-width="2"/>
 <path atv:refpx="299.47" atv:refpy="189.491" d="M265.34,149.991L333.6,149.991L333.6,228.989L265.34,228.989Z" fill="#000066" id="id_3"/>
 <path atv:refpx="199.456" atv:refpy="146.906" d="M103.762,64.822L282.621,64.822L295.149,140.734L295.149,152.46L282.621,228.989L103.762,228.989Z" fill="#3366CC" id="id_4" stroke="#4C4C4C" stroke-width="2"/>
 <path atv:refpx="399.484" atv:refpy="146.906" d="M495.178,64.822L316.319,64.822L303.79,140.734L303.79,152.46L316.319,228.989L495.178,228.989Z" fill="#3366CC" id="id_5" stroke="#4C4C4C" stroke-width="2"/>
 <path atv:refpx="483.946" atv:refpy="190.725" d="M486.105,152.46L481.785,152.46L481.785,228.989L486.105,228.989Z" fill="#4C7FE5" id="id_7" stroke="#4C4C4C" stroke-width="2"/>
 <path atv:refpx="432.966" atv:refpy="190.725" d="M435.558,152.46L430.374,152.46L430.374,228.989L435.558,228.989Z" fill="#4C7FE5" id="id_8" stroke="#4C4C4C" stroke-width="2"/>
 <path atv:refpx="369.675" atv:refpy="190.725" d="M372.05,152.46L367.298,152.46L367.298,228.989L372.05,228.989Z" fill="#4C7FE5" id="id_9" stroke="#4C4C4C" stroke-width="2"/>
 <path atv:refpx="318.479" atv:refpy="190.725" d="M320.639,152.46L316.319,152.46L316.319,228.989L320.639,228.989Z" fill="#4C7FE5" id="id_10" stroke="#4C4C4C" stroke-width="2"/>
 <path atv:refpx="114.995" atv:refpy="190.725" d="M112.834,152.46L117.154,152.46L117.154,228.989L112.834,228.989Z" fill="#4C7FE5" id="id_11" stroke="#4C4C4C" stroke-width="2"/>
 <path atv:refpx="165.974" atv:refpy="190.725" d="M163.381,152.46L168.566,152.46L168.566,228.989L163.381,228.989Z" fill="#4C7FE5" id="id_12" stroke="#4C4C4C" stroke-width="2"/>
 <path atv:refpx="229.698" atv:refpy="190.725" d="M227.753,152.46L231.641,152.46L231.641,228.989L227.753,228.989Z" fill="#4C7FE5" id="id_13" stroke="#4C4C4C" stroke-width="2"/>
 <path atv:refpx="280.461" atv:refpy="190.725" d="M278.3,152.46L282.621,152.46L282.621,228.989L278.3,228.989Z" fill="#4C7FE5" id="id_14" stroke="#4C4C4C" stroke-width="2"/>
 <path atv:refpx="318.479" atv:refpy="102.778" d="M320.639,64.822L316.319,64.822L316.319,140.734L320.639,140.734Z" fill="#6699FF" id="id_15" stroke="#4C4C4C" stroke-width="2"/>
 <path atv:refpx="369.675" atv:refpy="102.778" d="M372.05,64.822L367.298,64.822L367.298,140.734L372.05,140.734Z" fill="#6699FF" id="id_17" stroke="#4C4C4C" stroke-width="2"/>
 <path atv:refpx="432.966" atv:refpy="102.778" d="M435.558,64.822L430.374,64.822L430.374,140.734L435.558,140.734Z" fill="#6699FF" id="id_18" stroke="#4C4C4C" stroke-width="2"/>
 <path atv:refpx="483.946" atv:refpy="102.778" d="M486.105,64.822L481.785,64.822L481.785,140.734L486.105,140.734Z" fill="#6699FF" id="id_19" stroke="#4C4C4C" stroke-width="2"/>
 <path atv:refpx="280.461" atv:refpy="102.778" d="M278.3,64.822L282.621,64.822L282.621,140.734L278.3,140.734Z" fill="#6699FF" id="id_20" stroke="#4C4C4C" stroke-width="2"/>
 <path atv:refpx="229.698" atv:refpy="102.778" d="M227.753,64.822L231.641,64.822L231.641,140.734L227.753,140.734Z" fill="#6699FF" id="id_21" stroke="#4C4C4C" stroke-width="2"/>
 <path atv:refpx="165.974" atv:refpy="102.778" d="M163.381,64.822L168.566,64.822L168.566,140.734L163.381,140.734Z" fill="#6699FF" id="id_22" stroke="#4C4C4C" stroke-width="2"/>
 <path atv:refpx="114.995" atv:refpy="102.778" d="M112.834,64.822L117.154,64.822L117.154,140.734L112.834,140.734Z" fill="#6699FF" id="id_23" stroke="#4C4C4C" stroke-width="2"/>
 <path atv:refpx="401.212" atv:refpy="146.597" d="M502.954,140.734L299.47,140.734L299.47,152.46L502.954,152.46Z" fill="#6699FF" id="id_24" stroke="#4C4C4C" stroke-width="2"/>
 <path atv:refpx="197.728" atv:refpy="146.597" d="M95.985,140.734L299.47,140.734L299.47,152.46L95.985,152.46Z" fill="#6699FF" id="id_25" stroke="#4C4C4C" stroke-width="2"/>
 <path atv:refpx="299.47" atv:refpy="146.597" d="M502.954,146.288L95.985,146.288" fill="none" id="id_26" stroke="#4C4C4C" stroke-width="2"/>
 <circle atv:refpx="436.855" atv:refpy="143.82" cx="443.264" cy="102.153" fill="#6699FF" id="id_27" r="60.056" stroke="#4C4C4C" stroke-width="2" transform="matrix(0.9855,0,0,1.4079,0,0)"/>
 <circle atv:refpx="161.654" atv:refpy="143.82" cx="164.025" cy="102.153" fill="#6699FF" id="id_28" r="60.056" stroke="#4C4C4C" stroke-width="2" transform="matrix(0.9855,0,0,1.4079,0,0)"/>
 <path atv:refpx="381.771" atv:refpy="141.66" d="M380.259,139.5L380.259,143.82L383.283,143.82L383.283,139.5Z" fill="#003399" id="id_29"/>
 <path atv:refpx="399.268" atv:refpy="86.115" d="M398.836,82.72L397.108,85.806L398.836,89.509L401.428,85.806Z" fill="#003399" id="id_30"/>
 <path atv:refpx="438.799" atv:refpy="63.588" d="M440.31,61.119L437.286,61.119L437.286,66.056L440.31,66.056Z" fill="#003399" id="id_31"/>
 <path atv:refpx="493.45" atv:refpy="145.363" d="M495.178,147.523L495.178,143.203L491.722,143.203L491.722,147.523Z" fill="#003399" id="id_32"/>
 <path atv:refpx="475.737" atv:refpy="200.908" d="M475.305,204.302L477.897,201.216L475.305,197.513L473.576,201.216Z" fill="#003399" id="id_33"/>
 <path atv:refpx="436.207" atv:refpy="223.127" d="M434.694,225.286L437.718,225.286L437.718,220.966L434.694,220.966Z" fill="#003399" id="id_34"/>
 <path atv:refpx="397.324" atv:refpy="198.131" d="M394.948,198.748L397.108,201.216L399.7,198.748L397.108,195.045Z" fill="#003399" id="id_35"/>
 <path atv:refpx="477.681" atv:refpy="88.892" d="M480.057,89.509L477.897,85.806L475.305,89.509L477.897,91.977Z" fill="#003399" id="id_36"/>
 <path atv:refpx="217.169" atv:refpy="141.66" d="M218.681,139.5L218.681,143.82L215.656,143.82L215.656,139.5Z" fill="#003399" id="id_37"/>
 <path atv:refpx="200.104" atv:refpy="86.115" d="M200.104,82.72L202.696,85.806L200.104,89.509L197.511,85.806Z" fill="#003399" id="id_38"/>
 <path atv:refpx="160.142" atv:refpy="63.588" d="M158.629,61.119L161.653,61.119L161.653,66.056L158.629,66.056Z" fill="#003399" id="id_39"/>
 <path atv:refpx="105.49" atv:refpy="145.363" d="M103.762,147.523L103.762,143.203L107.218,143.203L107.218,147.523Z" fill="#003399" id="id_40"/>
 <path atv:refpx="123.203" atv:refpy="200.908" d="M123.635,204.302L121.043,201.216L123.635,197.513L125.363,201.216Z" fill="#003399" id="id_41"/>
 <path atv:refpx="162.734" atv:refpy="223.127" d="M164.245,225.286L161.221,225.286L161.221,220.966L164.245,220.966Z" fill="#003399" id="id_42"/>
 <path atv:refpx="201.616" atv:refpy="198.131" d="M203.992,198.748L201.832,201.216L199.239,198.748L201.832,195.045Z" fill="#003399" id="id_43"/>
 <path atv:refpx="121.259" atv:refpy="88.892" d="M118.882,89.509L121.043,85.806L123.635,89.509L121.043,91.977Z" fill="#003399" id="id_44"/>
 <path atv:refpx="437.071" atv:refpy="144.129" d="M416.549,214.177L430.374,219.732L444.631,219.732L457.591,214.177L469.688,204.302L479.625,190.725L486.969,173.444L489.993,153.694L489.993,133.328L486.969,114.813L479.625,97.532L469.688,83.337L457.591,72.845L444.631,68.525L430.374,68.525L416.549,72.845L404.452,83.337L394.948,97.532L388.035,114.813L384.147,133.328L384.147,153.694L388.035,173.444L394.948,190.725L404.452,204.302Z" fill="#3366CC" id="id_45" stroke="#003399" stroke-width="2"/>
 <circle atv:refpx="161.654" atv:refpy="143.821" cx="164.026" cy="102.153" fill="#3366CC" id="id_46" r="53.481" stroke="#003399" stroke-width="2" transform="matrix(0.9855,0,0,1.4079,0,0)"/>
 <circle atv:refpx="161.652" atv:refpy="143.819" cx="164.024" cy="102.152" fill="#CC9933" id="id_47" r="38.575" stroke="#4C4C4C" stroke-width="2" transform="matrix(0.9855,0,0,1.4079,0,0)"/>
 <circle atv:refpx="436.854" atv:refpy="143.819" cx="443.263" cy="102.152" fill="#CC9933" id="id_48" r="38.575" stroke="#4C4C4C" stroke-width="2" transform="matrix(0.9855,0,0,1.4079,0,0)"/>
 <path atv:refpx="402.509" atv:refpy="142.277" d="M401.428,140.734L401.428,143.82L403.588,143.82L403.588,140.734Z" id="id_49"/>
 <path atv:refpx="413.525" atv:refpy="107.407" d="M413.525,105.555L411.797,106.789L413.525,109.258L415.253,106.789Z" id="id_50"/>
 <path atv:refpx="438.367" atv:refpy="93.521" d="M439.446,91.977L437.286,91.977L437.286,95.063L439.446,95.063Z" id="id_51"/>
 <path atv:refpx="472.497" atv:refpy="144.746" d="M473.576,146.288L473.576,143.203L471.416,143.203L471.416,146.288Z" id="id_52"/>
 <path atv:refpx="461.48" atv:refpy="179.616" d="M461.48,181.467L463.208,180.233L461.48,177.764L459.752,180.233Z" id="id_53"/>
 <path atv:refpx="436.639" atv:refpy="193.502" d="M435.558,195.045L437.718,195.045L437.718,191.959L435.558,191.959Z" id="id_54"/>
 <path atv:refpx="412.229" atv:refpy="177.765" d="M410.933,177.764L411.797,180.233L413.525,177.764L411.797,175.295Z" id="id_55"/>
 <path atv:refpx="462.776" atv:refpy="109.259" d="M464.072,109.258L463.208,106.789L461.48,109.258L463.208,111.727Z" id="id_56"/>
 <path atv:refpx="196.432" atv:refpy="142.277" d="M197.511,140.734L197.511,143.82L195.351,143.82L195.351,140.734Z" id="id_57"/>
 <path atv:refpx="185.847" atv:refpy="107.407" d="M185.415,105.555L187.143,106.789L185.415,109.258L184.551,106.789Z" id="id_58"/>
 <path atv:refpx="160.574" atv:refpy="93.521" d="M159.493,91.977L161.653,91.977L161.653,95.063L159.493,95.063Z" id="id_59"/>
 <path atv:refpx="126.443" atv:refpy="144.746" d="M125.363,146.288L125.363,143.203L127.523,143.203L127.523,146.288Z" id="id_60"/>
 <path atv:refpx="137.46" atv:refpy="179.616" d="M137.46,181.467L135.732,180.233L137.46,177.764L139.188,180.233Z" id="id_61"/>
 <path atv:refpx="162.302" atv:refpy="193.502" d="M163.381,195.045L161.221,195.045L161.221,191.959L163.381,191.959Z" id="id_62"/>
 <path atv:refpx="187.143" atv:refpy="177.765" d="M188.871,177.764L187.143,180.233L185.415,177.764L187.143,175.295Z" id="id_63"/>
 <path atv:refpx="136.164" atv:refpy="109.259" d="M134.867,109.258L135.732,106.789L137.46,109.258L135.732,111.727Z" id="id_64"/>
 <circle atv:refpx="437.287" atv:refpy="143.203" cx="443.703" cy="101.715" fill="#000033" id="id_65" r="29.809" stroke="#4C4C4C" stroke-width="2" transform="matrix(0.9855,0,0,1.4079,0,0)"/>
 <path atv:refpx="161.438" atv:refpy="143.512" d="M173.318,182.701L165.973,185.787L157.765,185.787L150.42,182.701L143.94,177.764L138.324,169.741L134.003,160.483L131.843,148.757L131.843,138.265L134.003,127.773L138.324,117.281L143.94,110.493L150.42,104.321L157.765,101.235L165.973,101.235L173.318,104.321L179.798,110.493L185.415,117.281L189.735,127.773L191.031,138.265L191.031,148.757L189.735,160.483L185.415,169.741L179.798,177.764Z" fill="#000033" id="id_66" stroke="#4C4C4C" stroke-width="2"/>
 <path atv:refpx="261.236" atv:refpy="83.029" d="M250.651,74.079L271.82,74.079L271.82,91.977L250.651,91.977Z" fill="#CC9933" id="id_67"/>
 <rect atv:refpx="296.849" atv:refpy="142.5" fill="#000000" fill-opacity="0" height="285" id="click_area" stroke="#0000ff" stroke-width="0" width="430" x="80" y="0"/>
</svg>
