<!DOCTYPE svg PUBLIC "-//W3C//DTD SVG 20000303 Stylable//EN" "http://www.w3.org/TR/2000/03/WD-SVG-20000303/DTD/svg-20000303-stylable.dtd"[]><svg xmlns="http://www.w3.org/2000/svg" width="64px" height="64px" viewBox="0 0 999 543"><path style="fill:#666" d="M945,352 l10,0 0,-235 -10,0 0,235z" /><path style="fill:#b2b2b2;stroke:#4c4c4c;stroke-width:2" d="M122,327 l5,-14 166,0 5,14 -176,0z" /><path style="fill:#999" d="M318,313 l78,-16 0,-185 -78,-15 -275,0 -39,15 0,193 39,8 275,0z" /><path style="fill:#bfbfbf" d="M318,290 l78,-12 0,-146 -78,-11 -275,0 -39,11 0,152 39,6 275,0z" /><path style="fill:#e5e5e5" d="M318,259 l78,-8 0,-92 -78,-8 -275,0 -39,8 0,96 39,4 275,0z" /><path style="fill:#f2f2f2" d="M318,216 l78,-1 0,-20 -78,-2 -275,0 -39,2 0,21 39,0 275,0z" /><path style="fill:none;stroke:#4c4c4c;stroke-width:2" d="M318,313 l78,-16 0,-185 -78,-15 -275,0 -39,15 0,193 39,8 275,0" /><path style="fill:#333;stroke:#4c4c4c;stroke-width:2" d="M112,143 l196,0 0,170 -196,0 0,-170z" /><path style="fill:#e5e5e5" d="M107,220 l206,0 0,8 -206,0 0,-8z" /><path style="fill:#e5e5e5" d="M107,243 l206,0 0,8 -206,0 0,-8z" /><path style="fill:#e5e5e5" d="M107,151 l206,0 0,8 -206,0 0,-8z" /><path style="fill:#e5e5e5" d="M107,174 l206,0 0,8 -206,0 0,-8z" /><path style="fill:#bfbfbf" d="M107,263 l206,0 0,7 -206,0 0,-7z" /><path style="fill:#bfbfbf" d="M107,278 l206,0 0,8 -206,0 0,-8z" /><path style="fill:#999" d="M107,294 l206,0 0,7 -206,0 0,-7z" /><path style="fill:#f2f2f2" d="M107,197 l206,0 0,8 -206,0 0,-8z" /><path style="fill:none;stroke:#4c4c4c;stroke-width:2" d="M43,313 l0,-216" /><path style="fill:none;stroke:#4c4c4c;stroke-width:2" d="M102,97 l0,216" /><path style="fill:none;stroke:#4c4c4c;stroke-width:2" d="M318,97 l0,216" /><path style="fill:#d9d9d9;stroke:#4c4c4c;stroke-width:2" d="M102,342 l0,-15 59,0 0,-34 98,0 0,34 59,0 0,15 -216,0z" /><path style="fill:#b2b2b2;stroke:#4c4c4c;stroke-width:2" d="M14,470 l882,0 0,58 -882,0 0,-58z" /><path style="fill:#e5e5e5;stroke:#4c4c4c;stroke-width:2" d="M24,460 l19,-113 334,0 0,-34 235,0 0,-30 215,0 0,177 -803,0z" /><path style="fill:#999;stroke:#4c4c4c;stroke-width:2" d="M827,68 l118,0 0,372 -118,0 0,-372z" /><path style="fill:#a6a6a6" d="M847,14 l78,0 0,377 -78,0 0,-377z" /><circle style="fill:#333" cx="151" cy="405" r="29" /><path style="fill:#b2b2b2;stroke:#4c4c4c;stroke-width:2" d="M396,244 l20,0 0,-78 -20,0 0,78z" /><circle style="fill:#333" cx="425" cy="366" r="29" /><circle style="fill:#333" cx="729" cy="337" r="29" /><path style="fill:#fff" d="M631,352 l49,0 0,20 -49,0 0,-20z" /><path style="fill:#fff" d="M631,303 l49,0 0,39 -49,0 0,-39z" /><path style="fill:#900" d="M641,357 l30,0 0,10 -30,0 0,-10z" /><path style="fill:#ccc;stroke:#4c4c4c;stroke-width:2" d="M416,303 l0,-166 98,0 0,34 59,0 0,-25 254,0 0,69 -29,59 -186,0 0,29 -196,0z" /><path style="fill:#bfbfbf" d="M847,14 l78,0 0,333 -78,0 0,-333z" /><path style="fill:#d9d9d9" d="M847,14 l78,0 0,265 -78,0 0,-265z" /><path style="fill:#f2f2f2" d="M847,14 l78,0 0,171 -78,0 0,-171z" /><path style="fill:none;stroke:#4c4c4c;stroke-width:2" d="M847,421 l0,-407 78,0 0,407" /><path style="fill:#b2b2b2;stroke:#4c4c4c;stroke-width:2" d="M234,107 l-4,-20 127,0 -5,20 -118,0z" /><path style="fill:#e5e5e5;stroke:#4c4c4c;stroke-width:2" d="M230,83 l9,-30 108,0 10,30 -127,0z" /><path style="fill:#f2f2f2;stroke:#4c4c4c;stroke-width:2" d="M220,83 l147,0 0,4 -147,0 0,-4z" /><path style="fill:none;stroke:#fff;stroke-width:2" d="M435,283 l0,-39 49,0" /><path style="fill:none;stroke:#4c4c4c;stroke-width:2" d="M484,244 l0,39 -48,0" /><path style="fill:none;stroke:#fff;stroke-width:2" d="M759,254 l0,-20 39,0" /><path style="fill:none;stroke:#4c4c4c;stroke-width:2" d="M798,234 l0,20 -39,0" /><path style="fill:none;stroke:#999;stroke-width:2" d="M631,342 l0,-39 49,0" /><path style="fill:none;stroke:#999;stroke-width:2" d="M631,372 l0,-20 49,0" /><path style="fill:#f2f2f2;stroke:#4c4c4c;stroke-width:2" d="M607,284 l0,-10 220,0 0,10 -220,0z" /><path style="fill:#f2f2f2;stroke:#4c4c4c;stroke-width:2" d="M372,313 l0,-10 240,0 0,10 -240,0z" /><path style="fill:#f2f2f2;stroke:#4c4c4c;stroke-width:2" d="M38,347 l0,-10 339,0 0,10 -339,0z" /><path style="fill:#f2f2f2;stroke:#4c4c4c;stroke-width:2" d="M4,528 l902,0 0,10 -902,0 0,-10z" /><path style="fill:#f2f2f2;stroke:#4c4c4c;stroke-width:2" d="M4,460 l902,0 0,10 -902,0 0,-10z" /><path style="fill:#d9d9d9;stroke:#4c4c4c;stroke-width:2" d="M837,4 l98,0 0,10 -98,0 0,-10z" /><path style="fill:#d9d9d9;stroke:#4c4c4c;stroke-width:2" d="M837,126 l98,0 0,10 -98,0 0,-10z" /><path style="fill:#d9d9d9;stroke:#4c4c4c;stroke-width:2" d="M837,244 l98,0 0,10 -98,0 0,-10z" /><path style="fill:#d9d9d9;stroke:#4c4c4c;stroke-width:2" d="M837,357 l98,0 0,10 -98,0 0,-10z" /><path style="fill:#7f7f7f" d="M955,460 l28,0 0,-451 -28,0 0,451z" /><path style="fill:#969696" d="M955,415 l29,0 0,-362 -29,0 0,362z" /><path style="fill:#ababab" d="M955,371 l29,0 0,-274 -29,0 0,274z" /><path style="fill:#c2c2c2" d="M955,327 l29,0 0,-186 -29,0 0,186z" /><path style="fill:#d9d9d9" d="M955,283 l29,0 0,-98 -29,0 0,98z" /><path style="fill:none;stroke:#4c4c4c;stroke-width:2" d="M955,460 l29,0 0,-451 -29,0 0,451" /><path style="fill:#ccc;stroke:#4c4c4c;stroke-width:2" d="M984,29 l10,0 0,29 -10,0 0,-29z" /><path style="fill:#ccc;stroke:#4c4c4c;stroke-width:2" d="M984,105 l10,0 0,29 -10,0 0,-29z" /><path style="fill:#ccc;stroke:#4c4c4c;stroke-width:2" d="M984,182 l10,0 0,29 -10,0 0,-29z" /><path style="fill:#ccc;stroke:#4c4c4c;stroke-width:2" d="M984,258 l10,0 0,29 -10,0 0,-29z" /><path style="fill:#ccc;stroke:#4c4c4c;stroke-width:2" d="M984,335 l10,0 0,29 -10,0 0,-29z" /><path style="fill:#ccc;stroke:#4c4c4c;stroke-width:2" d="M984,411 l10,0 0,29 -10,0 0,-29z" /></svg>