<!DOCTYPE svg PUBLIC '-//W3C//DTD SVG 1.1//EN' 'http://www.w3.org/Graphics/SVG/1.1/DTD/svg11.dtd'>
<svg enable-background="new 0 0 112.5 56.643" height="56.643000000000001" version="1.1" width="112.5" xml:space="preserve" xmlns="http://www.w3.org/2000/svg" xmlns:atv="http://webmi.atvise.com/2007/svgext" xmlns:xlink="http://www.w3.org/1999/xlink">
 <defs>
  <linearGradient gradientUnits="objectBoundingBox" id="SVGID_1_" x1="0.500007" x2="0.500007" y1="0.999991" y2="-3.06222e-06">
   <stop offset="0" stop-color="#595959"/>
   <stop offset="0.5" stop-color="#E0E0E0"/>
   <stop offset="1" stop-color="#595959"/>
  </linearGradient>
  <linearGradient gradientUnits="objectBoundingBox" id="SVGID_2_" x1="0.500124" x2="0.500124" y1="1.00002" y2="2.756e-05">
   <stop offset="0" stop-color="#CCCCCC"/>
   <stop offset="0.5" stop-color="#FCFCFC"/>
   <stop offset="1" stop-color="#CCCCCC"/>
  </linearGradient>
  <linearGradient gradientUnits="objectBoundingBox" id="SVGID_3_" x1="0.500003" x2="0.500003" y1="1" y2="2.682e-05">
   <stop offset="0" stop-color="#CCCCCC"/>
   <stop offset="0.5" stop-color="#F0F0F0"/>
   <stop offset="1" stop-color="#CCCCCC"/>
  </linearGradient>
  <linearGradient gradientUnits="objectBoundingBox" id="SVGID_4_" x1="0.49997" x2="0.49997" y1="1" y2="2.682e-05">
   <stop offset="0" stop-color="#595959"/>
   <stop offset="0.5" stop-color="#E0E0E0"/>
   <stop offset="1" stop-color="#595959"/>
  </linearGradient>
  <linearGradient gradientUnits="objectBoundingBox" id="SVGID_5_" x1="0.500089" x2="0.500089" y1="1" y2="2.682e-05">
   <stop offset="0" stop-color="#595959"/>
   <stop offset="0.5" stop-color="#E0E0E0"/>
   <stop offset="1" stop-color="#595959"/>
  </linearGradient>
  <linearGradient gradientUnits="objectBoundingBox" id="SVGID_6_" x1="0.475465" x2="0.524542" y1="1.75779" y2="-0.757609">
   <stop offset="0" stop-color="#CCCCCC"/>
   <stop offset="0.28" stop-color="#CFCFCF"/>
   <stop offset="0.41" stop-color="#E5E5E5"/>
  </linearGradient>
 </defs>
 <metadata>
  <atv:gridconfig enabled="false" gridstyle="lines" height="20" width="20"/>
  <atv:snapconfig enabled="false" height="10" width="10"/>
 </metadata>
 <g atv:refpx="56.25" atv:refpy="28.322" id="Image_1">
  <g atv:refpx="100.449" atv:refpy="27.476" id="Group_Feeder">
   <path atv:refpx="95.157" atv:refpy="27.477" d="M88.4,40.877L101.913,40.877L101.913,14.076L88.4,14.076Z" fill="#D6D6D6" id="id_0" stroke="#4C4C4C" stroke-width="0.25"/>
   <path atv:refpx="95.157" atv:refpy="27.477" d="M88.4,38.175L101.913,38.175L101.913,16.779L88.4,16.779Z" fill="#EBEBEB" id="id_1" stroke="#4C4C4C" stroke-width="0.25"/>
   <path atv:refpx="95.157" atv:refpy="27.477" d="M88.4,35.247L101.913,35.247L101.913,19.707L88.4,19.707Z" fill="#FFFFFF" id="id_2" stroke="#4C4C4C" stroke-width="0.25"/>
   <circle atv:refpx="95.156" atv:refpy="30.067" cx="95.156" cy="30.067" fill="#FFFFFF" id="id_3" r="3.829" stroke="#4C4C4C" stroke-width="0.25"/>
   <circle atv:refpx="95.044" atv:refpy="29.954" cx="95.044" cy="29.954" fill="#FFFFFF" id="id_4" r="1.914" stroke="#4C4C4C" stroke-width="0.25"/>
   <path atv:refpx="103.208" atv:refpy="27.476" d="M104.503,11.148L101.913,11.148L101.913,43.804L104.503,43.804Z" fill="#FFFFFF" id="id_5" stroke="#4C4C4C" stroke-width="0.25"/>
   <path atv:refpx="108.951" atv:refpy="37.499" d="M107.543,41.778L110.359,41.778L110.359,33.22L107.543,33.22Z" fill="#E5E5E5" id="id_6" stroke="#4C4C4C" stroke-width="0.25"/>
   <path atv:refpx="108.951" atv:refpy="17.567" d="M107.543,21.733L110.359,21.733L110.359,13.4L107.543,13.4Z" fill="#E5E5E5" id="id_7" stroke="#4C4C4C" stroke-width="0.25"/>
   <path atv:refpx="111.091" atv:refpy="27.589" d="M109.684,31.868L112.497,31.868L112.497,23.31L109.684,23.31Z" fill="#E5E5E5" id="id_8" stroke="#4C4C4C" stroke-width="0.25"/>
   <path atv:refpx="106.023" atv:refpy="37.386" d="M104.503,40.202L107.543,40.202L107.543,34.571L104.503,34.571Z" fill="#999999" id="id_9" stroke="#4C4C4C" stroke-width="0.25"/>
   <path atv:refpx="106.023" atv:refpy="17.454" d="M104.503,20.382L107.543,20.382L107.543,14.526L104.503,14.526Z" fill="#999999" id="id_10" stroke="#4C4C4C" stroke-width="0.25"/>
   <path atv:refpx="107.094" atv:refpy="27.477" d="M104.503,30.292L109.684,30.292L109.684,24.661L104.503,24.661Z" fill="#999999" id="id_11" stroke="#4C4C4C" stroke-width="0.25"/>
  </g>
  <g atv:refpx="66.779" atv:refpy="22.578" id="Group_Mixer">
   <path atv:refpx="66.779" atv:refpy="27.477" d="M45.158,43.805L73.535,43.805L79.166,37.499L84.797,37.499L84.797,40.877L88.4,40.877L88.4,14.076L84.796,14.076L84.796,17.68L79.165,17.68L73.534,11.149L45.158,11.149Z" fill="url(#SVGID_1_)" id="id_12"/>
   <path atv:refpx="85.297" atv:refpy="27.589" d="M84.797,17.68L84.797,37.498" fill="none" id="id_13" stroke="#4C4C4C" stroke-width="0.25"/>
   <path atv:refpx="79.666" atv:refpy="27.59" d="M79.166,37.499L79.166,17.68" fill="none" id="id_14" stroke="#4C4C4C" stroke-width="0.25"/>
   <path atv:refpx="70.72" atv:refpy="27.476" d="M73.535,11.148L67.905,11.148L67.905,43.804L73.535,43.804Z" fill="url(#SVGID_2_)" id="id_15" stroke="#4C4C4C" stroke-width="0.25"/>
   <path atv:refpx="59.346" atv:refpy="44.143" d="M73.535,43.805L45.158,43.805L45.158,44.481L73.535,44.481Z" id="id_16"/>
   <path atv:refpx="56.869" atv:refpy="27.815" d="M65.652,10.473L64.976,10.473L64.976,44.48L48.086,44.48L48.086,45.156L65.652,45.156Z" fill="#B2B2B2" id="id_17" stroke="#4C4C4C" stroke-width="0.25"/>
   <path atv:refpx="86.711" atv:refpy="43.017" d="M87.725,40.877L87.048,45.156L86.372,45.156L85.696,40.877Z" fill="#666666" id="id_18" stroke="#4C4C4C" stroke-width="0.25"/>
   <path atv:refpx="70.719" atv:refpy="5.575" d="M72.184,11.148L72.184,1.915L70.607,0L69.255,1.915L69.255,11.149L72.184,11.149Z" fill="#7F7F7F" id="id_19" stroke="#4C4C4C" stroke-width="0.25"/>
   <path atv:refpx="70.72" atv:refpy="7.038" d="M76.463,5.518L64.977,5.518L64.977,8.559L76.463,8.559Z" fill="#B2B2B2" id="id_20" stroke="#4C4C4C" stroke-width="0.25"/>
  </g>
  <g atv:refpx="22.467" atv:refpy="24.548" id="Group_Motor">
   <path atv:refpx="23.199" atv:refpy="7.207" d="M23.086,8.896L23.086,8.558L22.523,8.333L22.185,7.995L22.073,6.756L23.086,6.081L23.761,6.081L24.212,6.306L24.438,7.319L23.987,8.333L23.311,8.558L23.311,8.895L23.648,8.895L24.662,8.22L24.887,7.657L24.887,7.319L24.887,6.982L24.438,6.081L23.649,5.63L23.312,5.516L22.974,5.63L22.073,6.08L21.622,6.981L21.51,7.319L21.622,7.657L22.298,8.671Z" fill="#666666" id="id_21"/>
   <path atv:refpx="20.89" atv:refpy="26.8" d="M38.401,10.022L3.38,10.022L3.38,43.579L38.401,43.579Z" fill="url(#SVGID_3_)" id="id_22" stroke="#4C4C4C" stroke-width="0.25"/>
   <path atv:refpx="1.691" atv:refpy="26.8" d="M3.38,10.022L0.001,15.202L0.001,38.399L3.38,43.579Z" fill="url(#SVGID_4_)" id="id_23"/>
   <path atv:refpx="23.256" atv:refpy="26.8" d="M13.29,10.022L33.221,10.022L33.221,43.579L13.29,43.579Z" fill="#B2B2B2" id="id_24" stroke="#4C4C4C" stroke-width="0.25"/>
   <path atv:refpx="40.09" atv:refpy="26.8" d="M38.401,43.579L41.779,38.399L41.779,15.202L38.401,10.022Z" fill="url(#SVGID_5_)" id="id_25"/>
   <path atv:refpx="22.411" atv:refpy="39.751" d="M28.267,35.923L16.555,35.923L16.555,43.579L28.266,43.579L28.266,35.923Z" fill="#999999" id="id_26" stroke="#4C4C4C" stroke-width="0.25"/>
   <path atv:refpx="43.356" atv:refpy="26.8" d="M41.78,23.535L44.933,23.535L44.933,30.066L41.78,30.066Z" fill="#999999" id="id_27" stroke="#4C4C4C" stroke-width="0.25"/>
   <path atv:refpx="23.313" atv:refpy="12.612" d="M31.645,11.824L14.979,11.824L14.979,13.4L31.646,13.4L31.646,11.824Z" fill="#CCCCCC" id="id_28" stroke="#4C4C4C" stroke-width="0.25"/>
   <path atv:refpx="23.313" atv:refpy="15.991" d="M31.645,15.202L14.979,15.202L14.979,16.779L31.646,16.779L31.646,15.202Z" fill="#CCCCCC" id="id_29" stroke="#4C4C4C" stroke-width="0.25"/>
   <path atv:refpx="23.313" atv:refpy="9.29" d="M31.645,8.558L14.979,8.558L14.979,10.022L31.646,10.022L31.646,8.558Z" fill="#CCCCCC" id="id_30" stroke="#4C4C4C" stroke-width="0.25"/>
   <path atv:refpx="23.313" atv:refpy="19.37" d="M31.645,18.581L14.979,18.581L14.979,20.158L31.646,20.158L31.646,18.581Z" fill="#CCCCCC" id="id_31" stroke="#4C4C4C" stroke-width="0.25"/>
   <path atv:refpx="23.313" atv:refpy="26.013" d="M31.645,25.112L14.979,25.112L14.979,26.913L31.646,26.913L31.646,25.112Z" fill="#CCCCCC" id="id_32" stroke="#4C4C4C" stroke-width="0.25"/>
   <path atv:refpx="23.313" atv:refpy="29.278" d="M31.645,28.49L14.979,28.49L14.979,30.066L31.646,30.066L31.646,28.49Z" fill="#CCCCCC" id="id_33" stroke="#4C4C4C" stroke-width="0.25"/>
   <path atv:refpx="23.313" atv:refpy="22.634" d="M31.645,21.733L14.979,21.733L14.979,23.535L31.646,23.535L31.646,21.733Z" fill="#CCCCCC" id="id_34" stroke="#4C4C4C" stroke-width="0.25"/>
   <path atv:refpx="23.313" atv:refpy="32.656" d="M31.645,31.868L14.979,31.868L14.979,33.443L31.646,33.443L31.646,31.868Z" fill="#CCCCCC" id="id_35" stroke="#4C4C4C" stroke-width="0.25"/>
   <path atv:refpx="23.313" atv:refpy="36.035" d="M31.645,35.247L14.979,35.247L14.979,36.823L31.646,36.823L31.646,35.247Z" fill="#CCCCCC" id="id_36" stroke="#4C4C4C" stroke-width="0.25"/>
  </g>
  <g atv:refpx="52.872" atv:refpy="49.21" id="Group_Base_Support">
   <path atv:refpx="33.335" atv:refpy="43.467" d="M36.6,41.778L30.069,41.778L30.069,45.156L36.6,45.156Z" fill="#999999" id="id_37" stroke="#4C4C4C" stroke-width="0.25"/>
   <path atv:refpx="14.979" atv:refpy="43.467" d="M18.357,41.778L11.601,41.778L11.601,45.156L18.357,45.156Z" fill="#999999" id="id_38" stroke="#4C4C4C" stroke-width="0.25"/>
   <path atv:refpx="52.872" atv:refpy="49.772" d="M94.594,45.156L11.15,45.156L11.15,54.388L94.594,54.388Z" fill="url(#SVGID_6_)" id="id_39" stroke="#4C4C4C" stroke-width="0.25"/>
   <path atv:refpx="52.872" atv:refpy="55.517" d="M94.594,56.643L11.15,56.643L11.15,54.39L94.594,54.39Z" fill="#CCCCCC" id="id_40" stroke="#4C4C4C" stroke-width="0.25"/>
  </g>
 </g>
</svg>
